<svg width="27" height="28" viewBox="0 0 27 28" fill="none" xmlns="http://www.w3.org/2000/svg">
<path opacity="0.2" fill-rule="evenodd" clip-rule="evenodd" d="M25.04 13.2721C25.3421 13.4482 25.5928 13.7004 25.7671 14.0036C25.9413 14.3068 26.033 14.6504 26.033 15.0001C26.033 15.3498 25.9413 15.6934 25.7671 15.9966C25.5928 16.2998 25.3421 16.552 25.04 16.7281L7.008 27.2461C6.70406 27.4234 6.3587 27.5175 6.00679 27.5187C5.65488 27.5199 5.30889 27.4282 5.00375 27.2529C4.69861 27.0776 4.44512 26.8249 4.26888 26.5203C4.09265 26.2157 3.9999 25.87 4 25.5181V4.48008C3.9999 4.12818 4.09265 3.78247 4.26888 3.47787C4.44512 3.17328 4.69861 2.92058 5.00375 2.74528C5.30889 2.56999 5.65488 2.47831 6.00679 2.4795C6.3587 2.4807 6.70406 2.57472 7.008 2.75208L25.04 13.2721Z" fill="#5A0000"/>
<path fill-rule="evenodd" clip-rule="evenodd" d="M22 13.0002C22 13.173 21.9553 13.3429 21.8701 13.4933C21.7849 13.6437 21.6622 13.7694 21.514 13.8582L1.514 25.8582C1.36223 25.9492 1.18905 25.9982 1.01213 26.0003C0.83521 26.0025 0.66089 25.9577 0.506958 25.8704C0.353026 25.7832 0.224996 25.6567 0.135933 25.5038C0.0468697 25.3509 -3.71034e-05 25.1771 2.20206e-08 25.0002V1.00021C-3.71034e-05 0.823278 0.0468697 0.649504 0.135933 0.496624C0.224996 0.343743 0.353026 0.217229 0.506958 0.129995C0.66089 0.0427599 0.83521 -0.00207247 1.01213 7.35811e-05C1.18905 0.00221963 1.36223 0.0512673 1.514 0.14221L21.514 12.1422C21.6622 12.231 21.7849 12.3568 21.8701 12.5071C21.9553 12.6575 22 12.8274 22 13.0002ZM2 2.76621V23.2342L19.056 13.0002L2 2.76621Z" fill="#5A0000"/>
</svg>
