<svg width="25" height="25" viewBox="0 0 25 25" fill="none" xmlns="http://www.w3.org/2000/svg">
<path d="M12.959 0.958984C19.5756 0.958984 24.959 6.34237 24.959 12.959C24.959 19.5756 19.5756 24.959 12.959 24.959C6.34237 24.959 0.958984 19.5756 0.958984 12.959C0.958984 6.34237 6.34237 0.958984 12.959 0.958984ZM12.959 2.80514C7.34022 2.80514 2.80514 7.34022 2.80514 12.959C2.80514 18.5778 7.34022 23.1128 12.959 23.1128C18.5778 23.1128 23.1128 18.5778 23.1128 12.959C23.1128 7.34022 18.5778 2.80514 12.959 2.80514ZM12.959 6.38206L13.6236 7.04668L18.8722 12.2953L17.5744 13.6236L13.8821 9.93129V19.4205H12.0359V9.93129L8.3436 13.6236L7.04575 12.2944L12.2953 7.04575L12.9599 6.38114L12.959 6.38206Z" fill="#FEFEFE"/>
</svg>
