<svg width="20" height="20" viewBox="0 0 20 20" fill="none" xmlns="http://www.w3.org/2000/svg">
<g clip-path="url(#clip0_4013_2061)">
<path opacity="0.5" fill-rule="evenodd" clip-rule="evenodd" d="M5.25 4.258V4.5C5.25 4.69891 5.32902 4.88968 5.46967 5.03033C5.61032 5.17098 5.80109 5.25 6 5.25C6.19891 5.25 6.38968 5.17098 6.53033 5.03033C6.67098 4.88968 6.75 4.69891 6.75 4.5V4.25H13.25V4.5C13.25 4.69891 13.329 4.88968 13.4697 5.03033C13.6103 5.17098 13.8011 5.25 14 5.25C14.1989 5.25 14.3897 5.17098 14.5303 5.03033C14.671 4.88968 14.75 4.69891 14.75 4.5V4.258C14.8607 4.262 14.9613 4.26767 15.052 4.275C15.34 4.298 15.477 4.34 15.567 4.386C15.803 4.506 15.994 4.697 16.114 4.933C16.16 5.023 16.202 5.16 16.225 5.447C16.249 5.743 16.25 6.127 16.25 6.7V7.25H3.75V6.7C3.75 6.128 3.75 5.743 3.775 5.447C3.798 5.16 3.84 5.023 3.886 4.933C4.00591 4.69741 4.19741 4.50591 4.433 4.386C4.523 4.34 4.66 4.298 4.947 4.275C5.04784 4.26678 5.14887 4.26111 5.25 4.258ZM8.5 5C8.30109 5 8.11032 5.07902 7.96967 5.21967C7.82902 5.36032 7.75 5.55109 7.75 5.75C7.75 5.94891 7.82902 6.13968 7.96967 6.28033C8.11032 6.42098 8.30109 6.5 8.5 6.5H11.5C11.6989 6.5 11.8897 6.42098 12.0303 6.28033C12.171 6.13968 12.25 5.94891 12.25 5.75C12.25 5.55109 12.171 5.36032 12.0303 5.21967C11.8897 5.07902 11.6989 5 11.5 5H8.5Z" fill="black"/>
<path d="M6.5 12C6.83152 12 7.14946 11.8683 7.38388 11.6339C7.6183 11.3995 7.75 11.0815 7.75 10.75C7.75 10.4185 7.6183 10.1005 7.38388 9.86612C7.14946 9.6317 6.83152 9.5 6.5 9.5C6.16848 9.5 5.85054 9.6317 5.61612 9.86612C5.3817 10.1005 5.25 10.4185 5.25 10.75C5.25 11.0815 5.3817 11.3995 5.61612 11.6339C5.85054 11.8683 6.16848 12 6.5 12ZM6.5 15.5C6.83152 15.5 7.14946 15.3683 7.38388 15.1339C7.6183 14.8995 7.75 14.5815 7.75 14.25C7.75 13.9185 7.6183 13.6005 7.38388 13.3661C7.14946 13.1317 6.83152 13 6.5 13C6.16848 13 5.85054 13.1317 5.61612 13.3661C5.3817 13.6005 5.25 13.9185 5.25 14.25C5.25 14.5815 5.3817 14.8995 5.61612 15.1339C5.85054 15.3683 6.16848 15.5 6.5 15.5ZM11.25 10.75C11.25 11.0815 11.1183 11.3995 10.8839 11.6339C10.6495 11.8683 10.3315 12 10 12C9.66848 12 9.35054 11.8683 9.11612 11.6339C8.8817 11.3995 8.75 11.0815 8.75 10.75C8.75 10.4185 8.8817 10.1005 9.11612 9.86612C9.35054 9.6317 9.66848 9.5 10 9.5C10.3315 9.5 10.6495 9.6317 10.8839 9.86612C11.1183 10.1005 11.25 10.4185 11.25 10.75ZM10 15.5C10.3315 15.5 10.6495 15.3683 10.8839 15.1339C11.1183 14.8995 11.25 14.5815 11.25 14.25C11.25 13.9185 11.1183 13.6005 10.8839 13.3661C10.6495 13.1317 10.3315 13 10 13C9.66848 13 9.35054 13.1317 9.11612 13.3661C8.8817 13.6005 8.75 13.9185 8.75 14.25C8.75 14.5815 8.8817 14.8995 9.11612 15.1339C9.35054 15.3683 9.66848 15.5 10 15.5ZM14.75 10.75C14.75 11.0815 14.6183 11.3995 14.3839 11.6339C14.1495 11.8683 13.8315 12 13.5 12C13.1685 12 12.8505 11.8683 12.6161 11.6339C12.3817 11.3995 12.25 11.0815 12.25 10.75C12.25 10.4185 12.3817 10.1005 12.6161 9.86612C12.8505 9.6317 13.1685 9.5 13.5 9.5C13.8315 9.5 14.1495 9.6317 14.3839 9.86612C14.6183 10.1005 14.75 10.4185 14.75 10.75Z" fill="black"/>
<path fill-rule="evenodd" clip-rule="evenodd" d="M6 1.25C6.19891 1.25 6.38968 1.32902 6.53033 1.46967C6.67098 1.61032 6.75 1.80109 6.75 2V2.75H13.25V2C13.25 1.80109 13.329 1.61032 13.4697 1.46967C13.6103 1.32902 13.8011 1.25 14 1.25C14.1989 1.25 14.3897 1.32902 14.5303 1.46967C14.671 1.61032 14.75 1.80109 14.75 2V2.758C14.902 2.762 15.0437 2.76933 15.175 2.78C15.555 2.81 15.911 2.878 16.248 3.05C16.7656 3.31367 17.1863 3.73445 17.45 4.252C17.622 4.589 17.69 4.945 17.72 5.325C17.75 5.69 17.75 6.135 17.75 6.67V14.33C17.75 14.865 17.75 15.31 17.72 15.675C17.69 16.055 17.622 16.411 17.45 16.748C17.1866 17.2654 16.7662 17.6862 16.249 17.95C15.911 18.122 15.555 18.19 15.175 18.22C14.81 18.25 14.365 18.25 13.831 18.25H6.17C5.635 18.25 5.19 18.25 4.825 18.22C4.445 18.19 4.089 18.122 3.752 17.95C3.23475 17.6869 2.81401 17.2668 2.55 16.75C2.378 16.412 2.31 16.056 2.28 15.676C2.25 15.311 2.25 14.866 2.25 14.332V6.67C2.25 6.135 2.25 5.69 2.28 5.325C2.31 4.945 2.378 4.589 2.55 4.252C2.81367 3.73445 3.23445 3.31367 3.752 3.05C4.089 2.878 4.445 2.81 4.825 2.78C4.95633 2.76933 5.098 2.762 5.25 2.758V2C5.25 1.90151 5.2694 1.80398 5.30709 1.71299C5.34478 1.62199 5.40003 1.53931 5.46967 1.46967C5.53931 1.40003 5.62199 1.34478 5.71299 1.30709C5.80398 1.2694 5.90151 1.25 6 1.25ZM5.25 4.5V4.258C5.14887 4.26111 5.04784 4.26678 4.947 4.275C4.66 4.298 4.523 4.34 4.433 4.386C4.19741 4.50591 4.00591 4.69741 3.886 4.933C3.84 5.023 3.798 5.16 3.775 5.447C3.751 5.743 3.75 6.127 3.75 6.7V7.25H16.25V6.7C16.25 6.128 16.25 5.743 16.225 5.447C16.202 5.16 16.16 5.023 16.114 4.933C15.9941 4.69741 15.8026 4.50591 15.567 4.386C15.477 4.34 15.34 4.298 15.052 4.275C14.9515 4.2668 14.8508 4.26113 14.75 4.258V4.5C14.75 4.69891 14.671 4.88968 14.5303 5.03033C14.3897 5.17098 14.1989 5.25 14 5.25C13.8011 5.25 13.6103 5.17098 13.4697 5.03033C13.329 4.88968 13.25 4.69891 13.25 4.5V4.25H6.75V4.5C6.75 4.69891 6.67098 4.88968 6.53033 5.03033C6.38968 5.17098 6.19891 5.25 6 5.25C5.80109 5.25 5.61032 5.17098 5.46967 5.03033C5.32902 4.88968 5.25 4.69891 5.25 4.5ZM16.25 8.25H3.75V14.3C3.75 14.872 3.75 15.257 3.775 15.552C3.798 15.84 3.84 15.977 3.886 16.067C4.006 16.303 4.197 16.494 4.433 16.614C4.523 16.66 4.66 16.702 4.947 16.725C5.243 16.749 5.627 16.75 6.2 16.75H13.8C14.372 16.75 14.757 16.75 15.052 16.725C15.34 16.702 15.477 16.66 15.567 16.614C15.8026 16.4941 15.9941 16.3026 16.114 16.067C16.16 15.977 16.202 15.84 16.225 15.552C16.249 15.257 16.25 14.872 16.25 14.3V8.25Z" fill="black"/>
</g>
<defs>
<clipPath id="clip0_4013_2061">
<rect width="20" height="20" fill="white"/>
</clipPath>
</defs>
</svg>
