<svg width="21" height="20" viewBox="0 0 21 20" fill="none" xmlns="http://www.w3.org/2000/svg">
<g clip-path="url(#clip0_3669_10174)">
<path opacity="0.5" fill-rule="evenodd" clip-rule="evenodd" d="M5.44922 4.258V4.5C5.44922 4.69891 5.52824 4.88968 5.66889 5.03033C5.80954 5.17098 6.00031 5.25 6.19922 5.25C6.39813 5.25 6.5889 5.17098 6.72955 5.03033C6.8702 4.88968 6.94922 4.69891 6.94922 4.5V4.25H13.4492V4.5C13.4492 4.69891 13.5282 4.88968 13.6689 5.03033C13.8095 5.17098 14.0003 5.25 14.1992 5.25C14.3981 5.25 14.5889 5.17098 14.7295 5.03033C14.8702 4.88968 14.9492 4.69891 14.9492 4.5V4.258C15.0599 4.262 15.1606 4.26767 15.2512 4.275C15.5392 4.298 15.6762 4.34 15.7662 4.386C16.0022 4.506 16.1932 4.697 16.3132 4.933C16.3592 5.023 16.4012 5.16 16.4242 5.447C16.4482 5.743 16.4492 6.127 16.4492 6.7V7.25H3.94922V6.7C3.94922 6.128 3.94922 5.743 3.97422 5.447C3.99722 5.16 4.03922 5.023 4.08522 4.933C4.20513 4.69741 4.39663 4.50591 4.63222 4.386C4.72222 4.34 4.85922 4.298 5.14622 4.275C5.24706 4.26678 5.34809 4.26111 5.44922 4.258ZM8.69922 5C8.50031 5 8.30954 5.07902 8.16889 5.21967C8.02824 5.36032 7.94922 5.55109 7.94922 5.75C7.94922 5.94891 8.02824 6.13968 8.16889 6.28033C8.30954 6.42098 8.50031 6.5 8.69922 6.5H11.6992C11.8981 6.5 12.0889 6.42098 12.2295 6.28033C12.3702 6.13968 12.4492 5.94891 12.4492 5.75C12.4492 5.55109 12.3702 5.36032 12.2295 5.21967C12.0889 5.07902 11.8981 5 11.6992 5H8.69922Z" fill="#4F4F4F"/>
<path d="M6.69922 12C7.03074 12 7.34868 11.8683 7.5831 11.6339C7.81752 11.3995 7.94922 11.0815 7.94922 10.75C7.94922 10.4185 7.81752 10.1005 7.5831 9.86612C7.34868 9.6317 7.03074 9.5 6.69922 9.5C6.3677 9.5 6.04976 9.6317 5.81534 9.86612C5.58091 10.1005 5.44922 10.4185 5.44922 10.75C5.44922 11.0815 5.58091 11.3995 5.81534 11.6339C6.04976 11.8683 6.3677 12 6.69922 12ZM6.69922 15.5C7.03074 15.5 7.34868 15.3683 7.5831 15.1339C7.81752 14.8995 7.94922 14.5815 7.94922 14.25C7.94922 13.9185 7.81752 13.6005 7.5831 13.3661C7.34868 13.1317 7.03074 13 6.69922 13C6.3677 13 6.04976 13.1317 5.81534 13.3661C5.58091 13.6005 5.44922 13.9185 5.44922 14.25C5.44922 14.5815 5.58091 14.8995 5.81534 15.1339C6.04976 15.3683 6.3677 15.5 6.69922 15.5ZM11.4492 10.75C11.4492 11.0815 11.3175 11.3995 11.0831 11.6339C10.8487 11.8683 10.5307 12 10.1992 12C9.8677 12 9.54976 11.8683 9.31534 11.6339C9.08091 11.3995 8.94922 11.0815 8.94922 10.75C8.94922 10.4185 9.08091 10.1005 9.31534 9.86612C9.54976 9.6317 9.8677 9.5 10.1992 9.5C10.5307 9.5 10.8487 9.6317 11.0831 9.86612C11.3175 10.1005 11.4492 10.4185 11.4492 10.75ZM10.1992 15.5C10.5307 15.5 10.8487 15.3683 11.0831 15.1339C11.3175 14.8995 11.4492 14.5815 11.4492 14.25C11.4492 13.9185 11.3175 13.6005 11.0831 13.3661C10.8487 13.1317 10.5307 13 10.1992 13C9.8677 13 9.54976 13.1317 9.31534 13.3661C9.08091 13.6005 8.94922 13.9185 8.94922 14.25C8.94922 14.5815 9.08091 14.8995 9.31534 15.1339C9.54976 15.3683 9.8677 15.5 10.1992 15.5ZM14.9492 10.75C14.9492 11.0815 14.8175 11.3995 14.5831 11.6339C14.3487 11.8683 14.0307 12 13.6992 12C13.3677 12 13.0498 11.8683 12.8153 11.6339C12.5809 11.3995 12.4492 11.0815 12.4492 10.75C12.4492 10.4185 12.5809 10.1005 12.8153 9.86612C13.0498 9.6317 13.3677 9.5 13.6992 9.5C14.0307 9.5 14.3487 9.6317 14.5831 9.86612C14.8175 10.1005 14.9492 10.4185 14.9492 10.75Z" fill="#4F4F4F"/>
<path fill-rule="evenodd" clip-rule="evenodd" d="M6.19922 1.25C6.39813 1.25 6.5889 1.32902 6.72955 1.46967C6.8702 1.61032 6.94922 1.80109 6.94922 2V2.75H13.4492V2C13.4492 1.80109 13.5282 1.61032 13.6689 1.46967C13.8095 1.32902 14.0003 1.25 14.1992 1.25C14.3981 1.25 14.5889 1.32902 14.7295 1.46967C14.8702 1.61032 14.9492 1.80109 14.9492 2V2.758C15.1012 2.762 15.2429 2.76933 15.3742 2.78C15.7542 2.81 16.1102 2.878 16.4472 3.05C16.9648 3.31367 17.3855 3.73445 17.6492 4.252C17.8212 4.589 17.8892 4.945 17.9192 5.325C17.9492 5.69 17.9492 6.135 17.9492 6.67V14.33C17.9492 14.865 17.9492 15.31 17.9192 15.675C17.8892 16.055 17.8212 16.411 17.6492 16.748C17.3858 17.2654 16.9654 17.6862 16.4482 17.95C16.1102 18.122 15.7542 18.19 15.3742 18.22C15.0092 18.25 14.5642 18.25 14.0302 18.25H6.36922C5.83422 18.25 5.38922 18.25 5.02422 18.22C4.64422 18.19 4.28822 18.122 3.95122 17.95C3.43397 17.6869 3.01323 17.2668 2.74922 16.75C2.57722 16.412 2.50922 16.056 2.47922 15.676C2.44922 15.311 2.44922 14.866 2.44922 14.332V6.67C2.44922 6.135 2.44922 5.69 2.47922 5.325C2.50922 4.945 2.57722 4.589 2.74922 4.252C3.01289 3.73445 3.43366 3.31367 3.95122 3.05C4.28822 2.878 4.64422 2.81 5.02422 2.78C5.15555 2.76933 5.29722 2.762 5.44922 2.758V2C5.44922 1.90151 5.46862 1.80398 5.50631 1.71299C5.544 1.62199 5.59924 1.53931 5.66889 1.46967C5.73853 1.40003 5.82121 1.34478 5.91221 1.30709C6.0032 1.2694 6.10073 1.25 6.19922 1.25ZM5.44922 4.5V4.258C5.34809 4.26111 5.24706 4.26678 5.14622 4.275C4.85922 4.298 4.72222 4.34 4.63222 4.386C4.39663 4.50591 4.20513 4.69741 4.08522 4.933C4.03922 5.023 3.99722 5.16 3.97422 5.447C3.95022 5.743 3.94922 6.127 3.94922 6.7V7.25H16.4492V6.7C16.4492 6.128 16.4492 5.743 16.4242 5.447C16.4012 5.16 16.3592 5.023 16.3132 4.933C16.1933 4.69741 16.0018 4.50591 15.7662 4.386C15.6762 4.34 15.5392 4.298 15.2512 4.275C15.1507 4.2668 15.05 4.26113 14.9492 4.258V4.5C14.9492 4.69891 14.8702 4.88968 14.7295 5.03033C14.5889 5.17098 14.3981 5.25 14.1992 5.25C14.0003 5.25 13.8095 5.17098 13.6689 5.03033C13.5282 4.88968 13.4492 4.69891 13.4492 4.5V4.25H6.94922V4.5C6.94922 4.69891 6.8702 4.88968 6.72955 5.03033C6.5889 5.17098 6.39813 5.25 6.19922 5.25C6.00031 5.25 5.80954 5.17098 5.66889 5.03033C5.52824 4.88968 5.44922 4.69891 5.44922 4.5ZM16.4492 8.25H3.94922V14.3C3.94922 14.872 3.94922 15.257 3.97422 15.552C3.99722 15.84 4.03922 15.977 4.08522 16.067C4.20522 16.303 4.39622 16.494 4.63222 16.614C4.72222 16.66 4.85922 16.702 5.14622 16.725C5.44222 16.749 5.82622 16.75 6.39922 16.75H13.9992C14.5712 16.75 14.9562 16.75 15.2512 16.725C15.5392 16.702 15.6762 16.66 15.7662 16.614C16.0018 16.4941 16.1933 16.3026 16.3132 16.067C16.3592 15.977 16.4012 15.84 16.4242 15.552C16.4482 15.257 16.4492 14.872 16.4492 14.3V8.25Z" fill="#4F4F4F"/>
</g>
<defs>
<clipPath id="clip0_3669_10174">
<rect width="20" height="20" fill="white" transform="translate(0.199219)"/>
</clipPath>
</defs>
</svg>
