<svg width="20" height="17" viewBox="0 0 20 17" fill="none" xmlns="http://www.w3.org/2000/svg">
<path d="M20 2.07031C20 1.53988 19.7893 1.03117 19.4142 0.656099C19.0391 0.281026 18.5304 0.0703125 18 0.0703125H2C1.46957 0.0703125 0.960859 0.281026 0.585787 0.656099C0.210714 1.03117 0 1.53988 0 2.07031V14.0703C0 14.6007 0.210714 15.1095 0.585787 15.4845C0.960859 15.8596 1.46957 16.0703 2 16.0703H18C18.5304 16.0703 19.0391 15.8596 19.4142 15.4845C19.7893 15.1095 20 14.6007 20 14.0703V2.07031ZM16.481 2.07031L10 7.74131L3.519 2.07031H16.481ZM2 3.39931L9.341 9.82331C9.52336 9.98309 9.75755 10.0712 10 10.0712C10.2424 10.0712 10.4766 9.98309 10.659 9.82331L18 3.39931V14.0703H2V3.39931Z" fill="black"/>
</svg>
