<svg width="24" height="24" viewBox="0 0 24 24" fill="none" xmlns="http://www.w3.org/2000/svg">
<path d="M22.5227 4H1.65909C1.01894 4 0.5 4.51894 0.5 5.15909V19.8409C0.5 20.4811 1.01894 21 1.65909 21H22.5227C23.1629 21 23.6818 20.4811 23.6818 19.8409V5.15909C23.6818 4.51894 23.1629 4 22.5227 4Z" fill="#B4ACBC"/>
<path d="M22.1371 5.5459H2.04616C1.6194 5.5459 1.27344 5.89186 1.27344 6.31863V18.6823C1.27344 19.109 1.6194 19.455 2.04616 19.455H22.1371C22.5638 19.455 22.9098 19.109 22.9098 18.6823V6.31863C22.9098 5.89186 22.5638 5.5459 22.1371 5.5459Z" fill="#CDC4D6"/>
<path d="M22.9098 18.218L12.8868 12.2046C12.6466 12.0605 12.3717 11.9844 12.0916 11.9844C11.8115 11.9844 11.5367 12.0605 11.2965 12.2046L1.27344 18.218V19.4543C1.27344 19.6593 1.35485 19.8558 1.49976 20.0007C1.64468 20.1457 1.84122 20.2271 2.04616 20.2271H22.1371C22.342 20.2271 22.5386 20.1457 22.6835 20.0007C22.8284 19.8558 22.9098 19.6593 22.9098 19.4543V18.218Z" fill="#E1D8EC"/>
<path d="M1.27344 7.683V6.31836H22.9098V7.683L13.2847 13.4584C12.9243 13.6747 12.5119 13.789 12.0916 13.789C11.6713 13.789 11.2589 13.6747 10.8985 13.4584L1.27344 7.683Z" fill="#998EA4"/>
<path d="M1.27344 6.78155V5.54519C1.27344 5.34025 1.35485 5.1437 1.49976 4.99879C1.64468 4.85387 1.84122 4.77246 2.04616 4.77246H22.1371C22.342 4.77246 22.5386 4.85387 22.6835 4.99879C22.8284 5.1437 22.9098 5.34025 22.9098 5.54519V6.78155L12.8868 12.7957C12.6466 12.9398 12.3717 13.0159 12.0916 13.0159C11.8115 13.0159 11.5367 12.9398 11.2965 12.7957L1.27344 6.78155Z" fill="#F3EEF8"/>
<path d="M12.0907 17.909C13.5253 17.909 14.9011 17.3391 15.9155 16.3247C16.9299 15.3103 17.4998 13.9345 17.4998 12.4999C17.4998 11.0653 16.9299 9.68951 15.9155 8.67511C14.9011 7.66071 13.5253 7.09082 12.0907 7.09082C10.6562 7.09082 9.28033 7.66071 8.26593 8.67511C7.25153 9.68951 6.68164 11.0653 6.68164 12.4999C6.68164 13.9345 7.25153 15.3103 8.26593 16.3247C9.28033 17.3391 10.6562 17.909 12.0907 17.909Z" fill="#00A6ED"/>
<path d="M12.092 9.02294C11.157 9.00749 10.2684 9.36294 9.60381 10.0275C8.93154 10.6843 8.56836 11.5652 8.56836 12.5002C8.56836 14.4166 10.1293 15.9775 12.0456 15.9775C12.142 15.9775 12.2343 15.9392 12.3024 15.8711C12.3706 15.803 12.4088 15.7106 12.4088 15.6143C12.4088 15.518 12.3706 15.4256 12.3024 15.3575C12.2343 15.2894 12.142 15.2511 12.0456 15.2511C10.5311 15.2511 9.29472 14.0148 9.29472 12.5002C9.29472 11.7584 9.58836 11.0629 10.1138 10.5452C10.6393 10.0275 11.3425 9.74931 12.0843 9.74931C13.5756 9.77249 14.7965 11.0243 14.7965 12.5466V13.1725C14.7965 13.3098 14.742 13.4415 14.6449 13.5386C14.5478 13.6357 14.4161 13.6902 14.2788 13.6902C14.1415 13.6902 14.0098 13.6357 13.9127 13.5386C13.8156 13.4415 13.7611 13.3098 13.7611 13.1725V10.7925C13.7611 10.6962 13.7228 10.6038 13.6547 10.5357C13.5866 10.4676 13.4942 10.4293 13.3979 10.4293C13.197 10.4293 13.0193 10.5916 13.0193 10.7925V10.862C12.6793 10.5916 12.2543 10.4216 11.7829 10.4216C10.7011 10.4216 9.82018 11.3025 9.82018 12.3843C9.82018 13.4661 10.7011 14.347 11.7829 14.347C12.3238 14.347 12.8184 14.1229 13.1738 13.7675C13.3902 14.1539 13.7997 14.4166 14.2711 14.4166C14.9588 14.4166 15.5229 13.8525 15.5229 13.1648V12.5389C15.5229 10.6302 13.9852 9.04613 12.092 9.02294ZM11.7906 13.6284C11.1106 13.6284 10.5543 13.072 10.5543 12.392C10.5543 11.712 11.1106 11.1557 11.7906 11.1557C12.4706 11.1557 13.027 11.712 13.027 12.392C13.027 13.072 12.4706 13.6284 11.7906 13.6284Z" fill="#F4F4F4"/>
</svg>
