<svg width="23" height="20" viewBox="0 0 23 20" fill="none" xmlns="http://www.w3.org/2000/svg">
<path d="M11.1992 7.5C10.4036 7.5 9.64051 7.81607 9.0779 8.37868C8.51529 8.94129 8.19922 9.70435 8.19922 10.5C8.19922 11.2956 8.51529 12.0587 9.0779 12.6213C9.64051 13.1839 10.4036 13.5 11.1992 13.5C11.9949 13.5 12.7579 13.1839 13.3205 12.6213C13.8831 12.0587 14.1992 11.2956 14.1992 10.5C14.1992 9.70435 13.8831 8.94129 13.3205 8.37868C12.7579 7.81607 11.9949 7.5 11.1992 7.5ZM11.1992 15.5C9.87314 15.5 8.60137 14.9732 7.66368 14.0355C6.726 13.0979 6.19922 11.8261 6.19922 10.5C6.19922 9.17392 6.726 7.90215 7.66368 6.96447C8.60137 6.02678 9.87314 5.5 11.1992 5.5C12.5253 5.5 13.7971 6.02678 14.7348 6.96447C15.6724 7.90215 16.1992 9.17392 16.1992 10.5C16.1992 11.8261 15.6724 13.0979 14.7348 14.0355C13.7971 14.9732 12.5253 15.5 11.1992 15.5ZM11.1992 3C6.19922 3 1.92922 6.11 0.199219 10.5C1.92922 14.89 6.19922 18 11.1992 18C16.1992 18 20.4692 14.89 22.1992 10.5C20.4692 6.11 16.1992 3 11.1992 3Z" fill="#4F4F4F"/>
</svg>
