<svg width="520" height="520" viewBox="0 0 520 520" fill="none" xmlns="http://www.w3.org/2000/svg">
<g clip-path="url(#clip0_2931_17945)">
<path d="M520 397.693H0V397.953H520V397.693Z" fill="#EBEBEB"/>
<path d="M467.898 414.434H433.451V414.694H467.898V414.434Z" fill="#EBEBEB"/>
<path d="M344.468 417.257H335.428V417.517H344.468V417.257Z" fill="#EBEBEB"/>
<path d="M432.409 404.775H412.449V405.035H432.409V404.775Z" fill="#EBEBEB"/>
<path d="M99.4774 406.524H54.5566V406.784H99.4774V406.524Z" fill="#EBEBEB"/>
<path d="M115.325 406.524H108.738V406.784H115.325V406.524Z" fill="#EBEBEB"/>
<path d="M234.154 410.916H136.73V411.176H234.154V410.916Z" fill="#EBEBEB"/>
<path d="M246.496 351.312H45.6726C42.3998 351.312 39.7363 348.649 39.7363 345.376V63.0867C39.7363 59.8138 42.3998 57.1504 45.6726 57.1504H246.496C249.767 57.1504 252.431 59.8138 252.431 63.0867V345.376C252.431 348.649 249.767 351.312 246.496 351.312ZM45.6726 57.4114C42.5422 57.4114 39.9963 59.9574 39.9963 63.0877V345.377C39.9963 348.507 42.5422 351.053 45.6726 351.053H246.496C249.625 351.053 252.171 348.507 252.171 345.377V63.0867C252.171 59.9574 249.625 57.4104 246.496 57.4104L45.6726 57.4114Z" fill="#EBEBEB"/>
<path d="M471.443 351.312H270.621C267.348 351.312 264.686 348.649 264.686 345.376V63.0867C264.686 59.8138 267.349 57.1504 270.621 57.1504H471.443C474.717 57.1504 477.379 59.8138 477.379 63.0867V345.376C477.38 348.649 474.717 351.312 471.443 351.312ZM270.621 57.4114C267.491 57.4114 264.946 59.9574 264.946 63.0877V345.377C264.946 348.507 267.491 351.053 270.621 351.053H471.443C474.573 351.053 477.119 348.507 477.119 345.377V63.0867C477.119 59.9574 474.573 57.4104 471.443 57.4104L270.621 57.4114Z" fill="#EBEBEB"/>
<path d="M50.9153 269.068C63.5798 269.068 73.8463 258.801 73.8463 246.137C73.8463 233.473 63.5798 223.206 50.9153 223.206C38.2509 223.206 27.9844 233.473 27.9844 246.137C27.9844 258.801 38.2509 269.068 50.9153 269.068Z" fill="#F0F0F0"/>
<path d="M64.2206 251.148C64.2206 248.449 63.1983 245.749 61.1537 243.703L57.5282 240.078L57.2651 239.815L53.3506 235.9C51.3059 233.855 48.6061 232.833 45.9052 232.833C43.2126 232.825 40.5045 233.855 38.4598 235.9C38.1489 236.212 37.8764 236.547 37.6133 236.874L44.0675 243.329L47.59 239.806C48.292 239.104 49.4298 239.104 50.1318 239.806L53.7021 243.378L53.9652 243.641L57.2464 246.922C57.9484 247.624 57.9484 248.762 57.2464 249.464L53.7239 252.986L60.1782 259.44C60.5058 259.177 60.8417 258.905 61.1526 258.594C63.1983 256.548 64.229 253.84 64.2206 251.148Z" fill="#FAFAFA"/>
<path d="M190.83 110.55C194.598 94.5948 184.718 78.6065 168.763 74.8391C152.808 71.0717 136.819 80.9517 133.052 96.9067C129.285 112.862 139.165 128.85 155.12 132.617C171.075 136.385 187.063 126.505 190.83 110.55Z" fill="#F0F0F0"/>
<path d="M170.353 113.985H144.938C143.906 113.985 143.07 113.149 143.07 112.117V95.3161C143.07 94.2844 143.906 93.4482 144.938 93.4482H170.353C171.384 93.4482 172.22 94.2844 172.22 95.3161V112.117C172.22 113.149 171.384 113.985 170.353 113.985Z" fill="#FAFAFA"/>
<path d="M180.809 109.565L174.586 107.325V100.106L180.809 97.8662V109.565Z" fill="#FAFAFA"/>
<path d="M459.52 231.135C474.94 231.135 487.441 218.634 487.441 203.213C487.441 187.792 474.94 175.291 459.52 175.291C444.099 175.291 431.598 187.792 431.598 203.213C431.598 218.634 444.099 231.135 459.52 231.135Z" fill="#F0F0F0"/>
<path d="M467.322 212.871H443.639C442.608 212.871 441.771 212.035 441.771 211.003V195.422C441.771 194.39 442.608 193.554 443.639 193.554H467.322C468.354 193.554 469.19 194.39 469.19 195.422V211.003C469.19 212.035 468.354 212.871 467.322 212.871Z" fill="#FAFAFA"/>
<path d="M477.269 208.715L471.416 206.608V199.818L477.269 197.711V208.715Z" fill="#FAFAFA"/>
<path d="M369.961 113.87C388.279 110.897 400.719 93.6371 397.746 75.319C394.773 57.0009 377.513 44.5611 359.195 47.5341C340.877 50.507 328.437 67.7668 331.41 86.0849C334.383 104.403 351.643 116.843 369.961 113.87Z" fill="#F0F0F0"/>
<path d="M353.529 73.7422H345.076V87.674H353.529V73.7422Z" fill="#FAFAFA"/>
<path d="M366.774 94.6557L352.121 86.994V74.4214L366.774 66.7598V94.6557Z" fill="#FAFAFA"/>
<path d="M384.065 79.8799H372.795V81.5345H384.065V79.8799Z" fill="#FAFAFA"/>
<path d="M380.753 64.9978L370.75 70.3506L371.531 71.8095L381.534 66.4567L380.753 64.9978Z" fill="#FAFAFA"/>
<path d="M371.541 89.6007L370.76 91.0596L380.763 96.4134L381.544 94.9545L371.541 89.6007Z" fill="#FAFAFA"/>
<path d="M442.156 338.838C453.744 334.038 459.247 320.752 454.447 309.163C449.647 297.575 436.361 292.071 424.772 296.872C413.184 301.672 407.68 314.958 412.481 326.547C417.281 338.135 430.567 343.638 442.156 338.838Z" fill="#F0F0F0"/>
<path d="M433.822 322.953H433.08C430.376 322.953 428.184 320.761 428.184 318.057V310.434C428.184 307.73 430.376 305.538 433.08 305.538H433.822C436.526 305.538 438.719 307.73 438.719 310.434V318.056C438.719 320.762 436.526 322.953 433.822 322.953Z" fill="#FAFAFA"/>
<path d="M433.45 326.44C428.955 326.44 425.297 322.782 425.297 318.288V315.05C425.297 314.649 425.622 314.325 426.023 314.325C426.423 314.325 426.749 314.649 426.749 315.05V318.288C426.749 321.983 429.755 324.989 433.45 324.989C437.146 324.989 440.152 321.982 440.152 318.288V315.05C440.152 314.649 440.478 314.325 440.878 314.325C441.279 314.325 441.604 314.649 441.604 315.05V318.288C441.604 322.782 437.946 326.44 433.45 326.44Z" fill="#FAFAFA"/>
<path d="M433.451 330.891C433.05 330.891 432.725 330.567 432.725 330.166V325.715C432.725 325.314 433.05 324.99 433.451 324.99C433.851 324.99 434.176 325.314 434.176 325.715V330.166C434.176 330.567 433.852 330.891 433.451 330.891Z" fill="#FAFAFA"/>
<path d="M446.044 331.174C445.858 331.174 445.673 331.105 445.532 330.962L420.345 305.775C420.062 305.492 420.062 305.032 420.345 304.749C420.628 304.465 421.088 304.465 421.37 304.749L446.557 329.937C446.841 330.22 446.841 330.679 446.557 330.962C446.416 331.104 446.231 331.174 446.044 331.174Z" fill="#FAFAFA"/>
<path d="M201.338 283.4C214.274 280.345 222.284 267.383 219.229 254.448C216.175 241.512 203.213 233.502 190.277 236.556C177.342 239.611 169.332 252.573 172.386 265.509C175.44 278.444 188.403 286.454 201.338 283.4Z" fill="#F0F0F0"/>
<path d="M196.487 265.405H195.115C192.411 265.405 190.219 263.213 190.219 260.509V251.847C190.219 249.143 192.411 246.951 195.115 246.951H196.487C199.191 246.951 201.383 249.143 201.383 251.847V260.509C201.383 263.213 199.192 265.405 196.487 265.405Z" fill="#FAFAFA"/>
<path d="M195.803 268.924C191.137 268.924 187.34 265.127 187.34 260.459V257.028C187.34 256.702 187.605 256.436 187.933 256.436C188.26 256.436 188.525 256.702 188.525 257.028V260.459C188.525 264.472 191.791 267.737 195.804 267.737C199.818 267.737 203.083 264.472 203.083 260.459V257.028C203.083 256.702 203.349 256.436 203.676 256.436C204.004 256.436 204.269 256.702 204.269 257.028V260.459C204.267 265.127 200.47 268.924 195.803 268.924Z" fill="#FAFAFA"/>
<path d="M195.802 273.642C195.474 273.642 195.209 273.376 195.209 273.049V268.332C195.209 268.005 195.474 267.739 195.802 267.739C196.129 267.739 196.395 268.005 196.395 268.332V273.049C196.395 273.376 196.129 273.642 195.802 273.642Z" fill="#FAFAFA"/>
<path d="M209.151 273.938C208.999 273.938 208.847 273.88 208.732 273.764L182.04 247.074C181.809 246.842 181.809 246.466 182.04 246.234C182.272 246.003 182.649 246.003 182.879 246.234L209.57 272.925C209.801 273.157 209.801 273.532 209.57 273.764C209.455 273.881 209.303 273.938 209.151 273.938Z" fill="#FAFAFA"/>
<path d="M257.871 485.801C369.236 485.801 459.516 470.79 459.516 452.273C459.516 433.755 369.236 418.744 257.871 418.744C146.506 418.744 56.2266 433.755 56.2266 452.273C56.2266 470.79 146.506 485.801 257.871 485.801Z" fill="#F5F5F5"/>
<path d="M261.769 96.6885C224.363 96.6885 194.039 127.012 194.039 164.417C194.039 201.823 224.362 232.147 261.769 232.147C299.175 232.147 329.499 201.824 329.499 164.417C329.499 127.012 299.176 96.6885 261.769 96.6885ZM298.563 194.652C292.523 200.693 284.524 203.736 276.572 203.712C268.598 203.712 260.622 200.692 254.583 194.652L243.019 183.089L242.242 182.312L231.533 171.604C225.493 165.564 222.473 157.589 222.473 149.614C222.449 141.662 225.493 133.664 231.532 127.623C232.453 126.703 233.444 125.901 234.411 125.122L253.475 144.186L243.072 154.589C240.999 156.662 240.999 160.023 243.072 162.096L252.764 171.788L253.541 172.565L264.087 183.111C266.16 185.184 269.521 185.184 271.594 183.111L281.997 172.708L301.061 191.773C300.285 192.742 299.484 193.733 298.563 194.652Z" fill="#407BFF"/>
<path opacity="0.4" d="M261.769 96.6885C224.363 96.6885 194.039 127.012 194.039 164.417C194.039 201.823 224.362 232.147 261.769 232.147C299.175 232.147 329.499 201.824 329.499 164.417C329.499 127.012 299.176 96.6885 261.769 96.6885ZM298.563 194.652C292.523 200.693 284.524 203.736 276.572 203.712C268.598 203.712 260.622 200.692 254.583 194.652L243.019 183.089L242.242 182.312L231.533 171.604C225.493 165.564 222.473 157.589 222.473 149.614C222.449 141.662 225.493 133.664 231.532 127.623C232.453 126.703 233.444 125.901 234.411 125.122L253.475 144.186L243.072 154.589C240.999 156.662 240.999 160.023 243.072 162.096L252.764 171.788L253.541 172.565L264.087 183.111C266.16 185.184 269.521 185.184 271.594 183.111L281.997 172.708L301.061 191.773C300.285 192.742 299.484 193.733 298.563 194.652Z" fill="white"/>
<path d="M390.327 133.306H427.71C434.809 133.306 440.564 139.06 440.564 146.16V161.673C440.564 168.772 434.809 174.527 427.71 174.527H401.994L393.523 182.551L393.347 174.527H390.326C383.227 174.527 377.473 168.772 377.473 161.673V146.16C377.473 139.06 383.228 133.306 390.327 133.306Z" fill="#407BFF"/>
<g opacity="0.4">
<path d="M390.327 133.306H427.71C434.809 133.306 440.564 139.06 440.564 146.16V161.673C440.564 168.772 434.809 174.527 427.71 174.527H401.994L393.523 182.551L393.347 174.527H390.326C383.227 174.527 377.473 168.772 377.473 161.673V146.16C377.473 139.06 383.228 133.306 390.327 133.306Z" fill="white"/>
</g>
<path d="M423.588 153.031C423.588 154.466 424.751 155.628 426.184 155.628C427.618 155.628 428.781 154.466 428.781 153.031C428.781 151.597 427.618 150.435 426.184 150.435C424.751 150.435 423.588 151.597 423.588 153.031Z" fill="white"/>
<path d="M412.143 153.031C412.143 154.466 413.305 155.628 414.738 155.628C416.173 155.628 417.335 154.466 417.335 153.031C417.335 151.597 416.173 150.435 414.738 150.435C413.305 150.435 412.143 151.597 412.143 153.031Z" fill="white"/>
<path d="M400.703 153.031C400.703 154.466 401.866 155.628 403.3 155.628C404.734 155.628 405.896 154.466 405.896 153.031C405.896 151.597 404.733 150.435 403.3 150.435C401.866 150.435 400.703 151.597 400.703 153.031Z" fill="white"/>
<path d="M389.26 153.031C389.26 154.466 390.422 155.628 391.857 155.628C393.291 155.628 394.454 154.466 394.454 153.031C394.454 151.597 393.291 150.435 391.857 150.435C390.422 150.435 389.26 151.597 389.26 153.031Z" fill="white"/>
<path d="M267.729 224.556H234.964C228.741 224.556 223.697 229.6 223.697 235.822V249.419C223.697 255.641 228.741 260.685 234.964 260.685H257.502L264.927 267.717L265.081 260.685H267.729C273.951 260.685 278.994 255.641 278.994 249.419V235.822C278.995 229.6 273.951 224.556 267.729 224.556Z" fill="#263238"/>
<g opacity="0.4">
<path d="M267.729 224.556H234.964C228.741 224.556 223.697 229.6 223.697 235.822V249.419C223.697 255.641 228.741 260.685 234.964 260.685H257.502L264.927 267.717L265.081 260.685H267.729C273.951 260.685 278.994 255.641 278.994 249.419V235.822C278.995 229.6 273.951 224.556 267.729 224.556Z" fill="white"/>
</g>
<path d="M238.576 241.844C238.576 243.1 237.557 244.119 236.301 244.119C235.044 244.119 234.025 243.1 234.025 241.844C234.025 240.588 235.045 239.568 236.301 239.568C237.558 239.568 238.576 240.588 238.576 241.844Z" fill="white"/>
<path d="M248.604 241.844C248.604 243.1 247.585 244.119 246.328 244.119C245.071 244.119 244.053 243.1 244.053 241.844C244.053 240.588 245.072 239.568 246.328 239.568C247.586 239.568 248.604 240.588 248.604 241.844Z" fill="white"/>
<path d="M258.633 241.844C258.633 243.1 257.614 244.119 256.358 244.119C255.101 244.119 254.082 243.1 254.082 241.844C254.082 240.588 255.101 239.568 256.358 239.568C257.614 239.568 258.633 240.588 258.633 241.844Z" fill="white"/>
<path d="M268.664 241.844C268.664 243.1 267.645 244.119 266.389 244.119C265.132 244.119 264.113 243.1 264.113 241.844C264.113 240.588 265.132 239.568 266.389 239.568C267.645 239.568 268.664 240.588 268.664 241.844Z" fill="white"/>
<path d="M208.876 295.728H177.506C171.549 295.728 166.719 300.556 166.719 306.514V319.532C166.719 325.489 171.549 330.319 177.506 330.319H199.086L206.194 337.052L206.342 330.319H208.877C214.834 330.319 219.664 325.489 219.664 319.532V306.514C219.663 300.556 214.833 295.728 208.876 295.728Z" fill="#407BFF"/>
<path d="M180.963 312.278C180.963 313.482 179.988 314.457 178.784 314.457C177.581 314.457 176.605 313.482 176.605 312.278C176.605 311.075 177.581 310.1 178.784 310.1C179.988 310.1 180.963 311.075 180.963 312.278Z" fill="white"/>
<path d="M190.565 312.278C190.565 313.482 189.589 314.457 188.386 314.457C187.183 314.457 186.207 313.482 186.207 312.278C186.207 311.075 187.183 310.1 188.386 310.1C189.589 310.1 190.565 311.075 190.565 312.278Z" fill="white"/>
<path d="M200.166 312.278C200.166 313.482 199.191 314.457 197.987 314.457C196.784 314.457 195.809 313.482 195.809 312.278C195.809 311.075 196.784 310.1 197.987 310.1C199.191 310.1 200.166 311.075 200.166 312.278Z" fill="white"/>
<path d="M209.77 312.278C209.77 313.482 208.794 314.457 207.591 314.457C206.388 314.457 205.412 313.482 205.412 312.278C205.412 311.075 206.388 310.1 207.591 310.1C208.794 310.1 209.77 311.075 209.77 312.278Z" fill="white"/>
<path d="M112.356 117.091H80.6207C74.5939 117.091 69.709 121.976 69.709 128.003V141.172C69.709 147.199 74.5949 152.084 80.6207 152.084H102.451L109.642 158.895L109.792 152.084H112.356C118.382 152.084 123.268 147.198 123.268 141.172V128.004C123.268 121.977 118.382 117.091 112.356 117.091Z" fill="#263238"/>
<path d="M84.1224 133.833C84.1224 135.049 83.1354 136.036 81.9186 136.036C80.7008 136.036 79.7148 135.049 79.7148 133.833C79.7148 132.616 80.7018 131.629 81.9186 131.629C83.1354 131.629 84.1224 132.616 84.1224 133.833Z" fill="white"/>
<path d="M93.8353 133.833C93.8353 135.049 92.8483 136.036 91.6315 136.036C90.4137 136.036 89.4277 135.049 89.4277 133.833C89.4277 132.616 90.4147 131.629 91.6315 131.629C92.8483 131.629 93.8353 132.616 93.8353 133.833Z" fill="white"/>
<path d="M103.548 133.833C103.548 135.049 102.561 136.036 101.344 136.036C100.128 136.036 99.1406 135.049 99.1406 133.833C99.1406 132.616 100.128 131.629 101.344 131.629C102.562 131.629 103.548 132.616 103.548 133.833Z" fill="white"/>
<path d="M113.265 133.833C113.265 135.049 112.278 136.036 111.061 136.036C109.844 136.036 108.857 135.049 108.857 133.833C108.857 132.616 109.844 131.629 111.061 131.629C112.278 131.629 113.265 132.616 113.265 133.833Z" fill="white"/>
<path d="M421.726 294.81C417.811 280.77 355.676 297.616 355.676 297.616C355.676 297.616 352.673 313.137 353.777 325.897C353.005 342.909 356.824 358.617 357.675 374.973C354.376 397.132 358.521 428.549 358.521 428.549L373.63 430.465C373.63 430.465 382.613 394.913 386.237 375.87C387.134 371.163 388.173 365.401 389.22 359.439C391.015 365.186 392.761 370.844 393.791 376.208C393.565 398.61 401.985 429.159 401.985 429.159L417.214 428.983C417.214 428.983 421.23 392.535 422.205 373.174C422.88 359.82 423.284 337.353 423.46 325.711C423.919 321.012 424.965 306.424 421.726 294.81Z" fill="#263238"/>
<path opacity="0.5" d="M421.726 294.81C417.811 280.77 355.676 297.616 355.676 297.616C355.676 297.616 352.673 313.137 353.777 325.897C353.005 342.909 356.824 358.617 357.675 374.973C354.376 397.132 358.521 428.549 358.521 428.549L373.63 430.465C373.63 430.465 382.613 394.913 386.237 375.87C387.134 371.163 388.172 365.401 389.22 359.439C391.015 365.186 392.761 370.844 393.791 376.209C393.565 398.611 401.985 429.16 401.985 429.16L417.214 428.985C417.214 428.985 421.23 392.536 422.205 373.175C422.88 359.82 423.284 337.353 423.46 325.711C423.92 321.01 424.965 306.423 421.726 294.81Z" fill="white"/>
<path d="M415.696 422.89L402.4 423.239L403.764 438.919L414.875 438.645L415.696 422.89Z" fill="#D9877C"/>
<path opacity="0.2" d="M415.693 422.895L402.393 423.244L403.159 432.025L415.236 431.718L415.693 422.895Z" fill="black"/>
<path d="M401.235 429.708L417.693 429.558C417.981 429.555 418.223 429.339 418.258 429.053L419.002 423.002C419.046 422.643 418.753 422.333 418.393 422.358L400.065 423.604C399.713 423.628 399.465 423.961 399.544 424.305L400.67 429.26C400.73 429.523 400.966 429.71 401.235 429.708Z" fill="#263238"/>
<path d="M402.759 436.921C402.801 436.554 403.225 436.276 403.542 436.403C406.877 437.728 413.204 436.713 415.602 436.253C416.188 436.141 416.723 436.274 417.139 436.57C419.691 438.379 426.487 439.483 426.487 439.483C426.487 439.483 427.345 441.748 426.827 443.483L401.359 443.471C401.359 443.471 402.419 439.951 402.759 436.921Z" fill="#263238"/>
<path d="M373.292 424.978L360.087 423.397L359.164 439.11L370.197 440.447L373.292 424.978Z" fill="#D9877C"/>
<path opacity="0.2" d="M373.289 424.983L360.078 423.401L359.564 432.201L371.558 433.646L373.289 424.983Z" fill="black"/>
<path d="M357.704 428.988L374.026 431.101C374.312 431.138 374.582 430.957 374.656 430.678L376.224 424.786C376.317 424.436 376.069 424.09 375.708 424.064L357.382 422.782C357.03 422.757 356.74 423.053 356.77 423.405L357.204 428.467C357.227 428.738 357.435 428.954 357.704 428.988Z" fill="#263238"/>
<path d="M358.79 436.921C358.831 436.554 359.255 436.276 359.573 436.403C362.907 437.728 369.234 436.713 371.633 436.253C372.218 436.141 372.754 436.274 373.17 436.57C375.722 438.379 382.516 439.483 382.516 439.483C382.516 439.483 383.374 441.748 382.856 443.483L357.389 443.471C357.389 443.471 358.448 439.951 358.79 436.921Z" fill="#263238"/>
<path opacity="0.6" d="M401.235 429.708L417.693 429.558C417.981 429.555 418.223 429.339 418.258 429.053L419.002 423.002C419.046 422.643 418.753 422.333 418.393 422.358L400.065 423.604C399.713 423.628 399.465 423.961 399.544 424.305L400.67 429.26C400.73 429.523 400.966 429.71 401.235 429.708Z" fill="white"/>
<path opacity="0.6" d="M357.704 428.988L374.026 431.101C374.312 431.138 374.582 430.957 374.656 430.678L376.224 424.786C376.317 424.436 376.069 424.09 375.708 424.064L357.382 422.782C357.03 422.757 356.74 423.053 356.77 423.405L357.204 428.467C357.227 428.738 357.435 428.954 357.704 428.988Z" fill="white"/>
<path d="M354.758 303.373L353.531 307.298C353.531 307.298 372.403 314.446 390.725 317.478L396.92 311.935L401.435 317.478C401.435 317.478 418.757 315.122 424.523 310.426L423.112 301.479L354.758 303.373Z" fill="#407BFF"/>
<path opacity="0.5" d="M354.758 303.373L353.531 307.298C353.531 307.298 372.403 314.446 390.725 317.478L396.92 311.935L401.435 317.478C401.435 317.478 418.757 315.122 424.523 310.426L423.112 301.479L354.758 303.373Z" fill="white"/>
<path d="M401.39 228.242C409.868 229.65 419.837 230.416 428.184 227.988L424.53 230.96C423.008 232.895 423.042 237.012 424.643 238.403C424.861 238.577 424.853 238.449 424.732 238.276C424.609 238.096 424.377 237.848 424.092 237.588C419.214 233.485 412.363 230.261 406.781 226.84C404.361 225.376 403.585 222.227 405.049 219.807C406.068 218.122 407.911 217.235 409.75 217.346C412.455 217.515 414.961 217.87 417.553 218.326C421.48 219.049 425.449 220.035 429.263 221.532C434.651 223.819 439.697 226.342 441.234 233.15C442.052 237.569 439.865 242.902 435.655 244.635C423.657 250.435 409.415 250.904 396.627 247.885C384.031 244.044 388.477 225.891 401.39 228.242Z" fill="#407BFF"/>
<path opacity="0.2" d="M420.307 249.135C418.843 249.331 417.39 249.47 415.943 249.556C414.347 249.654 412.756 249.694 411.165 249.677C409.58 249.654 407.995 249.613 406.409 249.475C404.817 249.342 403.226 249.187 401.618 248.927C399.999 248.673 398.367 248.351 396.626 247.884C395.906 247.688 395.226 247.423 394.586 247.088C395.226 240.967 397.722 236.309 397.722 236.309C397.722 236.309 411.47 238.166 420.307 249.135Z" fill="black"/>
<path d="M408.072 220.423L404.255 224.555C398.967 227.193 396.751 219.808 396.751 219.808L393.055 215.347C392.207 214.289 392.359 212.663 393.412 211.505L396.058 208.596C397.265 207.27 399.205 207.033 400.361 208.07L404.154 211.74C404.91 212.418 405.486 213.273 405.831 214.228L408.072 220.423Z" fill="#EBB376"/>
<path d="M404.519 227.691L401.658 226.139C405.061 222.433 407.361 217.006 407.361 217.006L411.393 216.621C411.393 216.621 410.617 224.899 404.519 227.691Z" fill="#407BFF"/>
<path opacity="0.5" d="M404.519 227.691L401.658 226.139C405.061 222.433 407.361 217.006 407.361 217.006L411.393 216.621C411.393 216.621 410.617 224.899 404.519 227.691Z" fill="white"/>
<path d="M349.009 246.133C353.136 261.443 353.448 279.608 354.422 292.563C354.422 292.563 352.045 300.998 354.504 305.323C354.504 305.323 396.742 318.033 423.99 306.439C423.99 306.439 424.977 299.187 424.261 289.59C422.672 268.29 412.227 252.864 405.819 233.857C404.423 229.73 399.753 227.622 395.403 227.464C384.344 227.064 369.687 228.187 358.411 230.552C351.374 232.03 347.138 239.19 349.009 246.133Z" fill="#407BFF"/>
<path d="M385.387 235.151C378.241 236.28 371.356 230.823 367.77 229.061C371.134 226.138 368.977 221.401 369.429 218.797C369.624 217.646 369.673 216.912 369.673 216.912L385.852 221.045C385.331 223.001 385.416 224.598 386.006 225.97C387.632 226.368 389.207 227.975 389.748 229.079C389.761 229.109 389.777 229.15 389.801 229.179C390.962 231.559 392.428 234.033 385.387 235.151Z" fill="#EBB376"/>
<path opacity="0.2" d="M389.804 229.18C382.854 232.955 371.402 224.936 369.434 218.797C369.628 217.646 369.677 216.912 369.677 216.912L385.856 221.045C385.335 223.001 385.42 224.598 386.01 225.97C387.637 226.368 389.211 227.975 389.752 229.079C389.766 229.11 389.78 229.151 389.804 229.18Z" fill="black"/>
<path d="M385.817 235.075L382.853 232.954L378.895 235.491C378.895 235.491 381.439 237.581 385.817 235.075Z" fill="#407BFF"/>
<path opacity="0.5" d="M385.817 235.075L382.853 232.954L378.895 235.491C378.895 235.491 381.439 237.581 385.817 235.075Z" fill="white"/>
<path d="M369.314 227.082C369.314 227.082 375.209 233.567 382.852 232.955C378.415 235.672 377.691 240.85 377.691 240.85C377.691 240.85 368.147 239.121 366.295 229.032C367.422 227.229 369.314 227.082 369.314 227.082Z" fill="#407BFF"/>
<path d="M385.816 235.076L389.146 231.595L393.414 232.333C393.414 232.333 390.212 236.452 385.816 235.076Z" fill="#407BFF"/>
<path opacity="0.5" d="M385.816 235.076L389.146 231.595L393.414 232.333C393.414 232.333 390.212 236.452 385.816 235.076Z" fill="white"/>
<path d="M386.002 225.968C386.002 225.968 388.992 229.088 389.145 231.595C392.725 232.164 394.471 237.272 394.471 237.272C394.471 237.272 395.085 229.566 389.458 226.18C388.092 225.444 386.002 225.968 386.002 225.968Z" fill="#407BFF"/>
<path opacity="0.8" d="M369.314 227.082C369.314 227.082 375.209 233.567 382.852 232.955C378.415 235.672 377.691 240.85 377.691 240.85C377.691 240.85 368.147 239.121 366.295 229.032C367.422 227.229 369.314 227.082 369.314 227.082Z" fill="white"/>
<path opacity="0.8" d="M386.002 225.968C386.002 225.968 388.992 229.088 389.145 231.595C392.725 232.164 394.471 237.272 394.471 237.272C394.471 237.272 395.085 229.566 389.458 226.18C388.092 225.444 386.002 225.968 386.002 225.968Z" fill="white"/>
<path opacity="0.2" d="M349.012 246.133C353.138 261.443 353.45 279.607 354.425 292.563C354.425 292.563 357.801 293.637 366.917 293.241C378.358 292.744 388.434 282.393 382.09 280.048C372.906 276.654 359.309 272.74 359.309 272.74C361.803 264.907 361.333 252.957 361.333 252.957L349.012 246.133Z" fill="black"/>
<path d="M365.31 249.602C365.751 249.242 365.626 249.334 365.563 249.429L365.154 249.947C360.092 256.892 355.14 264.748 352.401 272.839C352.099 273.85 351.931 274.763 351.853 275.177C351.812 275.378 351.799 275.433 351.708 275.258C351.597 275.021 351.338 274.581 351.121 274.335C350.852 273.935 350.098 273.404 350.182 273.602C352.086 275.13 355.32 275.657 357.891 276.326C363.466 277.56 369.72 278.335 375.76 279.272C378.625 279.603 380.67 282.26 380.22 285.116C379.9 287.174 378.385 288.752 376.494 289.255C371.512 290.56 366.669 291.338 361.58 291.731C344.762 293.191 329.851 288.644 333.733 268.499C334.86 262.91 337.041 257.671 339.443 252.791C342.584 246.707 345.976 240.892 350.608 235.754C354.73 230.711 362.447 230.07 366.773 235.383C370.293 239.715 369.639 246.079 365.31 249.602Z" fill="#407BFF"/>
<path d="M376.045 279.792L374.305 284.839C374.473 290.444 381.643 288.981 381.643 288.981L385.376 289.67C386.64 289.903 387.932 289.047 388.427 287.647L389.671 284.128C390.237 282.525 389.565 280.795 388.178 280.295L385.063 279.17C384.158 278.842 383.184 278.744 382.231 278.885L376.045 279.792Z" fill="#EBB376"/>
<path d="M375.264 278.04L378.719 279.429C375.916 283.608 375.291 288.82 375.291 288.82L370.828 291.785C370.828 291.785 369.658 281.721 375.264 278.04Z" fill="#407BFF"/>
<path opacity="0.5" d="M375.264 278.04L378.719 279.429C375.916 283.608 375.291 288.82 375.291 288.82L370.828 291.785C370.828 291.785 369.658 281.721 375.264 278.04Z" fill="white"/>
<path d="M387.729 208.12L393.392 202.005L393.105 201.694C393.105 201.694 393.528 201.651 393.902 201.691C394.098 201.696 394.3 201.824 394.442 202.059L404.75 219.008C404.99 219.403 404.972 219.954 404.71 220.237L398.909 226.502C398.814 226.604 398.7 226.653 398.581 226.66V226.665H398.558C398.556 226.665 398.553 226.667 398.551 226.667C398.548 226.667 398.545 226.665 398.541 226.665L397.76 226.667L397.903 226.142L387.69 209.35C387.448 208.954 387.466 208.403 387.729 208.12Z" fill="#407BFF"/>
<path d="M398.171 226.501L403.972 220.236C404.234 219.953 404.252 219.401 404.012 219.006L393.704 202.057C393.464 201.662 393.056 201.571 392.793 201.855L386.992 208.12C386.73 208.402 386.712 208.954 386.952 209.349L397.26 226.298C397.501 226.693 397.909 226.784 398.171 226.501Z" fill="#407BFF"/>
<path opacity="0.6" d="M398.171 226.501L403.972 220.236C404.234 219.953 404.252 219.401 404.012 219.006L393.704 202.057C393.464 201.662 393.056 201.571 392.793 201.855L386.992 208.12C386.73 208.402 386.712 208.954 386.952 209.349L397.26 226.298C397.501 226.693 397.909 226.784 398.171 226.501Z" fill="white"/>
<path d="M397.828 225.849L403.563 219.657C403.691 219.518 403.7 219.249 403.582 219.055L393.581 202.609C393.463 202.415 393.264 202.371 393.136 202.509L387.401 208.701C387.273 208.84 387.264 209.109 387.381 209.302L397.383 225.748C397.501 225.942 397.7 225.987 397.828 225.849Z" fill="#263238"/>
<g opacity="0.4">
<path d="M389.218 210.183C389.294 210.183 389.368 210.153 389.425 210.093L393.85 205.315C393.956 205.201 393.949 205.023 393.834 204.917C393.721 204.811 393.542 204.818 393.436 204.932L389.011 209.711C388.905 209.826 388.912 210.004 389.026 210.11C389.079 210.16 389.148 210.183 389.218 210.183Z" fill="white"/>
</g>
<path opacity="0.4" d="M393.545 215.27C393.976 215.978 394.563 216.388 395.153 216.47C395.653 216.544 396.156 216.378 396.555 215.946C396.954 215.514 397.181 214.896 397.23 214.228C397.292 213.443 397.114 212.591 396.683 211.883C395.889 210.577 394.542 210.277 393.676 211.212C392.81 212.147 392.752 213.965 393.545 215.27Z" fill="white"/>
<path d="M395.089 216.371C395.11 216.405 395.129 216.439 395.153 216.469C395.654 216.543 396.156 216.377 396.555 215.945C396.955 215.513 397.181 214.895 397.23 214.227C397.213 214.189 397.193 214.156 397.172 214.122C396.75 213.428 396.099 213.174 395.558 213.407C395.608 213.098 395.549 212.74 395.373 212.451C395.086 211.978 394.596 211.869 394.283 212.207C393.97 212.545 393.948 213.207 394.235 213.679C394.411 213.968 394.661 214.12 394.9 214.119C394.617 214.775 394.668 215.678 395.089 216.371Z" fill="white"/>
<path opacity="0.2" d="M397.793 225.47L403.294 219.53C403.38 219.436 403.387 219.255 403.306 219.125L401.836 216.707C401.757 216.577 401.623 216.547 401.536 216.64L396.036 222.581C395.949 222.674 395.943 222.855 396.022 222.985L397.493 225.403C397.573 225.533 397.707 225.563 397.793 225.47Z" fill="white"/>
<g opacity="0.4">
<path d="M391.637 209.252C391.674 209.252 391.713 209.236 391.74 209.206L392.657 208.215C392.71 208.158 392.707 208.069 392.65 208.016C392.593 207.963 392.504 207.966 392.451 208.024L391.534 209.015C391.481 209.072 391.484 209.16 391.541 209.213C391.568 209.24 391.603 209.252 391.637 209.252Z" fill="white"/>
</g>
<path opacity="0.4" d="M397.335 223.655C397.534 223.981 397.871 224.057 398.087 223.822C398.305 223.588 398.319 223.134 398.119 222.806C397.921 222.48 397.584 222.404 397.368 222.639C397.151 222.873 397.137 223.328 397.335 223.655Z" fill="white"/>
<path opacity="0.4" d="M398.646 222.237C398.844 222.564 399.181 222.64 399.399 222.404C399.615 222.17 399.631 221.716 399.431 221.388C399.231 221.061 398.895 220.986 398.678 221.221C398.462 221.456 398.447 221.91 398.646 222.237Z" fill="white"/>
<path opacity="0.4" d="M399.96 220.819C400.159 221.146 400.496 221.222 400.713 220.987C400.929 220.753 400.944 220.298 400.745 219.971C400.547 219.644 400.21 219.569 399.993 219.803C399.776 220.037 399.762 220.492 399.96 220.819Z" fill="white"/>
<path d="M401.271 219.403C401.47 219.729 401.807 219.805 402.023 219.57C402.239 219.336 402.255 218.882 402.055 218.554C401.856 218.228 401.52 218.152 401.302 218.387C401.087 218.622 401.072 219.076 401.271 219.403Z" fill="#407BFF"/>
<path d="M380.693 195.165C380.693 195.165 384.804 195.291 386.598 197.556C388.392 199.821 391.919 208.767 389.475 210.262C387.032 211.757 379.023 210.504 378.04 207.34C377.056 204.178 380.693 195.165 380.693 195.165Z" fill="#263238"/>
<path d="M365.173 210.602C367.935 218.611 369.997 223.994 376.044 226.249C388.057 230.731 392.941 224.887 392.821 216.26C392.714 208.495 388.215 196.703 378.718 195.53C369.362 194.376 362.41 202.593 365.173 210.602Z" fill="#EBB376"/>
<path d="M378.379 208.796C378.379 208.796 376.488 208.405 375.242 209.425C377.012 209.424 378.379 208.796 378.379 208.796Z" fill="#D58745"/>
<path d="M378.478 209.554C378.478 209.554 376.716 209.563 375.867 210.815C377.426 210.449 378.478 209.554 378.478 209.554Z" fill="#D58745"/>
<path d="M384.971 199.733C384.971 199.733 380.525 199.96 377.061 201.027C381.495 200.469 384.971 199.733 384.971 199.733Z" fill="#D58745"/>
<path d="M386.24 200.393C386.24 200.393 380.2 201.431 377.469 202.916C382.763 201.714 386.24 200.393 386.24 200.393Z" fill="#D58745"/>
<path d="M380.994 208.541C381.174 209.258 381.7 209.741 382.168 209.618C382.636 209.495 382.87 208.815 382.69 208.097C382.511 207.38 381.984 206.897 381.516 207.02C381.048 207.143 380.814 207.824 380.994 208.541Z" fill="#263238"/>
<path d="M388.457 206.867C388.637 207.584 389.163 208.066 389.632 207.944C390.1 207.822 390.334 207.141 390.155 206.424C389.975 205.706 389.448 205.223 388.98 205.346C388.51 205.469 388.277 206.149 388.457 206.867Z" fill="#263238"/>
<path d="M376.661 207.455C376.589 207.464 376.514 207.455 376.442 207.425C376.222 207.332 376.119 207.078 376.212 206.856C377.15 204.63 379.118 204.239 379.202 204.223C379.438 204.179 379.664 204.335 379.706 204.571C379.747 204.807 379.591 205.034 379.356 205.078C379.292 205.091 377.76 205.413 377.011 207.189C376.949 207.34 376.811 207.437 376.661 207.455Z" fill="#263238"/>
<path d="M390.829 204.19C390.692 204.222 390.542 204.188 390.433 204.085C389.043 202.774 387.516 203.118 387.451 203.133C387.218 203.188 386.985 203.045 386.931 202.813C386.877 202.58 387.02 202.346 387.252 202.288C387.336 202.269 389.288 201.807 391.03 203.448C391.204 203.613 391.211 203.888 391.047 204.064C390.986 204.128 390.91 204.171 390.829 204.19Z" fill="#263238"/>
<path d="M391.259 216.134C391.259 216.134 388.089 216.081 379.602 217.883C381.139 220.222 383.436 221.911 387.774 220.947C392.112 219.983 391.259 216.134 391.259 216.134Z" fill="#263238"/>
<path d="M385.331 219.371C387.424 218.905 389.042 219.061 390.328 219.599C389.806 220.178 388.987 220.674 387.776 220.943C385.682 221.408 384.077 221.263 382.789 220.714C383.311 220.134 384.119 219.639 385.331 219.371Z" fill="#A02724"/>
<path d="M390.861 216.144C390.735 216.738 390.612 217.334 389.8 217.691C388.057 218.187 383.425 218.646 382.154 218.651C381.348 218.688 380.628 218.565 379.971 217.807C386.509 216.434 389.794 216.187 390.861 216.144Z" fill="white"/>
<path d="M377.5 192.271C374.636 191.625 363.314 195.756 360.999 201.619C357.128 211.422 364.11 218.274 364.11 218.274C364.11 218.274 368.083 218.855 371.899 218.793C375.716 218.73 374.06 208.208 371.39 205.961C371.39 205.961 371.176 205.85 370.813 205.699C369.336 204.984 366.895 203.506 366.786 202.585C366.66 201.531 370.14 197.386 372.642 197.14C375.145 196.893 378.239 197.525 379.801 197.245C381.363 196.965 382.261 196.538 382.261 196.538C382.261 196.538 380.363 192.916 377.5 192.271Z" fill="#263238"/>
<path d="M364.09 220.25C365.844 221.953 368.225 222.678 370.24 222.604C373.269 222.494 373.89 219.554 372.301 217.168C370.87 215.022 367.569 212.493 364.888 213.765C362.248 215.021 362.085 218.303 364.09 220.25Z" fill="#EBB376"/>
<path d="M374.122 213.865C374.122 213.865 374.988 217.735 375.806 218.555C376.626 219.374 378.522 215.907 379.416 214.938C380.312 213.969 386.816 214.724 386.816 214.724C386.816 214.724 386.922 215.453 386.867 215.545C386.812 215.638 380.668 216.914 379.905 216.817C379.142 216.72 377.226 220.365 380.268 222.677C383.309 224.991 385.827 224.85 386.816 224.325C387.804 223.8 387.005 222.143 387.005 222.143L388.877 221.723C388.877 221.723 389.026 223.381 389.992 223.725C390.958 224.069 392.265 219.833 392.358 217.531C392.452 215.227 391.188 214.574 388.326 215.543L388.01 214.344C388.01 214.344 391.633 212.516 392.063 212.754C393.147 213.356 394.099 217.249 393.886 219.703C393.671 222.156 392.523 227.102 387.365 227.969C382.205 228.836 377.591 227.866 374.514 225.569C371.436 223.27 373.062 218.235 373.062 218.235L374.122 213.865Z" fill="#263238"/>
<path d="M386.133 208.054L387.599 214.096C387.599 214.096 388.687 214.078 389.739 213.659C390.343 213.418 390.4 212.564 389.844 212.225C387.901 211.042 386.133 208.054 386.133 208.054Z" fill="#D58745"/>
<path opacity="0.2" d="M389.223 359.438L393.233 334.316C393.233 334.316 396.625 364.425 393.283 373.773C392.322 369.885 389.223 359.438 389.223 359.438Z" fill="black"/>
<path d="M99.4894 410.991C98.9216 416.191 98.413 431.272 97.2773 434.947C99.4031 438.941 102.361 439.812 104.28 437.482C106.198 435.153 109.934 414.92 109.934 414.92L99.4894 410.991Z" fill="#EBB376"/>
<path d="M83.1768 439.409C83.1768 439.409 95.7899 435.691 96.7134 430.725C96.8039 430.237 97.2126 429.914 97.7316 430L106.892 431.533C107.319 431.605 107.694 431.933 107.825 432.35L108.539 441.262L102.829 441.344L102.114 440.737L97.6629 441.407C83.6011 441.847 85.8402 441.886 83.0291 441.097C82.5881 439.867 83.1768 439.409 83.1768 439.409Z" fill="#263238"/>
<path d="M95.0568 350.001C96.804 375.949 97.1056 419.546 97.1056 419.546L109.44 420.087C109.44 420.087 115.67 393.296 116.616 365.237C116.699 362.606 116.741 359.975 116.73 357.343C119.798 337.999 123.49 323.512 126.756 311.604C129.814 300.435 132.507 291.553 133.963 283.056L97.5632 271.231C95.5352 277.586 92.0304 304.959 95.0568 350.001Z" fill="#263238"/>
<path opacity="0.2" d="M95.0568 350.001C96.804 375.949 97.1056 419.546 97.1056 419.546L109.44 420.087C109.44 420.087 115.67 393.296 116.616 365.237C116.699 362.606 116.741 359.975 116.73 357.343C119.798 337.999 123.49 323.512 126.756 311.604C129.814 300.435 132.507 291.553 133.963 283.056L97.5632 271.231C95.5352 277.586 92.0304 304.959 95.0568 350.001Z" fill="white"/>
<path d="M108.365 426.626C106.024 426.801 98.1769 425.327 96.6658 424.399C95.1547 423.47 96.1156 417.383 96.1156 417.383C96.1156 417.383 109.285 417.26 110.279 418.39C111.275 419.519 108.365 426.626 108.365 426.626Z" fill="#263238"/>
<path opacity="0.3" d="M108.365 426.626C106.024 426.801 98.1769 425.327 96.6658 424.399C95.1547 423.47 96.1156 417.383 96.1156 417.383C96.1156 417.383 109.285 417.26 110.279 418.39C111.275 419.519 108.365 426.626 108.365 426.626Z" fill="white"/>
<path opacity="0.1" d="M116.616 365.24C116.699 362.609 116.741 359.977 116.73 357.346C119.798 338.002 123.49 323.515 126.756 311.607C122.835 300.437 114.599 291.249 109.212 290.271C109.212 290.271 102.888 339.614 116.616 365.24Z" fill="black"/>
<path d="M96.9119 274.745C96.4834 270.568 97.0845 266.1 97.0845 266.1C97.1022 265.197 139.633 264.285 143.056 264.491C143.056 264.491 144.54 278.012 143.515 289.424C113.625 290.801 97.7439 280.014 96.9119 274.745Z" fill="#263238"/>
<path opacity="0.2" d="M96.9119 274.745C96.4834 270.568 97.0845 266.1 97.0845 266.1C97.1022 265.197 139.633 264.285 143.056 264.491C143.056 264.491 144.54 278.012 143.515 289.424C113.625 290.801 97.7439 280.014 96.9119 274.745Z" fill="white"/>
<path d="M124.721 273.277C118.278 273.237 111.422 273.083 106.223 272.894C106.003 271.671 106.08 269.902 106.153 268.899C113.417 269.086 119.647 269.186 124.79 269.236C124.809 270.382 124.821 272.241 124.721 273.277Z" fill="black"/>
<path d="M104.065 272.809C101.338 272.693 99.2723 272.568 98.3072 272.45C98.0274 272.416 97.8163 272.189 97.7934 271.902C97.7414 271.262 97.6582 270.1 97.6582 269.274C97.6582 268.934 97.939 268.664 98.2728 268.674C100.313 268.738 102.28 268.795 104.187 268.847C104.085 269.926 103.943 271.802 104.065 272.809Z" fill="black"/>
<path d="M142.323 272.457C142.259 272.684 142.062 272.847 141.83 272.872C138.979 273.182 133.429 273.295 127.203 273.287C127.3 272.185 127.152 270.33 127.047 269.255C135.325 269.315 140.372 269.242 141.922 269.214C142.227 269.209 142.483 269.435 142.516 269.744C142.582 270.353 142.622 271.399 142.323 272.457Z" fill="black"/>
<path d="M137.891 412.739C138.361 417.949 140.84 432.834 140.453 436.66C143.326 440.156 146.398 440.426 147.818 437.764C149.24 435.101 148.905 414.53 148.905 414.53L137.891 412.739Z" fill="#EBB376"/>
<path d="M144.195 356.746C142.622 318.846 144.11 295.079 143.596 277.271L108.395 276.111C107.666 282.742 109.637 310.267 121.499 353.823C128.333 378.916 137.245 421.599 137.245 421.599L149.44 419.695C149.44 419.695 150.408 386.806 144.195 356.746Z" fill="#263238"/>
<path opacity="0.2" d="M144.195 356.746C142.622 318.846 144.11 295.079 143.596 277.271L108.395 276.111C107.666 282.742 109.637 310.267 121.499 353.823C128.333 378.916 137.245 421.599 137.245 421.599L149.44 419.695C149.44 419.695 150.408 386.806 144.195 356.746Z" fill="white"/>
<path d="M149.679 426.313C147.418 426.947 139.436 427.051 137.771 426.439C136.106 425.827 135.846 419.669 135.846 419.669C135.846 419.669 148.731 416.948 149.929 417.86C151.127 418.772 149.679 426.313 149.679 426.313Z" fill="#263238"/>
<path opacity="0.3" d="M149.679 426.313C147.418 426.947 139.436 427.051 137.771 426.439C136.106 425.827 135.846 419.669 135.846 419.669C135.846 419.669 148.731 416.948 149.929 417.86C151.127 418.772 149.679 426.313 149.679 426.313Z" fill="white"/>
<path d="M125.044 439.411C125.044 439.411 137.657 435.693 138.581 430.727C138.671 430.239 139.08 429.916 139.599 430.002L148.759 431.535C149.187 431.607 149.561 431.935 149.692 432.352L150.406 441.264L144.696 441.346L143.981 440.739L139.53 441.409C125.468 441.849 127.707 441.888 124.896 441.099C124.455 439.869 125.044 439.411 125.044 439.411Z" fill="#263238"/>
<path d="M106.543 211.619C101.584 210.595 94.9763 209.383 90.1101 208.129C84.5836 206.613 78.6514 205.441 73.7166 201.927C70.1848 199.352 68.9222 194.035 72.3677 190.343C73.8206 188.752 75.8861 187.694 77.6977 186.928C81.9565 185.14 86.2944 184.088 90.6478 183.065C94.7173 182.133 99.1883 181.328 103.298 180.586L105.407 180.223C106.035 180.165 106.925 179.828 107.589 180.089L109.403 187.424C108.979 187.949 108.08 188.083 107.501 188.328L105.534 189.032C101.739 190.405 97.5711 191.989 93.8739 193.484C89.7586 195.254 85.2305 196.757 81.6872 199.196C81.6882 199.213 81.8858 199.042 81.9097 199.019C82.4734 198.419 82.748 197.959 83.0465 197.063C83.5436 195.79 83.2149 193.602 82.619 192.729C82.0252 191.725 81.7319 191.601 81.6466 191.483C81.5478 191.395 81.6175 191.431 81.7402 191.477C87.3625 193.556 95.2446 194.659 101.278 195.872C103.86 196.378 107.147 196.94 109.768 197.575L106.543 211.619Z" fill="#E9BFBB"/>
<path d="M113.811 196.482L107.009 207.538L102.167 215.412L98 213.798L91.9648 211.452L96.0864 193.594C96.0864 193.594 108.756 195.52 113.811 196.482Z" fill="#407BFF"/>
<path opacity="0.2" d="M107.426 205.558C107.3 206.238 107.161 206.9 107.011 207.541L102.169 215.415L98.002 213.801C101.42 207.891 107.426 205.558 107.426 205.558Z" fill="black"/>
<path d="M104.977 182.564L110.141 175.291L116.778 183.681C116.778 183.681 111.303 189.698 107.636 187.306L104.977 182.564Z" fill="#EEC1BB"/>
<path d="M119.264 173.672L121.094 177.004C121.823 178.331 121.483 179.99 120.292 180.924L116.778 183.68L110.141 175.291L115.009 172.481C116.511 171.617 118.429 172.154 119.264 173.672Z" fill="#EEC1BB"/>
<path d="M154.681 217.553C153.298 221.588 152.317 225.11 151.528 228.344C151.004 230.459 150.565 232.454 150.138 234.391C149.665 236.569 149.216 238.668 148.703 240.789C148.184 242.915 147.597 245.055 146.858 247.308C146.835 247.39 146.812 247.47 146.783 247.551C144.484 257.465 146.23 257.125 144.697 265.207C144.697 265.207 145.781 269.951 142.351 270.113C134.552 270.487 111.65 274.268 97.1472 267.836C95.4177 267.069 94.5815 262.751 97.2564 260.348C98.2537 247.292 97.9251 226.362 100.755 215.657C101.147 214.176 101.603 212.891 102.127 211.847C107.643 200.894 113.097 196.352 113.097 196.352C113.097 196.352 113.811 196.553 116.693 196.784C126.475 197.568 138.448 199.908 147.14 202.67C150.754 203.817 153.423 206.549 154.617 209.852C155.487 212.25 155.58 214.947 154.681 217.553Z" fill="#407BFF"/>
<path d="M139.919 182.513C138.376 190.735 139.045 195.757 140.056 200.547C140.153 201.007 139.965 201.487 139.563 201.733C135.895 203.978 132.061 206.4 125.529 205.273C119.072 204.159 118.422 201.21 120.368 199.23C120.645 198.948 120.989 198.74 121.359 198.604C126.252 196.812 127.062 193.342 126.225 191.002L139.919 182.513Z" fill="#EEC1BB"/>
<path opacity="0.2" d="M139.914 182.514L126.22 191.001C126.694 192.312 126.645 193.987 125.633 195.52C127.926 196.024 130.426 195.729 132.818 194.36C136.313 192.359 137.906 189.521 139.452 185.386C139.569 184.474 139.728 183.524 139.914 182.514Z" fill="black"/>
<path d="M130.009 174.784L126.93 167.039L127.311 166.852C127.311 166.852 126.931 166.659 126.568 166.562C126.384 166.496 126.15 166.543 125.933 166.71L110.209 178.805C109.842 179.086 109.66 179.606 109.802 179.965L112.956 187.899C113.008 188.029 113.097 188.115 113.204 188.165L113.202 188.17L113.224 188.178C113.226 188.179 113.228 188.181 113.23 188.182C113.233 188.183 113.238 188.183 113.24 188.184L113.968 188.467L114.023 187.926L129.601 175.943C129.969 175.663 130.151 175.143 130.009 174.784Z" fill="#407BFF"/>
<path d="M113.641 188.165L110.488 180.231C110.345 179.872 110.527 179.352 110.895 179.07L126.618 166.976C126.985 166.694 127.398 166.755 127.541 167.114L130.694 175.048C130.837 175.407 130.655 175.927 130.287 176.209L114.564 188.303C114.197 188.586 113.784 188.523 113.641 188.165Z" fill="#407BFF"/>
<path opacity="0.6" d="M113.641 188.165L110.488 180.231C110.345 179.872 110.527 179.352 110.895 179.07L126.618 166.976C126.985 166.694 127.398 166.755 127.541 167.114L130.694 175.048C130.837 175.407 130.655 175.927 130.287 176.209L114.564 188.303C114.197 188.586 113.784 188.523 113.641 188.165Z" fill="white"/>
<path d="M114.197 187.679L111.08 179.835C111.011 179.66 111.099 179.406 111.279 179.267L126.537 167.532C126.717 167.394 126.919 167.424 126.988 167.6L130.105 175.443C130.175 175.619 130.085 175.873 129.907 176.011L114.649 187.747C114.47 187.885 114.267 187.855 114.197 187.679Z" fill="#263238"/>
<g opacity="0.4">
<path d="M127.873 176.174C127.802 176.146 127.743 176.09 127.712 176.014L125.307 169.963C125.25 169.818 125.32 169.655 125.465 169.597C125.609 169.538 125.773 169.609 125.831 169.755L128.237 175.806C128.294 175.951 128.223 176.115 128.079 176.172C128.01 176.2 127.937 176.198 127.873 176.174Z" fill="white"/>
</g>
<path opacity="0.4" d="M122.001 179.355C121.344 179.86 120.648 180.031 120.069 179.895C119.576 179.783 119.167 179.448 118.951 178.9C118.733 178.354 118.746 177.695 118.94 177.054C119.165 176.299 119.639 175.569 120.296 175.064C121.507 174.133 122.872 174.338 123.343 175.522C123.813 176.706 123.213 178.423 122.001 179.355Z" fill="white"/>
<path d="M120.164 179.828C120.133 179.852 120.102 179.876 120.069 179.896C119.576 179.784 119.167 179.448 118.951 178.901C118.733 178.355 118.746 177.695 118.94 177.055C118.969 177.027 119.002 177.002 119.033 176.978C119.677 176.483 120.375 176.482 120.797 176.894C120.861 176.587 121.046 176.274 121.315 176.068C121.752 175.731 122.248 175.806 122.419 176.235C122.59 176.663 122.37 177.287 121.932 177.624C121.664 177.83 121.376 177.881 121.154 177.795C121.18 178.51 120.808 179.333 120.164 179.828Z" fill="white"/>
<path opacity="0.2" d="M114.367 187.34L111.377 179.817C111.331 179.699 111.39 179.527 111.511 179.435L113.755 177.71C113.875 177.617 114.012 177.637 114.058 177.755L117.048 185.279C117.095 185.396 117.036 185.568 116.915 185.66L114.672 187.386C114.55 187.478 114.414 187.457 114.367 187.34Z" fill="white"/>
<g opacity="0.4">
<path d="M125.951 174.429C125.915 174.415 125.885 174.387 125.871 174.349L125.372 173.094C125.342 173.021 125.378 172.94 125.451 172.911C125.522 172.881 125.604 172.917 125.634 172.99L126.133 174.244C126.162 174.317 126.127 174.398 126.054 174.427C126.019 174.443 125.982 174.441 125.951 174.429Z" fill="white"/>
</g>
<path d="M115.451 185.811C115.147 186.044 114.806 185.993 114.688 185.697C114.571 185.4 114.721 184.971 115.024 184.738C115.328 184.505 115.669 184.556 115.787 184.852C115.903 185.149 115.753 185.577 115.451 185.811Z" fill="#407BFF"/>
<path opacity="0.4" d="M114.736 184.016C114.432 184.249 114.091 184.198 113.974 183.902C113.856 183.605 114.006 183.176 114.31 182.943C114.613 182.71 114.954 182.761 115.072 183.057C115.189 183.354 115.039 183.783 114.736 184.016Z" fill="white"/>
<path opacity="0.4" d="M114.021 182.221C113.717 182.454 113.376 182.403 113.259 182.107C113.141 181.811 113.291 181.381 113.595 181.148C113.897 180.915 114.24 180.966 114.357 181.262C114.475 181.559 114.324 181.988 114.021 182.221Z" fill="white"/>
<path opacity="0.4" d="M113.31 180.426C113.008 180.659 112.665 180.608 112.548 180.312C112.43 180.016 112.58 179.586 112.884 179.353C113.187 179.12 113.529 179.171 113.646 179.468C113.764 179.763 113.614 180.192 113.31 180.426Z" fill="white"/>
<path opacity="0.7" d="M150.136 234.389C149.191 238.758 148.332 242.816 146.856 247.306C146.833 247.388 146.81 247.468 146.781 247.549C144.482 257.463 146.228 257.123 144.695 265.205C144.695 265.205 145.779 269.949 142.349 270.111C134.55 270.485 111.648 274.266 97.1452 267.834C95.4157 267.068 94.5796 262.749 97.2544 260.346C98.2518 247.29 97.9232 226.36 100.753 215.655C103.018 212.15 108.189 205.573 117.06 201.665C117.06 201.665 117.426 204.214 122.041 205.959C129.306 208.707 135.679 205.959 135.679 205.959C135.679 205.959 141.346 210.375 144.793 223.033C146.545 229.472 148.568 232.734 150.136 234.389Z" fill="white"/>
<path opacity="0.2" d="M151.527 228.343C151.002 230.458 150.563 232.453 150.137 234.389C149.664 236.568 149.215 238.667 148.702 240.787C145.918 234.573 147.74 225.385 147.74 225.385C149.215 225.991 150.477 227.034 151.527 228.343Z" fill="black"/>
<path d="M160.825 214.054C163.2 223.424 165.173 232.654 166.274 242.328C166.521 245.842 167.143 249.06 165.759 253.006C164.774 255.455 163.176 257.757 161.783 259.735C158.996 263.685 155.944 267.404 152.857 271.057C149.356 275.144 145.506 279.435 141.885 283.425C141.407 283.884 140.815 284.793 140.11 285.033L134.195 280.331C134.267 279.602 134.953 278.864 135.311 278.27L136.602 276.334C139.096 272.57 141.795 268.427 144.177 264.639C147.39 259.4 151.132 254.147 153.602 248.611C153.62 248.563 153.635 248.523 153.617 248.545C153.593 248.568 153.611 248.54 153.579 248.616C153.556 248.667 153.537 248.721 153.525 248.775C153.511 248.817 153.506 248.925 153.501 248.871C153.458 248.594 153.478 248.432 153.435 248.078C152.101 237.949 149.125 227.624 146.855 217.588C146.853 217.587 160.825 214.054 160.825 214.054Z" fill="#E9BFBB"/>
<path d="M145.77 202.245C145.77 202.245 153.861 203.913 158.544 208.125C164.787 213.741 165.908 233.934 165.908 233.934L150.695 238.634L147.081 228.33L145.77 202.245Z" fill="#407BFF"/>
<path d="M128.484 164.09C128.484 164.09 122.842 167.142 124.013 176.862C125.186 186.582 138.1 168.308 128.484 164.09Z" fill="#EEC1BB"/>
<path opacity="0.5" d="M128.484 164.09C128.484 164.09 122.842 167.142 124.013 176.862C125.186 186.582 138.1 168.308 128.484 164.09Z" fill="black"/>
<path d="M143.983 177.52C142.11 184.844 142.943 186.229 138.472 189.285C131.747 193.88 122.318 193.24 122.415 185.476C122.501 178.488 124.137 166.107 131.957 164.612C139.659 163.138 145.856 170.196 143.983 177.52Z" fill="#EEC1BB"/>
<path d="M134.873 176.564C134.728 177.191 134.429 177.192 134.019 177.093C133.609 176.995 133.243 176.834 133.388 176.207C133.532 175.579 133.983 175.151 134.392 175.25C134.803 175.347 135.017 175.937 134.873 176.564Z" fill="#263238"/>
<path d="M127.048 175.576C126.903 176.204 126.604 176.204 126.194 176.105C125.784 176.006 125.418 175.846 125.564 175.219C125.708 174.591 126.159 174.162 126.568 174.261C126.978 174.36 127.192 174.949 127.048 175.576Z" fill="#263238"/>
<path d="M128.298 175.517C128.298 175.517 126.719 178.135 125.271 179.279C125.999 180.237 127.528 180.127 127.528 180.127L128.298 175.517Z" fill="#D4827D"/>
<path d="M136.581 173.949C136.645 173.947 136.707 173.929 136.765 173.895C136.943 173.786 136.999 173.553 136.889 173.375C135.792 171.581 134.046 171.499 133.972 171.496C133.763 171.489 133.589 171.652 133.584 171.861C133.579 172.069 133.742 172.245 133.95 172.252C134.007 172.256 135.369 172.332 136.243 173.765C136.319 173.887 136.45 173.953 136.581 173.949Z" fill="#263238"/>
<path d="M124.554 172.063C124.67 172.106 124.803 172.092 124.908 172.014C126.246 171.023 127.531 171.477 127.585 171.497C127.781 171.568 127.997 171.469 128.068 171.273C128.138 171.078 128.04 170.86 127.844 170.786C127.772 170.761 126.132 170.16 124.457 171.402C124.289 171.526 124.255 171.763 124.38 171.932C124.426 171.995 124.487 172.04 124.554 172.063Z" fill="#263238"/>
<path d="M140.321 171.372C140.321 171.372 140.396 168.765 138.299 167.617C136.202 166.469 130.175 168.646 126.858 165.644C126.858 165.644 123.915 160.497 129.985 158.777C136.056 157.057 146.365 161.009 149.056 166.111C151.746 171.213 149.835 174.693 149.835 174.693C150.021 173.161 149.717 172.379 149.717 172.379C149.717 172.379 149.913 175.862 147.281 177.868L140.321 171.372Z" fill="#263238"/>
<path d="M142.274 182.393C138.666 184.012 139.813 180.545 140.09 180.207C141.302 178.729 140.598 176.445 139.759 173.239C139.386 171.812 139.987 169.605 139.987 169.605C139.987 169.605 144.269 169.215 146.714 170.1C149.239 171.014 149.121 173.108 149.121 173.108C147.899 179.611 145.182 181.089 142.274 182.393Z" fill="#EEC1BB"/>
<path opacity="0.5" d="M142.274 182.393C138.666 184.012 139.813 180.545 140.09 180.207C141.302 178.729 140.598 176.445 139.759 173.239C139.386 171.812 139.987 169.605 139.987 169.605C139.987 169.605 144.269 169.215 146.714 170.1C149.239 171.014 149.121 173.108 149.121 173.108C147.899 179.611 145.182 181.089 142.274 182.393Z" fill="black"/>
<path d="M146.425 183.114C145.358 184.755 143.753 185.762 142.326 186.084C140.18 186.567 139.45 184.419 140.334 182.282C141.13 180.359 143.204 177.792 145.22 178.269C147.206 178.739 147.645 181.237 146.425 183.114Z" fill="#EEC1BB"/>
<path d="M127.32 184.241C127.245 184.241 127.172 184.203 127.133 184.134C127.073 184.031 127.108 183.899 127.211 183.839C127.27 183.804 128.699 182.99 132.018 182.99C132.138 182.99 132.235 183.087 132.235 183.207C132.235 183.326 132.138 183.423 132.018 183.423C128.833 183.423 127.441 184.204 127.428 184.212C127.395 184.232 127.357 184.241 127.32 184.241Z" fill="#263238"/>
<path d="M262.477 458.754H254.301V461.787H262.477V458.754Z" fill="#263238"/>
<path d="M328.872 458.754H320.695V461.787H328.872V458.754Z" fill="#263238"/>
<path d="M329.998 381.055H253.18C252.385 381.055 251.74 381.698 251.74 382.494V458.338C251.74 459.133 252.384 459.777 253.18 459.777H329.999C330.794 459.777 331.439 459.134 331.439 458.338V382.494C331.438 381.698 330.794 381.055 329.998 381.055Z" fill="#407BFF"/>
<path opacity="0.4" d="M331.444 382.496V458.333C331.444 459.134 330.799 459.779 329.998 459.779H253.184C252.383 459.779 251.738 459.134 251.738 458.333V382.496C251.738 381.696 252.383 381.051 253.184 381.051H329.998C330.799 381.051 331.444 381.696 331.444 382.496Z" fill="white"/>
<path opacity="0.2" d="M331.444 382.496V400.842C293.484 400.967 261.161 399.126 251.738 398.533V382.496C251.738 381.696 252.383 381.051 253.184 381.051H329.998C330.799 381.051 331.444 381.696 331.444 382.496Z" fill="black"/>
<path d="M329.193 398.343H253.984C251.209 398.343 248.959 396.094 248.959 393.318V383.83C248.959 381.054 251.209 378.805 253.984 378.805H329.193C331.968 378.805 334.218 381.054 334.218 383.83V393.318C334.218 396.094 331.968 398.343 329.193 398.343Z" fill="#407BFF"/>
<path opacity="0.4" d="M334.22 383.828V393.313C334.22 396.09 331.974 398.346 329.197 398.346H253.984C251.207 398.346 248.961 396.09 248.961 393.313V383.828C248.961 381.051 251.207 378.805 253.984 378.805H329.197C331.974 378.805 334.22 381.051 334.22 383.828Z" fill="white"/>
<path opacity="0.2" d="M334.219 383.828V388.893C332.503 387.229 328.703 388.096 325.968 389.812C321.724 392.474 307.477 392.21 302.673 388.893C297.878 385.575 294.82 389.812 280.65 388.573C268.307 387.494 267.243 378.805 258.393 378.805H329.196C331.973 378.805 334.219 381.051 334.219 383.828Z" fill="black"/>
<path d="M371.616 455.779C370.461 455.779 368.609 454.904 368.17 454.689C368.167 454.688 368.165 454.686 368.162 454.685C368.142 454.674 368.124 454.661 368.109 454.644C368.088 454.623 368.071 454.596 368.06 454.567C368.055 454.552 368.051 454.535 368.048 454.519C368.044 454.484 368.048 454.449 368.061 454.417C368.093 454.33 368.811 452.411 369.938 451.958C370.297 451.814 370.657 451.828 371.008 451.999C371.384 452.183 371.564 452.419 371.545 452.702C371.515 453.137 370.919 453.567 370.242 453.918C370.943 453.86 371.659 453.886 372.095 454.144C372.327 454.28 372.474 454.47 372.531 454.708C372.649 455.201 372.481 455.459 372.32 455.588C372.152 455.723 371.906 455.779 371.616 455.779ZM368.928 454.559C370.142 455.089 371.655 455.563 372.047 455.248C372.082 455.22 372.186 455.137 372.106 454.811C372.077 454.691 372.001 454.595 371.874 454.519C371.281 454.169 369.858 454.363 368.928 454.559ZM370.428 452.297C370.32 452.297 370.212 452.319 370.101 452.363C369.449 452.625 368.926 453.56 368.661 454.125C369.892 453.674 371.083 453.044 371.109 452.672C371.117 452.557 370.929 452.447 370.817 452.392C370.687 452.328 370.557 452.297 370.428 452.297Z" fill="#407BFF"/>
<path d="M358.962 453.653C358.985 452.979 367.259 453.607 367.259 453.607C367.259 453.607 372.29 458.849 377.224 460.073C382.158 461.296 379.357 464.232 373.827 464.165C368.298 464.098 364.077 464.049 360.148 464.001C356.218 463.953 358.714 460.635 358.962 453.653Z" fill="#263238"/>
<path d="M297.771 455.779C296.617 455.779 294.764 454.904 294.325 454.689C294.322 454.688 294.32 454.686 294.317 454.685C294.297 454.674 294.279 454.661 294.263 454.644C294.242 454.623 294.226 454.596 294.214 454.567C294.209 454.552 294.205 454.535 294.203 454.519C294.199 454.484 294.203 454.449 294.215 454.417C294.247 454.33 294.965 452.411 296.092 451.958C296.451 451.814 296.811 451.828 297.163 451.999C297.538 452.183 297.718 452.419 297.699 452.702C297.669 453.137 297.073 453.567 296.396 453.918C297.097 453.86 297.814 453.886 298.249 454.144C298.481 454.28 298.628 454.47 298.685 454.708C298.804 455.201 298.636 455.459 298.474 455.588C298.308 455.723 298.062 455.779 297.771 455.779ZM295.084 454.559C296.297 455.089 297.811 455.563 298.203 455.248C298.237 455.22 298.341 455.137 298.262 454.811C298.233 454.691 298.157 454.595 298.029 454.519C297.437 454.169 296.014 454.363 295.084 454.559ZM296.583 452.297C296.475 452.297 296.367 452.319 296.257 452.363C295.605 452.625 295.082 453.56 294.816 454.125C296.048 453.674 297.238 453.044 297.264 452.672C297.273 452.557 297.085 452.447 296.972 452.392C296.842 452.328 296.713 452.297 296.583 452.297Z" fill="#407BFF"/>
<path d="M285.116 453.653C285.14 452.979 293.413 453.607 293.413 453.607C293.413 453.607 298.444 458.849 303.378 460.073C308.312 461.296 305.511 464.232 299.982 464.165C294.452 464.098 290.232 464.049 286.302 464.001C282.372 463.953 284.868 460.635 285.116 453.653Z" fill="#263238"/>
<path d="M304.146 351.759L304.69 357.53C304.69 357.53 338.469 362.664 343.876 367.95C349.283 373.235 368.664 454.122 368.664 454.122C368.664 454.122 363.031 456.515 358.617 455.271C358.617 455.271 332.139 404.054 332.441 387.257C332.441 387.257 308.796 388.14 292.656 388.14C276.516 388.14 274.588 351.758 274.588 351.758H304.146V351.759Z" fill="#407BFF"/>
<path opacity="0.2" d="M304.146 351.759L304.69 357.53C304.69 357.53 338.469 362.664 343.876 367.95C349.283 373.235 368.664 454.122 368.664 454.122C368.664 454.122 363.031 456.515 358.617 455.271C358.617 455.271 332.139 404.054 332.441 387.257C332.441 387.257 308.796 388.14 292.656 388.14C276.516 388.14 274.588 351.758 274.588 351.758H304.146V351.759Z" fill="black"/>
<path opacity="0.2" d="M330.769 387.315C326.91 387.45 316.926 387.783 306.672 387.98L308.773 363.696C308.773 363.696 320.92 365.173 328.553 370.924C331.445 373.098 331.568 380.035 330.769 387.315Z" fill="black"/>
<path d="M274.584 351.758C274.584 351.758 264.141 367.222 269.824 379.926C275.507 392.631 303.963 386.899 303.963 386.899C299.679 393.521 294.817 399.363 284.65 453.62C284.65 453.62 288.677 455.776 294.217 454.413C294.217 454.413 326.027 388.999 326.84 377.319C327.653 365.639 293.259 358.141 293.259 358.141L274.584 351.758Z" fill="#407BFF"/>
<path opacity="0.2" d="M274.584 351.758C274.584 351.758 264.141 367.222 269.824 379.926C275.507 392.631 303.963 386.899 303.963 386.899C299.679 393.521 294.817 399.363 284.65 453.62C284.65 453.62 288.677 455.776 294.217 454.413C294.217 454.413 326.027 388.999 326.84 377.319C327.653 365.639 293.259 358.141 293.259 358.141L274.584 351.758Z" fill="black"/>
<path d="M310.991 307.965C316.899 311.429 323.212 315.875 329.763 317.594C329.945 317.64 329.953 317.584 329.519 317.779C328.36 318.334 327.452 319.542 327.348 320.817C327.311 321.491 327.412 321.533 327.396 321.512C326.189 317.793 323.752 314.353 321.773 310.902C321.77 310.894 314.663 299.407 314.659 299.397C313.133 296.909 316.487 294.287 318.531 296.352C323.431 301.326 327.972 306.512 332.066 312.206C334.579 315.825 339.051 322.097 333.835 325.649C326.725 329.884 311.653 320.211 305.502 316.265C300.174 312.462 305.405 304.55 310.991 307.965Z" fill="#E4897B"/>
<path d="M319.31 312.068C319.31 312.068 317.719 319.077 313.799 321.902C312.9 322.553 311.879 322.979 310.721 323.054C308.588 323.187 307.164 321.193 306.219 318.524C304.426 313.457 304.346 305.964 304.346 305.964C311.114 306.765 313.581 308.73 319.31 312.068Z" fill="#263238"/>
<path opacity="0.2" d="M313.797 321.901C312.898 322.552 311.878 322.978 310.719 323.053C308.586 323.186 307.162 321.192 306.217 318.523C308.137 315.324 309.871 312.655 309.871 312.655C309.871 312.655 312.857 314.898 313.797 321.901Z" fill="black"/>
<path d="M312.624 320.559C312.706 326.733 307.85 343.194 305.4 353.656L272.731 353.216C273.336 350.127 275.318 340.654 274.989 333.558C274.971 333.062 274.937 332.532 274.908 332.002C274.839 330.613 274.729 329.126 274.608 327.535C274.585 327.217 274.563 326.895 274.533 326.566C274.377 324.721 274.182 322.739 273.951 320.612C273.743 318.687 273.502 316.641 273.224 314.473C273.097 313.419 272.959 312.34 272.809 311.222C272.14 306.253 275.818 302.097 280.706 302.299C282.009 302.351 283.397 302.437 284.798 302.576C290.292 303.095 294.794 303.562 299.566 304.697C301.146 305.066 302.783 305.516 304.345 305.965C309.967 307.578 312.556 314.772 312.624 320.559Z" fill="#263238"/>
<path opacity="0.2" d="M279.512 313.803C279.512 313.803 278.746 322.91 274.606 327.534C274.584 327.217 274.561 326.894 274.532 326.566C274.376 324.721 274.18 322.738 273.949 320.612C276.671 317.031 279.512 313.803 279.512 313.803Z" fill="black"/>
<path d="M284.534 269.565C279.049 279.654 279.32 292.59 281.208 295.293C283.095 297.996 310.61 296.517 310.61 296.517C310.61 296.517 307.933 293.589 307.657 277.255C307.382 260.923 284.534 269.565 284.534 269.565Z" fill="#263238"/>
<path d="M306.921 285.621C309.635 281.392 312.671 269.799 302.371 265.702C289.512 260.587 283.273 268.65 281.766 276.857C280.259 285.063 284.626 291.521 293.29 291.295C301.955 291.07 305.043 288.547 306.921 285.621Z" fill="#263238"/>
<path d="M290.325 286.7C290.453 291.669 289.923 300.589 286.137 302.963C286.137 302.963 287.77 304.901 298.68 311.452C302.342 308.219 300.627 306.487 300.627 306.487C295.637 303.959 296.422 300.064 297.939 296.596L290.325 286.7Z" fill="#E4897B"/>
<path opacity="0.2" d="M293.429 290.737L297.936 296.591C297.574 297.411 297.258 298.255 297.055 299.101C292.677 296.819 291.217 292.568 291.217 292.568C291.217 292.568 293.178 291.188 293.429 290.737Z" fill="black"/>
<path d="M318.741 298.284L318.767 289.825L311.463 290.984C311.463 290.984 310.614 296.894 314.903 299.315L318.741 298.284Z" fill="#E4897B"/>
<path d="M315.954 284.5L310.717 286.666L311.46 290.983L318.764 289.825L315.954 284.5Z" fill="#E4897B"/>
<path d="M259.529 304.587L252.764 299.509L258.092 294.38C258.092 294.38 263.32 297.265 262.666 302.148L259.529 304.587Z" fill="#E4897B"/>
<path d="M250.211 294.057L255.097 291.186L258.093 294.38L252.765 299.51L250.211 294.057Z" fill="#E4897B"/>
<path d="M280.493 310.165C278.836 314.68 276.994 318.929 274.706 323.205C272.404 327.198 270.095 331.876 265.647 334.297C263.888 335.297 261.217 335.045 259.738 333.773C255.491 330.321 256.468 321.017 256.531 316.094C256.769 311.398 257.292 306.807 258.04 302.184C258.258 300.833 259.53 299.915 260.881 300.134C262.047 300.322 262.889 301.295 262.959 302.426C263.235 306.952 263.529 311.526 263.88 315.992C264.321 319.773 264.365 323.997 265.743 327.39C265.528 326.759 264.015 325.896 263.056 325.979C262.535 325.951 261.947 326.125 261.54 326.276C261.554 326.236 261.574 326.231 261.667 326.117C265.865 320.541 268.37 313.147 271.176 306.674C273.69 300.645 282.553 303.96 280.493 310.165Z" fill="#E4897B"/>
<path d="M302.119 281.71L307.781 275.595L307.494 275.284C307.494 275.284 307.918 275.241 308.292 275.28C308.488 275.286 308.689 275.414 308.832 275.649L319.139 292.597C319.379 292.993 319.362 293.544 319.1 293.827L313.299 300.092C313.204 300.195 313.09 300.243 312.971 300.25V300.255H312.948C312.946 300.255 312.943 300.257 312.941 300.257C312.938 300.257 312.935 300.256 312.931 300.256L312.15 300.257L312.294 299.732L302.081 282.94C301.839 282.543 301.856 281.993 302.119 281.71Z" fill="#407BFF"/>
<path d="M312.562 300.09L318.363 293.825C318.625 293.542 318.642 292.991 318.402 292.596L308.095 275.647C307.854 275.252 307.446 275.161 307.184 275.444L301.383 281.709C301.12 281.992 301.103 282.543 301.343 282.939L311.651 299.888C311.891 300.283 312.299 300.373 312.562 300.09Z" fill="#407BFF"/>
<path opacity="0.6" d="M312.562 300.09L318.363 293.825C318.625 293.542 318.642 292.991 318.402 292.596L308.095 275.647C307.854 275.252 307.446 275.161 307.184 275.444L301.383 281.709C301.12 281.992 301.103 282.543 301.343 282.939L311.651 299.888C311.891 300.283 312.299 300.373 312.562 300.09Z" fill="white"/>
<path d="M312.219 299.436L317.953 293.244C318.081 293.106 318.091 292.837 317.973 292.643L307.971 276.197C307.854 276.003 307.654 275.958 307.526 276.098L301.792 282.29C301.664 282.428 301.654 282.698 301.772 282.891L311.774 299.338C311.891 299.531 312.091 299.576 312.219 299.436Z" fill="#263238"/>
<g opacity="0.4">
<path d="M303.61 283.774C303.686 283.774 303.761 283.744 303.817 283.684L308.242 278.905C308.348 278.791 308.341 278.613 308.227 278.507C308.113 278.401 307.935 278.408 307.828 278.522L303.403 283.301C303.297 283.416 303.304 283.593 303.419 283.699C303.473 283.749 303.542 283.774 303.61 283.774Z" fill="white"/>
</g>
<path opacity="0.4" d="M307.936 288.86C308.366 289.568 308.954 289.978 309.544 290.06C310.044 290.134 310.546 289.967 310.946 289.536C311.345 289.104 311.572 288.484 311.621 287.818C311.683 287.032 311.504 286.181 311.074 285.472C310.28 284.167 308.932 283.867 308.067 284.802C307.201 285.736 307.142 287.555 307.936 288.86Z" fill="white"/>
<path d="M309.48 289.961C309.5 289.994 309.52 290.029 309.544 290.059C310.044 290.133 310.547 289.966 310.946 289.535C311.345 289.103 311.572 288.484 311.621 287.817C311.603 287.779 311.583 287.746 311.563 287.712C311.14 287.018 310.489 286.764 309.949 286.997C309.999 286.688 309.939 286.329 309.763 286.04C309.476 285.568 308.987 285.459 308.674 285.797C308.36 286.135 308.339 286.796 308.626 287.269C308.801 287.558 309.052 287.71 309.29 287.709C309.006 288.366 309.058 289.267 309.48 289.961Z" fill="white"/>
<path opacity="0.2" d="M312.183 299.06L317.684 293.119C317.77 293.026 317.776 292.845 317.697 292.715L316.226 290.297C316.147 290.167 316.013 290.137 315.927 290.23L310.426 296.171C310.34 296.264 310.334 296.445 310.413 296.575L311.883 298.993C311.962 299.123 312.097 299.153 312.183 299.06Z" fill="white"/>
<g opacity="0.4">
<path d="M306.031 282.842C306.069 282.842 306.107 282.826 306.134 282.796L307.052 281.805C307.105 281.748 307.102 281.658 307.044 281.606C306.987 281.553 306.899 281.556 306.846 281.613L305.928 282.605C305.875 282.662 305.879 282.751 305.936 282.803C305.963 282.829 305.997 282.842 306.031 282.842Z" fill="white"/>
</g>
<path opacity="0.4" d="M311.726 297.243C311.925 297.569 312.262 297.645 312.478 297.41C312.694 297.176 312.71 296.722 312.51 296.394C312.312 296.067 311.975 295.992 311.757 296.227C311.542 296.461 311.527 296.915 311.726 297.243Z" fill="white"/>
<path opacity="0.4" d="M313.036 295.825C313.235 296.151 313.572 296.227 313.788 295.992C314.005 295.758 314.02 295.304 313.821 294.976C313.622 294.649 313.285 294.574 313.069 294.809C312.852 295.043 312.838 295.498 313.036 295.825Z" fill="white"/>
<path opacity="0.4" d="M314.351 294.408C314.55 294.734 314.887 294.809 315.103 294.575C315.319 294.341 315.335 293.887 315.135 293.559C314.937 293.232 314.6 293.157 314.382 293.392C314.167 293.627 314.152 294.081 314.351 294.408Z" fill="white"/>
<path d="M315.662 292.991C315.861 293.317 316.198 293.393 316.414 293.158C316.631 292.924 316.646 292.47 316.447 292.142C316.247 291.815 315.911 291.74 315.694 291.975C315.477 292.209 315.463 292.664 315.662 292.991Z" fill="#407BFF"/>
<path d="M286.988 278.539C287.571 286.401 287.649 289.741 291.674 293.729C297.727 299.729 307.257 297.294 309.035 289.417C310.636 282.327 309.415 270.661 301.674 267.626C294.048 264.637 286.406 270.677 286.988 278.539Z" fill="#E4897B"/>
<path d="M293.003 270.611C295.419 273.148 291.211 282.178 287.435 283.984C279.621 282.145 285.792 263.038 293.003 270.611Z" fill="#263238"/>
<path d="M301.983 266.14C304.982 267.157 308.168 272.347 308.698 274.344C304.433 275.042 292.937 271.047 292.937 271.047C292.937 271.047 285.266 273.166 289.151 269.276C293.038 265.387 301.983 266.14 301.983 266.14Z" fill="#263238"/>
<path d="M306.731 281.634C306.739 282.275 307.085 282.789 307.503 282.784C307.922 282.779 308.255 282.255 308.247 281.614C308.239 280.974 307.893 280.459 307.474 280.464C307.055 280.47 306.722 280.993 306.731 281.634Z" fill="#263238"/>
<path d="M307.291 280.503L308.824 280.04C308.824 280.04 308.049 281.252 307.291 280.503Z" fill="#263238"/>
<path d="M284.948 285.78C285.527 287.309 286.757 288.427 287.991 288.959C289.846 289.759 291.044 288.166 290.755 286.273C290.495 284.569 289.216 282.101 287.245 282.102C285.303 282.102 284.286 284.032 284.948 285.78Z" fill="#E4897B"/>
<path d="M296.636 279.031C296.793 279.052 296.953 278.973 297.027 278.824C297.792 277.261 300.003 276.889 300.025 276.886C300.23 276.853 300.37 276.66 300.337 276.456C300.305 276.251 300.113 276.11 299.906 276.144C299.799 276.161 297.286 276.583 296.351 278.494C296.259 278.68 296.337 278.906 296.524 278.997C296.56 279.014 296.597 279.025 296.636 279.031Z" fill="#263238"/>
<path d="M308.936 277.007C309.063 277.024 309.196 276.978 309.282 276.869C309.412 276.707 309.386 276.47 309.224 276.34C307.602 275.037 305.944 275.558 305.875 275.581C305.678 275.645 305.569 275.858 305.634 276.055C305.698 276.252 305.909 276.36 306.107 276.296C306.162 276.279 307.457 275.886 308.753 276.927C308.808 276.971 308.871 276.997 308.936 277.007Z" fill="#263238"/>
<path d="M299.488 281.724C299.497 282.364 299.843 282.879 300.261 282.874C300.68 282.869 301.013 282.346 301.005 281.704C300.996 281.063 300.651 280.549 300.232 280.554C299.813 280.559 299.48 281.083 299.488 281.724Z" fill="#263238"/>
<path d="M300.047 280.593L301.58 280.13C301.58 280.13 300.805 281.341 300.047 280.593Z" fill="#263238"/>
<path d="M303.205 289.474C302.426 290.348 301.38 292.112 301.38 292.112C301.203 292.047 301.026 291.98 300.853 291.906C298.475 290.951 297.688 289.723 297.536 288.65C297.455 288.064 297.573 287.519 297.723 287.098C297.892 286.608 298.124 286.298 298.124 286.298C299.082 287.557 301.229 288.618 302.399 289.136C302.888 289.358 303.205 289.474 303.205 289.474Z" fill="#263238"/>
<path d="M302.4 289.136L301.841 289.9C299.604 288.996 298.151 288.059 297.723 287.098C297.891 286.608 298.123 286.298 298.123 286.298C299.082 287.556 301.229 288.617 302.4 289.136Z" fill="white"/>
<path d="M300.854 291.904C298.476 290.949 297.689 289.721 297.537 288.648C298.335 289.005 299.256 289.524 299.967 290.231C300.513 290.771 300.754 291.363 300.854 291.904Z" fill="#DE5753"/>
<path d="M300.96 285.363C299.358 285.363 298.055 283.888 298.055 282.075C298.055 280.262 299.358 278.787 300.96 278.787C302.563 278.787 303.866 280.262 303.866 282.075C303.866 283.888 302.563 285.363 300.96 285.363ZM300.96 279.284C299.632 279.284 298.552 280.535 298.552 282.075C298.552 283.614 299.632 284.866 300.96 284.866C302.289 284.866 303.369 283.614 303.369 282.075C303.369 280.535 302.289 279.284 300.96 279.284Z" fill="#263238"/>
<path d="M308.056 285.363C306.454 285.363 305.15 283.888 305.15 282.075C305.15 280.262 306.455 278.787 308.056 278.787C309.659 278.787 310.962 280.262 310.962 282.075C310.962 283.888 309.659 285.363 308.056 285.363ZM308.056 279.284C306.728 279.284 305.648 280.535 305.648 282.075C305.648 283.614 306.728 284.866 308.056 284.866C309.384 284.866 310.465 283.614 310.465 282.075C310.465 280.535 309.383 279.284 308.056 279.284Z" fill="#263238"/>
<path d="M304.59 281.56C304.59 281.56 305.712 284.304 306.925 285.62C306.089 286.419 304.646 286.077 304.646 286.077L304.59 281.56Z" fill="#DE5753"/>
<path d="M303.748 282.286L303.482 281.864C303.539 281.829 304.859 281.018 305.589 281.918L305.203 282.233C304.746 281.666 303.758 282.28 303.748 282.286Z" fill="#263238"/>
<path d="M298.306 281.824H288.762V282.322H298.306V281.824Z" fill="#263238"/>
<path d="M279.63 302.326C272.943 302.449 271.57 304.151 266.762 313.652L276.867 320.993C276.867 320.993 280.78 315.302 281.473 310.691C282.166 306.08 279.63 302.326 279.63 302.326Z" fill="#263238"/>
<path d="M227.335 448.226L222.375 453.873L218.433 458.356L212.879 464.679L211.403 466.364C211.392 466.374 211.392 466.374 211.392 466.374L210.061 467.882C209.863 467.664 209.655 467.435 209.447 467.206C208.803 466.478 208.137 465.709 207.44 464.887C207.055 464.429 206.66 463.951 206.265 463.452C201.647 457.805 196.229 450.348 190.998 442.745C188.845 439.605 186.713 436.443 184.685 433.365C179.235 444.066 146.839 456.837 142.752 467.653C142.191 468.007 140.443 467.258 138.686 466.353C136.543 465.22 134.391 463.816 134.391 463.816C134.391 463.816 166.839 419.106 181.721 409.289C183.156 408.332 184.435 407.718 185.496 407.489C185.746 407.437 186.006 407.406 186.276 407.406C196.208 407.406 221.407 441.279 227.335 448.226Z" fill="#B55B52"/>
<path d="M141.93 474.788C139.32 474.84 138.54 474.435 135.295 474.549C131.988 474.664 130.885 474.757 126.226 474.778C125.519 474.788 124.729 474.788 123.845 474.788C121.141 474.788 120.153 471.263 123.793 470.774C127.599 470.264 132.997 466.468 134.39 463.816L141.909 464.524L142.045 464.534C142.273 465.501 142.523 466.624 142.752 467.654C142.981 468.694 143.189 469.64 143.365 470.244C144.04 472.646 144.113 474.736 141.93 474.788Z" fill="#B55B52"/>
<path d="M244.253 465.303C244.253 465.303 231.804 476.514 221.633 474.902C214.904 473.831 210.619 469.973 208.487 467.487C207.395 466.218 206.875 465.303 206.875 465.303L207.437 464.887L210.557 462.578L217.452 457.503L222.371 453.873L229.838 448.361L238.928 459.042L244.253 465.303Z" fill="#263238"/>
<path d="M216.357 456.528C216.357 456.528 210.06 462.536 205.148 463.811L207.007 467.742C207.007 467.742 213.778 467.543 218.955 458.813L216.357 456.528Z" fill="#407BFF"/>
<path opacity="0.6" d="M216.357 456.528C216.357 456.528 210.06 462.536 205.148 463.811L207.007 467.742C207.007 467.742 213.778 467.543 218.955 458.813L216.357 456.528Z" fill="white"/>
<path opacity="0.2" d="M238.929 459.042L232.138 471.761C232.138 471.761 223.361 473.113 213.408 465.116C213.231 464.97 213.054 464.825 212.877 464.679C212.108 464.034 211.328 463.337 210.558 462.578C210.267 462.297 209.976 462.006 209.685 461.705C204.963 456.817 200.179 449.589 196.123 438.939C196.123 438.939 194.209 441.175 190.996 442.745C188.843 439.605 186.711 436.443 184.683 433.365C179.233 444.066 146.837 456.837 142.75 467.653C142.979 468.693 143.187 469.64 143.364 470.243C144.04 472.645 144.113 474.736 141.929 474.788C139.318 474.84 138.538 474.434 135.293 474.549C131.986 474.663 130.884 474.757 126.225 474.777C126.88 473.197 128.034 471.283 129.948 470.545C132.101 469.723 135.709 467.945 138.684 466.353C139.921 465.677 141.055 465.043 141.908 464.523C142.355 464.253 142.719 464.013 143 463.816C145.132 462.297 165.089 427.769 183.331 413.969C183.331 413.969 182.01 411.837 181.719 409.289C183.154 408.332 184.433 407.718 185.494 407.489C185.744 407.437 186.004 407.406 186.274 407.406C196.206 407.406 221.405 441.279 227.333 448.226L222.373 453.873L229.84 448.361L238.929 459.042Z" fill="black"/>
<path d="M204.923 397.229C200.689 404.134 197.481 412.552 190.576 417.557C188.712 418.975 185.636 418.812 184.034 417.009C181.98 414.858 182.339 411.619 182.499 409.209C182.793 405.898 183.362 402.658 184.006 399.448C184.844 395.227 185.879 391.095 187.089 386.964C187.481 385.625 188.885 384.857 190.224 385.25C191.37 385.586 192.099 386.665 192.037 387.807C191.881 395.81 190.734 404.079 191.343 411.998C191.365 412.109 191.402 412.191 191.374 412.047C190.987 410.315 188.446 408.981 186.662 409.5C186.059 409.62 185.603 409.893 185.394 410.006C185.409 409.99 185.46 409.943 185.476 409.929C187.362 408.04 188.666 405.539 190.098 403.027C191.984 399.576 194.162 395.184 196.352 391.822C200.128 386.458 208.139 391.522 204.923 397.229Z" fill="#B65B52"/>
<path opacity="0.2" d="M200.638 396.438C200.638 396.438 199 400.178 199 404.467C199 404.467 196.968 403.866 191.773 404.165C192.029 402.792 192.318 400.799 192.292 398.918L191.404 400.584V404.185C191.404 404.185 185.614 406.169 182.717 407.143C182.631 407.823 182.556 408.51 182.498 409.213C182.446 409.789 182.405 410.378 182.382 411C182.365 411.628 182.353 412.267 182.428 413.074C182.469 413.489 182.514 413.927 182.688 414.579C182.786 414.919 182.901 415.311 183.218 415.905C183.409 416.228 183.599 416.556 184.032 417.012C184.129 417.116 184.239 417.219 184.383 417.34C184.528 417.461 184.654 417.565 184.821 417.68C185 417.796 185.184 417.905 185.374 418.003C185.565 418.101 185.796 418.193 186.014 418.268C186.925 418.585 187.934 418.579 188.642 418.413C188.815 418.372 188.964 418.332 189.12 418.286L189.351 418.205L189.53 418.13C189.652 418.078 189.766 418.026 189.882 417.969L190.158 417.819L190.441 417.646L190.574 417.56L190.845 417.381C191.202 417.145 191.507 416.908 191.813 416.666C192.983 415.698 193.894 414.741 194.69 413.778C196.269 411.859 197.543 409.974 198.713 408.077C199.89 406.198 200.944 404.313 201.976 402.475C202.431 401.65 202.887 400.826 203.336 400.024C202.737 398.738 201.849 397.527 200.638 396.438Z" fill="black"/>
<path d="M187.093 387.213L186.283 378.687L193.756 379.178C193.756 379.178 195.16 385.06 191.059 387.899L187.093 387.213Z" fill="#B55B52"/>
<path d="M188.624 373.058L194.106 374.757L193.756 379.179L186.283 378.687L188.624 373.058Z" fill="#B55B52"/>
<path d="M201.912 370.129L196.719 364.52L196.982 364.234C196.982 364.234 196.594 364.195 196.251 364.231C196.072 364.236 195.887 364.353 195.756 364.568L186.302 380.113C186.082 380.476 186.097 380.98 186.338 381.24L191.659 386.986C191.746 387.08 191.851 387.125 191.96 387.132V387.136H191.98C191.982 387.136 191.985 387.138 191.988 387.138C191.991 387.138 191.994 387.137 191.997 387.137L192.714 387.138L192.583 386.657L201.949 371.255C202.169 370.893 202.153 370.389 201.912 370.129Z" fill="#407BFF"/>
<path d="M192.334 386.987L187.014 381.241C186.774 380.981 186.757 380.477 186.977 380.114L196.431 364.569C196.651 364.206 197.026 364.123 197.266 364.383L202.587 370.129C202.827 370.389 202.844 370.893 202.623 371.256L193.17 386.801C192.949 387.164 192.576 387.247 192.334 386.987Z" fill="#407BFF"/>
<path opacity="0.6" d="M192.334 386.987L187.014 381.241C186.774 380.981 186.757 380.477 186.977 380.114L196.431 364.569C196.651 364.206 197.026 364.123 197.266 364.383L202.587 370.129C202.827 370.389 202.844 370.893 202.623 371.256L193.17 386.801C192.949 387.164 192.576 387.247 192.334 386.987Z" fill="white"/>
<path d="M192.646 386.389L187.387 380.71C187.269 380.583 187.261 380.337 187.369 380.159L196.543 365.075C196.651 364.897 196.834 364.856 196.952 364.983L202.211 370.662C202.328 370.789 202.337 371.036 202.229 371.214L193.055 386.298C192.947 386.475 192.764 386.516 192.646 386.389Z" fill="#263238"/>
<g opacity="0.4">
<path d="M200.55 372.022C200.481 372.022 200.412 371.994 200.361 371.939L196.303 367.557C196.206 367.453 196.212 367.288 196.318 367.192C196.422 367.095 196.585 367.101 196.683 367.206L200.742 371.589C200.838 371.693 200.832 371.857 200.727 371.954C200.677 372 200.614 372.022 200.55 372.022Z" fill="white"/>
</g>
<path opacity="0.4" d="M196.576 376.686C196.18 377.335 195.642 377.712 195.101 377.786C194.642 377.854 194.181 377.701 193.815 377.306C193.449 376.911 193.241 376.342 193.197 375.73C193.139 375.01 193.304 374.229 193.699 373.58C194.427 372.383 195.662 372.107 196.457 372.965C197.249 373.822 197.304 375.489 196.576 376.686Z" fill="white"/>
<path d="M195.159 377.697C195.14 377.728 195.121 377.758 195.1 377.786C194.641 377.854 194.18 377.701 193.814 377.306C193.448 376.911 193.24 376.342 193.195 375.73C193.211 375.696 193.23 375.665 193.248 375.635C193.635 374.998 194.233 374.766 194.729 374.979C194.684 374.696 194.738 374.367 194.899 374.102C195.162 373.669 195.611 373.568 195.898 373.878C196.185 374.188 196.205 374.794 195.942 375.228C195.781 375.493 195.551 375.633 195.333 375.632C195.593 376.234 195.545 377.06 195.159 377.697Z" fill="white"/>
<path opacity="0.2" d="M192.682 386.043L187.637 380.594C187.558 380.509 187.553 380.343 187.625 380.223L188.974 378.005C189.046 377.885 189.169 377.858 189.248 377.943L194.293 383.392C194.372 383.477 194.377 383.644 194.305 383.763L192.956 385.981C192.884 386.1 192.761 386.128 192.682 386.043Z" fill="white"/>
<g opacity="0.4">
<path d="M198.324 371.166C198.29 371.166 198.255 371.153 198.23 371.125L197.388 370.216C197.339 370.164 197.342 370.082 197.395 370.034C197.447 369.985 197.53 369.988 197.577 370.041L198.419 370.95C198.468 371.003 198.465 371.084 198.412 371.133C198.387 371.155 198.355 371.166 198.324 371.166Z" fill="white"/>
</g>
<path d="M193.103 384.375C192.921 384.674 192.612 384.743 192.412 384.529C192.214 384.315 192.2 383.896 192.382 383.597C192.564 383.297 192.873 383.229 193.073 383.443C193.271 383.658 193.285 384.075 193.103 384.375Z" fill="#407BFF"/>
<path opacity="0.4" d="M191.9 383.076C191.718 383.375 191.409 383.444 191.209 383.229C191.01 383.015 190.997 382.598 191.179 382.298C191.361 381.998 191.67 381.928 191.869 382.144C192.068 382.358 192.082 382.775 191.9 383.076Z" fill="white"/>
<path opacity="0.4" d="M190.696 381.777C190.514 382.077 190.206 382.145 190.006 381.931C189.807 381.716 189.794 381.299 189.976 380.999C190.158 380.7 190.467 380.631 190.666 380.845C190.866 381.061 190.88 381.478 190.696 381.777Z" fill="white"/>
<path opacity="0.4" d="M189.491 380.476C189.309 380.776 189.001 380.845 188.801 380.63C188.602 380.416 188.589 379.999 188.771 379.699C188.953 379.399 189.262 379.33 189.461 379.545C189.661 379.76 189.674 380.177 189.491 380.476Z" fill="white"/>
<path d="M249.454 430.135L217.185 438.935C216.786 436.91 216.251 434.862 215.547 432.701C213.336 425.915 209.47 417.993 202.921 405.906C202.038 404.263 196.699 391.287 196.699 391.287C196.699 391.287 199.569 387.644 206.67 385.805C210.522 384.807 217.661 383.591 222.461 383.799C224.109 383.866 225.606 383.984 226.974 384.142C227.7 384.226 228.391 384.322 229.044 384.429C236.882 385.734 239.701 388.785 241.091 393.325C241.945 396.122 242.869 398.249 244.202 404.066C244.371 404.804 244.551 405.602 244.731 406.469C246.143 412.551 247.352 418.583 249.103 428.193C249.218 428.824 249.337 429.47 249.454 430.135Z" fill="#B55B52"/>
<path d="M249.108 428.194C241.315 429.004 224.25 431.435 215.55 432.701C213.339 425.915 209.474 417.994 202.924 405.907C203.858 405.339 203.988 402.322 203.988 400.053C203.988 398.041 204.064 389.095 207.226 385.511C207.328 385.478 208.772 385.291 208.772 385.291C206.854 388.344 206.228 393.192 207.804 395.645C209.773 398.712 220.322 397.338 222.657 395.238C226.173 392.082 226.663 386.635 226.978 384.143C227.704 384.227 228.396 384.322 229.049 384.43C228.334 387.964 226.084 404.039 244.207 404.067C244.375 404.804 244.555 405.603 244.735 406.469C246.148 412.552 247.358 418.584 249.108 428.194Z" fill="#407BFF"/>
<path opacity="0.7" d="M249.108 428.194C241.315 429.004 224.25 431.435 215.55 432.701C213.339 425.915 209.474 417.994 202.924 405.907C203.858 405.339 203.988 402.322 203.988 400.053C203.988 398.041 204.064 389.095 207.226 385.511C207.328 385.478 208.772 385.291 208.772 385.291C206.854 388.344 206.228 393.192 207.804 395.645C209.773 398.712 220.322 397.338 222.657 395.238C226.173 392.082 226.663 386.635 226.978 384.143C227.704 384.227 228.396 384.322 229.049 384.43C228.334 387.964 226.084 404.039 244.207 404.067C244.375 404.804 244.555 405.603 244.735 406.469C246.148 412.552 247.358 418.584 249.108 428.194Z" fill="white"/>
<path d="M216.153 370.409C216.749 374.911 218.568 382.829 222.659 384.153C222.659 384.153 220.374 390.011 213.506 395.237C210.145 392.689 210.45 388.332 210.45 388.332C210.45 388.332 212.965 385.325 210.059 380.957L216.153 370.409Z" fill="#B55B52"/>
<path opacity="0.2" d="M217.921 378.004C216.368 381.938 214.055 385.983 210.78 387.828C211.349 386.799 212.265 384.266 210.061 380.958L216.154 370.408C216.435 372.535 216.987 375.416 217.921 378.004Z" fill="black"/>
<path d="M134.24 474.786C141 474.786 141.893 474.682 145.691 474.554C148.943 474.437 149.722 474.844 152.336 474.786C154.52 474.739 154.438 472.648 153.765 470.244C153.428 469.036 152.909 466.483 152.444 464.532L144.792 463.812C143.399 466.473 138.002 470.267 134.193 470.778C130.556 471.267 131.545 474.786 134.24 474.786Z" fill="#B55B52"/>
<path d="M249.074 428.031C259.213 438.936 268.542 474.902 241.226 474.902C226.274 474.902 217.049 466.016 217.049 466.016L220.644 428.031L248.503 424.913L249.074 428.031Z" fill="#263238"/>
<path d="M245.116 430.025L250.334 429.522L248.683 425.883L244.262 426.355L245.116 430.025Z" fill="black"/>
<path d="M242.649 426.527L220.646 428.878L221.241 432.328L243.646 430.167L242.649 426.527Z" fill="black"/>
<path d="M220.09 428.513L225.391 427.994L226.025 432.328L220.645 432.958L220.09 428.513Z" fill="white"/>
<path opacity="0.2" d="M211.443 419.195C211.443 419.195 223.483 419.702 226.72 418.475C230.539 417.028 239.574 400.813 238.642 396.89C238.052 394.408 230.645 392.376 230.645 392.376C230.645 392.376 226.199 396.985 226.672 405.867C227.145 414.748 204.566 411.362 204.566 411.362L211.443 419.195Z" fill="black"/>
<path opacity="0.2" d="M228.136 435.889H233.615C233.615 435.889 225.834 428.853 220.641 428.03C215.448 427.207 220.086 434.109 220.086 434.109L228.136 435.889Z" fill="black"/>
<path d="M195.085 433.366C203.445 446.048 211.03 457.342 217.965 464.939L227.337 435.493L227.335 435.49C221.239 428.356 205.203 405.527 195.895 407.49C183.819 410.037 144.791 463.814 144.791 463.814C144.791 463.814 151.9 468.43 153.148 467.656C157.24 456.84 189.637 444.062 195.085 433.366Z" fill="#B55B52"/>
<path d="M226.187 434.107C226.187 434.107 224.02 451.334 214.893 463.811L218.675 467.681C218.675 467.681 227.252 459.904 229.197 435.041L226.187 434.107Z" fill="#407BFF"/>
<path opacity="0.6" d="M226.187 434.107C226.187 434.107 224.02 451.334 214.893 463.811L218.675 467.681C218.675 467.681 227.252 459.904 229.197 435.041L226.187 434.107Z" fill="white"/>
<path opacity="0.2" d="M210.806 415.989C207.593 414.897 202.411 413.057 198.709 411.364C198.709 411.364 192.98 415.758 185.762 414.492C189.886 410.633 193.442 408.005 195.895 407.487C196.278 407.408 196.666 407.368 197.072 407.368C201.033 407.369 205.973 411.122 210.806 415.989Z" fill="black"/>
<path d="M240.334 395.447C237.686 401.677 234.918 407.447 230.626 412.895C229.839 413.828 228.82 414.944 227.728 415.644C226.723 416.232 226.121 416.333 225.562 416.467C221.694 417.07 218.069 416.036 214.52 415.275C208.275 413.737 202.253 411.726 196.296 409.334C193.529 408.176 194.71 404.038 197.659 404.503C205.137 405.511 215.57 407.775 222.978 407.709C223.322 407.691 223.644 407.626 223.598 407.609C223.546 407.625 223.455 407.584 222.895 407.894C222.736 407.983 222.544 408.124 222.415 408.245C222.448 408.205 222.531 408.089 222.567 408.05C225.975 403.09 228.393 396.917 231.046 391.398C233.957 385.507 242.663 389.3 240.334 395.447Z" fill="#B65B52"/>
<path d="M196.936 404.467L188.41 405.293L190.313 412.535C190.313 412.535 196.354 412.795 198.362 408.23L196.936 404.467Z" fill="#B55B52"/>
<path d="M183.33 408.66L186.041 413.719L190.317 412.536L188.413 405.293L183.33 408.66Z" fill="#B55B52"/>
<path d="M217.994 353.368C217.205 351.108 208.006 349.755 204.366 351.843C200.726 353.931 203.279 355.203 200.524 355.824C197.769 356.446 194.68 358.018 194.557 360.622C194.433 363.225 198.796 365.457 196.717 367.176C194.637 368.895 192.517 372.873 195.991 374.879C199.463 376.884 209.045 379.174 217.606 376.589C226.166 374.006 224.825 362.373 222.701 358.952C222.701 358.952 225.156 357.31 226.481 360.272C227.805 363.234 224.743 366.769 227.383 368.78C230.024 370.791 231.878 371.528 230.04 374.482C228.203 377.437 232.394 379.937 234.297 378.954C234.297 378.954 233.19 379.07 233.086 377.308C232.982 375.546 236.75 375.844 237.142 371.143C237.534 366.441 234.172 366.825 234.713 364.665C235.254 362.506 238.104 362.46 237.161 358.632C236.474 355.84 231.808 354.62 230.214 352.987C228.62 351.353 230.447 349.909 227.613 346.954C225.727 344.986 221.707 346.261 219.943 347.741C216.877 350.313 217.994 353.368 217.994 353.368Z" fill="#263238"/>
<path d="M218.466 364.936C218.621 372.163 218.839 375.211 215.573 379.38C210.66 385.65 201.903 384.72 199.63 377.797C197.583 371.565 197.673 360.794 204.354 356.992C210.937 353.247 218.31 357.709 218.466 364.936Z" fill="#B55B52"/>
<path d="M209.83 367.962C209.87 368.568 209.591 369.1 209.209 369.152C208.826 369.203 208.484 368.754 208.445 368.148C208.406 367.542 208.684 367.009 209.066 366.957C209.45 366.906 209.791 367.355 209.83 367.962Z" fill="#263238"/>
<path d="M202.354 368.735C202.393 369.341 202.115 369.874 201.732 369.926C201.349 369.977 201.007 369.528 200.969 368.921C200.929 368.315 201.208 367.783 201.59 367.731C201.973 367.68 202.314 368.129 202.354 368.735Z" fill="#263238"/>
<path d="M201.761 367.742L200.328 367.511C200.328 367.511 201.124 368.551 201.761 367.742Z" fill="#263238"/>
<path d="M204.711 369.761C204.711 369.761 203.887 372.503 202.875 373.908C203.696 374.551 204.987 374.033 204.987 374.033L204.711 369.761Z" fill="#A02724"/>
<path d="M207.949 362.614C208.041 362.611 208.132 362.645 208.198 362.715C209.229 363.821 210.501 363.553 210.516 363.549C210.704 363.509 210.883 363.627 210.912 363.819C210.94 364.01 210.808 364.199 210.617 364.242C210.551 364.257 208.954 364.595 207.675 363.223C207.547 363.087 207.562 362.862 207.705 362.722C207.775 362.653 207.862 362.618 207.949 362.614Z" fill="#263238"/>
<path d="M201.176 362.629C201.261 362.604 201.351 362.61 201.43 362.655C201.593 362.746 201.644 362.963 201.545 363.137C200.549 364.89 198.953 365.069 198.885 365.075C198.694 365.094 198.535 364.95 198.529 364.754C198.523 364.558 198.674 364.383 198.864 364.364C198.927 364.357 200.163 364.2 200.956 362.807C201.006 362.716 201.088 362.655 201.176 362.629Z" fill="#263238"/>
<path d="M209.238 366.97L207.805 366.739C207.805 366.739 208.599 367.779 209.238 366.97Z" fill="#263238"/>
<path d="M215.929 369.77C215.929 369.77 211.354 365.692 212.135 357.798C212.135 357.798 203.61 355.981 199.229 363.038C199.229 363.038 202.276 352.303 214.593 354.053C226.911 355.803 221.11 368.643 219.943 369.88C218.776 371.118 215.929 369.77 215.929 369.77Z" fill="#263238"/>
<path d="M221.29 370.521C220.611 372.084 219.343 373.161 218.12 373.619C216.28 374.309 215.265 372.53 215.696 370.56C216.084 368.787 217.51 366.291 219.395 366.454C221.25 366.615 222.065 368.735 221.29 370.521Z" fill="#B55B52"/>
<path d="M210.882 375.703C210.867 376.463 209.978 377.695 207.667 378.858C207.667 378.858 207.332 378.425 206.778 377.954C206.321 377.551 205.721 377.132 205.029 376.881C205.029 376.881 205.212 376.783 205.508 376.622C206.458 376.136 208.617 375.072 209.827 374.927C210.215 374.882 210.511 374.965 210.693 375.163C210.822 375.292 210.891 375.483 210.882 375.703Z" fill="#263238"/>
<path d="M210.882 375.703C210.867 376.463 209.977 377.695 207.667 378.858C207.667 378.858 207.332 378.425 206.777 377.954C207.605 377.041 208.959 375.968 210.882 375.703Z" fill="#DE5753"/>
<path d="M210.695 375.164C209.43 375.704 205.668 376.791 205.668 376.791L205.51 376.624C206.46 376.137 208.619 375.073 209.829 374.929C210.216 374.882 210.512 374.965 210.695 375.164Z" fill="white"/>
</g>
<defs>
<clipPath id="clip0_2931_17945">
<rect width="520" height="520" fill="white"/>
</clipPath>
</defs>
</svg>
