<svg width="102" height="100" viewBox="0 0 102 100" fill="none" xmlns="http://www.w3.org/2000/svg">
<path opacity="0.3" d="M87.4041 84.5422C85.3933 86.659 83.4908 88.0242 81.9876 89.1028C64.318 101.781 43.4102 98.0853 38.9667 97.1827C32.405 95.8501 19.7215 93.274 10.5515 82.4902C-3.32189 66.1754 -1.16159 40.4719 9.59955 23.5046C11.5679 20.401 21.9655 3.17525 43.0985 0.412787C55.8879 -1.25901 70.7964 2.11282 81.5926 11.1579C104.255 30.1445 102.642 68.5006 87.4041 84.5422Z" fill="url(#paint0_linear_2922_17099)"/>
<path d="M28.7975 6.42245C28.7553 6.42536 28.7125 6.40793 28.6846 6.37198C28.5791 6.23573 28.4691 6.10054 28.3576 5.97011C28.3106 5.91506 28.317 5.83233 28.3722 5.78527C28.4272 5.73835 28.51 5.74481 28.5571 5.79972C28.6712 5.93331 28.784 6.07177 28.8921 6.21133C28.9364 6.26862 28.9259 6.35099 28.8687 6.39539C28.8473 6.41183 28.8226 6.42075 28.7975 6.42245Z" fill="#EAC4F9"/>
<path d="M20.8371 24.2013C20.6391 24.2174 20.4343 24.2238 20.2347 24.2269C20.1622 24.228 20.1026 24.1702 20.1016 24.0977C20.1005 24.0253 20.159 23.9674 20.2307 23.9645C20.4256 23.9617 20.6268 23.9522 20.819 23.9396C20.9614 23.9297 21.1067 23.9166 21.251 23.9007C21.324 23.8874 21.3878 23.9447 21.3958 24.0167C21.4038 24.0887 21.3518 24.1535 21.2798 24.1614C21.1319 24.1779 20.983 24.1912 20.8371 24.2013ZM22.9256 23.8504C22.8643 23.8546 22.8066 23.8151 22.79 23.7536C22.7713 23.6836 22.8127 23.6117 22.8826 23.5928C23.2005 23.5075 23.5193 23.4061 23.8301 23.2919L23.8571 23.2819C23.9249 23.2569 24.0004 23.2918 24.0255 23.3597C24.0505 23.4276 24.0157 23.5031 23.9477 23.5281L23.9206 23.538C23.6024 23.6551 23.2761 23.7588 22.9507 23.8462C22.9424 23.8485 22.9339 23.8498 22.9256 23.8504ZM25.4382 22.8349C25.3891 22.8383 25.34 22.8137 25.3145 22.7677C25.2793 22.7044 25.3022 22.6244 25.3655 22.5894C25.6633 22.4241 25.9558 22.2433 26.2351 22.052C26.2948 22.0113 26.3766 22.0263 26.4174 22.0862C26.4584 22.1459 26.4431 22.2275 26.3833 22.2685C26.0973 22.4644 25.7976 22.6496 25.4928 22.8187C25.4754 22.8283 25.4568 22.8336 25.4382 22.8349ZM27.6272 21.2386C27.5893 21.2412 27.5506 21.2275 27.5225 21.1976C27.4729 21.1447 27.4755 21.0618 27.5283 21.0121C27.7755 20.7799 28.0148 20.5331 28.2394 20.2782C28.2872 20.224 28.3701 20.2189 28.4245 20.2666C28.4788 20.3146 28.484 20.3974 28.4361 20.4519C28.2061 20.7127 27.9611 20.9654 27.7079 21.2034C27.685 21.2249 27.6563 21.2366 27.6272 21.2386ZM29.3586 19.1549C29.3314 19.1568 29.3035 19.1502 29.2789 19.1345C29.2179 19.0953 29.2002 19.0142 29.2393 18.9532C29.4225 18.6677 29.5945 18.3699 29.7506 18.068C29.7838 18.0037 29.8629 17.9783 29.9274 18.0118C29.9917 18.0451 30.0169 18.1242 29.9836 18.1885C29.8238 18.4977 29.6477 18.8025 29.46 19.0949C29.4368 19.1312 29.3986 19.1522 29.3586 19.1549ZM30.5327 16.7123C30.5159 16.7135 30.4986 16.7115 30.4818 16.7057C30.4131 16.6826 30.3763 16.6081 30.3994 16.5395C30.5082 16.2176 30.6029 15.8868 30.681 15.5567C30.6977 15.486 30.7685 15.4427 30.8388 15.4592C30.9094 15.4759 30.9529 15.5466 30.9363 15.6171C30.8564 15.9551 30.7594 16.2938 30.648 16.6235C30.6305 16.6751 30.5839 16.7088 30.5327 16.7123ZM31.0789 14.058C31.0725 14.0584 31.0659 14.0584 31.0593 14.0579C30.9871 14.0522 30.9332 13.989 30.9389 13.9168C30.9659 13.5777 30.977 13.2338 30.972 12.8948C30.9709 12.8223 31.0288 12.7605 31.1013 12.7617C31.1737 12.7606 31.2333 12.8185 31.2343 12.8908C31.2394 13.2381 31.228 13.5903 31.2005 13.9375C31.1953 14.0031 31.1426 14.0536 31.0789 14.058ZM30.9583 11.3497C30.8918 11.3542 30.8315 11.3078 30.8201 11.2408C30.7632 10.9062 30.6897 10.5701 30.6015 10.2419C30.5828 10.1719 30.6242 10.1 30.6942 10.0812C30.7644 10.0622 30.8361 10.104 30.8549 10.1738C30.9451 10.51 31.0204 10.8541 31.0787 11.1967C31.0908 11.2682 31.0428 11.3359 30.9714 11.3481C30.9669 11.3488 30.9626 11.3494 30.9583 11.3497ZM30.181 8.75279C30.1272 8.75648 30.0746 8.72675 30.0518 8.67454C29.9151 8.36239 29.7626 8.05412 29.5986 7.7581C29.5636 7.6948 29.5864 7.61499 29.6498 7.57982C29.713 7.54502 29.793 7.5675 29.8281 7.63108C29.996 7.93402 30.1521 8.24972 30.2921 8.5694C30.3211 8.63568 30.2909 8.713 30.2245 8.74213C30.2103 8.74831 30.1956 8.75176 30.181 8.75279Z" fill="#EAC4F9"/>
<path d="M18.5581 24.1233C18.5492 24.1239 18.5401 24.1237 18.5308 24.1224C18.3569 24.0981 18.1809 24.0693 18.0074 24.0367C17.9362 24.0234 17.8893 23.9548 17.9027 23.8836C17.916 23.8123 17.9845 23.7647 18.0558 23.7789C18.2252 23.8107 18.3973 23.8389 18.5672 23.8626C18.6389 23.8727 18.6889 23.9389 18.6789 24.0106C18.6702 24.0731 18.6187 24.1192 18.5581 24.1233Z" fill="#EAC4F9"/>
<path d="M11.1036 19.6252C11.0597 19.6282 11.0154 19.6092 10.9878 19.5707C10.886 19.4287 10.7856 19.2812 10.689 19.1321C10.6497 19.0713 10.6671 18.9901 10.7279 18.9507C10.7889 18.9114 10.8699 18.9289 10.9093 18.9896C11.0035 19.1352 11.1016 19.2793 11.2011 19.4179C11.2433 19.4767 11.2297 19.5587 11.1709 19.6009C11.1504 19.6156 11.127 19.6235 11.1036 19.6252Z" fill="#EAC4F9"/>
<path d="M10.0174 17.7396C9.96422 17.7433 9.91201 17.7142 9.88882 17.6628C9.77846 17.4182 9.67538 17.1663 9.58253 16.9141C9.55699 16.8446 9.53224 16.7752 9.50812 16.7057C9.48439 16.6373 9.52069 16.5626 9.5891 16.5389C9.65794 16.5149 9.73228 16.5515 9.75601 16.6198C9.77952 16.6877 9.80378 16.7557 9.82868 16.8235C9.91936 17.0698 10.0201 17.3159 10.1279 17.5549C10.1577 17.6208 10.1283 17.6986 10.0623 17.7283C10.0477 17.735 10.0325 17.7386 10.0174 17.7396ZM9.21771 15.1955C9.15214 15.2 9.09222 15.1548 9.07996 15.0887C9.01734 14.7523 8.96975 14.409 8.9386 14.0682C8.93196 13.9961 8.98506 13.9322 9.0572 13.9256C9.12678 13.9201 9.19324 13.972 9.19974 14.0442C9.23021 14.3771 9.27667 14.7123 9.3378 15.0406C9.35105 15.1119 9.30413 15.1803 9.23288 15.1936C9.2278 15.1946 9.22275 15.1952 9.21771 15.1955ZM9.05247 12.5334C9.04686 12.5338 9.04114 12.5338 9.03542 12.5336C8.96311 12.5292 8.90802 12.467 8.91235 12.3947C8.93281 12.0532 8.96954 11.7085 9.02157 11.3704C9.03255 11.2988 9.09996 11.2498 9.17114 11.2607C9.24272 11.2717 9.29187 11.3386 9.28086 11.4103C9.23007 11.7404 9.1942 12.0768 9.1742 12.4105C9.17019 12.477 9.11726 12.5289 9.05247 12.5334ZM9.53305 9.91044C9.51721 9.91154 9.50098 9.90984 9.48496 9.90476C9.4158 9.8832 9.37723 9.80974 9.39879 9.74059C9.50062 9.41388 9.61887 9.0882 9.75018 8.77243C9.77792 8.70555 9.85454 8.67355 9.92164 8.70168C9.98852 8.72942 10.0202 8.80617 9.99232 8.87306C9.8641 9.18144 9.74869 9.49959 9.64927 9.81855C9.63265 9.87173 9.58537 9.90682 9.53305 9.91044ZM10.6266 7.47856C10.6006 7.48034 10.5739 7.47448 10.5499 7.45998C10.4879 7.42255 10.4679 7.34202 10.5054 7.27997C10.6819 6.9874 10.8743 6.69937 11.0774 6.4237C11.1203 6.36552 11.2024 6.35295 11.2607 6.39589C11.3191 6.43883 11.3315 6.52095 11.2885 6.57935C11.0903 6.84852 10.9023 7.12983 10.7299 7.41544C10.707 7.45348 10.6678 7.47572 10.6266 7.47856ZM12.2694 5.37886C12.2329 5.38138 12.1955 5.3687 12.1676 5.34082C12.1164 5.28953 12.1164 5.20645 12.1676 5.1553C12.409 4.9137 12.6649 4.68037 12.9283 4.46164C12.9841 4.41543 13.0667 4.42306 13.113 4.47879C13.1592 4.53442 13.1516 4.61711 13.0958 4.66342C12.8387 4.87697 12.5888 5.1049 12.353 5.34071C12.3297 5.36405 12.2998 5.37676 12.2694 5.37886ZM14.369 3.73658C14.3214 3.73985 14.2737 3.71708 14.2475 3.67332C14.2102 3.61134 14.2302 3.53071 14.2922 3.4933C14.5851 3.31695 14.8899 3.15225 15.1981 3.00349C15.2635 2.97188 15.3417 2.99948 15.3732 3.06469C15.4047 3.1299 15.3773 3.20833 15.3121 3.2398C15.0112 3.38497 14.7135 3.54587 14.4275 3.71811C14.4091 3.72915 14.3891 3.73519 14.369 3.73658ZM16.802 2.64616C16.7428 2.65025 16.6863 2.61345 16.6679 2.55427C16.6463 2.48512 16.685 2.41159 16.7542 2.39014C17.0809 2.28838 17.4162 2.20064 17.7507 2.12928C17.821 2.11468 17.8912 2.15937 17.9063 2.23023C17.9214 2.30109 17.8762 2.37071 17.8054 2.38588C17.4788 2.45553 17.1512 2.54117 16.8321 2.64052C16.8221 2.64361 16.812 2.64545 16.802 2.64616ZM20.4434 2.15404C20.4389 2.15436 20.4344 2.1544 20.4298 2.15432C20.0954 2.14289 19.757 2.14711 19.4241 2.1669C19.3518 2.17113 19.2897 2.1161 19.2854 2.04372C19.2811 1.97186 19.3356 1.91006 19.4073 1.90512C19.4077 1.90508 19.4081 1.90505 19.4086 1.90501C19.7497 1.8848 20.0963 1.8805 20.4387 1.89205C20.5111 1.89461 20.5678 1.95527 20.5653 2.02763C20.563 2.09547 20.5097 2.14946 20.4434 2.15404Z" fill="#EAC4F9"/>
<path d="M22.6062 2.44409C22.5933 2.44498 22.5801 2.44395 22.5668 2.44089C22.4001 2.40129 22.2296 2.36516 22.0602 2.33348C21.989 2.32016 21.942 2.25164 21.9554 2.1805C21.9686 2.10935 22.0372 2.06161 22.1084 2.07571C22.282 2.10814 22.4566 2.14512 22.6274 2.18561C22.6979 2.20231 22.7414 2.27299 22.7247 2.34346C22.7111 2.40075 22.662 2.44022 22.6062 2.44409Z" fill="#EAC4F9"/>
<path d="M23.0342 5.11532C22.9837 5.09 22.9226 5.09952 22.8822 5.13902L21.7292 6.26609C20.9969 6.09101 20.2313 6.03148 19.4596 6.1016L18.4809 4.82154C18.4466 4.77661 18.3876 4.7585 18.3339 4.77629L16.4985 5.38591C16.4449 5.40374 16.4085 5.45365 16.4078 5.51009L16.3895 7.12133C15.7292 7.52689 15.1514 8.03258 14.6693 8.61101L13.0711 8.39779C13.0151 8.39033 12.9605 8.41921 12.9352 8.46972L12.0685 10.1986C12.0431 10.2492 12.0526 10.3102 12.0921 10.3506L13.2192 11.5036C13.0441 12.2359 12.9846 13.0014 13.0548 13.7731L11.7747 14.7518C11.7298 14.7861 11.7116 14.8452 11.7294 14.8988L12.3391 16.7342C12.3569 16.7879 12.4068 16.8243 12.4633 16.8249L14.0745 16.8433C14.4801 17.5036 14.9857 18.0813 15.5642 18.5634L15.3509 20.1616C15.3435 20.2176 15.3724 20.2722 15.4229 20.2975L17.1518 21.1643C17.2023 21.1896 17.2633 21.1801 17.3038 21.1406L18.4567 20.0135C19.1891 20.1886 19.9546 20.2481 20.7263 20.178L21.705 21.4581C21.7393 21.503 21.7983 21.5212 21.8519 21.5033L23.6874 20.8937C23.741 20.8759 23.7774 20.826 23.778 20.7695L23.7964 19.1583C24.4567 18.7527 25.0345 18.247 25.5165 17.6686L27.1147 17.8818C27.1707 17.8894 27.2253 17.8604 27.2506 17.8099L28.1174 16.081C28.1427 16.0305 28.1332 15.9695 28.0937 15.929L26.9667 14.776C27.1417 14.0437 27.2012 13.2782 27.1311 12.5064L28.4112 11.5278C28.4561 11.4935 28.4743 11.4344 28.4565 11.3808L27.8468 9.54539C27.829 9.49176 27.7791 9.45532 27.7227 9.45464L26.1115 9.43631C25.7059 8.77604 25.2002 8.19828 24.6218 7.71621L24.835 6.118C24.8425 6.06199 24.8136 6.0074 24.7631 5.98204L23.0342 5.11532Z" fill="url(#paint1_linear_2922_17099)"/>
<path opacity="0.57" d="M20.2269 15.0494C20.0458 15.0619 19.8617 15.0484 19.6795 15.0082C19.1803 14.8979 18.7539 14.5998 18.479 14.1688C18.2039 13.7378 18.1132 13.2255 18.2235 12.7263C18.3338 12.2271 18.6318 11.8008 19.0628 11.5257C19.4938 11.2507 20.0062 11.1601 20.5053 11.2703C21.0046 11.3806 21.4309 11.6787 21.7059 12.1097C21.981 12.5407 22.0717 13.053 21.9614 13.5522C21.8511 14.0514 21.553 14.4777 21.122 14.7528C20.8484 14.9274 20.5419 15.0277 20.2269 15.0494ZM19.9856 11.6217C19.7353 11.639 19.4919 11.7187 19.2745 11.8575C18.5677 12.3084 18.3597 13.2504 18.8106 13.9572C19.0291 14.2995 19.3678 14.5364 19.7644 14.6241C20.1611 14.7117 20.5681 14.6397 20.9104 14.4211C21.2528 14.2027 21.4896 13.8639 21.5772 13.4673C21.6648 13.0707 21.5928 12.6637 21.3743 12.3214C21.1558 11.979 20.817 11.7422 20.4204 11.6545C20.2757 11.6225 20.1295 11.6118 19.9856 11.6217Z" fill="white"/>
<path opacity="0.57" d="M20.4055 18.0325C19.5482 18.0917 18.6875 17.921 17.8991 17.5257C16.7379 16.9435 15.8728 15.9439 15.4633 14.7112C15.3317 14.3151 15.2523 13.9101 15.2243 13.5044C15.1652 12.6473 15.336 11.7867 15.7311 10.9985C16.3133 9.83724 17.3129 8.97213 18.5458 8.56259C18.578 8.552 18.6102 8.54156 18.6426 8.53165C18.9086 8.44935 19.181 8.38985 19.4547 8.35412C19.4889 8.34958 19.5231 8.34556 19.5573 8.3418L19.5998 8.73301C19.2858 8.76714 18.9729 8.83548 18.6698 8.93611C17.597 9.29237 16.7164 10.0241 16.1716 11.0068C16.141 11.062 16.1114 11.1181 16.0829 11.1749C15.7197 11.8993 15.5628 12.6902 15.6171 13.478C15.6428 13.8509 15.7159 14.2231 15.8368 14.5871C16.2131 15.7201 17.0082 16.6389 18.0756 17.1739C19.1429 17.7092 20.3548 17.7965 21.4879 17.4201C23.4626 16.7642 24.676 14.8552 24.5386 12.869C24.5133 12.5026 24.4419 12.1335 24.3209 11.7691C24.0655 11.0002 23.6074 10.316 22.9963 9.7906L23.2528 9.49224C23.918 10.064 24.4164 10.8085 24.6943 11.645C24.826 12.0415 24.9036 12.443 24.9312 12.8418C25.0807 15.0028 23.7605 17.0799 21.6119 17.7936C21.2159 17.9251 20.8111 18.0045 20.4055 18.0325Z" fill="white"/>
<path d="M16.9383 23.1422C16.8842 23.1459 16.8295 23.1223 16.796 23.0746C16.6758 22.9042 16.5464 22.7378 16.4115 22.5799C16.354 22.5126 16.3619 22.4114 16.4293 22.3538C16.4966 22.2964 16.5978 22.3043 16.6554 22.3715C16.7968 22.5368 16.9323 22.7113 17.0582 22.8898C17.1093 22.9623 17.0919 23.0622 17.0195 23.1134C16.9946 23.1308 16.9665 23.1403 16.9383 23.1422Z" fill="#EAC4F9"/>
<path d="M12.7396 33.919C12.6615 33.9244 12.5893 33.8719 12.5721 33.7932C12.5532 33.7066 12.608 33.6211 12.6946 33.6023C12.9987 33.5359 13.3026 33.4472 13.5978 33.3385C13.702 33.3002 13.8045 33.2595 13.9056 33.2169C13.9872 33.1822 14.0813 33.2205 14.1158 33.3021C14.1504 33.3837 14.1122 33.4777 14.0306 33.5122C13.9249 33.5571 13.8176 33.5993 13.7086 33.6395C13.3996 33.7533 13.0814 33.8463 12.763 33.9157C12.7552 33.9175 12.7473 33.9185 12.7396 33.919ZM15.7726 32.4174C15.7236 32.4207 15.6737 32.4017 15.6395 32.3616C15.5819 32.2941 15.5899 32.1929 15.6573 32.1353C15.9787 31.861 16.276 31.5542 16.5409 31.2236C16.5963 31.1545 16.6971 31.1433 16.7665 31.1988C16.8356 31.2542 16.8467 31.3551 16.7913 31.4243C16.5138 31.7705 16.2024 32.0918 15.8656 32.3794C15.8384 32.4026 15.8057 32.4151 15.7726 32.4174ZM17.7311 29.6584C17.7083 29.66 17.6847 29.6567 17.6619 29.6478C17.5793 29.6156 17.5385 29.5227 17.5707 29.4401C17.7247 29.0452 17.8421 28.6342 17.9197 28.2184C17.936 28.1314 18.0193 28.0735 18.1069 28.0902C18.194 28.1065 18.2513 28.1902 18.2352 28.2773C18.1538 28.7127 18.0308 29.1431 17.8696 29.5566C17.8463 29.6164 17.7911 29.6542 17.7311 29.6584ZM18.1543 26.3008C18.0698 26.3067 17.9946 26.2454 17.9842 26.1604C17.9326 25.7414 17.8408 25.324 17.7112 24.9197C17.6842 24.8352 17.7307 24.745 17.815 24.7179C17.8991 24.6902 17.9897 24.7373 18.0167 24.8216C18.1524 25.2452 18.2485 25.6824 18.3026 26.1212C18.3134 26.2091 18.2509 26.2892 18.163 26.3001C18.1601 26.3004 18.1572 26.3007 18.1543 26.3008Z" fill="#EAC4F9"/>
<path d="M10.6289 34.0474C10.6203 34.048 10.6116 34.048 10.6027 34.0472C10.3853 34.0268 10.1668 33.9961 9.953 33.9557C9.86591 33.9393 9.80869 33.8555 9.82506 33.7683C9.84151 33.6814 9.92533 33.6243 10.0124 33.6404C10.2165 33.679 10.4251 33.7083 10.6326 33.7276C10.7208 33.736 10.7857 33.8141 10.7774 33.9023C10.77 33.9816 10.7059 34.0421 10.6289 34.0474Z" fill="#EAC4F9"/>
<path d="M5.63586 31.185C5.58219 31.1887 5.52798 31.1654 5.49427 31.1185C5.36768 30.9417 5.24748 30.7564 5.13716 30.5675C5.09248 30.4911 5.11827 30.3928 5.19474 30.3481C5.27118 30.3034 5.36946 30.3293 5.41414 30.4058C5.51946 30.586 5.63418 30.7629 5.75506 30.9315C5.80667 31.0035 5.79012 31.1037 5.71815 31.1553C5.69308 31.1733 5.66456 31.183 5.63586 31.185Z" fill="#EAC4F9"/>
<path d="M4.51738 28.72C4.44034 28.7254 4.36859 28.6743 4.35037 28.5967C4.26324 28.2262 4.20574 27.8459 4.17952 27.4665C4.17569 27.411 4.17249 27.3555 4.17007 27.3001C4.16617 27.2116 4.23767 27.1417 4.32316 27.1326C4.41168 27.1287 4.48659 27.1974 4.49053 27.2858C4.49291 27.3387 4.49593 27.3914 4.49959 27.4444C4.52459 27.8067 4.57951 28.1696 4.66262 28.5233C4.68294 28.6095 4.62945 28.6959 4.54317 28.7162C4.53461 28.7182 4.52587 28.7194 4.51738 28.72ZM4.55979 25.3916C4.54285 25.3928 4.52545 25.3913 4.50811 25.3867C4.4224 25.3643 4.37112 25.2766 4.39356 25.1909C4.50382 24.7696 4.65389 24.356 4.8394 23.9613C4.87716 23.8813 4.9726 23.8469 5.05284 23.8846C5.13301 23.9222 5.16746 24.0178 5.12974 24.098C4.95246 24.4747 4.80925 24.8699 4.70397 25.2722C4.68603 25.3405 4.62661 25.387 4.55979 25.3916ZM6.14699 22.4661C6.10489 22.469 6.06163 22.4553 6.02792 22.4246C5.96239 22.3649 5.95767 22.2635 6.01737 22.198C6.31077 21.876 6.63602 21.5793 6.98422 21.3165C7.0549 21.2633 7.15549 21.2774 7.20888 21.3479C7.26219 21.4187 7.2482 21.5192 7.17744 21.5726C6.84509 21.8235 6.53457 22.1066 6.2545 22.414C6.22559 22.4459 6.18677 22.4633 6.14699 22.4661ZM8.91513 20.6189C8.84544 20.6237 8.7782 20.5823 8.75327 20.5134C8.72318 20.43 8.76637 20.338 8.8497 20.3079C9.26134 20.1592 9.68722 20.0482 10.1155 19.9778C10.2043 19.9595 10.2854 20.0224 10.2999 20.11C10.3142 20.1974 10.2551 20.2798 10.1677 20.2942C9.75865 20.3615 9.35191 20.4676 8.95864 20.6097C8.94433 20.615 8.92966 20.6179 8.91513 20.6189Z" fill="#EAC4F9"/>
<path d="M12.8603 20.3913C12.8445 20.3924 12.8284 20.3911 12.8122 20.3874C12.6097 20.3394 12.4026 20.3003 12.1967 20.2715C12.109 20.2592 12.0478 20.178 12.0602 20.0903C12.0725 20.0026 12.1533 19.9413 12.2414 19.9538C12.457 19.9841 12.674 20.0249 12.8862 20.0752C12.9724 20.0956 13.0257 20.1821 13.0052 20.2683C12.9886 20.3383 12.9284 20.3866 12.8603 20.3913Z" fill="#EAC4F9"/>
<path d="M13.1259 21.9917C13.0942 21.9758 13.0558 21.9817 13.0304 22.0065L12.3061 22.7146C11.846 22.6046 11.3651 22.5672 10.8802 22.6113L10.2654 21.8071C10.2438 21.7789 10.2067 21.7675 10.173 21.7787L9.01996 22.1616C8.98625 22.1729 8.96338 22.2042 8.96299 22.2397L8.95148 23.2519C8.53664 23.5067 8.17367 23.8244 7.87083 24.1878L6.86677 24.0538C6.83157 24.0491 6.79729 24.0673 6.78137 24.099L6.23682 25.1852C6.22091 25.2169 6.22688 25.2553 6.25171 25.2806L6.95975 26.005C6.84979 26.4651 6.81238 26.946 6.85643 27.4309L6.05223 28.0457C6.02399 28.0673 6.01259 28.1043 6.02378 28.138L6.40679 29.2911C6.41794 29.3249 6.4493 29.3477 6.48482 29.3481L7.49702 29.3596C7.75184 29.7745 8.06949 30.1374 8.43293 30.4403L8.29895 31.4443C8.29426 31.4795 8.31244 31.5139 8.34413 31.5297L9.43028 32.0743C9.46204 32.0902 9.50036 32.0842 9.52576 32.0594L10.2501 31.3514C10.7102 31.4613 11.1912 31.4987 11.676 31.4547L12.2908 32.2589C12.3124 32.287 12.3495 32.2985 12.3832 32.2873L13.5363 31.9043C13.5699 31.8931 13.5929 31.8617 13.5932 31.8263L13.6048 30.814C14.0196 30.5592 14.3826 30.2415 14.6854 29.8781L15.6894 30.0121C15.7246 30.0169 15.7589 29.9987 15.7748 29.9669L16.3194 28.8808C16.3353 28.849 16.3293 28.8107 16.3045 28.7853L15.5965 28.0609C15.7064 27.6008 15.7438 27.1199 15.6998 26.6351L16.504 26.0202C16.5322 25.9987 16.5436 25.9616 16.5324 25.9279L16.1494 24.7748C16.1382 24.7411 16.1069 24.7183 16.0714 24.7178L15.0591 24.7063C14.8043 24.2915 14.4866 23.9285 14.1232 23.6256L14.2572 22.6216C14.2619 22.5864 14.2437 22.5521 14.212 22.5361L13.1259 21.9917Z" fill="url(#paint2_linear_2922_17099)"/>
<path opacity="0.57" d="M11.3712 28.3489C10.9044 28.3811 10.4346 28.164 10.1658 27.7428C9.77441 27.1294 9.95503 26.3121 10.5682 25.9206H10.5683C11.1816 25.5293 11.9991 25.71 12.3904 26.3231C12.7817 26.9365 12.6011 27.7538 11.9879 28.1453C11.7958 28.2677 11.5838 28.3342 11.3712 28.3489ZM10.8272 26.3263C10.4375 26.5749 10.3228 27.0943 10.5714 27.484C10.8201 27.8735 11.3393 27.9884 11.729 27.7396C12.1186 27.491 12.2333 26.9717 11.9847 26.582C11.7361 26.1926 11.2169 26.0776 10.8272 26.3263Z" fill="white"/>
<path opacity="0.57" d="M11.4809 30.2236C10.9217 30.2623 10.3603 30.1508 9.846 29.893C9.08848 29.5132 8.52421 28.8613 8.25711 28.0571C8.17129 27.7988 8.11943 27.5346 8.10118 27.2699C8.06267 26.7109 8.17403 26.1496 8.43183 25.6354C8.81157 24.8778 9.46367 24.3135 10.2678 24.0463C10.4826 23.975 10.7045 23.9265 10.9276 23.9023L10.9794 24.3808C10.7904 24.4012 10.602 24.4424 10.4195 24.503C9.76701 24.7199 9.23262 25.1672 8.90541 25.7679C8.90054 25.7769 8.89568 25.7858 8.89088 25.795C8.88101 25.8135 8.87138 25.8321 8.86194 25.851C8.64331 26.2872 8.54876 26.7634 8.58151 27.2377C8.59692 27.4621 8.64097 27.6862 8.71375 27.9053C8.9404 28.5876 9.4191 29.1407 10.0617 29.4628C10.7044 29.7852 11.434 29.8382 12.1161 29.611C12.7983 29.3844 13.3514 28.9058 13.6736 28.2632C13.8922 27.827 13.9868 27.3508 13.9541 26.8765C13.9386 26.6521 13.8946 26.4279 13.8218 26.2089C13.6679 25.7458 13.3923 25.3338 13.0245 25.0177L13.3381 24.6528C13.772 25.0257 14.0971 25.5112 14.2785 26.0571C14.3643 26.3154 14.4161 26.5796 14.4344 26.8443C14.4729 27.4033 14.3616 27.9646 14.1038 28.4787C13.724 29.2363 13.072 29.8006 12.2678 30.0678C12.0096 30.1535 11.7454 30.2053 11.4809 30.2236Z" fill="white"/>
<path d="M44.7344 66.1488C44.8431 66.1672 44.952 66.1853 45.0612 66.2026C61.5636 68.8121 77.0801 57.4031 79.7181 40.72L49.5106 35.9434L44.7344 66.1488Z" fill="url(#paint3_linear_2922_17099)"/>
<path d="M49.6501 35.9062L29.3477 58.7833C33.4726 62.4511 38.6405 65.0475 44.4813 66.0491C44.6653 66.0806 44.8491 66.1098 45.0328 66.138L49.6501 35.9062Z" fill="url(#paint4_linear_2922_17099)"/>
<path d="M49.51 35.9423L19.5476 29.8164C19.5092 30.0044 19.4719 30.1928 19.4369 30.3822C17.4177 41.3037 21.472 51.9416 29.2076 58.8197L49.51 35.9423Z" fill="url(#paint5_linear_2922_17099)"/>
<path d="M53.2429 33.4271L82.8991 39.1802C85.5835 25.3425 78.4809 11.877 66.42 5.92969L53.1278 33.1965C53.0811 33.2926 53.1381 33.4068 53.2429 33.4271Z" fill="url(#paint6_linear_2922_17099)"/>
<path d="M49.6215 36.009L62.3036 8.23488C59.8865 7.08525 57.726 6.44473 54.9636 5.95232C42.0766 3.65527 29.6393 9.79298 23.3145 20.4109L49.6215 36.009Z" fill="url(#paint7_linear_2922_17099)"/>
<path d="M23.3288 20.1387C21.5569 23.0576 20.2492 26.3226 19.5254 29.8507L49.4814 36.0081L23.3288 20.1387Z" fill="url(#paint8_linear_2922_17099)"/>
<path d="M28.5683 15.6366C28.5062 15.6366 28.4441 15.6129 28.3969 15.5655C28.3024 15.4708 28.3026 15.3175 28.3973 15.2231C31.637 11.9918 35.6377 9.51865 39.9668 8.07087C44.4402 6.57496 49.2841 6.17636 53.9749 6.91787C54.3942 6.98419 54.8173 7.06034 55.2326 7.14417C55.3636 7.17066 55.4484 7.29832 55.4219 7.42946C55.3955 7.56038 55.2681 7.64492 55.1367 7.61885C54.7282 7.53637 54.3119 7.4615 53.8992 7.39621C49.2849 6.66664 44.5203 7.05867 40.1203 8.53014C35.8618 9.95437 31.9263 12.3873 28.7393 15.566C28.692 15.6131 28.6301 15.6366 28.5683 15.6366Z" fill="white"/>
<path d="M29.1045 57.758C29.0447 57.758 28.9846 57.7359 28.9378 57.6914C22.9277 51.9767 19.5627 43.9673 19.7055 35.7167C19.7078 35.583 19.8179 35.4715 19.9518 35.4789C20.0855 35.4812 20.192 35.5914 20.1897 35.7251C20.0492 43.8405 23.3594 51.719 29.2714 57.3405C29.3683 57.4326 29.3722 57.5858 29.28 57.6827C29.2324 57.7328 29.1686 57.758 29.1045 57.758Z" fill="white"/>
<path d="M56.6502 64.9175C56.5423 64.9175 56.4439 64.8449 56.4159 64.7356C56.3826 64.6061 56.4606 64.474 56.5901 64.4408C62.4487 62.935 67.6243 59.6992 71.5575 55.0831C71.6441 54.9814 71.7968 54.9691 71.8988 55.0559C72.0006 55.1426 72.0128 55.2955 71.9261 55.3973C67.9278 60.0896 62.6664 63.379 56.7107 64.9098C56.6904 64.915 56.6702 64.9175 56.6502 64.9175Z" fill="white"/>
<path d="M60.3397 21.646C60.3036 21.646 60.267 21.6379 60.2324 21.6208C60.1126 21.5615 60.0635 21.4163 60.1228 21.2964L67.0472 7.30371L67.2731 7.44192C69.5493 8.83464 71.6466 10.4387 73.8732 12.49C73.9716 12.5806 73.9779 12.7338 73.8873 12.8321C73.7966 12.9305 73.6434 12.9368 73.5451 12.8462C71.4161 10.8848 69.4082 9.33763 67.2459 7.99403L60.5568 21.5112C60.5147 21.5965 60.4288 21.646 60.3397 21.646Z" fill="white"/>
<path d="M70.6344 35.6788C70.6196 35.6788 70.6047 35.6774 70.5896 35.6746L54.9729 32.7568C54.8592 32.7356 54.7644 32.6641 54.7128 32.5608C54.6611 32.4573 54.6609 32.3386 54.712 32.235L56.1214 29.3886C56.1807 29.2687 56.3261 29.2199 56.4458 29.279C56.5656 29.3384 56.6147 29.4836 56.5554 29.6034L55.2155 32.3096L70.6785 35.1987C70.81 35.2232 70.8966 35.3497 70.8721 35.4811C70.8504 35.5975 70.7487 35.6788 70.6344 35.6788Z" fill="white"/>
<path d="M64.9199 89.7712L83.4173 54.3341H79.6275C78.9287 54.3341 78.5444 53.5216 78.9876 52.9814L98.7021 28.9534C99.5565 27.912 101.244 28.5725 101.165 29.9172L99.7793 53.4137C99.6999 54.7587 98.5073 55.7612 97.1686 55.608L94.5263 55.3056L76.1732 95.0519C75.6954 96.0866 74.6597 96.7491 73.5201 96.7491H67.1591L64.9199 89.7712Z" fill="url(#paint9_linear_2922_17099)"/>
<path d="M49.627 64.917L62.6857 93.9254C63.4592 95.6436 65.1683 96.7485 67.0526 96.7485H73.7846C74.6779 96.7485 75.5008 96.2639 75.9341 95.4828L76.1735 95.0512C75.4502 95.0512 74.7879 94.6457 74.4591 94.0015L57.0598 59.9102L49.627 64.917Z" fill="url(#paint10_linear_2922_17099)"/>
<path d="M58.8163 63.3541C57.5068 62.32 55.5935 62.624 54.669 64.013L35.4689 92.8597C33.9312 95.1701 31.3398 96.5582 28.5644 96.5582H25.8628L23.6641 90.2244C23.6641 90.2244 41.5135 62.8556 46.1141 58.7155C46.1141 58.7155 50.6956 54.5862 55.2129 57.7082C56.4064 58.533 57.3125 59.7102 57.8659 61.0512L58.8163 63.3541Z" fill="url(#paint11_linear_2922_17099)"/>
<path d="M2.78125 73.1901C2.78125 73.1901 5.9952 69.1728 12.2232 68.5479C12.2232 68.5479 15.1812 69.5556 21.0741 80.1151C26.9671 90.6746 30.8787 95.49 35.4688 92.8599L35.0888 93.4908C33.8365 95.5702 31.5864 96.8417 29.159 96.8417H26.6204C23.8254 96.8417 21.3981 92.5365 19.7659 90.2676C15.1794 83.8917 5.59869 74.1799 2.78125 73.1901Z" fill="url(#paint12_linear_2922_17099)"/>
<path d="M98.9396 37.3445C98.9328 37.3445 98.9259 37.3442 98.9189 37.3434C98.8193 37.3321 98.7477 37.2422 98.759 37.1425L98.889 35.9952C98.9002 35.8956 98.9903 35.8233 99.0899 35.8353C99.1895 35.8466 99.2611 35.9365 99.2498 36.0361L99.1198 37.1834C99.1094 37.2761 99.0308 37.3445 98.9396 37.3445Z" fill="white"/>
<path d="M82.4823 51.8277C82.4436 51.8277 82.4047 51.8154 82.3716 51.79C82.2922 51.7288 82.2773 51.6148 82.3384 51.5353L98.6178 30.3827C98.8095 30.1337 99.1214 30.0488 99.413 30.1666C99.7044 30.2845 99.8699 30.5625 99.8345 30.8748L99.5472 33.4103C99.536 33.51 99.4455 33.5817 99.3463 33.5703C99.2467 33.559 99.1751 33.4691 99.1864 33.3694L99.4737 30.8339C99.4937 30.6569 99.3851 30.5471 99.2768 30.5033C99.1688 30.4596 99.0142 30.4631 98.9056 30.6041L82.6263 51.7568C82.5905 51.8033 82.5367 51.8277 82.4823 51.8277Z" fill="white"/>
<path d="M45.5506 74.0024C45.5156 74.0024 45.4803 73.9923 45.4492 73.9713C45.366 73.9152 45.3442 73.8023 45.4002 73.7192L53.8195 61.2394C54.1213 60.7922 54.6233 60.5498 55.1605 60.5903C55.6985 60.6312 56.1575 60.9467 56.3883 61.4343C56.4312 61.525 56.3925 61.6333 56.3018 61.6762C56.2111 61.7191 56.1028 61.6803 56.06 61.5897C55.8857 61.2215 55.5392 60.9833 55.133 60.9525C54.7273 60.9214 54.3484 61.1049 54.1206 61.4426L45.7013 73.9223C45.6662 73.9744 45.6089 74.0024 45.5506 74.0024Z" fill="white"/>
<path d="M43.3631 77.2455C43.3282 77.2455 43.2929 77.2354 43.2617 77.2145C43.1785 77.1583 43.1566 77.0455 43.2127 76.9623L43.7526 76.1621C43.8088 76.0789 43.9215 76.057 44.0047 76.1131C44.0879 76.1692 44.1098 76.2821 44.0537 76.3652L43.5138 77.1654C43.4788 77.2175 43.4215 77.2455 43.3631 77.2455Z" fill="white"/>
<path d="M66.3406 26.4761C68.8565 26.4761 70.8961 24.4366 70.8961 21.9207C70.8961 19.4048 68.8565 17.3652 66.3406 17.3652C63.8247 17.3652 61.7852 19.4048 61.7852 21.9207C61.7852 24.4366 63.8247 26.4761 66.3406 26.4761Z" fill="url(#paint13_linear_2922_17099)"/>
<path d="M66.3395 26.3256C68.7718 26.3256 70.7435 24.3538 70.7435 21.9216C70.7435 19.4893 68.7718 17.5176 66.3395 17.5176C63.9073 17.5176 61.9355 19.4893 61.9355 21.9216C61.9355 24.3538 63.9073 26.3256 66.3395 26.3256Z" fill="url(#paint14_linear_2922_17099)"/>
<path d="M62.6434 20.389C62.6212 20.39 62.5983 20.3858 62.5766 20.376C62.5025 20.3423 62.4698 20.255 62.5035 20.181C63.1655 18.7234 64.5698 17.7773 66.1681 17.7116C66.4232 17.7011 66.6796 17.7136 66.9301 17.7486C67.0106 17.7599 67.0668 17.8343 67.0555 17.9148C67.0443 17.9954 66.9703 18.0522 66.8893 18.0402C66.6563 18.0078 66.4177 17.9961 66.1802 18.0059C64.6936 18.067 63.3875 18.947 62.7716 20.3027C62.7478 20.3551 62.6972 20.3868 62.6434 20.389Z" fill="white"/>
<path opacity="0.78" d="M69.075 24.6494C70.5307 23.1937 70.5307 20.8336 69.075 19.378C67.6194 17.9223 65.2593 17.9223 63.8037 19.378C62.348 20.8336 62.348 23.1937 63.8037 24.6494C65.2593 26.105 67.6194 26.105 69.075 24.6494Z" fill="white"/>
<path d="M66.1892 24.7968L66.1725 24.3916C65.7494 24.3921 65.3275 24.3095 65.0255 24.1918C64.9176 24.1498 64.8587 24.0331 64.8846 23.9203L64.972 23.5386C65.0041 23.3986 65.1517 23.3208 65.2863 23.3708C65.5858 23.4822 65.9532 23.5648 66.3451 23.5487C66.7519 23.532 67.0497 23.3816 67.0381 23.0989C67.0276 22.8438 66.7869 22.7017 66.2152 22.5733C65.3994 22.3858 64.8057 22.0579 64.7765 21.3476C64.7501 20.7063 65.1989 20.1975 66.0072 20.033L65.9905 19.6278C65.9852 19.4974 66.0865 19.3874 66.2169 19.382L66.455 19.3723C66.5854 19.3669 66.6955 19.4683 66.7008 19.5987L66.7157 19.9625C67.1072 19.9621 67.3945 20.0172 67.6236 20.0873C67.7409 20.1232 67.8093 20.2452 67.782 20.3649L67.7017 20.7178C67.6707 20.8539 67.5299 20.9335 67.3974 20.8896C67.1863 20.8195 66.889 20.7497 66.507 20.7654C66.0243 20.7852 65.8946 20.9909 65.902 21.1702C65.9111 21.3908 66.2069 21.5307 66.8423 21.698C67.7498 21.93 68.1375 22.2871 68.1649 22.9559C68.1902 23.5697 67.7577 24.14 66.8807 24.3142L66.8994 24.7677C66.9047 24.898 66.8034 25.0081 66.673 25.0134L66.4349 25.0233C66.3046 25.0285 66.1945 24.9272 66.1892 24.7968Z" fill="url(#paint15_linear_2922_17099)"/>
<path d="M77.9033 18.7597C82.0092 18.7597 85.3378 15.4311 85.3378 11.3251C85.3378 7.21917 82.0092 3.89062 77.9033 3.89062C73.7973 3.89062 70.4688 7.21917 70.4688 11.3251C70.4688 15.4311 73.7973 18.7597 77.9033 18.7597Z" fill="url(#paint16_linear_2922_17099)"/>
<path d="M77.9041 18.5123C81.8735 18.5123 85.0914 15.2944 85.0914 11.325C85.0914 7.35556 81.8735 4.1377 77.9041 4.1377C73.9347 4.1377 70.7168 7.35556 70.7168 11.325C70.7168 15.2944 73.9347 18.5123 77.9041 18.5123Z" fill="url(#paint17_linear_2922_17099)"/>
<path d="M71.8644 8.72288C71.8435 8.72374 71.8221 8.7199 71.8017 8.71059C71.7323 8.67905 71.7015 8.59718 71.7331 8.52788C72.7976 6.18448 75.0552 4.66314 77.6249 4.55754C78.035 4.54067 78.4472 4.56074 78.85 4.61732C78.9256 4.62784 78.9782 4.6976 78.9676 4.77322C78.957 4.8487 78.8874 4.90215 78.8117 4.89068C78.4253 4.83655 78.0297 4.8173 77.6362 4.83346C75.1712 4.93476 73.0056 6.39415 71.9845 8.64197C71.9622 8.69106 71.9148 8.72082 71.8644 8.72288Z" fill="white"/>
<path opacity="0.78" d="M82.3671 15.776C84.7428 13.4004 84.7427 9.5488 82.3671 7.17319C79.9915 4.79759 76.1399 4.79759 73.7643 7.17319C71.3887 9.5488 71.3887 13.4004 73.7643 15.776C76.1399 18.1516 79.9915 18.1516 82.3671 15.776Z" fill="white"/>
<path d="M77.6549 16.0173L77.6277 15.356C76.9373 15.3568 76.2488 15.2221 75.7558 15.03C75.5797 14.9614 75.4836 14.7709 75.5258 14.5868L75.6685 13.9639C75.7208 13.7354 75.9618 13.6085 76.1815 13.6902C76.6701 13.8718 77.2698 14.0067 77.9094 13.9805C78.5734 13.9532 79.0593 13.7077 79.0403 13.2463C79.0232 12.8299 78.6304 12.5981 77.6974 12.3885C76.366 12.0825 75.3971 11.5474 75.3494 10.3883C75.3064 9.34163 76.0389 8.51119 77.358 8.24284L77.3308 7.5815C77.3221 7.3687 77.4875 7.18912 77.7003 7.18038L78.0888 7.16439C78.3016 7.15566 78.4812 7.32107 78.4899 7.53387L78.5143 8.12761C79.1532 8.12694 79.622 8.21691 79.9958 8.33128C80.1874 8.38985 80.2989 8.58897 80.2544 8.78426L80.1234 9.36028C80.0728 9.58239 79.843 9.71235 79.6268 9.6406C79.2822 9.52623 78.7971 9.41239 78.1736 9.438C77.3859 9.47036 77.1742 9.80595 77.1863 10.0986C77.2011 10.4587 77.6839 10.6868 78.7209 10.9598C80.2019 11.3386 80.8346 11.9213 80.8794 13.0129C80.9206 14.0145 80.2148 14.9453 78.7837 15.2296L78.8141 15.9696C78.8228 16.1824 78.6574 16.362 78.4446 16.3707L78.056 16.3867C77.8433 16.3955 77.6637 16.2301 77.6549 16.0173Z" fill="url(#paint18_linear_2922_17099)"/>
<path d="M83.7086 35.3557C87.9336 35.3557 91.3586 31.9307 91.3586 27.7057C91.3586 23.4807 87.9336 20.0557 83.7086 20.0557C79.4836 20.0557 76.0586 23.4807 76.0586 27.7057C76.0586 31.9307 79.4836 35.3557 83.7086 35.3557Z" fill="url(#paint19_linear_2922_17099)"/>
<path d="M83.7082 35.1009C87.7927 35.1009 91.1038 31.7897 91.1038 27.7052C91.1038 23.6207 87.7927 20.3096 83.7082 20.3096C79.6236 20.3096 76.3125 23.6207 76.3125 27.7052C76.3125 31.7897 79.6236 35.1009 83.7082 35.1009Z" fill="url(#paint20_linear_2922_17099)"/>
<path d="M77.4952 25.0242C77.4743 25.025 77.4529 25.0212 77.4325 25.0119C77.3631 24.9804 77.3324 24.8985 77.364 24.8292C78.4586 22.4193 80.7803 20.8548 83.423 20.7462C83.8447 20.7288 84.2686 20.7495 84.683 20.8076C84.7586 20.8181 84.8112 20.8879 84.8006 20.9635C84.7901 21.039 84.7208 21.092 84.6447 21.081C84.2467 21.0253 83.8395 21.0054 83.4344 21.0221C80.8964 21.1264 78.6667 22.6289 77.6154 24.9433C77.5931 24.9924 77.5456 25.0221 77.4952 25.0242Z" fill="white"/>
<path opacity="0.78" d="M88.3018 32.2865C90.7462 29.842 90.7462 25.8788 88.3017 23.4343C85.8573 20.9898 81.894 20.9898 79.4495 23.4343C77.0051 25.8787 77.0051 29.842 79.4496 32.2865C81.894 34.7309 85.8573 34.731 88.3018 32.2865Z" fill="white"/>
<path d="M83.4523 32.5346L83.4243 31.8541C82.7138 31.8549 82.0053 31.7163 81.4981 31.5187C81.3169 31.4481 81.218 31.2521 81.2614 31.0626L81.4082 30.4217C81.4621 30.1866 81.71 30.056 81.9361 30.14C82.4389 30.3269 83.056 30.4658 83.7141 30.4387C84.3974 30.4107 84.8973 30.1581 84.8778 29.6833C84.8602 29.2549 84.4561 29.0163 83.496 28.8006C82.126 28.4858 81.129 27.9351 81.08 26.7424C81.0357 25.6655 81.7894 24.811 83.1467 24.5348L83.1188 23.8543C83.1098 23.6353 83.28 23.4506 83.499 23.4416L83.8988 23.4251C84.1177 23.4162 84.3025 23.5863 84.3115 23.8053L84.3366 24.4163C84.9941 24.4156 85.4765 24.5082 85.8611 24.6258C86.0582 24.6861 86.1729 24.891 86.1272 25.092L85.9923 25.6846C85.9403 25.9132 85.7038 26.0469 85.4814 25.9731C85.1269 25.8554 84.6277 25.7382 83.9861 25.7646C83.1755 25.7979 82.9577 26.1432 82.9701 26.4443C82.9853 26.8148 83.4822 27.0496 84.5492 27.3306C86.0731 27.7203 86.7241 28.3199 86.7703 29.4432C86.8126 30.4738 86.0865 31.4316 84.6138 31.7241L84.6451 32.4856C84.6541 32.7046 84.4838 32.8893 84.2649 32.8983L83.8651 32.9148C83.6461 32.9237 83.4613 32.7535 83.4523 32.5346Z" fill="url(#paint21_linear_2922_17099)"/>
<path d="M92.7315 20.7032C96.1105 20.7032 98.8497 17.964 98.8497 14.585C98.8497 11.206 96.1105 8.4668 92.7315 8.4668C89.3525 8.4668 86.6133 11.206 86.6133 14.585C86.6133 17.964 89.3525 20.7032 92.7315 20.7032Z" fill="url(#paint22_linear_2922_17099)"/>
<path d="M92.7312 20.4995C95.9978 20.4995 98.646 17.8514 98.646 14.5847C98.646 11.3181 95.9978 8.66992 92.7312 8.66992C89.4645 8.66992 86.8164 11.3181 86.8164 14.5847C86.8164 17.8514 89.4645 20.4995 92.7312 20.4995Z" fill="url(#paint23_linear_2922_17099)"/>
<path d="M87.7642 12.4803C87.7414 12.4812 87.718 12.4771 87.6958 12.4669C87.62 12.4325 87.5865 12.3431 87.621 12.2675C88.5028 10.3262 90.3731 9.06587 92.5018 8.97842C92.8411 8.96446 93.1825 8.98108 93.5168 9.0279C93.5992 9.03937 93.6566 9.11552 93.6451 9.19793C93.6335 9.2803 93.5581 9.33894 93.475 9.32629C93.1586 9.28214 92.8354 9.26641 92.5142 9.27959C90.4998 9.36238 88.7299 10.555 87.8954 12.392C87.871 12.4456 87.8193 12.478 87.7642 12.4803Z" fill="white"/>
<path opacity="0.78" d="M96.4046 18.2488C98.3596 16.2938 98.3596 13.1242 96.4046 11.1692C94.4496 9.21416 91.28 9.21416 89.325 11.1692C87.37 13.1242 87.37 16.2938 89.325 18.2488C91.28 20.2038 94.4497 20.2038 96.4046 18.2488Z" fill="white"/>
<path d="M92.5277 18.4469L92.5053 17.9027C91.9371 17.9033 91.3705 17.7925 90.9648 17.6344C90.8199 17.5779 90.7408 17.4212 90.7755 17.2697L90.8929 16.7571C90.936 16.569 91.1343 16.4646 91.3151 16.5317C91.7172 16.6812 92.2108 16.7923 92.7371 16.7707C93.2835 16.7482 93.6834 16.5462 93.6678 16.1665C93.6537 15.8239 93.3305 15.6331 92.5626 15.4605C91.4669 15.2087 90.6696 14.7683 90.6304 13.8145C90.595 12.9532 91.1977 12.2698 92.2833 12.0489L92.261 11.5047C92.2538 11.3296 92.3899 11.1817 92.565 11.1745L92.8847 11.1614C93.0598 11.1542 93.2076 11.2903 93.2148 11.4655L93.2349 11.9541C93.7607 11.9535 94.1465 12.0276 94.4541 12.1217C94.6117 12.1699 94.7035 12.3338 94.6669 12.4945L94.5591 12.9685C94.5175 13.1513 94.3283 13.2582 94.1504 13.1992C93.8668 13.1051 93.4676 13.0114 92.9545 13.0325C92.3062 13.0591 92.1321 13.3352 92.142 13.5761C92.1542 13.8724 92.5515 14.0602 93.4049 14.2849C94.6237 14.5966 95.1443 15.0761 95.1812 15.9744C95.2151 16.7987 94.6344 17.5647 93.4565 17.7987L93.4816 18.4077C93.4888 18.5828 93.3527 18.7306 93.1775 18.7378L92.8578 18.7509C92.6827 18.7581 92.5349 18.622 92.5277 18.4469Z" fill="url(#paint24_linear_2922_17099)"/>
<path d="M25.051 96.7168C23.5969 96.8425 21.0733 97.0467 19.0838 97.1342C17.8878 97.1869 17.1993 97.0698 16.8027 96.911C16.8034 96.9557 16.8047 96.9979 16.8064 97.0371C16.8158 97.2465 16.9859 97.414 17.1974 97.4258C20.9567 97.6356 23.9465 97.4984 25.0109 97.4336C25.231 97.4202 25.3621 97.1811 25.2496 96.9934C25.1933 96.8996 25.1251 96.8077 25.051 96.7168Z" fill="url(#paint25_linear_2922_17099)"/>
<path d="M19.0842 97.1349C21.0738 97.0473 23.5974 96.8431 25.0515 96.7174C23.6219 94.9634 19.0842 93.7812 19.0842 93.7812H17.8027C16.9212 95.0519 16.7936 96.2615 16.8032 96.9116C17.1998 97.0704 17.8883 97.1875 19.0842 97.1349Z" fill="url(#paint26_linear_2922_17099)"/>
<path d="M17.5879 91.6885L17.7078 94.0617C17.7208 94.3187 17.9131 94.5347 18.1706 94.5715C18.4266 94.6081 18.7696 94.6128 19.1333 94.4917C19.357 94.4172 19.5231 94.2287 19.5644 93.9988L19.9788 91.6885H17.5879Z" fill="url(#paint27_linear_2922_17099)"/>
<path d="M2.71347 99.4555C2.08289 99.3418 1.79759 98.9184 1.67797 98.4658C1.67718 98.4699 1.67637 98.474 1.67558 98.478C1.58284 98.9555 1.79788 99.4503 2.22788 99.6856C2.7476 99.97 3.31581 100.018 3.75696 99.995C4.23026 99.9698 4.6647 99.7167 4.90346 99.3116L4.90705 99.3055C4.43194 99.6093 3.76506 99.645 2.71347 99.4555Z" fill="url(#paint28_linear_2922_17099)"/>
<path d="M5.68633 92.4202H4.62944C3.01959 92.3777 2.00863 96.7661 1.67773 98.4655C1.79736 98.9181 2.08266 99.3415 2.71323 99.4552C3.76486 99.6447 4.4317 99.609 4.90678 99.3052C5.77651 97.826 6.20768 95.6596 6.41497 94.3953C6.65072 92.9573 5.68633 92.4202 5.68633 92.4202Z" fill="url(#paint29_linear_2922_17099)"/>
<path d="M4.76607 90.2168L4.17918 92.551C4.10722 92.8372 4.24422 93.1332 4.5088 93.269C4.83711 93.4375 5.29936 93.6146 5.72414 93.5633C5.9239 93.5392 6.08988 93.3985 6.15588 93.2104L7.01748 90.7546L4.76607 90.2168Z" fill="url(#paint30_linear_2922_17099)"/>
<path d="M25.4098 59.4748C25.4098 59.4748 20.1652 92.2581 20.2516 92.4383C20.2516 92.4383 18.8031 93.0967 17.224 92.5222C17.224 92.5222 17.6982 74.9972 18.8095 68.2777C18.8095 68.2777 9.85873 83.9416 7.01632 91.7466C7.01632 91.7466 5.53381 91.5699 4.30664 90.7622C4.30664 90.7622 13.9441 62.5678 16.5153 58.8125L25.4098 59.4748Z" fill="url(#paint31_linear_2922_17099)"/>
<path d="M19.018 68.1065C18.9899 68.1065 18.9615 68.099 18.936 68.083C18.8635 68.0375 18.8415 67.942 18.8869 67.8696L20.8468 64.739C20.8694 64.703 20.9058 64.6777 20.9475 64.6693L22.3898 64.379C22.4742 64.3623 22.5554 64.4167 22.5724 64.5003C22.5892 64.5842 22.5348 64.6659 22.4511 64.6828L21.0741 64.9599L19.1495 68.0338C19.12 68.0808 19.0696 68.1065 19.018 68.1065Z" fill="url(#paint32_linear_2922_17099)"/>
<path d="M49.4769 27.3721C49.4769 27.3721 45.9379 28.1526 43.7854 29.1464C43.3579 29.3438 43.0169 29.6889 42.8227 30.1144C42.1789 31.5246 40.2528 35.0608 36.5176 36.7483C37.0555 37.4623 37.9216 38.9474 38.2989 41.4436C40.5424 39.7738 42.4792 36.9852 43.409 32.4119C43.409 32.4119 44.1171 32.7968 45.0004 32.3678C45.467 32.1412 46.0059 31.8197 46.4104 31.5669C46.8134 31.3149 47.1136 30.9233 47.2301 30.466C47.3841 29.862 47.2934 29.331 47.2934 28.7612L49.1125 28.1976C49.1126 28.1976 49.6594 27.9912 49.4769 27.3721Z" fill="url(#paint33_linear_2922_17099)"/>
<path d="M38.2993 41.4438C37.9219 38.9476 37.0558 37.4625 36.5179 36.7485C34.1975 37.7969 31.1791 38.132 27.3354 36.8001C26.9811 36.6774 26.6115 36.6055 26.2368 36.5835C24.1906 36.4635 17.4478 36.2446 11.8683 38.088C10.6941 38.4759 9.74298 39.344 9.25285 40.4688C7.74351 43.9325 5.29995 51.8205 12.0836 55.8028C12.6048 54.5088 13.2063 53.4687 13.7207 52.7046C12.6283 50.8619 12.3047 48.3452 14.2433 45.0678C15.6569 48.8847 16.32 54.4541 16.4586 56.9188C16.5042 57.7303 16.3619 58.5403 16.0435 59.2895L16.0087 59.3712C15.9406 59.5315 16.0343 59.7158 16.2058 59.7542C20.0247 60.6121 23.9966 60.379 25.1833 60.281C25.3951 60.2635 25.5711 60.1119 25.6198 59.9072C27.4767 52.0824 27.481 46.7449 27.0264 43.3707C28.7634 43.7592 34.0754 44.5875 38.2993 41.4438Z" fill="url(#paint34_linear_2922_17099)"/>
<path d="M27.0339 43.5815C26.9573 43.5815 26.8908 43.5248 26.8805 43.4469C26.4443 40.1524 25.5562 38.7147 25.5474 38.7005C25.5018 38.6282 25.5232 38.5325 25.5955 38.4868C25.6675 38.4414 25.7632 38.4625 25.809 38.5346C25.8469 38.5942 26.7412 40.0339 27.1875 43.4063C27.1987 43.4911 27.1391 43.5689 27.0543 43.5802C27.0474 43.581 27.0407 43.5815 27.0339 43.5815Z" fill="#EEAA4E"/>
<path d="M17.6092 32.0254C17.6092 32.0254 17.2229 36.1102 16.8828 37.3185C16.8312 37.5018 16.9108 37.6951 17.0773 37.7902C17.6546 38.1201 19.0393 38.6582 20.9333 37.7299C21.2402 37.5795 21.4246 37.2597 21.4103 36.9212L21.2435 32.974L17.6092 32.0254Z" fill="url(#paint35_linear_2922_17099)"/>
<path d="M21.327 26.7998C21.327 26.7998 22.5627 29.6383 22.6457 31.1282C22.7287 32.618 23.0497 33.5848 21.327 33.8848C19.6043 34.1848 18.1532 33.3266 17.367 31.8426C17.367 31.8426 16.1352 29.5558 16.4115 28.6193C16.6878 27.6828 21.327 26.7998 21.327 26.7998Z" fill="url(#paint36_linear_2922_17099)"/>
<path d="M17.9558 30.7754L18.0539 30.7322C18.1787 30.6772 18.2321 30.5286 18.1694 30.4074C17.9265 29.9381 17.4529 28.8625 18.0647 28.6116C18.8531 28.2883 21.9762 27.6514 22.65 26.5433C23.2976 25.4782 22.7238 24.1034 21.8614 23.7124C21.8037 23.6862 21.7357 23.707 21.7061 23.763L21.6342 23.899C21.585 23.9921 21.4475 23.978 21.4183 23.8768C21.3902 23.7797 21.2611 23.7609 21.2075 23.8466C21.0004 24.1782 20.4412 24.7156 18.9459 24.9916C16.8207 25.3839 15.4156 26.2439 15.3806 27.7124C15.3784 27.8057 15.2791 27.8576 15.1994 27.809C15.0425 27.7134 14.7914 27.6685 14.4558 27.9507C13.8722 28.4415 14.111 29.7145 15.3905 30.7617C15.4512 30.8115 15.4507 30.9064 15.3849 30.9492C15.1529 31.1002 14.8072 31.4595 15.7031 31.9384C16.6299 32.4338 17.3219 32.3932 17.5883 32.3492C17.6546 32.3382 17.6973 32.2741 17.6829 32.2084L17.3985 30.9177C17.3824 30.8446 17.438 30.7754 17.5128 30.7754H17.9558Z" fill="url(#paint37_linear_2922_17099)"/>
<path d="M18.0094 31.0481C18.0094 31.0481 17.538 29.2348 16.725 29.7432C15.9121 30.2516 17.1469 31.7749 17.8004 31.8427L18.0094 31.0481Z" fill="url(#paint38_linear_2922_17099)"/>
<path d="M44.3527 31.9906C44.3184 31.9906 44.2838 31.9793 44.2551 31.9559C44.1887 31.902 44.1787 31.8044 44.2327 31.738C44.3665 31.5733 45.5542 30.1212 46.0117 29.8629C46.1782 29.7688 46.2774 29.6717 46.2984 29.582C46.3086 29.5392 46.3018 29.4911 46.2777 29.4363L44.8823 29.716L44.0916 30.3943C44.027 30.4501 43.929 30.4428 43.8733 30.3777C43.8175 30.3128 43.8251 30.215 43.89 30.1592L44.7112 29.4544C44.7314 29.4372 44.7555 29.4254 44.7816 29.4201L46.3264 29.1105C46.3884 29.098 46.4505 29.1241 46.4854 29.1759C46.5986 29.3438 46.6361 29.5 46.5999 29.6531C46.5572 29.834 46.4147 29.9909 46.164 30.1326C45.8198 30.327 44.8266 31.4985 44.4729 31.9335C44.4425 31.9712 44.3977 31.9906 44.3527 31.9906Z" fill="#F8A570"/>
<path d="M17.9495 57.7664L23.4114 57.834L21.4998 56.0346C21.0246 55.5874 20.2994 55.515 19.751 55.8707C19.4298 56.079 19.0816 56.3617 18.7799 56.7361C18.7799 56.7361 15.3728 55.4909 13.7211 52.7051C13.2067 53.4692 12.6052 54.5093 12.084 55.8033C13.5646 56.6725 15.484 57.356 17.9495 57.7664Z" fill="url(#paint39_linear_2922_17099)"/>
<path d="M18.5386 58.4708C18.5492 58.4714 18.5598 58.4716 18.5705 58.4715L32.4349 58.4566C32.7776 58.4563 33.0552 58.1811 33.0548 57.842C33.0545 57.5028 32.7754 57.2225 32.4336 57.2286L18.5691 57.2436C18.2264 57.2439 17.9489 57.5191 17.9492 57.8582C17.9496 58.1868 18.2107 58.4548 18.5386 58.4708Z" fill="url(#paint40_linear_2922_17099)"/>
<path d="M44.8981 46.0156H33.3517C32.4999 46.0156 31.7246 46.502 31.3613 47.2642L26.0234 58.4633H40.3725C40.9214 58.4633 41.4146 58.1315 41.6163 57.6264L45.7556 47.2633C45.9948 46.6645 45.5488 46.0156 44.8981 46.0156Z" fill="url(#paint41_linear_2922_17099)"/>
<path d="M36.7639 51.7575C36.5137 52.5267 36.6985 53.2737 37.1768 53.426C37.655 53.5783 38.2455 53.0782 38.4958 52.3091C38.746 51.5399 38.5611 50.7929 38.0829 50.6406C37.6046 50.4883 37.0141 50.9884 36.7639 51.7575Z" fill="url(#paint42_linear_2922_17099)"/>
<defs>
<linearGradient id="paint0_linear_2922_17099" x1="111.487" y1="127.417" x2="23.9468" y2="18.6978" gradientUnits="userSpaceOnUse">
<stop stop-color="#B37CFF"/>
<stop offset="1" stop-color="#F895E7"/>
</linearGradient>
<linearGradient id="paint1_linear_2922_17099" x1="37.2314" y1="-3.89947" x2="18.1689" y2="15.0527" gradientUnits="userSpaceOnUse">
<stop stop-color="#B37CFF"/>
<stop offset="1" stop-color="#F895E7"/>
</linearGradient>
<linearGradient id="paint2_linear_2922_17099" x1="-3.99443" y1="26.8117" x2="17.3024" y2="27.1203" gradientUnits="userSpaceOnUse">
<stop stop-color="#B37CFF"/>
<stop offset="1" stop-color="#F895E7"/>
</linearGradient>
<linearGradient id="paint3_linear_2922_17099" x1="78.229" y1="5.20375" x2="65.4433" y2="37.2887" gradientUnits="userSpaceOnUse">
<stop stop-color="#B37CFF"/>
<stop offset="1" stop-color="#F895E7"/>
</linearGradient>
<linearGradient id="paint4_linear_2922_17099" x1="39.0252" y1="52.995" x2="56.3162" y2="-36.2037" gradientUnits="userSpaceOnUse">
<stop stop-color="#A737D5"/>
<stop offset="1" stop-color="#EF497A"/>
</linearGradient>
<linearGradient id="paint5_linear_2922_17099" x1="37.8715" y1="18.4842" x2="25.9929" y2="69.6388" gradientUnits="userSpaceOnUse">
<stop stop-color="#A737D5"/>
<stop offset="1" stop-color="#EF497A"/>
</linearGradient>
<linearGradient id="paint6_linear_2922_17099" x1="58.6003" y1="47.1792" x2="80.9428" y2="12.9206" gradientUnits="userSpaceOnUse">
<stop stop-color="#53D8FF"/>
<stop offset="1" stop-color="#3840F7"/>
</linearGradient>
<linearGradient id="paint7_linear_2922_17099" x1="43.5078" y1="29.3504" x2="38.8003" y2="-71.8858" gradientUnits="userSpaceOnUse">
<stop stop-color="#B37CFF"/>
<stop offset="1" stop-color="#F895E7"/>
</linearGradient>
<linearGradient id="paint8_linear_2922_17099" x1="52.4619" y1="5.47489" x2="42.116" y2="20.0358" gradientUnits="userSpaceOnUse">
<stop stop-color="#A737D5"/>
<stop offset="1" stop-color="#EF497A"/>
</linearGradient>
<linearGradient id="paint9_linear_2922_17099" x1="113.109" y1="33.8637" x2="43.8981" y2="109.995" gradientUnits="userSpaceOnUse">
<stop stop-color="#FDF53F"/>
<stop offset="1" stop-color="#D93C65"/>
</linearGradient>
<linearGradient id="paint10_linear_2922_17099" x1="73.8778" y1="96.4081" x2="47.5665" y2="59.9482" gradientUnits="userSpaceOnUse">
<stop stop-color="#FDF53F"/>
<stop offset="1" stop-color="#D93C65"/>
</linearGradient>
<linearGradient id="paint11_linear_2922_17099" x1="52.8699" y1="56.5117" x2="21.7252" y2="110.815" gradientUnits="userSpaceOnUse">
<stop stop-color="#FDF53F"/>
<stop offset="1" stop-color="#D93C65"/>
</linearGradient>
<linearGradient id="paint12_linear_2922_17099" x1="27.8959" y1="92.0033" x2="-5.37853" y2="57.6641" gradientUnits="userSpaceOnUse">
<stop stop-color="#FDF53F"/>
<stop offset="1" stop-color="#D93C65"/>
</linearGradient>
<linearGradient id="paint13_linear_2922_17099" x1="60.4088" y1="29.4058" x2="66.2232" y2="22.0689" gradientUnits="userSpaceOnUse">
<stop stop-color="#FDF53F"/>
<stop offset="1" stop-color="#D93C65"/>
</linearGradient>
<linearGradient id="paint14_linear_2922_17099" x1="69.4598" y1="16.7597" x2="52.5258" y2="44.7737" gradientUnits="userSpaceOnUse">
<stop stop-color="#FDF53F"/>
<stop offset="1" stop-color="#D93C65"/>
</linearGradient>
<linearGradient id="paint15_linear_2922_17099" x1="69.8814" y1="18.5899" x2="57.5324" y2="31.5548" gradientUnits="userSpaceOnUse">
<stop stop-color="#FDF53F"/>
<stop offset="1" stop-color="#D93C65"/>
</linearGradient>
<linearGradient id="paint16_linear_2922_17099" x1="68.2226" y1="23.5408" x2="77.7116" y2="11.567" gradientUnits="userSpaceOnUse">
<stop stop-color="#FDF53F"/>
<stop offset="1" stop-color="#D93C65"/>
</linearGradient>
<linearGradient id="paint17_linear_2922_17099" x1="82.9964" y1="2.90078" x2="55.3602" y2="48.6197" gradientUnits="userSpaceOnUse">
<stop stop-color="#FDF53F"/>
<stop offset="1" stop-color="#D93C65"/>
</linearGradient>
<linearGradient id="paint18_linear_2922_17099" x1="83.6807" y1="5.88768" x2="63.5272" y2="27.0465" gradientUnits="userSpaceOnUse">
<stop stop-color="#FDF53F"/>
<stop offset="1" stop-color="#D93C65"/>
</linearGradient>
<linearGradient id="paint19_linear_2922_17099" x1="73.7473" y1="40.2755" x2="83.5114" y2="27.9546" gradientUnits="userSpaceOnUse">
<stop stop-color="#FDF53F"/>
<stop offset="1" stop-color="#D93C65"/>
</linearGradient>
<linearGradient id="paint20_linear_2922_17099" x1="88.9481" y1="19.0368" x2="60.5108" y2="66.081" gradientUnits="userSpaceOnUse">
<stop stop-color="#FDF53F"/>
<stop offset="1" stop-color="#D93C65"/>
</linearGradient>
<linearGradient id="paint21_linear_2922_17099" x1="89.6527" y1="22.1113" x2="68.915" y2="43.8834" gradientUnits="userSpaceOnUse">
<stop stop-color="#FDF53F"/>
<stop offset="1" stop-color="#D93C65"/>
</linearGradient>
<linearGradient id="paint22_linear_2922_17099" x1="84.7647" y1="24.6379" x2="92.5737" y2="14.784" gradientUnits="userSpaceOnUse">
<stop stop-color="#FDF53F"/>
<stop offset="1" stop-color="#D93C65"/>
</linearGradient>
<linearGradient id="paint23_linear_2922_17099" x1="96.9219" y1="7.65202" x2="74.1787" y2="45.2762" gradientUnits="userSpaceOnUse">
<stop stop-color="#FDF53F"/>
<stop offset="1" stop-color="#D93C65"/>
</linearGradient>
<linearGradient id="paint24_linear_2922_17099" x1="97.4865" y1="10.1107" x2="80.9013" y2="27.5232" gradientUnits="userSpaceOnUse">
<stop stop-color="#FDF53F"/>
<stop offset="1" stop-color="#D93C65"/>
</linearGradient>
<linearGradient id="paint25_linear_2922_17099" x1="16.8028" y1="97.1273" x2="25.2907" y2="97.1273" gradientUnits="userSpaceOnUse">
<stop stop-color="#53D8FF"/>
<stop offset="1" stop-color="#3840F7"/>
</linearGradient>
<linearGradient id="paint26_linear_2922_17099" x1="16.8028" y1="95.4644" x2="25.0515" y2="95.4644" gradientUnits="userSpaceOnUse">
<stop stop-color="#2B3582"/>
<stop offset="1" stop-color="#150E42"/>
</linearGradient>
<linearGradient id="paint27_linear_2922_17099" x1="17.5879" y1="93.1414" x2="19.9788" y2="93.1414" gradientUnits="userSpaceOnUse">
<stop stop-color="#F9B776"/>
<stop offset="1" stop-color="#F47960"/>
</linearGradient>
<linearGradient id="paint28_linear_2922_17099" x1="1.65427" y1="99.233" x2="4.907" y2="99.233" gradientUnits="userSpaceOnUse">
<stop stop-color="#53D8FF"/>
<stop offset="1" stop-color="#3840F7"/>
</linearGradient>
<linearGradient id="paint29_linear_2922_17099" x1="1.67774" y1="95.9958" x2="6.45211" y2="95.9958" gradientUnits="userSpaceOnUse">
<stop stop-color="#2B3582"/>
<stop offset="1" stop-color="#150E42"/>
</linearGradient>
<linearGradient id="paint30_linear_2922_17099" x1="4.16014" y1="91.8945" x2="7.0175" y2="91.8945" gradientUnits="userSpaceOnUse">
<stop stop-color="#F9B776"/>
<stop offset="1" stop-color="#F47960"/>
</linearGradient>
<linearGradient id="paint31_linear_2922_17099" x1="-50.7246" y1="139.13" x2="56.7802" y2="40.3419" gradientUnits="userSpaceOnUse">
<stop stop-color="#53D8FF"/>
<stop offset="1" stop-color="#3840F7"/>
</linearGradient>
<linearGradient id="paint32_linear_2922_17099" x1="19.6055" y1="68.4251" x2="21.8331" y2="64.0575" gradientUnits="userSpaceOnUse">
<stop stop-color="#53D8FF"/>
<stop offset="1" stop-color="#3840F7"/>
</linearGradient>
<linearGradient id="paint33_linear_2922_17099" x1="43.4603" y1="31.7075" x2="32.1436" y2="46.4302" gradientUnits="userSpaceOnUse">
<stop stop-color="#F9B776"/>
<stop offset="1" stop-color="#F47960"/>
</linearGradient>
<linearGradient id="paint34_linear_2922_17099" x1="30.0357" y1="35.1565" x2="-7.74654" y2="79.9354" gradientUnits="userSpaceOnUse">
<stop stop-color="#FDF53F"/>
<stop offset="1" stop-color="#D93C65"/>
</linearGradient>
<linearGradient id="paint35_linear_2922_17099" x1="18.2358" y1="41.2233" x2="19.4738" y2="34.7235" gradientUnits="userSpaceOnUse">
<stop stop-color="#F9B776"/>
<stop offset="1" stop-color="#F47960"/>
</linearGradient>
<linearGradient id="paint36_linear_2922_17099" x1="21.586" y1="29.2983" x2="14.5221" y2="34.7033" gradientUnits="userSpaceOnUse">
<stop stop-color="#F9B776"/>
<stop offset="1" stop-color="#F47960"/>
</linearGradient>
<linearGradient id="paint37_linear_2922_17099" x1="16.6135" y1="25.0187" x2="23.1924" y2="33.489" gradientUnits="userSpaceOnUse">
<stop stop-color="#2B3582"/>
<stop offset="1" stop-color="#150E42"/>
</linearGradient>
<linearGradient id="paint38_linear_2922_17099" x1="20.7101" y1="28.1533" x2="13.6462" y2="33.5583" gradientUnits="userSpaceOnUse">
<stop stop-color="#F9B776"/>
<stop offset="1" stop-color="#F47960"/>
</linearGradient>
<linearGradient id="paint39_linear_2922_17099" x1="24.8518" y1="45.8412" x2="19.9075" y2="53.2575" gradientUnits="userSpaceOnUse">
<stop stop-color="#F9B776"/>
<stop offset="1" stop-color="#F47960"/>
</linearGradient>
<linearGradient id="paint40_linear_2922_17099" x1="16.1871" y1="54.794" x2="27.1922" y2="58.4034" gradientUnits="userSpaceOnUse">
<stop stop-color="#2B3582"/>
<stop offset="1" stop-color="#150E42"/>
</linearGradient>
<linearGradient id="paint41_linear_2922_17099" x1="31.3339" y1="47.6663" x2="39.2127" y2="55.9937" gradientUnits="userSpaceOnUse">
<stop stop-color="#2B3582"/>
<stop offset="1" stop-color="#150E42"/>
</linearGradient>
<linearGradient id="paint42_linear_2922_17099" x1="36.1119" y1="49.7474" x2="39.6733" y2="55.1105" gradientUnits="userSpaceOnUse">
<stop stop-color="#53D8FF"/>
<stop offset="1" stop-color="#3840F7"/>
</linearGradient>
</defs>
</svg>
