<svg width="144" height="100" viewBox="0 0 144 100" fill="none" xmlns="http://www.w3.org/2000/svg">
<path d="M119.279 90.8848H5.52425C4.15348 88.6459 3.13696 86.2355 2.51983 83.6667C-2.89472 61.1646 24.1586 35.1278 62.9408 25.5091C101.726 15.8868 137.559 26.3268 142.973 48.8287C146.413 63.1266 136.744 78.8556 119.279 90.8848Z" fill="#F7E8D0"/>
<path d="M23.1772 22.1486C23.1772 22.1486 15.2337 15.5484 2.71289 15.3193C2.71289 15.3193 8.98827 20.7129 23.1772 22.1486Z" fill="#EAC8AC"/>
<path d="M24.5365 23.7355C24.5365 23.7355 12.3848 20.6309 3.53711 22.9274C3.53711 22.9274 9.62548 26.1445 24.5365 23.7355Z" fill="#EAC8AC"/>
<path d="M23.1052 21.3874C23.1052 21.3874 15.6492 15.8169 10.418 9.6875C10.418 9.6875 19.7234 12.6451 23.1052 21.3874Z" fill="#EAC8AC"/>
<path d="M27.5365 25.0097C27.5365 25.0097 20.6533 17.7945 18.6211 8.82227C18.6211 8.82227 25.1754 15.1607 27.5365 25.0097Z" fill="#EAC8AC"/>
<path d="M28.1719 26.4537C28.1719 26.4537 17.3253 23.7658 8.37891 26.6544C8.37891 26.6544 15.5154 28.7327 28.1719 26.4537Z" fill="#EAC8AC"/>
<path d="M30.4401 27.5894C30.4401 27.5894 25.7003 20.01 26.7492 12.4697C26.7492 12.4697 30.5651 18.3432 30.4401 27.5894Z" fill="#EAC8AC"/>
<path d="M30.8441 29.4782C30.8441 29.4782 18.9666 27.0274 11.4395 30.3584C11.4395 30.3584 23.3908 31.5851 30.8441 29.4782Z" fill="#EAC8AC"/>
<path d="M33.2804 32.4318C33.2804 32.4318 23.0622 29.6677 14.2734 33.4956C14.2734 33.4956 21.8471 34.5141 33.2804 32.4318Z" fill="#EAC8AC"/>
<path d="M32.9727 30.1404C32.9727 30.1404 32.9301 30.0267 32.8579 29.8137C32.3612 28.3522 30.4692 22.2503 31.4118 16.8018C31.4118 16.8018 34.3175 21.0597 32.9727 30.1404Z" fill="#EAC8AC"/>
<path d="M35.106 35.1038C35.106 35.1038 25.4421 33.3396 18.1953 35.9018C18.1953 35.9018 23.0616 37.7484 35.106 35.1038Z" fill="#EAC8AC"/>
<path d="M38.7397 37.8389C38.7397 37.8389 29.076 36.0751 21.8301 38.6373C21.8301 38.6373 26.6952 40.4839 38.7397 37.8389Z" fill="#EAC8AC"/>
<path d="M39.8899 40.3002C39.8899 40.3002 30.5999 38.5037 23.5957 40.8984C23.5957 40.8984 28.2634 42.7258 39.8899 40.3002Z" fill="#EAC8AC"/>
<path d="M41.0372 42.7591C41.0372 42.7591 32.1224 40.9319 25.3613 43.1591C25.3613 43.1591 29.8316 44.9665 41.0372 42.7591Z" fill="#EAC8AC"/>
<path d="M42.1863 45.2187C42.1863 45.2187 33.6452 43.3586 27.127 45.4188C27.127 45.4188 31.3998 47.2073 42.1863 45.2187Z" fill="#EAC8AC"/>
<path d="M43.7818 47.6042C43.7818 47.6042 35.6152 45.7112 29.3398 47.6036C29.3398 47.6036 33.4147 49.3724 43.7818 47.6042Z" fill="#EAC8AC"/>
<path d="M45.216 50.1082C45.216 50.1082 37.4237 48.1837 31.3906 49.9083C31.3906 49.9083 35.268 51.6585 45.216 50.1082Z" fill="#EAC8AC"/>
<path d="M46.5277 52.4464C46.5277 52.4464 39.1097 50.4912 33.3203 52.0483C33.3203 52.0483 36.9994 53.7784 46.5277 52.4464Z" fill="#EAC8AC"/>
<path d="M47.3204 54.967C47.3204 54.967 40.277 52.9798 34.7305 54.3692C34.7305 54.3692 38.2107 56.0806 47.3204 54.967Z" fill="#EAC8AC"/>
<path d="M48.6324 57.3051C48.6324 57.3051 41.9625 55.2866 36.6602 56.5076C36.6602 56.5076 39.9427 58.2005 48.6324 57.3051Z" fill="#EAC8AC"/>
<path d="M49.4095 59.7363C49.4095 59.7363 43.115 57.6844 38.0547 58.7387C38.0547 58.7387 41.1403 60.4121 49.4095 59.7363Z" fill="#EAC8AC"/>
<path d="M50.2321 62.4381C50.2321 62.4381 44.3113 60.3541 39.4941 61.2415C39.4941 61.2415 42.3812 62.8948 50.2321 62.4381Z" fill="#EAC8AC"/>
<path d="M51.3795 64.8985C51.3795 64.8985 45.8338 62.7824 41.2598 63.5017C41.2598 63.5017 43.9488 65.1367 51.3795 64.8985Z" fill="#EAC8AC"/>
<path d="M34.7601 32.0719C34.7601 32.0719 32.6405 26.4693 34.4952 20.4688C34.4952 20.4688 36.792 26.0427 34.7601 32.0719Z" fill="#EAC8AC"/>
<path d="M35.9898 34.9474C35.9898 34.9474 35.1298 29.0702 37.0977 23.4551C37.0977 23.4551 38.086 29.3317 35.9898 34.9474Z" fill="#EAC8AC"/>
<path d="M37.9762 37.0951C37.9762 37.0951 37.2392 31.3814 39.2421 25.9707C39.2421 25.9707 40.1023 31.6869 37.9762 37.0951Z" fill="#EAC8AC"/>
<path d="M39.4279 39.9219C39.4279 39.9219 38.8164 34.3708 40.852 29.166C40.852 29.166 41.5839 34.7196 39.4279 39.9219Z" fill="#EAC8AC"/>
<path d="M41.0342 42.1978C41.0342 42.1978 40.5474 36.81 42.6174 31.8076C42.6174 31.8076 43.2215 37.2011 41.0342 42.1978Z" fill="#EAC8AC"/>
<path d="M42.6821 44.5264C42.6821 44.5264 42.3189 39.3027 44.4227 34.5039C44.4227 34.5039 44.8988 39.7371 42.6821 44.5264Z" fill="#EAC8AC"/>
<path d="M44.0587 47.2728C44.0587 47.2728 43.8209 42.2129 45.9586 37.6191C45.9586 37.6191 46.3058 42.69 44.0587 47.2728Z" fill="#EAC8AC"/>
<path d="M45.2667 50.0806C45.2667 50.0806 45.1522 45.1827 47.3254 40.7939C47.3254 40.7939 47.5442 45.7036 45.2667 50.0806Z" fill="#EAC8AC"/>
<path d="M46.7734 52.8666C46.7734 52.8666 46.7836 48.134 48.9904 43.9482C48.9904 43.9482 49.0809 48.6972 46.7734 52.8666Z" fill="#EAC8AC"/>
<path d="M48.0547 55.7568C48.0547 55.7568 48.1889 51.1862 50.4298 47.2061C50.4298 47.2061 50.3929 51.7927 48.0547 55.7568Z" fill="#EAC8AC"/>
<path d="M49.1445 58.6132C49.1445 58.6132 49.4023 54.2075 51.6779 50.4307C51.6779 50.4307 51.5124 54.8569 49.1445 58.6132Z" fill="#EAC8AC"/>
<path d="M50.0703 61.5619C50.0703 61.5619 50.4533 57.3192 52.7633 53.7471C52.7633 53.7471 52.468 58.011 50.0703 61.5619Z" fill="#EAC8AC"/>
<path d="M51.3086 64.9546C51.3086 64.9546 51.816 60.8754 54.1596 57.5068C54.1596 57.5068 53.7379 61.6113 51.3086 64.9546Z" fill="#EAC8AC"/>
<path d="M52.104 69.2823C51.9196 69.3138 51.7402 69.197 51.6936 69.0103C43.5203 36.2984 21.0774 21.7251 20.8521 21.5819C20.6817 21.4739 20.6307 21.2472 20.7373 21.0751C20.8439 20.9027 21.0664 20.8509 21.2354 20.9582C21.4639 21.1028 44.1482 35.8185 52.396 68.8291C52.4442 69.0261 52.328 69.2257 52.1328 69.276C52.1238 69.2778 52.1142 69.2803 52.104 69.2823Z" fill="#EAC8AC"/>
<path d="M96.1055 14.8237C96.1055 14.8237 102.57 6.72886 114.786 3.93359C114.786 3.93359 109.715 10.504 96.1055 14.8237Z" fill="#EAC8AC"/>
<path d="M95.0898 16.6568C95.0898 16.6568 106.372 11.1212 115.494 11.5533C115.494 11.5533 110.173 15.9544 95.0898 16.6568Z" fill="#EAC8AC"/>
<path d="M96.0234 14.0634C96.0234 14.0634 102.215 7.07721 106.118 0C106.118 0 97.5939 4.80738 96.0234 14.0634Z" fill="#EAC8AC"/>
<path d="M92.4062 18.5205C92.4062 18.5205 97.7097 10.0408 97.9122 0.836914C97.9122 0.836914 92.7566 8.39031 92.4062 18.5205Z" fill="#EAC8AC"/>
<path d="M92.0703 20.0656C92.0703 20.0656 102.157 15.2061 111.494 16.198C111.494 16.198 104.92 19.6985 92.0703 20.0656Z" fill="#EAC8AC"/>
<path d="M90.0764 21.6434C90.0764 21.6434 93.2081 13.2473 90.6783 6.07812C90.6783 6.07812 88.1117 12.6139 90.0764 21.6434Z" fill="#EAC8AC"/>
<path d="M90.0566 23.5757C90.0566 23.5757 101.2 18.7368 109.236 20.4534C109.236 20.4534 97.7756 24.1088 90.0566 23.5757Z" fill="#EAC8AC"/>
<path d="M88.2598 26.9687C88.2598 26.9687 97.7159 22.1637 107.085 24.1076C107.085 24.1076 99.8716 26.6604 88.2598 26.9687Z" fill="#EAC8AC"/>
<path d="M88.105 24.6609C88.105 24.6609 88.1241 24.541 88.1526 24.3173C88.3478 22.784 88.985 16.4197 86.9765 11.2773C86.9765 11.2773 84.9787 16.0435 88.105 24.6609Z" fill="#EAC8AC"/>
<path d="M87.0039 29.9613C87.0039 29.9613 96.117 26.2494 103.724 27.2705C103.724 27.2705 99.3265 30.0784 87.0039 29.9613Z" fill="#EAC8AC"/>
<path d="M83.9922 33.3846C83.9922 33.3846 93.105 29.6731 100.712 30.6944C100.712 30.6944 96.315 33.5017 83.9922 33.3846Z" fill="#EAC8AC"/>
<path d="M83.3555 36.031C83.3555 36.031 92.0954 32.3641 99.4319 33.2712C99.4319 33.2712 95.2251 36.0193 83.3555 36.031Z" fill="#EAC8AC"/>
<path d="M82.7207 38.6759C82.7207 38.6759 91.0875 35.056 98.1523 35.8489C98.1523 35.8489 94.1342 38.5368 82.7207 38.6759Z" fill="#EAC8AC"/>
<path d="M82.084 41.321C82.084 41.321 90.0779 37.7455 96.872 38.4247C96.872 38.4247 93.0437 41.0536 82.084 41.321Z" fill="#EAC8AC"/>
<path d="M80.9961 43.9843C80.9961 43.9843 88.6169 40.4538 95.1393 41.0181C95.1393 41.0181 91.5014 43.5872 80.9961 43.9843Z" fill="#EAC8AC"/>
<path d="M80.0938 46.731C80.0938 46.731 87.3416 43.2465 93.5936 43.6963C93.5936 43.6963 90.145 46.2067 80.0938 46.731Z" fill="#EAC8AC"/>
<path d="M79.2734 49.2898C79.2734 49.2898 86.1487 45.852 92.1288 46.1882C92.1288 46.1882 88.8703 48.6375 79.2734 49.2898Z" fill="#EAC8AC"/>
<path d="M79 51.9216C79 51.9216 85.5019 48.529 91.2103 48.7506C91.2103 48.7506 88.143 51.1416 79 51.9216Z" fill="#EAC8AC"/>
<path d="M78.1797 54.4809C78.1797 54.4809 84.3095 51.1341 89.7455 51.2418C89.7455 51.2418 86.8683 53.5732 78.1797 54.4809Z" fill="#EAC8AC"/>
<path d="M77.9062 57.0216C77.9062 57.0216 83.6618 53.7192 88.8279 53.7129C88.8279 53.7129 86.1393 55.9853 77.9062 57.0216Z" fill="#EAC8AC"/>
<path d="M77.6367 59.8361C77.6367 59.8361 83.02 56.5792 87.9141 56.459C87.9141 56.459 85.4163 58.671 77.6367 59.8361Z" fill="#EAC8AC"/>
<path d="M77.002 62.4817C77.002 62.4817 82.0115 59.2704 86.6343 59.0361C86.6343 59.0361 84.3263 61.1894 77.002 62.4817Z" fill="#EAC8AC"/>
<path d="M86.7382 26.9205C86.7382 26.9205 87.6975 20.9984 84.6857 15.5029C84.6857 15.5029 83.5471 21.4331 86.7382 26.9205Z" fill="#EAC8AC"/>
<path d="M86.1072 29.9902C86.1072 29.9902 85.7786 24.058 82.7324 18.9629C82.7324 18.9629 82.9355 24.9211 86.1072 29.9902Z" fill="#EAC8AC"/>
<path d="M84.591 32.4997C84.591 32.4997 84.1742 26.7528 81.1348 21.8652C81.1348 21.8652 81.4315 27.6399 84.591 32.4997Z" fill="#EAC8AC"/>
<path d="M83.7311 35.5675C83.7311 35.5675 83.224 30.0056 80.1934 25.3262C80.1934 25.3262 80.5834 30.9153 83.7311 35.5675Z" fill="#EAC8AC"/>
<path d="M82.6126 38.1248C82.6126 38.1248 82.0161 32.7485 78.9922 28.2744C78.9922 28.2744 79.4751 33.6805 82.6126 38.1248Z" fill="#EAC8AC"/>
<path d="M81.4611 40.744C81.4611 40.744 80.776 35.5538 77.7598 31.2861C77.7598 31.2861 78.336 36.5087 81.4611 40.744Z" fill="#EAC8AC"/>
<path d="M80.6593 43.7165C80.6593 43.7165 79.8839 38.7121 76.875 34.6523C76.875 34.6523 77.5457 39.6899 80.6593 43.7165Z" fill="#EAC8AC"/>
<path d="M80.0382 46.7138C80.0382 46.7138 79.1746 41.8939 76.1719 38.042C76.1719 38.042 76.936 42.8946 80.0382 46.7138Z" fill="#EAC8AC"/>
<path d="M79.1159 49.7523C79.1159 49.7523 78.1631 45.1196 75.168 41.4736C75.168 41.4736 76.0251 46.143 79.1159 49.7523Z" fill="#EAC8AC"/>
<path d="M78.4379 52.8454C78.4379 52.8454 77.396 48.3968 74.4082 44.959C74.4082 44.959 75.3582 49.4434 78.4379 52.8454Z" fill="#EAC8AC"/>
<path d="M77.9393 55.8663C77.9393 55.8663 76.8091 51.6047 73.8281 48.373C73.8281 48.373 74.8723 52.6739 77.9393 55.8663Z" fill="#EAC8AC"/>
<path d="M77.6202 58.9448C77.6202 58.9448 76.3997 54.8688 73.4258 51.8447C73.4258 51.8447 74.5647 55.9597 77.6202 58.9448Z" fill="#EAC8AC"/>
<path d="M77.0826 62.5219C77.0826 62.5219 75.773 58.6308 72.8066 55.8135C72.8066 55.8135 74.0375 59.7464 77.0826 62.5219Z" fill="#EAC8AC"/>
<path d="M77.1656 66.9216C77.3521 66.9147 77.5046 66.7636 77.5134 66.5709C79.0004 32.8567 98.0758 13.9762 98.2685 13.7898C98.4137 13.649 98.4185 13.4164 98.2798 13.2698C98.1413 13.1229 97.9128 13.1181 97.7687 13.2578C97.5741 13.4465 78.2899 32.516 76.7894 66.5376C76.7815 66.7404 76.9349 66.9124 77.1363 66.9216C77.1453 66.9213 77.1552 66.9219 77.1656 66.9216Z" fill="#EAC8AC"/>
<path d="M133.342 50.7207C133.342 50.7207 127.396 51.0105 124.171 54.8895C120.945 58.7675 121.662 64.7669 121.662 64.7669C121.662 64.7669 127.607 64.4774 130.833 60.5983C134.058 56.7198 133.342 50.7207 133.342 50.7207ZM124.181 62.4143C124.15 62.4149 124.122 62.4092 124.096 62.4008L123.151 63.5371C123.016 63.7 122.778 63.7203 122.619 63.5831C122.46 63.4466 122.44 63.2049 122.573 63.0428L125.344 59.7121L124.731 55.5361C124.71 55.3967 124.806 55.2672 124.943 55.246C125.08 55.2254 125.209 55.3225 125.228 55.4605L125.776 59.1924L128.818 55.5335C128.817 55.5229 128.812 55.5129 128.81 55.5012L128.682 52.8852C128.676 52.7443 128.782 52.6246 128.921 52.6174C129.06 52.6108 129.178 52.7191 129.185 52.86L129.288 54.9691L131.943 51.7764C132.077 51.6144 132.316 51.5949 132.474 51.7312C132.634 51.8669 132.655 52.1092 132.52 52.2707L127.964 57.7489L130.616 57.659C130.755 57.6547 130.872 57.7644 130.876 57.9062C130.881 58.0473 130.771 58.1647 130.634 58.169L127.585 58.2724C127.568 58.2732 127.552 58.2672 127.536 58.2655L124.516 61.8946L127.996 61.8021C128.135 61.7987 128.25 61.9083 128.253 62.0501C128.258 62.1921 128.148 62.3087 128.009 62.3127L124.181 62.4143Z" fill="#EAC8AC"/>
<path d="M102.914 49.0852C103.856 46.5155 105.032 44.0321 106.353 41.6348C107.097 40.2624 107.914 38.9335 108.748 37.6158C109.595 36.3063 110.485 35.0258 111.4 33.7659C113.255 31.2624 115.236 28.8583 117.362 26.593C119.258 24.5743 121.244 22.6332 123.387 20.8877C120.67 21.6631 114.29 25.4471 114.29 25.4471L113.57 28.015L113.066 26.0977L108.411 30.962L107.357 35.6741L106.202 34.5276C105.058 38.2131 104.059 43.139 104.059 43.139L103.116 41.4313C102.783 43.0731 102.748 49.1058 102.748 49.1058C102.805 49.0998 102.859 49.092 102.914 49.0852Z" fill="#EAC8AC"/>
<path d="M123.528 20.957C121.639 23.0004 119.814 25.0872 118.036 27.2087C117.055 28.3985 116.069 29.5819 115.127 30.7986C114.175 32.0078 113.234 33.2273 112.333 34.4738C111.414 35.7079 110.526 36.9672 109.663 38.2415C108.786 39.5056 107.96 40.8074 107.133 42.1091C105.72 44.3709 104.392 46.6908 103.125 49.0603C107.548 48.5265 110.287 46.1531 110.287 46.1531L107.99 44.7669L111.643 45.3284C112.693 45.0443 117.183 39.0383 117.183 39.0383L113.284 38.2234L118.086 37.5153L121.131 31.3074L117.992 30.6523L121.675 29.6085L123.528 20.957Z" fill="#EAC8AC"/>
<path d="M31.2457 62.077C29.3938 60.082 27.3588 58.258 25.2231 56.5715C24.0119 55.6008 22.7503 54.6994 21.4777 53.8146C20.1955 52.9427 18.8845 52.1149 17.5589 51.3157C14.8912 49.7417 12.1452 48.3091 9.31816 47.0621C6.79858 45.9511 4.22458 44.9472 1.58203 44.1852C4.38196 43.8267 11.7097 44.7931 11.7097 44.7931L13.3566 46.8745L13.0864 44.9088L19.2385 47.552L22.0156 51.4763L22.64 49.9642C25.106 52.9075 27.9139 57.0511 27.9139 57.0511L28.1279 55.1054C29.0641 56.4864 31.4076 62.0303 31.4076 62.0303C31.3518 62.0475 31.2999 62.0612 31.2457 62.077Z" fill="#EAC8AC"/>
<path d="M1.47852 44.3047C4.00063 45.4415 6.48212 46.6429 8.93259 47.8954C10.2926 48.6041 11.6535 49.3051 12.9882 50.0538C14.3282 50.792 15.6624 51.544 16.9705 52.336C18.2899 53.1103 19.5902 53.92 20.8735 54.7527C22.1662 55.5711 23.4253 56.4444 24.6858 57.3166C26.8545 58.8422 28.967 60.4549 31.0415 62.1375C26.762 63.3925 23.3299 62.2875 23.3299 62.2875L24.9142 60.1039L21.7648 62.0633C20.6882 62.2165 14.2507 58.4568 14.2507 58.4568L17.5304 56.1664L12.8353 57.4102L7.65123 52.8938L10.2921 51.0503L6.49961 51.5428L1.47852 44.3047Z" fill="#EAC8AC"/>
<path d="M62.8525 29.2695C62.8525 29.2695 60.7912 33.0444 61.8997 36.4911C63.0076 39.9375 66.8661 41.7503 66.8661 41.7503C66.8661 41.7503 68.9276 37.9755 67.8194 34.529C66.7104 31.0824 62.8525 29.2695 62.8525 29.2695ZM66.4055 39.3127C66.3948 39.3313 66.3801 39.3467 66.3654 39.3596L66.6901 40.3696C66.7369 40.5133 66.6593 40.6676 66.5177 40.7143C66.3762 40.7613 66.2241 40.6828 66.1773 40.5394L65.2257 37.5794L62.4979 36.3885C62.4066 36.349 62.3648 36.2417 62.4037 36.1489C62.4427 36.0564 62.5487 36.0137 62.6393 36.0535L65.0776 37.1179L64.0317 33.8673C64.0247 33.8642 64.0171 33.8639 64.0095 33.8602L62.3956 32.9565C62.309 32.9078 62.2779 32.7964 62.3259 32.7088C62.3741 32.6203 62.4833 32.5882 62.5701 32.6366L63.8704 33.3662L62.9585 30.5291C62.912 30.3854 62.9898 30.2311 63.1309 30.1841C63.2727 30.1371 63.4248 30.215 63.4713 30.3588L65.0364 35.226L65.9793 33.5575C66.029 33.4702 66.1384 33.4392 66.2244 33.4902C66.3104 33.5397 66.3395 33.6517 66.2907 33.7385L65.2065 35.6569C65.2009 35.6681 65.1913 35.675 65.1839 35.6847L66.2205 38.9101L67.4728 36.7302C67.5227 36.6437 67.6316 36.6136 67.7176 36.6646C67.8042 36.715 67.8327 36.8267 67.783 36.9143L66.4055 39.3127Z" fill="#EAC8AC"/>
<path d="M112.165 57.3577L111.132 62.7054L109.773 68.8941L109.459 70.873L110.393 72.0808L110.742 68.3529L112.618 56.2061L112.165 57.3577Z" fill="#BC8832"/>
<path d="M117.224 57.9099C117.771 58.7357 118.27 59.5716 118.532 60.4715C118.152 60.3707 117.765 60.1285 117.389 59.8067C117.925 60.7776 118.451 61.7572 118.841 62.8264C117.82 62.5469 116.415 61.785 115.61 60.6794C115.683 60.928 115.768 61.1808 115.873 61.4417C116.211 62.2821 116.583 63.2445 117.134 63.9726C116.572 63.9354 115.767 63.5277 115.537 62.9378C115.566 63.0412 115.595 63.1445 115.618 63.2488C115.595 63.2224 115.573 63.1915 115.552 63.1617C115.627 63.6279 115.716 64.1484 115.882 64.6095C115.759 64.415 115.641 64.218 115.552 64.0018C115.574 65.1223 115.895 66.5274 116.303 67.5605C116.067 67.0542 115.806 66.57 115.662 66.0277C115.249 66.7573 115.937 68.1375 116.052 68.9785C115.958 68.5873 115.767 68.2093 115.696 67.8002C115.667 67.9456 115.666 68.0988 115.684 68.2586C115.806 68.5988 115.933 68.9252 116.073 69.2281C115.976 69.0755 115.885 68.9197 115.795 68.7608C116.041 69.578 116.568 70.4915 116.472 71.252C115.298 71.0401 114.275 69.4647 113.719 68.4845C113.554 68.1953 113.392 67.8881 113.233 67.5654C113.407 69.0941 114.233 70.5081 114.117 72.0194C112.884 71.8221 112.236 69.2551 111.934 68.045C111.856 67.7357 111.778 67.4073 111.705 67.066C111.656 67.8995 111.629 68.7311 111.59 69.5866C111.564 70.1734 111.514 70.8849 111.297 71.4404C110.517 70.4528 110.394 68.4086 110.588 67.0485C110.37 67.8806 110.23 68.658 110.152 69.4787C109.854 68.8201 109.937 67.8634 109.865 67.1144C109.37 67.8715 109.269 68.5813 109.16 69.4601C108.606 67.6235 108.344 66.2668 108.98 64.3085C108.227 64.6212 107.603 65.6818 106.91 66.1989C106.169 66.7513 105.433 66.7605 104.643 66.8541C105.833 65.2557 107.551 63.9334 108.5 62.0876C108.431 62.1335 108.368 62.193 108.303 62.2434C108.45 61.9531 108.687 61.6971 108.887 61.4597C108.149 61.7538 107.41 62.0902 106.685 62.449C107.032 62.205 107.473 61.9239 107.937 61.6066C107.127 61.8491 106.355 61.9493 105.755 61.8365C107.06 61.543 107.835 60.7184 108.512 59.7714C108.265 59.819 108.01 59.8364 107.743 59.8164C108.015 59.4762 108.316 59.1589 108.631 58.8497C108.889 58.4502 109.283 58.0943 109.38 57.6104C108.997 57.8017 108.564 58.0311 108.15 58.1384C108.63 57.7501 109.089 57.3063 109.51 56.8213C108.581 57.2516 107.511 58.1771 106.412 57.889C107.073 57.355 109.122 56.039 110.231 54.7771C109.859 54.9105 109.485 55.001 109.149 54.958C109.402 54.5205 109.835 54.2917 109.969 53.7571C109.18 54.0741 108.101 54.7679 107.315 54.5531C109.251 53.1967 110.939 52.0116 112.625 50.0682C112.699 49.9829 112.776 49.8949 112.856 49.803C113.032 49.6017 113.221 49.3844 113.408 49.1565C113.645 48.6714 113.961 48.2556 114.199 47.7777C114.497 47.1773 114.566 46.4803 115.043 46.0059L115.18 46.0425C115.16 46.0958 115.143 46.1499 115.128 46.2046C115.413 47.1008 115.492 48.3089 115.828 49.2873C115.994 49.7704 116.21 50.1887 116.457 50.5827C116.805 51.1351 117.209 51.637 117.608 52.192C117.272 52.182 116.932 51.9128 116.644 51.5743C116.424 51.3152 116.235 51.0165 116.103 50.764C116.313 51.345 116.393 51.9947 116.633 52.5447C116.464 52.2063 116.298 51.8615 116.174 51.4985C116.252 52.0694 116.464 52.5754 116.728 53.0524C117.287 54.0601 118.085 54.9331 118.365 55.9992C117.616 55.6447 117.031 54.6743 116.527 53.9976C116.525 54.0254 116.523 54.0521 116.521 54.0795C116.6 54.2559 116.687 54.4266 116.782 54.5881C117.047 55.0425 117.459 55.3011 117.694 55.7117C117.394 55.6527 117.098 55.541 116.824 55.3769C117.094 55.9734 117.495 56.5432 117.835 56.9684C118.387 57.6594 118.207 58.1341 119.952 59.2406C119.149 59.252 118.109 58.6891 117.224 57.9099Z" fill="#BFBF37"/>
<path opacity="0.12" d="M117.224 57.9106C117.771 58.7364 118.27 59.5722 118.532 60.4722C118.152 60.3714 117.765 60.1292 117.389 59.8073C117.925 60.7783 118.451 61.7579 118.841 62.8271C117.82 62.5476 116.415 61.7857 115.61 60.6801C115.683 60.9286 115.768 61.1815 115.873 61.4423C116.211 62.2828 116.583 63.2452 117.134 63.9733C116.572 63.9361 115.767 63.5283 115.537 62.9385C115.566 63.0418 115.595 63.1452 115.618 63.2494C115.595 63.2231 115.573 63.1922 115.552 63.1624C115.627 63.6286 115.716 64.1491 115.882 64.6101C115.759 64.4157 115.641 64.2187 115.552 64.0025C115.574 65.123 115.895 66.5281 116.303 67.5612C116.067 67.0549 115.806 66.5707 115.662 66.0284C115.249 66.758 115.937 68.1381 116.052 68.9791C115.958 68.588 115.767 68.21 115.696 67.8008C115.667 67.9463 115.666 68.0995 115.684 68.2593C115.806 68.5994 115.933 68.9259 116.073 69.2288C115.976 69.0762 115.885 68.9204 115.795 68.7615C116.041 69.5787 116.568 70.4922 116.472 71.2527C115.298 71.0408 114.275 69.4653 113.719 68.4852C113.554 68.196 113.392 67.8887 113.233 67.566C113.407 69.0948 114.233 70.5088 114.117 72.0201C112.884 71.8228 112.236 69.2557 111.934 68.0457C111.856 67.7364 111.778 67.408 111.705 67.0667C111.656 67.9002 111.629 68.7317 111.59 69.5873C111.564 70.174 111.514 70.8856 111.297 71.4411C110.517 70.4535 110.394 68.4093 110.588 67.0492C110.37 67.8813 110.23 68.6587 110.152 69.4794C109.854 68.8208 109.937 67.8641 109.865 67.115C109.37 67.8721 109.269 68.582 109.16 69.4608C108.606 67.6242 108.344 66.2675 108.98 64.3092C108.227 64.6219 107.603 65.6825 106.91 66.1996C106.169 66.752 105.433 66.7611 104.643 66.8548C105.833 65.2564 107.551 63.9341 108.5 62.0883C108.431 62.1341 108.368 62.1937 108.303 62.2441C108.45 61.9538 108.687 61.6978 108.887 61.4604C108.149 61.7545 107.41 62.0909 106.685 62.4497C107.032 62.2057 107.473 61.9245 107.937 61.6073C107.127 61.8498 106.355 61.95 105.755 61.8372C107.06 61.5437 107.835 60.719 108.512 59.7721C108.265 59.8196 108.01 59.8371 107.743 59.8171C108.015 59.4769 108.316 59.1596 108.631 58.8504C108.889 58.4509 109.283 58.095 109.38 57.6111C108.997 57.8024 108.564 58.0317 108.15 58.1391C108.63 57.7508 109.089 57.307 109.51 56.8219C108.581 57.2523 107.511 58.1778 106.412 57.8897C107.073 57.3557 109.122 56.0397 110.231 54.7777C109.859 54.9112 109.485 55.0017 109.149 54.9587C109.402 54.5212 109.835 54.2924 109.969 53.7578C109.18 54.0748 108.101 54.7686 107.315 54.5538C109.251 53.1974 110.939 52.0123 112.625 50.0689C112.699 49.9835 112.776 49.8956 112.856 49.8037C112.658 50.2742 112.398 50.714 112.06 51.0957C111.395 51.8508 110.61 52.4996 109.953 53.2541C110.444 53.1814 110.864 52.7731 111.322 52.6757C111.137 53.0909 110.856 53.4872 110.641 53.8924C110.781 53.7564 110.968 53.6516 111.109 53.517C110.962 53.8406 110.716 54.1017 110.601 54.4419C111.46 54.4046 112.358 53.3062 112.906 52.6597C112.877 54.1635 111.257 55.8504 110.136 56.7206C110.594 56.6473 110.974 56.308 111.377 56.0875C111.255 56.903 110.601 57.5011 110.457 58.2688C110.554 58.1884 110.727 58.1142 110.834 58.0197C110.787 58.3238 110.592 58.5915 110.469 58.8693C110.55 58.7559 110.627 58.6588 110.716 58.5517C110.492 58.8621 110.254 59.2484 110.2 59.6298C110.533 59.4463 110.786 59.0952 111.141 58.8905C111.225 59.9602 110.249 61.3335 109.838 62.283C111.283 61.6995 112.299 59.1089 112.892 57.9212C112.514 59.3168 111.739 60.5819 111.439 62.0425C111.228 63.0728 111.083 64.0741 110.98 65.1052C111.087 64.3773 111.334 63.5472 111.784 63.2177C111.779 64.3138 111.52 65.417 111.85 66.4931C111.9 65.7103 111.865 64.8335 112.126 64.0884C112.422 64.7227 112.228 65.6805 112.464 66.4061C112.496 65.8291 112.446 65.1187 112.692 64.5895C113.092 65.2873 113.053 66.3101 113.308 67.1019C113.472 67.6136 113.821 68.0855 113.953 68.5851C114.127 66.6927 114.031 64.7522 114.173 62.8357C114.139 63.4628 114.332 64.2522 114.853 64.6056C114.598 62.7644 114.358 60.8897 114.639 58.9996C115.316 60.1272 116.276 60.8362 117.532 61.1322C116.794 60.2071 115.921 58.8289 116.01 57.587C116.159 58.012 116.394 58.4212 116.604 58.8166C116.555 58.3994 116.484 57.9561 116.388 57.5467C116.474 57.7219 116.584 57.8828 116.668 58.0627C116.555 57.5395 116.313 57.0373 116.339 56.5038C115.661 55.3284 115.071 53.7924 115.124 52.5337C115.215 53.1593 115.648 53.7638 116.2 54.1034C116.227 53.6796 115.925 53.334 115.92 52.9028C116.164 53.1467 116.351 53.4528 116.614 53.6172C116.696 53.4385 116.733 53.2441 116.728 53.0534C117.287 54.061 118.085 54.9341 118.365 56.0001C117.616 55.6457 117.031 54.6752 116.527 53.9986C116.525 54.0264 116.523 54.053 116.521 54.0805C116.6 54.2569 116.687 54.4276 116.782 54.589C117.047 55.0435 117.459 55.302 117.694 55.7127C117.394 55.6537 117.098 55.542 116.824 55.3779C117.094 55.9744 117.495 56.5442 117.835 56.9694C118.387 57.6603 118.207 58.1351 119.952 59.2415C119.149 59.2527 118.109 58.6897 117.224 57.9106Z" fill="#444F09"/>
<path d="M57.0684 50.4295L57.9616 55.8849L58.8397 62.258L59.2345 64.2529L60.5452 65.0632L59.5707 61.3949L57.0952 49.1719L57.0684 50.4295Z" fill="#BC8832"/>
<path d="M62.0716 49.1271C62.8808 49.7147 63.6491 50.3291 64.2115 51.0902C63.8172 51.1315 63.3636 51.041 62.8932 50.8718C63.7433 51.5994 64.5869 52.341 65.3318 53.216C64.2634 53.32 62.6596 53.1026 61.5086 52.3424C61.6643 52.5537 61.8344 52.7622 62.0259 52.9727C62.6408 53.649 63.3321 54.4287 64.1111 54.9229C63.5636 55.0899 62.6554 54.9931 62.2295 54.516C62.2938 54.6034 62.3576 54.6916 62.4174 54.782C62.3858 54.7646 62.3542 54.7445 62.3234 54.7231C62.5578 55.1391 62.8246 55.6021 63.1436 55.9807C62.9589 55.8389 62.7778 55.6952 62.6173 55.5217C63.032 56.5785 63.8288 57.7981 64.5799 58.6322C64.1777 58.2373 63.7599 57.8717 63.4319 57.4072C63.296 58.2496 64.4321 59.3143 64.8368 60.0702C64.6109 59.7326 64.2958 59.4422 64.0868 59.0797C64.1085 59.2286 64.161 59.3747 64.2346 59.5196C64.4693 59.7985 64.7059 60.0639 64.944 60.3007C64.7982 60.1913 64.6566 60.0753 64.5158 59.9568C65.0376 60.6449 65.8581 61.3232 66.0327 62.0803C64.8433 62.3042 63.3182 61.1752 62.4461 60.4447C62.1883 60.2285 61.9266 59.9955 61.662 59.7469C62.3641 61.1365 63.6449 62.1831 64.0631 63.6609C62.8235 63.9178 61.3069 61.7132 60.5947 60.6727C60.4128 60.4061 60.2238 60.1229 60.0346 59.8248C60.2819 60.634 60.5471 61.4352 60.8099 62.2621C60.991 62.8291 61.1933 63.5229 61.1817 64.1299C60.0938 63.4736 59.2601 61.5749 58.9684 60.2114C59.0528 61.0815 59.191 61.871 59.4048 62.6788C58.8909 62.1605 58.6342 61.2224 58.3031 60.5364C58.0986 61.4349 58.2512 62.145 58.4557 63.0198C57.2854 61.4753 56.5606 60.2792 56.4782 58.1886C55.8729 58.7579 55.6509 59.992 55.174 60.7331C54.6632 61.5262 53.9671 61.8008 53.2476 62.1751C53.8196 60.226 54.9892 58.3484 55.2431 56.251C55.1946 56.3191 55.1548 56.399 55.1111 56.4712C55.1492 56.1422 55.2848 55.8126 55.3909 55.5154C54.7926 56.0606 54.2082 56.647 53.6447 57.2497C53.8898 56.8929 54.2105 56.4669 54.5408 55.997C53.8551 56.521 53.1559 56.8941 52.5469 57.0035C53.6842 56.2535 54.131 55.1898 54.4432 54.045C54.2243 54.1802 53.9891 54.289 53.7287 54.3663C53.867 53.9451 54.0424 53.5333 54.2325 53.1261C54.3377 52.6537 54.587 52.1732 54.5109 51.6781C54.2147 51.9979 53.8827 52.3725 53.5262 52.6245C53.8466 52.0821 54.1281 51.4943 54.3566 50.8812C53.6261 51.6263 52.9336 52.8908 51.7879 53.0147C52.2282 52.2685 53.7152 50.2773 54.3259 48.6778C54.019 48.9387 53.6949 49.1597 53.3612 49.2402C53.4475 48.7331 53.7798 48.3594 53.7197 47.8022C53.0797 48.3886 52.2993 49.4389 51.4766 49.5174C52.8408 47.5296 54.0314 45.7924 54.9514 43.337C54.9923 43.2296 55.0346 43.1176 55.0792 43.0011C55.1754 42.746 55.2772 42.4728 55.3765 42.1882C55.4321 41.641 55.5858 41.1319 55.6439 40.5921C55.7181 39.9138 55.5387 39.2268 55.8252 38.6023L55.9674 38.5889C55.9688 38.6456 55.9716 38.7028 55.9756 38.761C56.5603 39.51 57.0592 40.6293 57.7215 41.4377C58.0489 41.8368 58.4015 42.1567 58.7744 42.4419C59.2981 42.8419 59.8575 43.1723 60.4314 43.5555C60.1088 43.6683 59.691 43.5348 59.2987 43.3161C59 43.1497 58.7151 42.9344 58.5002 42.7411C58.9041 43.2181 59.207 43.8066 59.629 44.243C59.3481 43.9824 59.0708 43.7138 58.8246 43.4149C59.0999 43.9291 59.4781 44.3337 59.8955 44.6908C60.7812 45.4473 61.8451 45.9885 62.4851 46.8999C61.6499 46.8346 60.753 46.1242 60.0368 45.6618C60.0442 45.689 60.0521 45.715 60.0611 45.7417C60.1973 45.8808 60.3389 46.0123 60.4856 46.1314C60.8963 46.4673 61.3791 46.5638 61.7461 46.8693C61.442 46.9214 61.1205 46.9225 60.8029 46.8653C61.268 47.3346 61.8487 47.7315 62.322 48.0135C63.0892 48.4699 63.0841 48.9871 65.129 49.4083C64.3711 49.7084 63.186 49.5497 62.0716 49.1271Z" fill="#BFBF37"/>
<path opacity="0.12" d="M62.0716 49.127C62.8808 49.7145 63.6491 50.329 64.2115 51.0901C63.8172 51.1314 63.3636 51.0409 62.8932 50.8716C63.7433 51.5992 64.5869 52.3409 65.3318 53.2159C64.2634 53.3199 62.6596 53.1025 61.5086 52.3423C61.6643 52.5536 61.8344 52.7621 62.0259 52.9725C62.6408 53.6489 63.3321 54.4286 64.1111 54.9228C63.5636 55.0897 62.6554 54.993 62.2295 54.5159C62.2938 54.6032 62.3576 54.6914 62.4174 54.7819C62.3858 54.7645 62.3542 54.7444 62.3234 54.7229C62.5578 55.139 62.8246 55.602 63.1436 55.9805C62.9589 55.8388 62.7778 55.6951 62.6173 55.5215C63.032 56.5784 63.8288 57.798 64.5799 58.6321C64.1777 58.2372 63.7599 57.8715 63.4319 57.4071C63.296 58.2495 64.4321 59.3141 64.8368 60.0701C64.6109 59.7325 64.2958 59.4421 64.0868 59.0796C64.1085 59.2285 64.161 59.3745 64.2346 59.5194C64.4693 59.7983 64.7059 60.0638 64.944 60.3006C64.7982 60.1912 64.6566 60.0752 64.5158 59.9567C65.0376 60.6448 65.8581 61.3231 66.0327 62.0802C64.8433 62.3041 63.3182 61.1751 62.4461 60.4446C62.1883 60.2284 61.9266 59.9953 61.662 59.7468C62.3641 61.1364 63.6449 62.183 64.0631 63.6608C62.8235 63.9176 61.3069 61.7131 60.5947 60.6725C60.4128 60.406 60.2238 60.1228 60.0346 59.8247C60.2819 60.6339 60.5471 61.4351 60.8099 62.262C60.991 62.829 61.1933 63.5228 61.1817 64.1298C60.0938 63.4735 59.2601 61.5748 58.9684 60.2112C59.0528 61.0814 59.191 61.8709 59.4048 62.6786C58.8909 62.1604 58.6342 61.2223 58.3031 60.5362C58.0986 61.4348 58.2512 62.1449 58.4557 63.0197C57.2854 61.4751 56.5606 60.2791 56.4782 58.1885C55.8729 58.7578 55.6509 59.9919 55.174 60.733C54.6632 61.5261 53.9671 61.8007 53.2476 62.175C53.8196 60.2258 54.9892 58.3483 55.2431 56.2508C55.1946 56.319 55.1548 56.3989 55.1111 56.471C55.1492 56.142 55.2848 55.8125 55.3909 55.5152C54.7926 56.0604 54.2082 56.6469 53.6447 57.2496C53.8898 56.8928 54.2105 56.4668 54.5408 55.9969C53.8551 56.5209 53.1559 56.894 52.5469 57.0034C53.6842 56.2534 54.131 55.1897 54.4432 54.0449C54.2243 54.18 53.9891 54.2888 53.7287 54.3661C53.867 53.9449 54.0424 53.5332 54.2325 53.126C54.3377 52.6535 54.587 52.1731 54.5109 51.678C54.2147 51.9978 53.8827 52.3724 53.5262 52.6243C53.8466 52.082 54.1281 51.4941 54.3566 50.8811C53.6261 51.6262 52.9336 52.8906 51.7879 53.0146C52.2282 52.2684 53.7152 50.2772 54.3259 48.6777C54.019 48.9385 53.6949 49.1596 53.3612 49.2401C53.4475 48.733 53.7798 48.3593 53.7197 47.8021C53.0797 48.3885 52.2993 49.4388 51.4766 49.5172C52.8408 47.5295 54.0314 45.7922 54.9514 43.3369C54.9923 43.2295 55.0346 43.1175 55.0792 43.001C55.0541 43.5201 54.9613 44.0324 54.774 44.5169C54.4068 45.4753 53.8884 46.3761 53.5293 47.329C53.9696 47.0839 54.2246 46.5427 54.6274 46.2853C54.5963 46.7466 54.468 47.2262 54.4054 47.6881C54.4903 47.5083 54.6313 47.3411 54.7182 47.1624C54.6928 47.5235 54.5504 47.8599 54.56 48.2253C55.3627 47.8794 55.8314 46.5107 56.1273 45.6977C56.6257 47.1383 55.6777 49.3268 54.9182 50.5584C55.3263 50.3239 55.5683 49.864 55.8749 49.5081C56.045 50.3279 55.632 51.1328 55.7649 51.9151C55.8283 51.8031 55.9668 51.6705 56.0368 51.5411C56.0977 51.8469 56.0049 52.1722 55.986 52.48C56.0227 52.3426 56.0633 52.2226 56.1104 52.0895C56.0058 52.4654 55.9158 52.919 55.9967 53.301C56.2506 53.0052 56.3679 52.5811 56.6328 52.2572C57.0871 53.2437 56.6407 54.9019 56.5831 55.9531C57.7519 54.8761 57.8106 52.0474 57.9578 50.7038C58.0879 52.1659 57.7942 53.6486 58.0213 55.1453C58.1818 56.2007 58.3945 57.2055 58.6587 58.2226C58.5059 57.4916 58.4495 56.6131 58.7603 56.1375C59.1396 57.1803 59.2804 58.3231 59.972 59.2265C59.7449 58.4646 59.4042 57.6433 59.3901 56.8416C59.8944 57.3375 60.0467 58.3171 60.5239 58.9218C60.3527 58.362 60.0549 57.7046 60.1048 57.1127C60.729 57.6319 61.0508 58.6177 61.5695 59.2786C61.9054 59.7056 62.4033 60.0283 62.7039 60.4563C62.2053 58.5934 61.4341 56.7837 60.8963 54.9122C61.0847 55.5195 61.5453 56.201 62.1635 56.3488C61.2759 54.6903 60.3914 52.9954 59.9954 51.0979C61.0342 51.9248 62.1951 52.2512 63.4925 52.0794C62.4673 51.4672 61.1535 50.4731 60.804 49.2593C61.0943 49.6097 61.4609 49.9144 61.7988 50.2142C61.6053 49.8351 61.3848 49.4385 61.149 49.0846C61.2923 49.2197 61.4542 49.3331 61.5955 49.4737C61.3058 49.0173 60.8994 48.6267 60.7361 48.111C59.6803 47.2383 58.5803 45.9921 58.1894 44.7766C58.496 45.3378 59.119 45.7562 59.7624 45.8801C59.6394 45.4675 59.2313 45.2476 59.0756 44.8393C59.3938 44.9833 59.6786 45.2067 59.9864 45.2685C60.001 45.0686 59.9686 44.8714 59.8955 44.6907C60.7812 45.4472 61.8451 45.9884 62.4851 46.8998C61.6499 46.8345 60.753 46.1241 60.0368 45.6617C60.0442 45.6889 60.0521 45.7149 60.0611 45.7415C60.1973 45.8807 60.3389 46.0121 60.4856 46.1313C60.8963 46.4671 61.3791 46.5636 61.7461 46.8692C61.442 46.9213 61.1205 46.9224 60.8029 46.8652C61.268 47.3345 61.8487 47.7313 62.322 48.0134C63.0892 48.4698 63.0841 48.9869 65.129 49.4082C64.3711 49.7082 63.186 49.5496 62.0716 49.127Z" fill="#444F09"/>
<path d="M46.6914 56.0125L47.3759 60.1943L48.0495 65.0801L48.3513 66.6095L49.3571 67.2305L48.6099 64.4184L46.7123 55.0479L46.6914 56.0125Z" fill="#BC8832"/>
<path d="M50.5288 55.0135C51.1487 55.4648 51.7374 55.9358 52.1689 56.518C51.866 56.55 51.5191 56.4816 51.158 56.3507C51.8093 56.9094 52.4566 57.4775 53.028 58.1487C52.2087 58.228 50.9792 58.0611 50.097 57.4789C50.2163 57.6407 50.3469 57.8005 50.4938 57.9625C50.9648 58.4811 51.4959 59.0781 52.0925 59.4567C51.6728 59.585 50.9767 59.5108 50.6495 59.1449C50.6997 59.2113 50.7482 59.2794 50.7936 59.3484C50.7697 59.3361 50.7454 59.3201 50.722 59.3032C50.9014 59.6233 51.1061 59.9775 51.3507 60.2679C51.2091 60.1591 51.07 60.0483 50.9476 59.9157C51.2652 60.7255 51.8762 61.6612 52.4515 62.3009C52.1433 61.9977 51.8228 61.7171 51.5727 61.362C51.4677 62.008 52.339 62.8235 52.6495 63.4036C52.4758 63.1448 52.2346 62.9226 52.0744 62.6442C52.0914 62.7582 52.1311 62.8699 52.1881 62.981C52.3678 63.1952 52.5494 63.3976 52.7308 63.5803C52.6202 63.4955 52.5113 63.407 52.4027 63.3166C52.8024 63.844 53.4317 64.3637 53.5656 64.9438C52.6546 65.1159 51.4847 64.2509 50.8159 63.6908C50.6196 63.525 50.4179 63.3455 50.2157 63.1554C50.7533 64.2217 51.7354 65.0226 52.0558 66.1553C51.1056 66.3535 49.943 64.6629 49.3978 63.8649C49.2581 63.6613 49.1126 63.4431 48.9676 63.2155C49.1569 63.8354 49.3602 64.4499 49.5613 65.0841C49.701 65.5182 49.855 66.0503 49.8465 66.5159C49.0119 66.0122 48.3733 64.5567 48.1491 63.5116C48.2146 64.1779 48.3203 64.7841 48.4845 65.4031C48.0907 65.0057 47.8941 64.2858 47.6397 63.761C47.4829 64.4502 47.6005 64.9937 47.7571 65.6654C46.8596 64.4802 46.3042 63.5637 46.2405 61.961C45.7771 62.3971 45.6067 63.3432 45.2406 63.9119C44.8499 64.5192 44.3155 64.7299 43.7643 65.0169C44.2024 63.5224 45.099 62.083 45.2942 60.4758C45.2575 60.5279 45.2262 60.5892 45.1929 60.6439C45.2217 60.3919 45.3261 60.1399 45.4073 59.912C44.9484 60.3292 44.5005 60.7799 44.0684 61.2414C44.2565 60.9674 44.5019 60.641 44.7555 60.2808C44.2303 60.6822 43.6941 60.9686 43.2273 61.0527C44.0983 60.4775 44.4415 59.6614 44.681 58.7841C44.5132 58.8877 44.3321 58.9708 44.1327 59.0306C44.2393 58.7079 44.3738 58.3923 44.5194 58.0794C44.6003 57.7174 44.7918 57.3483 44.7329 56.9704C44.5058 57.2143 44.2514 57.5018 43.9773 57.6948C44.2235 57.2793 44.4398 56.8289 44.6144 56.3585C44.0543 56.9303 43.5232 57.8996 42.6449 57.9943C42.983 57.4219 44.1223 55.896 44.5913 54.6693C44.3558 54.8701 44.1079 55.039 43.8515 55.1017C43.9175 54.712 44.1719 54.4262 44.1262 53.9984C43.6357 54.4486 43.0369 55.2538 42.4062 55.3136C43.4529 53.7891 44.3645 52.4576 45.0708 50.5758C45.1013 50.4933 45.134 50.4077 45.1684 50.3181C45.242 50.1228 45.3201 49.9121 45.3954 49.695C45.4383 49.2758 45.5565 48.8847 45.6016 48.4709C45.658 47.9506 45.5204 47.4255 45.7412 46.9456L45.849 46.9355C45.8504 46.9788 45.8521 47.0229 45.8549 47.0675C46.3036 47.6411 46.6864 48.4995 47.1938 49.1192C47.4443 49.4259 47.7148 49.671 48.001 49.8889C48.4015 50.1955 48.8317 50.4492 49.2708 50.7425C49.0238 50.8292 48.7036 50.7273 48.403 50.5598C48.1734 50.4318 47.9553 50.2666 47.7909 50.1185C48.1006 50.4842 48.333 50.9354 48.656 51.2702C48.4419 51.07 48.2284 50.865 48.0397 50.6356C48.2504 51.0297 48.5409 51.3392 48.8604 51.6138C49.5399 52.1931 50.355 52.608 50.8461 53.3072C50.2056 53.2565 49.5176 52.7122 48.9685 52.3583C48.9744 52.3783 48.9809 52.3989 48.9868 52.419C49.0917 52.5255 49.2003 52.6254 49.3126 52.7182C49.6279 52.9756 49.998 53.0495 50.2789 53.284C50.0459 53.3238 49.8 53.3247 49.556 53.2806C49.9128 53.6405 50.3584 53.9452 50.7203 54.1608C51.3084 54.5104 51.3044 54.9073 52.8726 55.2294C52.2916 55.4596 51.3826 55.3379 50.5288 55.0135Z" fill="#BFBF37"/>
<path opacity="0.12" d="M50.5288 55.0128C51.1487 55.4641 51.7374 55.9351 52.1689 56.5172C51.866 56.5493 51.5191 56.4809 51.158 56.35C51.8093 56.9087 52.4566 57.4768 53.028 58.148C52.2087 58.2273 50.9792 58.0603 50.097 57.4782C50.2163 57.64 50.3469 57.7998 50.4938 57.9618C50.9648 58.4804 51.4959 59.0774 52.0925 59.456C51.6728 59.5843 50.9767 59.5101 50.6495 59.1441C50.6997 59.2106 50.7482 59.2787 50.7936 59.3477C50.7697 59.3354 50.7454 59.3194 50.722 59.3025C50.9014 59.6226 51.1061 59.9768 51.3507 60.2672C51.2091 60.1584 51.07 60.0476 50.9476 59.915C51.2652 60.7247 51.8762 61.6605 52.4515 62.3002C52.1433 61.997 51.8228 61.7163 51.5727 61.3613C51.4677 62.0073 52.339 62.8228 52.6495 63.4029C52.4758 63.144 52.2346 62.9218 52.0744 62.6435C52.0914 62.7575 52.1311 62.8692 52.1881 62.9803C52.3678 63.1944 52.5494 63.3969 52.7308 63.5796C52.6202 63.4948 52.5113 63.4063 52.4027 63.3158C52.8024 63.8433 53.4317 64.363 53.5656 64.9431C52.6546 65.1152 51.4847 64.2502 50.8159 63.6901C50.6196 63.5243 50.4179 63.3448 50.2157 63.1546C50.7533 64.221 51.7354 65.0219 52.0558 66.1546C51.1056 66.3528 49.943 64.6622 49.3978 63.8642C49.2581 63.6606 49.1126 63.4424 48.9676 63.2148C49.1569 63.8347 49.3602 64.4492 49.5613 65.0834C49.701 65.5175 49.855 66.0495 49.8465 66.5151C49.0119 66.0115 48.3733 64.556 48.1491 63.5108C48.2146 64.1772 48.3203 64.7834 48.4845 65.4024C48.0907 65.005 47.8941 64.2851 47.6397 63.7602C47.4829 64.4495 47.6005 64.9929 47.7571 65.6647C46.8596 64.4795 46.3042 63.563 46.2405 61.9603C45.7771 62.3964 45.6067 63.3425 45.2406 63.9112C44.8499 64.5185 44.3155 64.7292 43.7643 65.0161C44.2024 63.5217 45.099 62.0823 45.2942 60.4751C45.2575 60.5272 45.2262 60.5884 45.1929 60.6431C45.2217 60.3912 45.3261 60.1392 45.4073 59.9113C44.9484 60.3285 44.5005 60.7791 44.0684 61.2407C44.2565 60.9667 44.5019 60.6403 44.7555 60.2801C44.2303 60.6815 43.6941 60.9678 43.2273 61.052C44.0983 60.4768 44.4415 59.6607 44.681 58.7833C44.5132 58.887 44.3321 58.97 44.1327 59.0299C44.2393 58.7072 44.3738 58.3916 44.5194 58.0787C44.6003 57.7167 44.7918 57.3476 44.7329 56.9697C44.5058 57.2136 44.2514 57.5011 43.9773 57.6941C44.2235 57.2786 44.4398 56.8282 44.6144 56.3578C44.0543 56.9296 43.5232 57.8988 42.6449 57.9936C42.983 57.4212 44.1223 55.8953 44.5913 54.6686C44.3558 54.8694 44.1079 55.0383 43.8515 55.101C43.9175 54.7113 44.1719 54.4255 44.1262 53.9977C43.6357 54.4479 43.0369 55.253 42.4062 55.3129C43.4529 53.7884 44.3645 52.4569 45.0708 50.5751C45.1013 50.4926 45.134 50.407 45.1684 50.3174C45.1492 50.7151 45.0776 51.1083 44.9348 51.4802C44.6528 52.2132 44.2557 52.9048 43.9795 53.6352C44.3172 53.4471 44.5132 53.0328 44.8215 52.8355C44.7986 53.1885 44.6999 53.5568 44.652 53.911C44.7171 53.7724 44.8251 53.6444 44.8917 53.5072C44.8719 53.7844 44.7636 54.0424 44.7698 54.3216C45.3858 54.0564 45.7455 53.0076 45.9714 52.3851C46.3533 53.4892 45.6267 55.1666 45.044 56.1106C45.3574 55.9317 45.5432 55.5783 45.7779 55.3063C45.9088 55.9343 45.5915 56.5519 45.6939 57.1509C45.7421 57.0659 45.849 56.9628 45.9017 56.8643C45.9483 57.0988 45.8783 57.3479 45.8634 57.5844C45.8919 57.4788 45.9223 57.3874 45.9584 57.2844C45.878 57.573 45.8089 57.9206 45.8715 58.213C46.0653 57.9876 46.1561 57.6617 46.3592 57.4138C46.7075 58.1706 46.3651 59.4405 46.3217 60.2468C47.2172 59.4213 47.2621 57.2526 47.3749 56.2229C47.4747 57.3442 47.2494 58.481 47.424 59.6286C47.5461 60.4373 47.7094 61.2075 47.9122 61.9864C47.7951 61.4266 47.7523 60.7537 47.9903 60.3886C48.2814 61.1889 48.3889 62.0642 48.9194 62.7569C48.7454 62.1728 48.4842 61.544 48.4738 60.928C48.8596 61.3077 48.9761 62.0597 49.3428 62.5233C49.2113 62.094 48.9831 61.5904 49.0212 61.1356C49.5001 61.5342 49.7464 62.2902 50.1441 62.7973C50.401 63.1246 50.7832 63.3708 51.0139 63.699C50.6315 62.2716 50.0408 60.884 49.6285 59.4485C49.7726 59.9147 50.1257 60.4367 50.599 60.5501C49.919 59.2779 49.2395 57.9787 48.9377 56.5244C49.7337 57.1586 50.6238 57.4086 51.6181 57.2766C50.8323 56.807 49.8256 56.0445 49.5568 55.1145C49.7791 55.3836 50.0609 55.6173 50.3201 55.8472C50.1723 55.5557 50.0019 55.2528 49.8211 54.9807C49.9314 55.085 50.0552 55.1714 50.1635 55.2797C49.9418 54.9306 49.6302 54.6305 49.5055 54.2348C48.6954 53.5656 47.8524 52.6101 47.5531 51.6786C47.7872 52.1093 48.2648 52.4297 48.7586 52.5242C48.6647 52.2084 48.3516 52.0397 48.2318 51.7265C48.4757 51.837 48.6943 52.0085 48.9298 52.0555C48.9417 51.9023 48.9163 51.7502 48.8604 51.6131C49.5399 52.1923 50.355 52.6073 50.8461 53.3065C50.2056 53.2558 49.5176 52.7115 48.9685 52.3576C48.9744 52.3776 48.9809 52.3982 48.9868 52.4183C49.0917 52.5248 49.2003 52.6247 49.3126 52.7175C49.6279 52.9749 49.998 53.0488 50.2789 53.2833C50.0459 53.3231 49.8 53.324 49.556 53.2799C49.9128 53.6398 50.3584 53.9445 50.7203 54.1601C51.3084 54.5097 51.3044 54.9066 52.8726 55.2287C52.2916 55.4589 51.3826 55.3372 50.5288 55.0128Z" fill="#444F09"/>
<path d="M132.066 82.731C132.158 89.7383 99.5294 85.5512 62.5811 86.0422C51.8092 86.1854 41.045 85.6205 30.3087 84.7766C26.0097 84.4387 21.6909 83.8225 17.4164 84.126C13.7266 84.3872 9.62215 81.6632 9.5271 77.6344C9.43233 73.5878 13.3097 71.2092 15.9167 69.2692C19.3947 66.6818 24.5018 66.4794 28.6418 65.245C39.5239 62.0005 50.945 60.8136 62.2542 60.6647C99.2016 60.1739 131.977 75.7234 132.066 82.731Z" fill="#D1C024"/>
<path d="M15.3477 64.6116L16.4852 69.0238L38.9515 66.618L38.7738 62.1035L15.3477 64.6116Z" fill="#681537"/>
<path d="M51.0245 53.4004L64.3227 59.4671L61.393 61.1597L48.4609 55.3501L51.0245 53.4004Z" fill="#681537"/>
<path d="M62.4893 60.0565L62.9042 64.0539L38.9524 66.6181L38.6819 63.3449L38.582 62.1225L49.5682 54.3438L62.4893 60.0565Z" fill="#E0764C"/>
<path opacity="0.35" d="M62.4893 60.0565L62.6256 61.3729L49.9978 55.6775L39.9553 63.2077L38.6819 63.3449L38.582 62.1225L49.5682 54.3438L62.4893 60.0565Z" fill="#7A137F"/>
<path d="M27.3867 55.7341L13.8711 64.8681L39.0129 62.5212L51.0244 53.4004L27.3867 55.7341Z" fill="#751231"/>
<path opacity="0.75" d="M57.2403 60.4206L44.6621 61.7676L45.0977 65.9602L57.6759 64.6133L57.2403 60.4206Z" fill="#751231"/>
<g opacity="0.25">
<path d="M22.1127 65.2185L18.3203 65.625L18.447 66.8429L22.2394 66.4365L22.1127 65.2185Z" fill="#E0764C"/>
<path d="M28.2087 64.5652L24.416 64.9717L24.5427 66.1893L28.3353 65.7828L28.2087 64.5652Z" fill="#E0764C"/>
<path d="M34.544 63.8875L30.752 64.2939L30.8786 65.5122L34.6707 65.1057L34.544 63.8875Z" fill="#E0764C"/>
</g>
<path d="M57.2363 60.4209L57.4431 62.4176L48.1181 65.636L45.0937 65.9596L44.6582 61.767L57.2363 60.4209Z" fill="#681537"/>
<path d="M94.2292 40.6904L101.11 44.3582L107.369 52.6211L106.018 52.5936L91.5957 41.422L94.2292 40.6904Z" fill="#751231"/>
<path d="M101.756 68.0958L84.3828 67.7459L87.7767 48.3517L87.8614 47.8652L92.6506 48.4505L101.251 49.4994L101.374 54.0459L101.756 68.0958Z" fill="#A5193E"/>
<path opacity="0.75" d="M102.137 48.6406L101.374 54.0459L100.905 57.3735L87.7908 67.8144L84.3828 67.7453L87.7773 48.3506L102.137 48.6406Z" fill="#751231"/>
<path d="M64.7637 51.4192L66.3319 67.4787L80.8093 67.7707L81.2826 51.0166L64.7637 51.4192Z" fill="#E0764C"/>
<path d="M87.8809 51.7379L87.5673 67.8089L87.2773 67.8034L87.5924 51.7319C87.5938 51.6495 87.6618 51.5868 87.7393 51.5879C87.8206 51.5893 87.8823 51.6561 87.8809 51.7379Z" fill="#751231"/>
<path d="M88.7498 51.7555L88.4362 67.8264L88.1465 67.821L88.4613 51.7501C88.4624 51.6676 88.5306 51.6041 88.6082 51.6055C88.688 51.6075 88.7509 51.6736 88.7498 51.7555Z" fill="#751231"/>
<path d="M89.6178 51.7721L89.3028 67.8427L89.0137 67.8376L89.3273 51.7667C89.3301 51.6848 89.397 51.6209 89.4757 51.6221C89.5575 51.6235 89.6198 51.6899 89.6178 51.7721Z" fill="#751231"/>
<path d="M90.487 51.7904L90.1722 67.8613L89.8828 67.8556L90.1973 51.7847C90.1987 51.7028 90.2667 51.6389 90.3445 51.6407C90.4258 51.6418 90.4889 51.7079 90.487 51.7904Z" fill="#751231"/>
<path d="M91.3569 51.808L91.0433 67.8795L90.7539 67.8732L91.0681 51.8023C91.0695 51.7204 91.1375 51.6562 91.2151 51.6582C91.2954 51.66 91.3592 51.7255 91.3569 51.808Z" fill="#751231"/>
<path d="M92.225 51.8256L91.9113 67.8973L91.6211 67.8916L91.9364 51.8204C91.937 51.7379 92.0047 51.6747 92.0834 51.6758C92.1649 51.6778 92.2264 51.7431 92.225 51.8256Z" fill="#751231"/>
<path d="M93.0941 51.8426L92.7791 67.9143L92.4902 67.9092L92.8039 51.8374C92.8061 51.7549 92.8735 51.6922 92.9522 51.6934C93.0326 51.6945 93.0952 51.7607 93.0941 51.8426Z" fill="#751231"/>
<path d="M93.9621 51.86L93.6471 67.9309L93.3574 67.9258L93.6719 51.854C93.673 51.7713 93.7416 51.7086 93.8191 51.71C93.9004 51.7114 93.963 51.7781 93.9621 51.86Z" fill="#751231"/>
<path d="M94.8324 51.8785L94.5185 67.9488L94.2285 67.9433L94.5422 51.8716C94.5447 51.7897 94.6124 51.7264 94.6905 51.7276C94.7712 51.7298 94.8344 51.7957 94.8324 51.8785Z" fill="#751231"/>
<path d="M95.6987 51.8957L95.3851 67.9664L95.0957 67.9609L95.4093 51.8892C95.4119 51.8073 95.4796 51.744 95.5574 51.7451C95.6378 51.7471 95.701 51.813 95.6987 51.8957Z" fill="#751231"/>
<path d="M96.5681 51.9135L96.2545 67.9847L95.9648 67.9784L96.2788 51.9077C96.2802 51.8256 96.3482 51.7617 96.4268 51.7637C96.5072 51.7654 96.5693 51.8307 96.5681 51.9135Z" fill="#751231"/>
<path d="M97.4379 51.9303L97.1237 68.0021L96.834 67.9952L97.1482 51.9249C97.1496 51.8424 97.2179 51.7791 97.2954 51.7803C97.3767 51.7826 97.4393 51.8484 97.4379 51.9303Z" fill="#751231"/>
<path d="M98.305 51.9486L97.9914 68.0204L97.7012 68.0144L98.0157 51.9434C98.0176 51.861 98.0845 51.7977 98.1629 51.7988C98.2433 51.8006 98.3065 51.8664 98.305 51.9486Z" fill="#751231"/>
<path d="M99.1748 51.9646L98.8597 68.0364L98.5703 68.0304L98.8848 51.9595C98.8873 51.8767 98.9542 51.814 99.0332 51.8155C99.1141 51.8169 99.1764 51.8819 99.1748 51.9646Z" fill="#751231"/>
<path d="M100.044 51.9828L99.7291 68.0537L99.4395 68.048L99.7542 51.9771C99.7554 51.8946 99.8236 51.8319 99.9012 51.833C99.9827 51.8342 100.045 51.9 100.044 51.9828Z" fill="#751231"/>
<path d="M100.912 52.0004L100.599 68.0718L100.309 68.0661L100.624 51.9946C100.625 51.9127 100.693 51.8492 100.771 51.8506C100.852 51.8523 100.914 51.9176 100.912 52.0004Z" fill="#751231"/>
<path d="M106.796 52.4634L106.717 53.2732L105.277 68.2133L100.792 68.1234L100.064 53.5046L88.1425 53.264L86.1196 67.8775L80.8105 67.7709L81.2551 52.0465L81.2838 51.0168L86.4897 44.0146L93.7914 40.9766L100.888 44.6984L106.796 52.4634Z" fill="#FFC552"/>
<path opacity="0.3" d="M106.795 52.4869L106.797 52.4634L100.889 44.6984L93.7922 40.9766L86.4905 44.0146L81.2846 51.0168L81.2559 52.0465L82.3138 52.0671L86.977 45.1033L93.8828 41.8977L100.08 45.3307L105.589 52.4629L106.795 52.4869Z" fill="#A5193E"/>
<path d="M94.2306 40.691L86.2897 44.3047L81.1908 52.0453L64.4688 51.7074L69.8353 43.6257L69.8404 43.6171L79.6124 40.1768L94.2306 40.691Z" fill="#751231"/>
<path d="M92.3741 45.63L92.3203 48.374L95.0235 48.4286L95.0773 45.6846L92.3741 45.63Z" fill="#9E3057"/>
<path d="M92.8774 45.8819L92.8359 48.0176L94.9405 48.0597L94.9819 45.924L92.8774 45.8819Z" fill="#84244B"/>
<path d="M68.9893 54.8347L68.9355 57.5781L71.6385 57.6327L71.6923 54.8893L68.9893 54.8347Z" fill="#9E3057"/>
<path d="M74.4188 54.9454L74.3652 57.6895L77.0684 57.7438L77.122 54.9998L74.4188 54.9454Z" fill="#9E3057"/>
<path opacity="0.5" d="M94.2312 40.691L86.4135 44.2102V44.2454L69.8359 43.6257L69.841 43.6171L79.613 40.1768L94.2312 40.691Z" fill="#FCA2BE"/>
<path d="M65.7849 51.7113C65.7728 51.7113 65.7601 51.7079 65.7494 51.7002C65.7214 51.6804 65.7141 51.6412 65.7336 51.6123L71.09 43.7184C71.0976 43.7072 71.1086 43.6989 71.1213 43.6946L81.4746 40.1297C81.5068 40.1177 81.5426 40.136 81.5536 40.1692C81.5646 40.2021 81.5474 40.2382 81.5147 40.2491L71.1811 43.8075L65.8365 51.6841C65.8244 51.7019 65.8046 51.7113 65.7849 51.7113Z" fill="#F5F5F5"/>
<path d="M67.3923 51.7572C67.3802 51.7572 67.3678 51.7538 67.3571 51.7463C67.3288 51.7266 67.3215 51.6873 67.341 51.6584L72.654 43.78C72.6616 43.7691 72.6723 43.7605 72.6847 43.7562L82.7438 40.1764C82.7768 40.1649 82.8118 40.1821 82.8231 40.2151C82.8344 40.248 82.8175 40.2841 82.785 40.2955L72.7451 43.8685L67.4434 51.73C67.4315 51.7477 67.4118 51.7572 67.3923 51.7572Z" fill="#F5F5F5"/>
<path d="M68.9978 51.8038C68.9857 51.8038 68.9733 51.8003 68.9629 51.7929C68.9344 51.7731 68.927 51.7339 68.9462 51.7053L74.2172 43.8395C74.2245 43.8286 74.235 43.8203 74.2474 43.8157L84.0132 40.2227C84.0453 40.2104 84.0811 40.2279 84.0927 40.2605C84.1045 40.2934 84.0879 40.3295 84.0555 40.3415L74.3083 43.9277L69.0489 51.7766C69.037 51.794 69.0176 51.8038 68.9978 51.8038Z" fill="#F5F5F5"/>
<path d="M70.6072 51.8484C70.5951 51.8484 70.583 51.845 70.5722 51.8375C70.5437 51.8181 70.5364 51.7788 70.5556 51.7499L75.7823 43.8993C75.7894 43.8884 75.7998 43.8801 75.8116 43.8755L85.2841 40.2676C85.3168 40.2556 85.352 40.2719 85.3642 40.3046C85.3763 40.3372 85.3597 40.3736 85.3278 40.3859L75.8737 43.9866L70.658 51.8206C70.647 51.8387 70.6272 51.8484 70.6072 51.8484Z" fill="#F5F5F5"/>
<path d="M72.2127 51.8958C72.2005 51.8958 72.1884 51.8924 72.178 51.8852C72.1495 51.8657 72.1419 51.8265 72.1608 51.7976L77.3449 43.961C77.3522 43.9504 77.3624 43.9421 77.3742 43.9372L86.5516 40.3147C86.5827 40.3024 86.6199 40.3182 86.6323 40.3508C86.6447 40.3834 86.6289 40.4198 86.5968 40.4327L77.4374 44.0478L72.2643 51.8677C72.2521 51.8861 72.2324 51.8958 72.2127 51.8958Z" fill="#F5F5F5"/>
<path d="M73.8198 51.9417C73.8077 51.9417 73.7961 51.9383 73.7854 51.9311C73.7569 51.9117 73.7493 51.8727 73.7682 51.8435L78.9083 44.0201C78.9154 44.0095 78.9252 44.0015 78.9368 43.9966L87.8237 40.3609C87.8558 40.3481 87.8917 40.3638 87.9046 40.3959C87.9173 40.4282 87.9021 40.4652 87.8699 40.4781L79.0011 44.1063L73.8714 51.9134C73.8593 51.932 73.8398 51.9417 73.8198 51.9417Z" fill="#F5F5F5"/>
<path d="M75.4272 51.9874C75.4154 51.9874 75.4035 51.984 75.3931 51.9771C75.3643 51.9576 75.3567 51.9187 75.3756 51.8895L80.4723 44.0804C80.479 44.0701 80.4883 44.0618 80.4999 44.0569L89.0921 40.4072C89.1245 40.3938 89.1603 40.4092 89.1736 40.4413C89.1868 40.4734 89.1719 40.5103 89.1403 40.5237L80.5656 44.166L75.4791 51.9591C75.4673 51.9777 75.4472 51.9874 75.4272 51.9874Z" fill="#F5F5F5"/>
<path d="M77.033 52.0336C77.0211 52.0336 77.0093 52.0301 76.9985 52.0233C76.9701 52.0041 76.9622 51.9649 76.9808 51.9356L82.0349 44.1411C82.0416 44.1311 82.0509 44.1231 82.0622 44.118L90.3616 40.4545C90.3924 40.4405 90.4299 40.4554 90.4434 40.4874C90.4569 40.5192 90.4428 40.5564 90.411 40.5705L82.1285 44.2265L77.0846 52.0055C77.073 52.0236 77.0533 52.0336 77.033 52.0336Z" fill="#F5F5F5"/>
<path d="M78.6402 52.0788C78.6284 52.0788 78.6168 52.0756 78.6064 52.0685C78.5776 52.0496 78.5694 52.0103 78.5883 51.9811L83.599 44.2007C83.6052 44.1906 83.6145 44.1826 83.6252 44.1778L91.6318 40.5C91.6631 40.4851 91.7001 40.4997 91.7142 40.5315C91.728 40.5633 91.7145 40.6008 91.6831 40.6151L83.6929 44.2854L78.6921 52.0504C78.6805 52.0688 78.6605 52.0788 78.6402 52.0788Z" fill="#F5F5F5"/>
<path d="M80.2495 52.1258C80.2376 52.1258 80.226 52.1226 80.2156 52.1158C80.1868 52.0969 80.1789 52.0576 80.1976 52.0284L85.1651 44.2611C85.171 44.2514 85.18 44.2434 85.1904 44.2385L92.9015 40.547C92.9322 40.5324 92.9697 40.5453 92.9844 40.5774C92.9993 40.6089 92.9861 40.6464 92.9548 40.6615L85.2595 44.3453L80.3016 52.0977C80.2898 52.1158 80.2698 52.1258 80.2495 52.1258Z" fill="#F5F5F5"/>
<path d="M74.8231 55.0404L74.7812 57.1758L76.8849 57.2183L76.9268 55.0829L74.8231 55.0404Z" fill="#84244B"/>
<path d="M69.4729 54.9597L69.4316 57.0957L71.5348 57.1376L71.576 55.0016L69.4729 54.9597Z" fill="#84244B"/>
<path d="M137.974 87.8923C138.451 95.9683 107.97 95.0666 71.0057 95.5576C34.0403 96.0481 4.17489 94.5832 4.11143 89.6696C4.04797 84.756 33.9627 80.3753 70.9284 79.8848C107.893 79.3934 137.684 82.9904 137.974 87.8923Z" fill="#A57521"/>
<path d="M133.554 91.0123C126.523 93.0832 111.545 92.7181 92.9237 92.5156C86.0303 92.4409 78.6375 92.3885 70.9637 92.4904C33.9991 92.9815 4.3582 94.1936 4.29502 89.2797C4.2403 84.9886 26.8665 78.4153 57.2198 76.4894C61.6255 76.2116 66.193 76.0298 70.8771 75.9671C83.3215 75.8019 94.9499 76.445 104.912 77.5569C124.542 79.7494 137.703 83.7633 137.895 87.015C138.006 88.8851 136.457 90.1568 133.554 91.0123Z" fill="#CCB425"/>
<path d="M65.617 96.9714C65.4997 98.1036 63.5693 98.8252 61.3053 98.5835C61.0387 98.5555 60.7798 98.5234 60.5288 98.4896C58.6419 98.2305 57.2432 97.7786 57.3472 96.7784C57.4623 95.67 60.6537 94.0742 62.9118 94.236C62.9595 94.2389 63.0063 94.2429 63.0526 94.248C65.318 94.4906 65.7355 95.8384 65.617 96.9714Z" fill="#A57521"/>
<path opacity="0.5" d="M64.1735 96.9471C63.4222 97.8302 61.8486 97.9728 60.6626 98.0618C60.6174 98.0653 60.5715 98.0687 60.5249 98.0727C58.6386 97.8411 57.2407 97.4353 57.3454 96.5331C57.4621 95.5334 60.6558 94.0908 62.9133 94.2334C64.1293 94.7889 65.2397 95.6964 64.1735 96.9471Z" fill="#FFE375"/>
<path d="M86.3918 98.8712C86.3303 99.6461 85.28 100.137 84.0471 99.9668C83.9016 99.9467 83.7611 99.9252 83.6232 99.9015C82.5965 99.7202 81.8336 99.4075 81.8875 98.7232C81.9487 97.9635 83.6841 96.876 84.9136 96.992C84.9398 96.9934 84.9652 96.996 84.9909 97C86.2237 97.1706 86.4539 98.0955 86.3918 98.8712Z" fill="#A57521"/>
<path opacity="0.5" d="M85.6037 98.8515C85.1967 99.4551 84.3407 99.5496 83.6948 99.6083C83.67 99.6111 83.6449 99.6137 83.6192 99.6163C82.5922 99.4542 81.8298 99.1739 81.8857 98.5557C81.9466 97.8713 83.6835 96.8883 84.913 96.9908C85.5761 97.3734 86.1825 97.9973 85.6037 98.8515Z" fill="#FFE375"/>
<path d="M89.0599 97.5514C89.03 97.9213 88.5296 98.1553 87.9418 98.0748C87.873 98.0642 87.8053 98.0539 87.7399 98.0424C87.2513 97.956 86.8872 97.8079 86.9134 97.4809C86.9422 97.119 87.7692 96.6004 88.3553 96.6554C88.3671 96.6565 88.3804 96.658 88.392 96.66C88.9803 96.741 89.0895 97.1817 89.0599 97.5514Z" fill="#A57521"/>
<path opacity="0.5" d="M88.6834 97.5422C88.4882 97.8294 88.0807 97.875 87.7732 97.9022C87.7611 97.9036 87.7496 97.9048 87.7371 97.9062C87.2475 97.8289 86.8845 97.6954 86.9116 97.4014C86.9412 97.0749 87.7679 96.6062 88.3543 96.6549C88.6705 96.8376 88.959 97.1348 88.6834 97.5422Z" fill="#FFE375"/>
<path d="M68.2732 98.3576C68.2261 98.9927 67.3943 99.3944 66.4156 99.2578C66.3003 99.2418 66.188 99.2237 66.08 99.2037C65.2651 99.0565 64.659 98.8034 64.7013 98.2427C64.7013 98.2396 64.7033 98.2342 64.7033 98.2301C64.756 97.6102 65.3351 96.7855 67.0968 96.8225C67.1185 96.8242 67.1385 96.8274 67.1577 96.8311C68.137 96.9677 68.322 97.7239 68.2732 98.3576Z" fill="#A57521"/>
<path opacity="0.5" d="M67.6503 98.343C67.3293 98.8366 66.6493 98.9151 66.1373 98.9652C66.1176 98.9669 66.0981 98.968 66.0781 98.9706C65.3332 98.8509 64.7643 98.6502 64.7051 98.2301C64.7578 97.6102 65.3369 96.7855 67.0986 96.8225C67.6263 97.134 68.1078 97.6431 67.6503 98.343Z" fill="#FFE375"/>
<path opacity="0.5" d="M92.9226 92.5153C94.2347 92.1669 95.4391 91.9395 95.9123 91.8224C99.8605 90.8428 103.89 90.7523 107.859 89.9635C108.551 89.826 110.855 89.5417 111.272 88.7852C112.936 85.7686 96.2573 86.0669 94.7799 86.1528C92.4369 86.29 71.7075 88.2068 72.3336 83.9451C72.7491 81.1178 81.3139 81.531 83.1266 81.3497C85.4897 81.1141 90.3396 81.1759 92.0914 79.3256C91.3634 77.5809 88.4103 77.8046 86.8252 77.6428C82.9704 77.2491 79.1635 77.5211 75.2997 77.469C71.3546 77.4166 67.4138 77.0732 63.4716 77.0538C61.5488 77.0437 59.1215 77.1915 57.2188 76.4894C61.6244 76.2116 66.192 76.0298 70.876 75.9671C107.841 75.4766 137.604 82.1137 137.894 87.015C138.272 93.4139 119.236 92.802 92.9226 92.5153Z" fill="#A8950B"/>
<path opacity="0.5" d="M133.553 91.0118C130.862 90.8263 128.234 90.3813 126.172 90.1895C124.202 90.0056 118.541 90.4623 119.652 87.1024C120.167 85.5396 121.873 85.413 120.644 83.7339C119.242 81.82 114.836 81.9308 112.863 81.655C110.851 81.3739 106.335 81.3578 105.264 79.2028C104.95 78.5703 104.846 78.026 104.911 77.5566C124.54 79.7492 137.701 83.7631 137.893 87.0148C138.004 88.8846 136.456 90.1562 133.553 91.0118Z" fill="#A08E0D"/>
<path d="M33.5003 77.1772C32.3966 75.3633 30.323 75.0368 28.3754 75.1433C28.2499 74.2485 27.7859 73.8385 27.1877 73.6495C27.5199 72.3965 27.892 71.5117 27.892 71.5117C27.3425 71.9011 26.9651 72.6885 26.7043 73.5418C26.592 73.5258 26.4775 73.5129 26.3618 73.5058C27.1584 69.7472 29.7484 69.2545 30.017 69.2129C26.9316 69.5417 25.6948 71.5626 25.2043 73.299C25.2037 73.2483 25.2018 73.2005 25.1975 73.1553C26.2902 67.6455 30.5921 67.1819 30.9635 66.9912C27.2875 67.3151 25.4807 70.0433 24.7801 72.3289C24.7547 72.3129 24.729 72.298 24.7011 72.2848C24.4955 72.1803 24.2394 72.1502 23.9545 72.1714C23.9384 72.1714 23.9224 72.1734 23.9052 72.1748C23.871 72.178 23.8363 72.182 23.8011 72.1857C22.7657 72.3226 21.4361 73.0513 20.8551 73.362C20.8048 70.0001 17.5251 69.4575 15.762 72.0033C15.1333 69.5462 12.5114 69.6499 9.53969 72.4217C7.75148 74.0916 6.13052 76.3666 8.39399 78.6121C5.95791 78.0082 4.93998 80.7244 5.28183 82.7523C3.90034 82.7343 1.82049 83.6606 2.57385 85.4877C3.398 87.4895 6.58068 86.981 8.17794 87.2109L8.16243 87.2029C8.42615 87.239 8.69099 87.2576 8.95471 87.2616C11.806 87.3083 14.7027 85.7159 17.6067 85.3425C18.9207 85.1745 20.2328 85.1839 21.5593 85.0261C23.0393 84.8509 24.2896 84.0205 25.6914 83.8017C27.485 83.52 28.7889 83.8098 30.5379 82.7658C30.9339 82.5289 32.4347 81.582 33.0064 80.7092C33.3446 80.1941 33.3579 79.7048 32.6271 79.4024C34.2551 79.6773 34.1301 78.2086 33.5003 77.1772Z" fill="#CCB425"/>
<path opacity="0.65" d="M13.0321 85.4593C12.5617 84.3357 13.3723 82.9438 14.5166 82.6812C13.8004 82.7617 11.6027 82.8776 11.9809 81.5771C12.3761 80.2144 15.2578 81.1547 16.1285 81.419C15.7697 81.2979 15.1986 80.3527 15.6262 80.0199C16.1496 79.6113 16.7484 80.8409 16.9919 81.1035C16.6602 80.2198 17.6897 80.5863 17.9429 81.1206C18.6568 79.8186 21.4353 80.5262 20.1291 81.5287C20.7623 80.9697 22.4837 81.3675 21.8942 82.3843C21.2821 83.4397 18.9262 83.2419 17.8845 83.3719C16.4763 83.5471 13.9917 84.3635 13.126 85.6815C13.2186 85.6082 13.2143 85.5226 13.2798 85.4309L13.0321 85.4593Z" fill="#E8D528"/>
<path opacity="0.65" d="M18.1768 76.8172C17.7204 77.9062 15.1202 78.9032 15.2784 77.0014C15.3235 76.4642 15.6479 75.8632 16.045 75.5047C16.1119 75.4448 17.2085 74.95 17.0996 75.2687C17.3444 74.5511 18.8328 73.1965 19.27 74.5159C19.4294 74.9964 19.0827 75.5261 18.784 75.8514C18.6154 76.0152 18.4334 76.1632 18.2385 76.2958C18.1105 76.5435 18.2715 76.591 18.1768 76.8172Z" fill="#E8D528"/>
<path d="M7.25401 76.8686C7.26614 76.7111 7.25006 76.5808 7.19393 76.4399C7.06221 76.1069 6.79483 75.8103 6.67383 75.4824C6.7466 75.6651 6.70175 75.8887 6.71219 76.1115C6.73334 76.5619 7.01737 77.0244 7.20691 77.1203L7.2038 77.1229C7.19619 77.1996 7.25006 76.9259 7.25401 76.8686Z" fill="#BC9F28"/>
<path d="M20.8572 73.3625C20.807 70.0006 17.5273 69.4579 15.7642 72.0038C15.1355 69.5467 12.5135 69.6504 9.54184 72.4222C8.92245 73.0008 8.32337 73.6523 7.89804 74.3495C4.75569 70.2686 0.335938 70.1094 0.335938 70.1094C3.91574 70.6961 6.39695 73.3024 7.60921 74.8938C7.57339 74.9746 7.53955 75.0559 7.50909 75.1372C6.51683 73.6947 4.06467 70.9816 2.00061 75.6315C2.58474 74.4094 4.34305 71.765 7.31052 75.9187C7.20221 76.7937 7.48201 77.7051 8.39642 78.6126C8.23142 78.5713 8.07375 78.5476 7.92229 78.5353C7.90763 78.4568 7.89211 78.3832 7.88337 78.3526C7.80355 78.0854 7.69721 77.8815 7.51783 77.6857C7.09419 77.2221 6.46944 76.9054 6.06752 76.4444C6.29993 76.6961 6.35972 77.4005 6.61103 77.6997C6.80593 77.9325 7.05047 78.1802 7.55986 78.5335C6.84852 78.5862 6.30134 78.9673 5.91493 79.518C5.62865 79.3425 5.32628 79.1168 5.10403 79.0687C4.75033 78.992 4.35913 79.1704 4.02884 79.0046C4.22741 79.219 4.64287 79.6674 4.92069 79.7574C5.15818 79.8355 5.458 79.7969 5.75754 79.7697C5.27411 80.6198 5.11813 81.7675 5.28454 82.7528C3.90305 82.7347 1.8232 83.6611 2.57656 85.4882C3.40072 87.49 6.58339 86.9815 8.18065 87.2114L8.16514 87.2034C8.42886 87.2395 8.6937 87.2581 8.95742 87.2621C9.20394 86.8744 9.6256 86.5972 10.0887 86.3999C8.44014 86.6948 6.31008 86.6107 6.77913 84.5447C7.16526 82.8392 8.86942 83.1159 10.2647 83.3452C9.57089 82.9939 9.33706 82.1411 10.1319 81.3394C10.989 80.4744 12.3987 80.8409 13.4832 81.0041C11.7162 80.6339 11.3114 78.1556 13.1527 77.5411C10.8864 77.7598 7.93188 77.7722 9.30096 74.889C10.111 73.1815 14.7248 71.0615 15.3544 73.9043C16.1365 70.8436 20.2023 71.9196 20.8628 74.5955C21.9829 73.7585 22.6378 72.8499 23.8038 72.1859C22.7681 72.3231 21.4382 73.0518 20.8572 73.3625Z" fill="#BC9F28"/>
<path d="M2.00179 75.6309C1.85597 75.9361 1.7832 76.1531 1.7832 76.1531C1.85541 75.9693 1.92846 75.7961 2.00179 75.6309Z" fill="#BC9F28"/>
<path opacity="0.65" d="M30.8713 78.0073C30.1213 77.6408 28.8267 77.7155 27.8113 78.0259C28.1763 77.3816 27.0199 76.4261 26.2685 76.9447C26.6188 76.4843 26.8969 75.7564 26.3932 75.4772C26.0017 75.2607 25.52 75.5153 25.1502 75.8815C25.4083 75.1064 24.8413 74.5068 24.0648 74.6422C23.4773 74.745 22.9239 75.3913 22.6253 75.8709C22.3914 76.2466 22.2106 76.628 22.3534 77.0756C22.4473 77.3702 23.2167 78.1914 23.5473 78.0706C22.1833 78.5671 23.2523 80.3164 23.8291 79.2976C23.4517 80.1091 23.1434 81.5442 24.5866 81.2768C25.3411 81.1367 25.9481 80.3384 26.6583 80.0879C27.4416 79.8118 28.3176 80.018 29.1302 79.9252C29.9516 79.8319 32.5794 78.8417 30.8713 78.0073Z" fill="#E8D528"/>
<path d="M66.5797 69.7543C65.9013 68.5531 64.6005 67.5953 64.0762 66.5181C65.3843 66.5367 66.5241 67.6191 67.4574 68.4211C67.1401 67.8456 66.9872 67.1844 67.0293 66.5461C67.8486 67.1137 67.9628 68.2651 68.4144 69.1261C68.5323 68.2559 68.6513 67.4029 69.0524 66.6235C69.403 67.6443 69.4763 68.7281 69.7626 69.752C69.7392 68.8664 69.8585 67.9111 70.3535 67.2548C70.5163 67.9286 70.5278 68.6768 70.6869 69.3821C71.3294 67.2414 72.2261 65.1683 73.4115 63.2744C73.4699 65.2802 71.3997 69.5124 73.818 70.609C73.8783 69.1876 72.8728 67.2694 74.2419 66.281C74.7561 67.4725 74.6131 69.3844 75.4945 70.2505C75.5847 68.7759 75.5455 66.4955 76.907 65.7813C77.3665 66.7847 77.147 68.2149 77.7444 68.9763C78.2126 67.9229 78.7449 66.0654 79.8606 65.8105C80.2566 66.7781 79.8409 67.8295 80.2665 68.7679C80.5686 68.1729 80.865 67.5272 81.1835 66.9379C81.2523 67.2978 81.551 67.9149 81.5727 68.4197C81.7868 68.0042 82.2302 67.8164 82.4389 67.5389C82.5263 67.9372 82.8439 68.4549 82.8826 68.8449C83.1452 68.0119 82.9838 66.8365 82.9023 65.8827C83.7634 66.8617 84.6615 68.1279 85.0671 69.3683C84.7599 66.6209 86.3405 67.0261 86.7376 69.4339C87.1988 68.4203 87.5559 66.945 88.4367 66.4319C88.4697 67.2268 88.4249 68.0778 88.4584 68.8489C89.0697 68.0065 89.6008 66.88 90.6627 66.7217C91.0009 67.7293 90.9351 68.8509 90.6695 69.8855C91.6775 68.9669 92.5448 67.528 93.6553 66.9553C93.6166 67.4106 93.7461 67.9317 93.6595 68.3968C94.0848 67.4226 94.9394 66.1645 95.9148 65.6482C96.0239 66.4602 95.8716 67.3081 95.5537 68.0537C96.2862 67.2282 96.6219 66.1075 97.591 65.4893C97.802 66.8173 97.1251 67.9627 96.8021 69.2054C97.6914 68.1491 98.6247 65.9156 99.8359 65.5236C99.9935 66.6824 99.5084 67.7494 99.4698 68.8675C100.122 67.9856 100.885 66.5874 102.069 66.5086C102.055 67.4948 101.53 68.4099 101.325 69.3168C101.992 68.6158 102.779 67.4298 103.731 67.1111C103.662 67.4925 103.845 68.0174 103.766 68.4011C104.831 67.8788 105.815 66.3297 107.097 66.6386C107.164 67.3204 106.906 68.0443 106.556 68.6193C107.498 68.6642 108.242 68.0575 109.145 67.9627C107.498 69.4015 104.452 70.7763 102.263 70.8573C100.267 70.932 98.3105 70.3614 96.2967 70.3897C93.4336 70.4304 90.5823 70.7514 87.7073 70.8241C83.4382 70.932 79.2373 71.2708 74.9171 71.2049C72.4963 71.1688 69.0541 71.7306 66.7937 70.8464C66.9418 70.725 67.1147 70.6806 67.3133 70.7118L66.5797 69.7543Z" fill="#D1C024"/>
<path d="M41.4645 67.9056C40.582 67.0088 39.832 66.1733 39.5062 64.8816C40.1913 65.6186 41.0663 66.0584 41.8179 66.7328C41.4992 66.4169 41.2028 66.0796 40.9145 65.742C41.5534 65.8909 41.8433 66.5833 42.4466 66.8711C42.0495 66.5266 41.7443 66.0456 41.5085 65.5863C42.0825 65.7163 42.6314 66.1466 43.1912 66.4026C42.9741 66.1839 42.7972 65.8589 42.6283 65.659C43.0336 65.8245 43.3966 66.0779 43.7449 66.372C43.4677 66.1254 43.3213 65.8142 43.1238 65.5416C43.653 65.7615 44.1268 66.1893 44.5572 66.5799C44.0202 66.2002 43.5455 65.2418 44.1243 64.7982C44.3996 65.2432 44.5747 65.7681 44.7307 66.2775C44.7485 65.8471 44.9374 65.4233 45.2387 65.1021C45.4189 65.521 45.5447 65.9622 45.5895 66.4132C45.8019 65.7864 46.212 64.9603 46.8435 64.7152C46.8252 65.0391 46.9908 65.3684 46.9674 65.6762C47.1047 65.4442 47.3684 65.3621 47.483 65.2269C47.5413 65.4342 47.7038 65.6095 47.7453 65.8485C47.8902 65.4379 48.1853 65.2209 48.4577 64.9924C48.4747 65.1894 48.5528 65.3145 48.5903 65.476C48.6566 65.3924 48.8774 65.208 48.9691 65.0949C49.0328 65.2896 49.2125 65.3755 49.2337 65.7108C49.6799 65.1376 50.2222 64.5443 50.8549 64.1815C51.0261 64.6691 50.8854 65.2515 51.0819 65.7306C51.481 63.9676 52.2474 63.9862 52.5796 65.6329C52.548 64.3415 54.0206 64.5096 54.6115 65.32C54.5182 64.3097 55.5017 64.1594 55.9425 65.0875C56.1755 63.5913 57.0677 63.362 57.5624 64.9509C57.4775 64.5148 57.625 64.142 57.8216 63.8353C57.9327 64.046 58.2246 64.2628 58.3186 64.5855C58.4102 64.0844 58.6711 63.6234 59.079 63.3388C59.3156 63.6578 59.3904 64.1909 59.3949 64.6018C59.7139 64.1646 59.9607 63.6661 60.3307 63.2984C60.5129 63.7268 60.3586 64.2513 60.1042 64.6471C60.4165 63.7528 61.6293 61.9815 62.6875 62.0508C62.5459 62.8225 61.9821 63.5595 61.4124 64.1208C61.9325 63.5315 62.634 62.6704 63.2838 62.3251C63.0601 62.9768 62.5175 63.4748 62.1844 64.0363C62.8466 63.75 63.4367 63.0928 64.1466 62.9568C63.7213 63.4487 63.2147 63.9152 63.3955 64.5494C62.0639 64.9039 60.9134 65.4754 59.5054 65.7446C57.4532 66.1366 55.6743 66.703 53.6684 67.3304C50.2688 68.393 46.8424 68.3724 43.3227 68.3119C41.4135 68.2799 39.9781 69.5086 38.2178 68.5195C36.7811 67.7121 35.4139 67.2923 33.8945 66.6211C34.7875 66.5993 35.9467 67.3687 36.985 67.4481C36.774 66.8001 36.2282 66.2154 35.7115 65.7833C36.5932 66.0324 37.2876 66.7763 38.0602 67.215C37.5773 66.8227 37.174 66.3285 36.8313 65.8182C37.5742 66.2022 38.2858 66.7597 39.0953 67.0669C39.2098 66.0275 41.2237 66.8041 41.3441 67.6505L41.4645 67.9056Z" fill="#D1C024"/>
<path d="M54.6981 85.8076C54.6981 85.8076 55.817 87.6577 54.0469 87.359L54.6981 85.8076Z" fill="#C96969"/>
<path d="M55.2739 78.4339L54.5406 80.5291L53.6752 79.6721L53.4564 79.4553C53.4564 79.4553 49.3096 76.4292 53.8642 73.0596C53.8642 73.0596 50.6657 76.9071 54.8054 78.295C54.9524 78.3443 55.1078 78.391 55.2739 78.4339Z" fill="#724838"/>
<path d="M53.3837 79.7639C52.9835 79.5254 52.6018 79.2877 52.2157 79.0303C52.1796 79.676 52.493 80.4356 53.0001 80.8182C53.2497 81.0046 53.8087 81.0421 54.018 80.7575C54.3133 80.3557 53.6742 79.938 53.3837 79.7639Z" fill="#F5F5F5"/>
<path d="M85.4351 80.4141L82.3752 81.4228C82.3752 81.4228 82.6671 83.518 83.7397 84.5256C83.7397 84.5256 83.1666 86.5604 81.7947 88.1731L81.1502 88.4803L81.0963 88.5064L80.3633 89.3826C80.6685 89.4287 81.2422 89.4805 81.8034 89.3725L82.0325 88.7369L82.0367 88.7257C82.0367 88.7257 82.4127 88.691 82.4699 88.3517L84.6358 84.083C84.6358 84.083 84.0855 82.584 85.4351 80.4141Z" fill="#724838"/>
<path d="M86.4489 83.8796C86.4483 83.9721 86.4416 84.064 86.4641 84.1507C86.5112 84.3265 86.6517 84.3251 86.7594 84.1479C86.9222 83.8801 86.8153 83.5277 87.1467 83.375C87.4262 83.2459 87.6389 83.3736 87.7968 83.615C87.8828 83.747 88.0752 84.3947 88.2828 84.332C88.4501 84.281 88.3463 83.968 88.3056 83.8535C88.2154 83.5961 87.9655 83.2691 88.1277 82.9893C88.3135 82.6689 88.6799 82.8739 88.9293 82.9873C89.1236 83.0767 89.4505 83.1153 89.235 82.8061C89.1453 82.6767 88.9417 82.6168 88.8833 82.4616C88.7586 82.1226 89.2102 81.5101 89.314 81.1694C89.6567 80.034 89.8493 79.3285 88.6142 78.7632C87.1755 78.1049 85.0886 78.5937 84.1034 79.8327C83.7502 80.2751 83.7136 80.8043 83.9259 81.3194C84.094 81.7306 84.3685 82.0785 84.6869 82.3811C85.0417 82.7196 85.5071 82.8711 85.9136 83.1291C86.124 83.2625 86.3431 83.4323 86.4244 83.6791C86.4458 83.7441 86.4497 83.812 86.4489 83.8796Z" fill="#F28F8B"/>
<path d="M69.0308 82.2998H66.9645L66.9659 82.3814C66.9659 82.3814 67.1157 86.2089 65.1473 88.4118L64.6156 88.6643L64.4856 88.7264L63.752 89.6032C64.058 89.6488 64.6311 89.7017 65.1921 89.5926L65.4155 88.973L65.4257 88.9464C65.4257 88.9464 65.957 88.8965 65.8501 88.3433C66.3666 87.6933 68.2907 85.1392 69.0308 82.2998Z" fill="#724838"/>
<path d="M91.9153 76.7186C91.9153 76.7197 91.9153 76.7214 91.9153 76.722C91.8442 76.8984 91.8025 76.9938 91.8025 76.9938L89.5458 78.6918C89.0203 79.2272 88.4937 79.7057 87.9694 80.1303C87.7068 80.3445 87.4442 80.543 87.183 80.7297C86.3309 81.3398 85.4873 81.8152 84.6623 82.1791C84.0074 82.4695 83.3655 82.6888 82.741 82.8529C77.767 84.148 73.9001 81.8046 73.9001 81.8046L73.8177 81.8378L72.2004 82.5033L71.739 82.694C71.2657 82.8658 70.8102 82.9832 70.3744 83.0539C70.289 83.0685 70.2043 83.0802 70.1197 83.0897C69.6521 83.1475 69.207 83.1512 68.7865 83.112C68.1217 83.051 67.5138 82.8827 66.9684 82.6501C64.6541 81.6611 63.4323 79.5222 63.4323 79.5222L60.4775 81.404L60.0677 81.6651C59.5744 81.5068 58.9482 81.0982 58.317 80.6097C56.9011 79.5136 55.4629 78.0149 55.4629 78.0149C55.475 78.0043 55.4866 77.9922 55.4979 77.9811C58.5028 75.0535 63.729 65.2993 64.9255 63.0277C65.0631 62.7669 65.183 63.0721 65.4684 63.1411C77.5653 66.0509 86.0923 61.1846 88.162 60.1434C88.4246 60.012 88.855 59.9774 89.1202 60.1011C89.4093 60.2362 89.6761 60.3842 89.9198 60.536C90.1691 60.6932 90.3956 60.8547 90.597 61.0159C91.407 61.657 91.8233 62.2541 91.8233 62.2541L91.8682 62.2807C95.5148 67.1115 92.555 75.1388 91.9153 76.7186Z" fill="#F5F5F5"/>
<path d="M92.866 81.4635L90.8352 87.9087L90.7788 88.09L89.9823 88.0465C89.9964 88.029 90.0093 88.0121 90.0212 87.9946C91.5911 85.9227 91.1827 82.4897 91.1827 82.4897C89.6131 81.7421 88.609 80.9111 87.9679 80.1306C86.6352 78.5053 86.8741 77.0953 86.8741 77.0953L87.1564 77.0209L87.3583 70.8477L92.2249 75.6611C92.094 76.0336 91.9922 76.3855 91.914 76.7185C91.914 76.7197 91.914 76.7214 91.914 76.722C91.4092 78.9182 92.0032 80.2963 92.4542 80.9681L92.866 81.4635Z" fill="#F5F5F5"/>
<path d="M60.4807 80.8528C60.4858 81.0423 60.4838 81.2262 60.4771 81.4037C60.3487 85.3114 57.8661 85.8784 56.4037 85.8712C55.8187 85.8683 55.0244 86.1123 54.6234 86.5441L54.486 86.6907L54.407 86.776C54.4254 86.9547 54.4005 87.1265 54.3264 87.2826C53.978 88.0156 52.6761 88.1101 51.4195 87.4933C50.1647 86.8777 49.4285 85.7833 49.7785 85.0503C49.9385 84.7132 50.3003 84.5125 50.7671 84.4532C50.7846 84.4507 50.8035 84.4495 50.8227 84.4469C52.0093 83.4445 52.5861 82.4448 52.8391 81.8873C52.9203 81.7121 52.9686 81.5815 52.9939 81.5071C53.0095 81.4616 53.0165 81.4364 53.0165 81.4364C53.1736 80.6375 53.3733 80.0193 53.591 79.5439C53.591 79.5413 53.5927 79.5413 53.593 79.5388C53.9515 78.7585 54.3616 78.3605 54.7229 78.1612C55.0436 77.9848 55.3257 77.9688 55.4974 77.9814C55.6091 77.99 55.6748 78.012 55.6748 78.012L59.1167 77.8047L59.5818 78.8441L60.4807 80.8528Z" fill="#F5F5F5"/>
<path d="M72.2431 81.8809C72.2352 82.0885 72.2203 82.2966 72.2005 82.5031C71.9602 85.01 70.8915 87.3543 70.4676 88.2511C70.3548 88.4925 70.3322 88.666 70.3322 88.666L69.668 88.8524C69.7718 88.6818 69.8648 88.5045 69.9472 88.3247C70.8035 86.4552 70.5649 84.1507 70.3745 83.054C70.306 82.654 70.2439 82.414 70.2439 82.414L70.2256 82.3367L72.2431 81.8809Z" fill="#F5F5F5"/>
<path d="M98.895 79.9889C99.2645 80.4585 99.2614 81.0939 99.1235 81.6846C98.8099 80.7217 97.031 80.1621 97.6362 78.9546C97.3658 78.6225 97.1254 78.2628 96.926 77.8803C96.6798 77.4078 96.4965 76.9027 96.3732 76.3836C96.1253 75.3442 96.1109 74.2692 96.1823 73.2198C96.2564 72.1669 96.4136 71.1298 96.5487 70.0981C96.6843 69.0664 96.8028 68.0339 96.787 67.0088C96.7698 65.9885 96.6034 64.9692 96.1752 64.0655C95.964 63.6148 95.6921 63.1938 95.3705 62.8142C95.2106 62.624 95.0371 62.443 94.8561 62.2741C94.7616 62.1862 94.6736 62.1052 94.5791 62.031C94.4846 61.9543 94.3876 61.8835 94.2863 61.816C93.8807 61.5474 93.5191 61.3386 93.0495 61.196C92.5796 61.052 91.9515 60.9174 91.4652 60.9025C91.1578 60.8928 90.911 60.9418 90.6092 60.9922C89.9596 61.1001 89.3377 61.3804 88.8633 61.8211L88.4473 61.3349L88.5209 61.2705L88.6055 61.2015C88.6633 61.1557 88.7192 61.1139 88.7776 61.0732C88.8935 60.9933 89.0145 60.9186 89.1391 60.8513C89.3873 60.7187 89.6485 60.6153 89.9137 60.5386C89.9162 60.5375 89.9193 60.5375 89.9216 60.536C90.4532 60.3854 91.0001 60.3373 91.5374 60.3613C92.0798 60.3874 92.6129 60.4879 93.1259 60.6531C93.6396 60.8198 94.1337 61.0506 94.5844 61.3595C94.6981 61.438 94.8084 61.5205 94.9139 61.6087C95.0216 61.6966 95.1226 61.7913 95.216 61.8818C95.4094 62.0699 95.5942 62.2664 95.7648 62.4763C96.1075 62.8949 96.3989 63.3585 96.6206 63.855C97.0724 64.8483 97.2287 65.9427 97.2287 67.005C97.2301 68.0708 97.0919 69.1188 96.939 70.1534C96.7873 71.1882 96.6155 72.2153 96.5289 73.2473C96.4418 74.275 96.4418 75.3155 96.6629 76.3146C96.7746 76.8122 96.9415 77.2976 97.1689 77.752C97.3234 78.0598 97.5057 78.351 97.7107 78.6276C98.0283 77.8187 99.5215 79.6152 99.5364 80.764C99.3494 80.443 99.1255 80.2417 98.895 79.9889Z" fill="#F5F5F5"/>
<path d="M90.4039 88.4797L90.1706 89.1259C89.6088 89.2353 89.0365 89.1826 88.7305 89.1368L89.4638 88.2595L90.0211 87.9943L90.2016 87.909L90.8193 87.8291C90.8261 87.8563 90.8323 87.8824 90.8351 87.9084C90.9175 88.433 90.4039 88.4797 90.4039 88.4797Z" fill="#F5F5F5"/>
<path d="M70.0878 88.8848L69.8542 89.5308C69.2938 89.6393 68.7198 89.5872 68.4141 89.5414L69.1477 88.6643L69.9467 88.3253L69.9749 88.3133L70.5024 88.2334C70.5077 88.2526 70.5122 88.272 70.5156 88.2907C70.6166 88.8367 70.0878 88.8848 70.0878 88.8848Z" fill="#F5F5F5"/>
<path d="M54.407 86.7759C54.4254 86.9546 54.4005 87.1264 54.3264 87.2825C53.978 88.0155 52.6761 88.11 51.4195 87.4932C50.1647 86.8776 49.4285 85.7832 49.7785 85.0501C49.9385 84.7131 50.3003 84.5124 50.7671 84.4531C51.2994 84.468 51.8666 84.592 52.4228 84.8345C53.3851 85.2543 54.1151 85.9432 54.4854 86.6909L54.407 86.7759Z" fill="#C96969"/>
<path d="M58.7941 81.5762C58.4362 81.6827 57.592 81.4442 57.8253 80.9468C57.9491 80.6831 58.5352 80.5004 58.7933 80.4526C59.2494 80.3678 59.6888 80.2794 60.139 80.1729C59.9537 80.7911 59.4008 81.395 58.7941 81.5762Z" fill="#724838"/>
<path d="M98.8948 79.9893C99.2643 80.4589 99.2612 81.0943 99.1233 81.685C98.8097 80.722 97.0307 80.1625 97.636 78.955C97.3655 78.6229 97.1252 78.2632 96.9258 77.8807C96.6796 77.4082 96.4963 76.9031 96.373 76.384C96.1251 75.3446 96.1107 74.2696 96.1821 73.2202C96.2562 72.1673 96.4133 71.1302 96.5484 70.0985C96.6841 69.0668 96.8026 68.0343 96.7868 67.0092C96.7696 65.9889 96.6032 64.9695 96.175 64.0659C95.9637 63.6151 95.6918 63.1942 95.3703 62.8145C95.2104 62.6244 95.0369 62.4434 94.8558 62.2745C94.7614 62.1866 94.6734 62.1056 94.5789 62.0314C94.4844 61.9547 94.3874 61.8839 94.2861 61.8164C93.8805 61.5478 93.4275 61.3436 92.959 61.2007C92.4889 61.0578 92.002 60.9734 91.5149 60.9579C91.2078 60.9485 90.9006 60.9659 90.5986 61.0166C91.4086 61.6577 91.8249 62.2547 91.8249 62.2547L91.8698 62.2814C95.5167 67.1122 92.5568 75.1395 91.9171 76.7196C91.9171 76.7207 91.9171 76.7224 91.9171 76.723C91.4123 78.9192 92.0063 80.2974 92.4573 80.9692L92.8688 81.464L90.838 87.9092C90.9167 88.4097 90.4533 88.4756 90.4099 88.4802C90.4073 88.4802 90.4067 88.4802 90.4067 88.4802L90.1735 89.1264C89.6116 89.2358 89.0394 89.1831 88.7333 89.1373L89.4667 88.26L89.498 88.2462L90.024 87.9951C91.5939 85.9231 91.1502 82.4908 91.1502 82.4908C91.1344 82.3573 90.1019 82.0203 89.6226 81.604C89.2543 81.2844 88.8369 81.0276 88.4865 80.6888C88.3049 80.5142 88.1218 80.3372 87.938 80.1571C87.2475 79.4828 86.5675 78.7669 86.1105 77.9219C85.8491 77.4368 85.6906 76.8152 85.2788 76.4355C83.6699 74.9508 82.117 77.769 80.5352 78.4353C79.1461 79.0335 77.8808 78.6418 76.4722 78.4073C75.9149 78.3139 75.2219 78.0894 74.7867 78.5579C74.4192 78.9524 74.3848 79.5638 74.1301 80.0251C73.8495 80.5328 73.5849 81.0528 73.227 81.5106C73.025 81.7686 72.7353 81.9376 72.5136 82.1761C72.4118 82.2855 72.3407 82.3754 72.2897 82.4673C72.2087 82.6105 72.176 82.7599 72.1447 82.9924C72.0454 83.7515 71.8748 84.5012 71.6655 85.2368C71.4836 85.8664 71.2709 86.4869 71.0309 87.0966C70.937 87.3359 70.4741 88.0481 70.519 88.2935C70.616 88.8369 70.0894 88.8851 70.0894 88.8851L70.0843 88.8985L69.8559 89.531C69.2954 89.6396 68.7215 89.5875 68.4157 89.5416L69.1493 88.6646L69.2032 88.6414L69.9484 88.3255C70.4659 87.1954 70.5974 85.9125 70.5494 84.6793C70.5305 84.2168 70.5342 83.6716 70.3898 83.2292C70.3715 83.172 70.3537 83.1164 70.3387 83.0606C70.1785 82.5077 70.1385 82.0031 70.0446 81.4073C69.9763 80.9729 69.8395 80.5396 69.5733 80.1857C69.0698 79.5145 67.9303 79.6826 67.237 79.2614C66.293 78.6896 65.556 77.8326 64.6207 77.2476C63.5396 76.5712 62.2131 77.7661 61.3292 78.2764C60.3685 78.831 59.1308 79.3121 58.5052 80.3023C58.4418 80.4051 58.3797 80.5067 58.3182 80.6101C57.9403 81.2443 57.6193 81.9124 57.3319 82.5941C57.0953 83.1525 56.7568 83.5422 56.0923 83.395C55.744 83.3177 55.5967 82.9979 55.4896 82.6694C55.3322 82.1855 55.337 81.7257 54.9398 81.3692C54.6276 81.0888 53.3287 82.5226 52.9559 82.7562C52.6462 82.9495 52.6899 82.6786 52.8411 81.8877C52.9223 81.7125 52.9705 81.5819 52.9959 81.5075C53.0114 81.4619 53.0185 81.4367 53.0185 81.4367C53.1756 80.6379 53.3753 80.0196 53.593 79.5443C53.593 79.5417 53.5947 79.5417 53.595 79.5392L53.5676 79.5125C54.0302 78.5069 54.7243 78.1329 54.7243 78.1329L54.8631 78.096C55.1271 77.9826 55.3528 77.9703 55.4994 77.982C58.5044 75.0545 63.7306 65.3003 64.927 63.0287C65.0647 62.7679 65.4076 62.5989 65.697 62.6493C77.7925 64.7937 86.0939 61.1855 88.1636 60.1444C88.4262 60.013 88.8566 59.9783 89.1217 60.102C89.4108 60.2372 89.6777 60.3852 89.9213 60.537C90.453 60.3864 90.9999 60.3383 91.5372 60.3623C92.0796 60.3884 92.6127 60.4889 93.1257 60.6541C93.6394 60.8207 94.1335 61.0515 94.5842 61.3605C94.6979 61.439 94.8082 61.5214 94.9137 61.6096C95.0214 61.6975 95.1224 61.7923 95.2157 61.8828C95.4092 62.0709 95.594 62.2673 95.7646 62.4772C96.1073 62.8959 96.3987 63.3594 96.6204 63.856C97.0722 64.8493 97.2285 65.9437 97.2285 67.006C97.2299 68.0718 97.0917 69.1198 96.9388 70.1543C96.787 71.1892 96.6153 72.2163 96.5287 73.2482C96.4415 74.2759 96.4415 75.3165 96.6627 76.3155C96.7744 76.8132 96.9413 77.2985 97.1687 77.753C97.3232 78.0608 97.5054 78.352 97.7105 78.6286C98.0281 77.8197 99.5213 79.6162 99.5362 80.765C99.3492 80.4434 99.1253 80.2421 98.8948 79.9893Z" fill="#724838"/>
<path d="M57.9721 79.6943L57.7781 79.8601C57.4026 79.6437 57.0244 79.2033 57.1234 78.3142C60.7328 77.074 58.013 73.2852 58.013 73.2852C62.3208 76.9747 57.9721 79.6943 57.9721 79.6943Z" fill="#F5F5F5"/>
<path d="M65.4155 88.9727L65.1921 89.5924C64.6314 89.7015 64.058 89.6485 63.752 89.603L64.4856 88.7262L64.6156 88.6641C64.8122 88.7866 65.0796 88.91 65.4155 88.9727Z" fill="#7F5061"/>
<path d="M70.0827 88.8978L69.8542 89.5303C69.2938 89.6388 68.7198 89.5867 68.4141 89.5409L69.1477 88.6638L69.2015 88.6406C69.4156 88.7217 69.7307 88.827 70.0827 88.8978Z" fill="#7F5061"/>
<path d="M82.0325 88.737L81.8034 89.3727C81.2424 89.4807 80.6685 89.4288 80.3633 89.3827L81.0963 88.5065L81.1502 88.4805C81.3795 88.5572 81.698 88.6566 82.0325 88.737Z" fill="#7F5061"/>
<path d="M90.407 88.4791C90.4044 88.4791 90.4039 88.4791 90.4039 88.4791L90.1706 89.1253C89.6088 89.2347 89.0365 89.182 88.7305 89.1362L89.4638 88.2589L89.4951 88.2451C89.7625 88.327 90.0883 88.4161 90.407 88.4791Z" fill="#7F5061"/>
<path d="M51.1559 85.944C51.1071 86.0706 50.9131 86.1115 50.7221 86.0348C50.5323 85.958 50.417 85.7937 50.4666 85.6668C50.5154 85.5403 50.7103 85.5005 50.9004 85.5769C51.0914 85.6534 51.2053 85.818 51.1559 85.944Z" fill="#F5F5F5"/>
<path d="M52.7008 86.5695C52.6514 86.6955 52.4574 86.7365 52.267 86.6597C52.076 86.5836 51.9618 86.4186 52.0117 86.2926C52.0599 86.1658 52.2551 86.1251 52.4452 86.2019C52.6348 86.2783 52.7504 86.4421 52.7008 86.5695Z" fill="#F5F5F5"/>
<path d="M78.72 69.0987C79.0257 68.0662 78.8023 67.2693 77.6295 66.9826C76.7414 66.7647 76.0235 67.2879 75.1968 67.3159C74.5326 67.3371 73.6788 66.8335 73.1153 67.3746C72.7703 67.7082 72.899 68.1143 72.8045 68.5295C72.6809 69.0698 72.4694 69.1334 72.2068 69.5632C71.632 70.5029 72.3921 71.3934 73.344 71.4421C73.8151 71.467 74.27 71.1944 74.7329 71.2308C75.3393 71.2781 75.341 71.6606 75.7714 71.928C76.5411 72.406 77.8941 72.1858 78.3536 71.3871C78.5984 70.9611 78.3995 70.6432 78.4402 70.2587C78.4881 69.7968 78.5623 69.6293 78.72 69.0987Z" fill="#F5F5F5"/>
<path d="M73.0592 75.7876C74.2684 75.322 74.5219 74.1262 73.5373 73.2489C73.0468 72.8119 72.5115 72.6587 71.9818 73.0971C71.7059 73.3253 71.5511 73.6755 71.3012 73.9298C71.0924 74.1417 70.8211 74.2783 70.6493 74.5294C69.3903 76.374 72.1298 76.1461 73.0592 75.7876Z" fill="#F5F5F5"/>
<path d="M69.1133 72.2856C68.9447 72.3658 68.8299 72.5422 68.7938 72.724C68.6846 73.2786 68.7399 74.1036 69.4258 73.4986C69.6642 73.2895 69.7959 73.1226 69.7618 72.7876C69.7268 72.4354 69.4933 72.1044 69.1133 72.2856Z" fill="#F5F5F5"/>
<path d="M88.2944 72.225C89.3225 71.3442 90.3635 69.6903 88.511 69.0932C87.8113 68.8693 86.8734 68.6388 86.1528 68.9068C85.3842 69.1912 84.784 69.8518 84.5778 70.6581C83.9517 73.1126 86.9194 73.4018 88.2944 72.225Z" fill="#F5F5F5"/>
<path d="M86.5948 67.0184C87.1315 66.2387 86.1548 65.3746 85.385 65.5054C84.6559 65.6291 83.9533 66.4372 84.1398 67.2166C84.2348 67.2197 84.3412 67.2372 84.4373 67.2366C84.333 68.3857 86.3138 67.4271 86.5948 67.0184Z" fill="#F5F5F5"/>
<path d="M53.0655 81.5253C53.0319 81.6353 52.7958 82.2586 53.0435 82.3234C53.3148 82.3947 53.6299 81.9308 53.7666 81.767C53.8106 81.7143 53.7362 81.6376 53.6922 81.6911C53.543 81.8689 53.3901 82.0533 53.1966 82.1842C52.9233 82.3689 53.1405 81.6433 53.1679 81.5537C53.1879 81.4867 53.0858 81.4589 53.0655 81.5253Z" fill="#F5F5F5"/>
<path d="M56.4572 82.3155C56.449 82.3874 56.3785 83.1456 56.1771 82.8647C56.0474 82.6835 55.9881 82.4384 55.9249 82.2276C55.9049 82.1609 55.8031 82.189 55.8228 82.2557C55.8818 82.4541 55.994 83.0231 56.2648 83.0623C56.5277 83.1012 56.5477 82.4541 56.5627 82.3155C56.5706 82.2462 56.4639 82.2477 56.4572 82.3155Z" fill="#F5F5F5"/>
<path opacity="0.5" d="M51.0205 53.4004L39.009 62.5212L13.8672 64.8681L27.3828 55.7341L51.0205 53.4004Z" fill="#FCA2BE"/>
</svg>
