<svg width="436" height="440" viewBox="0 0 436 440" fill="none" xmlns="http://www.w3.org/2000/svg">
<path opacity="0.3" d="M417.833 295.574C375.782 394.588 263.767 450.057 166.627 435.094C150.82 432.659 107.486 425.407 69.1195 391.192C-4.73849 325.326 -20.5336 194.902 39.0454 102.989C82.4085 36.0923 160.141 -1.82899 234.003 0.0679228C249.912 0.476515 310.885 2.99468 364.47 47.1792C372.34 53.669 389.699 69.0907 405.344 93.5562C442.081 151.006 445.239 231.045 417.833 295.574Z" fill="#BD9151"/>
<path d="M51.6605 6.09937C51.2398 3.90333 53.9172 2.47584 55.5303 4.02405C71.9115 19.7458 111.171 66.7192 100.377 147.946C86.8341 249.857 107.687 287.323 133.9 310.324C133.9 310.324 97.6776 299.248 75.2259 261.216C20.1019 167.839 59.14 45.1452 51.6605 6.09937Z" fill="url(#paint0_linear_2940_22943)"/>
<path d="M63.9089 38.109C65.8558 49.4917 67.5774 60.9068 68.879 72.3686C70.2406 83.8214 71.2544 95.3105 71.9087 106.814C72.5187 118.32 72.9129 129.835 72.8174 141.35C72.7736 152.865 72.2352 164.365 71.6543 175.909C71.1381 187.45 70.5527 199.073 71.1553 210.792C71.7459 222.486 73.7421 234.298 77.8373 245.395C78.861 248.161 79.9393 250.919 81.1692 253.586C82.3502 256.276 83.6507 258.915 84.9979 261.53C87.719 266.747 90.791 271.793 94.2233 276.588C101.114 286.161 109.456 294.678 118.67 301.91C119.64 302.671 121.043 302.501 121.805 301.532C122.552 300.579 122.402 299.209 121.478 298.439L121.472 298.434C119.28 296.611 117.113 294.766 115.035 292.831C113.98 291.88 112.97 290.884 111.941 289.907C110.951 288.893 109.921 287.916 108.963 286.872C105.061 282.763 101.453 278.384 98.1871 273.76C91.6162 264.555 86.3869 254.32 82.4561 243.726C80.5499 238.405 79.0391 232.953 77.9531 227.403C76.8712 221.852 76.2142 216.21 75.8786 210.525C75.2065 199.15 75.6909 187.641 76.1241 176.097C76.5424 164.55 76.8833 152.944 76.7461 141.341C76.6933 135.541 76.536 129.742 76.2751 123.949C76.1613 121.051 75.9915 118.157 75.8268 115.263C75.6345 112.37 75.4261 109.478 75.1942 106.589C74.2453 95.0343 72.9442 83.5138 71.281 72.0506C69.563 60.5955 67.5415 49.1896 65.084 37.881C65.0136 37.5576 64.6948 37.3526 64.3717 37.423C64.058 37.491 63.8557 37.7955 63.9089 38.109Z" fill="white"/>
<path d="M82.0378 315.316C80.8265 319.254 75.9874 320.675 72.805 318.059C55.2447 303.623 9.28699 258.318 9.7292 179.844C10.1028 113.577 4.00797 77.6084 0.109537 61.4718C-0.714683 58.0595 3.29618 55.5782 5.98573 57.834C35.6609 82.7215 125.925 172.628 82.0378 315.316Z" fill="url(#paint1_linear_2940_22943)"/>
<path d="M76.4672 315.622C76.3849 315.682 76.2959 315.736 76.2001 315.781C75.3973 316.161 74.4383 315.818 74.0581 315.015C73.6273 314.105 30.9352 222.938 27.2923 130.774C27.2576 129.887 27.9482 129.139 28.8363 129.103C29.724 129.068 30.4719 129.759 30.5072 130.647C34.1234 222.14 76.5378 312.735 76.9657 313.639C77.3006 314.346 77.0747 315.175 76.4672 315.622Z" fill="white"/>
<path d="M23.3848 252.781C23.3848 252.781 63.37 382.767 76.8804 410.141C92.5631 441.916 145.352 425.691 144.431 399.881C143.51 374.071 90.0897 264.209 90.0897 264.209L23.3848 252.781Z" fill="#5A0000"/>
<path d="M93.261 164.438L359.984 77.4131L339.27 357.846L79.1641 273.045L93.261 164.438Z" fill="url(#paint2_linear_2940_22943)"/>
<path d="M376.737 220.184C371.633 299.827 356.055 363.658 341.943 362.753C327.831 361.849 320.529 296.552 325.633 216.909C330.737 137.266 346.315 73.4363 360.427 74.3405C374.538 75.245 381.841 140.541 376.737 220.184Z" fill="url(#paint3_linear_2940_22943)"/>
<path d="M344.514 353.016C342.378 350.167 338.015 339.425 335.429 312.206C332.928 285.901 332.797 251.982 335.059 216.696C337.32 181.41 341.78 147.785 347.617 122.015C353.657 95.348 359.356 85.2513 361.838 82.6982C363.974 85.5474 368.338 96.2891 370.924 123.508C373.424 149.813 373.555 183.733 371.294 219.018C369.033 254.304 364.573 287.929 358.736 313.7C352.696 340.366 346.997 350.463 344.514 353.016Z" fill="url(#paint4_linear_2940_22943)"/>
<mask id="mask0_2940_22943" style="mask-type:luminance" maskUnits="userSpaceOnUse" x="333" y="82" width="70" height="272">
<path d="M344.518 353.016C342.382 350.167 338.019 339.425 335.432 312.206C332.932 285.901 332.801 251.982 335.063 216.696C337.324 181.41 341.784 147.785 347.621 122.015C353.661 95.348 359.36 85.2513 361.842 82.6982C363.978 85.5474 368.342 96.2891 370.928 123.508C373.428 149.813 404.158 185.694 401.897 220.979C399.635 256.265 364.577 287.929 358.74 313.7C352.7 340.366 347.001 350.463 344.518 353.016Z" fill="white"/>
</mask>
<g mask="url(#mask0_2940_22943)">
<path d="M385.999 218.883C384.428 243.385 371.677 262.512 348.959 261.056C326.24 259.6 309.096 238.557 310.666 214.055C312.236 189.552 331.926 170.87 354.645 172.326C377.363 173.782 387.569 194.38 385.999 218.883Z" fill="url(#paint5_linear_2940_22943)"/>
</g>
<path d="M46.4768 155.383C60.6503 154.651 80.8622 155.356 102.355 161.749C92.7626 198.829 91.3395 238.027 97.0546 279.076L35.531 275.133C25.7221 274.505 17.8146 266.844 16.9057 257.057C15.0842 237.439 13.4275 204.557 19.1046 178.596C21.9536 165.568 33.1583 156.071 46.4768 155.383Z" fill="#5A0000"/>
<path opacity="0.66" d="M81.5116 187.215L33.5783 184.143C31.7136 184.024 30.0664 182.896 29.2802 181.201C28.4938 179.506 28.6975 177.521 29.812 176.021C30.4518 175.155 31.6763 174.977 32.5414 175.618C33.4066 176.259 33.5867 177.481 32.9443 178.347C32.5639 178.861 32.7314 179.367 32.8208 179.56C32.9101 179.754 33.1878 180.208 33.8278 180.25L81.7611 183.321C82.419 183.364 82.9883 182.863 83.0304 182.206L83.249 178.796C83.2912 178.138 82.7905 177.569 82.1325 177.527L33.8432 174.432C32.7681 174.363 31.9519 173.435 32.0208 172.36C32.0898 171.286 33.0178 170.469 34.0927 170.538L82.3821 173.633C85.1873 173.813 87.3229 176.241 87.143 179.046L86.9246 182.456C86.7446 185.26 84.3167 187.395 81.5116 187.215Z" fill="white"/>
<path opacity="0.66" d="M75.876 208.17L27.9429 205.098C26.0782 204.978 24.4307 203.852 23.6459 202.157C22.8596 200.462 23.062 198.477 24.1752 196.976C24.8175 196.109 26.0395 195.929 26.9047 196.571C27.771 197.213 27.951 198.435 27.3102 199.3C26.9284 199.815 27.0958 200.321 27.1851 200.515C27.2747 200.708 27.5523 201.163 28.1924 201.204L76.1256 204.276C76.7836 204.318 77.3528 203.817 77.3948 203.16L77.6134 199.75C77.6557 199.092 77.1551 198.523 76.497 198.481L28.2076 195.386C27.1327 195.318 26.3165 194.39 26.3854 193.315C26.4544 192.24 27.3823 191.423 28.4572 191.492L76.7465 194.587C79.5518 194.767 81.6875 197.195 81.5077 200L81.289 203.41C81.1094 206.214 78.6814 208.349 75.876 208.17Z" fill="white"/>
<path opacity="0.66" d="M131.492 159.979C130.774 159.933 130.141 159.362 129.965 158.519C129.747 157.475 130.31 156.413 131.222 156.143L332.821 96.6865C333.734 96.4166 334.65 97.0469 334.867 98.088C335.085 99.1316 334.522 100.194 333.61 100.464L132.011 159.921C131.836 159.972 131.661 159.99 131.492 159.979Z" fill="white"/>
<path opacity="0.66" d="M106.791 170.97C106.023 170.921 105.325 170.418 105.065 169.644C104.722 168.623 105.273 167.516 106.294 167.173L118.256 163.155C119.278 162.811 120.385 163.363 120.727 164.384C121.07 165.405 120.519 166.512 119.498 166.855L107.536 170.873C107.289 170.956 107.036 170.986 106.791 170.97Z" fill="white"/>
<path opacity="0.66" d="M78.5577 233.308L30.6244 230.236C28.7597 230.116 27.1138 228.989 26.3274 227.295C25.5413 225.599 25.7436 223.613 26.8568 222.113C27.4992 221.245 28.7225 221.067 29.5864 221.708C30.4527 222.35 30.633 223.572 29.9919 224.437C29.6088 224.952 29.7773 225.459 29.8669 225.652C29.9562 225.846 30.2352 226.301 30.874 226.342L78.8073 229.414C79.4651 229.456 80.0345 228.955 80.0765 228.297L80.2951 224.887C80.3372 224.23 79.8365 223.661 79.1786 223.619L30.8893 220.524C29.8144 220.455 28.998 219.527 29.067 218.452C29.1359 217.377 30.064 216.561 31.1388 216.63L79.4282 219.725C82.2335 219.905 84.369 222.333 84.1893 225.137L83.9707 228.546C83.7909 231.352 81.363 233.487 78.5577 233.308Z" fill="white"/>
<path opacity="0.66" d="M81.2777 261.192L33.3433 258.12C31.4786 258.001 29.8325 256.873 29.0463 255.178C28.26 253.483 28.4624 251.498 29.5754 249.997C30.2178 249.129 31.44 248.949 32.305 249.591C33.1714 250.234 33.3516 251.456 32.7105 252.321C32.3288 252.836 32.4961 253.342 32.5855 253.536C32.6762 253.73 32.9539 254.185 33.5927 254.226L81.5271 257.298C82.1837 257.34 82.753 256.839 82.7951 256.183L83.0137 252.772C83.0558 252.115 82.5551 251.546 81.8985 251.504L33.6078 248.409C32.533 248.34 31.7166 247.412 31.7855 246.337C31.8543 245.262 32.7825 244.446 33.8574 244.515L82.148 247.61C84.9522 247.789 87.0876 250.217 86.9079 253.021L86.6893 256.432C86.5096 259.236 84.0818 261.372 81.2777 261.192Z" fill="white"/>
<path opacity="0.66" d="M114.476 413.979C112.216 413.834 109.947 413.443 107.699 412.801C97.87 409.99 90.1744 402.897 86.5878 393.34L53.7439 305.804C53.3655 304.796 53.8768 303.672 54.8862 303.292C55.893 302.915 57.02 303.425 57.3981 304.435L90.2423 391.969C93.3897 400.356 100.144 406.582 108.772 409.049C117.247 411.47 126.089 409.807 133.029 404.479C133.408 404.189 133.786 403.89 134.167 403.584C135.006 402.908 136.233 403.042 136.91 403.882C137.585 404.722 137.452 405.951 136.612 406.625C136.207 406.952 135.805 407.267 135.403 407.575C129.316 412.249 121.949 414.458 114.476 413.979Z" fill="white"/>
<path opacity="0.66" d="M50.5915 294.123C49.8488 294.075 49.1662 293.603 48.8879 292.861L45.2243 283.095C44.8461 282.087 45.3572 280.961 46.3666 280.583C47.3722 280.204 48.5015 280.716 48.8785 281.725L52.5421 291.491C52.9205 292.499 52.4092 293.625 51.3998 294.003C51.1337 294.103 50.8589 294.14 50.5915 294.123Z" fill="white"/>
<path opacity="0.66" d="M379.94 217.928C379.061 217.872 378.367 217.041 378.37 216.011C378.399 204.183 375.429 195.185 369.545 189.267C359.347 179.014 343.581 181.289 343.421 181.315C342.488 181.455 341.646 180.709 341.539 179.642C341.431 178.576 342.096 177.594 343.026 177.45C343.733 177.341 360.433 174.897 371.788 186.294C378.44 192.97 381.796 202.949 381.765 215.951C381.763 217.028 381.001 217.915 380.063 217.931C380.022 217.932 379.981 217.931 379.94 217.928Z" fill="white"/>
<path d="M175.382 119.842H171.205V233.463H175.382V119.842Z" fill="url(#paint6_linear_2940_22943)"/>
<path d="M124.541 48.2744L131.859 120.791C132.371 125.859 136.796 129.616 141.88 129.298L204.623 125.377C209.395 125.078 213.198 121.271 213.491 116.498L218.146 40.6942C218.503 34.8779 213.576 30.1198 207.776 30.6796L133.06 37.8888C127.834 38.3933 124.014 43.0503 124.541 48.2744Z" fill="url(#paint7_linear_2940_22943)"/>
<path d="M95.6116 434.198C95.6097 434.071 95.6181 433.942 95.6507 433.813C97.567 426.216 105.403 422.321 105.403 422.321L109.172 422.617C111.339 429.313 112.736 432.582 112.388 434.412C112.379 434.463 112.363 434.512 112.349 434.561C109.24 434.839 102.841 435.02 95.6116 434.198Z" fill="url(#paint8_linear_2940_22943)"/>
<path d="M112.349 434.561C112.181 435.172 111.73 435.647 111.153 435.769C106.73 436.699 99.7007 435.95 96.7494 435.564C96.0983 435.479 95.6223 434.877 95.6113 434.197C102.841 435.02 109.24 434.839 112.349 434.561Z" fill="url(#paint9_linear_2940_22943)"/>
<path d="M102.299 416.456L103.949 424.4C104.07 424.982 104.517 425.418 105.059 425.469C105.722 425.531 106.667 425.568 107.616 425.428C108.467 425.303 109.06 424.438 108.909 423.51L107.762 416.456H102.299Z" fill="url(#paint10_linear_2940_22943)"/>
<path d="M144.374 434.495C140.349 434.383 138.267 433.909 137.19 433.469C137.188 433.869 137.19 434.276 137.203 434.698C137.217 435.149 137.551 435.509 137.962 435.506L160.064 435.364C160.769 435.359 161.182 434.541 160.876 433.894C157.978 434.134 150.597 434.67 144.374 434.495Z" fill="url(#paint11_linear_2940_22943)"/>
<path d="M160.875 433.895C160.848 433.838 160.825 433.781 160.787 433.728C158.835 431.001 153.864 425.57 144.04 423.214L139.327 423.065C139.327 423.065 137.229 426.713 137.189 433.469C138.266 433.909 140.348 434.383 144.373 434.496C150.596 434.67 157.977 434.134 160.875 433.895Z" fill="url(#paint12_linear_2940_22943)"/>
<path d="M138.453 415.923C138.506 416.275 139.152 421.614 139.402 423.684C139.461 424.175 139.817 424.556 140.267 424.61C141.069 424.706 142.368 424.793 143.504 424.56C144.117 424.434 144.56 423.846 144.56 423.161V414.78L138.453 415.923Z" fill="url(#paint13_linear_2940_22943)"/>
<path d="M105.447 312.137C105.447 312.137 97.9056 379.169 102.095 421.065C102.095 421.065 107.123 421.065 109.637 420.227C109.637 420.227 117.473 354.686 120.008 335.931C120.104 335.224 121.113 335.192 121.252 335.892C124.379 351.671 136.665 413.546 138.126 419.389C138.126 419.389 142.315 421.065 145.667 419.389C145.667 419.389 138.964 329.733 133.936 313.813L105.447 312.137Z" fill="#191919"/>
<path d="M112.484 211.316L109.312 232.767C109.312 232.767 118.174 236.838 124.38 232.592L123.044 217.454L112.484 211.316Z" fill="url(#paint14_linear_2940_22943)"/>
<path d="M121.749 195.553C121.964 195.755 130.794 213.096 130.794 213.096L120.786 217.928L109.975 202.735C109.975 202.735 118.162 192.176 121.749 195.553Z" fill="url(#paint15_linear_2940_22943)"/>
<path d="M114.403 203.157C114.224 203.618 114.268 204.134 114.523 204.559L119.515 212.88C119.591 213.006 119.681 213.12 119.788 213.221C120.383 213.774 122.416 215.382 123.987 213.192C125.327 211.325 126.584 209.628 127.931 208.928C128.717 208.519 129.685 208.846 130.085 209.637C130.907 211.267 132.5 214.59 133.501 217.741C133.752 218.531 133.344 219.379 132.576 219.69C130.549 220.511 126.544 221.996 122.99 222.486C122.406 222.567 121.828 222.32 121.48 221.844C119.951 219.749 115.641 213.895 114.17 212.43C112.803 211.068 110.281 211.582 109.145 211.908C108.713 212.032 108.254 211.973 107.869 211.741C106.716 211.046 104.704 209.317 106.545 206.389C107.002 205.66 106.769 204.691 106.051 204.218C104.763 203.371 103.366 201.782 104.697 199.207C106.044 196.601 108.451 196.367 110.089 196.567C110.815 196.656 111.551 196.276 111.829 195.6C111.953 195.3 112.197 195.044 112.652 194.951C113.511 194.777 114.075 193.992 113.907 193.132C113.618 191.657 113.835 189.741 116.19 188.447C120.508 186.072 124.291 189.941 125.253 193.207C126.215 196.473 121.386 198.781 118.349 199.166C116.118 199.449 114.895 201.884 114.403 203.157Z" fill="url(#paint16_linear_2940_22943)"/>
<path d="M116.044 215.485C116.044 215.485 114.124 209.867 111.666 210.073C109.208 210.279 107.273 212.728 110.32 215.481C114.109 218.905 116.044 215.485 116.044 215.485Z" fill="url(#paint17_linear_2940_22943)"/>
<path d="M90.3647 234.211C90.3647 234.211 122.205 229.184 147.342 235.887L145.666 261.862C145.666 261.862 138.963 297.892 133.936 313.812C133.936 313.812 114.664 317.164 105.447 312.136C105.447 312.136 97.9056 266.89 93.7162 260.186C93.7162 260.186 89.5267 242.59 90.3647 234.211Z" fill="url(#paint18_linear_2940_22943)"/>
<path d="M90.365 234.212C90.365 234.212 40.9285 287.838 99.163 308.367V304.177C99.163 304.177 77.3775 285.743 94.1355 260.606C94.1355 260.606 92.0407 236.726 90.365 234.212Z" fill="url(#paint19_linear_2940_22943)"/>
<path d="M137.93 266.292C137.93 266.292 210.665 246.494 174.549 195.578L172.106 199.038C172.106 199.038 180.981 232.159 144.936 235.436C144.936 235.436 137.606 260.878 137.93 266.292Z" fill="url(#paint20_linear_2940_22943)"/>
<path d="M174.796 195.839C174.796 195.839 175.615 186.009 170.7 185.19C165.784 184.371 164.146 189.286 163.327 191.743C162.508 194.201 170.7 199.116 172.338 199.116C173.977 199.116 174.796 195.839 174.796 195.839Z" fill="url(#paint21_linear_2940_22943)"/>
<path d="M99.5806 304.596C99.5806 304.596 107.122 299.568 110.473 301.244C113.825 302.92 113.825 305.434 113.825 305.434C113.825 305.434 112.149 308.786 109.635 307.947C107.121 307.11 101.256 308.786 98.7424 307.947C98.7428 307.947 97.9048 304.596 99.5806 304.596Z" fill="url(#paint22_linear_2940_22943)"/>
<path d="M243.18 290.722C240.608 293.38 236.847 295.653 234.203 297.065C238.038 301.964 243.255 306.893 250.188 311.747L252.121 316.281L258.673 308.681C258.673 308.681 247.232 302.756 243.18 290.722Z" fill="url(#paint23_linear_2940_22943)"/>
<path d="M275.222 437.382C275.226 437.244 275.219 437.105 275.186 436.963C273.238 428.676 262.988 423.369 262.988 423.369L258.888 423.624C256.417 430.861 256.647 435.327 256.993 437.32C257.003 437.376 257.019 437.43 257.033 437.484C260.406 437.84 267.354 438.149 275.222 437.382Z" fill="url(#paint24_linear_2940_22943)"/>
<path d="M257.033 437.484C257.205 438.15 257.686 438.675 258.311 438.817C263.1 439.905 270.749 439.215 273.962 438.847C274.671 438.766 275.199 438.12 275.222 437.382C267.354 438.149 260.406 437.84 257.033 437.484Z" fill="url(#paint25_linear_2940_22943)"/>
<path d="M257.34 417.499L258.94 425.875C259.057 426.489 259.519 426.954 260.088 427.017C260.784 427.094 261.775 427.148 262.775 427.018C263.672 426.901 264.31 426.001 264.167 425.023L263.081 417.592L257.34 417.499Z" fill="url(#paint26_linear_2940_22943)"/>
<path d="M292.95 437.979C288.43 437.779 286.099 437.209 284.898 436.695C284.888 437.145 284.883 437.602 284.89 438.077C284.897 438.583 285.266 438.994 285.728 438.998L310.559 439.238C311.352 439.246 311.829 438.334 311.497 437.602C308.238 437.819 299.937 438.287 292.95 437.979Z" fill="url(#paint27_linear_2940_22943)"/>
<path d="M311.498 437.602C311.469 437.538 311.444 437.474 311.403 437.413C309.259 434.314 303.772 428.123 292.78 425.299L287.488 425.047C287.488 425.047 285.065 429.106 284.898 436.695C286.1 437.209 288.43 437.779 292.95 437.979C299.937 438.287 308.238 437.819 311.498 437.602Z" fill="url(#paint28_linear_2940_22943)"/>
<path d="M286.637 417.007C286.689 417.403 287.318 423.412 287.561 425.742C287.619 426.296 288.013 426.73 288.516 426.798C289.416 426.92 290.873 427.042 292.154 426.801C292.845 426.671 293.354 426.018 293.366 425.249L293.518 415.834L286.637 417.007Z" fill="url(#paint29_linear_2940_22943)"/>
<path d="M284.15 307.486C284.15 307.486 296.138 356.218 294.923 417.28C294.901 418.393 294.104 419.342 293.011 419.554C291.4 419.866 289.033 420.23 287.081 420.143C286.038 420.097 285.179 419.31 285.02 418.278C283.399 407.75 274.077 348.435 268.377 338.738C268.377 338.738 263.677 391.357 264.468 418.708C264.488 419.388 263.98 419.97 263.304 420.037C262.277 420.139 260.635 420.203 258.552 419.947C257.761 419.85 257.131 419.241 257.031 418.451C255.899 409.544 249.41 356.533 250.336 318.436C250.388 316.287 256.203 307.036 256.203 307.036L284.15 307.486Z" fill="#191919"/>
<path d="M302.856 249.043C300.826 246.412 299.055 243.598 297.583 240.705C295.526 236.663 297.37 243.296 296.864 238.762C281.165 227.044 257.155 232.46 247.885 233.477C244.845 233.81 242.047 235.261 240.01 237.542C231.935 246.589 214.134 271.425 234.202 297.065C236.846 295.653 240.607 293.38 243.179 290.722C241.017 284.299 240.963 276.136 245.871 266.206C246.021 267.002 246.209 267.79 246.44 268.567C252.649 289.402 252.72 306.658 252.642 310.633C252.631 311.173 252.947 311.664 253.445 311.873C262.002 315.463 278.612 313.676 284.19 312.936C285.213 312.801 285.915 311.862 285.79 310.838C283.377 291.007 297.918 258.684 301.751 250.591C302.027 250.009 302.404 249.487 302.856 249.043Z" fill="url(#paint30_linear_2940_22943)"/>
<path d="M245.028 264.642C241.71 255.087 243.154 243.637 243.169 243.522L244.124 243.647C244.109 243.76 242.696 254.99 245.938 264.326L245.028 264.642Z" fill="url(#paint31_linear_2940_22943)"/>
<path d="M267.929 337.494C267.715 337.49 267.521 337.344 267.469 337.126C266.476 333.025 258.619 328.409 258.54 328.363C258.31 328.229 258.232 327.934 258.366 327.704C258.5 327.475 258.794 327.396 259.025 327.53C259.362 327.727 267.316 332.4 268.405 336.899C268.468 337.157 268.309 337.418 268.05 337.48C268.01 337.49 267.969 337.495 267.929 337.494Z" fill="url(#paint32_linear_2940_22943)"/>
<path d="M323.868 221.391C312.601 235.643 296.305 235.377 285.236 236.326C270.621 237.578 267.1 246.931 267.1 246.931L292.098 255.64C317.314 255.718 328.415 240.052 333.235 227.853C330.272 224.423 326.797 222.485 323.868 221.391Z" fill="url(#paint33_linear_2940_22943)"/>
<path d="M334.964 196.304L332.809 202.717C330.57 210.778 327.476 216.827 323.867 221.391C326.796 222.485 330.271 224.424 333.235 227.853C336.304 220.087 336.829 213.726 336.829 213.726C341.174 198.624 334.964 196.304 334.964 196.304Z" fill="url(#paint34_linear_2940_22943)"/>
<path d="M353.513 190.429C352.358 189.759 350.961 189.65 349.716 190.134L337.568 194.853C337.568 194.853 336.374 193.847 337.651 191.206C338.928 188.565 336.365 186.766 336.365 186.766C336.365 186.766 334.803 190.568 332.657 196.286C331.431 199.556 332.017 202.75 332.743 204.888L337.814 205.747C344.783 202.285 350.578 197.441 355.52 191.593L353.513 190.429Z" fill="url(#paint35_linear_2940_22943)"/>
<path d="M266.628 213.13C266.628 213.13 264.068 228.404 263.725 233.204C263.725 233.204 276.087 236.618 279.314 234.787L278.91 216.311L266.628 213.13Z" fill="url(#paint36_linear_2940_22943)"/>
<path d="M280.518 199.053C280.518 199.053 284.628 208.493 284.904 213.447C285.18 218.402 286.247 221.617 280.518 222.615C274.79 223.613 269.964 220.759 267.349 215.823C267.349 215.823 263.252 208.218 264.172 205.104C265.09 201.989 280.518 199.053 280.518 199.053Z" fill="url(#paint37_linear_2940_22943)"/>
<path d="M257.667 202.88C258.783 201.942 259.618 202.091 260.14 202.409C260.404 202.57 260.735 202.399 260.742 202.09C260.857 197.204 265.53 194.344 272.599 193.039C274.929 192.609 276.569 191.988 277.732 191.336C277.958 191.973 278.298 192.583 278.75 193.129C279.091 193.54 279.45 193.941 279.821 194.332C280.561 195.143 281.32 195.936 282.098 196.716C282.915 197.535 283.965 197.917 285.039 197.97C284.997 198.046 284.963 198.124 284.917 198.199C282.677 201.885 272.291 204.003 269.669 205.078C267.047 206.153 270.031 212.274 270.031 212.274H267.762C267.538 212.274 267.36 212.464 267.374 212.687L267.642 217.016C267.653 217.205 267.53 217.372 267.347 217.419C266.666 217.593 264.863 217.771 261.815 216.142C258.835 214.549 259.985 213.354 260.756 212.852C260.975 212.71 260.977 212.394 260.775 212.228C256.52 208.746 255.726 204.512 257.667 202.88Z" fill="url(#paint38_linear_2940_22943)"/>
<path d="M269.485 213.18C269.485 213.18 267.917 207.15 265.213 208.841C262.51 210.532 266.616 215.598 268.79 215.823L269.485 213.18Z" fill="url(#paint39_linear_2940_22943)"/>
<path d="M225.621 236.954C225.621 236.954 265.462 252.854 262.128 265.357C258.794 277.86 237.123 257.022 237.123 257.022L225.621 236.954Z" fill="url(#paint40_linear_2940_22943)"/>
<path d="M254.628 181.172H250.461V294.53H254.628V181.172Z" fill="url(#paint41_linear_2940_22943)"/>
<path d="M203.904 109.77L211.205 182.119C211.716 187.175 216.131 190.924 221.203 190.606L283.8 186.694C288.562 186.397 292.356 182.598 292.648 177.837L297.292 102.208C297.649 96.4051 292.733 91.6581 286.946 92.2166L212.404 99.4093C207.189 99.9123 203.378 104.558 203.904 109.77Z" fill="url(#paint42_linear_2940_22943)"/>
<path d="M209.915 201.046C209.915 201.046 204.587 203.637 203.608 206.614C202.822 209.002 196.931 209.31 196.349 214.008C196.049 216.433 194.254 218.375 191.839 218.745C185.822 219.668 176.551 222.792 175.067 233.237C173.935 241.21 177.999 244.233 182.265 245.28C185.398 246.049 187.48 249.096 186.846 252.259C186.238 255.293 187.145 258.8 192.401 261.573C204.179 267.788 215.941 246.85 215.941 246.85L218.351 210.29L209.915 201.046Z" fill="url(#paint43_linear_2940_22943)"/>
<path d="M161.503 430.287L160.741 436.552C160.596 437.741 159.66 438.681 158.471 438.817C156.462 439.046 153.239 439.281 150.085 438.948C148.701 438.801 147.802 437.4 148.224 436.073C148.992 433.654 150.399 430.023 152.427 427.887H159.377C160.662 427.887 161.658 429.011 161.503 430.287Z" fill="url(#paint44_linear_2940_22943)"/>
<path d="M215.942 356.89L217.115 363.791C217.115 363.791 213.186 403.584 212.487 419.502C212.378 421.997 213.023 424.463 214.333 426.59L221.164 437.684L203.803 427.439L203.457 425.32L206.299 421.413L202.577 376.834C202.358 374.215 202.898 371.589 204.133 369.269L207.724 362.523L215.942 356.89Z" fill="url(#paint45_linear_2940_22943)"/>
<path d="M222.309 439.29H216.768C215.731 439.29 214.753 438.814 214.121 437.992C212.393 435.748 208.815 431.37 207.104 431.255C204.8 431.102 205.095 439.29 205.095 439.29H203.804L202.168 429.115C201.757 426.554 203.03 424.018 205.329 422.818C205.329 422.818 205.856 426.712 208.711 428.435C211.566 430.157 220.329 436.326 220.329 436.326C220.329 436.326 221.403 436.173 222.581 436.386C224.329 436.702 224.085 439.29 222.309 439.29Z" fill="url(#paint46_linear_2940_22943)"/>
<path d="M192.162 360.168C192.162 360.168 169.147 403.825 165.489 413.792C161.83 423.76 160.548 432.075 160.499 432.863C160.423 434.093 158.892 435.273 154.674 435.273C152.497 435.273 151.431 434.401 150.909 433.556C150.463 432.835 150.44 431.934 150.816 431.174C152.147 428.48 156.372 419.869 157.936 415.964C159.805 411.302 163.823 390.171 166.027 382.824C168.231 375.478 170.722 367.508 180.319 360.168C180.319 360.168 186.908 353.715 192.162 360.168Z" fill="url(#paint47_linear_2940_22943)"/>
<path d="M206.701 288.633C212.638 263.476 197.113 251.188 197.113 251.188C197.947 241.186 224.378 235.993 224.378 235.993C224.378 235.993 240.877 248.055 238.919 257.496C237.772 263.03 227.322 290.641 227.322 290.641C227.322 290.641 217.66 295.214 206.701 288.633Z" fill="url(#paint48_linear_2940_22943)"/>
<path d="M193.539 301.086C195.955 293.808 206.702 288.632 206.702 288.632C217.661 295.214 227.324 290.641 227.324 290.641C227.324 290.641 229.491 298.923 227.995 306.621C226.5 314.319 217.116 363.79 217.116 363.79C202.33 366.785 179.59 360.775 179.59 360.775C189.008 344.055 191.123 308.365 193.539 301.086Z" fill="#191919"/>
<path d="M213.593 219.369L208.767 241.05C208.304 242.96 210.045 242.647 211.976 242.283C215.138 241.687 219.213 240.459 220.576 237.999C220.714 237.748 220.783 237.465 220.823 237.182L222.896 222.148C223.061 220.955 222.416 219.797 221.315 219.309L217.314 217.535C215.773 216.852 213.99 217.731 213.593 219.369Z" fill="url(#paint49_linear_2940_22943)"/>
<path d="M219.256 198.726C219.256 198.726 224.972 201.14 228.859 209.401C232.746 217.661 229.843 221.475 226.197 221.999C222.551 222.523 217.099 222.443 211.331 217.107C205.564 211.77 211.824 195.865 219.256 198.726Z" fill="url(#paint50_linear_2940_22943)"/>
<path d="M215.208 212.696C215.208 212.696 210.895 200.611 221.61 200.468L224.132 202.23C224.132 202.23 228.063 195.529 221.61 192.331C215.157 189.132 207.605 191.774 204.859 200.468C202.113 209.161 201.645 214.981 206.213 219.14C210.781 223.299 212.664 218.583 212.664 218.583C212.664 218.583 210.176 214.693 211.189 212.612C212.202 210.53 214.538 213.042 214.538 213.042L215.208 212.696Z" fill="url(#paint51_linear_2940_22943)"/>
<path d="M214.006 214.043C214.006 214.043 211.825 207.817 208.916 210.296C206.007 212.775 211.281 216.047 213.345 217.106L214.006 214.043Z" fill="url(#paint52_linear_2940_22943)"/>
<path d="M197.114 251.189C197.114 251.189 192.113 277.028 213.784 283.696C235.456 290.364 250.581 261.098 250.581 261.098C250.581 261.098 254.627 257.023 254.627 252.022C254.627 247.021 250.459 243.476 250.459 243.476C250.459 243.476 243.791 252.856 243.791 257.857C243.791 262.858 222.953 277.028 215.451 272.86C208.161 268.81 208.055 260.52 208.458 256.629C208.617 255.098 208.152 253.572 207.138 252.414C204.895 249.848 199.991 247.16 197.114 251.189Z" fill="url(#paint53_linear_2940_22943)"/>
<path d="M256.205 262.434L255.582 271.162C255.505 272.232 254.351 272.884 253.408 272.373C252.547 271.906 251.503 271.019 250.46 269.352C248.164 265.685 250.083 261.17 254.927 261.099C255.662 261.088 256.258 261.7 256.205 262.434Z" fill="url(#paint54_linear_2940_22943)"/>
<path d="M392.703 197.521C391.479 197.843 390.251 197.003 389.96 195.645L389.959 195.637C389.668 194.279 390.425 192.916 391.649 192.593L426.68 183.361C427.904 183.038 429.133 183.878 429.423 185.237L429.425 185.244C429.716 186.603 428.959 187.966 427.735 188.289L392.703 197.521Z" fill="white"/>
<path d="M393.51 224.399C392.252 224.349 391.269 223.178 391.314 221.782L391.314 221.775C391.359 220.379 392.414 219.288 393.672 219.338L429.655 220.758C430.912 220.808 431.895 221.979 431.851 223.375L431.85 223.382C431.806 224.778 430.75 225.869 429.493 225.82L393.51 224.399Z" fill="white"/>
<path d="M387.064 247.747C385.858 247.346 385.175 245.936 385.536 244.599L385.538 244.592C385.9 243.254 387.17 242.495 388.375 242.896L422.862 254.38C424.067 254.781 424.751 256.191 424.389 257.528L424.387 257.535C424.026 258.873 422.756 259.632 421.55 259.231L387.064 247.747Z" fill="white"/>
<defs>
<linearGradient id="paint0_linear_2940_22943" x1="3.39092" y1="118.259" x2="183.122" y2="194.916" gradientUnits="userSpaceOnUse">
<stop stop-color="#BD9151"/>
<stop offset="1" stop-color="white"/>
</linearGradient>
<linearGradient id="paint1_linear_2940_22943" x1="14.4337" y1="305.297" x2="68.0514" y2="71.6518" gradientUnits="userSpaceOnUse">
<stop stop-color="#5A0000"/>
<stop offset="1" stop-color="#BD9151"/>
</linearGradient>
<linearGradient id="paint2_linear_2940_22943" x1="185.634" y1="104.529" x2="344.451" y2="435.355" gradientUnits="userSpaceOnUse">
<stop stop-color="#5A0000"/>
<stop offset="1" stop-color="#BD9151"/>
</linearGradient>
<linearGradient id="paint3_linear_2940_22943" x1="792.273" y1="48.9804" x2="535.374" y2="147.74" gradientUnits="userSpaceOnUse">
<stop stop-color="white"/>
<stop offset="1" stop-color="#BD9151"/>
</linearGradient>
<linearGradient id="paint4_linear_2940_22943" x1="499.813" y1="121.054" x2="273.881" y2="270.204" gradientUnits="userSpaceOnUse">
<stop stop-color="#BD9151"/>
<stop offset="1" stop-color="#5A0000"/>
</linearGradient>
<linearGradient id="paint5_linear_2940_22943" x1="408.17" y1="217.069" x2="225.99" y2="215.844" gradientUnits="userSpaceOnUse">
<stop stop-color="#5A0000"/>
<stop offset="1" stop-color="#BD9151"/>
</linearGradient>
<linearGradient id="paint6_linear_2940_22943" x1="171.205" y1="176.652" x2="175.382" y2="176.652" gradientUnits="userSpaceOnUse">
<stop stop-color="#7C27DD"/>
<stop offset="1" stop-color="#2B41D9"/>
</linearGradient>
<linearGradient id="paint7_linear_2940_22943" x1="201.477" y1="40.194" x2="95.3755" y2="175.536" gradientUnits="userSpaceOnUse">
<stop stop-color="#9CFFFB"/>
<stop offset="1" stop-color="#9BFFFA"/>
</linearGradient>
<linearGradient id="paint8_linear_2940_22943" x1="105.726" y1="484.957" x2="104.725" y2="454.913" gradientUnits="userSpaceOnUse">
<stop stop-color="#7C27DD"/>
<stop offset="1" stop-color="#2B41D9"/>
</linearGradient>
<linearGradient id="paint9_linear_2940_22943" x1="70.0299" y1="408.066" x2="131.931" y2="456.671" gradientUnits="userSpaceOnUse">
<stop stop-color="#53D8FF"/>
<stop offset="1" stop-color="#3840F7"/>
</linearGradient>
<linearGradient id="paint10_linear_2940_22943" x1="106.918" y1="408.81" x2="103.559" y2="438.133" gradientUnits="userSpaceOnUse">
<stop stop-color="#F9B776"/>
<stop offset="1" stop-color="#F47960"/>
</linearGradient>
<linearGradient id="paint11_linear_2940_22943" x1="163.961" y1="422.492" x2="104.101" y2="469.494" gradientUnits="userSpaceOnUse">
<stop stop-color="#53D8FF"/>
<stop offset="1" stop-color="#3840F7"/>
</linearGradient>
<linearGradient id="paint12_linear_2940_22943" x1="146.697" y1="503.537" x2="147.699" y2="473.492" gradientUnits="userSpaceOnUse">
<stop stop-color="#7C27DD"/>
<stop offset="1" stop-color="#2B41D9"/>
</linearGradient>
<linearGradient id="paint13_linear_2940_22943" x1="142.312" y1="412.561" x2="139.169" y2="439.992" gradientUnits="userSpaceOnUse">
<stop stop-color="#F9B776"/>
<stop offset="1" stop-color="#F47960"/>
</linearGradient>
<linearGradient id="paint14_linear_2940_22943" x1="109.312" y1="222.921" x2="124.38" y2="222.921" gradientUnits="userSpaceOnUse">
<stop stop-color="#F9B776"/>
<stop offset="1" stop-color="#F47960"/>
</linearGradient>
<linearGradient id="paint15_linear_2940_22943" x1="118.841" y1="198.832" x2="125.043" y2="235.331" gradientUnits="userSpaceOnUse">
<stop stop-color="#F9B776"/>
<stop offset="1" stop-color="#F47960"/>
</linearGradient>
<linearGradient id="paint16_linear_2940_22943" x1="112.319" y1="216.108" x2="130.597" y2="196.691" gradientUnits="userSpaceOnUse">
<stop stop-color="#2B3582"/>
<stop offset="1" stop-color="#150E42"/>
</linearGradient>
<linearGradient id="paint17_linear_2940_22943" x1="113.458" y1="238.671" x2="112.355" y2="213.041" gradientUnits="userSpaceOnUse">
<stop stop-color="#F9B776"/>
<stop offset="1" stop-color="#F47960"/>
</linearGradient>
<linearGradient id="paint18_linear_2940_22943" x1="129.85" y1="229.443" x2="-16.1653" y2="597.119" gradientUnits="userSpaceOnUse">
<stop stop-color="#FDF53F"/>
<stop offset="1" stop-color="#D93C65"/>
</linearGradient>
<linearGradient id="paint19_linear_2940_22943" x1="111.34" y1="222.092" x2="-34.6756" y2="589.769" gradientUnits="userSpaceOnUse">
<stop stop-color="#FDF53F"/>
<stop offset="1" stop-color="#D93C65"/>
</linearGradient>
<linearGradient id="paint20_linear_2940_22943" x1="160.824" y1="241.744" x2="14.8088" y2="609.42" gradientUnits="userSpaceOnUse">
<stop stop-color="#FDF53F"/>
<stop offset="1" stop-color="#D93C65"/>
</linearGradient>
<linearGradient id="paint21_linear_2940_22943" x1="165.595" y1="180.38" x2="174.197" y2="208.642" gradientUnits="userSpaceOnUse">
<stop stop-color="#F9B776"/>
<stop offset="1" stop-color="#F47960"/>
</linearGradient>
<linearGradient id="paint22_linear_2940_22943" x1="112.978" y1="299.806" x2="86.165" y2="322.709" gradientUnits="userSpaceOnUse">
<stop stop-color="#F9B776"/>
<stop offset="1" stop-color="#F47960"/>
</linearGradient>
<linearGradient id="paint23_linear_2940_22943" x1="234.103" y1="303.283" x2="258.753" y2="303.68" gradientUnits="userSpaceOnUse">
<stop stop-color="#F9B776"/>
<stop offset="1" stop-color="#F47960"/>
</linearGradient>
<linearGradient id="paint24_linear_2940_22943" x1="256.845" y1="430.502" x2="275.328" y2="430.8" gradientUnits="userSpaceOnUse">
<stop stop-color="#2B3582"/>
<stop offset="1" stop-color="#150E42"/>
</linearGradient>
<linearGradient id="paint25_linear_2940_22943" x1="303.469" y1="409.442" x2="235.374" y2="461.16" gradientUnits="userSpaceOnUse">
<stop stop-color="#53D8FF"/>
<stop offset="1" stop-color="#3840F7"/>
</linearGradient>
<linearGradient id="paint26_linear_2940_22943" x1="262.324" y1="409.542" x2="258.297" y2="440.299" gradientUnits="userSpaceOnUse">
<stop stop-color="#F9B776"/>
<stop offset="1" stop-color="#F47960"/>
</linearGradient>
<linearGradient id="paint27_linear_2940_22943" x1="315.17" y1="424.848" x2="247.075" y2="476.566" gradientUnits="userSpaceOnUse">
<stop stop-color="#53D8FF"/>
<stop offset="1" stop-color="#3840F7"/>
</linearGradient>
<linearGradient id="paint28_linear_2940_22943" x1="284.983" y1="431.448" x2="311.59" y2="431.876" gradientUnits="userSpaceOnUse">
<stop stop-color="#2B3582"/>
<stop offset="1" stop-color="#150E42"/>
</linearGradient>
<linearGradient id="paint29_linear_2940_22943" x1="291.032" y1="413.301" x2="287.005" y2="444.058" gradientUnits="userSpaceOnUse">
<stop stop-color="#F9B776"/>
<stop offset="1" stop-color="#F47960"/>
</linearGradient>
<linearGradient id="paint30_linear_2940_22943" x1="284.468" y1="235.479" x2="190.984" y2="398.408" gradientUnits="userSpaceOnUse">
<stop stop-color="#FDF53F"/>
<stop offset="1" stop-color="#D93C65"/>
</linearGradient>
<linearGradient id="paint31_linear_2940_22943" x1="261.768" y1="223.476" x2="233.035" y2="274.299" gradientUnits="userSpaceOnUse">
<stop stop-color="#53D8FF"/>
<stop offset="1" stop-color="#3840F7"/>
</linearGradient>
<linearGradient id="paint32_linear_2940_22943" x1="271.163" y1="319.102" x2="261.422" y2="335.801" gradientUnits="userSpaceOnUse">
<stop stop-color="#2B3582"/>
<stop offset="1" stop-color="#150E42"/>
</linearGradient>
<linearGradient id="paint33_linear_2940_22943" x1="297.319" y1="242.852" x2="203.836" y2="405.78" gradientUnits="userSpaceOnUse">
<stop stop-color="#FDF53F"/>
<stop offset="1" stop-color="#D93C65"/>
</linearGradient>
<linearGradient id="paint34_linear_2940_22943" x1="326.459" y1="160.532" x2="338.435" y2="293.976" gradientUnits="userSpaceOnUse">
<stop stop-color="#F9B776"/>
<stop offset="1" stop-color="#F47960"/>
</linearGradient>
<linearGradient id="paint35_linear_2940_22943" x1="340.418" y1="159.279" x2="352.395" y2="292.723" gradientUnits="userSpaceOnUse">
<stop stop-color="#F9B776"/>
<stop offset="1" stop-color="#F47960"/>
</linearGradient>
<linearGradient id="paint36_linear_2940_22943" x1="270.009" y1="242.209" x2="273.457" y2="220.945" gradientUnits="userSpaceOnUse">
<stop stop-color="#F9B776"/>
<stop offset="1" stop-color="#F47960"/>
</linearGradient>
<linearGradient id="paint37_linear_2940_22943" x1="281.38" y1="207.362" x2="257.888" y2="225.337" gradientUnits="userSpaceOnUse">
<stop stop-color="#F9B776"/>
<stop offset="1" stop-color="#F47960"/>
</linearGradient>
<linearGradient id="paint38_linear_2940_22943" x1="263.275" y1="194.416" x2="284.547" y2="221.804" gradientUnits="userSpaceOnUse">
<stop stop-color="#2B3582"/>
<stop offset="1" stop-color="#150E42"/>
</linearGradient>
<linearGradient id="paint39_linear_2940_22943" x1="278.466" y1="203.554" x2="254.974" y2="221.528" gradientUnits="userSpaceOnUse">
<stop stop-color="#F9B776"/>
<stop offset="1" stop-color="#F47960"/>
</linearGradient>
<linearGradient id="paint40_linear_2940_22943" x1="225.621" y1="253.153" x2="262.326" y2="253.153" gradientUnits="userSpaceOnUse">
<stop stop-color="#F9B776"/>
<stop offset="1" stop-color="#F47960"/>
</linearGradient>
<linearGradient id="paint41_linear_2940_22943" x1="250.461" y1="237.851" x2="254.628" y2="237.851" gradientUnits="userSpaceOnUse">
<stop stop-color="#7C27DD"/>
<stop offset="1" stop-color="#2B41D9"/>
</linearGradient>
<linearGradient id="paint42_linear_2940_22943" x1="280.662" y1="101.709" x2="174.806" y2="236.738" gradientUnits="userSpaceOnUse">
<stop stop-color="#53D8FF"/>
<stop offset="1" stop-color="#3840F7"/>
</linearGradient>
<linearGradient id="paint43_linear_2940_22943" x1="219.285" y1="179.723" x2="203.482" y2="219.363" gradientUnits="userSpaceOnUse">
<stop stop-color="#2B3582"/>
<stop offset="1" stop-color="#150E42"/>
</linearGradient>
<linearGradient id="paint44_linear_2940_22943" x1="161.519" y1="433.5" x2="148.119" y2="433.5" gradientUnits="userSpaceOnUse">
<stop stop-color="#A737D5"/>
<stop offset="1" stop-color="#EF497A"/>
</linearGradient>
<linearGradient id="paint45_linear_2940_22943" x1="218.139" y1="486.342" x2="198.856" y2="260.97" gradientUnits="userSpaceOnUse">
<stop stop-color="#F9B776"/>
<stop offset="1" stop-color="#F47960"/>
</linearGradient>
<linearGradient id="paint46_linear_2940_22943" x1="223.773" y1="431.054" x2="202.092" y2="431.054" gradientUnits="userSpaceOnUse">
<stop stop-color="#A737D5"/>
<stop offset="1" stop-color="#EF497A"/>
</linearGradient>
<linearGradient id="paint47_linear_2940_22943" x1="179.35" y1="489.696" x2="160.062" y2="264.264" gradientUnits="userSpaceOnUse">
<stop stop-color="#F9B776"/>
<stop offset="1" stop-color="#F47960"/>
</linearGradient>
<linearGradient id="paint48_linear_2940_22943" x1="217.526" y1="259.053" x2="207.884" y2="348.51" gradientUnits="userSpaceOnUse">
<stop stop-color="#FDF53F"/>
<stop offset="1" stop-color="#D93C65"/>
</linearGradient>
<linearGradient id="paint49_linear_2940_22943" x1="220.255" y1="264.192" x2="216.633" y2="237.693" gradientUnits="userSpaceOnUse">
<stop stop-color="#F9B776"/>
<stop offset="1" stop-color="#F47960"/>
</linearGradient>
<linearGradient id="paint50_linear_2940_22943" x1="229.397" y1="230.027" x2="197.792" y2="173.781" gradientUnits="userSpaceOnUse">
<stop stop-color="#F9B776"/>
<stop offset="1" stop-color="#F47960"/>
</linearGradient>
<linearGradient id="paint51_linear_2940_22943" x1="222.6" y1="181.045" x2="206.798" y2="220.685" gradientUnits="userSpaceOnUse">
<stop stop-color="#2B3582"/>
<stop offset="1" stop-color="#150E42"/>
</linearGradient>
<linearGradient id="paint52_linear_2940_22943" x1="222.669" y1="233.807" x2="191.064" y2="177.561" gradientUnits="userSpaceOnUse">
<stop stop-color="#F9B776"/>
<stop offset="1" stop-color="#F47960"/>
</linearGradient>
<linearGradient id="paint53_linear_2940_22943" x1="196.615" y1="264.08" x2="254.626" y2="264.08" gradientUnits="userSpaceOnUse">
<stop stop-color="#F9B776"/>
<stop offset="1" stop-color="#F47960"/>
</linearGradient>
<linearGradient id="paint54_linear_2940_22943" x1="249.494" y1="266.824" x2="256.209" y2="266.824" gradientUnits="userSpaceOnUse">
<stop stop-color="#F9B776"/>
<stop offset="1" stop-color="#F47960"/>
</linearGradient>
</defs>
</svg>
