<svg width="100" height="100" viewBox="0 0 100 100" fill="none" xmlns="http://www.w3.org/2000/svg">
<path d="M50 100C77.6142 100 100 77.6142 100 50C100 22.3858 77.6142 0 50 0C22.3858 0 0 22.3858 0 50C0 77.6142 22.3858 100 50 100Z" fill="#F2E6DC"/>
<path d="M62.5326 24.2835H61.1587C61.0357 23.6138 60.8603 22.9626 60.6373 22.3338L61.8262 21.6474L59.5015 17.6209L58.3099 18.3089C57.8726 17.797 57.3957 17.32 56.8838 16.8828L57.5717 15.6911L53.5453 13.3665L52.8589 14.5554C52.2301 14.3324 51.5789 14.1569 50.9092 14.0339V12.6602H46.2599V14.0339C45.5903 14.1569 44.9391 14.3324 44.3103 14.5554L43.6239 13.3665L39.5974 15.6911L40.2854 16.8828C39.7735 17.32 39.2966 17.797 38.8593 18.3089L37.6677 17.6209L35.3431 21.6474L36.532 22.3338C36.309 22.9626 36.1335 23.6138 36.0105 24.2835H34.6367V28.9328H36.0105C36.1335 29.6025 36.309 30.2537 36.532 30.8825L35.3431 31.569L37.6678 35.5953L38.8593 34.9074C39.2967 35.4193 39.7736 35.8962 40.2855 36.3335L39.5975 37.5251L43.6239 39.8498L44.3103 38.6609C44.9391 38.8839 45.5903 39.0593 46.26 39.1823V40.5561H50.9093V39.1823C51.579 39.0593 52.2302 38.8839 52.859 38.6609L53.5454 39.8498L57.5717 37.5251L56.8838 36.3335C57.3957 35.8962 57.8726 35.4193 58.3099 34.9074L59.5016 35.5953L61.8262 31.569L60.6373 30.8825C60.8603 30.2538 61.0358 29.6025 61.1588 28.9328H62.5326L62.5326 24.2835ZM55.7051 29.5778C54.9829 31.4879 53.464 33.0067 51.5539 33.7287C45.0638 36.1821 39.0105 30.1287 41.4641 23.6386C42.1862 21.7284 43.7051 20.2096 45.6153 19.4875C52.1055 17.0341 58.1588 23.0876 55.7051 29.5778Z" fill="white"/>
<path d="M48.5858 36.899C42.9114 36.899 38.2949 32.2825 38.2949 26.6081C38.2949 24.1288 39.1891 21.7336 40.8126 19.8639C42.4201 18.013 44.6333 16.794 47.0448 16.4319C47.1099 16.4227 47.1719 16.4673 47.1818 16.5332C47.1917 16.599 47.1464 16.6604 47.0805 16.6702C42.2093 17.4017 38.5358 21.6741 38.5358 26.6081C38.5358 32.1497 43.0442 36.658 48.5857 36.658C53.1645 36.658 57.1649 33.5667 58.3139 29.1407C58.3307 29.0763 58.3962 29.0374 58.4607 29.0544C58.5252 29.0711 58.5638 29.1368 58.5471 29.2012C57.3706 33.7335 53.2743 36.899 48.5858 36.899Z" fill="#F2E6DC"/>
<path d="M89.4529 87.3821H21.0736C21.0071 87.3821 20.9531 87.3282 20.9531 87.2616V35.433C20.9531 35.3664 21.0071 35.3125 21.0736 35.3125H89.4529C89.5195 35.3125 89.5733 35.3664 89.5733 35.433V87.2616C89.5733 87.3282 89.5195 87.3821 89.4529 87.3821ZM21.1941 87.1411H89.3324V35.5535H21.1941V87.1411Z" fill="#D3BBA3"/>
<path d="M19.5114 86.3242L87.8906 86.3242V34.4956L19.5114 34.4956V86.3242Z" fill="#E6D0BE"/>
<path d="M85.7461 80.0233L85.7461 36.6416L21.6575 36.6416L21.6575 80.0233L85.7461 80.0233Z" fill="#F7F1EB"/>
<path d="M46.5049 87.3525H48.5293C48.5293 88.8711 49.7604 90.1022 51.2789 90.1022H56.1265C57.6451 90.1022 58.8762 88.8712 58.8762 87.3525H60.9005L62.925 98.1108V99.0106H44.4805V98.1108L46.5049 87.3525Z" fill="#E6D0BE"/>
<path d="M32.1515 41.2881L62.9219 41.2881V39.853L32.1515 39.853V41.2881Z" fill="#E6D0BE"/>
<path d="M28.4055 44.2373L59.1758 44.2373V42.8022L28.4055 42.8022V44.2373Z" fill="white"/>
<path d="M37.7101 47.4004L68.4805 47.4004V45.9653L37.7101 45.9653V47.4004Z" fill="white"/>
<path d="M26.7575 50.3506L64.7344 50.3506V48.9155L26.7575 48.9155V50.3506Z" fill="white"/>
<path d="M41.4591 53.2871L81.3984 53.2871V51.852L41.4591 51.852V53.2871Z" fill="#E6D0BE"/>
<path d="M25.7996 56.2363L68.4805 56.2363V54.8012L25.7996 54.8012V56.2363Z" fill="white"/>
<path d="M34.6172 59.4424L82.8066 59.4424V58.0072L34.6172 58.0072V59.4424Z" fill="#E6D0BE"/>
<path d="M26.882 62.21L57.6523 62.21V60.7748L26.882 60.7748V62.21Z" fill="white"/>
<path d="M25.6047 65.5547H56.375V64.1195H25.6047V65.5547Z" fill="white"/>
<path d="M29.2224 68.5049H67.1992V67.0697H29.2224V68.5049Z" fill="white"/>
<path d="M43.9239 71.4414H83.8633V70.0063H43.9239V71.4414Z" fill="#E6D0BE"/>
<path d="M28.2645 74.3916H70.9453V72.9565H28.2645V74.3916Z" fill="white"/>
<path d="M67.2396 95.4677L61.8694 97.8004L58.043 96.1189C50.1068 92.6316 44.9824 84.7826 44.9824 76.1139L45.1788 58.921L62.0193 54.5234L79.1491 59.1174L78.9528 77.6094C78.9528 85.3635 74.3517 92.3784 67.2396 95.4677Z" fill="#D87355"/>
<path d="M66.4658 92.9825L61.8407 95.0428L58.5452 93.5577C51.7102 90.4775 47.2969 83.5448 47.2969 75.8882L47.466 60.7024L61.9596 56.9814L76.7228 60.8759L76.5537 77.209C76.5537 84.0579 72.591 90.2538 66.4658 92.9825Z" fill="white"/>
<path d="M61.9604 56.9814L61.748 57.0359V95.0007L61.8415 95.0428L66.4666 92.9825C72.5918 90.2538 76.5545 84.0579 76.5545 77.209L76.7236 60.8759L61.9604 56.9814Z" fill="#F7F1EB"/>
<path d="M61.8934 98.7978C61.8769 98.7978 61.8604 98.7944 61.8449 98.7876L57.8754 97.0432C49.6007 93.4072 44.2539 85.2176 44.2539 76.1792L44.4576 58.3414C44.4583 58.2871 44.4951 58.24 44.5477 58.2262L62.0183 53.664C62.0386 53.6588 62.0597 53.6588 62.08 53.6642L79.851 58.4302C79.9041 58.4444 79.9408 58.4928 79.9402 58.5478L79.7366 77.7319C79.7366 85.8266 74.9384 93.1423 67.5126 96.3677L61.9414 98.7877C61.9261 98.7945 61.9098 98.7978 61.8934 98.7978ZM44.6975 58.4361L44.4948 76.1806C44.4948 85.1219 49.7851 93.225 57.9723 96.8227L61.8936 98.5459L67.4166 96.1468C74.7543 92.9594 79.4956 85.7306 79.4956 77.7306L79.6983 58.6387L62.0483 53.9052L44.6975 58.4361Z" fill="#363E44"/>
<path d="M53.7148 71.0645V77.1033C53.7148 81.3819 57.1834 84.8505 61.4621 84.8505C65.7407 84.8505 69.2093 81.3819 69.2093 77.1033V71.0645H53.7148ZM62.0804 77.5187V80.787H60.8436V77.5187C60.1681 77.2674 59.6861 76.6187 59.6861 75.8557C59.6861 74.8748 60.4812 74.0798 61.4621 74.0798C62.4428 74.0798 63.238 74.8748 63.238 75.8557C63.238 76.6187 62.7559 77.2674 62.0804 77.5187Z" fill="#EFBC73"/>
<path d="M62.0337 84.5426C57.6954 84.5426 54.166 81.0132 54.166 76.6749V70.6361C54.166 70.5695 54.2199 70.5156 54.2865 70.5156H69.7809C69.8475 70.5156 69.9014 70.5695 69.9014 70.6361V76.6749C69.9014 81.0132 66.372 84.5426 62.0337 84.5426ZM54.407 70.7566V76.6749C54.407 80.8803 57.8284 84.3016 62.0337 84.3016C66.2391 84.3016 69.6604 80.8803 69.6604 76.6749V70.7566H54.407ZM62.6521 80.4792H61.4153C61.3487 80.4792 61.2948 80.4253 61.2948 80.3587V77.1721C60.5991 76.8772 60.1373 76.1865 60.1373 75.4274C60.1373 74.3817 60.9879 73.531 62.0337 73.531C63.0794 73.531 63.9301 74.3817 63.9301 75.4274C63.9301 76.1865 63.4683 76.8772 62.7725 77.1721V80.3587C62.7726 80.4253 62.7187 80.4792 62.6521 80.4792ZM61.5358 80.2382H62.5316V77.0904C62.5316 77.04 62.563 76.995 62.6101 76.9775C63.2555 76.7375 63.6892 76.1146 63.6892 75.4275C63.6892 74.5147 62.9465 73.772 62.0337 73.772C61.1209 73.772 60.3783 74.5147 60.3783 75.4275C60.3783 76.1146 60.8119 76.7375 61.4573 76.9775C61.5044 76.995 61.5357 77.0401 61.5357 77.0904L61.5358 80.2382Z" fill="#363E44"/>
<path d="M68.6406 69.419C68.574 69.419 68.5201 69.3651 68.5201 69.2985C68.5201 65.5637 65.4816 62.5252 61.7467 62.5252C58.0119 62.5252 54.9734 65.5637 54.9734 69.2985C54.9734 69.3651 54.9195 69.419 54.8529 69.419C54.7863 69.419 54.7324 69.3651 54.7324 69.2985C54.7324 65.4308 57.8791 62.2842 61.7467 62.2842C65.6144 62.2842 68.7611 65.4308 68.7611 69.2985C68.761 69.3651 68.7071 69.419 68.6406 69.419Z" fill="#363E44"/>
<path d="M86.5536 24.9541H63.5977V35.0186H86.5536V24.9541Z" fill="#8B865C"/>
<path d="M83.1268 44.3428C83.1237 44.5663 83.0723 52.5243 83.0723 52.5243L87.532 52.3135L90.0326 44.3428H83.1268Z" fill="#84524D"/>
<path d="M82.7324 51.7748L87.929 51.707L90.8143 61.0526C90.8143 61.0526 82.8795 63.6209 82.8619 63.4533C82.8442 63.2856 82.7324 51.7748 82.7324 51.7748Z" fill="white"/>
<path d="M86.4475 54.5213H84.3471C84.2804 54.5213 84.2266 54.4674 84.2266 54.4008C84.2266 54.3342 84.2804 54.2803 84.3471 54.2803H86.4475C86.5141 54.2803 86.568 54.3342 86.568 54.4008C86.568 54.4674 86.5141 54.5213 86.4475 54.5213Z" fill="#363E44"/>
<path d="M86.4245 55.8318H84.3471C84.2804 55.8318 84.2266 55.7779 84.2266 55.7113C84.2266 55.6447 84.2804 55.5908 84.3471 55.5908H86.4245C86.4911 55.5908 86.545 55.6447 86.545 55.7113C86.545 55.7779 86.4911 55.8318 86.4245 55.8318Z" fill="#363E44"/>
<path d="M82.2344 45.7037H90.4121L92.7491 33.8347C93.3337 30.8659 91.1686 28.062 88.1484 27.8767L83.6808 27.6025L82.2344 45.7037Z" fill="#8B865C"/>
<path d="M57.6113 30.0861L63.2242 35.5038L67.9819 31.9495L63.3987 25.6309L57.6113 30.0861Z" fill="#84524D"/>
<path d="M62.1992 34.6957L65.0615 41.2082L73.0007 36.0165L67.4399 30.8516L62.1992 34.6957Z" fill="white"/>
<path d="M57.6116 31.3031L64.599 26.2943L60.4085 19.8356C58.7238 17.2389 55.159 16.6773 52.7574 18.6301C50.3154 20.6158 50.1805 24.2977 52.4707 26.4567L57.6116 31.3031Z" fill="#8B865C"/>
<path d="M64.771 35.1697C64.7312 35.1697 64.6921 35.1499 64.6691 35.1138C64.6335 35.0575 64.6502 34.9831 64.7063 34.9474L67.0638 33.4514C67.1198 33.4157 67.1945 33.4323 67.2302 33.4886C67.2659 33.5448 67.2492 33.6193 67.1931 33.655L64.8355 35.151C64.8155 35.1637 64.7932 35.1697 64.771 35.1697Z" fill="#363E44"/>
<path d="M65.2828 35.9177C65.2429 35.9177 65.2038 35.8979 65.1809 35.8618C65.1452 35.8055 65.1619 35.7311 65.218 35.6954L67.5756 34.1994C67.6317 34.1638 67.7062 34.1804 67.7419 34.2365C67.7775 34.2928 67.7609 34.3672 67.7047 34.4029L65.3472 35.8989C65.3272 35.9117 65.3049 35.9177 65.2828 35.9177Z" fill="#363E44"/>
<path d="M65.0989 26.1186C65.0989 26.1186 74.339 26.1905 81.4216 26.2948L79.8769 11.6963C79.8769 11.6963 72.8432 9.06184 65.0605 9.56353L65.0989 26.1186Z" fill="white"/>
<path d="M77.8848 10.96L79.4107 26.6863L92.5393 26.9842C92.5393 26.9842 93.0936 21.6906 88.3233 16.3539C87.2177 15.117 85.8743 14.1154 84.3817 13.3909C82.7259 12.5872 80.0189 11.3539 77.8848 10.96Z" fill="#EFBC73"/>
<path d="M67.639 9.43077L68.1505 26.2106C68.1505 26.2106 55.5504 29.5812 55.5469 21.1767C55.5453 17.5738 56.5319 14.9117 57.525 13.1449C58.5064 11.399 60.1972 10.172 62.1616 9.78159C63.6212 9.49153 65.5612 9.2588 67.639 9.43077Z" fill="#EFBC73"/>
<path d="M62.2007 18.0177C62.1904 18.0177 62.18 18.0164 62.1695 18.0137C62.1052 17.9965 62.067 17.9305 62.0842 17.8662L62.654 15.7269C62.6712 15.6626 62.7375 15.6252 62.8014 15.6415C62.8657 15.6587 62.9039 15.7247 62.8869 15.7891L62.3169 17.9283C62.3026 17.9822 62.2539 18.0177 62.2007 18.0177Z" fill="#363E44"/>
<path d="M57.2551 20.5907C57.2391 20.5907 57.2228 20.5875 57.2071 20.5806C57.1462 20.5542 57.1183 20.4833 57.1448 20.4223C57.1567 20.3948 58.3773 17.6835 61.8677 18.005C61.934 18.0111 61.9828 18.0698 61.9766 18.1361C61.9704 18.2022 61.913 18.2528 61.8455 18.245C58.5307 17.9369 57.4118 20.4129 57.3657 20.5184C57.346 20.5637 57.3016 20.5907 57.2551 20.5907Z" fill="#363E44"/>
<path d="M80.6531 21.9933C80.0176 21.5779 77.6524 19.4268 76.2591 19.9537C74.8558 20.4843 74.0343 21.9247 73.7461 23.3972C73.7494 23.4024 73.7529 23.4081 73.7561 23.4132C73.8548 23.8167 74.0642 24.4052 74.5641 24.8769C75.1341 25.4147 75.5357 25.2856 76.2255 25.7594C77.3899 26.5592 77.3723 27.747 77.8601 27.6353C78.1949 27.5587 78.2351 26.867 78.1076 26.2267C77.9767 25.5691 77.6153 25.199 77.6993 25.1283C77.7915 25.0507 78.11 25.4742 78.5544 25.9644C78.7608 26.1922 78.9427 27.1667 79.4154 27.1295C79.7924 27.0998 79.857 26.0393 79.4177 25.2233C79.107 24.6461 78.5134 24.4164 78.5779 24.3156C78.6263 24.2399 78.9766 24.3855 79.2412 24.6009C79.6778 24.9562 79.8744 25.9513 80.309 25.9085C80.7347 25.8666 80.7748 24.9394 80.4183 24.1634C80.1177 23.509 79.4436 23.2846 79.523 23.1588C79.5789 23.0703 79.9016 23.108 80.5235 23.3841C81.0426 23.6146 81.9034 24.3976 82.2257 23.8904C82.4968 23.4638 81.6122 22.6203 80.6531 21.9933Z" fill="#84524D"/>
<path d="M62.4894 19.0136C61.1272 19.2032 59.9746 20.1319 59.5271 21.4325C59.1001 22.6733 59.1414 24.2265 61.0481 25.4402C64.8263 27.8451 75.0739 23.6986 75.0739 23.6986L76.9962 19.8898C72.2899 18.756 67.0914 18.3733 62.4894 19.0136Z" fill="#84524D"/>
<path d="M95.0186 27.5102C94.6984 28.1945 94.0111 28.6317 93.2556 28.6317H81.125L86.5577 17.0205H99.9266L95.0186 27.5102Z" fill="#E6D0BE"/>
<path d="M73.1621 27.4658C73.1621 28.1128 73.6865 28.6372 74.3335 28.6372H85.519L86.067 27.4658H73.1621Z" fill="#E6D0BE"/>
<path d="M98.459 22.4635C98.4163 22.8989 98.3449 23.2483 97.5907 23.1744C96.8365 23.1003 95.685 22.6309 95.7277 22.1954C95.7705 21.76 96.9912 21.5234 97.7455 21.5974C98.4997 21.6714 98.5018 22.028 98.459 22.4635Z" fill="#84524D"/>
<path d="M95.2129 23.3146C95.2556 22.8791 96.4764 22.6425 97.2307 22.7166C97.9849 22.7906 97.9869 23.1472 97.9442 23.5827L95.2129 23.3146Z" fill="#84524D"/>
<path d="M97.9433 23.5825C97.9006 24.0179 97.8292 24.3673 97.075 24.2934C96.3208 24.2193 95.1694 23.7499 95.2121 23.3145L97.9433 23.5825Z" fill="#84524D"/>
<path d="M94.6992 24.4337C94.742 23.9983 95.9627 23.7617 96.717 23.8357C97.4712 23.9097 97.4733 24.2664 97.4305 24.7018L94.6992 24.4337Z" fill="#84524D"/>
<path d="M97.4297 24.7026C97.3869 25.1381 97.3156 25.4875 96.5614 25.4135C95.8072 25.3394 94.6556 24.87 94.6984 24.4346L97.4297 24.7026Z" fill="#84524D"/>
<path d="M94.7598 25.447C94.7938 25.1008 95.7641 24.9128 96.3636 24.9716C96.9631 25.0304 96.9648 25.3139 96.9309 25.6601L94.7598 25.447Z" fill="#84524D"/>
<path d="M96.9318 25.6604C96.8978 26.0065 96.8411 26.2843 96.2415 26.2254C95.642 26.1666 94.7267 25.7934 94.7607 25.4473L96.9318 25.6604Z" fill="#84524D"/>
<path d="M70.1997 4.67764C70.5074 5.09299 70.4704 5.64206 70.1169 5.90403C69.7634 6.16594 69.2273 6.04163 68.9195 5.62627C68.6118 5.21092 68.6488 4.66184 69.0023 4.39993C69.3558 4.13791 69.8919 4.26228 70.1997 4.67764Z" fill="#84524D"/>
<path d="M74 4.48437C73.736 4.92886 73.8286 5.47131 74.2069 5.69601C74.5851 5.92071 75.1058 5.74257 75.3698 5.29809C75.6339 4.85361 75.5412 4.31115 75.163 4.08645C74.7848 3.86175 74.2641 4.03989 74 4.48437Z" fill="#84524D"/>
<path d="M71.915 11.7307C70.9918 11.6884 70.2778 10.9058 70.3201 9.9826L70.4752 5.2373L73.8181 5.39064L73.663 10.1359C73.6207 11.0591 72.8381 11.773 71.915 11.7307Z" fill="#84524D"/>
<path d="M72.5136 9.06566C69.832 9.22413 69.7324 4.7467 69.7324 4.7467L74.4842 4.58594C74.4842 4.58594 75.1137 8.912 72.5136 9.06566Z" fill="#363E44"/>
<path d="M70.6524 5.15539C71.5941 5.15539 72.3575 4.39197 72.3575 3.45025C72.3575 2.50853 71.5941 1.74512 70.6524 1.74512C69.7107 1.74512 68.9473 2.50853 68.9473 3.45025C68.9473 4.39197 69.7107 5.15539 70.6524 5.15539Z" fill="#363E44"/>
<path d="M74.4343 4.92957C74.5101 6.41957 73.5435 5.6359 72.2755 5.70044C71.0074 5.76498 69.9179 6.65328 69.8421 5.16328C69.7662 3.67328 70.7328 2.8223 72.0009 2.75776C73.269 2.69323 74.3585 3.43957 74.4343 4.92957Z" fill="#84524D"/>
<path d="M74.4331 5.77376C74.426 5.77376 74.4187 5.77316 74.4115 5.77174C74.346 5.75989 74.3025 5.69715 74.3145 5.63174C74.3556 5.40535 74.3704 5.17125 74.3585 4.9359C74.3479 4.72644 74.3161 4.51917 74.2637 4.31994C74.2469 4.25557 74.2854 4.18967 74.3497 4.17273C74.4138 4.15639 74.48 4.19447 74.4969 4.25874C74.5533 4.47393 74.5878 4.69759 74.5993 4.9236C74.6121 5.17748 74.596 5.43021 74.5515 5.67475C74.541 5.73305 74.4903 5.77376 74.4331 5.77376Z" fill="#363E44"/>
<path d="M69.9121 5.98734C69.8596 5.98734 69.8114 5.95286 69.7963 5.8998C69.7294 5.6645 69.6889 5.41892 69.6762 5.16974C69.6644 4.93925 69.6767 4.70898 69.7125 4.48521C69.7231 4.41942 69.7848 4.37483 69.8506 4.38532C69.9162 4.39581 69.9611 4.45767 69.9505 4.52335C69.9173 4.73046 69.906 4.94384 69.9169 5.1575C69.9287 5.38849 69.9661 5.61603 70.0281 5.8339C70.0464 5.89778 70.0091 5.9645 69.9452 5.98275C69.9342 5.98597 69.923 5.98734 69.9121 5.98734Z" fill="#363E44"/>
<path d="M72.2976 5.87829C72.2615 5.87829 72.2257 5.86217 72.202 5.83124C72.1615 5.77851 72.1713 5.70288 72.2241 5.66228C72.2753 5.62288 72.2893 5.59463 72.2895 5.58414C72.2897 5.57534 72.2742 5.55365 72.2591 5.53283C72.2281 5.48955 72.1855 5.43037 72.167 5.3414C72.1506 5.26222 72.1571 5.17889 72.1868 5.09386C72.2085 5.03102 72.277 4.99725 72.3401 5.0196C72.403 5.04135 72.4363 5.11009 72.4144 5.17293C72.3992 5.21681 72.3954 5.25589 72.403 5.29233C72.4111 5.3313 72.4304 5.35813 72.4548 5.39211C72.4893 5.44009 72.5324 5.49987 72.5305 5.58894C72.5287 5.68435 72.475 5.77332 72.3709 5.85332C72.349 5.87015 72.3233 5.87829 72.2976 5.87829Z" fill="#363E44"/>
<path d="M71.9394 6.53866C71.8364 6.53866 71.6826 6.51806 71.5317 6.42063C71.4359 6.35861 71.3544 6.27331 71.2959 6.1738C71.2622 6.11637 71.2814 6.0426 71.3387 6.00883C71.3961 5.97506 71.4699 5.99435 71.5037 6.05167C71.5312 6.09861 71.5812 6.16566 71.6626 6.21828C71.7857 6.29784 71.9134 6.30172 71.9788 6.29615C72.0439 6.29249 72.1032 6.34052 72.1084 6.40686C72.1136 6.4732 72.064 6.53123 71.9977 6.53642C71.9809 6.53773 71.9613 6.53866 71.9394 6.53866Z" fill="white"/>
<path d="M69.5391 4.38188C69.5391 4.38188 70.7668 4.56374 72.0399 3.06325C72.0399 3.06325 74.4043 6.15521 76.2231 2.42669C76.2231 2.42669 75.1578 2.89685 74.5862 2.15385C73.6768 0.971661 71.4943 0.0167426 70.6303 2.19931L69.5391 4.38188Z" fill="#363E44"/>
<path d="M73.6442 4.55686V4.55697L73.6387 4.55664C73.6364 4.56828 73.6294 4.58331 73.6172 4.58358C73.6036 4.60156 73.5983 4.62975 73.5895 4.64866C73.5735 4.6826 73.5219 4.65577 73.5378 4.62183C73.5485 4.59899 73.4718 4.64555 73.4378 4.66058C73.3297 4.70855 73.2198 4.75161 73.1083 4.79129C73.0564 4.80981 73.0043 4.82872 72.9517 4.84538C72.9096 4.85877 72.7707 4.91036 72.7592 4.90429C72.6219 5.04325 72.5488 5.17172 72.5488 5.17172C72.5488 5.17172 72.7598 5.25293 73.0271 5.25364C73.0277 5.25003 73.0284 5.24642 73.0288 5.24276C73.0332 5.2067 73.6408 5.03057 73.6588 5.05702C73.9107 4.87812 74.0488 4.63659 74.0488 4.63659C74.0488 4.63659 73.8756 4.56997 73.6442 4.55686Z" fill="white"/>
<path d="M73.1959 4.61503C73.0141 4.6799 72.8673 4.79509 72.7598 4.90394C72.7795 5.01847 72.84 5.12634 72.939 5.20323C72.9645 5.22301 72.9914 5.23973 73.0192 5.25367C73.1398 5.2547 73.2722 5.23962 73.4022 5.19323C73.4962 5.15968 73.5804 5.11241 73.6551 5.05979C73.7456 4.90061 73.7369 4.70585 73.639 4.55662C73.5032 4.54946 73.348 4.56077 73.1959 4.61503Z" fill="#363E44"/>
<path d="M70.6308 4.75077V4.75087L70.6363 4.75C70.6398 4.76137 70.6482 4.77563 70.6604 4.77464C70.6758 4.79115 70.6838 4.81869 70.6945 4.83656C70.7138 4.86874 70.7624 4.83683 70.7432 4.8047C70.7303 4.78306 70.8113 4.82164 70.8465 4.83322C70.959 4.87006 71.0727 4.90186 71.1875 4.93011C71.2411 4.94328 71.2948 4.95689 71.3488 4.9682C71.3921 4.97727 71.5355 5.01464 71.5463 5.00743C71.6968 5.13186 71.7825 5.25235 71.7825 5.25235C71.7825 5.25235 71.5807 5.35437 71.3149 5.38197C71.3139 5.37842 71.3129 5.37492 71.3121 5.37137C71.3041 5.3359 70.6818 5.2218 70.6666 5.24994C70.398 5.09727 70.2363 4.87087 70.2363 4.87087C70.2363 4.87087 70.402 4.7871 70.6308 4.75077Z" fill="white"/>
<path d="M71.0831 4.76358C71.2706 4.80981 71.4282 4.9097 71.5462 5.00713C71.538 5.12309 71.4887 5.23648 71.3979 5.32293C71.3745 5.34522 71.3494 5.36451 71.3231 5.38118C71.2033 5.39435 71.0701 5.39265 70.936 5.35959C70.8392 5.33566 70.7507 5.29708 70.6711 5.25227C70.565 5.10303 70.554 4.90839 70.6365 4.75003C70.7709 4.72926 70.9264 4.72489 71.0831 4.76358Z" fill="#363E44"/>
<path d="M31.9835 32.0633C31.9835 32.0633 33.4367 32.7668 34.0463 33.6345C34.7694 32.4837 35.2307 31.1682 35.348 29.7604C31.7436 29.821 28.8564 26.3419 28.8564 26.3419H26.3325C20.9943 28.4427 18.5679 26.2616 17.4565 24.8975C16.8347 26.0283 16.4601 27.3 16.3984 28.6487C16.8767 29.5008 18.5477 29.8858 19.6297 29.5925C19.6297 29.5925 18.6184 31.0989 16.4844 30.3233C17.1405 34.683 21.0981 38.0353 25.8832 38.0353C28.6881 38.0353 31.2087 36.8835 32.9468 35.0521C32.9569 34.107 32.808 32.7677 31.9835 32.0633Z" fill="#363E44"/>
<path d="M24.6134 29.0164C24.576 29.0164 24.5391 28.999 24.5155 28.9664C23.984 28.2287 23.0541 27.7878 22.1468 27.8483C21.7228 27.8757 21.3229 27.9969 20.8443 28.1527L20.8076 28.1646C20.384 28.3024 19.9459 28.4451 19.4904 28.4882C19.1113 28.5247 18.5613 28.501 18.0972 28.1863C17.6515 27.8841 17.4118 27.3627 17.5008 26.8892C17.5131 26.8239 17.5759 26.781 17.6415 26.793C17.7069 26.8053 17.7499 26.8682 17.7376 26.9336C17.6672 27.3085 17.8706 27.7415 18.2324 27.9869C18.6372 28.2613 19.1276 28.2801 19.4677 28.2484C19.8968 28.2077 20.3219 28.0693 20.733 27.9355L20.7698 27.9235C21.1591 27.7969 21.6434 27.6392 22.1313 27.6078C23.1198 27.5442 24.1322 28.0221 24.7111 28.8254C24.75 28.8794 24.7378 28.9547 24.6838 28.9937C24.6624 29.009 24.6378 29.0164 24.6134 29.0164Z" fill="#40484C"/>
<path d="M28.9009 32.7273C27.9914 33.0876 26.169 31.0577 26.169 31.0577L25.5586 28.1319C25.8861 26.7952 27.2353 25.9771 28.572 26.3046C29.9087 26.6321 30.7268 27.9813 30.3993 29.318C30.3993 29.318 29.8272 32.3602 28.9009 32.7273Z" fill="#E2A18D"/>
<path d="M24.0664 34.2244L28.6035 37.8512L27.0906 34.5703L28.4986 28.8241L25.5657 28.1055L24.0664 34.2244Z" fill="#E2A18D"/>
<path d="M29.9653 29.8867C29.9653 29.8867 30.4699 30.7643 30.3878 30.9433C30.2897 31.1568 29.5 31.1083 29.5 31.1083C29.5 31.1083 29.983 29.8928 29.9653 29.8867Z" fill="#E2A18D"/>
<path d="M27.8086 29.2477C27.8086 29.2477 28.2672 29.1291 28.7556 29.2488C28.8596 29.2743 28.4597 30.0578 28.3726 29.9866C27.9896 29.6732 27.8086 29.2477 27.8086 29.2477Z" fill="white"/>
<mask id="mask0_2922_17207" style="mask-type:luminance" maskUnits="userSpaceOnUse" x="27" y="29" width="3" height="2">
<path d="M27.8105 29.2467C27.8105 29.2467 28.485 29.0723 29.0693 29.36C29.6536 29.6478 29.9263 30.2889 29.9263 30.2889C29.9263 30.2889 29.2518 30.4635 28.6675 30.1757C28.0833 29.8878 27.8105 29.2467 27.8105 29.2467Z" fill="white"/>
</mask>
<g mask="url(#mask0_2922_17207)">
<path d="M28.7833 29.232C29.1855 28.988 29.7093 29.1164 29.9532 29.5186C30.1971 29.9208 30.0687 30.4447 29.6665 30.6885C29.2643 30.9324 28.7405 30.8041 28.4966 30.4019C28.2527 29.9997 28.381 29.4759 28.7833 29.232Z" fill="#363E44"/>
</g>
<path d="M28.8816 31.5101C28.7539 31.5101 28.629 31.4584 28.539 31.3627C28.4174 31.2335 28.3793 31.042 28.4417 30.875C28.4651 30.8128 28.5346 30.7814 28.5968 30.8044C28.6591 30.8277 28.6907 30.8972 28.6674 30.9595C28.6368 31.0412 28.6553 31.1346 28.7145 31.1977C28.7759 31.2629 28.8707 31.2861 28.9566 31.2566C29.0195 31.2349 29.0881 31.2685 29.1098 31.3313C29.1313 31.3943 29.0979 31.4629 29.035 31.4844C28.9848 31.5017 28.9329 31.5101 28.8816 31.5101Z" fill="#363E44"/>
<path d="M28.1253 32.8014C28.109 32.8014 28.0925 32.7982 28.0767 32.7912C27.1571 32.3845 26.1138 31.2294 26.0699 31.1805C26.0254 31.1309 26.0295 31.0548 26.0791 31.0103C26.1285 30.9659 26.2048 30.97 26.2493 31.0195C26.2596 31.0312 27.3022 32.1852 28.1741 32.5707C28.235 32.5977 28.2625 32.6689 28.2356 32.7297C28.2157 32.7747 28.1716 32.8014 28.1253 32.8014Z" fill="#363E44"/>
<path d="M24.6874 29.3745C24.2458 28.7206 24.9052 27.1626 25.8257 26.4566C27.0123 25.5463 28.8362 25.6671 29.9195 26.4309C30.1857 26.6187 30.7456 27.1308 30.7243 27.6547C30.7076 28.0626 30.0136 28.5237 29.3704 28.3963C28.466 28.2171 27.5148 27.4263 27.4023 28.5106C27.0613 31.7963 25.1725 30.0931 24.6874 29.3745Z" fill="#363E44"/>
<path d="M26.3332 26.8525C26.3332 26.8525 23.5189 24.4869 25.5573 23.1729C27.4711 21.9391 29.1907 24.835 26.3332 26.8525Z" fill="#363E44"/>
<path d="M26.1313 26.1373C26.1161 26.1373 26.1007 26.1344 26.0858 26.1283C25.6253 25.9397 25.3269 25.4435 25.3765 24.9483C25.39 24.8136 25.4266 24.7075 25.4885 24.6237C25.5745 24.5072 25.7139 24.4426 25.8434 24.4584C26.0215 24.4808 26.1504 24.6263 26.2269 24.8909C26.3023 25.1515 26.3533 25.4209 26.3784 25.6914C26.3846 25.7576 26.3359 25.8163 26.2697 25.8226C26.2023 25.8295 26.1446 25.7799 26.1385 25.7137C26.1148 25.4583 26.0666 25.204 25.9955 24.9579C25.9688 24.8657 25.9098 24.7096 25.8135 24.6975C25.7701 24.6916 25.7164 24.7206 25.6824 24.7668C25.6469 24.8147 25.6253 24.882 25.6162 24.9723C25.5777 25.3575 25.8188 25.7586 26.1771 25.9052C26.2386 25.9305 26.2682 26.0009 26.2429 26.0625C26.2238 26.109 26.1788 26.1373 26.1313 26.1373Z" fill="white"/>
<path d="M26.0385 26.4406C26.0041 26.4406 25.97 26.426 25.9462 26.3975C25.9034 26.3466 25.91 26.2706 25.961 26.2277C26.3151 25.9309 26.7626 25.7366 27.2211 25.6809C27.2865 25.6715 27.3471 25.7198 27.3552 25.7858C27.3633 25.8519 27.3162 25.9119 27.2502 25.9201C26.8374 25.9703 26.4346 26.1452 26.1159 26.4125C26.0933 26.4313 26.0658 26.4406 26.0385 26.4406Z" fill="white"/>
<path d="M15.6723 94.0914H9.0616L8.16406 85.8994H14.7748L15.6723 94.0914Z" fill="#E2A18D"/>
<path d="M14.8811 93.7549H8.79883L9.08369 99.7652H24.4875L24.0143 98.965C22.105 95.7358 18.6324 93.7549 14.8811 93.7549Z" fill="#D3BBA3"/>
<path d="M33.0345 94.0916H26.4237L24.6016 86.0693H31.2123L33.0345 94.0916Z" fill="#E2A18D"/>
<path d="M32.2424 93.7549H26.1602L26.9348 99.7652H41.8488L41.3757 98.965C39.4663 95.7358 35.9938 93.7549 32.2424 93.7549Z" fill="#D3BBA3"/>
<path d="M5.92578 56.0164L5.93704 89.5688H18.0879C18.0879 89.5688 15.8424 62.9833 15.9758 59.8067H17.4858L23.5869 89.657H35.6479C35.6479 89.657 27.701 62.6613 25.5521 54.7469C25.5521 54.7469 18.4945 45.4962 5.92578 56.0164Z" fill="#363E44"/>
<path d="M6.0625 45.4819C6.0625 45.4819 6.94562 39.8768 12.6508 36.9932L16.9953 42.7893L6.0625 45.4819Z" fill="#E2A18D"/>
<path d="M16.0291 43.6274L10.6523 37.233C10.6523 37.233 14.5578 34.7379 18.7532 34.499L16.0291 43.6274Z" fill="#9E9569"/>
<path d="M32.5733 39.7722C30.0541 39.7253 28.0932 41.9472 28.4528 44.441L30.1233 56.7749L31.7569 61.7957C33.8465 60.9348 35.2817 58.9806 35.4778 56.729L35.6991 45.0618C35.6494 38.7077 34.93 39.8161 32.5733 39.7722Z" fill="#E2A18D"/>
<path d="M35.6982 40.2837C35.6982 40.2837 33.9133 37.1545 31.3002 35.6982L28.9604 39.4351L28.7129 45.3186L35.6982 40.2837Z" fill="#9E9569"/>
<path d="M4.67969 57.0581L28.2841 57.7586L30.145 39.0223L32.4174 36.3807C32.4174 36.3807 27.2569 31.9193 16.567 34.4229L17.0115 37.634C17.0115 37.634 7.83668 51.1717 4.67969 57.0581Z" fill="#8B865C"/>
<path d="M21.75 34.2935L22.0391 32.4824C22.0391 32.4824 26.0976 32.7174 29.4999 33.9092L28.9964 35.5392L21.75 34.2935Z" fill="#9E9569"/>
<path d="M25.2393 41.2462L21.3802 33.6242C21.3501 33.5648 21.3739 33.4923 21.4333 33.4622C21.4926 33.4323 21.5651 33.4559 21.5952 33.5152L25.2704 40.7741L29.4017 34.7364C29.4393 34.6814 29.5142 34.6674 29.5692 34.7049C29.6241 34.7425 29.6382 34.8176 29.6006 34.8724L25.2393 41.2462Z" fill="#363E44"/>
<path d="M25.1816 42.8663C24.6367 42.8663 24.1934 42.4229 24.1934 41.878C24.1934 41.333 24.6367 40.8896 25.1816 40.8896C25.7265 40.8896 26.1699 41.333 26.1699 41.878C26.1699 42.4229 25.7266 42.8663 25.1816 42.8663ZM25.1816 41.1306C24.7696 41.1306 24.4343 41.4659 24.4343 41.878C24.4343 42.29 24.7695 42.6253 25.1816 42.6253C25.5937 42.6253 25.9289 42.29 25.9289 41.878C25.9289 41.4659 25.5936 41.1306 25.1816 41.1306Z" fill="#363E44"/>
<path d="M50.7591 52.785L49.5333 50.614L47.6813 51.6596L48.9071 53.8307L47.4256 54.6672L43.541 47.787L48.8803 44.7725L52.7648 51.6526L50.7591 52.785Z" fill="#EFBC73"/>
<path d="M45.6167 53.4763L44.6897 51.8345L43.2892 52.6253L44.2162 54.2671L43.0957 54.8997L40.1582 49.6967L44.1959 47.417L47.1335 52.62L45.6167 53.4763Z" fill="#EFBC73"/>
<path d="M23.3141 59.6846C20.1568 54.0924 13.0639 52.1186 7.47172 55.2759C1.87954 58.4332 -0.0942873 65.5261 3.06304 71.1183C6.22036 76.7105 13.3133 78.6843 18.9054 75.527C24.4976 72.3697 26.4715 65.2768 23.3141 59.6846Z" fill="#EFBC73"/>
<path d="M49.735 42.0319L21.2734 58.0996L23.2251 61.5567L51.6867 45.489L49.735 42.0319Z" fill="#EFBC73"/>
<path d="M13.2058 75.664C9.62078 75.664 6.13493 73.7859 4.25018 70.4477C1.4675 65.5193 3.21335 59.2456 8.14193 56.4629C13.0706 53.6805 19.3442 55.4262 22.1268 60.3548C24.9095 65.2833 23.1636 71.5569 18.235 74.3397C16.6445 75.2375 14.9138 75.664 13.2058 75.664ZM13.1716 55.3795C11.5033 55.3795 9.81378 55.7958 8.26045 56.6728C3.44761 59.3902 1.74275 65.5164 4.46002 70.3293C7.17739 75.1421 13.3036 76.8471 18.1165 74.1297C22.9294 71.4123 24.6343 65.2861 21.917 60.4732C20.0766 57.2136 16.6721 55.3795 13.1716 55.3795Z" fill="#F7F1EB"/>
<path d="M30.9175 54.3112C30.8754 54.3112 30.8346 54.2892 30.8125 54.2499C30.7797 54.192 30.8002 54.1185 30.8581 54.0857L48.8083 43.9511C48.8664 43.9184 48.9398 43.9389 48.9724 43.9969C49.0052 44.0548 48.9847 44.1283 48.9268 44.1611L30.9766 54.2957C30.9579 54.3062 30.9376 54.3112 30.9175 54.3112Z" fill="#F7F1EB"/>
<path d="M12.0332 70.5547L13.5195 65.2139L8.17866 63.7276L6.69238 69.0684L12.0332 70.5547Z" fill="#F2E6DC"/>
<path d="M30.3307 62.3958C29.8348 62.4645 29.048 62.5954 28.2649 62.6396C27.0073 62.7106 25.6744 62.5413 25.636 61.987C25.5903 61.3281 26.8627 61.4593 27.4723 61.3246C28.2027 61.1632 28.5127 60.986 28.5044 60.8713C28.4927 60.7082 27.7498 60.9494 27.057 60.5665C26.2353 60.1125 25.666 59.266 26.0153 58.9512C26.3719 58.6299 27.195 59.3819 27.8131 59.4115C28.1876 59.4294 28.5925 59.3297 28.586 59.2312C28.5773 59.0999 27.9024 59.284 27.2508 58.9759C26.3298 58.5405 25.6951 57.5602 26.0092 57.2879C26.4033 56.9466 27.1998 57.6902 27.5312 57.757C28.2441 57.9008 28.8022 58.0677 28.8331 57.939C28.8613 57.8216 28.3001 57.7299 27.7554 57.2336C27.2248 56.7501 26.8091 56.1119 27.0554 55.8258C27.4141 55.4088 28.1735 56.4711 29.7253 56.4191C30.6447 56.3883 30.9159 56.0121 31.7709 56.1161C31.778 56.117 31.7851 56.1178 31.7921 56.1188C32.7894 56.2479 33.558 57.052 33.6883 58.0491C33.6974 58.1184 33.7044 58.1879 33.7094 58.2577C33.7437 58.7509 33.6195 59.235 33.5089 59.7193C33.225 60.9613 31.5538 62.1511 30.3307 62.3958Z" fill="#E2A18D"/>
<path d="M10.9265 65.728C10.7517 64.8163 10.6328 60.909 8.98549 60.1319C7.32642 59.3492 5.36205 59.8512 3.8227 60.849C3.8209 60.8563 3.81893 60.8643 3.81713 60.8715C3.54625 61.301 3.20686 61.9853 3.21702 62.8257C3.22866 63.7837 3.68341 64.0272 3.85309 65.0362C4.13948 66.7394 3.08035 67.7334 3.59303 68.0673C3.94489 68.2966 4.58713 67.744 5.04177 67.0878C5.50861 66.4139 5.5268 65.7817 5.66041 65.7955C5.80702 65.8106 5.70533 66.4504 5.65205 67.2577C5.62724 67.6327 4.925 68.6207 5.35959 69.0048C5.70609 69.3109 6.6932 68.4665 7.03724 67.3869C7.28057 66.6231 6.97806 65.9062 7.1215 65.8772C7.22915 65.8554 7.39893 66.2871 7.4344 66.7026C7.49309 67.3884 6.78544 68.4069 7.19232 68.7526C7.59096 69.0912 8.44014 68.3386 8.81943 67.3656C9.13926 66.5452 8.76369 65.7619 8.94177 65.7249C9.06702 65.6988 9.30806 66.0145 9.59385 66.7959C9.83232 67.4481 9.87554 68.8702 10.5953 68.7226C11.2006 68.5985 11.1905 67.104 10.9265 65.728Z" fill="#E2A18D"/>
<path d="M13.2009 43.6082C13.5551 42.9851 13.9092 42.3621 14.2633 41.7389C14.176 41.6758 14.0402 41.5829 13.8658 41.4861C13.8658 41.4861 11.7382 40.3047 8.21988 41.7581C5.29939 42.9645 3.27267 50.8579 3.91666 61.4409L7.50496 65.2271C9.64758 61.1348 11.854 55.6159 12.7739 48.8738C13.0264 47.0234 13.1573 45.2623 13.2009 43.6082Z" fill="#E2A18D"/>
<path d="M23.6477 11.1068H22.7317C22.6497 10.6603 22.5327 10.2261 22.384 9.80677L23.1767 9.34907L21.6267 6.66426L20.8321 7.123C20.5405 6.78164 20.2225 6.46366 19.8811 6.17207L20.3399 5.37748L17.6551 3.82743L17.1974 4.62021C16.7781 4.47153 16.3439 4.35453 15.8973 4.27251V3.35645H12.7971V4.27246C12.3506 4.35448 11.9164 4.47147 11.4971 4.62016L11.0394 3.82737L8.35458 5.37743L8.81332 6.17202C8.47196 6.4636 8.15398 6.78158 7.86239 7.12295L7.06786 6.6642L5.5178 9.34901L6.31059 9.80672C6.1619 10.226 6.04491 10.6602 5.96289 11.1068H5.04688V14.2069H5.96294C6.04496 14.6535 6.16196 15.0877 6.31064 15.507L5.51786 15.9647L7.06791 18.6495L7.86245 18.1908C8.15403 18.5321 8.47201 18.8501 8.81338 19.1417L8.35464 19.9363L11.0394 21.4864L11.4971 20.6936C11.9164 20.8423 12.3506 20.9593 12.7972 21.0413V21.9573H15.8974V21.0413C16.3439 20.9592 16.7781 20.8422 17.1974 20.6935L17.6551 21.4863L20.3399 19.9362L19.8812 19.1416C20.2226 18.8501 20.5405 18.532 20.8321 18.1907L21.6267 18.6495L23.1768 15.9646L22.384 15.5069C22.5327 15.0877 22.6497 14.6534 22.7317 14.2069H23.6478V11.1068H23.6477ZM19.0952 14.637C18.6137 15.9107 17.6009 16.9235 16.3272 17.4049C11.9996 19.0408 7.96327 15.0044 9.59928 10.6768C10.0808 9.40311 11.0936 8.39032 12.3673 7.90885C16.695 6.273 20.7313 10.3094 19.0952 14.637Z" fill="#E6D0BE"/>
<path d="M14.3474 19.5594C10.5415 19.5594 7.44531 16.4631 7.44531 12.6573C7.44531 9.26866 9.96826 6.3345 13.3139 5.8321C13.3791 5.82363 13.4412 5.86751 13.4509 5.93341C13.4608 5.9992 13.4155 6.06062 13.3497 6.07046C10.1211 6.55521 7.68624 9.38702 7.68624 12.6573C7.68624 16.3302 10.6744 19.3184 14.3473 19.3184C17.3822 19.3184 20.0336 17.2695 20.7953 14.3359C20.8119 14.2716 20.8774 14.2326 20.9421 14.2496C21.0065 14.2663 21.0451 14.332 21.0284 14.3964C20.2394 17.4364 17.492 19.5594 14.3474 19.5594Z" fill="#F2E6DC"/>
</svg>
