<svg width="114" height="100" viewBox="0 0 114 100" fill="none" xmlns="http://www.w3.org/2000/svg">
<path d="M19.0606 89.7463C21.3366 90.2194 23.6297 90.6446 25.8705 91.274C28.0354 91.8781 30.1538 92.6852 32.0662 93.8763C32.091 93.9141 32.1102 93.9533 32.135 93.9912C32.2104 94.1026 32.3496 94.0272 32.3672 93.9211C32.4021 93.8787 32.4117 93.8176 32.3704 93.7606C32.2195 93.5572 32.0918 93.3413 31.9764 93.1208C31.7085 92.4405 31.6298 91.6941 31.6967 90.9632C31.9191 88.4737 33.6302 86.5514 35.0086 84.5971C35.7201 83.5876 36.3676 82.512 36.7342 81.325C36.9085 80.7566 37.0205 80.1643 37.0253 79.5677C37.0319 79.0303 36.9818 78.4593 36.7222 77.976C36.51 77.5764 36.1381 77.1712 35.6463 77.1976C35.0761 77.2256 34.7103 77.8206 34.3774 78.2111C33.9309 78.7403 33.4828 79.2662 33.0371 79.793C32.5996 80.3109 32.1768 80.8443 31.717 81.3447C31.5485 81.5281 31.3318 81.7336 31.0692 81.7557C30.7781 81.7805 30.5614 81.5742 30.4278 81.3399C30.1386 80.8342 30.1184 80.1635 30.1181 79.5933C30.1194 78.3535 30.4268 77.1406 30.7621 75.9554C31.3545 73.8676 32.1083 71.6196 31.532 69.4406C31.3992 68.9424 31.2068 68.429 30.9037 68.008C30.6014 67.593 30.0994 67.3075 29.6273 67.6428C29.413 67.7932 29.2477 68.0222 29.096 68.233C28.9244 68.474 28.7708 68.7289 28.6293 68.9898C28.335 69.531 28.1025 70.0985 27.8647 70.6647C27.6304 71.229 27.39 71.7944 27.081 72.3201C26.7993 72.801 26.458 73.3224 25.9401 73.5776C25.7194 73.6845 25.4539 73.7447 25.2206 73.6309C24.9634 73.5045 24.8386 73.2225 24.7632 72.961C24.6152 72.4387 24.568 71.8768 24.5704 71.3354C24.584 69.1175 25.4669 67.0161 25.5288 64.8041C25.5426 64.2798 25.5109 63.7503 25.4053 63.2351C25.3075 62.7499 25.1612 62.1474 24.7083 61.8657C23.8246 61.3112 23.0723 62.4113 22.7404 63.0887C22.4379 63.705 22.135 64.3216 21.8317 64.9406C21.6776 65.2535 21.5235 65.5665 21.3692 65.8795C21.2388 66.1495 21.1255 66.4662 20.9296 66.6944C20.5137 67.1771 19.9939 66.661 19.7671 66.274C19.4714 65.7718 19.3632 65.1528 19.2259 64.5948C18.6552 62.2562 18.3244 59.7749 16.8843 57.7703C16.255 56.8935 15.4283 56.1282 14.4231 55.7017C13.554 55.3322 12.3601 55.139 11.5683 55.791C10.6641 56.5318 10.8643 57.9457 11.085 58.9539C11.3068 59.9765 11.7102 60.95 12.1596 61.8899C12.6245 62.8621 13.1382 63.81 13.5871 64.7889C13.8062 65.2682 14.012 65.755 14.1813 66.2529C14.3466 66.736 14.5465 67.2707 14.4825 67.7857C14.4521 68.0187 14.3556 68.2597 14.1181 68.3477C13.8489 68.4484 13.5476 68.3117 13.2979 68.2069C12.7197 67.9627 12.1468 67.7009 11.5622 67.4688C10.4623 67.0337 9.24783 66.6757 8.05278 66.8879C7.8054 66.934 7.55775 67.0191 7.38875 67.2134C7.22614 67.396 7.18029 67.6436 7.20934 67.883C7.28185 68.4162 7.66651 68.8531 8.01732 69.2353C8.76453 70.0524 9.63596 70.7423 10.5108 71.4194C11.3929 72.1013 12.2897 72.7709 13.0747 73.5632C13.4559 73.9462 13.807 74.3562 14.1117 74.8001C14.2127 74.9469 14.5931 75.4353 14.3226 75.5691C14.2055 75.6262 14.0227 75.5774 13.8955 75.5646C13.7737 75.5534 13.6527 75.5398 13.5309 75.5286C12.504 75.4182 11.4644 75.2956 10.4317 75.3924C9.93718 75.4374 9.44536 75.5387 8.98498 75.7219C8.52381 75.9074 7.99573 76.1873 7.70597 76.6016C7.10964 77.4479 7.92722 78.3748 8.63337 78.8154C9.08815 79.1007 9.6005 79.3139 10.1003 79.5125C10.6327 79.7237 11.1735 79.9065 11.7192 80.0825C13.734 80.7422 15.9655 81.3466 17.3767 83.0366C17.1965 83.0998 17.0118 83.1507 16.8249 83.1814C15.8082 83.3466 14.7893 83.1161 13.7745 83.0595C12.8468 83.0092 11.841 83.0998 11.1016 83.7172C10.4655 84.2485 10.0665 85.1143 10.396 85.9241C10.5775 86.3619 10.9278 86.7079 11.2892 86.9987C11.7112 87.338 12.1711 87.6249 12.6482 87.8723C13.629 88.3806 14.6894 88.7149 15.7562 88.99C16.8478 89.2752 17.953 89.5146 19.0606 89.7463Z" fill="#B4D371"/>
<path d="M10.8006 69.302C12.6874 70.3035 14.5732 71.3067 16.4581 72.3116C17.3903 72.8088 18.3225 73.3062 19.2542 73.8042C19.6498 74.0156 20.0571 74.2174 20.445 74.4464C19.5133 72.5422 18.6211 70.6184 17.7736 68.6753C16.7204 66.2604 15.7341 63.8165 14.8133 61.3483C14.6883 61.0135 15.1983 60.7904 15.3238 61.1268C16.9409 65.4612 18.7621 69.7187 20.7843 73.8794C20.9363 74.1918 21.097 74.4999 21.2511 74.8116C22.1012 71.6023 22.8998 68.3797 23.642 65.1438C23.7211 64.7983 24.2753 64.8548 24.1954 65.2032C23.3999 68.6703 22.5434 72.1232 21.6259 75.5601C22.7785 77.8564 23.9952 80.1204 25.2657 82.3534C26.7326 79.3636 28.1678 76.3582 29.5668 73.3361C29.7166 73.0125 30.2354 73.2148 30.0845 73.5405C28.6314 76.6792 27.1415 79.8007 25.6154 82.9047C25.6101 82.9154 25.6013 82.9236 25.5949 82.9338C26.2059 83.9958 26.8259 85.0528 27.4652 86.0983C28.1788 87.2656 28.91 88.4217 29.6564 89.5682C29.7292 89.5464 29.7958 89.5045 29.8523 89.4283C30.5662 88.4649 31.2036 87.4333 31.8745 86.4392C32.6404 85.3049 33.4052 84.1699 34.1692 83.0343C34.3691 82.7373 34.8138 83.0719 34.6141 83.3688C33.1896 85.4865 31.8052 87.6417 30.326 89.7215C30.2114 89.8828 30.0965 89.9857 29.9744 90.0507C30.5526 90.931 31.1375 91.8066 31.7343 92.6743C31.9361 92.9678 31.5003 93.3144 31.2966 93.0182C30.6374 92.0596 29.9931 91.0912 29.357 90.1171C29.2859 90.1059 29.212 90.0923 29.1326 90.0745C28.5128 89.9353 27.8919 89.8023 27.2698 89.6751C26.0254 89.4206 24.7762 89.1894 23.5231 88.9818C22.0908 88.7445 20.6537 88.5393 19.2129 88.3628C18.857 88.3193 18.9164 87.7657 19.2723 87.8094C21.6589 88.1016 24.0352 88.4753 26.3951 88.9351C26.9739 89.0479 27.5518 89.1657 28.1287 89.2886C28.3984 89.3459 28.6679 89.4048 28.9372 89.4645C27.5513 87.3178 26.2152 85.1389 24.9434 82.9226C20.9829 81.1264 16.9027 79.604 12.7322 78.3714C12.3889 78.2698 12.5952 77.7529 12.9367 77.8537C16.8732 79.0173 20.7289 80.44 24.4795 82.1061C24.3028 81.7934 24.125 81.4812 23.9504 81.1672C22.911 79.2966 21.9148 77.4021 20.9589 75.4873C20.3295 74.9115 19.4866 74.5559 18.7458 74.1603C17.8341 73.6733 16.9225 73.1865 16.0103 72.7003C14.2064 71.7388 12.4017 70.7788 10.5962 69.8202C10.2835 69.6536 10.4842 69.1344 10.8006 69.302Z" fill="#958BF7"/>
<path d="M17.7877 96.7914C19.0601 98.2367 21.4704 97.433 23.0251 96.9737C24.8476 96.4363 26.6678 95.7504 28.6004 95.8272C28.8507 95.8381 28.8969 95.5014 28.7524 95.3596C28.7316 95.3383 28.7129 95.3186 28.6943 95.2988C28.6969 95.1799 28.6378 95.056 28.4917 95.0179C28.4594 95.008 28.4346 94.9971 28.4045 94.9888C28.1118 94.6505 27.857 94.2867 27.641 93.8948C27.5843 93.4035 27.6674 92.8578 27.7367 92.4561C28.0372 90.7148 28.4823 88.968 28.4016 87.1884C28.3312 85.6612 27.6629 83.0559 25.7228 83.0818C25.3181 83.0855 24.8988 83.2391 24.6234 83.544C24.2825 83.9231 24.2281 84.4466 24.1217 84.9238C23.9927 85.4927 23.8109 86.053 23.5683 86.5838C23.4734 86.7912 23.3447 87.0788 23.105 87.154C22.8654 87.2291 22.6569 87.0255 22.5215 86.8479C21.9553 86.0933 21.9007 85.051 21.7127 84.1595C21.5045 83.1815 21.0847 82.2759 20.423 81.5223C19.9139 80.9455 19.1056 80.1498 18.2545 80.2716C17.2183 80.419 17.3521 81.7233 17.3817 82.4831C17.406 83.1212 17.438 84.9745 16.3237 84.4355C15.5863 84.079 15.2299 83.153 14.9623 82.4338C14.3849 80.8703 14.1516 79.0707 13.0131 77.7823C12.5677 77.2769 11.7831 76.6091 11.0703 77.0055C10.6545 77.2369 10.5159 77.7135 10.4489 78.1531C10.3719 78.69 10.3362 79.2335 10.2474 79.7686C10.1925 80.1087 10.0877 80.6293 9.75185 80.8127C9.27096 81.0761 8.75461 80.334 8.53148 79.9991C7.95542 79.1296 7.58435 78.1736 6.89233 77.3753C5.73433 76.0405 3.5543 74.419 1.72508 75.4125C0.991734 75.8105 0.590008 76.5977 0.725161 77.4256C0.85898 78.2462 1.37613 78.9496 1.96499 79.5113C2.77964 80.2886 3.75316 80.8746 4.71816 81.4448C5.67435 82.0088 6.75611 82.5572 7.54223 83.3566C7.73416 83.5515 7.88691 83.7874 7.74749 84.058C7.6318 84.2766 7.38495 84.4219 7.18156 84.5423C6.74491 84.8079 6.26535 84.9907 5.83723 85.2717C5.21745 85.6753 4.6819 86.4164 4.83918 87.1947C5.02525 88.1211 6.11313 88.3338 6.91152 88.397C7.76455 88.466 8.61465 88.3599 9.46049 88.241C10.3362 88.1171 11.2287 87.9691 12.1161 88.0267C12.3384 88.0406 12.5573 88.0683 12.7727 88.1102C12.9822 88.1509 13.3178 88.1896 13.1363 88.4498C12.8393 88.8731 12.2504 89.1549 11.8463 89.4662C11.1972 89.9666 10.6342 90.6589 10.6726 91.526C10.7126 92.4369 11.5224 92.848 12.3435 92.8749C13.3951 92.9085 14.4622 92.7307 15.509 92.6464C16.028 92.6059 16.5503 92.5745 17.0704 92.5742C17.5688 92.5715 18.1286 92.5569 18.6087 92.7045C18.7825 92.7592 19.0238 92.852 19.1158 93.0218C19.2456 93.2673 18.9851 93.4685 18.8084 93.5978C18.4315 93.8665 18.0577 94.1307 17.7712 94.5026C17.2308 95.2034 17.1876 96.1073 17.7877 96.7914Z" fill="#958BF7"/>
<path d="M20.0235 94.7445C21.0927 94.6381 22.1617 94.5317 23.2309 94.4251C23.7763 94.3707 24.322 94.3166 24.8674 94.2622C25.0225 94.2468 25.2595 94.2588 25.4536 94.2335C24.6978 93.7408 23.9618 93.2159 23.221 92.7065C22.1057 91.9396 20.9903 91.1729 19.8753 90.406C19.8449 90.4225 19.8107 90.4321 19.7734 90.4321C17.9298 90.4375 16.0926 90.607 14.2791 90.9389C13.9413 91.0007 13.9008 90.4689 14.2359 90.4076C15.8625 90.1098 17.5089 89.9502 19.1611 89.9152C19.0683 89.8515 18.9756 89.7878 18.8828 89.7238C16.7667 88.2689 14.6507 86.8139 12.5346 85.359C10.9237 85.5432 9.32803 85.8311 7.75631 86.232C7.42656 86.3162 7.24636 85.814 7.57984 85.729C8.99428 85.3683 10.4282 85.0961 11.8746 84.9053C11.3369 84.5355 10.7992 84.1658 10.2616 83.7961C8.65066 82.6884 7.04003 81.5811 5.42913 80.4735C5.14656 80.2794 5.49391 79.8745 5.77434 80.0672C7.9869 81.5886 10.1997 83.1099 12.4123 84.6312C12.0807 83.0235 11.8357 81.4006 11.6933 79.7647C11.6635 79.4224 12.195 79.3792 12.2246 79.7215C12.3782 81.4873 12.6413 83.2416 13.0201 84.9732C13.0262 85.0007 13.0278 85.0279 13.0278 85.0548C15.1708 86.5282 17.3138 88.0018 19.4567 89.4751C19.377 87.515 19.2976 85.5549 19.2179 83.5945C19.204 83.2522 19.7353 83.2077 19.7492 83.5513L20.0051 89.8521C20.9357 90.4918 21.8663 91.1319 22.7969 91.7717C23.7941 92.4573 24.7807 93.1832 25.8062 93.8397C25.8036 93.7339 25.7814 93.6225 25.7713 93.5193C25.5767 91.5688 25.5474 89.6066 25.666 87.6502C25.6868 87.3076 26.2117 87.4044 26.1912 87.7432C26.1243 88.8482 26.108 89.9552 26.1435 91.0618C26.1608 91.6061 26.1909 92.1499 26.2333 92.6927C26.2535 92.9542 26.2767 93.2151 26.3029 93.4761C26.3247 93.6955 26.3866 93.957 26.3583 94.1836C26.7734 94.4339 27.1961 94.6704 27.6296 94.8852C27.937 95.0377 27.7125 95.5213 27.4046 95.3688C26.9426 95.1398 26.4953 94.8839 26.056 94.6147C25.8723 94.7026 25.6386 94.721 25.4336 94.7415C24.8226 94.8023 24.2116 94.8631 23.6009 94.9239C22.4226 95.0412 21.2444 95.1585 20.0661 95.2758C19.7246 95.3099 19.6817 94.7786 20.0235 94.7445Z" fill="#B4D371"/>
<path d="M92.9964 89.1899C90.7204 89.6631 88.4274 90.0882 86.1866 90.7176C84.0217 91.3217 81.9033 92.1289 79.9909 93.3199C79.9661 93.3578 79.9469 93.3969 79.9221 93.4348C79.8466 93.5462 79.7075 93.4708 79.6899 93.3647C79.655 93.3223 79.6451 93.2613 79.6867 93.2042C79.8376 93.0008 79.9653 92.7849 80.0807 92.5644C80.3486 91.8842 80.4272 91.1377 80.3603 90.4068C80.138 87.9173 78.4269 85.995 77.0484 84.0408C76.337 83.0313 75.6894 81.9556 75.3229 80.7686C75.1486 80.2003 75.0366 79.6079 75.0318 79.0113C75.0251 78.4739 75.0753 77.9029 75.3349 77.4196C75.5471 77.02 75.919 76.6149 76.4108 76.6412C76.981 76.6692 77.3467 77.2642 77.6797 77.6548C78.1262 78.1839 78.5743 78.7098 79.02 79.2366C79.4575 79.7545 79.8802 80.288 80.3401 80.7883C80.5085 80.9717 80.7253 81.1772 80.9879 81.1994C81.279 81.2242 81.4957 81.0178 81.6292 80.7835C81.9185 80.2778 81.9387 79.6071 81.939 79.0369C81.9377 77.7971 81.6303 76.5842 81.2949 75.399C80.7026 73.3112 79.9487 71.0632 80.5251 68.8842C80.6578 68.386 80.8503 67.8729 81.1534 67.4517C81.4557 67.0366 81.9576 66.7511 82.4297 67.0865C82.6441 67.2368 82.8093 67.4658 82.961 67.6767C83.1327 67.9176 83.2862 68.1725 83.4278 68.4335C83.7221 68.9746 83.9545 69.5421 84.1923 70.1083C84.4266 70.6727 84.6671 71.2381 84.9761 71.7638C85.2578 72.2447 85.599 72.7661 86.117 73.0209C86.3377 73.1278 86.6032 73.1881 86.8365 73.0742C87.0937 72.9479 87.2185 72.6661 87.2939 72.4043C87.4418 71.8821 87.489 71.3202 87.4866 70.7788C87.473 68.5609 86.5901 66.4595 86.5283 64.2475C86.5144 63.7231 86.5462 63.1937 86.6517 62.6784C86.7496 62.1932 86.8959 61.5908 87.3488 61.309C88.2325 60.7546 88.9848 61.8547 89.3167 62.5321C89.6192 63.1484 89.922 63.765 90.2254 64.3839C90.3795 64.6969 90.5336 65.0099 90.6879 65.3228C90.8183 65.5929 90.9316 65.9095 91.1275 66.1377C91.5433 66.6205 92.0632 66.1044 92.29 65.7173C92.5856 65.2151 92.6939 64.5961 92.8312 64.0382C93.4019 61.6996 93.7327 59.2183 95.1727 57.2137C95.8021 56.3369 96.6287 55.5716 97.634 55.1451C98.503 54.7756 99.697 54.5823 100.489 55.2344C101.393 55.9752 101.193 57.3891 100.972 58.3973C100.75 59.4198 100.347 60.3934 99.8975 61.3333C99.4326 62.3055 98.9189 63.2534 98.47 64.2323C98.2508 64.7116 98.0451 65.1983 97.8758 65.6963C97.7105 66.1793 97.5106 66.7141 97.5746 67.2291C97.6049 67.4621 97.7014 67.703 97.939 67.791C98.2079 67.8918 98.5094 67.755 98.7592 67.6503C99.3374 67.4061 99.9103 67.1443 100.495 66.9121C101.595 66.4771 102.809 66.1191 104.004 66.3313C104.252 66.3774 104.499 66.4624 104.668 66.6567C104.831 66.8393 104.877 67.087 104.848 67.3264C104.775 67.8595 104.391 68.2964 104.04 68.6787C103.293 69.4958 102.421 70.1856 101.546 70.8627C100.664 71.5446 99.7674 72.2143 98.9823 73.0065C98.6011 73.3896 98.25 73.7996 97.9454 74.2434C97.8443 74.3903 97.4639 74.8787 97.7345 75.0125C97.8515 75.0695 98.0344 75.0207 98.1615 75.0079C98.2834 74.9967 98.4044 74.9832 98.5262 74.972C99.5531 74.8616 100.593 74.739 101.625 74.8357C102.12 74.8808 102.611 74.9821 103.072 75.1652C103.533 75.3508 104.061 75.6307 104.351 76.0449C104.947 76.8913 104.13 77.8182 103.424 78.2588C102.969 78.544 102.457 78.7573 101.957 78.9559C101.424 79.1667 100.884 79.3499 100.338 79.5258C98.3231 80.1856 96.0916 80.7899 94.6804 82.48C94.8606 82.5432 95.0453 82.5941 95.2322 82.6247C96.2489 82.79 97.2677 82.5594 98.2826 82.5029C99.2102 82.4525 100.216 82.5432 100.955 83.1605C101.592 83.6918 101.991 84.5577 101.661 85.3675C101.48 85.8052 101.129 86.1512 100.768 86.4421C100.346 86.7814 99.886 87.0682 99.4088 87.3156C98.4281 87.824 97.3677 88.1583 96.3009 88.4334C95.209 88.7189 94.1038 88.9582 92.9964 89.1899Z" fill="#B4D371"/>
<path d="M101.256 68.7464C99.3697 69.7479 97.4839 70.751 95.599 71.756C94.6668 72.2531 93.7346 72.7506 92.8029 73.2485C92.4073 73.4599 92 73.6617 91.6121 73.8907C92.5438 71.9866 93.436 70.0627 94.2834 68.1196C95.3367 65.7048 96.323 63.2608 97.2437 60.7926C97.3688 60.4578 96.8588 60.2347 96.7333 60.5711C95.1162 64.9056 93.295 69.1627 91.2728 73.3237C91.1208 73.6361 90.9601 73.9443 90.806 74.2559C89.9559 71.0466 89.1573 67.824 88.4151 64.5881C88.3359 64.2426 87.7817 64.2991 87.8617 64.6475C88.6572 68.1146 89.5137 71.5675 90.4312 75.0044C89.2785 77.3007 88.0619 79.5647 86.7914 81.7978C85.3245 78.8079 83.8892 75.8026 82.4903 72.7804C82.3404 72.4568 81.8217 72.6591 81.9726 72.9849C83.4257 76.1235 84.9155 79.2451 86.4417 82.3491C86.447 82.3597 86.4558 82.368 86.4622 82.3781C85.8512 83.4401 85.2312 84.4971 84.5919 85.5426C83.8783 86.7099 83.1471 87.866 82.4007 89.0126C82.3279 88.9907 82.2613 88.9489 82.2048 88.8726C81.4909 87.9092 80.8535 86.8776 80.1825 85.8835C79.4167 84.7493 78.6519 83.6142 77.8879 82.4786C77.688 82.1816 77.2433 82.5162 77.443 82.8132C78.8675 84.9308 80.2519 87.0861 81.7311 89.1659C81.8457 89.3271 81.9606 89.43 82.0827 89.4951C81.5045 90.3753 80.9196 91.251 80.3228 92.1187C80.1207 92.4122 80.5568 92.7587 80.7605 92.4626C81.4197 91.504 82.064 90.5355 82.7001 89.5615C82.7712 89.5503 82.8451 89.5367 82.9245 89.5188C83.5443 89.3797 84.1651 89.2466 84.7873 89.1195C86.0317 88.8649 87.2808 88.6338 88.534 88.4261C89.9663 88.1889 91.4034 87.9836 92.8442 87.8071C93.2001 87.7637 93.1407 87.21 92.7848 87.2537C90.3982 87.5459 88.0219 87.9196 85.662 88.3795C85.0832 88.4922 84.5053 88.6101 83.9284 88.7329C83.6586 88.7903 83.3891 88.8492 83.1199 88.9089C84.5058 86.7622 85.8419 84.5832 87.1137 82.3669C91.0742 80.5707 95.1543 79.0483 99.3249 77.8157C99.6682 77.7141 99.4619 77.1973 99.1204 77.298C95.1839 78.4616 91.3282 79.8843 87.5775 81.5504C87.7543 81.2377 87.9321 80.9256 88.1067 80.6115C89.1461 78.741 90.1422 76.8465 91.0982 74.9317C91.7276 74.3559 92.5705 74.0003 93.3113 73.6047C94.2229 73.1176 95.1346 72.6309 96.0468 72.1446C97.8507 71.1831 99.6554 70.2232 101.461 69.2646C101.774 69.098 101.573 68.5784 101.256 68.7464Z" fill="#958BF7"/>
<path d="M94.2668 96.2347C92.9945 97.6801 90.5841 96.8764 89.0294 96.4171C87.2069 95.8797 85.3867 95.1938 83.4541 95.2705C83.2038 95.2815 83.1576 94.9448 83.3021 94.803C83.3229 94.7816 83.3416 94.7619 83.3602 94.7422C83.3576 94.6233 83.4168 94.4993 83.5628 94.4612C83.5951 94.4514 83.6199 94.4404 83.65 94.4322C83.9427 94.0939 84.1975 93.73 84.4135 93.3382C84.4702 92.8469 84.3871 92.3012 84.3178 91.8995C84.0171 90.1582 83.5722 88.4114 83.6529 86.6317C83.7233 85.1045 84.3916 82.4993 86.3317 82.5252C86.7364 82.5289 87.1557 82.6824 87.4311 82.9874C87.772 83.3665 87.8264 83.89 87.9328 84.3672C88.0618 84.936 88.2436 85.4964 88.4862 86.0271C88.5811 86.2345 88.7098 86.5221 88.9495 86.5973C89.1891 86.6725 89.3976 86.4688 89.533 86.2913C90.0992 85.5366 90.1539 84.4943 90.3418 83.6029C90.55 82.6249 90.9698 81.7193 91.6315 80.9657C92.1406 80.3888 92.9489 79.5931 93.8 79.7149C94.8362 79.8624 94.7024 81.1667 94.6728 81.9264C94.6485 82.5646 94.6166 84.4178 95.7308 83.8788C96.4682 83.5224 96.8246 82.5963 97.0922 81.8771C97.6696 80.3137 97.9029 78.514 99.0414 77.2257C99.4868 76.7203 100.271 76.0525 100.984 76.4489C101.4 76.6803 101.539 77.1569 101.606 77.5965C101.683 78.1334 101.718 78.6769 101.807 79.2119C101.862 79.5521 101.967 80.0727 102.303 80.2561C102.784 80.5195 103.3 79.7773 103.523 79.4425C104.099 78.5729 104.47 77.617 105.162 76.8186C106.32 75.4839 108.5 73.8623 110.329 74.8558C111.063 75.2538 111.464 76.041 111.329 76.869C111.196 77.6895 110.678 78.393 110.09 78.9547C109.275 79.732 108.301 80.3179 107.336 80.8881C106.38 81.4522 105.298 82.0005 104.512 82.8C104.32 82.9948 104.168 83.2308 104.307 83.5013C104.423 83.7199 104.67 83.8652 104.873 83.9857C105.31 84.2512 105.789 84.4341 106.217 84.715C106.837 85.1186 107.373 85.8597 107.215 86.6381C107.029 87.5644 105.941 87.7772 105.143 87.8404C104.29 87.9094 103.44 87.8033 102.594 87.6844C101.718 87.5604 100.826 87.4125 99.9384 87.4701C99.7161 87.4839 99.4972 87.5117 99.2818 87.5535C99.0723 87.5943 98.7367 87.633 98.9182 87.8931C99.2152 88.3165 99.8041 88.5982 100.208 88.9096C100.857 89.4099 101.42 90.1022 101.382 90.9694C101.342 91.8803 100.532 92.2913 99.711 92.3182C98.6594 92.3518 97.5923 92.174 96.5455 92.0898C96.0265 92.0493 95.5042 92.0178 94.9841 92.0175C94.4857 92.0149 93.9259 92.0002 93.4458 92.1479C93.272 92.2026 93.0307 92.2953 92.9387 92.4651C92.8089 92.7106 93.0694 92.9119 93.2461 93.0412C93.623 93.3099 93.9968 93.5741 94.2836 93.9459C94.8237 94.647 94.8669 95.551 94.2668 96.2347Z" fill="#958BF7"/>
<path d="M92.0321 94.1885C90.9629 94.0822 89.894 93.9758 88.8247 93.8692C88.2793 93.8148 87.7336 93.7607 87.1882 93.7063C87.0331 93.6909 86.7961 93.7029 86.602 93.6775C87.3578 93.1849 88.0938 92.66 88.8346 92.1506C89.9499 91.3837 91.0653 90.617 92.1804 89.8501C92.2107 89.8666 92.2449 89.8762 92.2822 89.8762C94.1258 89.8815 95.963 90.0511 97.7765 90.3829C98.1143 90.4448 98.1548 89.913 97.8197 89.8517C96.1931 89.5539 94.5467 89.3942 92.8945 89.3593C92.9873 89.2956 93.08 89.2319 93.1728 89.1679C95.2889 87.713 97.4049 86.258 99.521 84.803C101.132 84.9872 102.728 85.2751 104.299 85.6761C104.629 85.7603 104.809 85.2581 104.476 85.173C103.061 84.8124 101.627 84.5402 100.181 84.3496C100.719 83.9799 101.256 83.6101 101.794 83.2404C103.405 82.1328 105.016 81.0254 106.626 79.9178C106.909 79.7235 106.562 79.3188 106.281 79.5116C104.069 81.0329 101.856 82.5542 99.6433 84.0756C99.9749 82.4679 100.22 80.845 100.362 79.209C100.392 78.8667 99.8606 78.8235 99.831 79.1658C99.6774 80.9316 99.4143 82.6859 99.0355 84.4176C99.0294 84.445 99.0278 84.4722 99.0278 84.4992C96.8848 85.9725 94.7418 87.4461 92.5989 88.9195C92.6786 86.9594 92.758 84.9992 92.8377 83.0389C92.8516 82.6966 92.3203 82.6521 92.3064 82.9957L92.0505 89.2964C91.1199 89.9362 90.1893 90.5762 89.2587 91.216C88.2615 91.9016 87.2749 92.6275 86.2494 93.2841C86.252 93.1782 86.2742 93.0668 86.2843 92.9636C86.4789 91.0131 86.5082 89.0509 86.3896 87.0945C86.3688 86.752 85.8439 86.8487 85.8644 87.1875C85.9313 88.2925 85.9476 89.3996 85.9122 90.5061C85.8948 91.0504 85.8647 91.5943 85.8223 92.137C85.8021 92.3985 85.7789 92.6595 85.7527 92.9205C85.7309 93.1398 85.669 93.4014 85.6973 93.6279C85.2822 93.8783 84.8595 94.1147 84.426 94.3296C84.1186 94.482 84.3431 94.9656 84.651 94.8131C85.113 94.5841 85.5603 94.3282 85.9996 94.059C86.1833 94.147 86.417 94.1654 86.622 94.1859C87.233 94.2467 87.844 94.3074 88.4547 94.3682C89.633 94.4855 90.8112 94.6028 91.9895 94.7201C92.3312 94.7539 92.3739 94.2227 92.0321 94.1885Z" fill="#B4D371"/>
<path d="M82.1947 3.28223H30.2324V21.5366H82.1947V3.28223Z" fill="#4B39C6"/>
<path d="M27.4629 30.7881L32.9559 98.7431L81.4082 98.8106L86.8975 30.871L27.4629 30.7881Z" fill="#958BF7"/>
<path d="M32.9547 98.7433L31.4461 98.7412L25.9531 30.7861L27.4617 30.7883L32.9547 98.7433Z" fill="#4B39C6"/>
<path d="M86.8975 30.8711L81.4082 98.8107L82.812 98.8128L88.3087 30.873L86.8975 30.8711Z" fill="#4B39C6"/>
<path d="M88.4268 92.1951L27.1699 92.1094L27.159 99.9144L88.4159 100L88.4268 92.1951Z" fill="#BCD8D7"/>
<path d="M88.4268 92.1951L27.1699 92.1094L27.1653 95.4026L88.4222 95.4884L88.4268 92.1951Z" fill="#C8EDEA"/>
<path d="M92.551 34.5482L92.5502 35.1603C92.5473 37.242 90.8441 38.9406 88.7625 38.9376L88.4098 38.9371C86.6667 38.9347 85.1931 37.7423 84.7609 36.1312L84.0449 29.8203L91.0995 29.8302L91.1166 29.8246L92.551 34.5482Z" fill="#B4D371"/>
<path d="M91.0986 29.7657L91.1154 29.8249L91.0986 29.8305L84.0441 29.8206L80.5352 21.5342L85.7818 21.5414L91.0986 29.7657Z" fill="#9BBC40"/>
<path d="M84.0427 29.8204L84.7588 36.1313C84.3869 37.8261 82.8648 39.1073 81.0595 39.1049L80.7069 39.1043C78.803 39.1017 77.2195 37.675 76.9682 35.8412L76.9258 29.8105L84.0427 29.8204Z" fill="white"/>
<path d="M80.5349 21.5339L84.0438 29.8203L76.9271 29.8105L74.3379 21.5254L80.5349 21.5339Z" fill="#BEEDE6"/>
<path d="M76.9267 29.8103L76.9691 35.841C76.693 37.6571 75.1114 39.0596 73.2243 39.0569L72.869 39.0564C71.0891 39.054 69.5874 37.8021 69.1948 36.1347L68.7891 29.7988L76.9267 29.8103Z" fill="#B4D371"/>
<path d="M74.3375 21.525L76.9268 29.8101L68.7888 29.7989L66.9668 21.5146L74.3375 21.525Z" fill="#9BBC40"/>
<path d="M68.7908 29.799L69.1965 36.1349C68.8049 37.8098 67.294 39.0659 65.5058 39.0632L65.1505 39.0627C63.2466 39.06 61.6605 37.6307 61.412 35.791L61.0762 29.7881L68.7908 29.799Z" fill="white"/>
<path d="M66.9685 21.5147L68.7905 29.799L61.0759 29.7884L59.832 21.5049L66.9685 21.5147Z" fill="#BEEDE6"/>
<path d="M61.0738 29.7887L61.4097 35.7917C61.1391 37.6134 59.5605 39.0188 57.6678 39.0161L57.3124 39.0156C55.4451 39.0129 53.8817 37.6372 53.5879 35.8485L53.5964 29.7783L61.0738 29.7887Z" fill="#B4D371"/>
<path d="M59.8315 21.5049L61.0753 29.7884L53.5977 29.7777L53.6091 21.4961L59.8315 21.5049Z" fill="#9BBC40"/>
<path d="M53.5977 29.7781L53.5892 35.8482C53.2285 37.5628 51.6978 38.861 49.8814 38.8583L49.5261 38.8578C47.6222 38.8551 46.0388 37.4314 45.7874 35.5974C45.7818 35.6341 45.7759 35.6707 45.7674 35.7074L45.4824 29.7666L53.5977 29.7781Z" fill="white"/>
<path d="M53.6092 21.4967L53.5977 29.7783L45.4824 29.7671L46.1089 21.4863L53.6092 21.4967Z" fill="#BEEDE6"/>
<path d="M46.1097 21.4861L45.4832 29.7669L38.6035 29.7573L39.9153 21.4775L46.1097 21.4861Z" fill="#9BBC40"/>
<path d="M45.4814 29.7667L45.7663 35.7075C45.448 37.4672 43.8947 38.8134 42.0415 38.8107L41.6888 38.8102C39.9063 38.8078 38.4044 37.556 38.0117 35.8912L38.6014 29.7568L45.4814 29.7667Z" fill="#B4D371"/>
<path d="M39.9142 21.4769L38.6024 29.7567L31.748 29.7471L34.7017 21.4697L39.9142 21.4769Z" fill="#BEEDE6"/>
<path d="M38.6019 29.7567L38.0123 35.891C37.6207 37.5659 36.1097 38.822 34.3216 38.8194L33.9662 38.8188C32.065 38.8162 30.4818 37.3924 30.2305 35.5557L31.7475 29.7471L38.6019 29.7567Z" fill="white"/>
<path d="M34.7022 21.4702L31.7486 29.7475L23.6504 29.7363L28.7843 21.4619L34.7022 21.4702Z" fill="#9BBC40"/>
<path d="M31.7481 29.7478L30.231 35.5564C29.9548 37.3726 28.3733 38.775 26.4862 38.7724L26.1309 38.7718C24.0519 38.7689 22.3506 37.0628 22.3535 34.9841L22.3543 34.3691L23.6499 29.7363L31.7481 29.7478Z" fill="#B4D371"/>
<path d="M80.8857 6.12743L32.4121 6.05957L32.3926 20.0173L80.8662 20.0852L80.8857 6.12743Z" fill="#B4D371"/>
<path d="M32.3926 20.0176L80.5399 21.5344L80.8662 20.085L32.3926 20.0176Z" fill="black"/>
<path d="M79.6136 7.14571L33.4277 7.08105L33.4109 19.0784L79.5968 19.1431L79.6136 7.14571Z" fill="white"/>
<path d="M33.0371 41.3313L36.1643 92.109H78.2697L80.8464 41.0264L33.0371 41.3313Z" fill="#3F3A89"/>
<path d="M40.8862 78.5692C41.6593 77.855 42.7922 76.5613 44.0969 74.2984C46.5344 70.0706 46.1369 58.5786 46.1369 58.5786L48.008 58.2539L49.3206 68.7257L60.8126 69.4718L64.1143 60.1516L66.3826 61.0132C66.3826 61.0132 62.3534 77.3317 68.0764 83.5005L68.1247 92.1095H38.623L39.8176 79.3718C39.8176 79.3718 40.218 79.1892 40.8862 78.5692Z" fill="#775FE0"/>
<path d="M32.852 58.8412L31.5099 66.5375C31.5099 66.5375 31.0132 67.8554 29.9179 67.383C28.8225 66.9107 29.22 65.5415 29.22 65.5415C29.22 65.5415 28.3262 66.0651 28.3262 65.5415C28.3262 65.4368 28.4523 65.0772 28.6565 64.5699C29.4538 62.5674 31.432 58.2508 31.5072 58.0844L31.5099 58.0791L32.852 58.8412Z" fill="#9BBC40"/>
<path d="M59.8433 56.7441L61.3332 58.5507L61.1346 59.0177L58.3481 65.5408C57.3548 63.7878 55.7871 63.353 55.7871 63.353L60.0419 58.9506L59.8433 56.7441Z" fill="#9BBC40"/>
<path d="M51.3096 57.6568L55.7872 63.3532C53.7472 64.0002 52.1552 66.0134 52.1552 66.0134L50.2654 57.8608L50.166 57.4313L51.9297 56.0166L51.3096 57.6568Z" fill="#9BBC40"/>
<path d="M77.6765 84.397C79.0213 84.3728 78.2752 85.691 78.2752 85.691L76.8821 86.338L71.0087 89.0653L70.563 89.2719L69.916 87.2827L76.8821 83.7501C78.9702 83.2025 77.6765 84.397 77.6765 84.397Z" fill="#9BBC40"/>
<path d="M64.1142 60.1509L60.8124 69.4711L49.3204 68.725L48.0078 58.2532L50.2654 57.8613L52.1552 66.0139C52.1552 66.0139 53.7471 64.0005 55.7872 63.3538C55.7872 63.3538 57.3549 63.7886 58.3482 65.5416L61.1347 59.0185L64.1142 60.1509Z" fill="#B4D371"/>
<path d="M70.8017 64.8945L76.8819 83.7498L69.9159 87.2824L69.7173 86.8769L69.0087 76.04L68.0773 83.5C62.3542 77.3312 66.3835 61.0127 66.3835 61.0127C66.3835 61.0127 72.1308 61.9361 70.5148 63.3535C70.5148 63.3535 72.3049 64.2987 70.8017 64.8945Z" fill="#B4D371"/>
<path d="M46.1352 58.5772C46.1352 58.5772 46.5324 70.0692 44.0951 74.2971C42.7905 76.56 41.6576 77.8539 40.8845 78.5678V70.8636L31.5078 66.5363L32.85 58.8401L40.5622 59.82C39.9395 58.2523 42.3043 59.4737 42.3043 59.4737C40.8845 57.1143 46.1352 58.5772 46.1352 58.5772Z" fill="#B4D371"/>
<path d="M69.7164 86.877L68.0762 83.5001L69.0076 76.04L69.7164 86.877Z" fill="black"/>
<path d="M27.3672 63.5951L31.5065 58.084C31.4314 58.2503 29.4529 62.5669 28.6558 64.5694C28.6558 64.5694 28.0973 64.1643 27.3672 63.5951Z" fill="black"/>
<path d="M78.3828 89.8689L78.2698 92.1092H72.3042L71.0078 89.0652L76.8812 86.3379L78.3828 89.8689Z" fill="#FFB448"/>
<path d="M38.8755 42.3909C38.9533 42.3666 42.1101 41.3467 42.604 41.8863C43.1006 42.4338 34.3952 46.0389 34.3952 46.0389L31.5095 58.0784L31.5069 58.0838L27.3675 63.5949C25.9608 62.5052 23.9154 60.8084 23.9476 60.218C23.9986 59.3241 30.5888 43.9503 30.5888 43.9503C30.5888 43.9503 32.2692 39.2848 34.7175 38.6029C34.7175 38.6029 36.2718 35.3923 37.0556 35.2179C37.8153 35.0516 36.3603 38.0956 36.2662 38.2915C36.4086 38.074 38.6982 34.5145 39.4446 34.6461C40.1451 34.7696 38.1051 38.1359 37.7372 38.7346C38.1291 38.1468 40.3195 34.9093 40.9854 35.1697C41.6995 35.4461 38.7467 39.6044 38.5828 39.8353C38.76 39.6367 41.3988 36.6436 42.1799 36.8368C42.9772 37.0328 38.9882 42.2432 38.8755 42.3909Z" fill="#FFB448"/>
<path d="M48.2179 68.9412C48.1841 68.8503 48.1033 68.7559 48.0127 68.7175C47.7975 68.6269 47.5893 68.7143 47.4763 68.9094C47.2025 69.3821 46.929 69.8547 46.6553 70.3271C46.6054 70.4132 46.6083 70.5497 46.6419 70.6398C46.6758 70.7307 46.7566 70.825 46.8472 70.8634C47.0623 70.954 47.2705 70.8666 47.3835 70.6715C47.6573 70.1988 47.9308 69.7262 48.2046 69.2538C48.2544 69.1677 48.2512 69.031 48.2179 68.9412Z" fill="white"/>
<path d="M51.6611 71.5016C51.6465 71.3905 51.598 71.3076 51.5188 71.2284C51.1208 70.8304 50.7228 70.4324 50.3248 70.0344C50.2555 69.9654 50.1246 69.9336 50.0308 69.9416C49.9324 69.9502 49.8186 70.0043 49.7575 70.084C49.6941 70.1666 49.6507 70.2714 49.6648 70.378C49.6794 70.4892 49.728 70.5724 49.8071 70.6515C50.2051 71.0495 50.6031 71.4475 51.0011 71.8455C51.0704 71.9145 51.2013 71.9463 51.2951 71.9383C51.3935 71.9297 51.5073 71.8756 51.5684 71.7959C51.6318 71.713 51.6753 71.608 51.6611 71.5016Z" fill="white"/>
<path d="M49.2743 72.2739C49.2183 72.1949 49.116 72.1238 49.0184 72.1104C48.9136 72.096 48.7987 72.1112 48.7129 72.1779C48.6244 72.2467 48.5831 72.328 48.5495 72.4338C48.3754 72.9811 48.2013 73.5283 48.027 74.0756C47.9977 74.1679 48.0414 74.3062 48.0944 74.3811C48.1504 74.46 48.2528 74.5312 48.3504 74.5445C48.4551 74.5589 48.57 74.5437 48.6558 74.4771C48.7444 74.4083 48.7857 74.327 48.8193 74.2212C48.9933 73.6739 49.1674 73.1266 49.3417 72.5793C49.3711 72.4871 49.3273 72.3488 49.2743 72.2739Z" fill="white"/>
<path d="M46.7277 74.786C46.708 74.5764 46.5083 74.3912 46.2916 74.42C46.0762 74.4485 45.9045 74.6314 45.9256 74.8561C45.9725 75.3538 46.0194 75.8517 46.0663 76.3494C46.0861 76.5589 46.2857 76.7442 46.5024 76.7154C46.7178 76.6869 46.8895 76.504 46.8684 76.2793C46.8213 75.7813 46.7746 75.2837 46.7277 74.786Z" fill="white"/>
<path d="M51.3628 76.8801C51.3353 76.6724 51.1501 76.4832 50.9267 76.5141C50.3794 76.5895 49.8324 76.6647 49.2851 76.7401C49.0767 76.7689 48.8895 76.9531 48.9191 77.1762C48.9466 77.3839 49.1318 77.5729 49.3552 77.5422C49.9025 77.4671 50.4495 77.3916 50.9968 77.3162C51.205 77.2877 51.3924 77.1032 51.3628 76.8801Z" fill="white"/>
<path d="M53.3748 72.8156C53.1661 72.7276 52.9441 72.8084 52.8385 73.0076C52.6143 73.4303 52.3901 73.8531 52.1662 74.2756C52.0673 74.462 52.1641 74.7301 52.3581 74.812C52.5669 74.9 52.7889 74.8192 52.8945 74.6201C53.1187 74.1973 53.3429 73.7745 53.5668 73.352C53.6654 73.1654 53.5689 72.8975 53.3748 72.8156Z" fill="white"/>
<path d="M55.6908 70.7557C55.6697 70.5462 55.4722 70.3607 55.2547 70.3897C55.0403 70.4183 54.8663 70.6014 54.8887 70.8258C54.9385 71.3233 54.9881 71.821 55.0379 72.3184C55.059 72.5279 55.2565 72.7132 55.4741 72.6844C55.6884 72.6559 55.8625 72.4727 55.8401 72.2483C55.7902 71.7506 55.7404 71.2532 55.6908 70.7557Z" fill="white"/>
<path d="M59.8373 70.8656C59.3401 70.8126 58.8429 70.7598 58.3458 70.7067C58.137 70.6846 57.9081 70.8035 57.8769 71.0301C57.8489 71.2327 57.9763 71.4752 58.2002 71.499C58.6974 71.552 59.1945 71.6048 59.6917 71.6579C59.9004 71.68 60.1294 71.5611 60.1606 71.3345C60.1883 71.1319 60.0612 70.8893 59.8373 70.8656Z" fill="white"/>
<path d="M63.5137 71.2038C63.5023 70.9932 63.2885 70.8098 63.0776 70.8378C62.8553 70.8674 62.6994 71.0484 62.7116 71.2739C62.7361 71.7218 62.7604 72.1693 62.7849 72.6172C62.7964 72.8278 63.0102 73.0112 63.221 72.9832C63.4434 72.9536 63.5993 72.7726 63.587 72.5471C63.5625 72.0992 63.538 71.6516 63.5137 71.2038Z" fill="white"/>
<path d="M60.2209 73.5292C60.018 73.5012 59.7762 73.6287 59.752 73.8526C59.7008 74.3249 59.6496 74.7976 59.5984 75.2699C59.5758 75.4787 59.6955 75.7077 59.9218 75.7388C60.1246 75.7668 60.3664 75.6394 60.3907 75.4155C60.4419 74.9431 60.493 74.4705 60.5442 73.9981C60.5669 73.7894 60.4472 73.5604 60.2209 73.5292Z" fill="white"/>
<path d="M57.1215 75.0356C57.0655 74.9567 56.9631 74.8855 56.8656 74.8722C56.7608 74.8578 56.6459 74.873 56.5601 74.9396C56.4836 74.999 56.4017 75.0939 56.3967 75.1955L56.322 76.6881C56.3164 76.8011 56.321 76.8971 56.3895 76.9936C56.4455 77.0725 56.5478 77.1436 56.6454 77.157C56.7502 77.1713 56.865 77.1562 56.9509 77.0895C57.0274 77.0301 57.1092 76.9352 57.1143 76.8336C57.1391 76.3362 57.1641 75.8385 57.1889 75.3411C57.1945 75.228 57.19 75.1321 57.1215 75.0356Z" fill="white"/>
<path d="M60.7649 77.8408C60.7383 77.6409 60.5506 77.4345 60.3288 77.4748C59.7815 77.574 59.2343 77.6731 58.687 77.7723C58.5793 77.7918 58.4863 77.8283 58.4135 77.9146C58.35 77.9904 58.3077 78.109 58.3207 78.2087C58.3474 78.4086 58.5351 78.6149 58.7568 78.5747C59.3041 78.4755 59.8514 78.3764 60.3987 78.2772C60.5064 78.2577 60.5994 78.2212 60.6722 78.1348C60.7356 78.0589 60.778 77.9402 60.7649 77.8408Z" fill="white"/>
<path d="M63.7265 77.7392C63.5772 77.2167 63.4279 76.6945 63.2786 76.172C63.2205 75.9691 62.9502 75.8548 62.7607 75.935C62.5469 76.0254 62.4616 76.2354 62.5237 76.453C62.673 76.9754 62.8223 77.4977 62.9716 78.0201C63.0297 78.223 63.3 78.3374 63.4895 78.2571C63.7033 78.1665 63.7886 77.9564 63.7265 77.7392Z" fill="white"/>
<path d="M62.5107 80.0441C62.4769 79.9532 62.3961 79.8588 62.3055 79.8204C62.1173 79.7413 61.8493 79.8023 61.7691 80.0124C61.626 80.3877 61.4828 80.7633 61.3397 81.1386C61.3007 81.241 61.2869 81.3455 61.3263 81.4513C61.3602 81.5422 61.441 81.6366 61.5316 81.675C61.7198 81.7542 61.9877 81.6931 62.0679 81.4831C62.2111 81.1077 62.3542 80.7321 62.4974 80.3568C62.5363 80.2542 62.5502 80.1499 62.5107 80.0441Z" fill="white"/>
<path d="M58.1299 80.7244C58.096 80.6335 58.0153 80.5391 57.9246 80.5007C57.8273 80.4597 57.7125 80.445 57.612 80.4874C57.5221 80.5255 57.4206 80.5959 57.3883 80.6927C57.2638 81.0659 57.1396 81.4388 57.0151 81.812C56.9796 81.9186 56.9607 82.0146 57.0018 82.1247C57.0356 82.2156 57.1164 82.31 57.207 82.3484C57.3043 82.3894 57.4195 82.4041 57.5197 82.3617C57.6096 82.3236 57.7111 82.2532 57.7434 82.1564L58.1166 81.0371C58.152 80.9304 58.1707 80.8345 58.1299 80.7244Z" fill="white"/>
<path d="M54.1741 78.9332C54.0496 78.4357 53.9254 77.9381 53.8009 77.4406C53.778 77.3489 53.6772 77.2556 53.5956 77.217C53.5053 77.1741 53.3768 77.1639 53.2829 77.2037C53.1886 77.2436 53.1003 77.3119 53.0593 77.4089C53.0148 77.5147 53.0182 77.6107 53.0459 77.7216L53.4191 79.2141C53.4421 79.3058 53.5428 79.3991 53.6244 79.4378C53.7148 79.4804 53.8433 79.4909 53.9371 79.4511C54.0315 79.4111 54.1197 79.3429 54.1608 79.2459C54.2053 79.1398 54.2018 79.0441 54.1741 78.9332Z" fill="white"/>
<path d="M53.677 81.5116C53.6466 81.2821 53.4669 81.1424 53.2409 81.1456C52.6688 81.1536 52.0968 81.1613 51.525 81.1693C51.3138 81.1722 51.1318 81.4007 51.159 81.6054C51.1893 81.8349 51.369 81.9746 51.5951 81.9714C52.1671 81.9637 52.7392 81.9557 53.311 81.9477C53.5221 81.9447 53.7042 81.7163 53.677 81.5116Z" fill="white"/>
<path d="M49.9583 79.7896C49.7309 79.7584 49.5437 79.8938 49.4894 80.113C49.3715 80.5872 49.254 81.0614 49.1361 81.5357C49.0852 81.7404 49.2532 81.9763 49.4595 82.0046C49.6869 82.0357 49.874 81.9003 49.9284 81.6812C50.0462 81.207 50.1638 80.7327 50.2816 80.2585C50.3325 80.0538 50.1646 79.8179 49.9583 79.7896Z" fill="white"/>
<path d="M46.4923 80.6485C46.3428 80.201 46.1929 79.7534 46.0434 79.3055C45.9765 79.1056 45.7211 78.9857 45.5254 79.0686C45.3189 79.156 45.2168 79.3722 45.2885 79.5865L45.7374 80.9292C45.8043 81.1292 46.0597 81.2491 46.2553 81.1662C46.4617 81.0791 46.5637 80.8626 46.4923 80.6485Z" fill="white"/>
<path d="M43.6032 81.3878C43.5741 81.1694 43.392 81.0044 43.167 81.0218C42.7696 81.0524 42.3719 81.0833 41.9744 81.114C41.7643 81.1302 41.5799 81.336 41.6084 81.5501C41.6374 81.7684 41.8195 81.9334 42.0445 81.9161C42.442 81.8854 42.8397 81.8545 43.2372 81.8239C43.4472 81.8079 43.6314 81.6021 43.6032 81.3878Z" fill="white"/>
<path d="M45.976 82.9584C45.7646 82.8694 45.5484 82.9528 45.4396 83.1503C45.1658 83.6478 44.8921 84.1452 44.6183 84.6426C44.5165 84.8276 44.6183 85.0979 44.8102 85.179C45.0216 85.268 45.2378 85.1845 45.3466 84.987C45.6203 84.4896 45.8941 83.9922 46.1679 83.4947C46.2695 83.3095 46.1679 83.0392 45.976 82.9584Z" fill="white"/>
<path d="M48.772 85.4381C48.5782 85.0129 48.3844 84.5875 48.1908 84.1623C48.1468 84.0658 48.0837 83.9853 47.9856 83.9387C47.8952 83.8957 47.7667 83.8856 47.6729 83.9253C47.4836 84.0053 47.3423 84.238 47.4359 84.4433C47.6297 84.8685 47.8235 85.2939 48.017 85.7191C48.061 85.8156 48.1242 85.8961 48.2223 85.9428C48.3127 85.9854 48.4411 85.9958 48.535 85.9561C48.7242 85.8761 48.8655 85.6434 48.772 85.4381Z" fill="white"/>
<path d="M43.3792 86.2025C43.3296 85.7547 43.2798 85.3071 43.2302 84.8592C43.207 84.65 43.0132 84.4642 42.7941 84.4932C42.5819 84.5215 42.4033 84.7052 42.4281 84.9294C42.4777 85.3772 42.5275 85.8248 42.5771 86.2726C42.6003 86.4819 42.7941 86.6677 43.0132 86.6386C43.2257 86.6104 43.404 86.4267 43.3792 86.2025Z" fill="white"/>
<path d="M41.662 87.5455C41.6524 87.335 41.4354 87.1518 41.2259 87.1795C41.002 87.2094 40.8495 87.3901 40.8599 87.6157C40.8847 88.1629 40.9097 88.7102 40.9345 89.2575C40.9441 89.4681 41.1611 89.6512 41.3706 89.6235C41.5946 89.5936 41.747 89.4129 41.7366 89.1874C41.7116 88.6401 41.6868 88.0928 41.662 87.5455Z" fill="white"/>
<path d="M46.2875 89.3388C46.2585 89.1194 46.0767 88.9565 45.8514 88.9728C45.2804 89.0136 44.7094 89.0544 44.1384 89.0952C43.9284 89.1101 43.7442 89.318 43.7724 89.5313C43.8015 89.7507 43.9835 89.9133 44.2085 89.8973C44.7795 89.8565 45.3505 89.8157 45.9215 89.7749C46.1316 89.76 46.3158 89.5523 46.2875 89.3388Z" fill="white"/>
<path d="M48.0649 87.7018C47.8309 87.733 47.7016 87.9116 47.6989 88.1379C47.6925 88.6852 47.6861 89.2322 47.6797 89.7795C47.6773 89.9909 47.9148 90.1722 48.1158 90.1455C48.3499 90.1143 48.4792 89.9357 48.4818 89.7094C48.4882 89.1621 48.4946 88.6151 48.501 88.0678C48.5034 87.8564 48.2659 87.6752 48.0649 87.7018Z" fill="white"/>
<path d="M51.9274 89.0768C51.4041 89.0435 50.8806 89.0102 50.3573 88.9768C50.2453 88.9696 50.1469 88.9768 50.0518 89.0443C49.9729 89.1003 49.9017 89.2026 49.8884 89.3002C49.8614 89.4951 49.987 89.7547 50.2117 89.7691C50.7353 89.8024 51.2586 89.8357 51.7818 89.8691C51.8938 89.8763 51.9922 89.8691 52.0873 89.8016C52.1662 89.7456 52.2374 89.6433 52.2507 89.5457C52.2777 89.3508 52.1524 89.0912 51.9274 89.0768Z" fill="white"/>
<path d="M52.0688 85.072C51.8659 84.9864 51.6308 85.0613 51.5324 85.2639C51.3043 85.7344 51.0758 86.2049 50.8476 86.6754C50.7557 86.8652 50.8404 87.1278 51.0396 87.2118C51.2424 87.2973 51.4775 87.2224 51.5759 87.0198C51.8041 86.5493 52.0325 86.0788 52.2607 85.6083C52.3527 85.4185 52.2677 85.1559 52.0688 85.072Z" fill="white"/>
<path d="M55.5478 85.4037C55.125 84.9311 54.702 84.4584 54.2792 83.9858C54.2067 83.9048 54.1347 83.8429 54.0233 83.8224C53.9249 83.8043 53.798 83.8275 53.7178 83.8898C53.5616 84.0111 53.4717 84.2833 53.6218 84.4512C54.0446 84.9239 54.4677 85.3965 54.8904 85.8691C54.963 85.9502 55.0349 86.012 55.1464 86.0326C55.2447 86.0507 55.3716 86.0275 55.4519 85.9651C55.6083 85.8438 55.6982 85.5716 55.5478 85.4037Z" fill="white"/>
<path d="M59.2703 84.9695C58.8001 84.765 58.3299 84.5603 57.8596 84.3558C57.6666 84.2718 57.4096 84.343 57.3233 84.5477C57.2406 84.7437 57.3089 84.9943 57.5152 85.0841C57.9854 85.2886 58.4557 85.4933 58.9259 85.6977C59.1189 85.7817 59.3759 85.7105 59.4623 85.5058C59.5446 85.3096 59.4767 85.059 59.2703 84.9695Z" fill="white"/>
<path d="M61.6283 84.3488C61.415 84.3195 61.1964 84.4499 61.1594 84.6722C61.0845 85.1198 61.0098 85.5676 60.9349 86.0154C60.9003 86.2228 61.0405 86.4545 61.2583 86.4843C61.4716 86.5137 61.6901 86.3833 61.7272 86.161C61.8021 85.7131 61.8767 85.2656 61.9516 84.8177C61.9863 84.6103 61.8461 84.3787 61.6283 84.3488Z" fill="white"/>
<path d="M59.8167 87.1049C59.5946 87.0743 59.3957 87.2078 59.3478 87.4283C59.2182 88.0241 59.0886 88.6199 58.9588 89.2159C58.914 89.4217 59.0716 89.6558 59.2822 89.6848C59.5042 89.7155 59.7031 89.5819 59.7511 89.3615C59.8806 88.7657 60.0102 88.1696 60.14 87.5738C60.1848 87.3678 60.0272 87.1337 59.8167 87.1049Z" fill="white"/>
<path d="M56.7282 87.8585C56.5634 87.7319 56.2955 87.7279 56.1609 87.9081C55.789 88.4066 55.4172 88.905 55.0453 89.4035C54.9195 89.5723 54.9157 89.833 55.0949 89.9708C55.2596 90.0974 55.5275 90.1014 55.6621 89.9212C56.034 89.4227 56.4059 88.9242 56.7778 88.4257C56.9038 88.257 56.9076 87.9963 56.7282 87.8585Z" fill="white"/>
<path d="M62.8549 90.2317C62.824 89.9982 62.6451 89.8676 62.4188 89.8657C61.8467 89.8609 61.2747 89.8564 60.7026 89.8516C60.4912 89.8497 60.3099 90.0862 60.3366 90.2877C60.3675 90.5212 60.5464 90.6518 60.7727 90.6537C61.3448 90.6585 61.9168 90.663 62.4889 90.6678C62.7 90.6697 62.8816 90.4332 62.8549 90.2317Z" fill="white"/>
<path d="M63.9799 86.8992C63.8972 86.8357 63.7925 86.7923 63.6858 86.8064C63.5824 86.8202 63.4779 86.8637 63.4126 86.9487C63.1639 87.2721 62.9152 87.5954 62.6665 87.9188C62.6017 88.0028 62.5644 88.1054 62.5737 88.2128C62.5822 88.3112 62.6363 88.425 62.716 88.4861C62.7987 88.5495 62.9034 88.593 63.0101 88.5788C63.1135 88.5652 63.218 88.5215 63.2833 88.4365C63.532 88.1131 63.7807 87.7898 64.0294 87.4664C64.0942 87.3825 64.1315 87.2798 64.1222 87.1724C64.1137 87.0743 64.0596 86.9605 63.9799 86.8992Z" fill="white"/>
<path d="M66.9301 89.6824C66.6888 89.1565 66.4479 88.6308 66.2066 88.1048C66.1189 87.914 65.8992 87.7788 65.6887 87.8679C65.4999 87.9478 65.3576 88.1808 65.4517 88.3858C65.6929 88.9118 65.9339 89.4374 66.1752 89.9634C66.2629 90.1543 66.4825 90.2894 66.6931 90.2004C66.8818 90.1204 67.0239 89.8874 66.9301 89.6824Z" fill="white"/>
<path d="M66.8894 85.0691C66.8555 84.9782 66.7748 84.8838 66.6841 84.8455C66.5868 84.8044 66.472 84.7897 66.3715 84.8321C66.2704 84.8748 66.2027 84.9425 66.1478 85.0374L65.4619 86.2231C65.4121 86.3092 65.415 86.4457 65.4486 86.5358C65.4824 86.6267 65.5632 86.7211 65.6538 86.7595C65.7511 86.8005 65.8663 86.8152 65.9665 86.7728C66.0676 86.7301 66.1353 86.6624 66.1902 86.5675C66.4189 86.1722 66.6473 85.7769 66.8761 85.3818C66.9257 85.2957 66.9227 85.1592 66.8894 85.0691Z" fill="white"/>
<path d="M64.3995 81.7385C64.186 81.7091 63.9679 81.8395 63.9306 82.0618C63.8551 82.5094 63.78 82.957 63.7045 83.4048C63.6696 83.6122 63.8104 83.8439 64.0279 83.8737C64.2414 83.903 64.4595 83.7727 64.4968 83.5504C64.5722 83.1028 64.6474 82.6552 64.7228 82.2074C64.7578 82 64.6173 81.7683 64.3995 81.7385Z" fill="white"/>
<path d="M63.6819 67.5712C63.5014 67.4323 63.2684 67.456 63.1146 67.6208L62.0699 68.7401C61.9257 68.8945 61.9534 69.1797 62.1195 69.3074C62.3 69.4463 62.533 69.4225 62.6868 69.2578L63.7315 68.1385C63.8757 67.9838 63.8482 67.6989 63.6819 67.5712Z" fill="white"/>
<path d="M64.4766 65.8734C64.3526 65.4754 64.2284 65.0772 64.1044 64.6792C64.0418 64.4779 63.7792 64.3606 63.5865 64.4422C63.3767 64.531 63.2823 64.7445 63.3495 64.9602C63.4735 65.3582 63.5977 65.7564 63.7216 66.1544C63.7843 66.3557 64.0469 66.473 64.2396 66.3914C64.4494 66.3026 64.5438 66.0891 64.4766 65.8734Z" fill="white"/>
<path d="M48.2133 66.4665C47.9414 65.9432 47.6695 65.4199 47.3978 64.8966C47.3475 64.7993 47.2957 64.7217 47.1926 64.673C47.1022 64.6303 46.9737 64.6199 46.8799 64.6596C46.7855 64.6996 46.6973 64.7679 46.6562 64.8649C46.617 64.9577 46.5941 65.0837 46.6429 65.1776C46.9148 65.7009 47.1867 66.2241 47.4583 66.7474C47.5087 66.8447 47.5604 66.9223 47.6636 66.9711C47.754 67.014 47.8825 67.0241 47.9763 66.9844C48.0707 66.9444 48.1589 66.8762 48.2 66.7791C48.2389 66.6864 48.2618 66.5603 48.2133 66.4665Z" fill="white"/>
<path d="M47.926 61.4045C47.8921 61.3136 47.8113 61.2192 47.7207 61.1808C47.533 61.1017 47.2638 61.1624 47.1843 61.3728C47.0343 61.7705 46.8842 62.1682 46.7341 62.566C46.6955 62.6686 46.6813 62.7725 46.7208 62.8786C46.7546 62.9695 46.8354 63.0639 46.926 63.1023C47.1137 63.1815 47.3829 63.1207 47.4624 62.9104C47.6125 62.5126 47.7625 62.1149 47.9126 61.7172C47.9513 61.6143 47.9654 61.5106 47.926 61.4045Z" fill="white"/>
<path d="M65.2933 61.8445C65.2595 61.7536 65.1787 61.6592 65.0881 61.6208C64.9908 61.5798 64.8756 61.5651 64.7754 61.6075C64.7447 61.6238 64.7138 61.64 64.6832 61.6563C64.6261 61.6974 64.5821 61.7493 64.5517 61.8128L64.1785 62.4843C64.1298 62.572 64.1311 62.7053 64.1652 62.797C64.1991 62.8879 64.2798 62.9822 64.3705 63.0206C64.4678 63.0617 64.5829 63.0763 64.6832 63.034C64.7138 63.0177 64.7447 63.0014 64.7754 62.9852C64.8324 62.9441 64.8764 62.8921 64.9068 62.8287C65.0313 62.6048 65.1555 62.3808 65.28 62.1572C65.3288 62.0692 65.3275 61.9359 65.2933 61.8445Z" fill="white"/>
<path d="M43.0542 61.6673C42.5475 61.1539 42.041 60.6404 41.5342 60.1273C41.4833 60.0756 41.3887 60.0918 41.3452 60.1438C41.2948 60.2038 41.3106 60.2811 41.3617 60.3328C41.8682 60.8462 42.375 61.3597 42.8817 61.8728C42.9327 61.9245 43.0273 61.908 43.0707 61.8563C43.1211 61.7963 43.1054 61.719 43.0542 61.6673Z" fill="black"/>
<path d="M43.6254 61.4153C43.4761 60.8432 43.3268 60.2711 43.1775 59.6988C43.1591 59.6287 43.0679 59.5964 43.0048 59.6199C42.9312 59.6473 42.9075 59.7223 42.9259 59.7926C43.0751 60.3647 43.2244 60.9368 43.3737 61.5091C43.3921 61.5792 43.4833 61.6115 43.5464 61.588C43.62 61.5605 43.6437 61.4856 43.6254 61.4153Z" fill="black"/>
<path d="M68.9926 63.4421C68.4952 63.7572 67.9975 64.0723 67.5 64.3874C67.354 64.4799 67.5094 64.699 67.6552 64.6065C68.1526 64.2914 68.6503 63.9764 69.1477 63.6613C69.2938 63.5688 69.1387 63.3499 68.9926 63.4421Z" fill="black"/>
<path d="M69.8018 64.4459C69.1713 64.561 68.5412 64.6759 67.9107 64.7911C67.7422 64.8218 67.7641 65.0897 67.9342 65.0585C68.5646 64.9433 69.1948 64.8284 69.8252 64.7133C69.9937 64.6826 69.9719 64.4147 69.8018 64.4459Z" fill="black"/>
<path d="M36.0254 41.4356C34.9764 41.5572 33.9976 42.0279 33.2432 42.7658C33.1195 42.8866 33.3261 43.0582 33.4487 42.9383C34.1503 42.2524 35.0748 41.816 36.0486 41.703C36.2203 41.6833 36.1976 41.4159 36.0254 41.4356Z" fill="black"/>
<path d="M55.6717 64.0372C55.6669 63.8644 55.3996 63.8884 55.4044 64.0606C55.4441 65.5364 55.4838 67.0121 55.5235 68.4879C55.528 68.6606 55.7957 68.6366 55.7909 68.4644C55.7512 66.9884 55.7115 65.5127 55.6717 64.0372Z" fill="black"/>
<path d="M56.6437 66.4924C56.8287 66.4924 56.9788 66.3424 56.9788 66.1573C56.9788 65.9723 56.8287 65.8223 56.6437 65.8223C56.4586 65.8223 56.3086 65.9723 56.3086 66.1573C56.3086 66.3424 56.4586 66.4924 56.6437 66.4924Z" fill="black"/>
<path d="M56.6706 68.3499C56.8413 68.3499 56.9798 68.2115 56.9798 68.0407C56.9798 67.8699 56.8413 67.7314 56.6706 67.7314C56.4998 67.7314 56.3613 67.8699 56.3613 68.0407C56.3613 68.2115 56.4998 68.3499 56.6706 68.3499Z" fill="black"/>
<path d="M31.5211 59.4882L29.3013 64.5835C29.2323 64.7418 29.4748 64.8567 29.5441 64.6983C30.0693 63.4929 30.5944 62.2875 31.1196 61.082L30.3193 64.2764C30.2772 64.4443 30.5417 64.4918 30.5835 64.3249L31.7746 59.5698C31.8116 59.4218 31.5813 59.3496 31.5211 59.4882Z" fill="black"/>
<path d="M76.7763 85.1411C74.8757 85.8486 72.975 86.5561 71.0746 87.2633C70.9128 87.3235 71.0058 87.5755 71.1681 87.5149C72.6074 86.9791 74.0466 86.4436 75.4861 85.9078C74.3049 86.6115 73.1237 87.3155 71.9425 88.0193C71.7941 88.1078 71.9497 88.3264 72.0977 88.2384C73.6987 87.2844 75.2998 86.3306 76.9008 85.3765C77.0333 85.2973 76.9165 85.0889 76.7763 85.1411Z" fill="black"/>
<path d="M61.3734 52.5795C61.089 53.5458 60.5924 54.7539 59.7468 55.7069C58.8018 56.7807 57.4114 57.5324 55.3899 57.2583C53.8545 57.0518 52.805 56.4154 52.0882 55.5995C51.1325 54.5097 50.7782 53.0977 50.6628 51.9674C49.3931 51.7499 48.5931 50.1608 49.0951 48.652C49.3529 47.8763 49.8306 47.718 50.2494 47.7529C50.6735 47.7905 51.036 48.032 51.036 48.032L51.9165 45.0227C53.2856 44.3703 54.8238 44.0723 56.3376 44.1664C57.9213 44.2685 59.4731 44.7974 60.7857 45.6832C60.9144 45.7717 61.0434 45.8632 61.1695 45.9543L61.7333 48.5046C61.7333 48.5046 61.9722 48.3649 62.2809 48.3007C62.7802 48.1933 63.47 48.282 63.6473 49.4739C63.9344 51.4009 61.7869 52.6277 61.3734 52.5795Z" fill="#FFB448"/>
<path d="M51.9161 45.022C51.8543 45.0516 51.7954 45.0812 51.7362 45.1105C51.347 45.3065 50.9658 45.5347 50.5417 45.6288C50.5041 45.6368 50.4665 45.6448 50.4263 45.6474C50.3082 45.6581 50.1874 45.6368 50.1202 45.5453C50.072 45.4755 50.0666 45.3843 50.072 45.3011C50.0962 44.9898 50.2466 44.708 50.4478 44.4609C50.5499 44.3321 50.668 44.2111 50.7888 44.1013C51.5645 43.4007 52.5308 42.9337 53.535 42.6437C54.2116 42.4477 54.9095 42.3297 55.61 42.2518C56.1658 42.2249 56.7267 42.2545 57.2772 42.3403C59.0864 42.6221 60.7938 43.5079 62.0688 44.8234C62.2781 45.041 62.4796 45.2718 62.654 45.5187C62.7827 45.7013 62.8981 45.8919 62.9949 46.0905C63.0807 46.2704 63.1426 46.5039 63.0109 46.6516C62.8795 46.8019 62.6377 46.767 62.4498 46.6998C62.3935 46.6783 62.3343 46.6569 62.2808 46.63C61.8836 46.4583 61.5264 46.2059 61.1694 45.9534C61.0433 45.8623 60.9143 45.7708 60.7855 45.6823C59.4729 44.7965 57.9212 44.2676 56.3375 44.1655C54.8234 44.072 53.2852 44.3697 51.9161 45.022Z" fill="#4B39C6"/>
<path d="M53.5344 42.6438C52.5305 42.9338 51.5642 43.4009 50.7882 44.1014C50.6675 44.2115 50.5494 44.3323 50.4473 44.461C50.4473 44.461 50.7613 41.1403 52.9008 40.2681C55.0403 39.3983 56.4201 39.2506 57.1047 39.2749C57.7892 39.2991 61.1957 40.7701 62.1058 42.1605C63.0132 43.5536 62.6534 45.5188 62.6534 45.5188C62.4788 45.272 62.2775 45.0411 62.0682 44.8236C60.7932 43.5083 59.0858 42.6225 57.2766 42.3405C56.7264 42.2546 56.1653 42.225 55.6095 42.2519C54.9089 42.3298 54.211 42.4479 53.5344 42.6438Z" fill="#775FE0"/>
<path d="M53.9106 52.8428L57.5141 53.5487C57.5141 53.5487 57.3846 55.1572 55.3688 54.9002C53.3529 54.6432 53.9106 52.8428 53.9106 52.8428Z" fill="white"/>
<path d="M58.4804 51.03C58.6494 51.1697 58.8213 51.3547 58.8051 51.5722C58.7944 51.7037 58.7165 51.8191 58.6251 51.9132C58.2492 52.305 57.6265 52.3965 57.1219 52.2032C56.6146 52.0099 56.2308 51.5616 56.0375 51.0569C55.8416 50.5523 55.82 49.9939 55.8898 49.457C55.9274 49.1725 55.9892 48.8878 56.0991 48.6221C56.2414 49.1483 56.6173 49.5937 57.0387 49.9509C57.498 50.3375 58.0213 50.6435 58.4804 51.03Z" fill="#EF9014"/>
<path d="M62.2793 46.6297V48.2995C61.9706 48.364 61.7318 48.5034 61.7318 48.5034L61.168 45.9531C61.5249 46.2056 61.8819 46.458 62.2793 46.6297Z" fill="black"/>
<path d="M51.9171 45.0225L51.0367 48.0318C51.0367 48.0318 50.6744 47.7903 50.25 47.7527L50.266 47.6319L50.427 45.6481C50.4673 45.6454 50.5048 45.6374 50.5424 45.6294C50.9665 45.5356 51.3477 45.3074 51.7369 45.1112C51.7964 45.0816 51.8556 45.0521 51.9171 45.0225Z" fill="black"/>
<path d="M52.0889 55.5986C52.8058 56.4146 53.8553 57.0509 55.3907 57.2575C57.4121 57.5313 58.8026 56.7798 59.7476 55.7061L59.7502 55.7087C55.9036 60.9943 51.3105 57.6576 51.3105 57.6576L51.9306 56.0174L51.9333 56.0148L52.0889 55.5986Z" fill="black"/>
<path d="M59.8424 56.7452L60.041 58.9518L55.7862 63.3543L51.3086 57.6579C51.3086 57.6579 55.9016 60.9946 59.7483 55.709L59.8424 56.7452Z" fill="#FFB448"/>
<path d="M50.7597 49.5597C50.7515 49.387 50.4841 49.4107 50.4924 49.5832C50.5308 50.3797 50.5691 51.1762 50.6073 51.9728C50.6155 52.1455 50.8829 52.1218 50.8746 51.9493C50.8365 51.1528 50.7981 50.3563 50.7597 49.5597Z" fill="black"/>
<path d="M61.441 50.2953C61.3536 51.0907 61.2661 51.8862 61.1787 52.6816C61.1598 52.8525 61.424 52.9021 61.4429 52.7301C61.5303 51.9347 61.6178 51.1392 61.7052 50.3438C61.7241 50.1729 61.4599 50.1236 61.441 50.2953Z" fill="black"/>
<path d="M53.5748 49.198C53.9742 49.198 54.298 48.7571 54.298 48.2132C54.298 47.6694 53.9742 47.2285 53.5748 47.2285C53.1754 47.2285 52.8516 47.6694 52.8516 48.2132C52.8516 48.7571 53.1754 49.198 53.5748 49.198Z" fill="black"/>
<path d="M59.397 49.6521C59.7965 49.6521 60.1203 49.2112 60.1203 48.6673C60.1203 48.1235 59.7965 47.6826 59.397 47.6826C58.9976 47.6826 58.6738 48.1235 58.6738 48.6673C58.6738 49.2112 58.9976 49.6521 59.397 49.6521Z" fill="black"/>
<path d="M54.1996 46.0207C53.5945 45.9136 52.9518 46.0362 52.4501 46.4001C52.364 46.4624 52.2973 46.5392 52.2709 46.645C52.2467 46.7421 52.2616 46.87 52.3189 46.9543C52.4341 47.1238 52.6908 47.2176 52.8731 47.0854C52.9323 47.0425 52.9931 47.0028 53.0568 46.9671C53.0869 46.9503 53.1173 46.934 53.1485 46.9188C53.1493 46.9183 53.1517 46.9172 53.153 46.9167C53.1637 46.9122 53.176 46.9068 53.1794 46.9055C53.2962 46.8586 53.4175 46.8261 53.5409 46.8026C53.6739 46.7861 53.8077 46.7823 53.9415 46.7933C53.9626 46.7965 53.9837 46.7986 54.0045 46.8023C54.2113 46.8388 54.4478 46.7328 54.4928 46.5094C54.5333 46.3076 54.4214 46.0599 54.1996 46.0207Z" fill="black"/>
<path d="M60.7973 46.9494C60.2674 46.5882 59.6247 46.413 58.9844 46.5079C58.7764 46.5388 58.5885 46.7193 58.6184 46.944C58.6458 47.1498 58.8314 47.3431 59.0545 47.31C59.1214 47.3002 59.1886 47.2927 59.256 47.289C59.3045 47.2863 59.376 47.2978 59.4245 47.2874C59.4336 47.2882 59.4426 47.2887 59.4517 47.2895C59.4853 47.2924 59.5189 47.2964 59.5524 47.301C59.6111 47.309 59.6692 47.3196 59.727 47.3324C59.7849 47.3452 59.8409 47.3641 59.8985 47.3783C59.7809 47.3495 59.8923 47.3775 59.9187 47.3873C59.9502 47.3993 59.9816 47.4119 60.0125 47.4255C60.0667 47.4489 60.12 47.4748 60.172 47.5028C60.2018 47.5188 60.2306 47.5364 60.2599 47.5529C60.2613 47.5537 60.2615 47.5537 60.2626 47.5545C60.2682 47.5582 60.2741 47.5619 60.2797 47.5659C60.3706 47.6278 60.4599 47.6686 60.5737 47.6587C60.672 47.6502 60.7859 47.5961 60.8469 47.5164C60.969 47.3577 60.9831 47.076 60.7973 46.9494Z" fill="black"/>
<path d="M42.7475 2.40362C42.707 2.35404 42.6566 2.30686 42.607 2.26021C39.5934 -0.753402 34.7087 -0.753402 31.6951 2.26021C28.6845 5.27061 28.6845 10.1556 31.6981 13.1692C31.701 13.1721 31.7303 13.2014 31.7802 13.2513C31.8825 13.348 32.079 13.5266 32.3658 13.7639C32.3658 13.7639 32.3922 13.7844 32.4362 13.8225C34.3574 15.398 40.7631 17.4421 47.199 16.8377C47.1988 16.8372 47.7268 8.49242 42.7475 2.40362ZM40.6331 11.1979C38.6825 13.1484 35.5461 13.1892 33.546 11.3208C33.502 11.2826 33.458 11.2387 33.4172 11.1979C31.423 9.20363 31.4259 5.9733 33.4172 3.982C35.4085 1.98777 38.6418 1.98484 40.636 3.97907C40.677 4.02012 40.721 4.06411 40.7589 4.10782C42.6273 6.10819 42.5862 9.24469 40.6331 11.1979Z" fill="#9BBC40"/>
<path d="M40.6323 11.1984C38.6818 13.1489 35.5453 13.1897 33.5452 11.3212C33.5012 11.2831 33.4572 11.2391 33.4164 11.1984C31.4222 9.20412 31.4251 5.97379 33.4164 3.98249C35.4078 1.98826 38.641 1.98533 40.6352 3.97956C40.6763 4.02061 40.7203 4.0646 40.7581 4.10832C42.6265 6.10868 42.5855 9.24518 40.6323 11.1984Z" fill="white"/>
<path d="M51.4914 8.73428L51.2045 7.61538L50.3438 7.7158L50.1286 10.9003L52.2086 11.2733L52.0078 16.0358C52.0078 16.2271 51.8835 16.4183 51.6349 16.6096C51.3862 16.8009 51.1567 16.8965 50.9463 16.8965H49.268L49.1389 14.4435H49.9852L49.9709 15.6915L50.975 15.921L51.2045 12.1053L49.268 11.675V7.05593L49.8417 6.71166H52.0939L52.0222 8.73428H51.4914ZM56.3265 7.52931H55.2937V16.6096H54.0887V7.4289L53.0989 7.25676L53.2424 6.71166H56.3265V7.52931ZM58.4408 16.8965C58.0487 16.8965 57.7762 16.8343 57.6231 16.71C57.4701 16.5857 57.3936 16.3801 57.3936 16.0932V7.05593C57.604 6.94118 57.8766 6.85511 58.2113 6.79773C58.5556 6.74035 59.0098 6.71166 59.574 6.71166C59.8322 6.71166 60.0426 6.7786 60.2052 6.91249C60.3678 7.03681 60.4491 7.19938 60.4491 7.40021L60.3487 16.8965H58.4408ZM59.3302 16.0788L59.4593 15.9497L59.5454 7.75883C59.5454 7.71101 59.5023 7.68233 59.4162 7.67276L58.5269 7.62973L58.3978 7.7158L58.3117 15.9928L59.3302 16.0788ZM61.8767 6.86945C61.8767 6.82163 62.0728 6.78338 62.4649 6.75469C62.857 6.726 63.2443 6.71166 63.6268 6.71166H64.2436C64.3966 6.71166 64.521 6.76904 64.6166 6.8838C64.7122 6.99855 64.7648 7.14678 64.7744 7.32849L64.9178 11.4598L64.2723 12.3061L65.4199 16.5809L65.1473 16.8965H64.301L63.5694 12.4352L62.8378 12.507L62.5366 16.8965H61.8767V6.86945ZM63.8563 11.3737C63.9137 11.3737 63.9424 11.345 63.9424 11.2877V7.7158L63.7272 7.50062L62.7374 7.60104L62.7804 11.4311L63.8563 11.3737ZM69.7712 16.6096H66.4002L66.7301 6.71166H69.6421V7.83055H67.5908V10.7856H69.1544V11.5028L67.6625 11.761V15.419L69.5991 15.1608L69.7712 16.6096Z" fill="black"/>
<path d="M93.2304 49.4875C93.1891 49.378 93.1235 49.2852 93.0339 49.2095L92.8905 49.1175C92.7818 49.0666 92.6674 49.0461 92.5475 49.0562H92.3992C92.3075 49.0608 92.2238 49.0874 92.1484 49.1357C92.0684 49.1695 92.0012 49.2215 91.9469 49.2916C91.8874 49.3574 91.848 49.4326 91.8282 49.5174C91.7936 49.6 91.7819 49.6872 91.7933 49.7781C91.8064 49.8362 91.8194 49.8943 91.8325 49.9524C91.8738 50.0623 91.9394 50.1548 92.029 50.2305L92.1724 50.3224C92.2811 50.3734 92.3955 50.3939 92.5155 50.3838H92.6637C92.7554 50.3792 92.8391 50.3526 92.9145 50.3043C92.9945 50.2702 93.0617 50.2182 93.1161 50.1484C93.1755 50.0825 93.215 50.0074 93.2347 49.9226C93.2693 49.8399 93.2811 49.7528 93.2696 49.6619C93.2563 49.6038 93.2432 49.5456 93.2304 49.4875Z" fill="#B4D371"/>
<path d="M98.4733 33.9385C98.1129 33.9385 97.8381 34.3242 97.8674 34.6604C97.901 35.0456 98.2281 35.2663 98.5893 35.2663C98.9497 35.2663 99.2245 34.8805 99.1952 34.5444C99.1616 34.1592 98.8348 33.9385 98.4733 33.9385Z" fill="#B4D371"/>
<path d="M105.046 48.9657C105.012 48.8857 104.959 48.8185 104.89 48.7641C104.824 48.7047 104.749 48.6652 104.664 48.6455C104.581 48.6109 104.494 48.5994 104.403 48.6106C104.345 48.6236 104.287 48.6367 104.229 48.6498C104.119 48.6911 104.026 48.7567 103.951 48.8462C103.92 48.894 103.889 48.9419 103.859 48.9897C103.808 49.0984 103.787 49.2128 103.797 49.3327V49.4809C103.802 49.5726 103.829 49.6564 103.877 49.7318C103.911 49.8118 103.963 49.8789 104.033 49.9333C104.099 49.9928 104.174 50.0322 104.259 50.0519C104.341 50.0866 104.428 50.0981 104.519 50.0869C104.577 50.0738 104.636 50.0607 104.694 50.0477C104.803 50.0064 104.896 49.9408 104.972 49.8512C105.002 49.8035 105.033 49.7555 105.064 49.7078C105.115 49.599 105.135 49.4847 105.125 49.3647V49.2165C105.12 49.1248 105.094 49.0411 105.046 48.9657Z" fill="#B4D371"/>
<path d="M15.674 50.5966C15.6402 50.5166 15.5882 50.4494 15.5181 50.395L15.3747 50.3031C15.2659 50.2522 15.1516 50.2316 15.0316 50.2418C14.9735 50.2548 14.9154 50.2679 14.8573 50.281C14.7474 50.3223 14.6549 50.3878 14.5792 50.4774C14.5299 50.5267 14.4803 50.5763 14.431 50.6256C14.3716 50.6915 14.3321 50.7667 14.3124 50.8514C14.2777 50.9341 14.2663 51.0212 14.2777 51.1121C14.2823 51.2038 14.3089 51.2875 14.3572 51.363C14.391 51.4429 14.4433 51.5101 14.5131 51.5645C14.5608 51.5952 14.6088 51.6258 14.6565 51.6565C14.7653 51.7074 14.8797 51.7279 14.9996 51.7178C15.0577 51.7047 15.1158 51.6917 15.174 51.6786C15.2838 51.6373 15.3763 51.5717 15.452 51.4821L15.6002 51.3339C15.6596 51.2681 15.6991 51.1929 15.7188 51.1081C15.7535 51.0255 15.7652 50.9383 15.7537 50.8474C15.7489 50.7557 15.7226 50.672 15.674 50.5966Z" fill="#B4D371"/>
<path d="M19.9713 41.5556C19.9375 41.4756 19.8852 41.4085 19.8154 41.3541C19.7495 41.2946 19.6743 41.2552 19.5896 41.2355C19.5069 41.2008 19.4198 41.1891 19.3289 41.2005C19.2708 41.2136 19.2126 41.2267 19.1545 41.2397C19.045 41.281 18.9522 41.3466 18.8765 41.4362L18.7845 41.5796C18.7336 41.6884 18.7131 41.8027 18.7232 41.9227V42.0709C18.7277 42.1626 18.7544 42.2463 18.8027 42.3217C18.8365 42.4017 18.8885 42.4689 18.9586 42.5233C19.0244 42.5827 19.0996 42.6222 19.1844 42.6419C19.267 42.6766 19.3542 42.6883 19.4451 42.6768C19.5032 42.6638 19.5613 42.6507 19.6194 42.6376C19.7293 42.5963 19.8218 42.5307 19.8975 42.4412L19.9894 42.2978C20.0404 42.189 20.0609 42.0746 20.0507 41.9547V41.8065C20.0462 41.7148 20.0196 41.6311 19.9713 41.5556Z" fill="#B4D371"/>
<path d="M17.0084 26.29C16.9743 26.21 16.9223 26.1428 16.8525 26.0885C16.7866 26.029 16.7115 25.9896 16.6267 25.9698C16.544 25.9352 16.4569 25.9235 16.366 25.9349C16.3079 25.948 16.2498 25.961 16.1916 25.9741C16.0821 26.0154 15.9893 26.081 15.9136 26.1706L15.8216 26.314C15.7707 26.4227 15.7502 26.5371 15.7603 26.6571V26.8053C15.7649 26.897 15.7915 26.9807 15.8398 27.0561C15.8736 27.1361 15.9256 27.2033 15.9957 27.2577C16.0616 27.3171 16.1367 27.3566 16.2215 27.3763C16.3041 27.4109 16.3913 27.4224 16.4822 27.4109C16.5403 27.3979 16.5984 27.3848 16.6565 27.3717C16.7664 27.3304 16.8589 27.2648 16.9346 27.1753L17.0265 27.0319C17.0775 26.9231 17.098 26.8087 17.0879 26.6888V26.5406C17.0833 26.4489 17.0569 26.3654 17.0084 26.29Z" fill="#B4D371"/>
<path d="M10.0819 38.5195C10.0406 38.4097 9.97502 38.3172 9.88545 38.2414C9.83614 38.1921 9.78655 38.1426 9.73724 38.0932C9.67139 38.0338 9.59622 37.9943 9.51145 37.9746C9.42881 37.94 9.34164 37.9285 9.25074 37.9397C9.15904 37.9442 9.07534 37.9709 8.9999 38.0191C8.91993 38.053 8.85275 38.105 8.79837 38.1751C8.76771 38.2228 8.73706 38.2708 8.7064 38.3185C8.65549 38.4273 8.63496 38.5416 8.64509 38.6616C8.65815 38.7197 8.67121 38.7778 8.68428 38.8359C8.72559 38.9457 8.79117 39.0382 8.88074 39.1139C8.93006 39.1633 8.97964 39.2128 9.02895 39.2622C9.0948 39.3216 9.16997 39.3611 9.25474 39.3808C9.33738 39.4154 9.42455 39.4269 9.51545 39.4157C9.60715 39.4112 9.69085 39.3845 9.76629 39.3363C9.84627 39.3024 9.91344 39.2504 9.96783 39.1803C9.99848 39.1326 10.0291 39.0846 10.0598 39.0369C10.1107 38.9281 10.1312 38.8138 10.1211 38.6938C10.108 38.6357 10.095 38.5776 10.0819 38.5195Z" fill="#B4D371"/>
<path d="M99.3525 45.4302C99.3277 45.3643 99.2885 45.3086 99.2347 45.2633C99.1854 45.214 99.1358 45.1644 99.0865 45.1151C99.047 45.0794 99.002 45.0556 98.951 45.0439C98.9015 45.0231 98.8492 45.0162 98.7946 45.0231C98.7396 45.0258 98.6893 45.0418 98.6442 45.0708C98.5962 45.0911 98.556 45.1223 98.5232 45.1644C98.5048 45.1932 98.4864 45.2217 98.468 45.2505C98.4374 45.3158 98.4251 45.3843 98.4312 45.4563C98.439 45.4912 98.447 45.5261 98.4547 45.5611C98.4795 45.6269 98.5187 45.6826 98.5725 45.7279C98.6218 45.7772 98.6714 45.8268 98.7207 45.8761C98.7602 45.9119 98.8052 45.9356 98.8561 45.9473C98.9057 45.9681 98.958 45.975 99.0126 45.9681C99.0675 45.9654 99.1179 45.9494 99.163 45.9204C99.211 45.9001 99.2512 45.8689 99.284 45.8268C99.3024 45.798 99.3208 45.7695 99.3392 45.7407C99.3698 45.6754 99.3821 45.6069 99.376 45.5349L99.3525 45.4302Z" fill="#958BF7"/>
<path d="M106.203 41.0215C105.689 41.0215 105.762 41.8183 106.273 41.8183C106.788 41.8183 106.715 41.0215 106.203 41.0215Z" fill="#958BF7"/>
<path d="M98.2013 27.9785C97.6868 27.9785 97.7596 28.7753 98.2709 28.7753C98.7854 28.775 98.7126 27.9785 98.2013 27.9785Z" fill="#958BF7"/>
<path d="M15.6133 36.2408C15.5885 36.175 15.5494 36.1193 15.4955 36.074C15.4667 36.0556 15.4382 36.0372 15.4094 36.0188C15.3441 35.9881 15.2756 35.9759 15.2036 35.982H15.0554C15.0005 35.9847 14.9501 36.0007 14.905 36.0297C14.8571 36.05 14.8168 36.0812 14.784 36.1233C14.7483 36.1627 14.7246 36.2078 14.7128 36.2587C14.6921 36.3083 14.6851 36.3605 14.6921 36.4152C14.6998 36.4501 14.7078 36.485 14.7155 36.5199C14.7403 36.5858 14.7795 36.6415 14.8333 36.6868C14.8621 36.7052 14.8907 36.7236 14.9194 36.742C14.9848 36.7727 15.0533 36.7849 15.1252 36.7788H15.2734C15.3284 36.7761 15.3787 36.7601 15.4238 36.7311C15.4718 36.7108 15.512 36.6796 15.5448 36.6375C15.5805 36.5981 15.6043 36.553 15.616 36.5021C15.6368 36.4525 15.6437 36.4003 15.6368 36.3456C15.6291 36.3107 15.6213 36.2758 15.6133 36.2408Z" fill="#958BF7"/>
<path d="M13.0938 27.7926C13.069 27.7268 13.0298 27.671 12.976 27.6257C12.9472 27.6073 12.9187 27.5889 12.8899 27.5705C12.8246 27.5399 12.756 27.5276 12.6841 27.5338H12.5359C12.4809 27.5364 12.4306 27.5524 12.3855 27.5815C12.3375 27.6017 12.2973 27.6329 12.2645 27.675C12.2288 27.7145 12.205 27.7595 12.1933 27.8105C12.1725 27.86 12.1656 27.9123 12.1725 27.9669C12.1803 28.0019 12.1882 28.0368 12.196 28.0717C12.2208 28.1375 12.26 28.1933 12.3138 28.2386C12.3426 28.257 12.3711 28.2754 12.3999 28.2938C12.4652 28.3244 12.5337 28.3367 12.6057 28.3305H12.7539C12.8088 28.3279 12.8592 28.3119 12.9043 28.2828C12.9522 28.2626 12.9925 28.2314 13.0253 28.1893C13.061 28.1498 13.0847 28.1048 13.0965 28.0538C13.1173 28.0043 13.1242 27.952 13.1173 27.8974C13.1095 27.8622 13.1018 27.8275 13.0938 27.7926Z" fill="#958BF7"/>
<path d="M6.27544 56.9908C6.25065 56.925 6.21146 56.8693 6.15761 56.824C6.12882 56.8056 6.1003 56.7872 6.07151 56.7688C6.0062 56.7381 5.93769 56.7259 5.86571 56.732H5.7175C5.66259 56.7347 5.6122 56.7507 5.56715 56.7797C5.51917 56.8 5.47892 56.8312 5.44613 56.8733C5.41041 56.9127 5.38668 56.9578 5.37495 57.0087C5.35416 57.0583 5.34723 57.1105 5.35416 57.1652C5.36189 57.2001 5.36989 57.235 5.37762 57.2699C5.40241 57.3358 5.4416 57.3915 5.49544 57.4368C5.52423 57.4552 5.55276 57.4736 5.58155 57.492C5.64686 57.5227 5.71537 57.5349 5.78734 57.5288H5.93556C5.99047 57.5261 6.04085 57.5101 6.0859 57.4811C6.13389 57.4608 6.17414 57.4296 6.20693 57.3875C6.24265 57.3481 6.26637 57.303 6.2781 57.2521C6.2989 57.2025 6.30583 57.1503 6.2989 57.0956C6.29117 57.0604 6.28317 57.0258 6.27544 56.9908Z" fill="#958BF7"/>
<path d="M8.64947 62.8201C8.64254 62.7674 8.62228 62.7194 8.58923 62.6762C8.56017 62.6319 8.52259 62.5978 8.47674 62.5733C8.43515 62.5416 8.38797 62.5216 8.33492 62.5139C8.2992 62.5123 8.26348 62.5107 8.22776 62.5088C8.15578 62.5152 8.09047 62.5392 8.03156 62.5808C8.0065 62.604 7.98144 62.6269 7.95638 62.6501C7.95399 62.653 7.95265 62.6565 7.95025 62.6594C7.91187 62.6599 7.87375 62.6653 7.83643 62.6805C7.78578 62.6973 7.74259 62.725 7.70714 62.7636C7.66609 62.7956 7.63516 62.8359 7.61437 62.8844C7.60371 62.9172 7.59305 62.9502 7.58265 62.983C7.56985 63.0553 7.57599 63.1259 7.60131 63.1947C7.61757 63.2253 7.63356 63.2557 7.64983 63.2864C7.69034 63.3432 7.74233 63.3866 7.80524 63.4167C7.84602 63.4306 7.89987 63.4533 7.94759 63.4586C7.99744 63.4642 8.04889 63.4687 8.09927 63.4637C8.14965 63.4586 8.1995 63.4461 8.24775 63.4314C8.26268 63.4269 8.27707 63.4207 8.29093 63.4135C8.32985 63.3938 8.3813 63.3709 8.41862 63.3418C8.45701 63.312 8.49433 63.2787 8.52632 63.2419C8.55831 63.2051 8.58363 63.1619 8.60709 63.1192C8.63081 63.0766 8.64281 63.0238 8.65587 62.9793C8.66813 62.9252 8.666 62.8721 8.64947 62.8201Z" fill="#958BF7"/>
<path d="M9.71891 54.5088C9.20443 54.5088 9.2772 55.3056 9.78848 55.3056C10.3032 55.3056 10.2305 54.5088 9.71891 54.5088Z" fill="#958BF7"/>
<path d="M113.219 60.624C113.185 60.544 113.133 60.4768 113.063 60.4224C112.998 60.363 112.922 60.3235 112.838 60.3038C112.755 60.2692 112.668 60.2574 112.577 60.2689C112.519 60.282 112.461 60.295 112.403 60.3081C112.293 60.3494 112.2 60.415 112.125 60.5046L112.033 60.648C111.982 60.7567 111.961 60.8711 111.971 60.991V61.1393C111.976 61.231 112.002 61.3147 112.051 61.3901C112.085 61.4701 112.137 61.5373 112.207 61.5916C112.272 61.6511 112.348 61.6905 112.432 61.7103C112.515 61.7449 112.602 61.7564 112.693 61.7449C112.751 61.7319 112.809 61.7188 112.867 61.7057C112.977 61.6644 113.07 61.5988 113.146 61.5093L113.237 61.3659C113.288 61.2571 113.309 61.1427 113.299 61.0228V60.8746C113.294 60.7829 113.268 60.6994 113.219 60.624Z" fill="#B4D371"/>
<path d="M106.295 72.8544C106.253 72.7446 106.188 72.6521 106.098 72.5764C106.049 72.5271 105.999 72.4775 105.95 72.4282C105.884 72.3687 105.809 72.3293 105.724 72.3096C105.642 72.2749 105.555 72.2635 105.464 72.2746C105.372 72.2792 105.288 72.3058 105.213 72.3541C105.133 72.3879 105.066 72.4399 105.011 72.51C104.981 72.5577 104.95 72.6057 104.919 72.6534C104.868 72.7622 104.848 72.8766 104.858 72.9965C104.871 73.0546 104.884 73.1128 104.897 73.1709C104.938 73.2807 105.004 73.3732 105.094 73.4489C105.143 73.4982 105.193 73.5478 105.242 73.5971C105.308 73.6566 105.383 73.696 105.468 73.7157C105.55 73.7504 105.637 73.7619 105.728 73.7507C105.82 73.7461 105.904 73.7195 105.979 73.6712C106.059 73.6374 106.126 73.5854 106.181 73.5153C106.211 73.4676 106.242 73.4196 106.273 73.3719C106.324 73.2631 106.344 73.1487 106.334 73.0288C106.321 72.9707 106.308 72.9126 106.295 72.8544Z" fill="#B4D371"/>
<path d="M111.824 70.5758C111.799 70.51 111.76 70.4542 111.706 70.4089C111.678 70.3905 111.649 70.3721 111.62 70.3537C111.555 70.3231 111.487 70.3108 111.415 70.317H111.266C111.211 70.3196 111.161 70.3356 111.116 70.3647C111.068 70.3849 111.028 70.4161 110.995 70.4582C110.959 70.4977 110.936 70.5427 110.924 70.5937C110.903 70.6432 110.896 70.6955 110.903 70.7501C110.911 70.7851 110.919 70.82 110.926 70.8549C110.951 70.9207 110.99 70.9765 111.044 71.0218C111.073 71.0402 111.102 71.0586 111.13 71.077C111.196 71.1076 111.264 71.1199 111.336 71.1137H111.484C111.539 71.1111 111.59 71.0951 111.635 71.066C111.683 71.0458 111.723 71.0146 111.756 70.9725C111.791 70.933 111.815 70.888 111.827 70.837C111.848 70.7875 111.855 70.7352 111.848 70.6806C111.84 70.6456 111.832 70.6107 111.824 70.5758Z" fill="#958BF7"/>
<path d="M109.305 62.1276C109.28 62.0617 109.241 62.006 109.187 61.9607C109.158 61.9423 109.13 61.9239 109.101 61.9055C109.035 61.8749 108.967 61.8626 108.895 61.8687H108.747C108.692 61.8714 108.642 61.8874 108.596 61.9164C108.548 61.9367 108.508 61.9679 108.475 62.01C108.44 62.0495 108.416 62.0945 108.404 62.1454C108.383 62.195 108.377 62.2473 108.383 62.3019C108.391 62.3368 108.399 62.3717 108.407 62.4067C108.432 62.4725 108.471 62.5282 108.525 62.5735C108.554 62.5919 108.582 62.6103 108.611 62.6287C108.676 62.6594 108.745 62.6716 108.817 62.6655H108.965C109.02 62.6628 109.07 62.6468 109.115 62.6178C109.163 62.5975 109.203 62.5663 109.236 62.5242C109.272 62.4848 109.296 62.4397 109.307 62.3888C109.328 62.3392 109.335 62.287 109.328 62.2323C109.32 62.1971 109.312 62.1625 109.305 62.1276Z" fill="#958BF7"/>
</svg>
