<svg width="16" height="17" viewBox="0 0 16 17" fill="none" xmlns="http://www.w3.org/2000/svg">
<path d="M8.82241 0.0429765C9.40617 0.0407364 9.98993 0.0466035 10.5735 0.0605759L10.7287 0.0661757C10.9079 0.0725755 11.0847 0.0805752 11.2983 0.0901749C12.1494 0.130174 12.7302 0.264569 13.2398 0.462162C13.7678 0.665355 14.2125 0.940546 14.6573 1.38533C15.064 1.785 15.3787 2.26846 15.5797 2.80208C15.7773 3.31167 15.9116 3.89325 15.9516 4.74442C15.9612 4.95721 15.9692 5.1348 15.9756 5.314L15.9804 5.46919C15.9947 6.05253 16.0008 6.63603 15.9988 7.21953L15.9996 7.81631V8.86428C16.0016 9.44805 15.9955 10.0318 15.9812 10.6154L15.9764 10.7706C15.97 10.9498 15.962 11.1266 15.9524 11.3402C15.9124 12.1914 15.7765 12.7721 15.5797 13.2817C15.3794 13.8159 15.0646 14.2998 14.6573 14.6993C14.2573 15.1059 13.7736 15.4207 13.2398 15.6216C12.7302 15.8192 12.1494 15.9536 11.2983 15.9936C11.0847 16.0032 10.9079 16.0112 10.7287 16.0176L10.5735 16.0224C9.98993 16.0367 9.40617 16.0428 8.82241 16.0408L8.22564 16.0416H7.17849C6.59473 16.0436 6.01097 16.0375 5.42738 16.0232L5.27219 16.0184C5.08229 16.0115 4.89243 16.0035 4.70262 15.9944C3.85146 15.9544 3.27069 15.8184 2.76032 15.6216C2.22649 15.4211 1.74296 15.1063 1.34359 14.6993C0.93645 14.2995 0.621409 13.8158 0.42044 13.2817C0.22285 12.7721 0.088457 12.1914 0.0484591 11.3402C0.0395499 11.1504 0.0315502 10.9605 0.0244603 10.7706L0.0204606 10.6154C0.00571225 10.0318 -0.000954789 9.44805 0.000461577 8.86428V7.21953C-0.00177108 6.63603 0.00409591 6.05253 0.0180607 5.46919L0.0236604 5.314C0.0300601 5.1348 0.0380597 4.95721 0.0476592 4.74442C0.0876571 3.89245 0.22205 3.31247 0.41964 2.80208C0.620728 2.2682 0.936385 1.78487 1.34439 1.38613C1.74349 0.978746 2.22672 0.663414 2.76032 0.462162C3.27069 0.264569 3.85066 0.130174 4.70262 0.0901749L5.27219 0.0661757L5.42738 0.062176C6.0107 0.0474347 6.59419 0.0407675 7.17769 0.0421766L8.82241 0.0429765ZM8.00005 4.04284C7.47008 4.03534 6.94391 4.13326 6.45211 4.33088C5.96031 4.52851 5.5127 4.82192 5.13527 5.19405C4.75785 5.56617 4.45815 6.0096 4.25359 6.49857C4.04903 6.98753 3.94369 7.51227 3.94369 8.0423C3.94369 8.57233 4.04903 9.09708 4.25359 9.58604C4.45815 10.075 4.75785 10.5184 5.13527 10.8906C5.5127 11.2627 5.96031 11.5561 6.45211 11.7537C6.94391 11.9514 7.47008 12.0493 8.00005 12.0418C9.06086 12.0418 10.0782 11.6204 10.8283 10.8702C11.5784 10.1201 11.9998 9.10273 11.9998 8.0419C11.9998 6.98107 11.5784 5.96369 10.8283 5.21357C10.0782 4.46345 9.06086 4.04284 8.00005 4.04284ZM8.00005 5.64279C8.31884 5.63691 8.6356 5.69462 8.93184 5.81255C9.22808 5.93047 9.49784 6.10624 9.72538 6.3296C9.95293 6.55295 10.1337 6.81941 10.2571 7.11341C10.3805 7.40741 10.4441 7.72305 10.4441 8.0419C10.4442 8.36075 10.3807 8.67641 10.2574 8.97045C10.1341 9.26449 9.95342 9.531 9.72596 9.75444C9.49849 9.97787 9.22878 10.1537 8.93258 10.2718C8.63639 10.3898 8.31964 10.4476 8.00085 10.4418C7.36436 10.4418 6.75395 10.189 6.30388 9.7389C5.85382 9.28883 5.60097 8.6784 5.60097 8.0419C5.60097 7.40541 5.85382 6.79498 6.30388 6.34491C6.75395 5.89483 7.36436 5.64199 8.00085 5.64199L8.00005 5.64279ZM12.1998 2.84288C11.9418 2.85321 11.6977 2.963 11.5188 3.14925C11.3398 3.3355 11.2399 3.58376 11.2399 3.84205C11.2399 4.10033 11.3398 4.3486 11.5188 4.53485C11.6977 4.7211 11.9418 4.83088 12.1998 4.84121C12.465 4.84121 12.7194 4.73586 12.9069 4.54833C13.0944 4.3608 13.1998 4.10645 13.1998 3.84125C13.1998 3.57604 13.0944 3.32169 12.9069 3.13416C12.7194 2.94663 12.465 2.84128 12.1998 2.84128V2.84288Z" fill="#FEFEFE"/>
</svg>
