<svg width="132" height="132" viewBox="0 0 132 132" fill="none" xmlns="http://www.w3.org/2000/svg">
<path d="M118.774 105.203H110.029V105.269H118.774V105.203Z" fill="#EBEBEB"/>
<path d="M87.4414 105.919H85.1465V105.985H87.4414V105.919Z" fill="#EBEBEB"/>
<path d="M109.766 102.751H104.699V102.817H109.766V102.751Z" fill="#EBEBEB"/>
<path d="M25.2526 103.195H13.8496V103.261H25.2526V103.195Z" fill="#EBEBEB"/>
<path d="M29.2754 103.195H27.6035V103.261H29.2754V103.195Z" fill="#EBEBEB"/>
<path d="M59.4395 104.31H34.709V104.376H59.4395V104.31Z" fill="#EBEBEB"/>
<path d="M62.9382 89.1797H11.96C11.1292 89.1797 10.4531 88.5036 10.4531 87.6728V16.0147C10.4531 15.1839 11.1292 14.5078 11.96 14.5078H62.9382C63.7687 14.5078 64.4448 15.1839 64.4448 16.0147V87.6728C64.4448 88.5036 63.7687 89.1797 62.9382 89.1797ZM11.96 14.5741C11.1654 14.5741 10.5191 15.2203 10.5191 16.015V87.673C10.5191 88.4677 11.1654 89.1139 11.96 89.1139H62.9382C63.7326 89.1139 64.3788 88.4677 64.3788 87.673V16.0147C64.3788 15.2203 63.7326 14.5738 62.9382 14.5738L11.96 14.5741Z" fill="#EBEBEB"/>
<path d="M120.041 89.1797H69.0633C68.2327 89.1797 67.5566 88.5036 67.5566 87.6728V16.0147C67.5566 15.1839 68.2327 14.5078 69.0633 14.5078H120.041C120.872 14.5078 121.548 15.1839 121.548 16.0147V87.6728C121.548 88.5036 120.872 89.1797 120.041 89.1797ZM69.0633 14.5741C68.2689 14.5741 67.6226 15.2203 67.6226 16.015V87.673C67.6226 88.4677 68.2689 89.1139 69.0633 89.1139H120.041C120.836 89.1139 121.482 88.4677 121.482 87.673V16.0147C121.482 15.2203 120.836 14.5738 120.041 14.5738L69.0633 14.5741Z" fill="#EBEBEB"/>
<path d="M132 100.953H0V101.019H132V100.953Z" fill="#EBEBEB"/>
<path d="M31.5035 83.0938C31.2804 80.5441 28.6776 79.5897 25.5933 79.8595C22.5093 80.1294 20.1116 81.5214 20.3347 84.0711L31.5035 83.0938Z" fill="#F0F0F0"/>
<path d="M25.4922 78.6947C26.9236 78.5696 27.3806 77.3605 27.2552 75.9291C27.13 74.4977 26.47 73.3862 25.0386 73.5116C23.6072 73.6367 23.1502 74.8459 23.2756 76.2773C23.4008 77.7087 24.0608 78.8201 25.4922 78.6947Z" fill="#F0F0F0"/>
<path d="M89.7858 28.7689C89.8549 29.5583 89.271 30.2542 88.4816 30.3231C87.6922 30.3923 86.9963 29.8083 86.9274 29.0189C86.8583 28.2296 87.4422 27.5337 88.2316 27.4645C89.021 27.3956 89.7169 27.9796 89.7858 28.7689Z" fill="#F5F5F5"/>
<path d="M97.7255 28.0746C97.7947 28.864 97.2107 29.5599 96.4213 29.6288C95.632 29.6979 94.9361 29.114 94.8669 28.3246C94.7977 27.5352 95.3817 26.8393 96.1711 26.7702C96.9607 26.7013 97.6563 27.2852 97.7255 28.0746Z" fill="#F5F5F5"/>
<path d="M105.665 27.38C105.734 28.1694 105.15 28.8653 104.361 28.9345C103.571 29.0036 102.876 28.4197 102.806 27.6303C102.737 26.8409 103.321 26.145 104.111 26.0759C104.9 26.0067 105.596 26.5907 105.665 27.38Z" fill="#F5F5F5"/>
<path d="M90.4931 36.8613C90.5622 37.6506 89.9783 38.3465 89.1889 38.4157C88.3995 38.4849 87.7036 37.9009 87.6345 37.1115C87.5653 36.3222 88.1493 35.6263 88.9386 35.5574C89.7283 35.4879 90.4242 36.0716 90.4931 36.8613Z" fill="#F5F5F5"/>
<path d="M98.4325 36.1671C98.5017 36.9565 97.9177 37.6524 97.1284 37.7215C96.339 37.7907 95.6431 37.2067 95.5739 36.4174C95.5048 35.628 96.0887 34.9321 96.8781 34.8629C97.6674 34.794 98.3633 35.378 98.4325 36.1671Z" fill="#F5F5F5"/>
<path d="M106.372 35.472C106.441 36.2614 105.857 36.9573 105.068 37.0262C104.278 37.0954 103.583 36.5114 103.513 35.722C103.444 34.9327 104.028 34.2368 104.818 34.1676C105.607 34.099 106.303 34.6829 106.372 35.472Z" fill="#F5F5F5"/>
<path d="M91.2018 44.9533C91.2709 45.7426 90.687 46.4385 89.8976 46.5077C89.1083 46.5769 88.4124 45.9929 88.3435 45.2035C88.2743 44.4142 88.8583 43.7183 89.6476 43.6491C90.4367 43.5799 91.1326 44.1639 91.2018 44.9533Z" fill="#F5F5F5"/>
<path d="M99.1415 44.2587C99.2107 45.0481 98.6267 45.744 97.8373 45.8132C97.048 45.8823 96.3521 45.2984 96.2829 44.509C96.2137 43.7196 96.7977 43.0237 97.5871 42.9548C98.3764 42.8854 99.0723 43.4694 99.1415 44.2587Z" fill="#F5F5F5"/>
<path d="M107.081 43.5646C107.15 44.354 106.566 45.0499 105.777 45.1188C104.987 45.1877 104.292 44.604 104.222 43.8146C104.153 43.0253 104.737 42.3293 105.527 42.2604C106.316 42.1913 107.012 42.7752 107.081 43.5646Z" fill="#F5F5F5"/>
<path d="M105.365 44.0302L89.0534 45.4573L103.516 27.8837L88.6975 29.1802C88.5243 29.1952 88.3717 29.0672 88.3567 28.894C88.3416 28.7208 88.4697 28.5682 88.6428 28.5532L104.954 27.126L90.4919 44.6997L105.31 43.4032C105.483 43.3881 105.636 43.5162 105.651 43.6891C105.666 43.8623 105.538 44.0151 105.365 44.0302Z" fill="#E6E6E6"/>
<path d="M105.617 75.3997C105.563 75.2442 105.424 75.1289 105.26 75.118C104.512 75.0679 103.88 74.788 103.379 74.2856C102.727 73.6306 102.343 72.6338 102.281 71.4503C102.27 71.2298 102.085 71.058 101.864 71.0566C101.62 71.0551 101.425 71.2615 101.438 71.5055C101.513 72.8936 101.983 74.0808 102.781 74.882C103.404 75.508 104.208 75.8747 105.124 75.9546C105.14 75.956 105.16 75.9578 105.184 75.9597C105.488 75.9837 105.717 75.6875 105.617 75.3997Z" fill="#F0F0F0"/>
<path d="M104.772 80.4672C101.273 80.1609 98.7499 77.7762 97.9513 74.0549C97.9003 73.8175 98.0516 73.5839 98.2908 73.5425C98.5117 73.5042 98.7277 73.6441 98.7744 73.8635C99.4899 77.2102 101.736 79.3534 104.845 79.6255C108.255 79.9239 111.918 77.6804 112.574 72.0245C112.601 71.7953 112.8 71.6261 113.03 71.6461C113.265 71.6667 113.442 71.8766 113.414 72.1111C112.785 77.4436 109.279 80.8616 104.772 80.4672Z" fill="#F0F0F0"/>
<path d="M98.1719 70.3463C97.9367 70.3257 97.7603 70.1158 97.788 69.8814C98.4169 64.5486 101.923 61.1308 106.43 61.525C110.38 61.8706 113.042 64.8271 113.457 69.2808C113.479 69.516 113.296 69.7209 113.061 69.7348H113.06C112.83 69.7486 112.636 69.5749 112.614 69.3457C112.233 65.3332 109.864 62.6734 106.356 62.3666C102.946 62.0683 99.2839 64.3115 98.6278 69.9677C98.6014 70.1971 98.4016 70.3663 98.1719 70.3463Z" fill="#F0F0F0"/>
<path d="M104.944 78.2051C104.294 78.148 103.684 77.9962 103.124 77.7515C102.896 77.652 102.802 77.3777 102.921 77.1594C103.025 76.969 103.256 76.8866 103.454 76.974C103.981 77.2053 104.563 77.3413 105.19 77.3756C107.776 77.5237 110.506 75.6918 110.773 71.2656C110.938 68.5395 110.004 66.3375 108.261 65.2844C108.074 65.1714 108.005 64.9351 108.101 64.7392C108.21 64.5167 108.488 64.4346 108.7 64.5626C110.718 65.7807 111.801 68.266 111.617 71.3165C111.359 75.5846 108.696 78.4231 105.141 78.2196C105.075 78.2154 105.009 78.2106 104.944 78.2051Z" fill="#F0F0F0"/>
<path d="M101.183 75.5717C100.979 75.7114 100.7 75.6462 100.576 75.4318C99.8273 74.1372 99.4773 72.4679 99.5858 70.6751C99.8326 66.5923 102.28 63.8174 105.604 63.7628C105.851 63.7588 106.05 63.965 106.036 64.2113V64.2123C106.024 64.4317 105.845 64.6044 105.625 64.6086C103.16 64.6572 100.684 66.5205 100.43 70.726C100.331 72.3586 100.643 73.8652 101.313 75.0173C101.422 75.2066 101.364 75.4482 101.183 75.5717Z" fill="#F0F0F0"/>
<path d="M106.955 75.227C106.869 75.0314 106.945 74.8054 107.128 74.695C108.238 74.0266 108.92 72.6237 108.931 70.9328C108.941 69.5782 108.548 68.4324 107.825 67.7064C107.267 67.1462 106.546 66.8643 105.682 66.8658C104.38 66.8693 103.327 67.5823 102.743 68.8371C102.651 69.0346 102.422 69.1281 102.217 69.0528C101.985 68.9673 101.874 68.6993 101.979 68.4749C102.702 66.9334 104.057 66.025 105.68 66.0205C106.762 66.0189 107.711 66.3946 108.423 67.11C109.307 67.9971 109.787 69.3564 109.776 70.9383C109.763 72.9339 108.922 74.6066 107.553 75.4252C107.338 75.5541 107.057 75.4569 106.955 75.227Z" fill="#F0F0F0"/>
<path d="M103.914 72.1227C103.674 72.2191 103.405 72.0797 103.344 71.8284C103.316 71.7141 103.293 71.5963 103.275 71.4751C103.036 69.8954 103.885 68.5197 105.25 68.2757C105.955 68.1493 106.583 68.3151 107.063 68.7438C107.258 68.918 107.243 69.2288 107.03 69.3811L107.004 69.3998C106.844 69.5144 106.633 69.4885 106.484 69.3602C106.198 69.1144 105.834 69.0294 105.399 69.1073C104.358 69.2934 103.963 70.3758 104.11 71.3487C104.124 71.4434 104.142 71.5353 104.164 71.6235C104.214 71.8307 104.112 72.043 103.914 72.1227Z" fill="#F0F0F0"/>
<path d="M105.31 73.748C105.309 73.748 105.307 73.7477 105.306 73.7477C105.015 73.7219 104.854 73.3956 105.01 73.1477L105.045 73.0904C105.123 72.9663 105.262 72.8979 105.409 72.9082C105.534 72.9167 105.666 72.9087 105.805 72.8839C106.713 72.7213 107.13 71.8754 107.123 71.0159C107.121 70.8012 107.27 70.6159 107.482 70.584C107.73 70.5465 107.964 70.7307 107.969 70.9815C107.994 72.3591 107.183 73.4961 105.954 73.7158C105.732 73.7554 105.516 73.7662 105.31 73.748Z" fill="#F0F0F0"/>
<path d="M105.497 72.1892C105.047 72.1498 104.712 71.8468 104.59 71.4141C104.519 71.1633 104.73 70.9204 104.989 70.9431L105.086 70.9515C105.236 70.9647 105.361 71.0677 105.411 71.2103C105.435 71.2799 105.482 71.3396 105.57 71.3473C105.773 71.365 105.809 71.0738 105.814 71.0152C105.818 70.9734 105.827 70.8116 105.757 70.7163C105.689 70.6229 105.643 70.5159 105.653 70.4008C105.686 70.0252 106.161 69.8741 106.4 70.1656C106.591 70.3974 106.688 70.7218 106.656 71.0888C106.596 71.7797 106.108 72.2427 105.497 72.1892Z" fill="#F0F0F0"/>
<path d="M97.5576 62.7405C97.325 62.7201 97.1532 62.5153 97.1735 62.2827L97.4937 58.6221L101.154 58.9423C101.387 58.9626 101.559 59.1675 101.538 59.4001C101.518 59.6327 101.313 59.8045 101.081 59.7842L98.262 59.5376L98.0154 62.3564C97.9951 62.5889 97.7899 62.7608 97.5576 62.7405Z" fill="#F0F0F0"/>
<path d="M114.963 64.2631C114.731 64.2428 114.559 64.0379 114.579 63.8053L114.826 60.9866L112.007 60.74C111.774 60.7197 111.602 60.5148 111.623 60.2822C111.643 60.0497 111.848 59.8778 112.081 59.8981L115.741 60.2184L115.421 63.879C115.401 64.1116 115.196 64.2834 114.963 64.2631Z" fill="#F0F0F0"/>
<path d="M113.666 83.9443L110.005 83.624C109.772 83.6037 109.6 83.3988 109.621 83.1662C109.641 82.9337 109.846 82.7618 110.079 82.7821L112.897 83.0287L113.144 80.21C113.164 79.9774 113.369 79.8055 113.602 79.8259C113.834 79.8462 114.006 80.051 113.986 80.2836L113.666 83.9443Z" fill="#F0F0F0"/>
<path d="M99.0786 82.6684L95.418 82.3481L95.7382 78.6875C95.7585 78.4549 95.9634 78.2831 96.196 78.3034C96.4286 78.3237 96.6004 78.5286 96.5801 78.7612L96.3335 81.5799L99.1523 81.8265C99.3848 81.8468 99.5567 82.0517 99.5364 82.2842C99.516 82.5168 99.3112 82.6887 99.0786 82.6684Z" fill="#F0F0F0"/>
<path d="M19.7284 74.7454C19.5855 74.7578 19.4594 74.6522 19.4469 74.5091L19.25 72.2585L21.5006 72.0615C21.6437 72.0491 21.7696 72.1547 21.782 72.2978C21.7944 72.4406 21.6888 72.5668 21.5457 72.5792L19.8126 72.7308L19.9641 74.4639C19.9771 74.607 19.8712 74.733 19.7284 74.7454Z" fill="#E0E0E0"/>
<path d="M30.431 73.8099C30.2881 73.8223 30.1619 73.7167 30.1495 73.5736L29.998 71.8405L28.2648 71.992C28.122 72.0044 27.9958 71.8988 27.9834 71.7557C27.971 71.6129 28.0766 71.4867 28.2197 71.4743L30.4703 71.2773L30.6672 73.5279C30.6796 73.6713 30.574 73.7975 30.431 73.8099Z" fill="#E0E0E0"/>
<path d="M31.5389 83.5006L29.2883 83.6975C29.1455 83.7099 29.0193 83.6043 29.0068 83.4612C28.9944 83.3184 29.1 83.1922 29.2431 83.1798L30.9763 83.0283L30.8248 81.2951C30.8123 81.152 30.9179 81.0261 31.061 81.0137C31.2039 81.0013 31.33 81.1069 31.3425 81.25L31.5389 83.5006Z" fill="#E0E0E0"/>
<path d="M22.5696 84.2856L20.319 84.4825L20.1221 82.2316C20.1097 82.0888 20.2153 81.9626 20.3584 81.9502C20.5012 81.9378 20.6274 82.0434 20.6398 82.1865L20.7913 83.9197L22.5245 83.7681C22.6673 83.7557 22.7935 83.8613 22.8059 84.0044C22.8183 84.147 22.7125 84.2729 22.5696 84.2856Z" fill="#E0E0E0"/>
<path d="M30.2492 37.2105L21.6346 37.9643L21.4582 35.9484C21.2753 33.8569 22.8279 32.0068 24.919 31.8239C27.0104 31.6409 28.8605 33.1935 29.0435 35.2847L29.1459 36.456L30.3888 36.3473L30.2864 35.1759C30.0435 32.3991 27.587 30.3381 24.8102 30.581C22.0335 30.8238 19.9724 33.2804 20.2153 36.0571L20.3927 38.0846C19.3903 38.28 18.6767 39.2045 18.7676 40.2444L19.3829 47.2782C19.4803 48.3904 20.4608 49.213 21.5731 49.1159L31.217 48.2721C32.3292 48.175 33.1519 47.1945 33.0547 46.0823L32.4393 39.0485C32.3419 37.936 31.3614 37.1131 30.2492 37.2105ZM26.5899 42.6305L26.8019 45.0524C26.8367 45.45 26.5426 45.8003 26.145 45.8352C25.7474 45.87 25.3971 45.5759 25.3623 45.1783L25.1503 42.7564C24.834 42.5616 24.6083 42.2281 24.5734 41.8295C24.5148 41.1602 25.0101 40.5702 25.6793 40.5116C26.3486 40.453 26.9386 40.9482 26.9972 41.6175C27.0318 42.0159 26.8673 42.3836 26.5899 42.6305Z" fill="#EBEBEB"/>
<path d="M44.9966 41.2884L44.1256 39.8686C43.6538 39.9338 43.2679 39.9338 42.7961 39.8686L41.9252 41.2884L41.7581 41.244C41.1968 41.0949 40.6553 40.87 40.149 40.5761L39.9993 40.4893L40.3686 38.948C40.3985 38.8232 40.5239 38.7463 40.6487 38.7762C40.7736 38.806 40.8504 38.9314 40.8203 39.0563L40.532 40.2585C40.9082 40.4634 41.3037 40.6276 41.7113 40.7485L42.5619 39.3615L42.7159 39.3865C43.209 39.4671 43.7122 39.4671 44.2053 39.3865L44.3593 39.3615L45.2099 40.7485C45.6175 40.6273 46.013 40.4634 46.3892 40.2585L46.0106 38.6785L46.1373 38.5877C46.4826 38.3395 46.7904 38.0462 47.0547 37.7144C47.1331 37.6156 47.2728 37.5924 47.3749 37.666C47.4811 37.7423 47.5059 37.8928 47.4248 37.9953C47.165 38.3231 46.8667 38.6167 46.5346 38.8712L46.9224 40.4893L46.773 40.5761C46.2667 40.87 45.7252 41.0949 45.1639 41.244L44.9966 41.2884ZM39.6585 38.1888C39.5853 38.1051 39.5146 38.019 39.4467 37.9306L37.8284 38.3181L37.7416 38.1687C37.4477 37.6624 37.2228 37.1209 37.0736 36.5596L37.0293 36.3925L38.4491 35.5216C38.4164 35.285 38.4005 35.0664 38.4005 34.8568C38.4005 34.6475 38.4166 34.4286 38.4491 34.1921L37.0293 33.3214L37.0736 33.1543C37.2228 32.593 37.4477 32.0516 37.7416 31.5452L37.8284 31.3958L39.4465 31.7833C39.7176 31.4296 40.0331 31.1144 40.3868 30.843L40.0933 29.6185C40.0634 29.4939 40.1403 29.3688 40.2646 29.339L40.2654 29.3387C40.39 29.3089 40.5151 29.3857 40.545 29.51L40.9104 31.0354L40.7826 31.1273C40.3771 31.4193 40.0215 31.7749 39.7297 32.1804L39.6387 32.3068L38.0586 31.9283C37.854 32.3045 37.6901 32.6999 37.5689 33.1076L38.9554 33.9579L38.9304 34.1118C38.886 34.384 38.8644 34.6277 38.8644 34.8566C38.8644 35.086 38.886 35.3294 38.9304 35.6013L38.9554 35.7549L37.5686 36.6058C37.6896 37.0137 37.8538 37.4089 38.0584 37.7851L39.6384 37.4065L39.7295 37.533C39.8153 37.6523 39.9074 37.7682 40.0046 37.8794C40.0854 37.9718 40.0832 38.1098 39.9948 38.1951L39.9864 38.2033C39.8934 38.2938 39.744 38.2864 39.6585 38.1888ZM49.093 38.3184L48.4964 38.1756C48.3715 38.1457 48.2947 38.0203 48.3245 37.8955C48.3544 37.7709 48.4798 37.6938 48.6046 37.7236L48.8623 37.7854C49.0669 37.4092 49.2308 37.0137 49.352 36.6061L47.9652 35.7552L47.9903 35.6016C48.0347 35.3296 48.0563 35.086 48.0563 34.8568C48.0563 34.6277 48.0347 34.3843 47.9903 34.1121L47.9652 33.9582L49.3518 33.1078C49.2308 32.6999 49.0666 32.3047 48.862 31.9285L47.282 32.3071L47.1909 32.1807C46.8992 31.7751 46.5436 31.4195 46.1381 31.1276L46.0103 31.0357L46.3889 29.4556C46.0127 29.251 45.6172 29.0868 45.2096 28.9657L44.359 30.3525L44.2051 30.3276C43.7117 30.2476 43.2085 30.2476 42.7151 30.3276L42.5614 30.3525L41.7108 28.9659C41.658 28.9815 41.6052 28.9981 41.5524 29.0153C41.4347 29.0538 41.3079 28.9905 41.2654 28.8743C41.2206 28.7521 41.2842 28.6143 41.4077 28.5739C41.5236 28.5359 41.6406 28.5013 41.757 28.4704L41.9244 28.4258L42.7953 29.8458C43.2692 29.7801 43.6507 29.7801 44.1246 29.8458L44.9955 28.4258L45.1629 28.4701C45.7241 28.6196 46.2656 28.8445 46.772 29.1381L46.9214 29.2249L46.5336 30.8432C46.8873 31.1146 47.2028 31.4298 47.4739 31.7836L49.092 31.396L49.1788 31.5455C49.4727 32.0518 49.6976 32.5933 49.8468 33.1546L49.8911 33.3217L48.4713 34.1923C48.5041 34.4289 48.5199 34.6477 48.5199 34.8571C48.5199 35.0667 48.5038 35.2853 48.4713 35.5218L49.8911 36.3928L49.8468 36.5599C49.6976 37.1211 49.4727 37.6626 49.1788 38.169L49.093 38.3184ZM43.3957 37.119C42.2161 37.0858 41.2324 36.1026 41.1986 34.9231C41.1646 33.7343 42.053 32.7414 43.1995 32.6091C43.3381 32.593 43.4609 32.7015 43.4609 32.8412C43.4609 32.9584 43.3735 33.0569 43.2571 33.0701C42.2459 33.1846 41.4864 34.1409 41.6981 35.219C41.8357 35.9192 42.3998 36.4833 43.1002 36.6201C44.2494 36.8447 45.2595 35.9667 45.2595 34.8568C45.2595 34.4854 45.1449 34.1258 44.934 33.8246C44.8675 33.7295 44.8854 33.5997 44.9725 33.5228C45.0768 33.4307 45.2394 33.45 45.3189 33.5643C45.5816 33.9418 45.7241 34.3919 45.7241 34.8568C45.7236 36.1264 44.6732 37.1549 43.3957 37.119Z" fill="#F0F0F0"/>
<path d="M28.5942 60.6129L28.0316 59.6958C27.727 59.738 27.4775 59.738 27.1728 59.6958L26.6103 60.6129L26.5023 60.5842C26.1395 60.4878 25.7897 60.3426 25.4626 60.1525L25.366 60.0963L25.6047 59.1005C25.6239 59.02 25.705 58.9701 25.7855 58.9896C25.866 59.0089 25.9157 59.0899 25.8964 59.1704L25.7103 59.9471C25.9534 60.0794 26.2087 60.1855 26.4722 60.2637L27.0216 59.3676L27.1211 59.384C27.4397 59.436 27.7647 59.436 28.0834 59.384L28.1829 59.3676L28.7325 60.2637C28.996 60.1855 29.2513 60.0794 29.4944 59.9471L29.2497 58.9265L29.3316 58.8676C29.5546 58.7074 29.7534 58.5178 29.9242 58.3035C29.9749 58.2398 30.0652 58.2248 30.1312 58.2723C30.1996 58.3217 30.2157 58.4188 30.1634 58.4851C29.9955 58.6968 29.8028 58.8866 29.5882 59.0511L29.8387 60.0963L29.7421 60.1525C29.415 60.3423 29.0652 60.4875 28.7024 60.5842L28.5942 60.6129ZM25.1456 58.6107C25.0983 58.5566 25.0526 58.5012 25.0088 58.4439L23.9634 58.6944L23.9074 58.5978C23.7176 58.2707 23.5724 57.9209 23.476 57.5582L23.4473 57.4502L24.3644 56.8876C24.3433 56.7348 24.333 56.5935 24.333 56.4581C24.333 56.3229 24.3433 56.1814 24.3644 56.0286L23.4473 55.466L23.476 55.358C23.5724 54.9953 23.7176 54.6457 23.9074 54.3184L23.9634 54.2217L25.0088 54.4723C25.1839 54.2437 25.3877 54.0401 25.6163 53.8648L25.4267 53.0739C25.4075 52.9934 25.4571 52.9126 25.5374 52.8933L25.5379 52.893C25.6184 52.8738 25.6992 52.9234 25.7185 53.0039L25.9545 53.9894L25.8718 54.0488C25.61 54.2373 25.3803 54.467 25.1918 54.7292L25.1329 54.811L24.112 54.5665C23.98 54.8097 23.8739 55.065 23.7957 55.3284L24.6915 55.8778L24.6754 55.9774C24.6466 56.1532 24.6329 56.3105 24.6329 56.4586C24.6329 56.6067 24.6469 56.7641 24.6754 56.9399L24.6918 57.0392L23.796 57.5888C23.8742 57.8523 23.9803 58.1076 24.1123 58.3507L25.1332 58.1062L25.192 58.1881C25.2475 58.2652 25.3069 58.3402 25.3697 58.412C25.422 58.4716 25.4204 58.5609 25.3634 58.6158L25.3578 58.621C25.2974 58.6783 25.201 58.6736 25.1456 58.6107ZM31.2405 58.6942L30.8551 58.602C30.7746 58.5828 30.7247 58.5017 30.744 58.4212C30.7632 58.3407 30.8443 58.291 30.9248 58.3103L31.0914 58.3502C31.2234 58.107 31.3295 57.8517 31.4077 57.5883L30.5119 57.0386L30.5283 56.9394C30.5568 56.7638 30.5708 56.6062 30.5708 56.4581C30.5708 56.31 30.5568 56.1526 30.5283 55.9768L30.5122 55.8773L31.4079 55.3279C31.3298 55.0644 31.2236 54.8091 31.0917 54.566L30.0708 54.8105L30.0119 54.7286C29.8234 54.4667 29.5937 54.2368 29.3318 54.0483L29.2492 53.9889L29.4939 52.968C29.2508 52.8358 28.9955 52.7299 28.732 52.6515L28.1826 53.5472L28.0834 53.5311C27.7647 53.4794 27.4397 53.4794 27.1208 53.5311L27.0216 53.5472L26.4722 52.6515C26.4381 52.6615 26.4038 52.6723 26.37 52.6834C26.294 52.7082 26.2121 52.6673 26.1847 52.5923C26.1556 52.5134 26.1968 52.4244 26.2766 52.3983C26.3515 52.3738 26.427 52.3513 26.502 52.3315L26.6103 52.3027L27.1728 53.2201C27.4791 53.1776 27.7254 53.1776 28.0316 53.2201L28.5942 52.3027L28.7022 52.3315C29.0647 52.4281 29.4145 52.5733 29.7418 52.7629L29.8384 52.8191L29.5879 53.8646C29.8165 54.0399 30.0201 54.2434 30.1954 54.472L31.2408 54.2215L31.2968 54.3181C31.4866 54.6452 31.6318 54.995 31.7282 55.3577L31.7569 55.4657L30.8398 56.0283C30.8609 56.1812 30.8712 56.3224 30.8712 56.4578C30.8712 56.5933 30.8609 56.7345 30.8398 56.8874L31.7569 57.4499L31.7282 57.5579C31.6318 57.9207 31.4866 58.2705 31.2968 58.5975L31.2405 58.6942ZM27.5601 57.9193C26.798 57.898 26.1628 57.2628 26.1409 56.5006C26.1187 55.7326 26.6926 55.0911 27.4334 55.0056C27.5229 54.9953 27.6021 55.0655 27.6021 55.1555C27.6021 55.2313 27.5456 55.2949 27.4704 55.3034C26.8172 55.3773 26.3264 55.995 26.4632 56.6917C26.5519 57.144 26.9165 57.5086 27.369 57.597C28.1114 57.7422 28.764 57.1749 28.764 56.4578C28.764 56.2179 28.69 55.9855 28.5538 55.791C28.5108 55.7297 28.5224 55.6455 28.5786 55.5959C28.6462 55.5362 28.751 55.5489 28.8025 55.6228C28.9723 55.8667 29.0644 56.1574 29.0644 56.4578C29.0639 57.2781 28.3851 57.9428 27.5601 57.9193Z" fill="#E6E6E6"/>
<path d="M65.9992 112.732C94.2688 112.732 117.186 111.394 117.186 109.743C117.186 108.092 94.2688 106.754 65.9992 106.754C37.7296 106.754 14.8125 108.092 14.8125 109.743C14.8125 111.394 37.7296 112.732 65.9992 112.732Z" fill="#F5F5F5"/>
<path d="M95.9497 38.498H87.3536L81.2734 107.996H89.8695C92.3142 107.996 94.4769 106.007 94.6907 103.562L99.9953 42.9314C100.209 40.4868 98.3944 38.498 95.9497 38.498Z" fill="#407BFF"/>
<path d="M94.1963 38.498H65.1038C62.6591 38.498 60.4964 40.4868 60.2826 42.9314L54.9781 103.562C54.7642 106.007 56.579 107.996 59.0236 107.996H88.1161C90.5608 107.996 92.7234 106.007 92.9373 103.562L98.2418 42.9314C98.4557 40.4868 96.6409 38.498 94.1963 38.498Z" fill="#407BFF"/>
<path opacity="0.3" d="M94.1963 38.498H65.1038C62.6591 38.498 60.4964 40.4868 60.2826 42.9314L54.9781 103.562C54.7642 106.007 56.579 107.996 59.0236 107.996H88.1161C90.5608 107.996 92.7234 106.007 92.9373 103.562L98.2418 42.9314C98.4557 40.4868 96.6409 38.498 94.1963 38.498Z" fill="white"/>
<path opacity="0.4" d="M94.072 39.918H86.4017C85.9492 39.918 85.5245 40.215 85.3568 40.6485C84.7367 42.2509 83.1664 43.3484 81.4937 43.3484H76.9579C75.2852 43.3484 73.9066 42.2507 73.5668 40.6485C73.475 40.215 73.1022 39.9182 72.6497 39.9182H64.9794C63.3155 39.9182 61.8487 41.267 61.7029 42.931L56.3984 103.562C56.2529 105.226 57.4837 106.575 59.1477 106.575H88.2402C89.9042 106.575 91.371 105.226 91.5167 103.562L96.8213 42.931C96.9667 41.267 95.736 39.918 94.072 39.918Z" fill="white"/>
<path d="M86.8253 72.8529H66.4645C65.8608 72.8529 65.4143 72.3634 65.4671 71.7599L65.569 70.5949C65.6218 69.9911 66.1541 69.502 66.7578 69.502H87.1186C87.7223 69.502 88.1688 69.9914 88.116 70.5949L88.014 71.7599C87.9612 72.3634 87.429 72.8529 86.8253 72.8529Z" fill="white"/>
<path d="M86.3839 77.8793H66.0231C65.4193 77.8793 64.9729 77.3898 65.0257 76.7863L65.1276 75.6213C65.1804 75.0175 65.7127 74.5283 66.3164 74.5283H86.6772C87.2809 74.5283 87.7273 75.0178 87.6745 75.6213L87.5726 76.7863C87.5198 77.3898 86.9876 77.8793 86.3839 77.8793Z" fill="white"/>
<path opacity="0.1" d="M80.6377 41.0538C80.5791 41.7233 79.9891 42.2658 79.3196 42.2658C78.6501 42.2658 78.1551 41.7233 78.2137 41.0538C78.2723 40.3843 78.8623 39.8418 79.5318 39.8418C80.2011 39.8418 80.6964 40.3843 80.6377 41.0538Z" fill="black"/>
<path opacity="0.1" d="M80.0888 41.0537C80.0568 41.4194 79.7345 41.7158 79.3686 41.7158C79.0029 41.7158 78.7323 41.4194 78.7643 41.0537C78.7962 40.6881 79.1186 40.3916 79.4845 40.3916C79.8504 40.3916 80.1207 40.6881 80.0888 41.0537Z" fill="black"/>
<g opacity="0.8">
<path d="M90.4896 43.0752C90.2935 43.0752 90.1483 42.9162 90.1654 42.7201L90.2222 42.0709C90.2394 41.8747 90.4123 41.7158 90.6084 41.7158C90.8046 41.7158 90.9498 41.8747 90.9326 42.0709L90.8759 42.7201C90.8587 42.9162 90.6858 43.0752 90.4896 43.0752Z" fill="white"/>
<path d="M93.3314 43.0755C93.1353 43.0755 92.9901 42.9166 93.0072 42.7204L93.1406 41.1969C93.1577 41.0007 93.3306 40.8418 93.5268 40.8418C93.7229 40.8418 93.8681 41.0007 93.851 41.1969L93.7177 42.7204C93.7005 42.9166 93.5276 43.0755 93.3314 43.0755Z" fill="white"/>
<path d="M91.9096 43.0758C91.7134 43.0758 91.5682 42.9169 91.5854 42.7207L91.6804 41.6344C91.6976 41.4382 91.8705 41.2793 92.0666 41.2793C92.2628 41.2793 92.408 41.4382 92.3908 41.6344L92.2958 42.7207C92.2786 42.9169 92.1057 43.0758 91.9096 43.0758Z" fill="white"/>
</g>
<g opacity="0.8">
<path d="M66.1668 43.0757H64.3835C64.2723 43.0757 64.1902 42.9857 64.2 42.8745L64.2837 41.917C64.2935 41.8058 64.3914 41.7158 64.5023 41.7158H66.2856C66.3968 41.7158 66.4789 41.8058 66.4691 41.917L66.3854 42.8745C66.3756 42.9857 66.278 43.0757 66.1668 43.0757Z" fill="white"/>
<path d="M66.9929 42.8159C66.8817 42.8159 66.7996 42.7259 66.8094 42.6147L66.8477 42.1768C66.8574 42.0656 66.9554 41.9756 67.0663 41.9756C67.1774 41.9756 67.2595 42.0656 67.2497 42.1768L67.2115 42.6147C67.2019 42.7259 67.104 42.8159 66.9929 42.8159Z" fill="white"/>
</g>
<path d="M83.4736 65.1948C87.0261 61.7943 87.3801 56.3988 84.2643 53.1438C81.1485 49.8887 75.7427 50.0066 72.1902 53.4072C68.6377 56.8078 68.2837 62.2032 71.3995 65.4583C74.5154 68.7133 79.9211 68.5954 83.4736 65.1948Z" fill="white"/>
<path d="M77.8591 58.9717C75.6191 58.9717 73.7283 59.8239 73.5665 61.6758L73.3867 63.7311H81.4992L81.679 61.6758C81.8408 59.8239 80.0994 58.9717 77.8591 58.9717Z" fill="#407BFF"/>
<path d="M77.9339 58.125C78.9735 58.125 79.4529 57.2823 79.5438 56.2427C79.6348 55.203 79.3027 54.3604 78.2631 54.3604C77.2235 54.3604 76.744 55.203 76.653 56.2427C76.5621 57.2823 76.8943 58.125 77.9339 58.125Z" fill="#407BFF"/>
<path d="M85.8956 71.1172C85.3423 71.1172 84.8752 71.3276 84.8354 71.7851L84.791 72.2928H86.7948L86.8391 71.7851C86.879 71.3276 86.4489 71.1172 85.8956 71.1172Z" fill="#407BFF"/>
<path d="M85.9136 70.9083C86.1704 70.9083 86.2887 70.7 86.3111 70.4434C86.3336 70.1865 86.2517 69.9785 85.9949 69.9785C85.738 69.9785 85.6197 70.1868 85.5973 70.4434C85.5748 70.7003 85.6569 70.9083 85.9136 70.9083Z" fill="#407BFF"/>
<path d="M79.7253 82.9059H71.8029C70.8776 82.9059 70.193 82.1559 70.2741 81.2303C70.3551 80.305 71.1709 79.5547 72.0962 79.5547H80.0186C80.9439 79.5547 81.6285 80.305 81.5474 81.2303C81.4664 82.1559 80.6506 82.9059 79.7253 82.9059Z" fill="#407BFF"/>
<path d="M78.7694 101.592H70.2905C69.3127 101.592 68.5893 100.799 68.6748 99.8211L69.2158 93.6369C69.3013 92.659 70.1633 91.8662 71.1411 91.8662H79.62C80.5979 91.8662 81.3212 92.659 81.2357 93.6369L80.6948 99.8211C80.6092 100.799 79.7473 101.592 78.7694 101.592Z" fill="#407BFF"/>
<g opacity="0.6">
<path d="M76.1546 95.1993C76.2061 94.6108 75.7708 94.1338 75.1823 94.1338C74.5938 94.1338 74.0751 94.6108 74.0236 95.1993C73.993 95.5496 74.1374 95.858 74.3816 96.052L74.1952 98.1814C74.1646 98.531 74.423 98.8142 74.7726 98.8142C75.1221 98.8142 75.4302 98.531 75.4608 98.1814L75.6472 96.052C75.9257 95.858 76.124 95.5499 76.1546 95.1993Z" fill="white"/>
</g>
<path d="M79.6964 93.1531H78.6037L78.8714 90.0933C79.0321 88.2545 77.6673 86.7587 75.8285 86.7587C73.9897 86.7587 72.363 88.2545 72.2022 90.0933L71.9345 93.1531H70.8418L71.1095 90.0933C71.3231 87.6521 73.4829 85.666 75.9241 85.666C78.3653 85.666 80.1776 87.6521 79.964 90.0933L79.6964 93.1531Z" fill="#407BFF"/>
<path d="M86.0299 75.8035L86.0555 75.5099C86.0819 75.2098 85.8591 74.9658 85.5589 74.9658C85.2588 74.9658 84.9935 75.21 84.9673 75.5099L84.9417 75.8035C84.8218 75.8035 84.7162 75.9006 84.7059 76.0205L84.6376 76.8009C84.627 76.9207 84.7157 77.0179 84.8356 77.0179H85.9233C86.0431 77.0179 86.1487 76.9207 86.1593 76.8009L86.2276 76.0205C86.2382 75.9006 86.1498 75.8035 86.0299 75.8035ZM85.5473 75.0999C85.7733 75.0999 85.9409 75.2837 85.9214 75.5097L85.8958 75.8032H85.0761L85.1017 75.5097C85.1215 75.2837 85.3213 75.0999 85.5473 75.0999Z" fill="#407BFF"/>
<path d="M69.6551 76.1159L69.2754 76.0375C69.2306 76.0282 69.2073 75.981 69.2261 75.9366L69.3842 75.5628C69.4183 75.4825 69.3206 75.4231 69.2591 75.4868L68.9721 75.7825C68.9381 75.8176 68.8834 75.8176 68.8557 75.7825L68.6205 75.4868C68.57 75.4234 68.4621 75.4825 68.4819 75.5628L68.5745 75.9366C68.5856 75.981 68.5542 76.0282 68.5075 76.0375L68.1141 76.1159C68.0296 76.1328 68.0193 76.2513 68.1009 76.2682L68.4805 76.3466C68.5254 76.3559 68.5486 76.4031 68.5299 76.4475L68.3718 76.8213C68.3377 76.9015 68.4354 76.961 68.4969 76.8973L68.7839 76.6016C68.8179 76.5665 68.8726 76.5665 68.9003 76.6016L69.1355 76.8973C69.1859 76.961 69.2939 76.9015 69.2741 76.8213L69.1815 76.4475C69.1704 76.4031 69.2018 76.3559 69.2485 76.3466L69.6419 76.2682C69.7264 76.2513 69.7366 76.1325 69.6551 76.1159Z" fill="#263238"/>
<path d="M72.1532 76.1159L71.7735 76.0375C71.7287 76.0282 71.7054 75.981 71.7242 75.9366L71.8823 75.5628C71.9164 75.4825 71.8187 75.4231 71.7572 75.4868L71.4702 75.7825C71.4361 75.8176 71.3818 75.8176 71.3538 75.7825L71.1185 75.4868C71.0681 75.4234 70.9601 75.4825 70.9799 75.5628L71.0726 75.9366C71.0837 75.981 71.052 76.0282 71.0056 76.0375L70.6122 76.1159C70.5277 76.1328 70.5174 76.2513 70.5987 76.2682L70.9784 76.3466C71.0232 76.3559 71.0465 76.4031 71.0277 76.4475L70.8696 76.8213C70.8355 76.9015 70.9332 76.961 70.9947 76.8973L71.2817 76.6016C71.3158 76.5665 71.3701 76.5665 71.3981 76.6016L71.6333 76.8973C71.6838 76.961 71.7917 76.9015 71.7719 76.8213L71.6793 76.4475C71.6682 76.4031 71.6999 76.3559 71.7463 76.3466L72.1397 76.2682C72.2244 76.2513 72.2347 76.1325 72.1532 76.1159Z" fill="#263238"/>
<path d="M74.6512 76.1159L74.2716 76.0375C74.2267 76.0282 74.2035 75.981 74.2222 75.9366L74.3803 75.5628C74.4144 75.4825 74.3167 75.4231 74.2552 75.4868L73.9682 75.7825C73.9342 75.8176 73.8795 75.8176 73.8518 75.7825L73.6166 75.4868C73.5662 75.4234 73.4582 75.4825 73.478 75.5628L73.5707 75.9366C73.5817 75.981 73.5503 76.0282 73.5036 76.0375L73.1102 76.1159C73.0258 76.1328 73.0155 76.2513 73.0968 76.2682L73.4764 76.3466C73.5213 76.3559 73.5445 76.4031 73.5258 76.4475L73.3676 76.8213C73.3336 76.9015 73.4313 76.961 73.4928 76.8973L73.7797 76.6016C73.8138 76.5665 73.8684 76.5665 73.8962 76.6016L74.1314 76.8973C74.1818 76.961 74.2898 76.9015 74.27 76.8213L74.1773 76.4475C74.1662 76.4031 74.1977 76.3559 74.2444 76.3466L74.6377 76.2682C74.7225 76.2513 74.7328 76.1325 74.6512 76.1159Z" fill="#263238"/>
<path d="M77.1492 76.1159L76.7696 76.0375C76.7247 76.0282 76.7015 75.981 76.7202 75.9366L76.8783 75.5628C76.9124 75.4825 76.8147 75.4231 76.7532 75.4868L76.4662 75.7825C76.4322 75.8176 76.3775 75.8176 76.3498 75.7825L76.1146 75.4868C76.0642 75.4234 75.9562 75.4825 75.976 75.5628L76.0687 75.9366C76.0798 75.981 76.0483 76.0282 76.0016 76.0375L75.6082 76.1159C75.5238 76.1328 75.5135 76.2513 75.595 76.2682L75.9747 76.3466C76.0196 76.3559 76.0428 76.4031 76.024 76.4475L75.8659 76.8213C75.8319 76.9015 75.9295 76.961 75.991 76.8973L76.278 76.6016C76.3121 76.5665 76.3667 76.5665 76.3944 76.6016L76.6297 76.8973C76.6801 76.961 76.7881 76.9015 76.7683 76.8213L76.6756 76.4475C76.6645 76.4031 76.6959 76.3559 76.7426 76.3466L77.136 76.2682C77.2202 76.2513 77.2308 76.1325 77.1492 76.1159Z" fill="#263238"/>
<path d="M79.6473 76.1159L79.2677 76.0375C79.2228 76.0282 79.1996 75.981 79.2183 75.9366L79.3764 75.5628C79.4105 75.4825 79.3128 75.4231 79.2513 75.4868L78.9643 75.7825C78.9303 75.8176 78.8756 75.8176 78.8479 75.7825L78.6127 75.4868C78.5623 75.4234 78.4543 75.4825 78.4741 75.5628L78.5667 75.9366C78.5778 75.981 78.5464 76.0282 78.4997 76.0375L78.1063 76.1159C78.0219 76.1328 78.0116 76.2513 78.0929 76.2682L78.4725 76.3466C78.5174 76.3559 78.5406 76.4031 78.5219 76.4475L78.3637 76.8213C78.3299 76.9015 78.4274 76.961 78.4889 76.8973L78.7758 76.6016C78.8099 76.5665 78.8643 76.5665 78.8923 76.6016L79.1275 76.8973C79.1779 76.961 79.2859 76.9015 79.2661 76.8213L79.1734 76.4475C79.1623 76.4031 79.194 76.3559 79.2405 76.3466L79.6338 76.2682C79.7183 76.2513 79.7289 76.1325 79.6473 76.1159Z" fill="#263238"/>
<path d="M82.1473 76.1159L81.7677 76.0375C81.7228 76.0282 81.6996 75.981 81.7183 75.9366L81.8764 75.5628C81.9102 75.4825 81.8128 75.4231 81.7513 75.4868L81.4643 75.7825C81.4303 75.8176 81.3759 75.8176 81.3479 75.7825L81.1127 75.4868C81.0623 75.4234 80.9543 75.4825 80.9741 75.5628L81.0668 75.9366C81.0778 75.981 81.0462 76.0282 80.9997 76.0375L80.6063 76.1159C80.5219 76.1328 80.5116 76.2513 80.5929 76.2682L80.9725 76.3466C81.0174 76.3559 81.0406 76.4031 81.0219 76.4475L80.8637 76.8213C80.8297 76.9015 80.9274 76.961 80.9889 76.8973L81.2758 76.6016C81.3099 76.5665 81.3645 76.5665 81.3923 76.6016L81.6275 76.8973C81.6779 76.961 81.7859 76.9015 81.7661 76.8213L81.6734 76.4475C81.6623 76.4031 81.6938 76.3559 81.7405 76.3466L82.1338 76.2682C82.2183 76.2513 82.2289 76.1325 82.1473 76.1159Z" fill="#263238"/>
<path d="M76.1242 70.6494H71.4334C71.142 70.6494 70.8851 70.8857 70.8595 71.1771C70.8339 71.4686 71.0496 71.7049 71.341 71.7049H76.0318C76.3232 71.7049 76.5801 71.4686 76.6057 71.1771C76.6313 70.8857 76.4156 70.6494 76.1242 70.6494Z" fill="#263238"/>
<path d="M80.8857 70.6494H78.1639C77.8724 70.6494 77.6156 70.8857 77.59 71.1771C77.5643 71.4686 77.78 71.7049 78.0715 71.7049H80.7933C81.0848 71.7049 81.3417 71.4686 81.3673 71.1771C81.3929 70.8857 81.1772 70.6494 80.8857 70.6494Z" fill="#263238"/>
<path d="M84.4799 94.5817C82.7114 95.2879 81.1609 96.318 80.0996 97.4894C79.4774 96.9598 78.5927 96.592 77.5322 96.4238L77.4079 96.404L77.3535 97.0268L77.4229 97.053C78.4697 97.4484 79.3216 98.1501 79.8869 99.0818L79.9756 99.2283L80.0738 99.0712C81.1615 97.3299 82.7476 95.871 84.5396 94.9634L84.6003 94.9325L84.6365 94.5186L84.4799 94.5817Z" fill="#263238"/>
<path opacity="0.2" d="M60.8905 42.6025C60.5608 43.1825 60.3432 43.8296 60.2831 44.5152L56.3516 89.4536H68.5159L70.96 80.0834L70.1556 70.7133L72.5997 61.3431L71.7953 51.973L74.2394 42.6028H60.8905V42.6025Z" fill="black"/>
<path d="M70.739 49.3333L73.1829 39.9629H42.4205L39.9764 49.3333L40.7811 58.7035L38.337 68.0736L39.1414 77.444L36.6973 86.8142H67.4596L69.9037 77.444L69.0993 68.0736L71.5432 58.7035L70.739 49.3333Z" fill="#407BFF"/>
<path opacity="0.7" d="M70.739 49.3333L73.1829 39.9629H42.4205L39.9764 49.3333L40.7811 58.7035L38.337 68.0736L39.1414 77.444L36.6973 86.8142H67.4596L69.9037 77.444L69.0993 68.0736L71.5432 58.7035L70.739 49.3333Z" fill="white"/>
<path opacity="0.5" d="M70.7389 49.3333H39.9766L42.4207 39.9629H73.183L70.7389 49.3333Z" fill="white"/>
<path opacity="0.5" d="M69.1002 68.0733H38.3379L40.782 58.7031H71.5443L69.1002 68.0733Z" fill="white"/>
<path opacity="0.5" d="M67.4596 86.8145H36.6973L39.1414 77.4443H69.9037L67.4596 86.8145Z" fill="white"/>
<path opacity="0.2" d="M66.6228 53.2487C66.3585 53.3314 66.02 53.381 65.6512 53.381C65.1082 53.381 64.6309 53.2735 64.3595 53.1117C64.285 53.0671 64.2032 53.0449 64.1214 53.0449C64.0453 53.0449 63.9696 53.0663 63.8993 53.1046C63.8941 53.1075 63.8882 53.1085 63.8832 53.1117C63.8803 53.1136 63.8766 53.1149 63.8737 53.1167C63.7731 53.1753 63.6464 53.2268 63.4986 53.2683C63.2449 53.3393 62.9312 53.3813 62.5917 53.3813C62.4996 53.3813 62.409 53.3781 62.3214 53.3723C62.0582 53.3543 61.8182 53.311 61.6202 53.2493C61.5856 53.2384 61.5508 53.2321 61.5167 53.2297C61.2773 53.2139 61.0621 53.3976 61.0621 53.6516V53.9378H49.1053C48.18 53.9378 47.4297 54.6878 47.4297 55.6134V57.3019C47.4297 58.2272 48.18 58.9775 49.1053 58.9775H62.7084C62.7385 58.9775 62.7676 58.9746 62.7974 58.973C62.9442 59.0945 63.097 59.2157 63.2589 59.3384C63.4526 59.4852 63.6567 59.6341 63.8706 59.7893C64.0194 59.8973 64.2238 59.8973 64.3727 59.7893C66.0831 58.5488 67.1814 57.6932 67.1814 55.3423V53.6519C67.1811 53.3612 66.9 53.1621 66.6228 53.2487Z" fill="black"/>
<path d="M62.4487 58.0476H48.8455C47.9202 58.0476 47.1699 57.2975 47.1699 56.372V54.6834C47.1699 53.7581 47.9199 53.0078 48.8455 53.0078H62.4487C63.374 53.0078 64.1243 53.7578 64.1243 54.6834V56.372C64.1243 57.2973 63.374 58.0476 62.4487 58.0476Z" fill="#407BFF"/>
<path d="M65.3924 52.4512C64.8493 52.4512 64.3723 52.3438 64.1006 52.182C63.9515 52.093 63.7735 52.093 63.6244 52.182C63.353 52.3438 62.8759 52.4512 62.3326 52.4512C61.9635 52.4512 61.6254 52.4016 61.3611 52.3192C61.0842 52.2326 60.8027 52.4314 60.8027 52.7218V54.4122C60.8027 56.7632 61.901 57.6188 63.6114 58.8593C63.7603 58.9673 63.9647 58.9673 64.1136 58.8593C65.824 57.6188 66.9223 56.7632 66.9223 54.4122V52.7218C66.9223 52.4314 66.6411 52.2326 66.3639 52.3192C66.0996 52.4016 65.7614 52.4512 65.3924 52.4512Z" fill="#407BFF"/>
<path opacity="0.3" d="M65.3924 52.4512C64.8493 52.4512 64.3723 52.3438 64.1006 52.182C63.9515 52.093 63.7735 52.093 63.6244 52.182C63.353 52.3438 62.8759 52.4512 62.3326 52.4512C61.9635 52.4512 61.6254 52.4016 61.3611 52.3192C61.0842 52.2326 60.8027 52.4314 60.8027 52.7218V54.4122C60.8027 56.7632 61.901 57.6188 63.6114 58.8593C63.7603 58.9673 63.9647 58.9673 64.1136 58.8593C65.824 57.6188 66.9223 56.7632 66.9223 54.4122V52.7218C66.9223 52.4314 66.6411 52.2326 66.3639 52.3192C66.0996 52.4016 65.7614 52.4512 65.3924 52.4512Z" fill="white"/>
<path opacity="0.2" d="M63.6244 52.182C63.353 52.3439 62.8759 52.4513 62.3326 52.4513C61.9635 52.4513 61.6254 52.4017 61.3611 52.3193C61.0842 52.2327 60.8027 52.4315 60.8027 52.7216V54.4123C60.8027 56.7632 61.901 57.6188 63.6114 58.8594C63.6859 58.9132 63.7741 58.9404 63.8625 58.9404V52.1152C63.7807 52.1152 63.6988 52.1374 63.6244 52.182Z" fill="white"/>
<path d="M66.3145 53.9508C65.2092 54.4081 64.2633 55.0752 63.6426 55.8339C63.2096 55.491 62.6159 55.2529 61.9195 55.1438L61.8379 55.1312V55.5345L61.8844 55.5514C62.5847 55.8075 63.1761 56.2621 63.5951 56.8654L63.6608 56.9601L63.7155 56.8585C64.3213 55.7307 65.2659 54.7858 66.375 54.1982L66.4127 54.1781V53.9102L66.3145 53.9508Z" fill="#263238"/>
<path d="M72.6396 42.5978H71.4724C70.8251 42.5978 70.3465 42.0733 70.403 41.426L70.5051 40.2588C70.5619 39.6115 71.1324 39.0869 71.7797 39.0869H72.9469C73.5942 39.0869 74.0728 39.6117 74.0163 40.2588L73.9142 41.426C73.8574 42.0733 73.2869 42.5978 72.6396 42.5978Z" fill="#407BFF"/>
<path d="M73.125 40.2562L72.8718 39.9785L72.2342 40.5646L71.6994 39.9785L71.3974 40.2562L71.9322 40.8423L71.2949 41.4284L71.5484 41.7061L72.1857 41.12L72.7205 41.7061L73.0225 41.4284L72.4877 40.8423L73.125 40.2562Z" fill="white"/>
<path d="M46.5629 52.667C47.2395 53.4028 47.8861 54.1649 48.5244 54.9342C49.1636 55.7027 49.7869 56.485 50.4025 57.2741C50.4295 57.3084 50.4186 57.2944 50.425 57.3047C50.4279 57.3092 50.4284 57.3166 50.4321 57.3203C50.439 57.3279 50.4427 57.3406 50.4508 57.3474C50.463 57.367 50.4807 57.381 50.4984 57.3995C50.5359 57.433 50.5871 57.4586 50.6441 57.4692C50.6723 57.4734 50.7022 57.4776 50.7325 57.4744C50.7489 57.4765 50.7634 57.4715 50.7806 57.471C50.7896 57.4713 50.7962 57.4665 50.8049 57.4655C50.8183 57.4596 50.8099 57.4715 50.8463 57.4499L51.5076 57.0914C52.3947 56.6217 53.2888 56.1626 54.2136 55.7505L54.9866 56.7078C54.2416 57.3934 53.4657 58.2509 52.6827 58.8792L52.0913 59.3441C52.0763 59.3578 52.0127 59.3995 51.9728 59.4262C51.9271 59.4555 51.8825 59.4872 51.8342 59.513C51.7384 59.5658 51.6417 59.6186 51.5391 59.6593C51.3363 59.7469 51.1198 59.8026 50.9004 59.8364C50.4603 59.9019 50.0031 59.8576 49.5762 59.7047C49.3634 59.6281 49.1572 59.526 48.9695 59.3956C48.8734 59.3333 48.7855 59.2601 48.6979 59.1865C48.6538 59.1498 48.6145 59.1089 48.5733 59.069L48.4682 58.9626C47.7697 58.2461 47.0788 57.5227 46.4035 56.7857C45.7276 56.0491 45.0597 55.3059 44.4219 54.5361L46.5629 52.667Z" fill="#B55B52"/>
<path d="M53.8535 56.333L54.4689 54.3564L56.0888 55.1638C56.0888 55.1638 55.8528 56.606 54.6735 56.856L53.8535 56.333Z" fill="#B55B52"/>
<path d="M55.1185 53.8086L56.5794 54.2109L56.0887 55.164L54.4688 54.3567L55.1185 53.8086Z" fill="#B55B52"/>
<path d="M38.041 53.2053C37.8647 54.0451 37.6493 54.8754 37.4236 55.7033C37.1989 56.5314 36.9536 57.3546 36.6986 58.1754L36.6036 58.4832L36.556 58.6371C36.546 58.6706 36.5394 58.6791 36.5304 58.7015C36.5014 58.7794 36.484 58.8639 36.4805 58.9526C36.4761 59.1284 36.5178 59.324 36.6329 59.494C36.6424 59.5215 36.7335 59.6171 36.8045 59.6941L37.0236 59.9323L37.4558 60.4162C37.7403 60.7428 38.0239 61.0704 38.2932 61.4149L37.3731 62.4799C36.9932 62.2637 36.6279 62.0305 36.2633 61.7964L35.7218 61.4392L35.4541 61.2568C35.363 61.1934 35.2899 61.1509 35.1442 61.0303C34.642 60.6044 34.2669 59.9999 34.1294 59.3285C34.0591 58.9935 34.042 58.6442 34.081 58.2984C34.0913 58.2155 34.1069 58.1189 34.1196 58.0478L34.1476 57.8892L34.2035 57.5719C34.3516 56.7252 34.5095 55.8809 34.6877 55.0414C34.8651 54.2019 35.0528 53.3647 35.2793 52.5371L38.041 53.2053Z" fill="#B55B52"/>
<path d="M37.3887 61.3393L38.4779 60.7822L38.9584 62.6337C38.9584 62.6337 38.0843 62.9687 37.4077 62.5384L37.3887 61.3393Z" fill="#B55B52"/>
<path d="M39.9833 60.1904L40.0327 61.8887L38.8164 62.6842L38.3945 60.8185L39.9833 60.1904Z" fill="#B55B52"/>
<path d="M43.5444 44.4757C43.571 44.6066 43.6619 44.6985 43.7474 44.6811C43.8329 44.6637 43.8807 44.5435 43.8541 44.4126C43.8274 44.2816 43.7366 44.1898 43.651 44.2072C43.5658 44.2246 43.518 44.3447 43.5444 44.4757Z" fill="#263238"/>
<path d="M43.6504 44.7012C43.6504 44.7012 44.1013 45.3955 44.5028 45.693C44.3151 45.9562 43.9017 45.9375 43.9017 45.9375L43.6504 44.7012Z" fill="#A02724"/>
<path d="M42.9183 43.8468C42.8993 43.8468 42.88 43.8399 42.865 43.8259C42.8333 43.7966 42.8312 43.747 42.8608 43.7151C43.1551 43.3964 43.5123 43.4532 43.5279 43.4556C43.5707 43.4629 43.5992 43.5033 43.592 43.5461C43.5846 43.5886 43.5437 43.6171 43.502 43.6103C43.4901 43.6084 43.2108 43.5675 42.9761 43.8215C42.9606 43.8384 42.9394 43.8468 42.9183 43.8468Z" fill="#263238"/>
<path d="M39.7388 46.3164C40.03 47.5274 40.3206 49.7463 39.2812 50.5541C39.2812 50.5541 39.6873 51.7825 42.4479 51.7825C45.4834 51.7825 43.8986 50.9913 43.8986 50.9913C42.242 50.669 42.2845 49.2299 42.5731 48.289L39.7388 46.3164Z" fill="#B55B52"/>
<path d="M38.9567 50.7791C38.7759 50.4425 38.5765 50.0576 38.9886 49.9369C39.4419 49.8041 42.3541 49.5581 43.2095 49.8073C42.9465 50.2749 43.3916 50.8496 43.3916 50.8496L38.9567 50.7791Z" fill="#263238"/>
<path d="M41.3691 107.426H43.2739L43.4635 103.593H41.559L41.3691 107.426Z" fill="#B55B52"/>
<path d="M29.2812 106.899L31.2103 107.001L32.3827 103.224L30.4534 103.122L29.2812 106.899Z" fill="#B55B52"/>
<path d="M31.1518 106.848L29.3341 106.454C29.2681 106.44 29.2008 106.474 29.1726 106.535L28.5416 107.904C28.4761 108.046 28.5627 108.213 28.7161 108.243C29.3529 108.369 29.6694 108.399 30.4685 108.572C30.9604 108.678 32.0702 108.949 32.7495 109.096C33.4137 109.24 33.6627 108.591 33.3979 108.47C32.2104 107.927 31.7144 107.449 31.3928 107.004C31.335 106.924 31.2487 106.869 31.1518 106.848Z" fill="#263238"/>
<path d="M43.1722 107.235H41.3646C41.297 107.235 41.2384 107.282 41.2236 107.348L40.8965 108.82C40.8627 108.972 40.9784 109.117 41.1347 109.114C41.7867 109.103 42.7289 109.065 43.5487 109.065C44.507 109.065 45.3346 109.117 46.4585 109.117C47.138 109.117 47.3265 108.43 47.0422 108.368C45.7473 108.084 44.6899 108.054 43.5708 107.364C43.4494 107.289 43.315 107.235 43.1722 107.235Z" fill="#263238"/>
<path d="M35.8321 51.1136C34.3946 51.7971 34.0039 55.9406 34.0039 55.9406L37.56 57.5837C37.56 57.5837 38.4425 56.2835 38.5101 54.2391C38.5809 52.0973 37.3018 50.4148 35.8321 51.1136Z" fill="#263238"/>
<path opacity="0.4" d="M37.7617 53.6689C37.1197 54.6655 37.1804 56.2076 37.4027 57.5107L37.5598 57.5843C37.5598 57.5843 38.4434 56.2825 38.5112 54.2387C38.5152 54.1109 38.5147 53.9839 38.5102 53.8603L37.7617 53.6689Z" fill="black"/>
<path d="M45.7543 51.0138C45.7543 51.0138 47.5162 53.0038 45.8522 65.3213C43.1845 65.3213 38.2965 65.3213 36.9984 65.3213C36.9375 63.9622 37.7915 57.3324 36.4805 50.9285C36.4805 50.9285 37.9982 50.6239 39.4444 50.5542C40.5756 50.4998 42.2135 50.4636 43.208 50.5542C44.5193 50.6741 45.7543 51.0138 45.7543 51.0138Z" fill="#407BFF"/>
<path opacity="0.6" d="M45.7543 51.0138C45.7543 51.0138 47.5162 53.0038 45.8522 65.3213C43.1845 65.3213 38.2965 65.3213 36.9984 65.3213C36.9375 63.9622 37.7915 57.3324 36.4805 50.9285C36.4805 50.9285 37.9982 50.6239 39.4444 50.5542C40.5756 50.4998 42.2135 50.4636 43.208 50.5542C44.5193 50.6741 45.7543 51.0138 45.7543 51.0138Z" fill="#FAFAFA"/>
<path opacity="0.2" d="M46.5293 54.7778L46.4955 54.7485L44.7346 53.8076C44.5556 56.5189 45.7676 58.2185 46.4886 58.962C46.5879 57.2248 46.5855 55.8547 46.5293 54.7778Z" fill="black"/>
<path opacity="0.2" d="M43.462 103.594L43.3645 105.57H41.459L41.5564 103.594H43.462Z" fill="black"/>
<path opacity="0.2" d="M30.453 103.123L32.3828 103.225L31.7775 105.172L29.8477 105.07L30.453 103.123Z" fill="black"/>
<path d="M39.1249 45.0855C39.5503 46.6724 39.7184 47.6228 40.6979 48.2825C42.1707 49.2749 44.0047 48.136 44.062 46.4541C44.1138 44.9403 43.4094 42.5997 41.7066 42.2797C40.0289 41.9648 38.6996 43.4986 39.1249 45.0855Z" fill="#B55B52"/>
<path d="M42.7123 65.3213C42.7123 65.3213 40.8336 77.9714 39.8025 82.7107C38.6731 87.9004 32.6174 105.071 32.6174 105.071L29.6543 104.429C29.6543 104.429 33.4517 90.4367 34.3994 83.1812C34.7693 80.3498 35.2157 75.7857 35.7807 71.9804C36.3277 68.2953 36.9993 65.3213 36.9993 65.3213H42.7123Z" fill="#263238"/>
<path d="M33.3275 104.081C33.3402 104.084 32.7752 105.153 32.7752 105.153L29.4414 104.431L29.7226 103.429L33.3275 104.081Z" fill="#407BFF"/>
<path opacity="0.6" d="M33.3275 104.081C33.3402 104.084 32.7752 105.153 32.7752 105.153L29.4414 104.431L29.7226 103.429L33.3275 104.081Z" fill="white"/>
<path opacity="0.6" d="M41.5261 69.8284C39.3539 70.2542 39.5839 78.3545 39.8452 82.521C40.4717 79.576 41.3886 73.909 42.015 69.887C41.8709 69.8149 41.7085 69.7925 41.5261 69.8284Z" fill="black"/>
<path d="M45.8528 65.3213C45.8528 65.3213 46.7364 77.6976 46.5564 82.7456C46.3692 87.996 43.8797 105.188 43.8797 105.188H41.0755C41.0755 105.188 40.9725 88.3028 40.8479 83.1463C40.7119 77.5247 40.0332 65.3213 40.0332 65.3213H45.8528Z" fill="#263238"/>
<path d="M44.4192 104.07C44.4322 104.07 44.2611 105.235 44.2611 105.235H40.8499L40.7578 104.195L44.4192 104.07Z" fill="#407BFF"/>
<path opacity="0.6" d="M44.4192 104.07C44.4322 104.07 44.2611 105.235 44.2611 105.235H40.8499L40.7578 104.195L44.4192 104.07Z" fill="white"/>
<path d="M44.7227 53.332C44.7227 56.6534 46.4901 58.0209 46.4901 58.0209L49.363 55.2125C49.363 55.2125 48.3862 53.5294 47.043 51.9845C45.3832 50.0758 44.7227 51.1962 44.7227 53.332Z" fill="#263238"/>
<path opacity="0.2" d="M43.9613 47.0557C43.8884 47.2592 43.697 47.6043 43.2163 47.7418C42.5151 47.9424 42.5059 48.5367 42.5059 48.5367L42.5146 48.5478C43.1835 48.3268 43.7406 47.774 43.9613 47.0557Z" fill="black"/>
<path d="M43.2164 41.9315C43.8083 41.1852 42.8977 41.1495 42.8977 41.1495C43.1343 40.2585 42.0693 40.7382 42.0693 40.7382C41.4299 39.857 41.0693 40.9293 41.0693 40.9293C40.4061 40.1828 40.2841 41.403 40.2841 41.403C39.6191 40.456 39.2804 41.8219 39.2804 41.8219C38.6679 40.8385 38.293 42.1197 38.293 42.1197C37.0285 41.667 37.6296 42.9812 37.6296 42.9812C36.5501 43.0115 37.416 43.8465 37.416 43.8465C36.1229 43.8497 37.2632 44.5902 37.2632 44.5902C36.2362 45.264 37.5253 45.4453 37.5253 45.4453C36.6874 46.7556 38.1262 46.2695 38.1262 46.2695C37.5433 47.5663 38.8358 46.995 38.8358 46.995C38.7519 48.2464 39.4747 47.9058 39.8221 47.674C39.8892 47.9261 40.0143 48.193 40.2466 48.2234C40.6975 48.2823 40.7852 47.4311 40.7852 47.4311C40.7852 47.4311 41.2036 47.7566 41.5545 47.5803C41.9053 47.4039 41.7731 46.9575 41.7731 46.9575C41.7731 46.9575 42.0416 47.1579 42.2876 46.9668C42.4381 46.8498 42.4389 46.0095 42.247 45.7141L42.9341 45.4451C42.9341 45.4451 43.4442 45.3733 43.2164 44.7008C42.9888 44.0287 43.1818 43.4978 43.1818 43.4978C43.9574 43.1343 43.3212 42.6971 43.3212 42.6971C44.218 42.116 43.2164 41.9315 43.2164 41.9315Z" fill="#263238"/>
<path d="M41.8256 45.1519C41.9336 45.5685 42.2074 45.9265 42.4935 46.1395C42.9244 46.46 43.2459 46.1445 43.2153 45.6572C43.1879 45.2184 42.9305 44.5231 42.4553 44.3929C41.9874 44.2646 41.7023 44.6756 41.8256 45.1519Z" fill="#B55B52"/>
</svg>
