<svg width="132" height="132" viewBox="0 0 132 132" fill="none" xmlns="http://www.w3.org/2000/svg">
<path d="M132 100.953H0V101.019H132V100.953Z" fill="#EBEBEB"/>
<path d="M84.8829 104.635H76.1387V104.701H84.8829V104.635Z" fill="#EBEBEB"/>
<path d="M109.766 103.919H107.471V103.985H109.766V103.919Z" fill="#EBEBEB"/>
<path d="M104.699 102.751H86.5039V102.817H104.699V102.751Z" fill="#EBEBEB"/>
<path d="M59.4397 104.31H51.4395V104.376H59.4397V104.31Z" fill="#EBEBEB"/>
<path d="M49.0883 104.31H44.0137V104.376H49.0883V104.31Z" fill="#EBEBEB"/>
<path d="M26.2148 103.195H13.8496V103.261H26.2148V103.195Z" fill="#EBEBEB"/>
<path d="M62.571 89.1794H11.5928C10.762 89.1794 10.0859 88.5033 10.0859 87.6725V16.0147C10.0859 15.1839 10.762 14.5078 11.5928 14.5078H62.571C63.4015 14.5078 64.0776 15.1839 64.0776 16.0147V87.6728C64.0776 88.5036 63.4015 89.1794 62.571 89.1794ZM11.5928 14.5738C10.7982 14.5738 10.1519 15.2201 10.1519 16.0147V87.6728C10.1519 88.4674 10.7982 89.1137 11.5928 89.1137H62.571C63.3654 89.1137 64.0116 88.4674 64.0116 87.6728V16.0147C64.0116 15.2203 63.3654 14.5738 62.571 14.5738H11.5928Z" fill="#EBEBEB"/>
<path d="M119.674 89.1794H68.6961C67.8653 89.1794 67.1895 88.5033 67.1895 87.6725V16.0147C67.1895 15.1839 67.8656 14.5078 68.6961 14.5078H119.674C120.505 14.5078 121.181 15.1839 121.181 16.0147V87.6728C121.181 88.5036 120.505 89.1794 119.674 89.1794ZM68.6961 14.5738C67.9017 14.5738 67.2555 15.2201 67.2555 16.0147V87.6728C67.2555 88.4674 67.9017 89.1137 68.6961 89.1137H119.674C120.469 89.1137 121.115 88.4674 121.115 87.6728V16.0147C121.115 15.2203 120.469 14.5738 119.674 14.5738H68.6961Z" fill="#EBEBEB"/>
<path d="M15.1381 61.9727L60.0957 61.9727L60.0957 20.5825L15.1381 20.5825L15.1381 61.9727Z" fill="#E6E6E6"/>
<path d="M14.0697 61.9727L59.6309 61.9727L59.6309 20.5825L14.0697 20.5825L14.0697 61.9727Z" fill="#F5F5F5"/>
<path d="M57.7148 59.9017L57.7148 22.6523L15.9854 22.6523L15.9854 59.9017L57.7148 59.9017Z" fill="#FAFAFA"/>
<path d="M52.5592 59.9017L38.526 22.6523H32.6172L46.6506 59.9017H52.5592Z" fill="white"/>
<path d="M44.977 59.9017L30.9435 22.6523H26.875L40.9084 59.9017H44.977Z" fill="white"/>
<path d="M32.3984 59.9017L32.3984 22.6523H30.1127L30.1127 59.9017H32.3984Z" fill="#E6E6E6"/>
<path d="M45.1211 59.9017L45.1211 22.6523H42.8354L42.8354 59.9017H45.1211Z" fill="#E6E6E6"/>
<path d="M31.9863 61.2157L31.9863 21.1133H29.0971L29.0971 61.2157H31.9863Z" fill="#F5F5F5"/>
<path d="M44.709 61.2157L44.709 21.1133H41.8198L41.8198 61.2157H44.709Z" fill="#F5F5F5"/>
<path d="M16.1895 59.9017L16.1895 22.6523H15.9862L15.9862 59.9017H16.1895Z" fill="#E6E6E6"/>
<path d="M105.783 100.954V72.1182L19.8 72.1182V100.954L105.783 100.954Z" fill="#F0F0F0"/>
<path d="M102.285 83.7735V74.473C102.285 74.076 101.963 73.7539 101.566 73.7539H24.018C23.6206 73.7539 23.2988 74.076 23.2988 74.473V83.7735C23.2988 84.1708 23.6209 84.4926 24.018 84.4926H101.566C101.963 84.4926 102.285 84.1708 102.285 83.7735Z" fill="#F5F5F5"/>
<path d="M102.285 98.4515V86.4213C102.285 86.0242 101.963 85.7021 101.566 85.7021H24.018C23.6206 85.7021 23.2988 86.0242 23.2988 86.4213V98.4515C23.2988 98.8488 23.6209 99.1706 24.018 99.1706H101.566C101.963 99.1706 102.285 98.8488 102.285 98.4515Z" fill="#F5F5F5"/>
<path d="M86.474 73.5752H39.1113C39.1113 74.3466 39.7365 74.9718 40.5079 74.9718H85.0774C85.8486 74.9718 86.474 74.3466 86.474 73.5752Z" fill="#F0F0F0"/>
<path d="M86.474 85.5234H39.1113C39.1113 86.2946 39.7365 86.92 40.5079 86.92H85.0774C85.8486 86.92 86.474 86.2946 86.474 85.5234Z" fill="#F0F0F0"/>
<path d="M112.201 100.954V72.1182H105.784V100.954H112.201Z" fill="#E6E6E6"/>
<path d="M19.8008 70.3407V72.1182H105.784V70.3407H19.8008Z" fill="#FAFAFA"/>
<path d="M98.2246 67.7666C98.2246 69.1882 99.377 70.3406 100.799 70.3406C102.22 70.3406 103.373 69.1882 103.373 67.7666H98.2246Z" fill="#F5F5F5"/>
<path d="M91.3633 67.7666C91.3633 69.1882 92.5156 70.3406 93.9373 70.3406C95.3589 70.3406 96.5113 69.1882 96.5113 67.7666H91.3633Z" fill="#F5F5F5"/>
<path d="M20.7246 69.4707C20.7246 69.9509 22.8651 70.3403 25.5056 70.3403C28.1462 70.3403 30.2864 69.9509 30.2864 69.4707H20.7246Z" fill="#F5F5F5"/>
<path d="M20.7246 69.0166C20.7246 69.4968 22.8651 69.8862 25.5056 69.8862C28.1462 69.8862 30.2864 69.4968 30.2864 69.0166H20.7246Z" fill="#F5F5F5"/>
<path d="M105.783 70.3407V72.1182H112.2V70.3407H105.783Z" fill="#E0E0E0"/>
<path d="M109.402 20.0537H93.709V40.4997H109.402V20.0537Z" fill="#EBEBEB"/>
<path d="M108.671 20.0537H92.9785V40.4997H108.671V20.0537Z" fill="#F5F5F5"/>
<path d="M106.562 22.8008H95.0859V37.7527H106.562V22.8008Z" fill="white"/>
<path d="M73.6367 46.5827V62.2754H98.4303V46.5827H73.6367Z" fill="#EBEBEB"/>
<path d="M72.8809 46.5827V62.2754H97.6744V46.5827H72.8809Z" fill="#F5F5F5"/>
<path d="M75.627 48.6912V60.167H94.9264V48.6912H75.627Z" fill="white"/>
<path d="M118.053 44.707H105.293V57.2798H118.053V44.707Z" fill="#EBEBEB"/>
<path d="M117.322 44.707H104.562V57.2798H117.322V44.707Z" fill="#F5F5F5"/>
<path d="M115.213 47.4541H106.67V54.5327H115.213V47.4541Z" fill="white"/>
<path d="M89.6544 29.6709H76.8945V42.2436H89.6544V29.6709Z" fill="#EBEBEB"/>
<path d="M88.924 29.6709H76.1641V42.2436H88.924V29.6709Z" fill="#F5F5F5"/>
<path d="M86.8145 32.418H78.2715V39.4966H86.8145V32.418Z" fill="white"/>
<path d="M65.9992 112.876C94.2688 112.876 117.186 111.538 117.186 109.887C117.186 108.236 94.2688 106.897 65.9992 106.897C37.7296 106.897 14.8125 108.236 14.8125 109.887C14.8125 111.538 37.7296 112.876 65.9992 112.876Z" fill="#F5F5F5"/>
<path d="M83.6317 33.8135H83.3574V35.5514H83.6317V33.8135Z" fill="#407BFF"/>
<path d="M83.6314 32.4007H83.3571C83.3571 30.2966 81.6454 28.5848 79.541 28.5848V28.3105C81.7966 28.3105 83.6314 30.1453 83.6314 32.4007Z" fill="#407BFF"/>
<path d="M79.541 29.2705H43.1026C41.3811 29.2705 39.9727 30.6789 39.9727 32.4005V106.719C39.9727 108.441 41.3811 109.849 43.1026 109.849H79.541C81.2625 109.849 82.671 108.441 82.671 106.719V32.4005C82.671 30.6792 81.2625 29.2705 79.541 29.2705Z" fill="#407BFF"/>
<path opacity="0.95" d="M42.8911 108.644C41.8301 108.644 40.9668 107.781 40.9668 106.72V32.4009C40.9668 31.3398 41.8301 30.4766 42.8911 30.4766H79.3292C80.3902 30.4766 81.2535 31.3398 81.2535 32.4009V106.72C81.2535 107.781 80.3902 108.644 79.3292 108.644H42.8911Z" fill="white"/>
<path d="M61.1086 105.659C62.3109 105.659 63.2855 104.684 63.2855 103.482C63.2855 102.279 62.3109 101.305 61.1086 101.305C59.9063 101.305 58.9316 102.279 58.9316 103.482C58.9316 104.684 59.9063 105.659 61.1086 105.659Z" fill="#407BFF"/>
<path d="M59.4453 30.2559C59.4453 31.2488 60.2502 32.054 61.2434 32.054C62.2363 32.054 63.0415 31.249 63.0415 30.2559H59.4453Z" fill="#407BFF"/>
<path opacity="0.7" d="M72.9971 38.0596H49.4879C47.4987 38.0596 45.8711 39.6871 45.8711 41.6764V44.0875C45.8711 46.0767 47.4987 47.7043 49.4879 47.7043H72.9971L76.6139 49.8474V41.6761C76.6136 39.6871 74.9863 38.0596 72.9971 38.0596Z" fill="#407BFF"/>
<path d="M72.3418 41.5127H50.1426V42.1154H72.3418V41.5127Z" fill="white"/>
<path d="M72.3415 43.6484H54.4141V44.2511H72.3415V43.6484Z" fill="white"/>
<path opacity="0.15" d="M49.4879 54.1191H72.9971C74.9863 54.1191 76.6139 55.7467 76.6139 57.7359V60.1471C76.6139 62.1363 74.9863 63.7639 72.9971 63.7639H49.4879L45.8711 65.907V57.7357C45.8711 55.7467 47.4987 54.1191 49.4879 54.1191Z" fill="#407BFF"/>
<path opacity="0.5" d="M72.3418 57.5723H50.1426V58.175H72.3418V57.5723Z" fill="#407BFF"/>
<path opacity="0.5" d="M60.4386 59.708H50.1426V60.3107H60.4386V59.708Z" fill="#407BFF"/>
<path opacity="0.5" d="M66.2329 59.708H62.0469V60.3107H66.2329V59.708Z" fill="#407BFF"/>
<path opacity="0.7" d="M72.9971 70.1787H49.4879C47.4987 70.1787 45.8711 71.8063 45.8711 73.7955V76.2066C45.8711 78.1959 47.4987 79.8234 49.4879 79.8234H72.9971L76.6139 81.9666V73.7955C76.6136 71.8063 74.9863 70.1787 72.9971 70.1787Z" fill="#407BFF"/>
<path d="M72.3418 73.6318H50.1426V74.2345H72.3418V73.6318Z" fill="white"/>
<path d="M72.3415 75.7676H54.4141V76.3703H72.3415V75.7676Z" fill="white"/>
<path opacity="0.15" d="M49.4879 86.2383H58.6305C60.6197 86.2383 62.2473 87.8658 62.2473 89.8551V92.2662C62.2473 94.2554 60.6197 95.883 58.6305 95.883H49.4879L45.8711 98.0261V89.8548C45.8711 87.8658 47.4987 86.2383 49.4879 86.2383Z" fill="#407BFF"/>
<path opacity="0.5" d="M51.3213 91.061C51.3213 91.6508 50.8432 92.1289 50.2534 92.1289C49.6637 92.1289 49.1855 91.6508 49.1855 91.061C49.1855 90.4713 49.6637 89.9932 50.2534 89.9932C50.8432 89.9932 51.3213 90.4713 51.3213 91.061Z" fill="#407BFF"/>
<path opacity="0.5" d="M53.4566 91.2744C54.0463 91.2744 54.5244 90.7963 54.5244 90.2066C54.5244 89.6168 54.0463 89.1387 53.4566 89.1387C52.8668 89.1387 52.3887 89.6168 52.3887 90.2066C52.3887 90.7963 52.8668 91.2744 53.4566 91.2744Z" fill="#407BFF"/>
<path opacity="0.5" d="M57.7276 92.3423C57.7276 92.9321 57.2495 93.4102 56.6597 93.4102C56.0699 93.4102 55.5918 92.9321 55.5918 92.3423C55.5918 91.7525 56.0699 91.2744 56.6597 91.2744C57.2495 91.2744 57.7276 91.7525 57.7276 92.3423Z" fill="#407BFF"/>
<path d="M90.9038 88.4922C91.1942 89.0698 91.4539 89.6517 91.7243 90.2335C91.9914 90.8159 92.2462 91.4041 92.4965 91.9957C92.7446 92.5884 92.9928 93.1814 93.2251 93.7857C93.4614 94.3889 93.6927 94.994 93.9065 95.626L92.9598 94.7361C93.4186 94.9116 94.0256 95.0098 94.67 95.0323C95.3152 95.0523 96.0019 95.0185 96.6941 94.9388C97.3889 94.8659 98.0927 94.7503 98.7995 94.6178C99.5014 94.4853 100.226 94.3229 100.908 94.1621L101.533 95.6809C100.829 96.0724 100.137 96.3853 99.408 96.6778C98.6833 96.9676 97.9378 97.2163 97.1661 97.4225C96.3923 97.6195 95.5942 97.7839 94.7468 97.8447C93.9023 97.9114 92.9997 97.8895 92.0302 97.6224L91.4114 97.4518L91.0833 96.7324C90.5769 95.6223 90.0294 94.4794 89.4898 93.3419C89.2205 92.7714 88.9491 92.2009 88.6859 91.6259C88.4259 91.0509 88.1518 90.4769 87.9023 89.9019L90.9038 88.4922Z" fill="#FFC3BD"/>
<path d="M100.061 94.6334L101.098 93.6191L102.744 95.4025C102.744 95.4025 102.147 96.4434 100.665 95.8375L100.061 94.6334Z" fill="#FFC3BD"/>
<path d="M102.659 92.9482L103.567 94.4306L102.744 95.4024L101.098 93.6191L102.659 92.9482Z" fill="#FFC3BD"/>
<path d="M86.2416 86.1179C88.3621 85.3037 89.9912 86.5202 92.6592 89.8899L89.5345 93.102C89.5345 93.102 82.124 87.6987 86.2416 86.1179Z" fill="#263238"/>
<path opacity="0.2" d="M90.2067 89.6036C89.2079 88.956 88.3381 89.1397 87.6055 89.7408C87.8827 90.767 88.5934 91.9439 89.2766 92.907C89.4384 93.0332 89.5345 93.1018 89.5345 93.1018L91.2769 91.31C91.1449 90.5228 90.7582 89.9576 90.2067 89.6036Z" fill="black"/>
<path d="M102.326 108.514L104.854 108.221L104.645 103.034L102.117 103.327L102.326 108.514Z" fill="#FFC3BD"/>
<path d="M104.876 107.13L102.029 107.17C101.936 107.171 101.86 107.244 101.846 107.344L101.524 109.585C101.49 109.817 101.666 110.034 101.879 110.027C102.765 109.998 103.171 109.93 104.288 109.914C104.975 109.904 107.052 109.953 108.001 109.94C108.929 109.926 109.016 108.881 108.622 108.792C106.856 108.394 105.841 107.828 105.252 107.279C105.146 107.18 105.012 107.128 104.876 107.13Z" fill="#263238"/>
<path d="M105.481 106.469C105.555 106.439 105.637 106.449 105.725 106.498C105.801 106.54 105.822 106.601 105.828 106.644C105.86 106.919 105.288 107.382 105.222 107.434C105.208 107.446 105.187 107.447 105.169 107.437C105.152 107.426 105.141 107.407 105.143 107.386C105.162 107.102 105.227 106.606 105.453 106.482C105.462 106.477 105.471 106.472 105.481 106.469ZM105.25 107.277C105.474 107.084 105.748 106.795 105.73 106.651C105.728 106.632 105.721 106.609 105.683 106.588C105.614 106.549 105.554 106.545 105.503 106.573C105.381 106.64 105.289 106.899 105.25 107.277Z" fill="#407BFF"/>
<path d="M105.454 107.186C105.672 107.1 105.935 107.049 106.067 107.132C106.107 107.158 106.171 107.218 106.149 107.343C106.135 107.423 106.093 107.483 106.025 107.522C105.77 107.667 105.201 107.45 105.177 107.441C105.16 107.435 105.148 107.42 105.144 107.402C105.14 107.384 105.145 107.366 105.158 107.354C105.218 107.299 105.328 107.237 105.454 107.186ZM105.946 107.445C105.956 107.441 105.966 107.436 105.974 107.431C106.018 107.406 106.043 107.37 106.052 107.319C106.064 107.255 106.041 107.232 106.02 107.219C105.893 107.139 105.505 107.244 105.297 107.378C105.479 107.436 105.784 107.509 105.946 107.445Z" fill="#407BFF"/>
<path opacity="0.2" d="M102.117 103.328L104.646 103.035L104.752 105.709L102.212 105.721L102.117 103.328Z" fill="black"/>
<path d="M89.7175 100.318C89.7175 100.318 96.2795 94.213 100.532 94.1214C103.644 94.0546 105.867 104.339 105.867 104.339L102.18 104.411C102.18 104.411 101.532 100.774 99.1143 99.7692C95.6258 105.007 81.3994 115.358 82.7548 104.138C84.8562 103.344 89.7175 100.318 89.7175 100.318Z" fill="#407BFF"/>
<path opacity="0.2" d="M89.7175 100.318C89.7175 100.318 96.2795 94.213 100.532 94.1214C103.644 94.0546 105.867 104.339 105.867 104.339L102.18 104.411C102.18 104.411 101.532 100.774 99.1143 99.7692C95.6258 105.007 81.3994 115.358 82.7548 104.138C84.8562 103.344 89.7175 100.318 89.7175 100.318Z" fill="black"/>
<path d="M105.86 104.852L101.516 105.269L101.529 103.685L106.126 103.139L105.86 104.852Z" fill="#263238"/>
<path d="M81.101 104.527C81.101 104.527 78.2783 99.0165 77.938 90.1374C77.8578 88.0457 79.7409 86.075 81.8917 85.9628C83.7043 85.8683 85.6194 85.8442 87.1638 85.8506C88.7145 85.8566 89.9046 86.886 90.0818 88.3781C90.473 91.6747 90.5401 96.6754 92.562 102.638L81.101 104.527Z" fill="#263238"/>
<path opacity="0.2" d="M79.2578 90.1832C80.8106 88.4254 81.3463 88.9854 81.5794 89.1966C83.7344 91.1494 80.5709 97.2222 79.9376 98.1179C79.5455 96.1488 79.2356 93.8377 79.135 91.2373C79.1223 90.8785 79.1646 90.5253 79.2578 90.1832Z" fill="black"/>
<path d="M83.9943 80.6865C83.8206 82.3038 83.3924 84.7888 82.291 85.943C83.1577 86.7567 84.5667 87.5598 86.5707 87.895C87.6067 87.4668 87.7442 86.5143 87.2429 85.8519C85.4735 85.5428 85.4931 85.0409 86.1628 83.9139L83.9943 80.6865Z" fill="#FFC3BD"/>
<path opacity="0.2" d="M84.8779 82.0029L86.1617 83.9119C86.0023 84.1786 85.8352 84.4909 85.7689 84.7591C85.1409 84.5051 84.4426 83.5333 84.5851 82.8277C84.6564 82.476 84.7726 82.1494 84.8779 82.0029Z" fill="black"/>
<path d="M88.6308 77.7025C89.6678 78.8037 91.8495 78.8092 90.9129 77.504C89.9765 76.1988 87.8233 76.8448 88.6308 77.7025Z" fill="#263238"/>
<path d="M84.4261 77.5849C83.8475 79.6848 83.4045 80.8794 84.061 82.3383C85.0489 84.5329 87.8566 84.5875 89.0382 82.7327C90.1016 81.0634 90.8693 77.9097 89.1774 76.3059C87.5102 74.7256 85.0046 75.4848 84.4261 77.5849Z" fill="#FFC3BD"/>
<path d="M83.9561 79.5419C84.2153 79.4963 85.5245 79.0995 86.161 78.488C86.878 77.7993 86.8828 77.1335 86.6845 76.8288C86.4863 76.5239 84.9802 75.9415 84.2761 76.0767C83.163 76.29 83.4376 78.2618 83.4529 78.7953C83.4682 79.3286 83.9561 79.5419 83.9561 79.5419Z" fill="#FFC3BD"/>
<path opacity="0.7" d="M83.9561 79.5419C84.2153 79.4963 85.5245 79.0995 86.161 78.488C86.878 77.7993 86.8828 77.1335 86.6845 76.8288C86.4863 76.5239 84.9802 75.9415 84.2761 76.0767C83.163 76.29 83.4376 78.2618 83.4529 78.7953C83.4682 79.3286 83.9561 79.5419 83.9561 79.5419Z" fill="#263238"/>
<path d="M82.8453 79.6888C83.0615 80.1783 83.476 80.5318 83.8786 80.6957C84.4844 80.9426 84.8305 80.4214 84.6985 79.8129C84.5797 79.2651 84.1214 78.4765 83.4958 78.4884C82.8796 78.5003 82.5979 79.1291 82.8453 79.6888Z" fill="#FFC3BD"/>
<path d="M84.8327 76.7046C87.5242 77.2809 89.4379 78.7965 90.712 77.8849C91.613 77.2403 91.0214 76.0655 89.9886 75.2154C89.1074 74.4902 87.8877 74.2652 87.5075 73.6699C87.3262 74.322 87.9238 74.7267 87.9238 74.7267C87.9238 74.7267 85.4911 74.3526 84.8184 73.7185C84.6569 74.0966 85.2817 74.8247 85.2817 74.8247C85.2817 74.8247 84.5938 75.4765 82.627 74.7402C82.7571 75.3719 83.3023 76.3767 84.8327 76.7046Z" fill="#263238"/>
<path d="M90.1794 78.0987C90.1443 78.0987 90.1089 78.0976 90.073 78.095L90.082 77.9582C90.6029 77.9912 91.0234 77.7491 91.204 77.3069C91.3872 76.8581 91.3077 76.1781 90.7169 75.6699C90.5055 75.488 90.2409 75.3554 89.9611 75.2147C89.3341 74.9003 88.6239 74.5439 88.2812 73.5066L88.4114 73.4639C88.7361 74.4467 89.3903 74.7746 90.0226 75.092C90.3104 75.2364 90.5823 75.3726 90.8064 75.5656C91.449 76.1184 91.5329 76.8645 91.331 77.3589C91.1393 77.8275 90.7135 78.0987 90.1794 78.0987Z" fill="#263238"/>
<path d="M87.4752 79.636C87.4179 79.8028 87.4586 79.9731 87.5658 80.0159C87.6729 80.0586 87.8063 79.958 87.8633 79.7912C87.9206 79.6243 87.8799 79.4541 87.7727 79.4113C87.6658 79.3683 87.5325 79.4691 87.4752 79.636Z" fill="#263238"/>
<path d="M89.4674 80.2355C89.4101 80.4023 89.4507 80.5726 89.5579 80.6154C89.6651 80.6581 89.7984 80.5576 89.8555 80.3907C89.9128 80.2239 89.8721 80.0536 89.7649 80.0108C89.6577 79.9681 89.5244 80.0686 89.4674 80.2355Z" fill="#263238"/>
<path d="M88.7357 80.0352C88.7357 80.0352 88.7787 81.1474 89.0301 81.7762C88.6454 81.936 88.1953 81.6128 88.1953 81.6128L88.7357 80.0352Z" fill="#ED847E"/>
<path d="M87.1174 82.013C86.5229 81.678 86.3846 81.1215 86.3785 81.0956C86.3716 81.0671 86.3885 81.0394 86.4157 81.0333C86.4429 81.0275 86.4706 81.0457 86.4775 81.0742C86.4791 81.0808 86.642 81.7279 87.3595 82.0146C87.3859 82.0254 87.4002 82.0558 87.3909 82.083C87.3817 82.1102 87.3526 82.1234 87.326 82.1128C87.2507 82.0827 87.1816 82.0492 87.1174 82.013Z" fill="#263238"/>
<path d="M86.9345 78.5436C86.9195 78.5352 86.906 78.5227 86.896 78.5066C86.8648 78.457 86.8775 78.3921 86.9242 78.3617C87.3939 78.0576 87.8287 78.2616 87.8469 78.2704C87.8989 78.2954 87.9227 78.3583 87.9002 78.4108C87.8781 78.4631 87.8184 78.4855 87.7667 78.461C87.7524 78.4544 87.4118 78.2989 87.037 78.5415C87.0055 78.5621 86.9662 78.5616 86.9345 78.5436Z" fill="#263238"/>
<path d="M90.1454 79.7435C90.1137 79.7327 90.087 79.7065 90.0764 79.6712C89.9418 79.2224 89.5904 79.098 89.5756 79.093C89.5218 79.0745 89.4904 79.0151 89.5059 78.9602C89.5215 78.905 89.5772 78.8749 89.6313 78.8929C89.6509 78.8998 90.1023 79.0539 90.2713 79.6162C90.2882 79.6725 90.2583 79.7303 90.2045 79.7456C90.1844 79.7509 90.1641 79.7498 90.1454 79.7435Z" fill="#263238"/>
<path d="M111.101 109.746L112.605 107.557L108.551 104.027L107.047 106.217L111.101 109.746Z" fill="#FFC3BD"/>
<path d="M111.564 106.523L109.797 108.724C109.738 108.797 109.74 108.904 109.801 108.981L111.175 110.692C111.318 110.87 111.586 110.872 111.719 110.699C112.275 109.981 112.647 109.43 113.364 108.538C113.804 107.989 115.192 106.383 115.8 105.626C116.395 104.885 115.713 104.137 115.394 104.39C113.962 105.524 112.686 106.217 111.915 106.324C111.775 106.343 111.651 106.415 111.564 106.523Z" fill="#263238"/>
<path d="M111.446 105.621C111.467 105.544 111.524 105.484 111.616 105.443C111.694 105.407 111.756 105.426 111.794 105.448C112.034 105.586 112.063 106.322 112.066 106.405C112.066 106.424 112.055 106.442 112.036 106.449C112.017 106.457 111.995 106.454 111.98 106.441C111.763 106.255 111.404 105.906 111.44 105.651C111.442 105.64 111.443 105.631 111.446 105.621ZM111.956 106.288C111.935 105.994 111.867 105.602 111.741 105.529C111.725 105.52 111.702 105.512 111.663 105.53C111.59 105.562 111.551 105.608 111.542 105.665C111.523 105.803 111.677 106.032 111.956 106.288Z" fill="#407BFF"/>
<path d="M112.006 106.07C112.066 105.843 112.183 105.602 112.329 105.546C112.373 105.529 112.46 105.514 112.547 105.607C112.602 105.665 112.625 105.734 112.616 105.812C112.579 106.104 112.066 106.431 112.044 106.444C112.029 106.454 112.01 106.455 111.993 106.448C111.976 106.44 111.965 106.425 111.963 106.408C111.955 106.326 111.971 106.2 112.006 106.07ZM112.507 105.829C112.51 105.819 112.512 105.809 112.513 105.799C112.519 105.749 112.505 105.706 112.47 105.669C112.425 105.622 112.393 105.626 112.37 105.635C112.23 105.689 112.082 106.063 112.066 106.31C112.221 106.2 112.462 105.998 112.507 105.829Z" fill="#407BFF"/>
<path opacity="0.2" d="M107.047 106.218L108.552 104.028L110.641 105.849L108.916 107.847L107.047 106.218Z" fill="black"/>
<path d="M85.2214 103.724C85.2214 103.724 96.759 92.0003 101.95 97.0168C105.185 100.143 109.937 104.449 109.937 104.449L107.173 107.127C107.173 107.127 100.198 103.419 98.3831 101.37C88.8506 112.025 80.3339 112.754 81.1009 104.527C83.3219 103.939 85.2214 103.724 85.2214 103.724Z" fill="#407BFF"/>
<path d="M110.757 104.474L107.733 108.275L106.449 107.412L109.54 103.376L110.757 104.474Z" fill="#263238"/>
<path d="M81.1402 89.3926L81.3677 94.1987C81.4108 94.996 81.4599 95.7906 81.5216 96.5686C81.5528 96.9575 81.5942 97.3403 81.6389 97.7075C81.6605 97.891 81.6853 98.0713 81.7136 98.2345C81.7397 98.4013 81.7746 98.5515 81.7967 98.6431C81.801 98.6571 81.8041 98.6719 81.806 98.6872C81.7986 98.6653 81.7851 98.6563 81.7695 98.6291C81.7363 98.5885 81.6866 98.527 81.6275 98.4911C81.5715 98.4502 81.5172 98.4285 81.4836 98.4214C81.4559 98.4124 81.4388 98.419 81.4533 98.4243C81.5018 98.4591 81.802 98.4523 82.0995 98.3826C82.7178 98.244 83.437 97.9744 84.1305 97.6611C84.8335 97.3519 85.5373 96.9958 86.2399 96.627C86.9434 96.2645 87.6488 95.8643 88.3339 95.4802L89.321 96.7928C88.0731 97.9359 86.7752 98.9623 85.3061 99.8742C84.9373 100.099 84.5569 100.315 84.1553 100.519C83.754 100.723 83.3311 100.912 82.8541 101.067C82.6149 101.145 82.3617 101.214 82.0771 101.264C81.7922 101.313 81.4749 101.346 81.0908 101.31C80.9026 101.294 80.6871 101.25 80.4675 101.175C80.2434 101.095 80.0087 100.976 79.7917 100.811C79.5783 100.644 79.383 100.436 79.2468 100.219C79.1718 100.109 79.1219 100.003 79.0657 99.8924L78.9659 99.6514C78.8571 99.3575 78.789 99.1133 78.732 98.8821C78.6728 98.6476 78.6258 98.4272 78.5825 98.2091C78.4967 97.773 78.4315 97.3485 78.3719 96.9287C78.2509 96.0892 78.163 95.2613 78.0894 94.435C77.9418 92.7808 77.856 91.1482 77.8262 89.4874L81.1402 89.3926Z" fill="#FFC3BD"/>
<path d="M80.3288 86.295C79.0854 86.437 77.2247 87.6081 77.1582 93.1025L82.4928 92.6816C82.4928 92.6816 84.9993 85.7614 80.3288 86.295Z" fill="#263238"/>
<path d="M92.8092 92.704L90.83 92.8339C90.6087 92.8484 90.3875 93.048 90.3387 93.2774L89.412 97.627C89.3632 97.8565 89.5041 98.0323 89.7256 98.0178L91.7049 97.8879C91.9261 97.8733 92.1473 97.6738 92.1962 97.4443L93.1228 93.0947C93.1716 92.8653 93.0307 92.6894 92.8092 92.704Z" fill="#407BFF"/>
<path d="M88.4862 95.3804L90.1262 94.8115L89.7212 97.3802C89.7212 97.3802 87.8949 97.7821 87.7441 96.7997L88.0092 95.924C88.0868 95.6674 88.274 95.4541 88.4862 95.3804Z" fill="#FFC3BD"/>
<path d="M91.999 95.026L91.2886 97.3119L89.7207 97.3795L90.1259 94.8105L91.999 95.026Z" fill="#FFC3BD"/>
<path d="M35.2099 41.172C33.9235 38.1806 40.9488 35.0493 42.9327 39.706C46.304 41.172 41.9947 47.4027 42.9705 48.4584C43.946 49.5142 44.6778 48.2338 44.6778 48.2338C44.6778 48.2338 45.662 50.8561 43.1534 52.9591C40.9018 54.8467 34.137 55.3583 34.1212 51.6407C34.1006 46.8161 36.9014 45.1048 35.2099 41.172Z" fill="#263238"/>
<path d="M41.672 103.98L39.782 105.08L35.2441 99.8916L37.599 97.7686L41.672 103.98Z" fill="#FF8B7B"/>
<path d="M39.567 104.604L41.5162 103.108C41.5872 103.054 41.6793 103.055 41.7379 103.112L43.0442 104.385C43.1796 104.517 43.1485 104.764 42.9829 104.887C42.2952 105.398 41.9396 105.612 41.0824 106.27C40.5552 106.674 39.5029 107.563 38.7748 108.122C38.0625 108.668 37.5015 108.037 37.7589 107.743C38.9129 106.426 39.1644 105.638 39.3522 104.926C39.3859 104.798 39.4633 104.683 39.567 104.604Z" fill="#263238"/>
<path d="M39.1278 105.388C38.9554 105.52 38.7774 105.617 38.632 105.611C38.5396 105.606 38.4672 105.563 38.4171 105.48C38.387 105.431 38.3846 105.377 38.41 105.325C38.5406 105.053 39.4805 104.852 39.5871 104.83C39.6083 104.826 39.6288 104.835 39.6386 104.853C39.6484 104.871 39.6449 104.894 39.6302 104.91C39.5034 105.051 39.3189 105.241 39.1278 105.388ZM38.5662 105.289C38.5346 105.313 38.5116 105.338 38.5 105.362C38.4897 105.384 38.4907 105.403 38.5039 105.424C38.538 105.48 38.5837 105.509 38.6439 105.511C38.8157 105.519 39.113 105.315 39.4522 104.961C39.1341 105.036 38.7307 105.163 38.5662 105.289Z" fill="#407BFF"/>
<path d="M39.6233 104.917C39.6175 104.922 39.6109 104.925 39.6037 104.927C39.3313 104.998 38.6591 104.962 38.553 104.753C38.5279 104.704 38.52 104.624 38.6259 104.526C38.7053 104.454 38.7975 104.417 38.9033 104.418C39.2492 104.421 39.6175 104.827 39.6328 104.844C39.6441 104.857 39.6476 104.875 39.6415 104.892C39.6381 104.902 39.6315 104.911 39.6233 104.917ZM38.7156 104.576C38.7075 104.582 38.6995 104.589 38.6919 104.596C38.6222 104.661 38.6383 104.693 38.6436 104.703C38.7072 104.828 39.1919 104.891 39.4923 104.849C39.3767 104.737 39.1219 104.519 38.8952 104.517C38.8268 104.517 38.7676 104.536 38.7156 104.576Z" fill="#407BFF"/>
<path d="M34.8001 52.0294C34.6749 52.5964 34.5329 53.1099 34.3758 53.6403C34.2206 54.1662 34.0551 54.6884 33.865 55.2037C33.4922 56.2354 33.0822 57.2587 32.5814 58.2508L32.1936 58.9908C32.0534 59.2339 31.9172 59.4773 31.7704 59.717L31.5434 60.0742C31.4636 60.1957 31.4037 60.3036 31.2955 60.4454C31.2429 60.5148 31.1904 60.5838 31.1199 60.6643C31.0465 60.7458 30.9784 60.8261 30.8187 60.9486C30.7155 61.0146 30.6405 61.0896 30.367 61.1616C30.3174 61.1751 30.2173 61.1883 30.1341 61.1878C30.0544 61.1896 29.9509 61.1764 29.8522 61.1479C29.661 61.097 29.4876 60.9702 29.3997 60.8734C29.2128 60.6674 29.1742 60.5156 29.1436 60.4254C29.113 60.3216 29.1035 60.2514 29.0945 60.1835C29.0702 59.9327 29.0861 59.7749 29.1027 59.6112C29.1214 59.4525 29.146 59.3055 29.1729 59.1621C29.2254 58.8762 29.2957 58.6053 29.3675 58.3374C29.5161 57.8022 29.6901 57.2896 29.8968 56.7748L30.9385 57.0071L30.8691 58.5787C30.8567 58.8361 30.8517 59.0919 30.849 59.335C30.8488 59.4562 30.8517 59.5742 30.8596 59.6814C30.8667 59.7833 30.8797 59.8926 30.8934 59.9053C30.8952 59.9029 30.8984 59.8984 30.8886 59.8577C30.8765 59.8308 30.8681 59.7408 30.7258 59.5837C30.66 59.5111 30.5156 59.4039 30.3564 59.3609C30.2738 59.3364 30.1864 59.3284 30.1233 59.3274C30.0565 59.3253 29.9736 59.3403 29.9396 59.3472C29.7321 59.405 29.7117 59.439 29.6629 59.4673C29.608 59.5072 29.6275 59.486 29.6381 59.4649L29.6983 59.3622L30.0526 58.7276C30.1719 58.5069 30.2804 58.278 30.3968 58.0552L30.7207 57.3672C31.1315 56.4363 31.5054 55.4783 31.8293 54.5001C31.9919 54.0115 32.1442 53.5183 32.2944 53.0252C32.4404 52.5357 32.579 52.0228 32.6989 51.5547L34.8001 52.0294Z" fill="#FF8B7B"/>
<path d="M33.8985 49.281C33.1308 49.4051 31.918 54.2706 31.918 54.2706L33.6828 55.6294C33.6828 55.6294 35.4561 52.1134 35.5305 50.5326C35.5841 49.3855 34.4753 49.1878 33.8985 49.281Z" fill="#FF8B7B"/>
<path d="M31.1274 57.2521L30.8288 54.832L29.4434 56.8654C29.4434 56.8654 29.621 57.7014 30.4756 57.8395L31.1274 57.2521Z" fill="#FF8B7B"/>
<path d="M40.8155 108.084L38.7041 108.157L38.2988 100.784L41.2303 100.826L40.8155 108.084Z" fill="#FF8B7B"/>
<path d="M38.558 107.484L40.9266 107.467C41.0129 107.466 41.0786 107.526 41.085 107.61L41.2278 109.481C41.2426 109.675 41.063 109.86 40.8643 109.858C40.0395 109.85 39.6448 109.804 38.6031 109.811C37.9624 109.816 37.0215 109.889 36.1365 109.895C35.2709 109.901 35.2638 109.027 35.6376 108.945C37.314 108.578 37.6081 108.087 38.1965 107.616C38.3027 107.531 38.4318 107.484 38.558 107.484Z" fill="#263238"/>
<path d="M33.7692 49.2668C33.7692 49.2668 32.7184 49.5311 32.7031 62.0246C36.0638 62.3219 39.5373 62.6292 41.1725 62.7739C41.5952 59.2914 41.9397 57.1514 44.7465 50.1763C44.7465 50.1763 43.0353 49.6306 41.2277 49.3811C39.8137 49.186 38.6534 49.0369 37.3817 49.0411C35.7051 49.0466 33.7692 49.2668 33.7692 49.2668Z" fill="#407BFF"/>
<path opacity="0.2" d="M43.077 51.7705L43.5271 53.3094C43.1738 54.2619 42.88 55.1038 42.6345 55.8617C42.3774 54.4396 42.7351 52.5826 43.077 51.7705Z" fill="black"/>
<path d="M30.8288 54.832L29.4434 56.8654L31.1261 56.7669L32.0253 54.9096L30.8288 54.832Z" fill="#FF8B7B"/>
<path d="M31.7069 59.5074L33.3036 59.4841C33.5248 59.481 33.693 59.2848 33.6626 59.0657L33.1687 55.5144C33.1431 55.3306 32.9847 55.1947 32.7991 55.1973L31.2024 55.2205C30.9812 55.2237 30.813 55.4199 30.8434 55.639L31.3373 59.1903C31.3629 59.374 31.5213 59.51 31.7069 59.5074Z" fill="#263238"/>
<path d="M41.5545 44.9883C41.1092 46.2124 40.4954 48.4733 41.2258 49.381C41.2258 49.381 39.6479 50.81 37.0269 51.9291C36.1441 49.8638 37.3799 49.0412 37.3799 49.0412C38.8137 48.8316 38.9459 47.7978 38.863 46.8088L41.5545 44.9883Z" fill="#FF8B7B"/>
<path d="M35.7531 43.584C35.5318 47.2499 33.3256 48.3009 33.8444 50.1763C34.5751 52.8184 37.5588 50.7479 37.5588 50.7479C37.5588 50.7479 35.9355 51.2738 35.8325 49.9934C35.7483 48.9448 39.495 49.1016 38.4549 46.6171C37.7888 45.0257 35.7531 43.584 35.7531 43.584Z" fill="#263238"/>
<path opacity="0.2" d="M40.7864 45.915L38.8652 46.8068C38.8856 47.041 38.8927 47.2773 38.8718 47.5046C39.2731 47.54 40.3117 47.2364 40.7053 46.5901C40.8558 46.3435 40.8104 46.0481 40.7864 45.915Z" fill="black"/>
<path d="M41.8876 41.5389C42.0808 43.6213 42.207 44.4986 41.3292 45.7191C40.0089 47.5547 37.4091 47.3364 36.5975 45.3537C35.867 43.5691 35.6741 40.4634 37.5659 39.3295C39.4297 38.2122 41.6943 39.4565 41.8876 41.5389Z" fill="#FF8B7B"/>
<path d="M41.4292 39.4541C39.7874 38.326 38.4225 40.4892 41.3379 42.5954C44.2529 44.7013 43.2928 40.7345 41.4292 39.4541Z" fill="#263238"/>
<path d="M40.5538 38.8482C41.2317 39.4578 37.1928 41.7063 34.9976 40.9631C32.8027 40.22 34.5631 38.5396 35.3635 38.3337C34.6777 38.9969 35.8781 40.0027 36.461 39.3741C37.0439 38.7453 39.1934 37.6248 40.5538 38.8482Z" fill="#263238"/>
<path d="M32.7021 62.0244C32.7021 62.0244 28.2326 80.9511 28.6239 85.7287C29.0811 91.3152 35.1909 100.319 35.1909 100.319L37.9975 97.7734C37.9975 97.7734 35.2107 90.396 33.1499 85.5914C33.8109 80.788 39.6443 67.2112 39.6443 62.6385L32.7021 62.0244Z" fill="#407BFF"/>
<path opacity="0.6" d="M32.7021 62.0244C32.7021 62.0244 28.2326 80.9511 28.6239 85.7287C29.0811 91.3152 35.1909 100.319 35.1909 100.319L37.9975 97.7734C37.9975 97.7734 35.2107 90.396 33.1499 85.5914C33.8109 80.788 39.6443 67.2112 39.6443 62.6385L32.7021 62.0244Z" fill="black"/>
<path d="M38.5144 98.1528L35.1991 100.625L34.3477 99.9783L37.9858 97.1084L38.5144 98.1528Z" fill="#407BFF"/>
<path opacity="0.2" d="M36.0079 70.3492C33.5466 73.7598 33.4259 80.0319 33.5796 83.5547C34.4246 80.317 36.1971 75.4827 37.6074 71.1282C37.5744 69.4547 37.16 68.7522 36.0079 70.3492Z" fill="black"/>
<path d="M34.291 62.04C34.291 62.04 35.9262 78.3856 36.473 83.9024C37.1224 90.4522 38.0757 100.957 38.0757 100.957L41.2292 100.826C41.2292 100.826 41.9206 91.9201 41.4066 86.0516C41.5009 78.262 42.649 67.6735 41.1714 62.7737L34.291 62.04Z" fill="#407BFF"/>
<path opacity="0.6" d="M34.291 62.04C34.291 62.04 35.9262 78.3856 36.473 83.9024C37.1224 90.4522 38.0757 100.957 38.0757 100.957L41.2292 100.826C41.2292 100.826 41.9206 91.9201 41.4066 86.0516C41.5009 78.262 42.649 67.6735 41.1714 62.7737L34.291 62.04Z" fill="black"/>
<path d="M41.4668 101.402L37.8506 101.3L37.5977 100.162L41.6889 100.049L41.4668 101.402Z" fill="#407BFF"/>
<path d="M38.6512 42.6879C38.6774 42.8558 38.6092 43.0058 38.4997 43.0229C38.3899 43.0398 38.2798 42.9176 38.2536 42.7497C38.2275 42.5818 38.2956 42.4318 38.4052 42.4147C38.515 42.3975 38.6251 42.52 38.6512 42.6879Z" fill="#263238"/>
<path d="M36.7528 42.9829C36.7789 43.1508 36.7108 43.3007 36.6012 43.3179C36.4914 43.3348 36.3813 43.2125 36.3552 43.0446C36.3291 42.8767 36.3972 42.7268 36.5067 42.7096C36.6166 42.6925 36.7266 42.8149 36.7528 42.9829Z" fill="#263238"/>
<path d="M36.5561 42.7111L36.1348 42.6572C36.1348 42.6572 36.3906 42.9402 36.5561 42.7111Z" fill="#263238"/>
<path d="M37.3761 43.1475C37.3761 43.1475 37.2031 43.9146 36.9434 44.3122C37.1973 44.4849 37.5595 44.3318 37.5595 44.3318L37.3761 43.1475Z" fill="#FF5652"/>
<path d="M38.652 44.7926C38.5673 44.8217 38.4749 44.8449 38.374 44.8605C38.3468 44.8647 38.3212 44.8459 38.317 44.8187C38.3128 44.7916 38.3307 44.7665 38.3587 44.7617C39.0953 44.6479 39.3603 44.0793 39.363 44.0735C39.3743 44.0481 39.4039 44.037 39.429 44.0484C39.4541 44.0597 39.4654 44.0893 39.4541 44.1144C39.444 44.1366 39.2313 44.5949 38.652 44.7926Z" fill="#263238"/>
<path d="M42.4655 42.9623C42.4405 43.3952 42.2179 43.7762 41.9481 44.0088C41.5423 44.3588 41.1123 44.0507 41.0352 43.5486C40.9655 43.0969 41.093 42.3704 41.5917 42.2138C42.0833 42.0594 42.4941 42.4673 42.4655 42.9623Z" fill="#FF8B7B"/>
<path d="M39.5163 41.6474C39.4904 41.6527 39.4624 41.648 39.4389 41.6319C39.073 41.3782 38.7314 41.5125 38.7274 41.5141C38.6767 41.5342 38.6181 41.5104 38.5973 41.4592C38.5764 41.4082 38.601 41.3502 38.6522 41.3291C38.6701 41.3219 39.0986 41.1527 39.5527 41.4679C39.5978 41.4993 39.6092 41.5616 39.5778 41.6068C39.5627 41.6284 39.5403 41.6424 39.5163 41.6474Z" fill="#263238"/>
<path d="M35.9309 42.2526C35.9074 42.2605 35.881 42.26 35.8567 42.2489C35.8068 42.2256 35.7849 42.1662 35.8081 42.1163C36.0399 41.6153 36.4953 41.5437 36.5148 41.5411C36.5695 41.5332 36.6202 41.5709 36.6278 41.6256C36.6357 41.68 36.598 41.7306 36.5436 41.7388C36.5257 41.7415 36.1735 41.8019 35.9892 42.2003C35.9773 42.2259 35.9557 42.2441 35.9309 42.2526Z" fill="#263238"/>
<path d="M45.3146 52.7109C45.355 53.0935 45.3759 53.4274 45.3878 53.7833C45.4004 54.1339 45.406 54.484 45.4039 54.8346C45.3925 55.5355 45.3479 56.2377 45.2674 56.9423C45.1892 57.6472 45.0585 58.3529 44.8714 59.057C44.779 59.4094 44.6625 59.76 44.5295 60.1082C44.4638 60.2825 44.3885 60.4556 44.3117 60.6283C44.3098 60.6346 44.2734 60.7115 44.2462 60.7606C44.2174 60.8155 44.1855 60.867 44.1501 60.9142C44.0799 61.0145 44.0031 61.0927 43.9223 61.1682C43.7634 61.3063 43.605 61.3942 43.46 61.4594C43.1733 61.5805 42.9336 61.6228 42.7111 61.6497C42.4893 61.6748 42.2858 61.679 42.0893 61.6759C41.697 61.6685 41.3338 61.6278 40.9771 61.5776C40.2677 61.4678 39.5908 61.3165 38.9256 61.1354C38.2613 60.9535 37.6087 60.7526 36.9622 60.5391C36.3178 60.3126 35.6823 60.0876 35.0469 59.821L35.3761 58.8059C36.0179 58.9458 36.6699 59.0945 37.3191 59.2188C37.9664 59.3548 38.6151 59.477 39.2608 59.5778C39.9058 59.6771 40.5489 59.7703 41.1717 59.8096C41.4811 59.831 41.7873 59.841 42.0653 59.8252C42.2036 59.8176 42.3354 59.8033 42.4457 59.7817C42.5542 59.7608 42.6448 59.7291 42.6649 59.7143C42.6712 59.7083 42.6575 59.7091 42.625 59.7368C42.6026 59.7523 42.5864 59.7724 42.5619 59.802L42.531 59.8487C42.5226 59.8606 42.5078 59.9012 42.5199 59.868C42.5703 59.7304 42.6202 59.5929 42.6635 59.4501C42.7515 59.166 42.8264 58.8732 42.8914 58.5744C43.0205 57.9759 43.0989 57.3547 43.1575 56.7264C43.2137 56.0975 43.233 55.4594 43.2322 54.8203C43.2348 54.5009 43.2303 54.1806 43.2195 53.8614C43.2074 53.5476 43.1918 53.2123 43.1715 52.9274L45.3146 52.7109Z" fill="#FF8B7B"/>
<path d="M44.737 50.1753C45.6481 50.7707 45.3397 55.948 45.3397 55.948L43.1953 56.377C43.1953 56.377 43.1757 53.7494 42.9463 52.0254C42.7916 50.8615 44.0881 49.7511 44.737 50.1753Z" fill="#FF8B7B"/>
<path d="M37.397 107.727C37.3471 107.665 37.332 107.584 37.3529 107.485C37.3703 107.4 37.4218 107.361 37.4616 107.344C37.7143 107.231 38.3268 107.64 38.3957 107.687C38.4112 107.697 38.4189 107.717 38.4139 107.737C38.4091 107.756 38.3933 107.772 38.3735 107.777C38.096 107.843 37.6031 107.928 37.4173 107.749C37.4099 107.742 37.4033 107.735 37.397 107.727ZM38.237 107.707C37.9867 107.551 37.6295 107.375 37.4965 107.435C37.4798 107.442 37.4593 107.456 37.4505 107.498C37.4342 107.576 37.4476 107.635 37.4896 107.675C37.5899 107.772 37.865 107.782 38.237 107.707Z" fill="#407BFF"/>
<path d="M38.0892 107.54C37.9416 107.358 37.8149 107.121 37.8553 106.97C37.8674 106.924 37.9067 106.846 38.0327 106.83C38.1127 106.819 38.1821 106.841 38.2394 106.895C38.4535 107.095 38.4165 107.703 38.4147 107.729C38.4134 107.746 38.4031 107.763 38.387 107.772C38.3711 107.781 38.3521 107.781 38.3371 107.773C38.2666 107.731 38.1744 107.645 38.0892 107.54ZM38.1892 106.993C38.1826 106.985 38.1755 106.977 38.1681 106.97C38.1314 106.936 38.0889 106.922 38.0379 106.929C37.9735 106.937 37.9582 106.965 37.9516 106.989C37.9128 107.134 38.1288 107.474 38.3183 107.632C38.3204 107.442 38.2993 107.128 38.1892 106.993Z" fill="#407BFF"/>
<path d="M41.379 62.2839L41.4714 63.0661C41.4915 63.1279 41.412 63.182 41.3141 63.1736L32.5973 62.4025C32.521 62.3956 32.464 62.3526 32.4669 62.3037L32.5147 61.5339C32.5181 61.4806 32.5915 61.4418 32.6749 61.4491L41.2515 62.2076C41.3146 62.2134 41.3663 62.2443 41.379 62.2839Z" fill="white"/>
<path d="M40.0705 63.148L40.3002 63.1683C40.3459 63.1723 40.3847 63.1517 40.3863 63.1224L40.4401 62.1213C40.4417 62.092 40.4056 62.0648 40.3599 62.0606L40.1299 62.0405C40.0843 62.0366 40.0455 62.0572 40.0439 62.0865L39.9903 63.0876C39.9887 63.1169 40.0246 63.144 40.0705 63.148Z" fill="#407BFF"/>
<path opacity="0.6" d="M40.0705 63.148L40.3002 63.1683C40.3459 63.1723 40.3847 63.1517 40.3863 63.1224L40.4401 62.1213C40.4417 62.092 40.4056 62.0648 40.3599 62.0606L40.1299 62.0405C40.0843 62.0366 40.0455 62.0572 40.0439 62.0865L39.9903 63.0876C39.9887 63.1169 40.0246 63.144 40.0705 63.148Z" fill="black"/>
<path d="M33.2307 62.5428L33.4604 62.5631C33.506 62.5671 33.5449 62.5465 33.5464 62.5172L33.6 61.5161C33.6016 61.4868 33.5654 61.4596 33.5198 61.4554L33.2901 61.4351C33.2444 61.4311 33.2056 61.4517 33.204 61.481L33.1504 62.4821C33.1489 62.5117 33.185 62.5388 33.2307 62.5428Z" fill="#407BFF"/>
<path opacity="0.6" d="M33.2307 62.5428L33.4604 62.5631C33.506 62.5671 33.5449 62.5465 33.5464 62.5172L33.6 61.5161C33.6016 61.4868 33.5654 61.4596 33.5198 61.4554L33.2901 61.4351C33.2444 61.4311 33.2056 61.4517 33.204 61.481L33.1504 62.4821C33.1489 62.5117 33.185 62.5388 33.2307 62.5428Z" fill="black"/>
<path d="M36.6506 62.8455L36.8803 62.8659C36.926 62.8698 36.9648 62.8492 36.9664 62.8199L37.02 61.8188C37.0215 61.7895 36.9854 61.7623 36.9397 61.7581L36.71 61.7378C36.6643 61.7338 36.6255 61.7544 36.624 61.7837L36.5704 62.7848C36.5688 62.8141 36.6049 62.8416 36.6506 62.8455Z" fill="#407BFF"/>
<path opacity="0.6" d="M36.6506 62.8455L36.8803 62.8659C36.926 62.8698 36.9648 62.8492 36.9664 62.8199L37.02 61.8188C37.0215 61.7895 36.9854 61.7623 36.9397 61.7581L36.71 61.7378C36.6643 61.7338 36.6255 61.7544 36.624 61.7837L36.5704 62.7848C36.5688 62.8141 36.6049 62.8416 36.6506 62.8455Z" fill="black"/>
<path d="M35.7066 58.9018L34.3959 57.1406L33.8457 59.2473C33.8457 59.2473 34.8273 60.1059 35.662 59.7714L35.7066 58.9018Z" fill="#FF8B7B"/>
<path d="M32.6946 56.7529L32.3281 58.5344L34.1107 59.4447L34.3945 57.1402L32.6946 56.7529Z" fill="#FF8B7B"/>
<path d="M38.4545 42.4169L38.0332 42.3633C38.0332 42.3633 38.2888 42.646 38.4545 42.4169Z" fill="#263238"/>
</svg>
