<svg width="132" height="132" viewBox="0 0 132 132" fill="none" xmlns="http://www.w3.org/2000/svg">
<g clip-path="url(#clip0_2940_23479)">
<path d="M132 100.953H0V101.019H132V100.953Z" fill="#EBEBEB"/>
<path d="M118.774 105.203H110.029V105.269H118.774V105.203Z" fill="#EBEBEB"/>
<path d="M87.4414 105.919H85.1465V105.985H87.4414V105.919Z" fill="#EBEBEB"/>
<path d="M109.766 102.751H104.699V102.817H109.766V102.751Z" fill="#EBEBEB"/>
<path d="M25.2526 103.194H13.8496V103.26H25.2526V103.194Z" fill="#EBEBEB"/>
<path d="M29.2754 103.194H27.6035V103.26H29.2754V103.194Z" fill="#EBEBEB"/>
<path d="M59.4395 104.31H34.709V104.376H59.4395V104.31Z" fill="#EBEBEB"/>
<path d="M62.571 89.1797H11.5928C10.762 89.1797 10.0859 88.5036 10.0859 87.6728V16.0147C10.0859 15.1839 10.762 14.5078 11.5928 14.5078H62.571C63.4015 14.5078 64.0776 15.1839 64.0776 16.0147V87.6728C64.0776 88.5036 63.4015 89.1797 62.571 89.1797ZM11.5928 14.5741C10.7982 14.5741 10.1519 15.2203 10.1519 16.015V87.673C10.1519 88.4677 10.7982 89.114 11.5928 89.114H62.571C63.3654 89.114 64.0116 88.4677 64.0116 87.673V16.0147C64.0116 15.2203 63.3654 14.5738 62.571 14.5738L11.5928 14.5741Z" fill="#EBEBEB"/>
<path d="M119.674 89.1797H68.6961C67.8653 89.1797 67.1895 88.5036 67.1895 87.6728V16.0147C67.1895 15.1839 67.8656 14.5078 68.6961 14.5078H119.674C120.505 14.5078 121.181 15.1839 121.181 16.0147V87.6728C121.181 88.5036 120.505 89.1797 119.674 89.1797ZM68.6961 14.5741C67.9017 14.5741 67.2555 15.2203 67.2555 16.015V87.673C67.2555 88.4677 67.9017 89.114 68.6961 89.114H119.674C120.469 89.114 121.115 88.4677 121.115 87.673V16.0147C121.115 15.2203 120.469 14.5738 119.674 14.5738L68.6961 14.5741Z" fill="#EBEBEB"/>
<path d="M63.9782 45.9043H26.4941V100.861H63.9782V45.9043Z" fill="#F0F0F0"/>
<path d="M62.6524 47.6348H27.8184V57.7848H62.6524V47.6348Z" fill="#E0E0E0"/>
<path d="M29.797 49.2783H27.8184V57.7852H29.797V49.2783Z" fill="#EBEBEB"/>
<path d="M39.3657 49.2783H37.3867V57.7852H39.3657V49.2783Z" fill="#EBEBEB"/>
<path d="M50.2276 49.0692L48.2773 49.4053L49.7218 57.7888L51.6721 57.4528L50.2276 49.0692Z" fill="#EBEBEB"/>
<path d="M32.2482 50.3984H30.2695V57.7841H32.2482V50.3984Z" fill="#EBEBEB"/>
<path d="M36.797 50.3984H34.8184V57.7841H36.797V50.3984Z" fill="#EBEBEB"/>
<path d="M48.2775 50.3984H46.2988V57.7841H48.2775V50.3984Z" fill="#EBEBEB"/>
<path d="M41.965 50.1469L40.0332 50.5762L41.6352 57.7861L43.567 57.3568L41.965 50.1469Z" fill="#EBEBEB"/>
<path d="M33.9602 48.8555H32.9707V57.7845H33.9602V48.8555Z" fill="#EBEBEB"/>
<path d="M45.7297 48.8555H44.7402V57.7845H45.7297V48.8555Z" fill="#EBEBEB"/>
<path d="M27.8183 69.542H62.6523V59.392H27.8183V69.542Z" fill="#E0E0E0"/>
<path d="M60.6737 69.542H62.6523V61.0354H60.6737V69.542Z" fill="#EBEBEB"/>
<path d="M51.105 69.542H53.084V61.0354H51.105V69.542Z" fill="#EBEBEB"/>
<path d="M38.7941 69.205L40.7441 69.541L42.1886 61.1575L40.2386 60.8215L38.7941 69.205Z" fill="#EBEBEB"/>
<path d="M58.2222 69.541H60.2012V62.1553H58.2222V69.541Z" fill="#EBEBEB"/>
<path d="M53.6734 69.541H55.6523V62.1553H53.6734V69.541Z" fill="#EBEBEB"/>
<path d="M42.1929 69.541H44.1719V62.1553H42.1929V69.541Z" fill="#EBEBEB"/>
<path d="M46.9044 69.1118L48.8359 69.541L50.4379 62.3311L48.5063 61.902L46.9044 69.1118Z" fill="#EBEBEB"/>
<path d="M56.5105 69.541H57.5V60.612H56.5105V69.541Z" fill="#EBEBEB"/>
<path d="M44.741 69.541H45.7305V60.612H44.741V69.541Z" fill="#EBEBEB"/>
<path d="M29.797 61.0352H27.8184V69.5418H29.797V61.0352Z" fill="#EBEBEB"/>
<path d="M32.2482 62.1562H30.2695V69.5419H32.2482V62.1562Z" fill="#EBEBEB"/>
<path d="M36.797 62.1562H34.8184V69.5419H36.797V62.1562Z" fill="#EBEBEB"/>
<path d="M33.9602 60.6123H32.9707V69.5413H33.9602V60.6123Z" fill="#EBEBEB"/>
<path d="M62.6524 71.1484H27.8184V81.2984H62.6524V71.1484Z" fill="#E0E0E0"/>
<path d="M49.7895 72.792H47.8105V81.2989H49.7895V72.792Z" fill="#EBEBEB"/>
<path d="M60.6514 72.5839L58.7012 72.9199L60.1456 81.3034L62.0959 80.9674L60.6514 72.5839Z" fill="#EBEBEB"/>
<path d="M42.6743 73.9121H40.6953V81.2978H42.6743V73.9121Z" fill="#EBEBEB"/>
<path d="M47.2228 73.9121H45.2441V81.2978H47.2228V73.9121Z" fill="#EBEBEB"/>
<path d="M58.7016 73.9121H56.7227V81.2978H58.7016V73.9121Z" fill="#EBEBEB"/>
<path d="M52.3886 73.6597L50.457 74.0889L52.059 81.2987L53.9906 80.8696L52.3886 73.6597Z" fill="#EBEBEB"/>
<path d="M44.384 72.3691H43.3945V81.2982H44.384V72.3691Z" fill="#EBEBEB"/>
<path d="M56.1555 72.3691H55.166V81.2982H56.1555V72.3691Z" fill="#EBEBEB"/>
<path d="M37.8838 72.5829L35.9336 72.9189L37.3781 81.3025L39.3283 80.9664L37.8838 72.5829Z" fill="#EBEBEB"/>
<path d="M35.936 73.9121H33.957V81.2978H35.936V73.9121Z" fill="#EBEBEB"/>
<path d="M29.623 73.6597L27.6914 74.0889L29.2934 81.2987L31.2249 80.8696L29.623 73.6597Z" fill="#EBEBEB"/>
<path d="M33.3899 72.3691H32.4004V81.2982H33.3899V72.3691Z" fill="#EBEBEB"/>
<path d="M20.0275 101.005H26.4941L26.4941 45.9041H20.0275L20.0275 101.005Z" fill="#E0E0E0"/>
<path d="M85.9143 99.5666H80.4199L83.3083 76.0424C83.4306 75.0466 84.3369 74.2393 85.3327 74.2393H87.2208H109.306L105.792 99.5666H85.9143Z" fill="#F5F5F5"/>
<path d="M103.34 99.5666H108.834L111.723 76.0424C111.845 75.0466 111.137 74.2393 110.141 74.2393H108.253C107.257 74.2393 106.351 75.0466 106.229 76.0424L103.34 99.5666Z" fill="#F0F0F0"/>
<path d="M101.316 99.5384L102.312 88.1603C102.356 87.6521 102.749 87.2437 103.255 87.179L103.665 87.1267C104.343 87.0401 104.87 86.4921 104.93 85.8104L105.111 83.7359C105.186 82.8856 104.516 82.1543 103.662 82.1543H112.844C113.698 82.1543 114.368 82.8856 114.294 83.7359L114.112 85.8104C114.052 86.4921 113.526 87.0401 112.847 87.1267L112.437 87.179C111.931 87.2437 111.539 87.6521 111.494 88.1603L110.499 99.5384C110.426 100.368 109.732 101.004 108.899 101.004H99.7168C100.549 101.004 101.244 100.368 101.316 99.5384Z" fill="#E6E6E6"/>
<path d="M76.0476 85.312C75.8913 83.5252 74.3952 82.1543 72.6016 82.1543H77.0444H80.5952C82.3888 82.1543 83.8849 83.5252 84.0412 85.312L84.8303 94.3316H76.8364L76.0476 85.312Z" fill="#E6E6E6"/>
<path d="M69.0507 82.1546H72.6015C74.3951 82.1546 75.8912 83.5255 76.0475 85.3123L76.8366 94.3316H95.8755L96.6646 85.312C96.8209 83.5252 98.317 82.1543 100.111 82.1543H103.661C104.515 82.1543 105.185 82.8856 105.111 83.7359L104.929 85.8104C104.869 86.4921 104.343 87.0402 103.664 87.1267L103.255 87.179C102.748 87.2437 102.356 87.6521 102.311 88.1603L101.316 99.5384C101.243 100.368 100.549 101.004 99.7159 101.004H72.9959C72.1633 101.004 71.4687 100.368 71.3961 99.5384L70.4006 88.1603C70.3562 87.6521 69.9634 87.2437 69.4575 87.179L69.0481 87.1267C68.3693 87.0402 67.8427 86.4921 67.783 85.8104L67.6014 83.7359C67.5269 82.8861 68.1972 82.1546 69.0507 82.1546Z" fill="#F0F0F0"/>
<path d="M26.9698 43.1587C26.9698 43.1587 26.6772 41.2307 28.0836 39.9944C29.4896 38.7581 29.3661 38.0229 28.9643 37.927C28.5625 37.8312 28.1916 39.0672 27.5735 39.4073C27.5735 39.4073 27.554 37.6456 28.1818 36.9967C28.8096 36.3478 29.1391 34.6759 28.5416 34.6463C27.9442 34.617 27.8824 35.6395 27.7589 36.3644C27.6353 37.0893 26.9695 38.1092 26.9695 38.1092C26.9695 38.1092 26.8396 36.5328 26.4338 35.8839C26.0281 35.235 27.1099 33.7513 26.6926 33.1024C26.2754 32.4535 25.5336 33.6896 25.5954 35.0803C25.6572 36.4711 26.5843 37.9545 26.3681 39.407C26.3681 39.407 25.9592 38.3872 25.5919 38.2945C25.2247 38.2018 24.8538 37.5273 24.6067 37.2773C24.3593 37.0273 24.0505 37.8927 24.6067 38.6963C25.1629 39.4999 26.5846 41.6497 26.3684 43.3871L26.9698 43.1587Z" fill="#E6E6E6"/>
<path d="M27.8108 42.2812L28.2712 45.171C28.4135 46.0633 27.724 46.8714 26.8203 46.8714H26.329C25.4253 46.8714 24.7357 46.0633 24.878 45.171L25.3385 42.2812H27.8108Z" fill="#E6E6E6"/>
<path d="M55.4546 46.3047H56.8887V40.14H55.4546V46.3047Z" fill="#EBEBEB"/>
<path d="M48.521 46.3047H49.9551V40.14H48.521V46.3047Z" fill="#EBEBEB"/>
<path d="M39.5985 46.0622L41.0117 46.3057L42.0585 40.2304L40.6452 39.9869L39.5985 46.0622Z" fill="#EBEBEB"/>
<path d="M53.6773 46.3047H55.1113V40.9524H53.6773V46.3047Z" fill="#EBEBEB"/>
<path d="M50.3804 46.3047H51.8145V40.9524H50.3804V46.3047Z" fill="#EBEBEB"/>
<path d="M42.062 46.3047H43.4961V40.9524H42.062V46.3047Z" fill="#EBEBEB"/>
<path d="M45.4751 45.9936L46.875 46.3047L48.0359 41.0797L46.636 40.7687L45.4751 45.9936Z" fill="#EBEBEB"/>
<path d="M52.4373 46.3047H53.1543V39.8338H52.4373V46.3047Z" fill="#EBEBEB"/>
<path d="M43.908 46.3047H44.625V39.8338H43.908V46.3047Z" fill="#EBEBEB"/>
<path d="M38.792 41.4111H31.8047V46.2349H38.792V41.4111Z" fill="#EBEBEB"/>
<path d="M62.7599 43.3867H56.9062V46.9882H62.7599V43.3867Z" fill="#EBEBEB"/>
<path d="M61.3938 40.2217H58.4668V43.8229H61.3938V40.2217Z" fill="#EBEBEB"/>
<path d="M110.303 35.4561H103.342V64.4657H110.303V35.4561Z" fill="#E0E0E0"/>
<path d="M83.5218 64.542H109.557V35.4558H83.5218V64.542Z" fill="#E0E0E0"/>
<path d="M82.6809 64.542H109.693V35.4558H82.6809V64.542Z" fill="#F0F0F0"/>
<path d="M83.8356 63.2061H108.584V36.3839H83.8356V63.2061Z" fill="white"/>
<path d="M83.8358 63.2061H84.2949V36.3839H83.8358V63.2061Z" fill="#E0E0E0"/>
<path d="M84.2168 55.6722V56.3955H108.648V55.6722H84.2168Z" fill="#E0E0E0"/>
<path d="M83.8362 55.6719H108.973V54.4575H83.8362V55.6719Z" fill="#F0F0F0"/>
<path d="M23.5961 32.7882C30.9667 17.0936 57.1396 19.3078 67.2397 30.3449C77.3399 41.3816 80.6235 48.455 89.7347 44.3324C98.8458 40.2097 110.463 41.3122 111.13 54.4077C111.797 67.5031 101.121 82.9891 84.1782 87.57C67.2355 92.151 67.2397 108.362 44.8158 105.091C32.59 103.308 32.3115 90.0801 34.038 79.1397C35.7646 68.1993 15.0483 50.9891 23.5961 32.7882Z" fill="#407BFF"/>
<path opacity="0.9" d="M23.5961 32.7882C30.9667 17.0936 57.1396 19.3078 67.2397 30.3449C77.3399 41.3816 80.6235 48.455 89.7347 44.3324C98.8458 40.2097 110.463 41.3122 111.13 54.4077C111.797 67.5031 101.121 82.9891 84.1782 87.57C67.2355 92.151 67.2397 108.362 44.8158 105.091C32.59 103.308 32.3115 90.0801 34.038 79.1397C35.7646 68.1993 15.0483 50.9891 23.5961 32.7882Z" fill="white"/>
<path d="M66.0012 112.876C94.2708 112.876 117.188 111.538 117.188 109.887C117.188 108.236 94.2708 106.897 66.0012 106.897C37.7315 106.897 14.8145 108.236 14.8145 109.887C14.8145 111.538 37.7315 112.876 66.0012 112.876Z" fill="#F5F5F5"/>
<path d="M84.9964 99.826H37.7615C36.6949 99.826 35.8301 98.9614 35.8301 97.8945V42.2771C35.8301 41.2106 36.6947 40.3457 37.7615 40.3457H84.9961C86.0627 40.3457 86.9275 41.2103 86.9275 42.2771V97.8945C86.9278 98.9611 86.0629 99.826 84.9964 99.826Z" fill="#407BFF"/>
<path opacity="0.6" d="M84.9964 99.826H37.7615C36.6949 99.826 35.8301 98.9614 35.8301 97.8945V42.2771C35.8301 41.2106 36.6947 40.3457 37.7615 40.3457H84.9961C86.0627 40.3457 86.9275 41.2103 86.9275 42.2771V97.8945C86.9278 98.9611 86.0629 99.826 84.9964 99.826Z" fill="white"/>
<path d="M78.6484 67.623H44.1074V73.5374H78.6484V67.623Z" fill="white"/>
<g opacity="0.4">
<path d="M47.1947 71.1551V71.3101H45.9961V69.6152H47.1582V69.7702H46.1753V70.3732H47.0518V70.5255H46.1753V71.1551H47.1947Z" fill="#263238"/>
<path d="M47.4375 70.5791H48.0719V70.7291H47.4375V70.5791Z" fill="#263238"/>
<path d="M50.5585 70.572V71.3104H50.3866V70.5889C50.3866 70.3201 50.2509 70.1823 50.021 70.1823C49.7596 70.1823 49.5949 70.3518 49.5949 70.6422V71.3104H49.423V70.5889C49.423 70.3201 49.2873 70.1823 49.055 70.1823C48.796 70.1823 48.6289 70.3518 48.6289 70.6422V71.3104H48.457V70.0368H48.6218V70.2694C48.7113 70.1168 48.876 70.0273 49.0891 70.0273C49.2997 70.0273 49.4642 70.1168 49.5418 70.2961C49.6339 70.1316 49.8156 70.0273 50.0455 70.0273C50.3552 70.0273 50.5585 70.2066 50.5585 70.572Z" fill="#263238"/>
<path d="M51.9858 70.5208V71.3101H51.8211V71.1116C51.7438 71.2423 51.5935 71.3223 51.3829 71.3223C51.0948 71.3223 50.918 71.172 50.918 70.9519C50.918 70.7557 51.0439 70.5912 51.4095 70.5912H51.8137V70.5136C51.8137 70.2958 51.6902 70.1773 51.4531 70.1773C51.2884 70.1773 51.1334 70.2354 51.0294 70.3272L50.952 70.1989C51.0803 70.0902 51.2691 70.0273 51.47 70.0273C51.7995 70.0271 51.9858 70.1915 51.9858 70.5208ZM51.814 70.9276V70.7193H51.4146C51.1674 70.7193 51.0877 70.8162 51.0877 70.9469C51.0877 71.0947 51.2063 71.1866 51.4098 71.1866C51.6033 71.1866 51.7461 71.0947 51.814 70.9276Z" fill="#263238"/>
<path d="M52.416 69.6346C52.416 69.5694 52.4717 69.5137 52.5419 69.5137C52.6122 69.5137 52.6679 69.567 52.6679 69.6322C52.6679 69.7024 52.6145 69.7581 52.5419 69.7581C52.4717 69.7579 52.416 69.7022 52.416 69.6346ZM52.4546 70.0364H52.6264V71.3099H52.4546V70.0364Z" fill="#263238"/>
<path d="M53.1055 69.5137H53.2773V71.3102H53.1055V69.5137Z" fill="#263238"/>
</g>
<path d="M78.6484 75.7021H44.1074V81.6165H78.6484V75.7021Z" fill="white"/>
<g opacity="0.4">
<path d="M47.3249 78.2852C47.3249 78.6461 47.0636 78.8639 46.6324 78.8639H46.1773V79.3987H45.998V77.7041H46.6324C47.0636 77.7044 47.3249 77.9222 47.3249 78.2852ZM47.1457 78.2852C47.1457 78.0143 46.9667 77.8593 46.6277 77.8593H46.1773V78.7065H46.6277C46.9667 78.7065 47.1457 78.5515 47.1457 78.2852Z" fill="#263238"/>
<path d="M48.6245 78.6099V79.399H48.4598V79.2005C48.3822 79.3311 48.2322 79.4111 48.0215 79.4111C47.7335 79.4111 47.5566 79.2612 47.5566 79.0407C47.5566 78.8448 47.6826 78.6801 48.0482 78.6801H48.4524V78.6025C48.4524 78.3847 48.3288 78.2662 48.0918 78.2662C47.9273 78.2662 47.7723 78.3245 47.668 78.4161L47.5907 78.2881C47.719 78.179 47.9078 78.1162 48.1087 78.1162C48.4379 78.1159 48.6245 78.2807 48.6245 78.6099ZM48.4527 79.0165V78.8084H48.0532C47.8061 78.8084 47.7264 78.905 47.7264 79.0357C47.7264 79.1833 47.8449 79.2754 48.0485 79.2754C48.242 79.2754 48.3848 79.1833 48.4527 79.0165Z" fill="#263238"/>
<path d="M48.916 79.2533L48.9934 79.1176C49.095 79.1976 49.2671 79.2605 49.4461 79.2605C49.6882 79.2605 49.7875 79.1778 49.7875 79.0522C49.7875 78.7206 48.962 78.9819 48.962 78.4785C48.962 78.2702 49.1412 78.1152 49.4657 78.1152C49.6301 78.1152 49.8094 78.1612 49.916 78.2338L49.8411 78.3718C49.7297 78.2945 49.5966 78.2631 49.4659 78.2631C49.2357 78.2631 49.1343 78.3526 49.1343 78.4737C49.1343 78.8175 49.9599 78.5582 49.9599 79.0474C49.9599 79.2679 49.7664 79.4107 49.4345 79.4107C49.2236 79.4107 49.02 79.3428 48.916 79.2533Z" fill="#263238"/>
<path d="M50.0996 79.2533L50.1772 79.1176C50.2789 79.1976 50.451 79.2605 50.63 79.2605C50.8721 79.2605 50.9716 79.1778 50.9716 79.0522C50.9716 78.7206 50.1461 78.9819 50.1461 78.4785C50.1461 78.2702 50.3253 78.1152 50.6498 78.1152C50.8145 78.1152 50.9935 78.1612 51.1002 78.2338L51.0252 78.3718C50.9138 78.2945 50.7807 78.2631 50.6501 78.2631C50.4198 78.2631 50.3185 78.3526 50.3185 78.4737C50.3185 78.8175 51.144 78.5582 51.144 79.0474C51.144 79.2679 50.9505 79.4107 50.6186 79.4107C50.4072 79.4107 50.2036 79.3428 50.0996 79.2533Z" fill="#263238"/>
<path d="M53.3061 78.126L52.8243 79.3993H52.6622L52.2601 78.3559L51.8583 79.3993H51.6962L51.2168 78.126H51.3813L51.7807 79.2081L52.1899 78.126H52.3377L52.7443 79.2081L53.1487 78.126H53.3061Z" fill="#263238"/>
<path d="M53.4004 78.7625C53.4004 78.3847 53.6763 78.1162 54.0493 78.1162C54.4223 78.1162 54.6958 78.385 54.6958 78.7625C54.6958 79.1403 54.4223 79.4114 54.0493 79.4114C53.6765 79.4114 53.4004 79.1403 53.4004 78.7625ZM54.5216 78.7625C54.5216 78.4647 54.3207 78.2662 54.0496 78.2662C53.7784 78.2662 53.5752 78.4647 53.5752 78.7625C53.5752 79.0603 53.7787 79.2588 54.0496 79.2588C54.3204 79.2588 54.5216 79.0603 54.5216 78.7625Z" fill="#263238"/>
<path d="M55.6884 78.1162V78.2833C55.6739 78.2833 55.6594 78.2809 55.6472 78.2809C55.3808 78.2809 55.2187 78.4504 55.2187 78.7503V79.3993H55.0469V78.126H55.2116V78.3752C55.2913 78.2054 55.4537 78.1162 55.6884 78.1162Z" fill="#263238"/>
<path d="M57.1479 77.6025V79.3991H56.9831V79.1472C56.8791 79.3191 56.7025 79.4112 56.4918 79.4112C56.1285 79.4112 55.8574 79.1472 55.8574 78.7623C55.8574 78.3774 56.1285 78.116 56.4918 78.116C56.6951 78.116 56.8696 78.2031 56.976 78.3679V77.6028H57.1479V77.6025ZM56.9786 78.7623C56.9786 78.4645 56.7753 78.266 56.5063 78.266C56.2352 78.266 56.0319 78.4645 56.0319 78.7623C56.0319 79.0601 56.2352 79.2586 56.5063 79.2586C56.7751 79.2586 56.9786 79.0601 56.9786 78.7623Z" fill="#263238"/>
</g>
<path opacity="0.2" d="M78.6484 87.6494H44.1074V93.5638H78.6484V87.6494Z" fill="black"/>
<g opacity="0.5">
<path d="M52.5096 84.9306H51.9457L51.8243 85.2009H51.7129L52.1757 84.1885H52.2813L52.7441 85.2009H52.6313L52.5096 84.9306ZM52.4708 84.8437L52.228 84.2999L51.9851 84.8437H52.4708Z" fill="black"/>
<path d="M52.8906 84.1279H52.9933V85.2008H52.8906V84.1279Z" fill="black"/>
<path d="M53.6626 84.4346V84.5344C53.6539 84.5344 53.6452 84.5328 53.6381 84.5328C53.4789 84.5328 53.382 84.6342 53.382 84.8137V85.2012H53.2793V84.4404H53.3775V84.5893C53.4256 84.4882 53.5222 84.4346 53.6626 84.4346Z" fill="black"/>
<path d="M54.5046 84.8525H53.8683C53.8799 85.0117 54.0014 85.1173 54.1677 85.1173C54.2604 85.1173 54.3427 85.084 54.4005 85.0175L54.4584 85.084C54.3905 85.1651 54.2849 85.2084 54.1648 85.2084C53.9277 85.2084 53.7656 85.0465 53.7656 84.8208C53.7656 84.5953 53.9232 84.4346 54.1373 84.4346C54.3514 84.4346 54.5061 84.5922 54.5061 84.8208C54.5061 84.8292 54.5046 84.8409 54.5046 84.8525ZM53.8683 84.7759H54.4077C54.3947 84.627 54.2862 84.5227 54.1373 84.5227C53.9898 84.5227 53.8813 84.627 53.8683 84.7759Z" fill="black"/>
<path d="M55.2687 84.7295V85.201H55.1705V85.0824C55.1243 85.1606 55.0345 85.2084 54.9086 85.2084C54.7365 85.2084 54.6309 85.1186 54.6309 84.9871C54.6309 84.8699 54.7061 84.7717 54.9244 84.7717H55.166V84.7255C55.166 84.5953 55.0923 84.5243 54.9506 84.5243C54.8521 84.5243 54.7597 84.5589 54.6974 84.6141L54.6512 84.5373C54.7277 84.4723 54.8407 84.4346 54.9606 84.4346C55.1573 84.4346 55.2687 84.5328 55.2687 84.7295ZM55.166 84.9726V84.848H54.9273C54.7798 84.848 54.732 84.9061 54.732 84.9842C54.732 85.0724 54.803 85.1273 54.9244 85.1273C55.0401 85.1273 55.1253 85.0724 55.166 84.9726Z" fill="black"/>
<path d="M56.2452 84.1279V85.2008H56.147V85.0506C56.0847 85.1533 55.9791 85.2082 55.8534 85.2082C55.6367 85.2082 55.4746 85.0506 55.4746 84.8207C55.4746 84.5907 55.6367 84.4344 55.8534 84.4344C55.9749 84.4344 56.0789 84.4864 56.1428 84.5847V84.1279H56.2452ZM56.1441 84.8207C56.1441 84.6427 56.0227 84.5242 55.8622 84.5242C55.7001 84.5242 55.5786 84.6427 55.5786 84.8207C55.5786 84.9986 55.7001 85.1171 55.8622 85.1171C56.0227 85.1171 56.1441 84.9986 56.1441 84.8207Z" fill="black"/>
<path d="M57.17 84.4404L56.7898 85.2924C56.7262 85.4413 56.6451 85.489 56.5366 85.489C56.4659 85.489 56.3978 85.4661 56.3516 85.4196L56.3993 85.343C56.4368 85.3808 56.483 85.4009 56.5382 85.4009C56.6061 85.4009 56.6525 85.3692 56.6958 85.2736L56.7291 85.2L56.3891 84.4407H56.496L56.7824 85.0872L57.0686 84.4407H57.17V84.4404Z" fill="black"/>
<path d="M58.2689 84.7295V85.201H58.1705V85.0824C58.1243 85.1606 58.0345 85.2084 57.9086 85.2084C57.7365 85.2084 57.6309 85.1186 57.6309 84.9871C57.6309 84.8699 57.7061 84.7717 57.9244 84.7717H58.166V84.7255C58.166 84.5953 58.0923 84.5243 57.9506 84.5243C57.8521 84.5243 57.7597 84.5589 57.6977 84.6141L57.6515 84.5373C57.728 84.4723 57.841 84.4346 57.9609 84.4346C58.1575 84.4346 58.2689 84.5328 58.2689 84.7295ZM58.1663 84.9726V84.848H57.9276C57.78 84.848 57.7322 84.9061 57.7322 84.9842C57.7322 85.0724 57.8033 85.1273 57.9247 85.1273C58.0403 85.1273 58.1256 85.0724 58.1663 84.9726Z" fill="black"/>
<path d="M60.1831 84.7591V85.2002H60.0804V84.7691C60.0804 84.6089 59.9993 84.5263 59.862 84.5263C59.7057 84.5263 59.6075 84.6276 59.6075 84.8011V85.2002H59.5048V84.7691C59.5048 84.6089 59.4238 84.5263 59.2849 84.5263C59.1302 84.5263 59.0304 84.6276 59.0304 84.8011V85.2002H58.9277V84.4394H59.0259V84.5783C59.0795 84.4872 59.1777 84.4336 59.305 84.4336C59.4309 84.4336 59.5291 84.4872 59.5753 84.5941C59.6302 84.4956 59.7387 84.4336 59.876 84.4336C60.0616 84.4339 60.1831 84.5408 60.1831 84.7591Z" fill="black"/>
<path d="M61.1296 84.8525H60.4933C60.5047 85.0117 60.6264 85.1173 60.7927 85.1173C60.8851 85.1173 60.9677 85.084 61.0255 85.0175L61.0834 85.084C61.0155 85.1651 60.9099 85.2084 60.7898 85.2084C60.5527 85.2084 60.3906 85.0465 60.3906 84.8208C60.3906 84.5953 60.5482 84.4346 60.7623 84.4346C60.9764 84.4346 61.1311 84.5922 61.1311 84.8208C61.1309 84.8292 61.1296 84.8409 61.1296 84.8525ZM60.4933 84.7759H61.0327C61.0197 84.627 60.9112 84.5227 60.7623 84.5227C60.6148 84.5227 60.5063 84.627 60.4933 84.7759Z" fill="black"/>
<path d="M62.5952 84.7591V85.2002H62.4925V84.7691C62.4925 84.6089 62.4114 84.5263 62.2741 84.5263C62.1179 84.5263 62.0196 84.6276 62.0196 84.8011V85.2002H61.9169V84.7691C61.9169 84.6089 61.8359 84.5263 61.697 84.5263C61.5423 84.5263 61.4425 84.6276 61.4425 84.8011V85.2002H61.3398V84.4394H61.4381V84.5783C61.4916 84.4872 61.5899 84.4336 61.7171 84.4336C61.843 84.4336 61.9412 84.4872 61.9874 84.5941C62.0423 84.4956 62.1509 84.4336 62.2881 84.4336C62.4737 84.4339 62.5952 84.5408 62.5952 84.7591Z" fill="black"/>
<path d="M63.6476 84.8207C63.6476 85.0506 63.4857 85.2082 63.2687 85.2082C63.1428 85.2082 63.0372 85.1533 62.9752 85.0506V85.2008H62.877V84.1279H62.9796V84.5847C63.0433 84.4864 63.1476 84.4344 63.269 84.4344C63.4855 84.4344 63.6476 84.5907 63.6476 84.8207ZM63.5449 84.8207C63.5449 84.6427 63.4218 84.5242 63.2613 84.5242C63.0992 84.5242 62.9778 84.6427 62.9778 84.8207C62.9778 84.9986 63.0992 85.1171 63.2613 85.1171C63.4218 85.1171 63.5449 84.9986 63.5449 84.8207Z" fill="black"/>
<path d="M64.5202 84.8525H63.8839C63.8956 85.0117 64.017 85.1173 64.1833 85.1173C64.276 85.1173 64.3584 85.084 64.4162 85.0175L64.474 85.084C64.4061 85.1651 64.3005 85.2084 64.1804 85.2084C63.9433 85.2084 63.7812 85.0465 63.7812 84.8208C63.7812 84.5953 63.9389 84.4346 64.153 84.4346C64.3671 84.4346 64.5218 84.5922 64.5218 84.8208C64.5215 84.8292 64.5202 84.8409 64.5202 84.8525ZM63.8839 84.7759H64.4233C64.4104 84.627 64.3019 84.5227 64.153 84.5227C64.0054 84.5227 63.8969 84.627 63.8839 84.7759Z" fill="black"/>
<path d="M65.1138 84.4346V84.5344C65.1051 84.5344 65.0964 84.5328 65.0892 84.5328C64.9303 84.5328 64.8332 84.6342 64.8332 84.8137V85.2012H64.7305V84.4404H64.8289V84.5893C64.8767 84.4882 64.9733 84.4346 65.1138 84.4346Z" fill="black"/>
<path d="M65.7809 84.4474C65.7809 84.3431 65.6956 84.2708 65.548 84.2708C65.4253 84.2708 65.3355 84.3112 65.2719 84.388L65.1953 84.3299C65.2735 84.2346 65.3936 84.1797 65.5554 84.1797C65.7579 84.1797 65.888 84.2766 65.888 84.4313C65.888 84.6784 65.6235 84.69 65.6235 84.897H65.5163C65.5163 84.6583 65.7809 84.6367 65.7809 84.4474ZM65.4947 85.1327C65.4947 85.091 65.528 85.0591 65.5699 85.0591C65.6135 85.0591 65.6465 85.091 65.6465 85.1327C65.6465 85.1731 65.6132 85.208 65.5699 85.208C65.528 85.208 65.4947 85.1731 65.4947 85.1327Z" fill="black"/>
<path d="M66.4961 84.1885H66.7305V85.01H67.2379V85.2009H66.4961V84.1885Z" fill="black"/>
<path d="M67.2891 84.8119C67.2891 84.5775 67.4699 84.4111 67.7173 84.4111C67.9646 84.4111 68.1439 84.5775 68.1439 84.8119C68.1439 85.0463 67.9646 85.2126 67.7173 85.2126C67.4696 85.2124 67.2891 85.0463 67.2891 84.8119ZM67.9153 84.8119C67.9153 84.6772 67.83 84.5965 67.717 84.5965C67.6043 84.5965 67.5174 84.6775 67.5174 84.8119C67.5174 84.9465 67.6043 85.0273 67.717 85.0273C67.83 85.0273 67.9153 84.9465 67.9153 84.8119Z" fill="black"/>
<path d="M69.0987 84.4228V85.0706C69.0987 85.36 68.9426 85.493 68.662 85.493C68.5144 85.493 68.3713 85.4568 68.2803 85.3861L68.37 85.2243C68.4365 85.2776 68.545 85.3124 68.6446 85.3124C68.8038 85.3124 68.8732 85.2401 68.8732 85.0996V85.0664C68.8138 85.1316 68.7285 85.1633 68.6274 85.1633C68.412 85.1633 68.2383 85.0144 68.2383 84.7873C68.2383 84.5603 68.4117 84.4111 68.6274 84.4111C68.7359 84.4111 68.8257 84.4476 68.8848 84.5225V84.4228H69.0987ZM68.8758 84.7873C68.8758 84.673 68.7906 84.5962 68.672 84.5962C68.5535 84.5962 68.4666 84.673 68.4666 84.7873C68.4666 84.9016 68.5535 84.9782 68.672 84.9782C68.7906 84.9782 68.8758 84.9016 68.8758 84.7873Z" fill="black"/>
<path d="M69.6914 84.1884C69.6914 84.1177 69.7476 84.0625 69.8316 84.0625C69.9155 84.0625 69.9718 84.1145 69.9718 84.1842C69.9718 84.2592 69.9155 84.3141 69.8316 84.3141C69.7479 84.3141 69.6914 84.2592 69.6914 84.1884ZM69.7189 84.4226H69.9443V85.2006H69.7189V84.4226Z" fill="black"/>
<path d="M70.9492 84.7551V85.2008H70.7237V84.79C70.7237 84.664 70.6659 84.6065 70.5661 84.6065C70.4576 84.6065 70.3798 84.673 70.3798 84.8161V85.2008H70.1543V84.4228H70.3697V84.5141C70.4304 84.4476 70.5215 84.4111 70.6271 84.4111C70.8103 84.4109 70.9492 84.5181 70.9492 84.7551Z" fill="black"/>
</g>
<path d="M78.6484 87.2871H44.1074V93.2015H78.6484V87.2871Z" fill="#407BFF"/>
<path d="M56.918 91.1633L56.4813 90.5416C56.4407 90.5445 56.3974 90.5471 56.3541 90.5471H55.8538V91.1633H55.5645V89.1387H56.3541C56.8805 89.1387 57.1986 89.4048 57.1986 89.8443C57.1986 90.1569 57.0368 90.3824 56.7532 90.4838L57.2332 91.1633H56.918ZM56.9093 89.8441C56.9093 89.5547 56.7155 89.39 56.3454 89.39H55.8538V90.3011H56.3454C56.7155 90.3013 56.9093 90.1334 56.9093 89.8441Z" fill="white"/>
<path d="M59.0078 90.4888H57.7641C57.7989 90.7578 58.0156 90.9371 58.3195 90.9371C58.4988 90.9371 58.6492 90.8761 58.762 90.752L58.9154 90.9313C58.7765 91.0934 58.5653 91.18 58.3108 91.18C57.8161 91.18 57.4863 90.8534 57.4863 90.3961C57.4863 89.9421 57.8132 89.6152 58.2559 89.6152C58.6984 89.6152 59.0136 89.9334 59.0136 90.4049C59.0133 90.4278 59.0104 90.4627 59.0078 90.4888ZM57.7638 90.2892H58.7472C58.7184 90.0316 58.5244 89.8497 58.2556 89.8497C57.9895 89.8497 57.7928 90.0289 57.7638 90.2892Z" fill="white"/>
<path d="M60.8658 89.6298V90.9545C60.8658 91.4954 60.591 91.7412 60.0704 91.7412C59.7898 91.7412 59.5065 91.6631 59.3389 91.5126L59.4719 91.2985C59.6137 91.4199 59.8362 91.4981 60.062 91.4981C60.4236 91.4981 60.5884 91.3304 60.5884 90.9833V90.8618C60.4553 91.021 60.2557 91.0989 60.0358 91.0989C59.5934 91.0989 59.2578 90.798 59.2578 90.3558C59.2578 89.9133 59.5934 89.6152 60.0358 89.6152C60.2644 89.6152 60.4725 89.6989 60.6026 89.8668V89.6298H60.8658ZM60.5937 90.3558C60.5937 90.0577 60.3737 89.8581 60.0672 89.8581C59.7578 89.8581 59.5379 90.0577 59.5379 90.3558C59.5379 90.6506 59.7578 90.8563 60.0672 90.8563C60.374 90.856 60.5937 90.6506 60.5937 90.3558Z" fill="white"/>
<path d="M61.3477 89.1558C61.3477 89.0547 61.4287 88.9736 61.5356 88.9736C61.6425 88.9736 61.7236 89.0518 61.7236 89.1503C61.7236 89.2545 61.6454 89.3353 61.5356 89.3353C61.4287 89.3353 61.3477 89.2572 61.3477 89.1558ZM61.3968 89.6302H61.6745V91.1633H61.3968V89.6302Z" fill="white"/>
<path d="M62.0098 91.0014L62.1254 90.7815C62.2555 90.8742 62.4638 90.9407 62.6634 90.9407C62.9208 90.9407 63.028 90.8626 63.028 90.7324C63.028 90.3881 62.0591 90.6862 62.0591 90.0761C62.0591 89.8013 62.3049 89.6162 62.6983 89.6162C62.8979 89.6162 63.1233 89.6682 63.2564 89.7548L63.1378 89.9747C62.999 89.885 62.8456 89.8533 62.6954 89.8533C62.4525 89.8533 62.3337 89.943 62.3337 90.0645C62.3337 90.4259 63.3057 90.131 63.3057 90.7269C63.3057 91.0046 63.0512 91.1809 62.6434 91.1809C62.3886 91.1807 62.137 91.1025 62.0098 91.0014Z" fill="white"/>
<path d="M64.5152 91.0735C64.4312 91.1458 64.304 91.1804 64.1797 91.1804C63.8703 91.1804 63.6939 91.0096 63.6939 90.7005V89.8588H63.4336V89.6305H63.6939V89.2949H63.9716V89.6305H64.4112V89.8588H63.9716V90.6891C63.9716 90.8541 64.0585 90.9468 64.2116 90.9468C64.2927 90.9468 64.3705 90.9206 64.4286 90.8744L64.5152 91.0735Z" fill="white"/>
<path d="M66.1796 90.4888H64.9357C64.9705 90.7578 65.1873 90.9371 65.4911 90.9371C65.6704 90.9371 65.8209 90.8761 65.9336 90.752L66.087 90.9313C65.9481 91.0934 65.7369 91.18 65.4824 91.18C64.9877 91.18 64.6582 90.8534 64.6582 90.3961C64.6582 89.9421 64.985 89.6152 65.4278 89.6152C65.8702 89.6152 66.1854 89.9334 66.1854 90.4049C66.1852 90.4278 66.1823 90.4627 66.1796 90.4888ZM64.9357 90.2892H65.9191C65.8903 90.0316 65.6963 89.8497 65.4275 89.8497C65.1614 89.8497 64.9647 90.0289 64.9357 90.2892Z" fill="white"/>
<path d="M67.3948 89.6152V89.8843C67.3718 89.8813 67.3515 89.8813 67.3312 89.8813C67.0334 89.8813 66.848 90.0635 66.848 90.399V91.1628H66.5703V89.6298H66.8364V89.8874C66.9349 89.7079 67.1258 89.6152 67.3948 89.6152Z" fill="white"/>
<g opacity="0.6">
<path d="M55.332 46.8886L55.4492 46.6415C55.614 46.7904 55.8957 46.8981 56.1808 46.8981C56.5639 46.8981 56.7286 46.7492 56.7286 46.5562C56.7286 46.0147 55.3862 46.3569 55.3862 45.5335C55.3862 45.1916 55.652 44.9004 56.2346 44.9004C56.4942 44.9004 56.7634 44.9701 56.9472 45.0968L56.8426 45.3502C56.6497 45.2267 56.4311 45.1697 56.2346 45.1697C55.8579 45.1697 55.6966 45.3281 55.6966 45.5211C55.6966 46.0625 57.0391 45.7238 57.0391 46.5375C57.0391 46.8762 56.7669 47.1676 56.1811 47.1676C55.8418 47.1674 55.5094 47.0533 55.332 46.8886Z" fill="#263238"/>
<path d="M57.4043 44.9447C57.4043 44.8338 57.4927 44.7451 57.61 44.7451C57.7272 44.7451 57.8159 44.8307 57.8159 44.9384C57.8159 45.0524 57.7303 45.1411 57.61 45.1411C57.4927 45.1409 57.4043 45.0553 57.4043 44.9447ZM57.4582 45.4637H57.762V47.142H57.4582V45.4637Z" fill="#263238"/>
<path d="M59.9459 45.4641V46.9142C59.9459 47.5064 59.6452 47.7757 59.0752 47.7757C58.7679 47.7757 58.4577 47.6901 58.274 47.5254L58.4197 47.291C58.5749 47.424 58.8186 47.5096 59.0657 47.5096C59.4615 47.5096 59.642 47.3261 59.642 46.9459V46.8129C59.4966 46.9871 59.278 47.0726 59.0372 47.0726C58.5528 47.0726 58.1855 46.7432 58.1855 46.2587C58.1855 45.7743 58.5528 45.4482 59.0372 45.4482C59.2872 45.4482 59.5153 45.5401 59.6579 45.7236V45.4641H59.9459ZM59.6484 46.259C59.6484 45.9329 59.4079 45.7144 59.0721 45.7144C58.7333 45.7144 58.4926 45.9329 58.4926 46.259C58.4926 46.5819 58.7333 46.8068 59.0721 46.8068C59.4079 46.8065 59.6484 46.5819 59.6484 46.259Z" fill="#263238"/>
<path d="M62.1198 46.1766V47.1423H61.8159V46.2115C61.8159 45.882 61.6515 45.7207 61.3632 45.7207C61.04 45.7207 60.8312 45.9139 60.8312 46.278V47.1423H60.5273V45.4641H60.8188V45.7175C60.9424 45.5467 61.1575 45.4482 61.4234 45.4482C61.8318 45.4482 62.1198 45.6827 62.1198 46.1766Z" fill="#263238"/>
<path d="M65.1015 45.4641V47.1424H64.8135V46.8889C64.6899 47.0632 64.4811 47.1611 64.2435 47.1611C63.8098 47.1611 63.5215 46.9238 63.5215 46.4296V45.4639H63.8253V46.3947C63.8253 46.7242 63.9901 46.8887 64.2781 46.8887C64.5946 46.8887 64.7974 46.6923 64.7974 46.3314V45.4639L65.1015 45.4641Z" fill="#263238"/>
<path d="M67.4198 46.3031C67.4198 46.8192 67.0621 47.1611 66.5713 47.1611C66.334 47.1611 66.1249 47.0692 65.9855 46.8889V47.7564H65.6816V45.4641H65.9731V45.7299C66.1093 45.543 66.3245 45.4482 66.5716 45.4482C67.0618 45.448 67.4198 45.7901 67.4198 46.3031ZM67.1125 46.3031C67.1125 45.9485 66.8688 45.7141 66.546 45.7141C66.2263 45.7141 65.9823 45.9485 65.9823 46.3031C65.9823 46.6608 66.226 46.8952 66.546 46.8952C66.8688 46.895 67.1125 46.6608 67.1125 46.3031Z" fill="#263238"/>
</g>
<path d="M78.6484 59.5439H44.1074V65.4583H78.6484V59.5439Z" fill="white"/>
<g opacity="0.4">
<path d="M45.998 61.5371H46.1773V63.0768H47.1264V63.2317H45.9983V61.5371H45.998Z" fill="#263238"/>
<path d="M48.355 62.4429V63.232H48.1903V63.0335C48.1129 63.1641 47.9627 63.2441 47.752 63.2441C47.464 63.2441 47.2871 63.0942 47.2871 62.8737C47.2871 62.6779 47.413 62.5131 47.7787 62.5131H48.1829V62.4358C48.1829 62.218 48.0593 62.0992 47.8222 62.0992C47.6575 62.0992 47.5025 62.1575 47.3985 62.2494L47.3209 62.1211C47.4492 62.0121 47.638 61.9492 47.8389 61.9492C48.1686 61.9487 48.355 62.1134 48.355 62.4429ZM48.1831 62.8497V62.6414H47.7837C47.5366 62.6414 47.4569 62.7383 47.4569 62.869C47.4569 63.0166 47.5754 63.1084 47.7789 63.1084C47.9725 63.1084 48.1153 63.0163 48.1831 62.8497Z" fill="#263238"/>
<path d="M48.6445 63.0863L48.7221 62.9506C48.8238 63.0306 48.9959 63.0935 49.1749 63.0935C49.417 63.0935 49.5165 63.0111 49.5165 62.8852C49.5165 62.5536 48.691 62.815 48.691 62.3115C48.691 62.1032 48.8703 61.9482 49.1947 61.9482C49.3592 61.9482 49.5384 61.9944 49.6448 62.0668L49.5699 62.2049C49.4584 62.1272 49.3254 62.0958 49.1947 62.0958C48.9645 62.0958 48.8631 62.1853 48.8631 62.3065C48.8631 62.6502 49.6887 62.3912 49.6887 62.8804C49.6887 63.1006 49.4951 63.2434 49.1633 63.2434C48.9521 63.2437 48.7485 63.1758 48.6445 63.0863Z" fill="#263238"/>
<path d="M50.6757 63.1541C50.6079 63.2146 50.5062 63.2436 50.407 63.2436C50.1673 63.2436 50.0342 63.1079 50.0342 62.8732V62.1034H49.8066V61.9582H50.0342V61.6797H50.2061V61.9582H50.5934V62.1034H50.2061V62.8637C50.2061 63.0137 50.2834 63.096 50.4262 63.096C50.4965 63.096 50.5667 63.0744 50.615 63.0308L50.6757 63.1541Z" fill="#263238"/>
<path d="M53.0746 61.5371V63.2317H52.9267L51.8375 61.8565V63.2317H51.6582V61.5371H51.806L52.8979 62.9123V61.5371H53.0746Z" fill="#263238"/>
<path d="M54.552 62.4429V63.232H54.3875V63.0335C54.3099 63.1641 54.16 63.2441 53.9493 63.2441C53.6613 63.2441 53.4844 63.0942 53.4844 62.8737C53.4844 62.6779 53.6103 62.5131 53.9759 62.5131H54.3801V62.4358C54.3801 62.218 54.2566 62.0992 54.0195 62.0992C53.8548 62.0992 53.7001 62.1575 53.5958 62.2494L53.5184 62.1211C53.6467 62.0121 53.8355 61.9492 54.0364 61.9492C54.3656 61.9487 54.552 62.1134 54.552 62.4429ZM54.3801 62.8497V62.6414H53.9807C53.7336 62.6414 53.6539 62.7383 53.6539 62.869C53.6539 63.0166 53.7724 63.1084 53.9759 63.1084C54.1695 63.1084 54.3123 63.0163 54.3801 62.8497Z" fill="#263238"/>
<path d="M57.121 62.4939V63.2323H56.9491V62.511C56.9491 62.242 56.8134 62.1042 56.5835 62.1042C56.3221 62.1042 56.1574 62.2739 56.1574 62.5641V63.2323H55.9855V62.511C55.9855 62.242 55.8498 62.1042 55.6175 62.1042C55.3585 62.1042 55.1914 62.2739 55.1914 62.5641V63.2323H55.0195V61.959H55.184V62.1913C55.2735 62.039 55.4382 61.9492 55.6513 61.9492C55.862 61.9492 56.0264 62.039 56.104 62.2182C56.1962 62.0535 56.3778 61.9492 56.6078 61.9492C56.9177 61.949 57.121 62.1282 57.121 62.4939Z" fill="#263238"/>
<path d="M58.7017 62.6488H57.6364C57.656 62.9152 57.8593 63.0921 58.1375 63.0921C58.2925 63.0921 58.4306 63.0364 58.5274 62.925L58.6243 63.0364C58.5105 63.1718 58.3337 63.2444 58.133 63.2444C57.736 63.2444 57.4648 62.9733 57.4648 62.5958C57.4648 62.218 57.7286 61.9492 58.0871 61.9492C58.4453 61.9492 58.7043 62.2132 58.7043 62.5958C58.7043 62.61 58.7017 62.6295 58.7017 62.6488ZM57.6364 62.5203H58.5396C58.5177 62.271 58.3363 62.0968 58.0868 62.0968C57.84 62.0968 57.6584 62.271 57.6364 62.5203Z" fill="#263238"/>
</g>
<path d="M78.6484 51.4648H44.1074V57.3792H78.6484V51.4648Z" fill="white"/>
<g opacity="0.4">
<path d="M46.1753 53.6127V54.2785H47.0518V54.4335H46.1753V55.1526H45.9961V53.458H47.1582V53.613L46.1753 53.6127Z" fill="#263238"/>
<path d="M47.4297 53.4774C47.4297 53.4119 47.4854 53.3564 47.5556 53.3564C47.6258 53.3564 47.6815 53.4098 47.6815 53.4752C47.6815 53.5455 47.6282 53.6012 47.5556 53.6012C47.4851 53.6006 47.4297 53.5449 47.4297 53.4774ZM47.4682 53.8792H47.6401V55.1527H47.4682V53.8792Z" fill="#263238"/>
<path d="M48.7607 53.8691V54.0363C48.7461 54.0363 48.7316 54.0339 48.7195 54.0339C48.4531 54.0339 48.291 54.2034 48.291 54.5035V55.1524H48.1191V53.8789H48.2839V54.1284C48.3636 53.9589 48.526 53.8691 48.7607 53.8691Z" fill="#263238"/>
<path d="M48.9043 55.007L48.9816 54.8713C49.0833 54.9513 49.2554 55.0141 49.4344 55.0141C49.6765 55.0141 49.7758 54.932 49.7758 54.8061C49.7758 54.4745 48.9502 54.7359 48.9502 54.2324C48.9502 54.0244 49.1295 53.8691 49.4539 53.8691C49.6187 53.8691 49.7977 53.9151 49.9043 53.9877L49.8294 54.1257C49.7179 54.0484 49.5849 54.0167 49.4542 54.0167C49.224 54.0167 49.1226 54.1062 49.1226 54.2274C49.1226 54.5711 49.9482 54.3121 49.9482 54.8011C49.9482 55.0215 49.7546 55.1643 49.4228 55.1643C49.2121 55.1646 49.0086 55.0967 48.9043 55.007Z" fill="#263238"/>
<path d="M50.9355 55.075C50.8676 55.1355 50.766 55.1645 50.6667 55.1645C50.427 55.1645 50.294 55.0288 50.294 54.7941V54.0243H50.0664V53.8791H50.294V53.6006H50.4658V53.8791H50.8531V54.0243H50.4658V54.7844C50.4658 54.9346 50.5435 55.0167 50.6863 55.0167C50.7565 55.0167 50.8267 54.9948 50.875 54.9515L50.9355 55.075Z" fill="#263238"/>
<path d="M53.3343 53.458V55.1526H53.1865L52.0972 53.7774V55.1526H51.918V53.458H52.0658L53.1577 54.8332V53.458H53.3343Z" fill="#263238"/>
<path d="M54.812 54.3628V55.1522H54.6473V54.9537C54.5697 55.0843 54.4197 55.1643 54.209 55.1643C53.921 55.1643 53.7441 55.0141 53.7441 54.7939C53.7441 54.5978 53.8701 54.4333 54.2357 54.4333H54.6399V54.3557C54.6399 54.1379 54.5163 54.0191 54.2793 54.0191C54.1145 54.0191 53.9596 54.0772 53.8555 54.1693L53.7782 54.041C53.9065 53.932 54.0953 53.8691 54.2962 53.8691C54.6254 53.8689 54.812 54.0336 54.812 54.3628ZM54.6399 54.7696V54.5614H54.2405C53.9934 54.5614 53.9136 54.6582 53.9136 54.7889C53.9136 54.9365 54.0322 55.0286 54.2357 55.0286C54.4295 55.0286 54.5723 54.9365 54.6399 54.7696Z" fill="#263238"/>
<path d="M57.3807 54.414V55.1524H57.2089V54.4309C57.2089 54.1622 57.0732 54.0244 56.8432 54.0244C56.5819 54.0244 56.4171 54.1939 56.4171 54.4843V55.1524H56.2453V54.4309C56.2453 54.1622 56.1096 54.0244 55.8773 54.0244C55.6183 54.0244 55.4512 54.1939 55.4512 54.4843V55.1524H55.2793V53.8789H55.444V54.1112C55.5335 53.9586 55.6983 53.8691 55.9113 53.8691C56.122 53.8691 56.2865 53.9586 56.3641 54.1379C56.4562 53.9732 56.6378 53.8691 56.8678 53.8691C57.1775 53.8691 57.3807 54.0484 57.3807 54.414Z" fill="#263238"/>
<path d="M58.9615 54.569H57.8962C57.9157 54.8354 58.119 55.012 58.3973 55.012C58.5523 55.012 58.6903 54.9563 58.7872 54.8449L58.8841 54.9563C58.7703 55.0917 58.5934 55.1646 58.3928 55.1646C57.9957 55.1646 57.7246 54.8935 57.7246 54.5157C57.7246 54.1379 57.9883 53.8691 58.3469 53.8691C58.7051 53.8691 58.9641 54.1331 58.9641 54.5157C58.9638 54.5302 58.9615 54.5495 58.9615 54.569ZM57.8962 54.4404H58.7994C58.7774 54.1912 58.5961 54.0167 58.3466 54.0167C58.0995 54.017 57.9179 54.1912 57.8962 54.4404Z" fill="#263238"/>
</g>
<path d="M36.0203 91.2257C36.0203 91.2257 34.2726 89.7687 32.7741 91.2257C31.2757 92.6827 30.9863 101.709 30.9863 101.709" stroke="#407BFF" stroke-width="0.239928" stroke-miterlimit="10"/>
<path d="M30.8622 103.452C30.8622 103.452 31.8924 92.8591 28.0137 88.4072" stroke="#407BFF" stroke-width="0.239928" stroke-miterlimit="10"/>
<path d="M31.2316 102.336C31.2316 102.336 30.4383 90.2762 33.3473 87.6006" stroke="#407BFF" stroke-width="0.239928" stroke-miterlimit="10"/>
<path d="M30.8625 102.336C30.8625 102.336 30.7949 94.3676 28.633 93.1286C26.4711 91.8899 25.3691 95.9302 25.3691 95.9302" stroke="#407BFF" stroke-width="0.239928" stroke-miterlimit="10"/>
<path d="M31.7165 102.336C31.7165 102.336 31.3638 96.2182 33.0389 94.0317C34.7137 91.8453 36.477 94.9684 36.477 94.9684" stroke="#407BFF" stroke-width="0.239928" stroke-miterlimit="10"/>
<path d="M31.1332 103.155C31.1332 103.155 32.2164 88.8481 30.4238 86.4238" stroke="#407BFF" stroke-width="0.239928" stroke-miterlimit="10"/>
<path d="M26.7826 94.2895C26.7826 94.2895 27.8605 94.6868 27.54 95.6251C27.2195 96.5633 23.811 98.1072 23.811 98.1072C23.811 98.1072 22.3836 96.7988 23.6946 94.6707C25.0056 92.5429 26.7535 93.6181 26.7826 94.2895Z" fill="#407BFF"/>
<path opacity="0.2" d="M26.7826 94.2895C26.7826 94.2895 27.8605 94.6868 27.54 95.6251C27.2195 96.5633 23.811 98.1072 23.811 98.1072C23.811 98.1072 22.3836 96.7988 23.6946 94.6707C25.0056 92.5429 26.7535 93.6181 26.7826 94.2895Z" fill="black"/>
<path d="M31.4682 92.5032C31.4682 92.5032 30.3203 92.4552 30.2551 93.4444C30.1899 94.4336 32.7418 97.1705 32.7418 97.1705C32.7418 97.1705 34.5628 96.5121 34.1716 94.0434C33.7806 91.575 31.7536 91.8947 31.4682 92.5032Z" fill="#407BFF"/>
<path opacity="0.2" d="M31.4682 92.5032C31.4682 92.5032 30.3203 92.4552 30.2551 93.4444C30.1899 94.4336 32.7418 97.1705 32.7418 97.1705C32.7418 97.1705 34.5628 96.5121 34.1716 94.0434C33.7806 91.575 31.7536 91.8947 31.4682 92.5032Z" fill="black"/>
<path d="M32.4415 87.768C32.4415 87.768 31.6761 87.6859 31.7379 87.2197C31.7994 86.7534 34.7129 85.5538 36.4316 87.4937C36.4316 87.4937 35.331 89.3842 33.7401 89.409C32.1492 89.4338 32.4415 87.768 32.4415 87.768Z" fill="#407BFF"/>
<path opacity="0.2" d="M32.4415 87.768C32.4415 87.768 31.6761 87.6859 31.7379 87.2197C31.7994 86.7534 34.7129 85.5538 36.4316 87.4937C36.4316 87.4937 35.331 89.3842 33.7401 89.409C32.1492 89.4338 32.4415 87.768 32.4415 87.768Z" fill="black"/>
<path d="M31.0134 86.6357C31.0134 86.6357 31.7064 86.9708 31.9004 86.5426C32.0947 86.1144 30.2568 83.5554 27.772 84.2927C27.772 84.2927 27.7063 86.4795 29.0434 87.3417C30.3803 88.2042 31.0134 86.6357 31.0134 86.6357Z" fill="#407BFF"/>
<path opacity="0.2" d="M31.0134 86.6357C31.0134 86.6357 31.7064 86.9708 31.9004 86.5426C32.0947 86.1144 30.2568 83.5554 27.772 84.2927C27.772 84.2927 27.7063 86.4795 29.0434 87.3417C30.3803 88.2042 31.0134 86.6357 31.0134 86.6357Z" fill="black"/>
<path d="M34.6376 93.912C34.6376 93.912 34.1093 93.4856 34.6793 93.2773C35.2492 93.0693 38.0461 93.1284 38.0751 95.8988C38.0751 95.8988 34.8179 96.44 34.4145 95.3848C34.0116 94.3296 34.6376 93.912 34.6376 93.912Z" fill="#407BFF"/>
<path opacity="0.2" d="M34.6376 93.912C34.6376 93.912 34.1093 93.4856 34.6793 93.2773C35.2492 93.0693 38.0461 93.1284 38.0751 95.8988C38.0751 95.8988 34.8179 96.44 34.4145 95.3848C34.0116 94.3296 34.6376 93.912 34.6376 93.912Z" fill="black"/>
<path d="M27.9961 87.6982C27.9961 87.6982 28.5244 87.2719 27.9544 87.0636C27.3845 86.8553 24.5876 86.9144 24.5586 89.6848C24.5586 89.6848 27.8158 90.2263 28.2192 89.1708C28.6221 88.1159 27.9961 87.6982 27.9961 87.6982Z" fill="#407BFF"/>
<path opacity="0.2" d="M27.9961 87.6982C27.9961 87.6982 28.5244 87.2719 27.9544 87.0636C27.3845 86.8553 24.5876 86.9144 24.5586 89.6848C24.5586 89.6848 27.8158 90.2263 28.2192 89.1708C28.6221 88.1159 27.9961 87.6982 27.9961 87.6982Z" fill="black"/>
<path d="M29.716 89.9298C29.716 89.9298 29.7624 89.4113 29.344 89.6146C28.9256 89.8179 27.4675 91.3908 28.9789 92.8835C28.9789 92.8835 31.0133 91.3768 30.6466 90.5922C30.2796 89.8073 29.716 89.9298 29.716 89.9298Z" fill="#407BFF"/>
<path opacity="0.2" d="M29.716 89.9298C29.716 89.9298 29.7624 89.4113 29.344 89.6146C28.9256 89.8179 27.4675 91.3908 28.9789 92.8835C28.9789 92.8835 31.0133 91.3768 30.6466 90.5922C30.2796 89.8073 29.716 89.9298 29.716 89.9298Z" fill="black"/>
<path d="M35.1102 90.6683C35.1102 90.6683 34.7945 90.2546 35.257 90.2034C35.7193 90.1522 37.7917 90.7052 37.3091 92.7737C37.3091 92.7737 34.7844 92.5839 34.6765 91.7246C34.568 90.8652 35.1102 90.6683 35.1102 90.6683Z" fill="#407BFF"/>
<path opacity="0.2" d="M35.1102 90.6683C35.1102 90.6683 34.7945 90.2546 35.257 90.2034C35.7193 90.1522 37.7917 90.7052 37.3091 92.7737C37.3091 92.7737 34.7844 92.5839 34.6765 91.7246C34.568 90.8652 35.1102 90.6683 35.1102 90.6683Z" fill="black"/>
<path d="M26.9715 110.015H35.1331L36.2178 102.079H25.8867L26.9715 110.015Z" fill="#263238"/>
<path opacity="0.2" d="M26.9715 110.015H35.1331L36.2178 102.079H25.8867L26.9715 110.015Z" fill="white"/>
<path d="M37.239 101.436V102.19C37.239 102.694 36.8301 103.103 36.3253 103.103H25.6735C25.169 103.103 24.7598 102.694 24.7598 102.19V101.436H37.239Z" fill="#263238"/>
<path d="M105.238 26.2168H97.6537C96.3638 26.2168 95.3184 27.2625 95.3184 28.5521V35.1527C95.3184 36.4423 96.3641 37.488 97.6537 37.488H99.8681L99.3327 39.572L101.439 37.488H105.238C106.528 37.488 107.573 36.4426 107.573 35.1527V28.5521C107.573 27.2625 106.528 26.2168 105.238 26.2168Z" fill="#407BFF"/>
<path opacity="0.7" d="M105.238 26.2168H97.6537C96.3638 26.2168 95.3184 27.2625 95.3184 28.5521V35.1527C95.3184 36.4423 96.3641 37.488 97.6537 37.488H99.8681L99.3327 39.572L101.439 37.488H105.238C106.528 37.488 107.573 36.4426 107.573 35.1527V28.5521C107.573 27.2625 106.528 26.2168 105.238 26.2168Z" fill="white"/>
<path d="M104.106 34.4858C105.576 33.0159 105.576 30.6326 104.106 29.1626C102.636 27.6926 100.253 27.6927 98.7827 29.1626C97.3127 30.6326 97.3127 33.0159 98.7827 34.4858C100.253 35.9558 102.636 35.9558 104.106 34.4858Z" fill="#407BFF"/>
<path d="M101.049 33.5053C100.948 33.5053 100.851 33.4607 100.785 33.3834L99.3087 31.6433C99.1851 31.4976 99.2031 31.2795 99.3485 31.1557C99.494 31.0324 99.7123 31.0499 99.8362 31.1956L101.049 32.6249L103.052 30.2647C103.176 30.1187 103.395 30.1013 103.54 30.2249C103.686 30.3484 103.704 30.5667 103.58 30.7125L101.313 33.3836C101.247 33.4607 101.151 33.5053 101.049 33.5053Z" fill="white"/>
<path d="M103.924 66.9386C103.924 66.9386 99.3269 66.3599 92.3636 68.2689C92.3636 68.2689 91.2427 55.8244 91.3763 54.115C91.5099 52.4056 102.127 52.9062 102.127 52.9062C102.127 52.9062 102.401 57.8868 103.084 60.8919C103.768 63.8968 104.275 66.3607 103.924 66.9386Z" fill="#407BFF"/>
<path opacity="0.2" d="M103.924 66.9386C103.924 66.9386 99.3269 66.3599 92.3636 68.2689C92.3636 68.2689 91.2427 55.8244 91.3763 54.115C91.5099 52.4056 102.127 52.9062 102.127 52.9062C102.127 52.9062 102.401 57.8868 103.084 60.8919C103.768 63.8968 104.275 66.3607 103.924 66.9386Z" fill="black"/>
<path d="M89.0039 108.14L90.8783 108.67L91.3245 105.753L91.5647 104.193L89.6903 103.662L89.3709 105.753L89.0039 108.14Z" fill="#E4897B"/>
<path d="M99.7793 108.293L101.712 108.549L101.73 105.753L101.743 104.016L99.8083 103.763L99.7951 105.753L99.7793 108.293Z" fill="#E4897B"/>
<path opacity="0.2" d="M99.8081 103.763L99.7949 105.753H101.73L101.743 104.016L99.8081 103.763Z" fill="black"/>
<path opacity="0.2" d="M89.3711 105.753H91.3247L91.5649 104.193L89.6905 103.662L89.3711 105.753Z" fill="black"/>
<path d="M80.6829 55.1251L78.8223 54.5752L79.162 56.7001C79.162 56.7001 80.8516 57.0906 81.0161 56.2115L80.6829 55.1251Z" fill="#E4897B"/>
<path d="M76.9648 55.0686L77.8772 56.7965L79.1618 56.6999L78.8221 54.5752L76.9648 55.0686Z" fill="#E4897B"/>
<path d="M83.2515 55.6684L80.1957 54.9844L79.918 56.4686L82.6923 57.1452L83.2515 55.6684Z" fill="#E4897B"/>
<path d="M92.4996 54.3299C92.4996 54.3299 92.4336 54.4091 92.3201 54.5437C91.9346 54.9952 90.9921 56.0855 90.0259 57.0253C89.2339 57.7909 88.4313 58.4589 87.9086 58.5935C86.4117 58.9789 80.9707 57.3765 80.9707 57.3765L81.533 55.1694C81.533 55.1694 86.6018 55.8426 86.9952 55.8426C87.2935 55.8426 90.377 51.3757 91.1241 51.0088L92.4996 54.3299Z" fill="#407BFF"/>
<path opacity="0.2" d="M92.3215 54.5434C91.9361 54.9949 90.9936 56.0852 90.0273 57.025C90.2227 55.478 90.7903 54.0577 91.5374 53.1601C91.6166 53.065 91.6958 52.9858 91.775 52.9277L92.3215 54.5434Z" fill="black"/>
<path d="M89.0278 107.847L91.1564 107.79C91.2361 107.788 91.3071 107.841 91.3272 107.918L91.7744 109.632C91.8209 109.81 91.6905 109.983 91.5065 109.985C90.7382 109.993 89.627 109.978 88.6619 110.004C87.5333 110.034 86.816 109.979 85.4925 110.014C84.6924 110.036 84.4413 109.237 84.7737 109.155C86.2867 108.782 87.2756 108.855 88.5642 108.011C88.7038 107.919 88.8596 107.852 89.0278 107.847Z" fill="#263238"/>
<path d="M88.8453 108.121C88.8435 108.121 88.8414 108.122 88.8393 108.122C88.5277 108.193 87.9718 108.285 87.7511 108.102C87.6845 108.047 87.6528 107.973 87.6565 107.881C87.6589 107.826 87.6837 107.783 87.7283 107.757C87.9612 107.617 88.7582 107.993 88.8482 108.036C88.8659 108.045 88.8765 108.064 88.8744 108.083C88.8728 108.1 88.8612 108.115 88.8453 108.121ZM87.7928 107.828C87.7867 107.83 87.7811 107.833 87.7761 107.836C87.7579 107.846 87.7497 107.861 87.7487 107.885C87.7463 107.948 87.7661 107.995 87.8097 108.032C87.9335 108.134 88.2548 108.144 88.6827 108.061C88.3685 107.923 87.938 107.773 87.7928 107.828Z" fill="#407BFF"/>
<path d="M88.8449 108.12C88.834 108.125 88.8219 108.125 88.8108 108.12C88.5719 108.021 88.0906 107.614 88.1183 107.394C88.1249 107.342 88.1593 107.277 88.2857 107.261C88.3797 107.249 88.4665 107.273 88.5447 107.333C88.8 107.529 88.8713 108.05 88.8742 108.072C88.8763 108.088 88.8697 108.104 88.8565 108.114C88.8528 108.117 88.8488 108.119 88.8449 108.12ZM88.2514 107.363C88.2136 107.377 88.211 107.398 88.2099 107.406C88.1933 107.538 88.522 107.859 88.7672 107.997C88.7366 107.845 88.6561 107.534 88.4885 107.405C88.4301 107.36 88.3678 107.343 88.2981 107.352C88.2786 107.355 88.2633 107.358 88.2514 107.363Z" fill="#407BFF"/>
<path d="M99.8559 107.847L101.985 107.79C102.064 107.788 102.135 107.841 102.155 107.918L102.603 109.632C102.649 109.81 102.519 109.983 102.335 109.985C101.566 109.993 100.455 109.978 99.49 110.004C98.3614 110.034 97.6441 109.979 96.3207 110.014C95.5205 110.036 95.2694 109.237 95.6018 109.155C97.1148 108.782 98.1037 108.855 99.3923 108.011C99.5317 107.919 99.6877 107.852 99.8559 107.847Z" fill="#263238"/>
<path d="M99.6735 108.121C99.6716 108.121 99.6695 108.122 99.6674 108.122C99.3556 108.193 98.7999 108.285 98.5792 108.102C98.5126 108.047 98.481 107.973 98.4847 107.881C98.487 107.826 98.5119 107.783 98.5565 107.757C98.7893 107.617 99.5863 107.993 99.6764 108.036C99.6941 108.045 99.7046 108.064 99.7025 108.083C99.7009 108.1 99.6893 108.115 99.6735 108.121ZM98.6209 107.828C98.6148 107.83 98.6093 107.833 98.6043 107.836C98.586 107.846 98.5779 107.861 98.5771 107.885C98.5747 107.948 98.5945 107.995 98.638 108.032C98.7619 108.134 99.0832 108.144 99.5111 108.061C99.1967 107.923 98.7661 107.773 98.6209 107.828Z" fill="#407BFF"/>
<path d="M99.673 108.12C99.6622 108.125 99.65 108.125 99.6389 108.12C99.4 108.021 98.9187 107.614 98.9465 107.394C98.9531 107.342 98.9874 107.277 99.1138 107.261C99.2078 107.249 99.2949 107.273 99.3728 107.333C99.6281 107.529 99.6994 108.05 99.7023 108.072C99.7044 108.088 99.6978 108.104 99.6846 108.114C99.6809 108.117 99.6769 108.119 99.673 108.12ZM99.0795 107.363C99.0418 107.377 99.0391 107.398 99.0381 107.406C99.0214 107.538 99.3501 107.859 99.5954 107.997C99.5647 107.845 99.4842 107.534 99.3166 107.405C99.2582 107.36 99.1959 107.343 99.1265 107.352C99.1064 107.355 99.0914 107.358 99.0795 107.363Z" fill="#407BFF"/>
<path d="M103.766 65.8037C104.789 70.2431 103.033 105.157 103.033 105.157H99.637L98.1853 76.0601L92.8379 105.157L89.209 104.893C91.5813 82.3531 93.6785 68.8962 93.6785 68.8962L93.6735 67.1958L103.766 65.8037Z" fill="#263238"/>
<path opacity="0.4" d="M89.209 104.893L92.839 105.157L97.0471 82.2519L98.185 76.0611L99.637 105.157H103.032C103.032 105.157 104.79 70.2425 103.766 65.8047L93.6732 67.196L93.6785 68.8961C93.6785 68.8961 91.5823 82.3522 89.209 104.893Z" fill="white"/>
<path d="M101.936 49.3649C101.813 51.5393 101.907 53.708 102.098 55.7276C102.239 57.205 102.435 58.6018 102.644 59.8621C103.132 62.8165 103.686 65.0307 103.765 65.8034C102.286 66.008 96.7125 66.7773 93.673 67.1955C89.9929 56.9053 91.3789 50.9159 91.3789 50.9159C91.3789 50.9159 92.4312 50.4664 93.6936 50.1239C93.8597 50.0777 94.0297 50.036 94.2029 49.9962C95.3236 49.7364 97.1958 49.5204 98.4937 49.404C98.7666 49.3797 99.0441 49.3623 99.315 49.3496C100.694 49.2868 101.936 49.3649 101.936 49.3649Z" fill="#263238"/>
<path d="M96.5359 44.7344C96.6099 46.1478 96.7601 48.7979 97.9344 49.4697C97.9344 49.4697 97.2033 50.8623 95.6217 51.0038C94.4255 51.111 94.505 49.9312 94.505 49.9312C95.1969 49.414 95.0309 48.5405 94.5042 47.5555L96.5359 44.7344Z" fill="#E4897B"/>
<path opacity="0.2" d="M95.7086 45.8848L94.5059 47.5535C94.6315 47.7864 94.7437 48.0263 94.8229 48.2666C95.3792 48.0443 96.0133 47.2222 95.923 46.6057C95.8781 46.2982 95.7929 46.0128 95.7086 45.8848Z" fill="black"/>
<path d="M91.3892 41.8928C91.1584 42.6254 91.2849 44.1307 92.3087 43.6412C93.3325 43.1518 91.7857 40.6335 91.3892 41.8928Z" fill="#263238"/>
<path d="M96.6689 42.8828C96.7814 44.766 96.9435 45.8634 96.1132 46.9292C94.8645 48.5322 92.4455 47.9342 91.7707 46.1174C91.1632 44.4819 91.0814 41.6772 92.8261 40.7278C94.5453 39.7925 96.5565 40.9997 96.6689 42.8828Z" fill="#E4897B"/>
<path d="M95.3477 41.8583V39.7545C95.3477 39.7545 97.5869 39.5882 97.4874 40.7342C98.7277 41.3493 98.1413 43.2789 96.4755 44.2251C95.5626 43.4943 95.6668 41.7345 95.6668 41.7345C95.5684 41.7781 95.4601 41.819 95.3477 41.8583Z" fill="#263238"/>
<path d="M97.5796 44.3527C97.4887 44.8522 97.1743 45.2612 96.8261 45.4903C96.3021 45.8351 95.8438 45.4114 95.825 44.816C95.8081 44.2801 96.0605 43.4551 96.6656 43.349C97.2614 43.2447 97.6836 43.7817 97.5796 44.3527Z" fill="#E4897B"/>
<path d="M93.888 43.7231C93.9064 43.8754 93.8407 44.0079 93.7409 44.019C93.6411 44.0301 93.5453 43.9158 93.5265 43.7635C93.5081 43.6112 93.5738 43.4786 93.6736 43.4675C93.7734 43.4565 93.8695 43.5708 93.888 43.7231Z" fill="#263238"/>
<path d="M92.1614 43.9155C92.1799 44.0678 92.1141 44.2003 92.0144 44.2114C91.9146 44.2225 91.8187 44.1082 91.8 43.9559C91.7815 43.8035 91.8472 43.671 91.947 43.6599C92.0468 43.6488 92.1427 43.7631 92.1614 43.9155Z" fill="#263238"/>
<path d="M92.7196 43.9307C92.7196 43.9307 92.4667 44.8161 92.1309 45.2699C92.4263 45.478 92.8714 45.3114 92.8714 45.3114L92.7196 43.9307Z" fill="#DE5753"/>
<path d="M93.7594 45.802C93.6979 45.8176 93.6322 45.8295 93.5622 45.8374C93.5374 45.84 93.515 45.8223 93.5121 45.7978C93.5089 45.773 93.5274 45.7508 93.5514 45.7482C94.222 45.6724 94.4775 45.1713 94.4802 45.1663C94.491 45.1441 94.5184 45.1354 94.5406 45.1462C94.5631 45.1573 94.5723 45.1845 94.5612 45.2067C94.5512 45.2268 94.3307 45.6592 93.7594 45.802Z" fill="#263238"/>
<path d="M94.351 43.1073C94.3206 43.115 94.2868 43.1065 94.2633 43.082C93.9832 42.791 93.6559 42.847 93.6524 42.8475C93.6033 42.8565 93.5561 42.824 93.5466 42.7755C93.5371 42.7266 93.5695 42.6796 93.6181 42.6707C93.6353 42.6675 94.0458 42.597 94.3932 42.9582C94.4278 42.9943 94.427 43.0511 94.3911 43.0854C94.3795 43.0965 94.3655 43.1036 94.351 43.1073Z" fill="#263238"/>
<path d="M91.3454 43.4072C91.3288 43.4114 91.3108 43.4109 91.2934 43.4048C91.2461 43.3882 91.2211 43.3367 91.2374 43.2899C91.4003 42.8198 91.8029 42.7213 91.8203 42.7144C91.8687 42.7028 91.9178 42.7326 91.9299 42.7807C91.942 42.8287 91.913 42.877 91.865 42.8892C91.8481 42.8926 91.5387 42.9726 91.408 43.3499C91.3979 43.3794 91.3737 43.4 91.3454 43.4072Z" fill="#263238"/>
<path d="M96.342 42.6403C96.342 42.6403 95.0294 42.159 94.4193 41.3931C94.4193 41.3931 93.2213 41.7065 92.9757 42.1938C92.9757 42.1938 92.5602 41.8456 92.8715 41.3931C92.8715 41.3931 91.9749 41.5824 91.797 42.1938C91.797 42.1938 91.3495 42.0405 91.3762 41.3931C91.3762 41.3931 90.9765 41.5436 90.8503 42.1938C90.8503 42.1938 89.8587 40.1312 93.1294 39.5393C93.1294 39.5393 92.8712 39.4306 92.3632 39.4086C92.3632 39.4086 94.6447 38.4881 96.455 39.3313C98.2655 40.1748 97.9347 41.7936 96.342 42.6403Z" fill="#263238"/>
<path d="M104.546 67.5794L101.38 68.0018C101.38 68.0018 100.074 58.87 99.498 55.9212V49.6221L101.153 49.1865L102.428 49.6221C102.735 50.6438 103.004 51.9849 103.239 53.4765C103.395 54.4639 103.535 55.5199 103.659 56.5891C103.83 58.0464 103.973 59.53 104.094 60.9187C104.284 63.16 104.411 65.1453 104.48 66.3544C104.525 67.1253 104.546 67.5794 104.546 67.5794Z" fill="#407BFF"/>
<path d="M99.4994 55.9208C99.4994 55.9208 99.7623 51.4782 101.155 49.1861C101.155 49.1861 101.12 48.5304 100.842 48.4258C100.563 48.3213 99.4994 48.948 99.4994 48.948C99.4994 48.948 98.8362 48.4955 98.6902 48.7043C98.5442 48.9132 98.1918 50.3261 99.4994 55.9208Z" fill="#407BFF"/>
<path opacity="0.7" d="M99.4994 55.9208C99.4994 55.9208 99.7623 51.4782 101.155 49.1861C101.155 49.1861 101.12 48.5304 100.842 48.4258C100.563 48.3213 99.4994 48.948 99.4994 48.948C99.4994 48.948 98.8362 48.4955 98.6902 48.7043C98.5442 48.9132 98.1918 50.3261 99.4994 55.9208Z" fill="white"/>
<path d="M92.2953 68.8024L92.657 69.0638C92.657 69.0638 92.1342 66.1191 92.3454 58.6743C92.356 58.3153 92.3692 57.9694 92.3824 57.6394C92.6517 51.3404 93.6285 50.1946 93.6918 50.126L92.7784 50.4375L91.1231 51.0077C90.6347 56.3828 92.2953 68.8024 92.2953 68.8024Z" fill="#407BFF"/>
<path d="M92.4389 56.5556C92.4389 56.5556 91.5247 52.2381 91.7966 50.7497C92.0683 49.2612 93.0432 49.9226 93.0432 49.9226C93.0432 49.9226 93.939 49.1997 94.2048 49.9962C94.2048 49.9962 92.9754 50.8624 92.4389 56.5556Z" fill="#407BFF"/>
<path opacity="0.7" d="M92.4389 56.5556C92.4389 56.5556 91.5247 52.2381 91.7966 50.7497C92.0683 49.2612 93.0432 49.9226 93.0432 49.9226C93.0432 49.9226 93.939 49.1997 94.2048 49.9962C94.2048 49.9962 92.9754 50.8624 92.4389 56.5556Z" fill="white"/>
<path opacity="0.2" d="M103.66 56.5891C102.308 55.8314 102.129 53.8541 102.129 53.8541C102.211 53.8224 102.712 53.6508 103.24 53.4766C103.396 54.4639 103.536 55.5199 103.66 56.5891Z" fill="black"/>
<path opacity="0.2" d="M97.0473 82.2522L98.1852 76.0614L97.9661 72.7852C97.9661 72.7852 96.4058 78.4664 97.0473 82.2522Z" fill="black"/>
<path opacity="0.2" d="M104.48 66.3547C103.63 66.2966 102.893 66.2412 102.893 66.2412L102.732 62.7854C102.732 62.7854 103.007 62.5557 103.622 62.6217C103.622 62.6217 103.899 61.9459 104.095 60.9189C104.285 63.1603 104.411 65.1456 104.48 66.3547Z" fill="black"/>
<path d="M104.769 60.915L103.113 63.573L104.422 64.3257L105.978 61.9306L104.769 60.915Z" fill="#E4897B"/>
<path d="M102.362 49.5889C103.476 49.7114 108.211 56.2103 108.42 58.1697C108.628 60.1288 105.638 63.5106 105.638 63.5106L103.64 62.3351C103.64 62.3351 105.669 59.2172 105.774 58.3851C105.878 57.553 102.065 54.1415 102.065 54.1415C102.065 54.1415 101.649 53.1394 101.596 51.6969C101.543 50.2544 102.362 49.5889 102.362 49.5889Z" fill="#407BFF"/>
<path d="M102.731 62.7861C102.731 62.7861 104.435 63.1518 105.119 64.222C105.119 64.222 104.408 66.4528 103.899 66.6957C103.39 66.9386 102.126 66.9386 102.126 66.9386C102.126 66.9386 102.045 64.4573 102.731 62.7861Z" fill="#407BFF"/>
</g>
<defs>
<clipPath id="clip0_2940_23479">
<rect width="132" height="132" fill="white"/>
</clipPath>
</defs>
</svg>
