<svg width="132" height="132" viewBox="0 0 132 132" fill="none" xmlns="http://www.w3.org/2000/svg">
<path d="M115.512 65.6188C115.428 67.5643 115.102 69.4167 114.442 71.0088C113.716 72.6099 112.785 73.9596 111.723 74.9742C110.169 76.3427 108.437 77.0501 106.678 77.1245C106.687 78.7164 106.296 80.3642 105.691 81.9931C105.3 82.9333 104.76 83.7991 104.211 84.5995C103.932 84.9905 103.634 85.3722 103.327 85.7259C102.992 86.0703 102.647 86.3869 102.294 86.6848C101.596 87.2806 100.86 87.7832 100.106 88.1928C99.6035 88.4441 99.0823 88.6489 98.5518 88.798C99.1567 90.157 99.464 91.6931 99.4362 93.3686C99.2965 97.2226 96.9973 101.737 92.7246 104.651C88.4239 107.537 83.3784 108.049 79.7293 106.718C79.0404 106.476 78.3888 106.159 77.7838 105.787C77.7652 107.621 77.0485 109.445 75.6148 111.083C74.6002 112.145 73.2503 113.076 71.6491 113.802C70.0573 114.463 68.2049 114.788 66.2594 114.872C64.3139 114.789 62.4614 114.463 60.8603 113.802C59.2685 113.076 57.9186 112.145 56.9039 111.083C55.5447 109.529 54.8187 107.797 54.7442 106.038C53.1618 106.047 51.5139 105.656 49.885 105.061C48.9448 104.66 48.079 104.12 47.2785 103.571C46.8875 103.292 46.5059 103.003 46.1428 102.696C45.8076 102.361 45.4912 102.016 45.1933 101.663C44.5974 100.955 44.0949 100.22 43.6852 99.4751C43.4246 98.9723 43.2291 98.4325 43.08 97.9113C41.721 98.5165 40.185 98.8235 38.5094 98.7957C34.6555 98.656 30.1406 96.3661 27.2271 92.0841C24.3414 87.7927 23.8293 82.7473 25.1605 79.0889C25.4024 78.4 25.719 77.7484 26.0914 77.1434C24.2576 77.1248 22.433 76.4081 20.7854 74.9744C19.7334 73.9598 18.7932 72.6099 18.0765 71.009C17.4062 69.4172 17.0805 67.5648 17.0059 65.619C17.0803 63.6735 17.4062 61.8211 18.0765 60.2293C18.7932 58.6281 19.7334 57.2783 20.7854 56.2636C22.3585 54.8953 24.0901 54.1784 25.8401 54.1133C25.8308 52.5215 26.2218 50.8832 26.8174 49.2541C27.2178 48.3045 27.7576 47.4481 28.3068 46.6476C28.5861 46.2473 28.8747 45.8656 29.1819 45.5119C29.517 45.1676 29.8616 44.851 30.2152 44.553C30.9228 43.9574 31.6582 43.4547 32.4029 43.045C32.9057 42.7937 33.4362 42.5889 33.9574 42.44C33.3616 41.0808 33.0545 39.5543 33.0823 37.8787C33.2127 34.0155 35.5119 29.5006 39.794 26.5872C44.0853 23.7015 49.1307 23.1894 52.7892 24.5299C53.4781 24.7718 54.1297 25.0884 54.7347 25.4515C54.7533 23.6084 55.4794 21.7837 56.9037 20.1548C57.9183 19.0935 59.2682 18.1626 60.86 17.4366C62.4612 16.7757 64.3136 16.45 66.2591 16.3662C68.2047 16.45 70.0573 16.7759 71.6489 17.4366C73.2501 18.1626 74.6 19.0935 75.6146 20.1548C76.9829 21.7093 77.6905 23.4409 77.7649 25.2002C79.3568 25.1909 80.9953 25.5819 82.6242 26.1868C83.5737 26.5778 84.4299 27.1177 85.2306 27.6669C85.631 27.9461 86.0127 28.2441 86.3663 28.542C86.7107 28.877 87.0273 29.2309 87.3252 29.5753C87.9209 30.2829 88.4236 31.0183 88.8333 31.7721C89.0846 32.2748 89.2894 32.796 89.4383 33.3266C90.7975 32.7216 92.324 32.4143 93.9996 32.4421C97.8628 32.5819 102.378 34.881 105.291 39.1537C108.177 43.4544 108.689 48.4998 107.349 52.1489C107.107 52.8378 106.79 53.4894 106.418 54.0944C108.252 54.113 110.086 54.8297 111.724 56.2634C112.785 57.278 113.716 58.6279 114.442 60.2291C115.103 61.8209 115.428 63.6733 115.512 65.6188Z" fill="#EBEBEB"/>
<path d="M104.254 34.4473C104.254 34.4473 102.982 33.5783 101.891 34.37C100.8 35.1618 101.857 36.6758 102.33 37.0925C102.804 37.5092 106.223 39.1005 106.223 39.1005L104.754 37.7233L104.997 36.3522L103.862 35.4375L104.254 34.4473Z" fill="#1C3255"/>
<path d="M104.65 35.4632L105.323 33.6509C105.545 33.0516 106.155 32.6279 106.842 32.645C107.372 32.6583 107.93 32.9266 108.221 33.8501C108.875 35.9275 106.736 39.2175 106.736 39.2175L105.255 37.4139L105.823 36.0784L104.65 35.4632Z" fill="#1C3255"/>
<path d="M104.876 26.932C104.876 26.932 104.508 25.7149 103.307 25.7207C102.105 25.7265 101.953 27.2783 102.036 27.795C102.12 28.3117 103.537 31.0747 103.537 31.0747L103.327 29.4137L104.284 28.5966L104.037 27.416L104.876 26.932Z" fill="#1C3255"/>
<path d="M104.559 27.8198L106.064 26.9122C106.561 26.612 107.222 26.6217 107.681 26.9701C108.035 27.239 108.262 27.6956 107.928 28.4687C107.176 30.208 103.818 31.4057 103.818 31.4057L103.847 29.4482L105.005 28.8148L104.559 27.8198Z" fill="#1C3255"/>
<path d="M55.1823 71.283C54.7376 70.6545 53.2636 67.5748 54.4195 66.3178C55.5754 65.0607 56.095 65.4699 56.095 65.4699L56.7503 66.5198L55.1823 71.283Z" fill="#A95533"/>
<path d="M55.4559 68.6708C55.4915 68.2869 56.0963 65.4707 56.0963 65.4707L56.7516 66.5206L55.1836 71.2838C55.1836 71.2838 55.3004 70.3434 55.4559 68.6708Z" fill="black"/>
<path d="M66.9183 98.552L50.8222 94.8976C49.7324 94.6502 49.0663 93.6351 49.3349 92.6303L58.0347 60.0523C58.303 59.0474 59.404 58.4333 60.4938 58.6807L76.5899 62.3351C77.6797 62.5825 78.3455 63.5976 78.0774 64.6025L69.3774 97.1804C69.1091 98.1853 68.0081 98.7994 66.9183 98.552Z" fill="#1C3255"/>
<path d="M67.6656 95.5889L51.5417 91.9284C50.8408 91.7692 50.4126 91.1162 50.585 90.4701L58.7093 60.0696C58.882 59.4233 59.5899 59.0285 60.2909 59.1875L76.4147 62.8481C77.1156 63.0073 77.5438 63.66 77.3714 64.3063L69.2473 94.7068C69.0747 95.3531 68.3665 95.7481 67.6656 95.5889Z" fill="white"/>
<path opacity="0.1" d="M71.986 75.4321L57.866 72.2829C57.3599 72.17 57.0488 71.7001 57.1712 71.2334L58.2461 67.136C58.3685 66.6693 58.8781 66.3824 59.3843 66.4953L73.5042 69.6445C74.0104 69.7574 74.3215 70.2273 74.1991 70.694L73.1242 74.7914C73.0018 75.2581 72.4921 75.545 71.986 75.4321Z" fill="#413B48"/>
<path opacity="0.1" d="M60.1156 88.8102L53.392 87.3106C53.1197 87.2498 52.9524 86.9971 53.0182 86.746L53.7413 83.9897C53.8071 83.7386 54.0813 83.5843 54.3536 83.6451L61.0771 85.1447C61.3494 85.2054 61.5167 85.4582 61.4509 85.7092L60.7278 88.4656C60.6622 88.7166 60.3881 88.8709 60.1156 88.8102Z" fill="#413B48"/>
<path opacity="0.1" d="M67.9353 90.5795L62.043 89.3369C61.5641 89.2358 61.2646 88.796 61.3742 88.3544L63.6918 79.0107C63.8014 78.5691 64.2784 78.293 64.7574 78.3938L70.6497 79.6364C71.1286 79.7375 71.4281 80.1773 71.3188 80.6189L69.0012 89.9626C68.8915 90.4044 68.4145 90.6805 67.9353 90.5795Z" fill="#413B48"/>
<g opacity="0.3">
<path d="M63.3433 78.0618L55.7012 76.3848" stroke="#413B48" stroke-width="0.268877" stroke-miterlimit="10"/>
<path d="M63.1851 78.6769L55.543 77" stroke="#413B48" stroke-width="0.268877" stroke-miterlimit="10"/>
<path d="M63.0193 79.2376L55.377 77.5605" stroke="#413B48" stroke-width="0.268877" stroke-miterlimit="10"/>
<path d="M62.8533 79.8001L55.2109 78.123" stroke="#413B48" stroke-width="0.268877" stroke-miterlimit="10"/>
<path d="M62.648 80.3851L55.0059 78.708" stroke="#413B48" stroke-width="0.268877" stroke-miterlimit="10"/>
<path d="M62.4956 81.0267L54.8535 79.3496" stroke="#413B48" stroke-width="0.268877" stroke-miterlimit="10"/>
</g>
<g opacity="0.3">
<path d="M62.3669 81.6878L54.7246 80.0107" stroke="#413B48" stroke-width="0.268877" stroke-miterlimit="10"/>
<path d="M62.2087 82.3031L54.5664 80.626" stroke="#413B48" stroke-width="0.268877" stroke-miterlimit="10"/>
<path d="M62.0425 82.8636L54.4004 81.1865" stroke="#413B48" stroke-width="0.268877" stroke-miterlimit="10"/>
<path d="M61.8767 83.4261L54.2344 81.749" stroke="#413B48" stroke-width="0.268877" stroke-miterlimit="10"/>
<path d="M61.6716 84.0111L54.0293 82.334" stroke="#413B48" stroke-width="0.268877" stroke-miterlimit="10"/>
<path d="M61.5193 84.6527L53.877 82.9756" stroke="#413B48" stroke-width="0.268877" stroke-miterlimit="10"/>
</g>
<g opacity="0.3">
<path d="M72.2745 76.1508L56.7422 72.7422" stroke="#413B48" stroke-width="0.268877" stroke-miterlimit="10"/>
<path d="M72.1202 76.7661L56.5879 73.3574" stroke="#413B48" stroke-width="0.268877" stroke-miterlimit="10"/>
<path d="M71.9327 77.3235L56.4004 73.915" stroke="#413B48" stroke-width="0.268877" stroke-miterlimit="10"/>
<path d="M71.7471 77.8803L56.2148 74.4717" stroke="#413B48" stroke-width="0.268877" stroke-miterlimit="10"/>
<path d="M71.4893 78.4534L55.957 75.0449" stroke="#413B48" stroke-width="0.268877" stroke-miterlimit="10"/>
<path d="M71.3489 79.0979L55.8164 75.6895" stroke="#413B48" stroke-width="0.268877" stroke-miterlimit="10"/>
</g>
<path d="M55.1367 95.8695C55.1367 95.8695 56.3587 102.17 57.0436 103.192C57.7285 104.214 58.5762 105.477 58.5762 105.477L59.8806 112.633H76.186L74.3598 106.56C74.3598 106.56 78.3709 98.1105 78.4689 91.1048C78.5666 84.0988 78.4363 79.3783 77.5231 76.4917C76.61 73.6051 76.3165 72.4324 74.9796 72.1619C73.6426 71.8913 73.0229 73.094 72.86 73.9359C72.7725 74.3874 72.6971 81.7465 72.6971 81.7465L71.8163 87.5566C71.8163 87.5566 67.2588 91.9654 64.9752 98.1154L60.4068 96.9432L55.1367 95.8695Z" fill="#DD9056"/>
<path d="M74.3246 106.398C73.3835 107.177 70.5989 108.397 66.8398 107.819C66.8398 107.819 69.4386 109.568 71.1741 109.409C72.9095 109.248 74.3246 106.398 74.3246 106.398Z" fill="#A95533"/>
<path d="M63.819 101.926C63.819 101.926 64.3131 100.132 64.9747 98.1165L60.4062 96.9443C60.4062 96.9443 61.056 98.4021 62.221 99.9739C62.5326 100.394 63.819 101.926 63.819 101.926Z" fill="#A95533"/>
<path d="M52.5769 75.7252C52.0342 75.8861 50.9169 76.709 50.7985 78.2395C50.68 79.77 51.5099 80.3985 52.2213 80.4805C52.9327 80.5624 53.7626 79.9065 53.9701 79.3872C54.1777 78.868 54.9482 78.212 54.7704 77.0643C54.5924 75.9166 54.2366 75.2332 52.5769 75.7252Z" fill="#DD9056"/>
<path d="M53.3337 80.4578C54.336 79.5002 55.0821 78.2211 54.9383 76.8532C54.8894 76.3893 54.7787 75.6896 54.2623 75.4712C53.7068 75.236 53.0145 75.3328 52.4881 75.5834C52.2842 75.6804 52.4643 75.9641 52.668 75.8671C53.0857 75.6682 53.7452 75.5506 54.1738 75.7976C54.3744 75.9132 54.4363 76.2033 54.4929 76.4016C54.5716 76.6762 54.6032 76.9586 54.5976 77.2423C54.5757 78.3896 53.926 79.4186 53.0817 80.2256C52.9225 80.3778 53.1741 80.6104 53.3337 80.4578Z" fill="#A95533"/>
<path opacity="0.47" d="M51.0205 77.8502C50.9172 78.2946 50.8869 79.0329 51.1273 79.4764C51.1273 79.4764 51.6351 79.5258 52.0358 79.4024C52.0358 79.4024 52.5436 77.8008 52.8643 77.3573C53.185 76.9138 53.4521 76.2484 53.2385 76.0514C53.0248 75.8545 52.4635 75.953 52.2764 76.0021C52.0896 76.0514 51.2611 76.8151 51.0205 77.8502Z" fill="#FCF6E6"/>
<path d="M51.6231 82.5599C50.9771 82.2423 49.221 82.6723 48.6874 84.0934C48.1538 85.5145 48.3481 87.0751 50.3769 87.2909C51.3695 87.3965 51.8679 87.1598 52.4297 85.4261C52.6671 84.6938 52.752 84.178 52.7204 83.7965C52.6636 83.109 52.2282 82.8575 51.6231 82.5599Z" fill="#DD9056"/>
<path d="M51.8981 82.8814C52.2479 83.0625 52.6423 83.3329 52.7077 83.727C52.7512 83.9888 52.6363 84.2665 52.5634 84.516C52.482 84.7956 52.4073 85.0775 52.3165 85.3545C52.1906 85.739 52.0187 86.1145 51.7857 86.4546C51.563 86.7795 51.2381 87.1389 50.7906 87.1655C50.5628 87.179 50.5612 87.5075 50.7906 87.494C51.846 87.4316 52.398 86.2431 52.6603 85.4419C52.7699 85.1069 52.8613 84.7658 52.9584 84.4276C53.0331 84.1677 53.1078 83.8948 53.0486 83.6255C52.9451 83.1548 52.5095 82.8209 52.078 82.5975C51.8779 82.4941 51.698 82.7778 51.8981 82.8814Z" fill="#A95533"/>
<path d="M48.1236 91.3082C48.4119 90.6769 49.2499 90.6797 49.9909 90.7342C50.7318 90.7889 52.5991 90.8709 52.688 92.5654C52.7769 94.2598 51.9906 94.4446 50.6271 94.5813C49.2636 94.7179 48.3014 94.8883 48.0049 93.7953C47.7084 92.7023 47.8864 91.8275 48.1236 91.3082Z" fill="#DD9056"/>
<path d="M50.5752 90.9483C51.0497 91.029 51.5314 91.1298 51.9284 91.3959C52.2537 91.6141 52.5981 91.965 52.5416 92.3628C52.529 92.451 52.6324 92.5271 52.7199 92.5271C52.8264 92.5271 52.8855 92.4512 52.8981 92.3628C52.9665 91.8815 52.5767 91.4463 52.1914 91.17C51.7492 90.8528 51.2121 90.7235 50.6703 90.6314C50.5759 90.6153 50.4781 90.6554 50.4511 90.7462C50.4269 90.8262 50.4802 90.9322 50.5752 90.9483Z" fill="#A95533"/>
<path opacity="0.47" d="M49.9694 94.2325C49.6266 93.8259 49.5321 91.8434 49.8244 91.4072C49.8244 91.4072 52.0001 91.4407 52.1453 91.6581C52.2902 91.8754 52.4343 93.7819 51.94 94.0097C51.2107 94.3458 49.9694 94.2325 49.9694 94.2325Z" fill="#FCF6E6"/>
<path d="M71.1833 63.515L65.4727 62.1823C64.4073 61.9337 63.7625 60.9359 64.032 59.9538C64.0778 59.7865 64.2623 59.685 64.4439 59.7274L73.3547 61.8068C73.5362 61.8491 73.6463 62.0193 73.6002 62.1866C73.3308 63.1689 72.2486 63.7637 71.1833 63.515Z" fill="#1C3255"/>
<path d="M71.9049 62.6544C71.8911 62.7979 71.7536 62.9041 71.5979 62.8913C71.4422 62.8786 71.327 62.7518 71.341 62.6082C71.3547 62.4647 71.4923 62.3585 71.6479 62.3711C71.8036 62.384 71.9186 62.5108 71.9049 62.6544Z" stroke="white" stroke-width="0.136416" stroke-miterlimit="10"/>
<path d="M58.0911 94.9202C58.1309 94.5075 58.5258 94.2026 58.9733 94.2393C59.4208 94.276 59.7515 94.6401 59.7117 95.0528C59.6719 95.4654 59.277 95.7703 58.8295 95.7336C58.3822 95.6969 58.0515 95.3328 58.0911 94.9202Z" stroke="white" stroke-width="0.17052" stroke-miterlimit="10"/>
<path d="M70.5162 62.3153C70.5025 62.4589 70.3649 62.5651 70.2092 62.5522C70.0536 62.5395 69.9384 62.4127 69.9523 62.2692C69.966 62.1256 70.1036 62.0194 70.2593 62.0323C70.415 62.045 70.5301 62.1718 70.5162 62.3153Z" fill="white"/>
<path opacity="0.47" d="M48.7284 85.727C48.7284 85.727 48.6426 84.8033 49.0433 84.0116C49.444 83.2198 49.9576 82.9477 50.3828 82.9552C50.6995 82.9608 51.2892 83.164 51.3907 83.4045C51.6439 84.0043 51.0067 85.2681 50.6918 85.9807C50.6918 85.9807 50.5606 86.9149 49.6446 86.6246C49.6446 86.6246 48.8429 86.2813 48.7284 85.727Z" fill="#FCF6E6"/>
<path d="M76.9151 76.0015C76.5388 76.2513 76.0768 76.4401 75.6093 76.4708C75.5511 76.4747 75.5688 76.4818 75.5414 76.4369C75.509 76.3841 75.4823 76.3275 75.4539 76.273C75.3966 76.1631 75.3415 76.0524 75.2884 75.941C75.1797 75.7134 75.0813 75.4819 74.9898 75.2478C74.9128 75.0504 74.5684 75.1355 74.6461 75.3351C74.755 75.614 74.8749 75.8889 75.0059 76.1597C75.0683 76.2884 75.1329 76.4163 75.2009 76.5427C75.2658 76.6637 75.345 76.7688 75.4985 76.7948C75.6319 76.8171 75.7829 76.7826 75.9142 76.759C76.0547 76.7337 76.1932 76.6987 76.3282 76.6545C76.6014 76.5648 76.8597 76.4416 77.095 76.2854C77.2793 76.1629 77.1017 75.8777 76.9151 76.0015Z" fill="#A95533"/>
<path opacity="0.5" d="M75.9458 72.7637C75.9458 72.7637 74.5907 72.9383 74.4124 73.0791C74.2344 73.2198 75.014 76.3307 75.757 76.4811C76.5001 76.6315 77.1642 75.9046 77.1642 75.9046C77.1642 75.9046 76.6953 73.8573 75.9458 72.7637Z" fill="#FCF6E6"/>
<path d="M76.5589 81.8506C77.0748 81.7989 77.57 81.6732 78.0415 81.4732C78.129 81.4361 78.1507 81.3198 78.1055 81.2486C78.0529 81.1657 77.9496 81.1524 77.8618 81.1896C77.452 81.3634 77.0076 81.4773 76.5591 81.5221C76.4635 81.5318 76.3809 81.5908 76.3809 81.6865C76.3806 81.7678 76.4625 81.8603 76.5589 81.8506Z" fill="#A95533"/>
<path d="M77.0769 82.3259C77.4455 82.2974 77.8018 82.1946 78.1178 82.0161C78.1971 81.9712 78.2346 81.8669 78.1818 81.7914C78.1304 81.7178 78.0231 81.6843 77.9379 81.7324C77.7862 81.8182 77.6756 81.8654 77.5234 81.9116C77.4487 81.9341 77.3729 81.953 77.2958 81.9678C77.2574 81.9753 77.2186 81.9811 77.1799 81.9871C77.1585 81.9899 77.1578 81.9901 77.1774 81.9878C77.1662 81.989 77.155 81.9903 77.1439 81.9914C77.1215 81.9938 77.0992 81.9957 77.0769 81.9974C76.9842 82.0045 76.8942 82.0678 76.8986 82.1618C76.9026 82.2446 76.9772 82.3336 77.0769 82.3259Z" fill="#A95533"/>
<path d="M61.5417 98.8977L55.1367 95.8701L60.4065 96.9438L61.5417 98.8977Z" fill="#A95533"/>
<path d="M60.4988 64.8367L60.3528 64.2596L60.2729 64.2412L60.1344 64.7528L59.8011 64.676L60.1681 63.3209L60.7275 63.4497C60.8353 63.4745 60.9219 63.5143 60.9871 63.5689C61.0537 63.6239 61.0969 63.6886 61.1168 63.7629C61.1371 63.8359 61.1364 63.9123 61.1148 63.9921C61.0904 64.0822 61.0426 64.1566 60.9715 64.2154C60.9016 64.2746 60.8127 64.3074 60.7046 64.314L60.875 64.9233L60.4988 64.8367ZM60.3362 64.0076L60.5428 64.0552C60.6039 64.0693 60.6533 64.0649 60.6912 64.0422C60.7304 64.0198 60.7574 63.9816 60.772 63.9275C60.7859 63.876 60.7813 63.8319 60.7582 63.7951C60.7363 63.7586 60.6948 63.7334 60.6338 63.7193L60.4272 63.6717L60.3362 64.0076ZM62.2483 64.6489C62.2399 64.6798 62.2292 64.7115 62.2163 64.7441L61.462 64.5704C61.4491 64.6385 61.4566 64.6949 61.4845 64.7396C61.5141 64.7834 61.5568 64.8117 61.6126 64.8245C61.6958 64.8437 61.763 64.8222 61.8143 64.7602L62.1691 64.8419C62.1317 64.9085 62.0813 64.9646 62.0179 65.0101C61.9558 65.056 61.8846 65.0868 61.8045 65.1025C61.7243 65.1182 61.64 65.1159 61.5517 65.0955C61.4451 65.071 61.3564 65.0267 61.2854 64.9625C61.2145 64.8983 61.1669 64.819 61.1428 64.7245C61.1187 64.6301 61.1218 64.5269 61.1521 64.415C61.1824 64.303 61.2317 64.2104 61.2998 64.1372C61.3692 64.0644 61.4516 64.015 61.547 63.9891C61.6424 63.9632 61.744 63.9626 61.8518 63.9875C61.957 64.0117 62.0447 64.0551 62.1147 64.1177C62.1847 64.1803 62.2314 64.2574 62.255 64.349C62.2798 64.4408 62.2775 64.5408 62.2483 64.6489ZM61.9307 64.4835C61.946 64.4269 61.9388 64.3773 61.9088 64.3349C61.8789 64.2925 61.8347 64.2645 61.7763 64.2511C61.7204 64.2382 61.6686 64.2434 61.6209 64.2665C61.5745 64.29 61.5388 64.3303 61.5136 64.3875L61.9307 64.4835ZM62.8572 64.3974C62.9033 64.3547 62.9591 64.3245 63.0246 64.3068C63.0902 64.289 63.1613 64.289 63.2379 64.3067C63.3276 64.3273 63.4027 64.3685 63.4633 64.4303C63.5238 64.4921 63.5636 64.5696 63.5825 64.6629C63.6027 64.7564 63.5978 64.8585 63.5678 64.9692C63.5379 65.0799 63.4899 65.1727 63.4241 65.2478C63.3598 65.3219 63.285 65.3737 63.1997 65.4033C63.1148 65.4316 63.0275 65.4354 62.9378 65.4147C62.8624 65.3974 62.7997 65.3665 62.7496 65.3222C62.7008 65.2781 62.6668 65.2279 62.6475 65.1715L62.4677 65.8356L62.1344 65.7589L62.5653 64.1682L62.8985 64.2449L62.8572 64.3974ZM63.2287 64.8911C63.251 64.8087 63.2451 64.739 63.2108 64.6819C63.1783 64.6238 63.1282 64.587 63.0606 64.5714C62.9944 64.5562 62.9314 64.5669 62.8717 64.6038C62.8134 64.6409 62.773 64.7007 62.7507 64.7831C62.7284 64.8654 62.7335 64.9357 62.7661 64.9937C62.8 65.0521 62.8501 65.089 62.9163 65.1042C62.9826 65.1195 63.0456 65.1087 63.1052 65.0718C63.1652 65.0337 63.2064 64.9735 63.2287 64.8911ZM64.0872 65.6794C63.9806 65.6549 63.8906 65.6102 63.817 65.5454C63.7447 65.4809 63.6953 65.4012 63.6685 65.3061C63.6431 65.2114 63.6456 65.1081 63.6759 64.9961C63.7059 64.8854 63.7569 64.794 63.8289 64.7217C63.9013 64.6481 63.9865 64.5987 64.0844 64.5734C64.1824 64.5481 64.2846 64.5477 64.3912 64.5722C64.4977 64.5968 64.5878 64.6414 64.6613 64.7062C64.7349 64.771 64.7848 64.8516 64.8112 64.9479C64.8379 65.0429 64.8363 65.1457 64.8063 65.2564C64.7763 65.3671 64.7245 65.4591 64.6508 65.5323C64.5788 65.6046 64.4932 65.6533 64.3939 65.6783C64.2959 65.7036 64.1937 65.7039 64.0872 65.6794ZM64.1645 65.3937C64.2282 65.4084 64.2884 65.3976 64.3451 65.3614C64.4032 65.3256 64.4438 65.2645 64.4672 65.1783C64.4906 65.0921 64.4864 65.0207 64.4548 64.9642C64.4245 64.908 64.3775 64.8726 64.3138 64.8579C64.2488 64.843 64.1886 64.8537 64.1332 64.8902C64.0781 64.9253 64.0387 64.9867 64.015 65.0742C63.9917 65.1604 63.9945 65.2315 64.0235 65.2874C64.0539 65.3436 64.1009 65.379 64.1645 65.3937ZM65.4137 65.0148C65.4687 64.9646 65.53 64.9295 65.5975 64.9095C65.6654 64.8882 65.735 64.8858 65.8065 64.9022L65.7119 65.2516L65.6203 65.2305C65.5371 65.2114 65.4699 65.2151 65.4185 65.2415C65.3675 65.2667 65.33 65.3237 65.306 65.4125L65.1705 65.9125L64.8372 65.8357L65.129 64.7585L65.4623 64.8353L65.4137 65.0148ZM66.3529 65.8873L66.277 66.1673L66.1075 66.1282C65.9866 66.1004 65.9003 66.0497 65.8484 65.9763C65.7969 65.9015 65.7891 65.7979 65.825 65.6653L65.941 65.2367L65.8085 65.2062L65.8828 64.9321L66.0153 64.9626L66.0864 64.7001L66.4197 64.7768L66.3486 65.0394L66.5669 65.0896L66.4926 65.3637L66.2743 65.3135L66.1572 65.7459C66.1485 65.7781 66.15 65.803 66.1618 65.8208C66.1735 65.8385 66.1976 65.8516 66.234 65.86L66.3529 65.8873Z" fill="#B3CAFF"/>
<path d="M58.5383 68.939L58.2548 68.8737L58.1689 68.9996L58.0529 68.9728L58.4776 68.3569L58.6062 68.3866L58.6669 69.1142L58.5499 69.0873L58.5383 68.939ZM58.5315 68.8421L58.5058 68.5049L58.3103 68.7911L58.5315 68.8421ZM58.808 68.8617C58.8225 68.8082 58.8464 68.7635 58.8796 68.7274C58.9135 68.6915 58.9526 68.6666 58.9971 68.6529C59.0423 68.6387 59.0887 68.6371 59.1361 68.648C59.1712 68.6561 59.2035 68.6718 59.2331 68.695C59.2635 68.7177 59.2854 68.7439 59.2988 68.7737L59.3683 68.5169L59.4804 68.5427L59.2869 69.257L59.1748 69.2312L59.1965 69.1511C59.1714 69.1726 59.1403 69.188 59.1033 69.1973C59.0669 69.2067 59.0279 69.2066 58.9864 69.197C58.9396 69.1862 58.8998 69.1648 58.8671 69.1326C58.8353 69.1 58.8136 69.0602 58.8022 69.0131C58.7916 68.9655 58.7936 68.9151 58.808 68.8617ZM59.247 68.9648C59.2569 68.9281 59.2578 68.8945 59.2495 68.8638C59.2419 68.8334 59.2276 68.8082 59.2068 68.7884C59.1859 68.7685 59.1612 68.7553 59.1326 68.7487C59.104 68.7422 59.0755 68.7431 59.047 68.7516C59.0186 68.7594 58.993 68.775 58.9701 68.7985C58.948 68.8214 58.932 68.8512 58.922 68.8879C58.9121 68.9246 58.9109 68.9585 58.9183 68.9896C58.9264 69.0209 58.9408 69.0467 58.9615 69.0672C58.983 69.0872 59.0077 69.1004 59.0356 69.1068C59.0642 69.1134 59.0928 69.1125 59.1213 69.104C59.1498 69.0955 59.1752 69.0795 59.1975 69.0559C59.2206 69.0318 59.2371 69.0015 59.247 68.9648ZM60.0632 68.8707L59.9191 69.4026L59.808 69.377L59.825 69.3142C59.8015 69.3321 59.7738 69.3442 59.7417 69.3504C59.7105 69.3562 59.6789 69.3555 59.6471 69.3481C59.6048 69.3384 59.5692 69.321 59.5401 69.2958C59.5117 69.2708 59.4924 69.239 59.4821 69.2004C59.4725 69.162 59.4742 69.1186 59.4873 69.0704L59.572 68.7576L59.6821 68.783L59.6019 69.0793C59.589 69.1269 59.5911 69.1664 59.6081 69.1977C59.6254 69.2283 59.6548 69.2484 59.6963 69.258C59.7379 69.2675 59.7741 69.2625 59.805 69.243C59.8366 69.2229 59.8589 69.1891 59.8718 69.1415L59.9521 68.8452L60.0632 68.8707ZM60.1013 69.1595C60.1158 69.1061 60.1397 69.0613 60.1729 69.0252C60.2068 68.9893 60.246 68.9644 60.2904 68.9507C60.3356 68.9366 60.3817 68.9348 60.4284 68.9456C60.4707 68.9553 60.5051 68.9722 60.5317 68.9961C60.5592 69.0195 60.5791 69.0456 60.5913 69.0744L60.6122 68.9972L60.7243 69.023L60.5802 69.5548L60.4681 69.529L60.4896 69.4499C60.4639 69.4706 60.4326 69.4856 60.3956 69.4949C60.3586 69.5041 60.3193 69.504 60.2777 69.4944C60.2316 69.4838 60.1925 69.4624 60.1604 69.4305C60.1286 69.3978 60.1069 69.358 60.0955 69.3109C60.0849 69.2634 60.0869 69.2129 60.1013 69.1595ZM60.5403 69.2626C60.5502 69.2259 60.5511 69.1923 60.5428 69.1617C60.5352 69.1312 60.5209 69.106 60.5001 69.0862C60.4792 69.0664 60.4545 69.0531 60.4259 69.0466C60.3973 69.04 60.3688 69.0409 60.3403 69.0494C60.3119 69.0572 60.2863 69.0729 60.2634 69.0963C60.2413 69.1192 60.2253 69.149 60.2153 69.1857C60.2054 69.2224 60.2042 69.2563 60.2116 69.2874C60.2197 69.3187 60.2341 69.3445 60.2548 69.365C60.2763 69.385 60.301 69.3982 60.3289 69.4047C60.3575 69.4112 60.3861 69.4103 60.4146 69.4018C60.4431 69.3933 60.4685 69.3773 60.4908 69.3537C60.5139 69.3297 60.5304 69.2993 60.5403 69.2626ZM61.1434 69.1103C61.1857 69.12 61.221 69.1374 61.2494 69.1624C61.2785 69.1875 61.2978 69.2193 61.3074 69.2577C61.3171 69.2962 61.3153 69.3395 61.3022 69.3878L61.2173 69.7015L61.1072 69.6761L61.1877 69.3789C61.2006 69.3312 61.1984 69.2921 61.1812 69.2615C61.1641 69.2302 61.1348 69.2098 61.0932 69.2002C61.0516 69.1906 61.015 69.1959 60.9833 69.2159C60.9525 69.2355 60.9306 69.2691 60.9177 69.3167L60.8372 69.614L60.7261 69.5884L60.8702 69.0566L60.9813 69.0822L60.9648 69.143C60.9889 69.1253 61.0166 69.1135 61.0479 69.1077C61.0797 69.1021 61.1116 69.1029 61.1434 69.1103Z" fill="#677F87"/>
<path d="M57.5463 91.3824L57.463 91.0782L57.3782 91.0586L57.3056 91.327L57.1945 91.3014L57.3762 90.6306L57.61 90.6844C57.662 90.6964 57.7034 90.7155 57.7343 90.7417C57.7658 90.7681 57.7862 90.7985 57.7956 90.8327C57.8056 90.8672 57.8055 90.9031 57.7954 90.9404C57.7835 90.9841 57.7597 91.021 57.724 91.0511C57.6891 91.0806 57.6432 91.0957 57.5865 91.0963L57.6788 91.4129L57.5463 91.3824ZM57.402 90.9708L57.5248 90.9991C57.5664 91.0086 57.6004 91.0055 57.6267 90.9897C57.6537 90.9741 57.672 90.9489 57.6814 90.9141C57.6908 90.8794 57.6877 90.85 57.6721 90.8259C57.6568 90.8011 57.628 90.7839 57.5857 90.7742L57.4629 90.7459L57.402 90.9708ZM58.0789 90.8867L58.0256 91.0836L58.2595 91.1375L58.2352 91.2272L58.0013 91.1734L57.9456 91.379L58.2087 91.4396L58.1844 91.5293L57.8102 91.4432L57.9921 90.7714L58.3664 90.8575L58.342 90.9473L58.0789 90.8867ZM58.7667 91.5178L58.4831 91.4525L58.3972 91.5783L58.2813 91.5516L58.7059 90.9357L58.8345 90.9653L58.8952 91.693L58.7783 91.6661L58.7667 91.5178ZM58.7598 91.4209L58.7341 91.0837L58.5386 91.3699L58.7598 91.4209ZM59.4036 91.0974C59.4757 91.114 59.535 91.1424 59.5814 91.1825C59.6287 91.2221 59.6599 91.271 59.6752 91.3292C59.6914 91.3869 59.6902 91.4498 59.6717 91.518C59.6532 91.5863 59.6222 91.642 59.5788 91.6853C59.5359 91.7288 59.4836 91.7577 59.4217 91.7722C59.3606 91.7862 59.294 91.7849 59.2219 91.7682L59.0007 91.7173L59.1824 91.0465L59.4036 91.0974ZM59.2462 91.6785C59.3255 91.6967 59.392 91.6895 59.4457 91.6567C59.4994 91.624 59.5368 91.569 59.5577 91.4918C59.5788 91.4139 59.5741 91.3483 59.5438 91.2948C59.5134 91.2413 59.4586 91.2054 59.3793 91.1872L59.2692 91.1618L59.1361 91.6531L59.2462 91.6785ZM60.8398 91.4281L60.6581 92.099L60.547 92.0734L60.6714 91.6139L60.3404 92.0258L60.2634 92.0081L60.1803 91.5008L60.0558 91.9603L59.9447 91.9347L60.1264 91.2639L60.2463 91.2915L60.3416 91.8723L60.7209 91.4008L60.8398 91.4281ZM61.1112 92.2105C61.0482 92.196 60.9939 92.1681 60.9485 92.1269C60.9039 92.0851 60.8731 92.0346 60.856 91.9753C60.8398 91.9155 60.8405 91.8528 60.8583 91.7872C60.8761 91.7216 60.9073 91.6662 60.9519 91.6211C60.9973 91.5762 61.0501 91.5453 61.1106 91.5284C61.1719 91.5111 61.234 91.5097 61.2971 91.5242C61.3607 91.5389 61.4149 91.567 61.4595 91.6088C61.5049 91.65 61.5358 91.7002 61.5522 91.7593C61.5687 91.8185 61.568 91.8809 61.5502 91.9465C61.5324 92.0121 61.5011 92.0678 61.4563 92.1136C61.4116 92.1587 61.3587 92.1899 61.2974 92.2072C61.2369 92.224 61.1748 92.2251 61.1112 92.2105ZM61.1371 92.1149C61.1819 92.1252 61.2245 92.1245 61.265 92.1126C61.3057 92.1001 61.3408 92.0774 61.3704 92.0446C61.4008 92.0112 61.4228 91.9698 61.4362 91.9203C61.4496 91.8707 61.4513 91.825 61.4413 91.783C61.4319 91.7412 61.4124 91.7063 61.3827 91.6782C61.353 91.6502 61.3157 91.631 61.2709 91.6207C61.2261 91.6104 61.1834 91.6112 61.143 91.623C61.1025 91.6349 61.0671 91.6572 61.0369 91.6899C61.0073 91.7227 60.9857 91.7639 60.9723 91.8134C60.9589 91.863 60.9568 91.909 60.966 91.9514C60.976 91.9934 60.9958 92.0287 61.0253 92.0574C61.055 92.0854 61.0922 92.1046 61.1371 92.1149ZM61.9201 92.3896L61.8368 92.0853L61.752 92.0658L61.6794 92.3341L61.5683 92.3085L61.75 91.6377L61.9839 91.6916C62.0358 91.7035 62.0772 91.7226 62.1081 91.7489C62.1396 91.7753 62.16 91.8056 62.1694 91.8399C62.1794 91.8743 62.1793 91.9102 62.1692 91.9475C62.1573 91.9913 62.1335 92.0282 62.0978 92.0583C62.0629 92.0878 62.017 92.1029 61.9603 92.1035L62.0526 92.4201L61.9201 92.3896ZM61.7758 91.978L61.8986 92.0062C61.9402 92.0158 61.9742 92.0127 62.0005 91.9969C62.0276 91.9812 62.0458 91.956 62.0552 91.9213C62.0646 91.8865 62.0615 91.8571 62.046 91.833C62.0306 91.8083 62.0018 91.7911 61.9595 91.7813L61.8368 91.7531L61.7758 91.978ZM62.4527 91.8939L62.3994 92.0908L62.6333 92.1446L62.609 92.2344L62.3751 92.1806L62.3194 92.3861L62.5825 92.4467L62.5582 92.5365L62.184 92.4503L62.366 91.7785L62.7402 91.8647L62.7158 91.9545L62.4527 91.8939Z" fill="#677F87"/>
<path opacity="0.1" d="M58.7031 91.8047L59.5211 92.7559L60.8122 92.2315L58.7031 91.8047Z" fill="#413B48"/>
<path d="M103.815 105.626C111.098 105.626 117.001 105.433 117.001 105.195C117.001 104.957 111.098 104.765 103.815 104.765C96.5326 104.765 90.6289 104.957 90.6289 105.195C90.6289 105.433 96.5326 105.626 103.815 105.626Z" fill="#1C3255"/>
<path d="M96.8931 102.305L97.3127 99.9453L99.8426 100.033L99.9045 102.305L98.716 104.28L96.5762 102.7L96.8931 102.305Z" fill="#DD9056"/>
<path d="M98.8234 100.118L98.543 103.448C98.543 103.448 99.2002 103.091 99.9683 102.432L99.9313 100.161L98.8234 100.118Z" fill="#965322"/>
<path d="M96.74 102.277C96.74 102.277 97.4831 102.264 98.3478 102.892C98.8626 103.266 99.6403 102.495 99.8786 102.295C99.927 102.255 99.9929 102.291 100.001 102.363L100.3 104.971H92.7718C92.6843 104.971 92.6133 104.882 92.6133 104.773L92.6373 104.611C92.6901 104.253 92.9354 103.944 93.2896 103.789L96.74 102.277Z" fill="#B3CAFF"/>
<path d="M96.3164 102.414L97.5284 103.085" stroke="white" stroke-width="0.463352" stroke-miterlimit="10"/>
<path d="M95.7891 102.673L97.0013 103.344" stroke="white" stroke-width="0.463352" stroke-miterlimit="10"/>
<path d="M109.773 102.112L108.886 99.7355L111.457 99.3535L112.172 102.305L110.983 104.28L108.844 102.7L109.773 102.112Z" fill="#DD9056"/>
<path d="M110.525 99.5654L111.456 103.343C111.456 103.343 111.402 102.935 112.17 102.275L111.634 99.6079L110.525 99.5654Z" fill="#965322"/>
<path d="M109.008 102.277C109.008 102.277 109.751 102.264 110.615 102.892C111.13 103.266 111.908 102.495 112.146 102.295C112.195 102.255 112.26 102.291 112.269 102.363L112.568 104.971H105.039C104.952 104.971 104.881 104.882 104.881 104.773L104.896 104.674C104.954 104.277 105.226 103.934 105.618 103.762L109.008 102.277Z" fill="#B3CAFF"/>
<path d="M108.414 102.466L109.626 103.137" stroke="white" stroke-width="0.463352" stroke-miterlimit="10"/>
<path d="M107.887 102.725L109.099 103.396" stroke="white" stroke-width="0.463352" stroke-miterlimit="10"/>
<path d="M97.3628 70.7412C97.3628 70.7412 96.3945 81.8308 96.3038 84.8949C96.2128 87.959 96.8551 100.303 96.8551 100.303L100.108 100.416C100.108 100.416 103.696 78.7709 107.608 71.3813L97.3628 70.7412Z" fill="#B3CAFF"/>
<path d="M102.248 71.3262C102.248 71.3262 99.4927 84.1375 99.4927 86.1045C99.4927 88.0717 99 100.203 99 100.203" stroke="white" stroke-width="0.463352" stroke-miterlimit="10"/>
<path d="M97.3555 70.7412C97.3555 70.7412 99.5942 79.9853 101.868 86.5254C103.706 91.8103 108.664 100.203 108.664 100.203L111.899 100.076L108.369 86.6825C108.16 85.8937 108.029 85.0876 107.975 84.2739C107.773 81.2028 108.433 74.9972 108.708 71.021L97.3555 70.7412Z" fill="#B3CAFF"/>
<path d="M105.197 70.9141C105.197 70.9141 104.139 82.8961 105.09 84.7596C106.04 86.6232 110.257 100.161 110.257 100.161" stroke="white" stroke-width="0.463352" stroke-miterlimit="10"/>
<path d="M101.404 70.8105L104.777 75.0451" stroke="#0E162E" stroke-width="0.463352" stroke-miterlimit="10"/>
<path d="M87.5148 60.0884C87.5148 60.0884 94.3848 65.6846 95.7778 65.4771C97.1711 65.2696 104.232 53.9217 101.158 52.7488C101.158 52.7488 100.45 52.0096 99.7121 52.6156C98.9737 53.2215 96.7703 54.6815 94.2074 60.8755C94.2074 60.8755 88.8599 58.0393 88.4603 57.7271C88.4603 57.7271 86.9191 55.779 86.8984 56.1725C86.8779 56.566 87.556 57.4318 87.371 57.4713C87.186 57.5108 85.0692 56.0742 84.8842 56.212C84.6992 56.3497 86.22 57.1565 86.1378 57.1958C86.0557 57.2351 84.5349 56.507 84.4528 56.6645C84.3706 56.822 85.8914 57.5501 85.8297 57.6091C85.7681 57.6681 84.3089 56.9598 84.2678 57.0778C84.2266 57.1958 85.3776 57.8058 85.4802 57.9831C85.4802 57.9831 84.2266 57.5108 84.1649 57.7075C84.1032 57.9041 87.5148 60.0884 87.5148 60.0884Z" fill="#DD9056"/>
<path d="M87.0215 57.3145L87.597 58.259C87.597 58.259 87.3606 57.5211 87.4222 57.4423L87.0215 57.3145Z" fill="#965322"/>
<path d="M94.4341 60.3071C94.4341 60.3071 98.7158 48.8701 102.767 51.9734C105.032 53.708 97.9698 65.6068 96.3347 66.7479L90.9746 63.3669L92.4395 59.6282L94.4341 60.3071Z" fill="#1C3255"/>
<path d="M92.4395 59.6279L90.9746 63.3666L92.6159 64.5173L93.6776 60.1122L92.4395 59.6279Z" fill="#345BA3"/>
<path opacity="0.7" d="M102.769 51.9738C101.655 51.12 100.619 51.609 99.5277 52.3358C99.0742 53.1073 98.5511 53.7689 98.0509 54.4503C98.0998 54.6068 98.1017 54.7872 98.0347 54.9878C97.2746 57.261 96.8716 59.8086 95.6826 61.926C94.7115 63.6558 92.9699 63.785 91.2529 63.3404C91.2494 63.3503 91.2447 63.3608 91.2422 63.3702L96.3365 66.748C97.9716 65.6069 105.034 53.7084 102.769 51.9738Z" fill="#0E162E"/>
<path d="M111.483 55.9695C111.375 53.3584 106.525 51.1839 106.525 51.1839L104.683 50.5022L105.004 50.2295L102.877 52.0501C102.403 52.4563 101.917 52.5756 101.712 51.9988L101.743 51.7165V51.2081L100.668 51.5085C100.316 51.5506 98.6923 53.2584 98.1636 54.0491C97.5909 54.9052 97.2618 55.8952 97.2106 56.9176L96.8066 71.9148L108.442 72.6152C108.441 72.615 111.65 59.9879 111.483 55.9695Z" fill="#F6E1A7"/>
<path d="M95.7969 70.459L109.422 71.4035" stroke="white" stroke-width="0.200967" stroke-miterlimit="10"/>
<path d="M104.775 50.5303C104.775 50.5303 104.622 53.0656 102.854 58.8708C101.717 62.6067 100.834 68.9728 100.432 72.2122C100.295 73.314 101.185 74.2963 102.385 74.3707L109.769 74.8291C109.769 74.8291 110.224 68.7593 110.035 67.529C109.846 66.2986 114.971 54.2831 109.148 52.2352L104.775 50.5303Z" fill="#1C3255"/>
<path d="M100.899 53.6963L100.864 54.0255L98.2495 72.0637C98.0791 73.2381 97.0303 74.1365 95.7476 74.2062L95.2305 74.2343C95.2305 74.2343 95.7659 67.9781 96.1169 66.6795C97.3524 58.2744 96.7973 56.1907 97.213 55.3946C97.8555 54.1643 99.3739 51.5929 101.258 51.3154L100.899 53.6963Z" fill="#1C3255"/>
<path d="M100.457 65.4412C100.429 65.6525 100.464 65.8313 100.536 65.8407C100.608 65.85 100.689 65.6862 100.717 65.4751C100.746 65.2637 100.711 65.0848 100.639 65.0756C100.567 65.0663 100.486 65.2301 100.457 65.4412Z" fill="white"/>
<path d="M99.2196 49.8628C100.106 49.8628 100.824 49.2005 100.824 48.3835C100.824 47.5666 100.106 46.9043 99.2196 46.9043C98.3335 46.9043 97.6152 47.5666 97.6152 48.3835C97.6152 49.2005 98.3335 49.8628 99.2196 49.8628Z" fill="#B3CAFF"/>
<path d="M97.9668 48.3832C97.9668 47.7449 98.5279 47.2275 99.2202 47.2275C99.9125 47.2275 100.474 47.7449 100.474 48.3832C100.474 49.0216 99.9125 49.5389 99.2202 49.5389C98.5279 49.5389 97.9668 49.0216 97.9668 48.3832Z" stroke="white" stroke-width="0.380144" stroke-miterlimit="10"/>
<path d="M97.5764 42.6865C96.9744 43.0944 97.1836 44.7653 97.7675 45.3523C97.9311 45.5429 98.1326 45.6888 98.373 45.7454C98.5082 45.8392 98.6809 45.934 98.8389 45.9452C99.1945 45.9703 99.5063 45.6002 99.7647 45.2345C100.019 44.8751 100.823 45.0944 100.95 45.1316L102.167 47.6791L102.558 47.3946L102.596 47.4309L102.635 47.4674L103.284 46.8189L103.284 46.7977C103.217 44.7837 102.694 43.9229 102.097 43.5199C102.567 42.4979 98.9825 42.8972 97.5764 42.6865ZM102.89 47.0631L102.749 47.2039C102.829 47.0481 102.941 46.9502 103.024 46.8949L102.89 47.0631Z" fill="#0E162E"/>
<path d="M103.338 47.8299L104.339 50.5129L103.662 51.9299C103.348 52.4516 102.571 54.0409 101.882 52.8558L101.818 52.3108L101.09 50.2808L102.649 47.6553C102.649 47.6553 103.079 47.7868 103.152 47.8595C103.225 47.9323 103.338 47.8299 103.338 47.8299Z" fill="#DD9056"/>
<path d="M102.649 47.6553L101.09 50.2808C101.09 50.2808 101.175 50.7575 101.625 50.8395C102.255 50.9539 102.639 50.131 102.732 48.8137" fill="#965322"/>
<path d="M102.29 47.1616C102.338 47.2183 102.427 47.212 102.461 47.1494C102.576 46.9363 103.119 46.4735 103.469 47.0799C103.945 47.9032 102.94 48.039 102.905 48.1795C102.836 48.4643 102.449 49.1146 101.824 49.6466C101.442 49.971 100.866 50.7494 100.217 50.4467C99.5679 50.1439 99.3317 49.6682 98.0527 45.5285C98.0527 45.5285 98.1365 45.7268 98.4968 45.7364C98.857 45.7463 98.7399 45.2755 99.0725 45.067C99.3424 44.8977 100.625 44.4166 101.33 45.3037C101.654 45.7113 102.006 46.828 102.29 47.1616Z" fill="#DD9056"/>
<path d="M100.496 49.0156C100.496 49.0156 100.149 48.9763 99.4629 49.2838C99.4629 49.2838 99.5832 48.5135 99.9023 48.5137C100.221 48.5139 100.496 49.0156 100.496 49.0156Z" fill="white"/>
<path d="M103.183 47.1086L102.808 47.6227C102.808 47.6227 102.685 46.6885 103.183 47.1086Z" fill="#965322"/>
<path d="M99.4677 47.6216C99.514 47.7523 99.6054 47.8422 99.6722 47.822C99.739 47.8021 99.7555 47.6798 99.7092 47.5489C99.6629 47.4182 99.5715 47.3285 99.5047 47.3485C99.4379 47.3687 99.4214 47.491 99.4677 47.6216Z" fill="#0E162E"/>
<path d="M98.8732 47.7617C98.9184 47.889 99.0075 47.9763 99.0724 47.9568C99.1373 47.9373 99.1536 47.8182 99.1085 47.6909C99.0633 47.5637 98.9742 47.4764 98.9093 47.4959C98.8444 47.5156 98.8281 47.6345 98.8732 47.7617Z" fill="#0E162E"/>
<path d="M99.6748 46.3717C99.8324 46.2787 99.0625 46.3734 98.9359 46.5313C98.8091 46.6892 98.9725 46.8971 99.1319 46.9995C99.1319 46.9995 99.2964 46.5948 99.6748 46.3717Z" fill="#0E162E"/>
<path d="M98.5309 47.1449C98.728 47.0571 98.8886 47.0477 98.8886 47.0477C98.8062 46.899 98.5849 46.7381 98.4043 46.7874" fill="#0E162E"/>
<path d="M99.247 47.8568L99.0371 48.5866C99.0369 48.6011 99.0506 48.6127 99.0643 48.6097L99.5368 48.4945C99.5491 48.4917 99.5556 48.4782 99.5502 48.4658L99.2875 47.8512C99.2784 47.8293 99.2472 47.8336 99.247 47.8568Z" fill="#965322"/>
<path d="M101.057 47.1238C101.057 46.3067 101.775 45.6445 102.661 45.6445C103.547 45.6445 104.265 46.3069 104.265 47.1238C104.265 47.9409 103.547 48.603 102.661 48.603C101.775 48.603 101.057 47.9409 101.057 47.1238Z" fill="#B3CAFF"/>
<path d="M101.408 47.1234C101.408 46.4851 101.969 45.9678 102.662 45.9678C103.354 45.9678 103.915 46.4851 103.915 47.1234C103.915 47.7618 103.354 48.2791 102.662 48.2791C101.969 48.2791 101.408 47.7618 101.408 47.1234Z" stroke="white" stroke-width="0.380144" stroke-miterlimit="10"/>
<path d="M102.067 45.7268C102.067 45.7268 100.32 42.6883 100.017 42.5763C99.5713 42.4119 99.3633 42.7407 99.3633 42.7407" stroke="#EDC32E" stroke-width="0.760213" stroke-miterlimit="10"/>
<path d="M102.86 48.548C103.749 50.6684 103.545 53.1078 102.248 55.0497C101.656 55.9365 100.858 56.7081 99.9244 57.2939C99.7154 57.425 99.4997 57.5471 99.2781 57.6591C99.1089 57.7447 98.8844 57.8031 98.7389 57.92C98.6 58.032 98.5495 58.2281 98.5111 58.3865C98.3626 58.9991 98.367 59.6497 98.3522 60.2738C98.3394 60.8094 98.4001 61.4006 98.2768 61.9278C98.183 62.329 97.9044 62.7163 97.6473 63.0433C97.3324 63.4437 96.9496 63.8252 96.4916 64.088C96.0529 64.3397 95.5112 64.4642 95.0646 64.1569C94.3355 63.655 94.1612 62.5775 94.0379 61.8132C94.0211 61.7091 93.8498 61.7533 93.8664 61.8567C94.0213 62.8171 94.4491 64.7858 95.961 64.476C96.9617 64.2709 97.7755 63.3019 98.2174 62.5056C98.4338 62.1159 98.4892 61.7627 98.5055 61.328C98.5325 60.6006 98.5218 59.872 98.5816 59.1458C98.6058 58.8536 98.63 58.5478 98.7287 58.2674C98.8432 57.9419 99.2232 57.8797 99.5234 57.7198C100.477 57.2111 101.312 56.5208 101.975 55.7097C103.649 53.6599 104.032 50.8922 103.032 48.5042C102.991 48.407 102.819 48.4493 102.86 48.548Z" fill="#B3CAFF"/>
<path d="M98.7726 49.8883C99.0141 50.5565 99.1992 51.197 99.1491 51.9076C99.1058 52.5232 99.0944 53.0822 99.2783 53.6806C99.6185 54.7872 100.4 55.9117 100.137 57.1015C100.114 57.2045 100.286 57.2485 100.309 57.1451C100.568 55.9733 99.8696 54.8844 99.5028 53.8014C99.4011 53.5008 99.3185 53.1927 99.2911 52.8781C99.2613 52.5378 99.3078 52.1977 99.3299 51.8585C99.376 51.1519 99.1843 50.5097 98.9439 49.8447C98.908 49.7452 98.7363 49.7877 98.7726 49.8883Z" fill="#B3CAFF"/>
<path d="M96.9627 62.781L95.4057 57.88C95.3347 57.6566 95.1597 57.4738 94.9279 57.3813L91.8081 56.1364C91.4211 55.9804 91.1258 56.3486 91.2624 56.717L92.6557 60.7426C92.7469 61.0099 92.9503 61.2292 93.2174 61.3483L96.5646 62.9007C96.6693 62.9475 96.9974 62.8863 96.9627 62.781Z" fill="#B3CAFF"/>
<path d="M96.6642 62.9574L95.0466 57.8695C94.9906 57.699 94.857 57.5593 94.6806 57.4865L91.552 56.265C91.3174 56.1734 91.1326 56.4156 91.2024 56.6416L92.6581 60.8201C92.7674 61.1025 92.8449 61.2353 93.1347 61.3715C94.1467 61.847 96.6917 63.0403 96.6642 62.9574Z" fill="#C2C2C2"/>
<path d="M91.9734 57.1461C92.0079 57.2135 91.9953 57.2858 91.9448 57.3079C91.8945 57.3298 91.8257 57.2931 91.791 57.2257C91.7563 57.1583 91.7691 57.086 91.8196 57.0639C91.8701 57.042 91.939 57.0789 91.9734 57.1461Z" fill="#27245F"/>
<path d="M92.0121 57.1301C92.061 57.2253 92.0428 57.3277 91.9716 57.3588C91.9004 57.3899 91.8029 57.338 91.754 57.2427C91.7051 57.1474 91.7233 57.0451 91.7945 57.014C91.8657 56.9827 91.9632 57.0348 92.0121 57.1301Z" stroke="#27245F" stroke-width="0.0645513" stroke-miterlimit="10"/>
<path d="M95.2688 58.1098L95.2777 58.103C95.3219 58.0691 95.3891 58.0882 95.405 58.139L95.5984 58.7598C95.6072 58.7879 95.597 58.8179 95.5725 58.8366L95.5723 58.8368C95.5285 58.8701 95.462 58.8516 95.4457 58.8014L95.2437 58.1873C95.2344 58.1592 95.2442 58.1287 95.2688 58.1098Z" stroke="#B3CAFF" stroke-width="0.129103" stroke-miterlimit="10"/>
<path d="M95.548 58.9935L95.5568 58.9868C95.6011 58.9529 95.6683 58.9718 95.6841 59.0229L95.8775 59.6434C95.8864 59.6715 95.8761 59.7015 95.8517 59.7202L95.8515 59.7204C95.8077 59.7537 95.7414 59.7352 95.7249 59.6852L95.5231 59.0711C95.5136 59.0428 95.5236 59.0123 95.548 58.9935Z" stroke="#B3CAFF" stroke-width="0.129103" stroke-miterlimit="10"/>
<path d="M95.9883 59.6621L95.7148 60.2524L96.4335 60.8798L95.9883 59.6621Z" fill="#0E162E"/>
<path d="M96.4029 60.6694L95.9228 59.4008C95.9228 59.4008 96.9193 60.2988 97.0917 60.7897C97.1825 61.0479 97.2369 61.3759 97.2369 61.3759L101.255 64.1387C101.787 64.4503 102.093 64.4986 102.27 63.8712C102.808 61.9639 105.145 58.1612 105.176 58.1143L109.647 61.4356L105.179 68.2317C104.671 69.0732 102.993 69.0812 102.269 68.4126C99.5827 65.9334 94.2461 61.3624 93.934 61.0942C93.7558 60.9408 93.2696 60.4256 93.3101 60.3396C93.4025 60.1428 94.3929 61.1594 94.368 61.0925C94.3431 61.0255 93.0925 59.9744 93.163 59.8137C93.2689 59.572 94.6419 60.7683 94.6659 60.7876C95.0313 61.077 93.3059 59.692 93.3369 59.5092C93.3681 59.3264 94.2005 59.9061 94.2303 59.9261C94.2303 59.9261 94.9123 60.4627 94.9638 60.4235C95.0152 60.3842 93.8519 58.8623 94.0574 58.8326C94.2628 58.803 95.0459 59.6952 95.2824 59.9117C95.5193 60.1282 96.4666 60.8449 96.4029 60.6694Z" fill="#DD9056"/>
<path d="M111.578 57.1758L109.379 68.2948C108.951 70.4596 106.4 71.5526 104.429 70.4158L101.262 68.5892L111.578 57.1758Z" fill="#0E162E"/>
<path d="M106.359 54.7481C106.359 54.7481 107.672 51.2637 110.089 52.7654C112.628 54.3425 112.554 60.5807 107.264 68.0387C106.063 69.7311 102.364 70.0373 100.861 68.5833L99.2852 67.7203L100.704 63.5611L101.626 64.0698L106.359 54.7481Z" fill="#1C3255"/>
<path d="M102.089 64.1035C102.089 64.2164 101.395 68.885 101.395 68.885L99.2852 67.7208L100.704 63.5615L102.089 64.1035Z" fill="#345BA3"/>
<path d="M112.4 103.446C112.4 103.446 110.629 103.443 110.445 105.024" stroke="white" stroke-width="0.463352" stroke-miterlimit="10"/>
<path d="M106.152 103.503C106.152 103.503 107.599 103.277 107.477 104.971" stroke="white" stroke-width="0.463352" stroke-miterlimit="10"/>
<path d="M100.275 103.446C100.275 103.446 98.426 103.443 98.2422 105.024" stroke="white" stroke-width="0.463352" stroke-miterlimit="10"/>
<path d="M93.9043 103.503C93.9043 103.503 95.3206 103.33 95.1982 105.024" stroke="white" stroke-width="0.463352" stroke-miterlimit="10"/>
<path d="M18.4922 105.07C18.4922 104.764 23.9505 104.516 30.6839 104.516C37.4172 104.516 42.8755 104.764 42.8755 105.07C42.8755 105.376 37.4172 105.624 30.6839 105.624C23.9507 105.624 18.4922 105.376 18.4922 105.07Z" fill="#1C3255"/>
<path d="M37.7101 54.0625C38.549 52.526 37.6289 51.9625 37.3438 51.645C36.6943 50.8249 35.3979 50.1953 34.5008 50.2666C34.5008 50.2666 33.3127 49.9024 32.3286 50.8092C32.1722 50.9532 29.6124 52.6037 33.1948 55.8894" fill="#1C3255"/>
<path d="M32.7851 50.846C33.1833 50.7531 33.2363 50.3924 33.1 50.1034C32.9592 49.8047 32.8382 49.3101 32.3588 49.4663C32.211 49.5144 32.0921 49.6223 32.0141 49.7476C31.8296 50.0431 31.6713 49.7912 31.4372 49.6811C31.1445 49.5436 30.7954 49.7328 30.5664 49.9502C30.4473 50.0632 30.336 50.1916 30.2925 50.3441C30.2064 50.6456 30.4007 50.9486 30.5864 51.2093C30.7433 51.4294 30.9239 51.6659 31.1994 51.7352C31.4126 51.7888 31.6378 51.7298 31.8496 51.671C32.0374 51.6189 32.228 51.5655 32.3914 51.4652C32.5547 51.365 32.6892 51.2097 32.7092 51.0299" fill="#1C3255"/>
<path d="M35.2188 50.4232C35.3896 50.1312 35.4217 49.7368 35.7326 49.5697C35.9343 49.4611 36.1866 49.4918 36.4172 49.5257C36.6916 49.566 36.992 49.6199 37.1647 49.8207C37.2617 49.9338 37.3034 50.0782 37.3369 50.219C37.3811 50.4052 37.4142 50.6069 37.3285 50.7805C37.2192 51.0024 36.9518 51.1127 36.7067 51.2038C36.6064 51.2412 36.4961 51.2789 36.393 51.2489C36.2387 51.2038 36.1761 51.0326 36.0456 50.9446" fill="#1C3255"/>
<path d="M33.3398 53.7741C33.3208 53.8256 33.26 53.8524 33.2049 53.8331C32.9745 53.7522 32.5235 53.5561 32.2326 54.0919C32.0853 54.3631 32.2051 54.704 32.4453 54.8431C32.6331 54.9519 32.9242 55.0594 33.0762 55.0355C33.2007 55.3194 32.995 57.3409 32.8218 57.5031C31.7562 58.5021 31.5 58.4871 31.5 58.4871C31.5 58.4871 35.2611 63.9301 35.3624 59.3585C35.3624 59.3585 35.8532 56.633 35.8781 56.6371C36.2325 56.6948 37.5666 56.7015 37.7542 54.3142C37.928 52.1028 36.286 51.696 35.8564 51.6224C35.4941 51.5604 34.2865 51.2201 33.3398 53.7741Z" fill="#D57E5A"/>
<path d="M35.869 56.641L34.8516 56.4346L34.9144 56.5507C35.1036 56.8995 35.6025 56.9468 35.869 56.641Z" fill="#A95533"/>
<path d="M37.0927 51.5958C37.3538 52.0482 36.7943 53.2959 35.6503 52.5867C35.2417 52.3335 34.7397 53.3817 34.281 53.5553C33.4712 53.8617 33.1812 53.695 33.043 53.3824C33.043 53.3824 35.4187 48.697 37.0927 51.5958Z" fill="#1C3255"/>
<path d="M36.9824 51.667C36.9824 51.667 37.1667 52.56 37.8446 53.2791C37.8446 53.2791 38.4718 52.0989 36.9824 51.667Z" fill="#1C3255"/>
<path d="M33.172 54.4275C32.8704 53.5109 32.4492 54.1773 32.4492 54.1773L33.172 54.4275Z" fill="#A95533"/>
<path d="M35.5319 54.4001C35.8337 54.4976 35.9926 54.802 35.887 55.0803C35.7813 55.3586 35.4511 55.5052 35.1495 55.4078C34.8477 55.3103 34.6887 55.0059 34.7944 54.7278C34.9001 54.4495 35.2303 54.3029 35.5319 54.4001Z" fill="#D16A51"/>
<path d="M37.432 55.6535C37.2009 55.5262 37.0906 55.2625 37.183 55.0192C37.2542 54.8314 37.5049 54.7366 37.7027 54.7031C37.7027 54.7031 37.6752 55.3155 37.432 55.6535Z" fill="#D16A51"/>
<path d="M36.2343 53.6157C36.1074 53.5835 36.5333 53.623 36.6571 53.7045C36.7811 53.7861 36.8747 53.9187 36.7984 54.0174C36.7984 54.0174 36.5389 53.6929 36.2343 53.6157Z" fill="black"/>
<path d="M37.6896 53.961C37.8209 53.9702 37.5539 53.8576 37.4073 53.8955C37.2607 53.9335 37.1264 54.0312 37.162 54.1479C37.162 54.1479 37.3745 53.9385 37.6896 53.961Z" fill="black"/>
<path d="M36.3058 54.4939C36.2702 54.616 36.2932 54.728 36.3575 54.7439C36.4217 54.7598 36.5027 54.6738 36.5383 54.5517C36.5739 54.4296 36.5508 54.3176 36.4866 54.3017C36.4224 54.2858 36.3414 54.3719 36.3058 54.4939Z" fill="black"/>
<path d="M37.1253 54.6621C37.0913 54.7788 37.1135 54.8856 37.1747 54.9009C37.2361 54.9161 37.3134 54.8339 37.3473 54.7172C37.3813 54.6005 37.3592 54.4936 37.298 54.4784C37.2366 54.4631 37.1593 54.5453 37.1253 54.6621Z" fill="black"/>
<path d="M36.8872 54.2461L36.981 55.0589L36.5684 54.9724L36.8872 54.2461Z" fill="#A95533"/>
<path d="M37.1409 55.5358L36.2559 55.3786C36.2559 55.3786 36.5661 54.958 36.8314 55.0917C37.0969 55.2253 37.1409 55.5358 37.1409 55.5358Z" fill="white"/>
<path d="M33.0447 50.4938C33.1373 50.3869 33.1436 50.238 33.1359 50.1013C33.1201 49.8179 33.044 49.5085 32.7966 49.3394C32.6493 49.2388 32.4519 49.2029 32.2742 49.2446C32.0964 49.2864 31.9418 49.4046 31.8646 49.5581C31.8213 49.6439 31.8008 49.7404 31.7412 49.8175C31.6293 49.9627 31.4161 49.999 31.2246 50.0237" stroke="#1C3255" stroke-width="0.35992" stroke-miterlimit="10"/>
<path d="M36.96 49.7256C37.2209 49.8522 37.5069 50.0071 37.5818 50.27C37.5993 50.3313 37.6037 50.3953 37.6058 50.4586C37.609 50.5635 37.6062 50.6688 37.5972 50.7735C37.5885 50.8712 37.5737 50.9714 37.5206 51.0564C37.4322 51.1978 37.2502 51.272 37.0733 51.2819C36.8967 51.2917 36.7222 51.2469 36.5527 51.1995" stroke="#1C3255" stroke-width="0.35992" stroke-miterlimit="10"/>
<path d="M37.2482 52.0693C37.284 52.3427 37.1483 52.6294 36.9068 52.7911C36.6652 52.9529 36.3273 52.983 36.0567 52.8669C35.807 52.7598 35.6289 52.5478 35.393 52.4169C35.13 52.271 34.7977 52.2363 34.5059 52.3238" stroke="#1C3255" stroke-width="0.35992" stroke-miterlimit="10"/>
<path d="M33.9617 53.0488C33.7483 53.142 33.5312 53.2452 33.3823 53.414C33.2333 53.5829 33.1698 53.8346 33.2918 54.0208C33.3762 54.15 33.5291 54.224 33.6601 54.3141C33.7912 54.4043 33.9143 54.539 33.8903 54.6881C33.8591 54.8823 33.6157 54.9669 33.4516 55.0918C33.2399 55.2529 33.1433 55.532 33.2147 55.7767C33.255 55.9142 33.3516 56.0444 33.4942 56.0992C33.6369 56.1539 33.8254 56.1129 33.9008 55.9884" stroke="#1C3255" stroke-width="0.35992" stroke-miterlimit="10"/>
<path d="M34.9512 100.597L35.4136 104.276C35.4136 104.276 36.5004 105.38 37.0693 104.738C37.3539 104.417 38.2611 104.052 38.3974 103.863C38.087 103.704 37.3453 103.243 37.3453 103.243L37.5178 100.523L34.9512 100.597Z" fill="#D57E5A"/>
<path d="M36.4404 100.69L36.3969 101.462C36.3969 101.462 35.4137 104.436 35.3276 104.086L35.0137 100.872L36.4404 100.69Z" fill="#A95533"/>
<path d="M37.3794 103.179L40.1066 104.818C40.2227 104.898 40.1399 105.032 39.9737 105.033C39.9737 105.033 35.0621 105.007 35.0548 104.941C35.0109 104.531 35.2226 103.671 35.2226 103.611C35.2226 103.397 35.9338 104.02 36.4169 104.147C36.6752 104.064 37.3017 103.126 37.3794 103.179Z" fill="#B3CAFF"/>
<path d="M24.3148 100.65L23.3574 103.942C23.3574 103.942 24.4959 105.38 25.0651 104.737C25.3497 104.416 26.2568 104.052 26.3932 103.863C26.0827 103.704 25.3411 103.242 25.3411 103.242L26.4104 100.603L24.3148 100.65Z" fill="#D57E5A"/>
<path d="M25.118 100.603L25.0663 100.889C25.0663 100.889 23.4106 104.435 23.3242 104.085L23.9279 100.603H25.118Z" fill="#A95533"/>
<path d="M25.3766 103.18L28.1038 104.819C28.2199 104.898 28.1371 105.033 27.9709 105.034C27.9709 105.034 22.6671 104.963 22.6602 104.897C22.8931 104.372 23.1593 103.267 23.4439 102.838C23.4749 102.791 23.8326 103.574 24.3155 103.701C24.5738 103.619 25.2991 103.127 25.3766 103.18Z" fill="#B3CAFF"/>
<path d="M30.3334 67.5317C29.2918 69.2298 28.7412 70.4734 28.1424 72.6322C27.4482 75.1358 22.2708 96.3133 21.9434 100.867C22.799 101.057 28.1303 100.93 28.6711 100.903C29.706 96.3997 32.9498 80.3587 33.6873 77.4955C33.8006 77.0554 34.6044 77.1635 34.4806 77.6012C33.3799 81.4927 32.6652 96.0257 32.2512 100.988C33.6482 101.059 37.5708 100.862 38.0891 100.802C38.6527 95.1936 41.5279 74.2756 37.0121 67.3937C34.9472 67.1311 32.4271 67.4742 30.3334 67.5317Z" fill="#1C3255"/>
<g opacity="0.48">
<path d="M31.1614 89.2028C31.3439 88.3306 31.5261 87.4609 31.7046 86.6104C29.016 86.744 28.6199 89.268 28.8738 91.3169C29.0197 92.4945 29.3593 93.8276 29.9394 95.0301C30.299 93.324 30.6909 91.45 31.0832 89.5755C31.0755 89.4491 31.099 89.3212 31.1614 89.2028Z" fill="#345BA3"/>
<path d="M38.5535 76.851C38.8088 77.6056 39.0964 78.3536 39.4727 79.0604C39.3848 76.3135 39.1302 73.7118 38.6208 71.5195C37.0593 72.4525 38.1316 75.6034 38.5535 76.851Z" fill="#345BA3"/>
<path d="M35.2464 84.9607C35.7602 83.3722 35.0228 81.9552 33.9006 80.8008C33.6439 82.7326 33.414 85.1596 33.209 87.6896C34.1247 86.9371 34.8985 86.0365 35.2464 84.9607Z" fill="#345BA3"/>
<path d="M35.7743 94.5599C35.8399 96.4207 36.8701 98.2095 38.2213 99.5652C38.4554 97.4366 38.8289 94.202 39.1137 90.5498C37.0461 91.1249 35.7019 92.4998 35.7743 94.5599Z" fill="#345BA3"/>
<path d="M29.1551 80.6583C29.4886 79.3752 29.5228 77.85 29.1577 76.5716C28.9008 75.6721 28.389 74.8939 27.7288 74.2246C27.1468 76.5267 26.1254 80.7141 25.0996 85.1407C27.0365 84.1577 28.611 82.7523 29.1551 80.6583Z" fill="#345BA3"/>
</g>
<path d="M36.7439 68.1387C36.7439 68.1387 38.5833 72.3357 38.5833 78.2591C38.5833 84.1825 36.709 99.1168 36.709 99.1168" stroke="white" stroke-width="0.342458" stroke-miterlimit="10"/>
<path d="M24.1191 98.582L31.3505 67.9463" stroke="white" stroke-width="0.342458" stroke-miterlimit="10"/>
<path d="M32.6392 68.1123C32.6392 68.1123 32.5766 73.5379 29.9355 73.1101" stroke="white" stroke-width="0.342458" stroke-miterlimit="10"/>
<path opacity="0.21" d="M36.9816 68.25L28.4796 74.1528C28.4796 74.1528 28.1247 70.9673 29.6351 68.3528L36.9816 68.25Z" fill="black"/>
<path d="M38.7413 73.249C36.1002 73.6769 35.9043 68.3877 35.9043 68.3877" stroke="white" stroke-width="0.342458" stroke-miterlimit="10"/>
<path d="M32.5449 98.9395L38.1608 99.118" stroke="white" stroke-width="0.342458" stroke-miterlimit="10"/>
<path d="M22.1055 98.5703L29.2521 98.8505" stroke="white" stroke-width="0.342458" stroke-miterlimit="10"/>
<path d="M41.209 64.1732C41.236 64.2779 43.8819 61.7085 43.8819 61.7085C43.8819 61.7085 46.2384 58.8358 46.4027 58.9999C46.6408 59.2379 45.7278 60.5189 45.7278 60.5189C45.7278 60.5189 45.7874 60.6652 45.9659 60.7384C46.1446 60.8116 46.2438 60.9214 46.3033 61.1409C46.3629 61.3606 46.601 61.4887 46.6408 61.6168C46.6806 61.7449 45.7939 62.7088 45.291 63.0444C45.291 63.0444 44.4344 64.1398 43.2862 65.463" fill="#D57E5A"/>
<path d="M43.9609 61.6901C43.9609 61.6901 44.4373 60.4455 44.6358 60.4822C44.8343 60.5189 45.7077 60.8665 45.6877 61.1777C45.6679 61.4888 44.9137 61.2326 44.9137 61.2326C44.9137 61.2326 45.0526 61.928 44.6756 62.0196C44.2984 62.111 43.9609 61.6901 43.9609 61.6901Z" fill="#D57E5A"/>
<path d="M45.1172 61.3145C45.1172 61.3145 45.0925 61.5003 45.3704 61.555C45.3704 61.555 45.4325 61.9481 45.7899 61.8749C45.7899 61.8749 45.7269 62.065 45.9452 62.1015C45.9452 62.1015 44.9782 63.0529 45.1172 61.3145Z" fill="#A95533"/>
<path d="M44.9578 60.5703C45.1526 60.6186 45.3394 60.6866 45.5254 60.7572C45.6215 60.7937 45.7043 60.8224 45.8065 60.8864C45.8535 60.9194 45.9075 60.961 45.9352 61.0389C45.9652 61.1177 45.9247 61.2145 45.871 61.2589C45.7618 61.3451 45.6587 61.3689 45.5477 61.3906C45.4388 61.4069 45.3329 61.4125 45.231 61.4011C45.1805 61.3945 45.1216 61.3943 45.1332 61.39C45.1402 61.3803 45.1321 61.3728 45.1342 61.3964L45.1407 61.4646C45.1428 61.5575 45.1516 61.6492 45.1477 61.7432L45.136 61.7451L45.0793 61.4754L45.0651 61.4078C45.0599 61.3863 45.0581 61.3556 45.0813 61.3368C45.1295 61.3044 45.1835 61.3196 45.2315 61.3162C45.4253 61.3157 45.6392 61.2999 45.7872 61.1816C45.8216 61.1522 45.8391 61.1082 45.826 61.0673C45.8135 61.0263 45.7783 60.9928 45.7406 60.9653C45.6634 60.9111 45.5684 60.8767 45.4823 60.8325L44.9531 60.5802L44.9578 60.5703Z" fill="#A95533"/>
<path d="M45.7528 60.4868C45.7582 60.5368 45.747 60.5726 45.7335 60.6065C45.7198 60.6404 45.6937 60.6636 45.6739 60.6923C45.6421 60.7108 45.6179 60.7357 45.5799 60.749C45.5425 60.7627 45.5024 60.7743 45.4463 60.7724L45.4375 60.7651C45.5348 60.6657 45.6369 60.5707 45.744 60.4795L45.7528 60.4868Z" fill="#A95533"/>
<path d="M46.156 60.9495C46.1197 61.0477 46.0604 61.1316 45.9941 61.2106C45.9275 61.2893 45.8451 61.3537 45.7648 61.4202C45.6725 61.4752 45.5917 61.5318 45.4823 61.573C45.4258 61.5915 45.3611 61.6069 45.2936 61.5968C45.2308 61.5822 45.1672 61.5468 45.1523 61.4913L45.1619 61.4848C45.2282 61.5619 45.3546 61.5468 45.4379 61.4983C45.5263 61.4498 45.6106 61.3923 45.692 61.3335C45.8572 61.2179 46.0099 61.0866 46.147 60.9424L46.156 60.9495Z" fill="#A95533"/>
<path d="M45.3805 61.5437C45.4408 61.6433 45.502 61.7482 45.5756 61.7639C45.64 61.7838 45.7238 61.7546 45.8066 61.6913C45.8953 61.6413 45.9756 61.5589 46.0675 61.4896C46.159 61.4188 46.2516 61.3474 46.3589 61.2852L46.3682 61.292C46.2937 61.3793 46.2158 61.4639 46.1357 61.5469C46.0547 61.6289 45.9742 61.7124 45.8762 61.7802C45.782 61.843 45.6465 61.8999 45.5304 61.8383C45.4182 61.7757 45.3912 61.6512 45.3691 61.5459L45.3805 61.5437Z" fill="#A95533"/>
<path d="M45.8228 61.8381C45.8605 61.8952 45.9005 61.9417 45.9359 61.9595C45.9443 61.9645 45.9543 61.9623 45.9573 61.9641L45.978 61.9664C45.9992 61.9683 46.0218 61.9668 46.045 61.9628C46.0939 61.9662 46.1418 61.9501 46.2182 61.9437C46.254 61.9435 46.2798 61.9462 46.3036 61.943C46.3327 61.9458 46.3622 61.9319 46.4009 61.9244L46.4097 61.9317C46.3701 61.9802 46.3075 62.0147 46.2435 62.0267C46.1823 62.0434 46.12 62.0683 46.0522 62.0713C45.988 62.0726 45.9101 62.0656 45.8661 62.0121C45.8249 61.9617 45.8088 61.8988 45.8107 61.8379L45.8228 61.8381Z" fill="#A95533"/>
<path d="M35.7814 58.4066C35.7814 58.4066 37.6329 58.2766 38.1839 59.3151C38.735 60.3536 39.863 64.344 39.863 64.344L43.5368 61.6721L45.3478 64.4392C45.3478 64.4392 40.011 69.9895 38.621 69.5919C37.231 69.1943 35.7653 59.8223 35.7814 58.4066Z" fill="#B3CAFF"/>
<path d="M38.1601 59.2746C37.5825 58.2808 35.7812 58.4065 35.7812 58.4065L36.8175 59.9141C37.2641 59.6995 37.7121 59.4871 38.1601 59.2746Z" fill="#D57E5A"/>
<path d="M35.5988 58.1333C35.8801 58.3927 38.3271 62.6828 38.3855 64.0015C38.45 65.4598 38.0951 69.001 38.0951 69.001C38.0951 69.001 29.8002 69.0605 29.639 69.1201C29.1733 65.2078 29.2696 60.1152 30.4081 59.4951C30.4081 59.4951 32.2791 57.744 32.6026 57.5625C32.6026 57.5625 35.3737 59.0411 35.5988 58.1333Z" fill="#B3CAFF"/>
<path d="M30.9615 60.0573C30.7562 60.247 30.4081 59.4951 30.4081 59.4951C29.2696 60.1154 29.1733 65.2078 29.639 69.1201C29.8005 69.0607 38.0951 69.001 38.0951 69.001C38.0951 69.001 38.1661 68.2914 38.2389 67.3774C35.7447 64.6429 33.4962 62.7604 30.9615 60.0573Z" fill="#B3CAFF"/>
<path d="M39.7619 64.5278L40.0458 60.7638C40.0588 60.5922 40.1538 60.4349 40.3052 60.3345L42.3436 58.9814C42.5961 58.8123 42.8723 59.0353 42.837 59.3209L42.5212 62.4291C42.5011 62.6353 42.392 62.8233 42.2196 62.9482L40.0697 64.5561C40.002 64.6053 39.7549 64.6091 39.7619 64.5278Z" fill="#C2C2C2"/>
<path d="M40.0059 64.6121L40.3014 60.7044C40.3126 60.5731 40.3852 60.4529 40.4999 60.3746L42.5485 59.0374C42.7021 58.9372 42.8769 59.085 42.8655 59.2582L42.5308 62.486C42.5003 62.7057 42.4671 62.8128 42.2814 62.9533C41.6325 63.444 40.0003 64.6761 40.0059 64.6121Z" fill="#B3CAFF"/>
<path d="M42.3985 59.7333C42.385 59.787 42.4067 59.8374 42.4469 59.846C42.487 59.8546 42.5305 59.8179 42.544 59.7642C42.5575 59.7106 42.5358 59.6602 42.4956 59.6516C42.4553 59.6432 42.412 59.6797 42.3985 59.7333Z" fill="#27245F"/>
<path d="M42.367 59.7276C42.3479 59.8035 42.3786 59.8748 42.4354 59.8868C42.4922 59.8988 42.5536 59.8471 42.5725 59.7714C42.5916 59.6954 42.5608 59.6242 42.5041 59.6121C42.4473 59.5999 42.3858 59.6516 42.367 59.7276Z" stroke="#27245F" stroke-width="0.0476859" stroke-miterlimit="10"/>
<path d="M40.1831 60.9092L40.1757 60.9056C40.138 60.8875 40.0926 60.9111 40.0901 60.9502L40.0568 61.4263C40.0552 61.4478 40.0677 61.4682 40.0887 61.478H40.0889C40.1261 61.4956 40.1708 61.4727 40.1743 61.4341L40.2148 60.9614C40.2164 60.9399 40.2041 60.9193 40.1831 60.9092Z" stroke="#B3CAFF" stroke-width="0.0953718" stroke-miterlimit="10"/>
<path d="M40.1324 61.5879L40.1249 61.5843C40.0872 61.5663 40.0418 61.5899 40.0393 61.6289L40.006 62.105C40.0044 62.1265 40.0169 62.1469 40.0379 62.1567C40.0751 62.1743 40.12 62.1514 40.1235 62.1128L40.164 61.6401C40.1656 61.6186 40.1533 61.598 40.1324 61.5879Z" stroke="#B3CAFF" stroke-width="0.0953718" stroke-miterlimit="10"/>
<path d="M39.931 62.1348L40.2296 62.521L39.8184 63.0782L39.931 62.1348Z" fill="#0E162E"/>
<path d="M38.7889 66.9214C40.9398 64.7581 42.061 63.1815 42.2789 62.8989C42.4036 62.7373 42.7231 62.2148 42.6701 62.1496C42.5488 62.0005 41.8905 63.037 41.8986 62.9761C41.9065 62.9152 42.7857 61.8024 42.691 61.6797C42.5486 61.4954 41.5924 62.7525 41.5751 62.7729C41.3147 63.083 42.5409 61.6029 42.4762 61.4544C42.4115 61.3059 41.8018 61.9455 41.7797 61.9678C41.7797 61.9678 41.2926 62.544 41.2396 62.5199C41.1865 62.4961 41.8926 61.0023 41.7066 61.0147C41.5207 61.0272 40.8917 62.058 40.7292 62.2833C40.5668 62.5086 40.2477 62.762 40.1251 62.7703C40.0215 62.7776 39.8377 62.3957 39.8861 62.17C39.8861 62.17 39.5026 62.7693 39.4523 63.2145C39.426 63.4486 39.4456 63.735 39.4456 63.735L37.6211 65.5102L38.7889 66.9214Z" fill="#D57E5A"/>
<path d="M32.2318 60.8129C32.2318 60.8129 31.1418 58.8183 30.2577 59.6195C28.762 60.9751 29.5809 65.789 33.9664 70.0171C35.3907 71.3904 40.9642 65.4717 40.9642 65.4717L38.7992 63.5152L35.702 66.3639L32.2318 60.8129Z" fill="#B3CAFF"/>
<path d="M32.1877 60.7365C31.9762 60.3794 31.0372 58.913 30.2578 59.6196C29.6721 60.1505 29.4436 61.2126 29.6428 62.5609C30.4715 61.9297 31.3211 61.3231 32.1877 60.7365Z" fill="#D57E5A"/>
<path d="M38.1887 103.658L37.6367 104.517" stroke="#233D67" stroke-width="0.330966" stroke-miterlimit="10"/>
<path d="M37.843 103.467L37.291 104.326" stroke="#233D67" stroke-width="0.330966" stroke-miterlimit="10"/>
<path d="M26.1868 103.658L25.6348 104.517" stroke="#233D67" stroke-width="0.330966" stroke-miterlimit="10"/>
<path d="M25.8411 103.467L25.2891 104.326" stroke="#233D67" stroke-width="0.330966" stroke-miterlimit="10"/>
<path d="M21.5059 101.01L22.0311 97.5508L29.6087 97.6892L29.2336 101.079L21.5059 101.01Z" fill="#B3CAFF"/>
<path d="M24.4304 100.269C23.3047 99.5779 22.5047 98.6613 22.0225 97.6064L21.5059 101.009L26.0705 101.05C25.496 100.841 24.9449 100.584 24.4304 100.269Z" fill="#B3CAFF"/>
<path d="M31.4082 101.01L31.9334 97.5508L39.5111 97.6892L39.1359 101.079L31.4082 101.01Z" fill="#B3CAFF"/>
<path d="M33.9205 99.6235C33.2098 99.0637 32.6759 98.3432 32.2745 97.557L31.9319 97.5508L31.416 100.988C31.813 101.061 36.9486 101.059 36.9486 101.059C35.8481 100.763 34.7918 100.31 33.9205 99.6235Z" fill="#B3CAFF"/>
<path d="M94.4435 48.0002L95.2706 49.7005L93.1049 49.6462C92.3624 50.2635 91.4359 50.712 90.3841 50.9092C87.2508 51.4965 84.1936 49.6312 83.5567 46.7422C82.9195 43.853 84.9437 41.0342 88.0769 40.4469C91.2102 39.8595 94.2664 41.726 94.9036 44.615C95.1666 45.8067 94.9774 46.9853 94.4435 48.0002Z" fill="#C2C2C2"/>
<path d="M93.4343 46.1523C93.3652 46.216 93.2807 46.2654 93.1872 46.2939C93.3254 46.4025 93.4138 46.5638 93.4138 46.7441C93.4138 46.9073 93.3419 47.0543 93.226 47.162C93.1092 47.2687 92.9498 47.3352 92.7727 47.3352H91.3827L91.5626 48.9425C91.5763 49.0672 91.5791 49.1936 91.5607 49.3183C91.5053 49.6869 91.3243 49.8959 91.1211 50.0124C90.8128 50.1901 90.4111 49.9757 90.4111 49.6401V49.2007C90.4111 48.8095 90.2545 48.4329 89.9703 48.1424L89.8458 48.016C89.6241 47.7882 89.3332 47.6259 89.0123 47.5478L88.3849 47.3352L87.9869 47.2007L86.6367 46.7441V43.7843L87.3693 43.6407L89.0425 43.3152C89.6883 43.1897 90.3459 43.126 91.0055 43.126H92.3615C92.6766 43.126 92.9617 43.326 93.0161 43.6122C93.055 43.8141 92.9791 44.0042 92.8381 44.1342C92.8372 44.1351 92.8351 44.1368 92.8341 44.1379C93.1581 44.1666 93.4138 44.4205 93.4138 44.7262C93.4138 44.8887 93.3419 45.0357 93.226 45.1434C93.2135 45.155 93.2007 45.1659 93.1872 45.1766C93.4392 45.2556 93.6219 45.4762 93.6219 45.7354C93.6221 45.8976 93.5502 46.0456 93.4343 46.1523Z" fill="white"/>
<path d="M87.5973 47.5846H85.502V43.3057H87.1126L87.5973 47.5846Z" fill="#B3CAFF"/>
<path d="M55.4318 35.6777V50.0002C55.4318 50.5092 54.9843 50.922 54.4321 50.922H42.27C41.9663 50.922 41.6791 51.0492 41.4895 51.2679L40.1837 52.7727C39.9603 53.0304 39.5098 52.8845 39.5098 52.5547V50.922V35.6777C39.5098 35.1687 39.9573 34.7559 40.5095 34.7559H54.4321C54.9841 34.7561 55.4318 35.1687 55.4318 35.6777Z" fill="#C2C2C2"/>
<path d="M56.1704 35.1269V49.4492C56.1704 49.9582 55.7228 50.371 55.1706 50.371H43.0085C42.7048 50.371 42.4176 50.4983 42.228 50.7169L40.9222 52.2217C40.6988 52.4794 40.248 52.3335 40.248 52.0037V50.371V35.1269C40.248 34.6179 40.6956 34.2051 41.2478 34.2051H55.1704C55.7226 34.2051 56.1704 34.6177 56.1704 35.1269Z" fill="white"/>
<path d="M42.6182 37.7828L43.1048 38.0187C43.1743 38.0523 43.2556 37.9978 43.2423 37.9266L43.1494 37.4269C43.1441 37.3986 43.1543 37.3696 43.1767 37.3496L43.5704 36.9958C43.6267 36.9454 43.5956 36.8572 43.5178 36.8469L42.9737 36.7739C42.9428 36.7699 42.9163 36.7518 42.9023 36.7261L42.6589 36.2714C42.6242 36.2064 42.5237 36.2064 42.489 36.2714L42.2456 36.7261C42.2319 36.7518 42.2051 36.7696 42.1741 36.7739L41.6301 36.8469C41.5523 36.8572 41.5214 36.9454 41.5775 36.9958L41.9712 37.3496C41.9936 37.3698 42.0038 37.3986 41.9984 37.4269L41.9056 37.9266C41.8923 37.9981 41.9735 38.0523 42.0431 38.0187L42.5297 37.7828C42.5576 37.7695 42.5907 37.7695 42.6182 37.7828Z" fill="#B3CAFF"/>
<path d="M45.3447 37.7828L45.8313 38.0187C45.9009 38.0523 45.9821 37.9978 45.9689 37.9266L45.876 37.4269C45.8707 37.3986 45.8809 37.3696 45.9032 37.3496L46.297 36.9958C46.3533 36.9454 46.3221 36.8572 46.2444 36.8469L45.7003 36.7739C45.6694 36.7699 45.6428 36.7518 45.6289 36.7261L45.3854 36.2714C45.3508 36.2064 45.2502 36.2064 45.2156 36.2714L44.9721 36.7261C44.9584 36.7518 44.9317 36.7696 44.9007 36.7739L44.3566 36.8469C44.2789 36.8572 44.2479 36.9454 44.304 36.9958L44.6978 37.3496C44.7201 37.3698 44.7304 37.3986 44.725 37.4269L44.6321 37.9266C44.6189 37.9981 44.7001 38.0523 44.7697 38.0187L45.2563 37.7828C45.2842 37.7695 45.317 37.7695 45.3447 37.7828Z" fill="#C2C2C2"/>
<path d="M48.0713 37.7828L48.5579 38.0187C48.6275 38.0523 48.7087 37.9978 48.6954 37.9266L48.6026 37.4269C48.5972 37.3986 48.6075 37.3696 48.6298 37.3496L49.0235 36.9958C49.0799 36.9454 49.0487 36.8572 48.971 36.8469L48.4269 36.7739C48.3959 36.7699 48.3694 36.7518 48.3554 36.7261L48.112 36.2714C48.0773 36.2064 47.9768 36.2064 47.9421 36.2714L47.6987 36.7261C47.685 36.7518 47.6582 36.7696 47.6273 36.7739L47.0832 36.8469C47.0054 36.8572 46.9745 36.9454 47.0306 36.9958L47.4243 37.3496C47.4467 37.3698 47.4569 37.3986 47.4516 37.4269L47.3587 37.9266C47.3454 37.9981 47.4267 38.0523 47.4962 38.0187L47.9828 37.7828C48.0108 37.7695 48.0436 37.7695 48.0713 37.7828Z" fill="#C2C2C2"/>
<path d="M50.7959 37.7828L51.2825 38.0187C51.3521 38.0523 51.4333 37.9978 51.42 37.9266L51.3272 37.4269C51.3218 37.3986 51.3321 37.3696 51.3544 37.3496L51.7482 36.9958C51.8045 36.9454 51.7733 36.8572 51.6956 36.8469L51.1515 36.7739C51.1205 36.7699 51.094 36.7518 51.08 36.7261L50.8366 36.2714C50.8019 36.2064 50.7014 36.2064 50.6667 36.2714L50.4233 36.7261C50.4096 36.7518 50.3828 36.7696 50.3519 36.7739L49.8078 36.8469C49.7301 36.8572 49.6991 36.9454 49.7552 36.9958L50.1489 37.3496C50.1713 37.3698 50.1815 37.3986 50.1762 37.4269L50.0833 37.9266C50.0701 37.9981 50.1513 38.0523 50.2209 38.0187L50.7075 37.7828C50.7352 37.7695 50.7682 37.7695 50.7959 37.7828Z" fill="#C2C2C2"/>
<path d="M53.5225 37.7828L54.0091 38.0187C54.0786 38.0523 54.1599 37.9978 54.1466 37.9266L54.0537 37.4269C54.0484 37.3986 54.0586 37.3696 54.081 37.3496L54.4747 36.9958C54.531 36.9454 54.4999 36.8572 54.4221 36.8469L53.878 36.7739C53.8471 36.7699 53.8206 36.7518 53.8066 36.7261L53.5632 36.2714C53.5285 36.2064 53.428 36.2064 53.3933 36.2714L53.1499 36.7261C53.1361 36.7518 53.1094 36.7696 53.0784 36.7739L52.5343 36.8469C52.4566 36.8572 52.4257 36.9454 52.4818 36.9958L52.8755 37.3496C52.8978 37.3698 52.9081 37.3986 52.9027 37.4269L52.8099 37.9266C52.7966 37.9981 52.8778 38.0523 52.9474 38.0187L53.434 37.7828C53.4619 37.7695 53.495 37.7695 53.5225 37.7828Z" fill="#C2C2C2"/>
<path d="M54.6151 40.9734H42.1004C41.9036 40.9734 41.7441 40.8264 41.7441 40.6449C41.7441 40.4636 41.9036 40.3164 42.1004 40.3164H54.6151C54.8117 40.3164 54.9714 40.4634 54.9714 40.6449C54.9714 40.8264 54.8117 40.9734 54.6151 40.9734Z" fill="#1C3255"/>
<path d="M52.7357 42.4021H42.1004C41.9036 42.4021 41.7441 42.2552 41.7441 42.0736C41.7441 41.8923 41.9036 41.7451 42.1004 41.7451H52.7357C52.9326 41.7451 53.092 41.8921 53.092 42.0736C53.092 42.2552 52.9326 42.4021 52.7357 42.4021Z" fill="#1C3255"/>
<path d="M54.6151 43.8299H42.1004C41.9038 43.8299 41.7441 43.6829 41.7441 43.5014C41.7441 43.32 41.9036 43.1729 42.1004 43.1729H54.6151C54.8117 43.1729 54.9714 43.3198 54.9714 43.5014C54.9714 43.6829 54.8117 43.8299 54.6151 43.8299Z" fill="#1C3255"/>
<path d="M52.9424 45.2576H42.1004C41.9036 45.2576 41.7441 45.1106 41.7441 44.9291C41.7441 44.7478 41.9036 44.6006 42.1004 44.6006H52.9424C53.139 44.6006 53.2986 44.7476 53.2986 44.9291C53.2986 45.1106 53.139 45.2576 52.9424 45.2576Z" fill="#1C3255"/>
<path d="M50.1544 46.6863H42.1004C41.9036 46.6863 41.7441 46.5393 41.7441 46.3578C41.7441 46.1765 41.9036 46.0293 42.1004 46.0293H50.1544C50.3511 46.0293 50.5107 46.1763 50.5107 46.3578C50.5107 46.5391 50.3511 46.6863 50.1544 46.6863Z" fill="#1C3255"/>
<path d="M53.6445 48.114H42.1004C41.9036 48.114 41.7441 47.9671 41.7441 47.7855C41.7441 47.6042 41.9036 47.457 42.1004 47.457H53.6445C53.8411 47.457 54.0007 47.604 54.0007 47.7855C54.0007 47.9671 53.8413 48.114 53.6445 48.114Z" fill="#1C3255"/>
<path d="M43.1907 30.485H30.9718C30.3769 30.485 29.8945 30.0404 29.8945 29.4918V25.0929C29.8945 24.5444 30.3767 24.0996 30.9718 24.0996H43.1907C43.7855 24.0996 44.2679 24.5442 44.2679 25.0929V29.4918C44.2679 30.0404 43.7855 30.485 43.1907 30.485Z" fill="#B3CAFF"/>
<path d="M78.0268 55.1903H66.2668C65.7721 55.1903 65.3711 54.8206 65.3711 54.3644V50.3923C65.3711 49.9361 65.7721 49.5664 66.2668 49.5664H78.0268C78.5215 49.5664 78.9225 49.9361 78.9225 50.3923V54.3644C78.9225 54.8206 78.5215 55.1903 78.0268 55.1903Z" fill="#B3CAFF"/>
<path d="M79.6339 27.3636C83.1701 26.5493 85.3235 23.256 84.4437 20.0078C83.5639 16.7596 79.984 14.7865 76.4478 15.6008C72.9116 16.4151 70.7581 19.7084 71.638 22.9566C72.5178 26.2048 76.0977 28.1779 79.6339 27.3636Z" fill="#B3CAFF"/>
<path d="M76.7269 19.7061C76.6308 20.5513 76.1077 21.1944 75.5585 21.1425C75.0093 21.0905 74.6418 20.3636 74.7379 19.5184C74.834 18.6732 75.3572 18.0301 75.9064 18.082C76.4556 18.134 76.8231 18.8609 76.7269 19.7061Z" fill="#1C3255"/>
<path d="M81.7269 20.1778C81.6308 21.023 81.1077 21.6661 80.5585 21.6141C80.0093 21.5622 79.6418 20.8352 79.7379 19.99C79.834 19.1449 80.3572 18.5018 80.9064 18.5537C81.4556 18.6054 81.8231 19.3326 81.7269 20.1778Z" fill="#1C3255"/>
<path d="M75.3379 17.8243L76.6867 19.1319L77.3183 18.8139L75.9181 17.4248L75.3379 17.8243Z" fill="#1C3255"/>
<path d="M81.9537 18.2489L80.3663 19.5565L79.623 19.2385L81.2709 17.8496L81.9537 18.2489Z" fill="#1C3255"/>
<path d="M80.7057 24.97C80.748 23.4143 79.4423 22.1027 77.8074 22.0031C76.2429 21.9078 74.8073 22.9489 74.5371 24.4155C74.612 24.3136 75.673 22.9247 77.5314 22.9605C78.8998 22.9871 80.1451 23.7748 80.7057 24.97Z" fill="#1C3255"/>
<path d="M75.1409 37.597C77.7699 35.2694 77.8624 31.4249 75.3475 29.01C72.8327 26.5951 68.6627 26.5243 66.0337 28.8519C63.4047 31.1795 63.3122 35.0241 65.827 37.439C68.3419 39.8538 72.5119 39.9246 75.1409 37.597Z" fill="#B3CAFF"/>
<path d="M68.5704 32.6816C68.9429 33.4587 68.8363 34.2565 68.3318 34.4636C67.8273 34.6706 67.1164 34.2084 66.7438 33.431C66.3712 32.6539 66.4778 31.8561 66.9823 31.649C67.4866 31.442 68.1976 31.9044 68.5704 32.6816Z" fill="#1C3255"/>
<path d="M73.1602 30.7977C73.5328 31.5749 73.426 32.3726 72.9217 32.5797C72.4174 32.7868 71.7062 32.3244 71.3336 31.5472C70.9611 30.77 71.0676 29.9722 71.5722 29.7652C72.0765 29.5583 72.7876 30.0205 73.1602 30.7977Z" fill="#1C3255"/>
<path d="M75.0122 35.5242C74.2871 34.3322 72.7767 33.7593 71.414 34.1249C69.9278 34.5234 68.9598 35.9462 69.2339 37.4222C69.2835 37.2583 69.7803 35.7194 71.5094 35.1117C73.3334 34.4704 74.887 35.4428 75.0122 35.5242Z" fill="#1C3255"/>
</svg>
