<svg width="137" height="120" viewBox="0 0 137 120" fill="none" xmlns="http://www.w3.org/2000/svg">
<path d="M14.1562 57.5931C13.0117 29.999 48.0434 -4.62905 78.1996 1.10953C110.063 7.1729 138 83.8624 107.805 109.693C77.6114 135.526 15.3173 85.5803 14.1562 57.5931Z" fill="#BD9151" fill-opacity="0.25"/>
<path d="M89.9258 113.49C89.9258 113.49 107.721 87.708 136.479 102.549C136.479 102.549 122.907 129.957 92.9132 116.077L89.9258 113.49Z" fill="#5A0000"/>
<path d="M136.479 102.55L89.9258 113.491L94.375 115.624C94.375 115.624 119.722 127.537 136.479 102.55Z" fill="#F4F4F4"/>
<path d="M41.2037 114.584C41.2037 114.584 10.4791 106.095 0 64.3311C0 64.3311 27.648 56.4472 48.1656 103.661L41.2037 114.584Z" fill="#5A0000"/>
<path d="M2.36133 66.377L43.5727 109.396L35.8222 110.532C35.8222 110.532 8.81314 100.2 2.36133 66.377Z" fill="#F4F4F4"/>
<path d="M97.3613 103.634C97.3613 103.634 104.357 77.2587 125.379 80.0291C125.379 80.0291 122.829 106.911 97.3613 103.634Z" fill="#5A0000"/>
<path d="M125.379 80.0293L98.3086 101.897C98.3086 101.897 118.292 108.402 125.379 80.0293Z" fill="#F0F0F0"/>
<path d="M96.8466 1.62258C94.1874 4.72631 111.442 32.0847 117.787 33.0493C124.132 34.0139 123.593 16.9861 119.382 9.18287C115.171 1.37961 100.285 -2.38954 96.8466 1.62258Z" fill="#BD9151" fill-opacity="0.25"/>
<path d="M79.5358 58.041H24.1641V101.91H79.5358V58.041Z" fill="#9090BF"/>
<path d="M79.5359 58.0566H25.5508V101.91H79.5359V58.0566Z" fill="#D5D4E8"/>
<path d="M78.5973 60.4072H26.4941V100.629H78.5973V60.4072Z" fill="#D5EFEE"/>
<path d="M51.542 60.0786C51.946 60.0786 52.2736 59.7156 52.2736 59.2678C52.2736 58.82 51.946 58.457 51.542 58.457C51.1381 58.457 50.8105 58.82 50.8105 59.2678C50.8105 59.7156 51.1381 60.0786 51.542 60.0786Z" fill="#9090BF"/>
<path d="M78.597 67.9821V79.9553C76.3749 80.407 74.2171 81.5216 72.3838 82.8907C68.4754 85.8122 65.405 89.8828 61.5175 92.8344C59.6017 94.2905 57.5078 95.4165 55.2279 95.9601C52.8072 96.5379 50.3036 96.4992 47.8541 96.2146C42.6259 95.6116 37.4699 93.7838 32.1692 94.2333C30.2471 94.396 28.265 94.9237 26.4941 95.8731V65.1729C28.6314 66.2001 30.5907 67.6633 32.4465 69.216C37.1079 73.1146 41.6286 78.0497 47.672 78.9717C53.8645 79.919 59.8168 76.7265 65.1818 73.7109C67.8259 72.2224 70.4722 70.7066 73.2612 69.5692C74.9618 68.8764 76.7682 68.2731 78.597 67.9821Z" fill="#B3E8E4"/>
<path d="M43.1531 101.91C43.1531 101.91 40.4316 103.574 40.4316 112.639H72.8836V110.014H55.2046C55.2046 110.014 54.6917 106.098 57.3717 101.91L43.1531 101.91Z" fill="#D5D4E8"/>
<path d="M57.3725 101.91L40.7344 107.908C40.7344 107.908 41.226 103.471 43.1536 101.91H57.3725Z" fill="#9090BF"/>
<path d="M72.882 110.015H40.4727V110.75H72.882V110.015Z" fill="#9090BF"/>
<path d="M39.5282 64.2705V75.0565H28.5723V66.1382H32.8404L33.2403 64.2705H39.5282Z" fill="#E8428D"/>
<path d="M39.5292 75.0555H28.5723L29.7475 66.1377H40.7041L39.5292 75.0555Z" fill="#F995CC"/>
<path d="M39.5282 76.2002V86.9862H28.5723V78.0678H32.8404L33.2403 76.2002H39.5282Z" fill="#E8428D"/>
<path d="M39.5292 86.9852H28.5723L29.7475 78.0674H40.7041L39.5292 86.9852Z" fill="#F995CC"/>
<path d="M39.8797 88.5557V99.3416H28.9238V90.4233H33.192L33.5918 88.5557H39.8797Z" fill="#E8428D"/>
<path d="M39.8805 99.3406H28.9238L30.099 90.4229H41.0557L39.8805 99.3406Z" fill="#F995CC"/>
<path d="M52.2088 87.1885H45.5V98.2311H52.2088V87.1885Z" fill="#D5D4E8"/>
<path d="M52.8163 86.6016H46.1074V97.6442H52.8163V86.6016Z" fill="#C4C4E8"/>
<path d="M53.5975 85.877H46.8887V96.9195H53.5975V85.877Z" fill="#E3E3FF"/>
<path d="M52.6088 87.7422H47.9146C47.5996 87.7422 47.6441 88.2825 47.9571 88.2825H52.6513C52.9663 88.2825 52.9218 87.7422 52.6088 87.7422Z" fill="#C4C4E8"/>
<path d="M52.6088 89.1836H47.9146C47.5996 89.1836 47.6441 89.724 47.9571 89.724H52.6513C52.9663 89.7242 52.9218 89.1836 52.6088 89.1836Z" fill="#C4C4E8"/>
<path d="M52.6088 90.625H47.9146C47.5996 90.625 47.6441 91.1653 47.9571 91.1653H52.6513C52.9663 91.1656 52.9218 90.625 52.6088 90.625Z" fill="#C4C4E8"/>
<path d="M52.6088 92.0664H47.9146C47.5996 92.0664 47.6441 92.6068 47.9571 92.6068H52.6513C52.9663 92.6068 52.9218 92.0664 52.6088 92.0664Z" fill="#C4C4E8"/>
<path d="M52.6459 93.3076H47.9517C47.6367 93.3076 47.6812 93.848 47.9942 93.848H52.6884C53.0034 93.8482 52.9591 93.3076 52.6459 93.3076Z" fill="#C4C4E8"/>
<path d="M52.8236 94.75H48.1294C47.8144 94.75 47.859 95.2904 48.172 95.2904H52.8662C53.1811 95.2904 53.1366 94.75 52.8236 94.75Z" fill="#C4C4E8"/>
<path d="M62.6053 87.1885H55.8965V98.2311H62.6053V87.1885Z" fill="#D5D4E8"/>
<path d="M63.2127 86.6016H56.5039V97.6442H63.2127V86.6016Z" fill="#C4C4E8"/>
<path d="M63.994 85.877H57.2852V96.9195H63.994V85.877Z" fill="#E3E3FF"/>
<path d="M63.0055 87.7422H58.311C57.9961 87.7422 58.0406 88.2825 58.3536 88.2825H63.0478C63.363 88.2825 63.3185 87.7422 63.0055 87.7422Z" fill="#C4C4E8"/>
<path d="M63.0055 89.1836H58.311C57.9961 89.1836 58.0406 89.724 58.3536 89.724H63.0478C63.363 89.7242 63.3185 89.1836 63.0055 89.1836Z" fill="#C4C4E8"/>
<path d="M63.0055 90.625H58.311C57.9961 90.625 58.0406 91.1653 58.3536 91.1653H63.0478C63.363 91.1656 63.3185 90.625 63.0055 90.625Z" fill="#C4C4E8"/>
<path d="M63.0055 92.0664H58.311C57.9961 92.0664 58.0406 92.6068 58.3536 92.6068H63.0478C63.363 92.6068 63.3185 92.0664 63.0055 92.0664Z" fill="#C4C4E8"/>
<path d="M63.0423 93.3076H58.3481C58.0332 93.3076 58.0777 93.848 58.3907 93.848H63.0849C63.3999 93.8482 63.3554 93.3076 63.0423 93.3076Z" fill="#C4C4E8"/>
<path d="M63.2201 94.751H58.5259C58.2109 94.751 58.2554 95.2913 58.5685 95.2913H63.2627C63.5776 95.2913 63.5331 94.751 63.2201 94.751Z" fill="#C4C4E8"/>
<path d="M52.1209 74.334H45.4121V85.3766H52.1209V74.334Z" fill="#D5D4E8"/>
<path d="M52.7284 73.748H46.0195V84.7906H52.7284V73.748Z" fill="#C4C4E8"/>
<path d="M53.5096 73.0234H46.8008V84.066H53.5096V73.0234Z" fill="#E3E3FF"/>
<path d="M52.5209 74.8887H47.8267C47.5117 74.8887 47.5562 75.429 47.8692 75.429H52.5634C52.8784 75.429 52.8341 74.8887 52.5209 74.8887Z" fill="#C4C4E8"/>
<path d="M52.5209 76.3301H47.8267C47.5117 76.3301 47.5562 76.8704 47.8692 76.8704H52.5634C52.8784 76.8707 52.8341 76.3301 52.5209 76.3301Z" fill="#C4C4E8"/>
<path d="M52.5209 77.7715H47.8267C47.5117 77.7715 47.5562 78.3118 47.8692 78.3118H52.5634C52.8784 78.3121 52.8341 77.7715 52.5209 77.7715Z" fill="#C4C4E8"/>
<path d="M52.5209 79.2129H47.8267C47.5117 79.2129 47.5562 79.7532 47.8692 79.7532H52.5634C52.8784 79.7532 52.8341 79.2129 52.5209 79.2129Z" fill="#C4C4E8"/>
<path d="M52.558 80.4541H47.8638C47.5488 80.4541 47.5933 80.9945 47.9064 80.9945H52.6006C52.9158 80.9947 52.8712 80.4541 52.558 80.4541Z" fill="#C4C4E8"/>
<path d="M52.7357 81.8975H48.0415C47.7265 81.8975 47.7711 82.4378 48.0841 82.4378H52.7783C53.0933 82.4378 53.0487 81.8975 52.7357 81.8975Z" fill="#C4C4E8"/>
<path d="M63.4476 37.1813V51.4061L61.3307 50.1764L59.8488 49.3152V37.1813C59.8488 33.1031 56.8555 29.7829 53.174 29.7829C52.814 29.7829 52.4606 29.8157 52.1177 29.8743C48.9379 30.4399 46.4992 33.5019 46.4992 37.1813V48.7428L44.3822 49.9725L42.9004 50.8337V37.1816C42.9004 31.299 46.9461 26.4439 52.1158 25.855C52.463 25.8151 52.8164 25.7939 53.1742 25.7939C58.8388 25.7937 63.4476 30.9021 63.4476 37.1813Z" fill="#E5E5E5"/>
<path d="M42.9001 37.1816V50.8337L44.382 49.9725V51.0895L40.7832 53.1801V37.1816C40.7832 30.9024 45.392 25.7939 51.057 25.7939C51.4148 25.7939 51.7682 25.8151 52.1155 25.855C46.9456 26.4439 42.9001 31.299 42.9001 37.1816Z" fill="#CECECE"/>
<path d="M61.3301 50.1765V51.4061L57.7313 49.3155V37.1816C57.7313 33.5022 55.2948 30.4402 52.1172 29.8746C52.4601 29.816 52.8137 29.7832 53.1735 29.7832C56.855 29.7832 59.8483 33.1035 59.8483 37.1816V49.3155L61.3301 50.1765Z" fill="#CECECE"/>
<path d="M64.7616 47.679V58.1037C64.7616 63.3798 60.3638 68.1893 53.8196 70.0691C53.7046 70.1017 53.5871 70.1342 53.4697 70.1668C53.3522 70.1342 53.2372 70.1044 53.1246 70.0718C52.9924 70.0338 52.8627 69.9959 52.733 69.9525C46.4043 67.9967 42.1777 63.274 42.1777 58.1037V47.679L52.7355 41.5431L53.4697 41.1172L64.7616 47.679Z" fill="#57D3D3"/>
<path d="M53.4697 41.1172L44.1625 49.2063V59.6119C44.1625 59.6119 44.1943 64.8826 53.1246 70.0718C52.9924 70.0338 52.8627 69.9959 52.733 69.9525C46.4043 67.9967 42.1777 63.274 42.1777 58.1037V47.679L52.7355 41.5431L53.4697 41.1172Z" fill="#0DBAAD"/>
<path d="M52.7716 46.5342C54.4749 46.7512 55.8014 48.3571 55.8014 50.3047C55.8014 51.4305 55.3584 52.445 54.6536 53.1394C54.492 53.2995 54.3158 53.4433 54.1274 53.568L56.5111 64.5895H50.1016L52.2968 53.7796C51.0144 53.2317 50.1016 51.8537 50.1016 50.2369C50.1016 48.4276 51.2445 46.9167 52.7716 46.5342Z" fill="#211E5E"/>
<path d="M54.6515 53.1399C55.3563 52.4454 55.7993 51.4309 55.7993 50.3052C55.7993 48.3575 54.4729 46.7516 52.7695 46.5346C53.0118 46.4749 53.2663 46.4424 53.5258 46.4424C55.4151 46.4424 56.9496 48.1405 56.9496 50.2374C56.9496 51.6235 56.279 52.8388 55.2756 53.5007L54.6515 53.1399Z" fill="#433C85"/>
<path d="M55.2752 53.5004L57.6736 64.5897H56.5087L54.125 53.5682C54.3134 53.4435 54.4896 53.2997 54.6512 53.1396L55.2752 53.5004Z" fill="#433C85"/>
<path d="M65.182 45.1683L61.0215 42.7513L53.4691 38.3623L52.7349 38.7882L45.5888 42.9412L41.4283 45.3609L39.9746 46.2045V58.1048C39.9746 64.5121 45.0357 70.271 52.5734 72.4357C52.6272 72.452 52.6811 72.4655 52.7349 72.4818C52.8891 72.5252 53.0457 72.5686 53.2024 72.612L53.4667 72.6852L53.731 72.612C53.9463 72.5523 54.1593 72.4954 54.3673 72.4357C61.9026 70.271 66.9636 64.5121 66.9636 58.1048V46.2045L65.182 45.1683ZM64.761 58.1048C64.761 63.3809 60.3632 68.1904 53.8191 70.0703C53.7041 70.1028 53.5866 70.1354 53.4691 70.1679C53.3516 70.1354 53.2366 70.1055 53.124 70.073C52.9919 70.035 52.8622 69.997 52.7325 69.9536C46.4037 67.9978 42.1772 63.2751 42.1772 58.1048V47.6802L45.5888 45.6973L52.7349 41.5442L53.4691 41.1183L61.0215 45.5074L64.761 47.6802V58.1048Z" fill="#FFD05A"/>
<path d="M53.202 72.612L53.4663 72.6852C53.3121 72.7286 51.9979 72.6852 51.9979 72.6852L51.7336 72.612C51.5207 72.5523 51.3102 72.4954 51.1046 72.4357C43.5669 70.271 38.5059 64.5121 38.5059 58.1048V46.2045L41.428 44.5064L45.5884 42.0895L52.0004 38.3623H53.4688L52.7346 38.7882L45.5884 42.9412L41.428 45.3609L39.9742 46.2045V58.1048C39.9742 64.5121 45.0353 70.271 52.573 72.4357C52.6269 72.452 52.6807 72.4655 52.7346 72.4818C52.8887 72.5252 53.0454 72.5686 53.202 72.612Z" fill="#EEBD2C"/>
<mask id="mask0_2940_23168" style="mask-type:luminance" maskUnits="userSpaceOnUse" x="61" y="75" width="25" height="26">
<path d="M85.6572 75.0557H61.7227V100.63H85.6572V75.0557Z" fill="white"/>
</mask>
<g mask="url(#mask0_2940_23168)">
<path d="M83.3347 91.1777C83.0877 92.4944 83.8019 93.6834 83.7434 94.9868C83.6917 96.1166 82.9543 96.9616 82.0767 97.4387C80.9906 98.0287 79.7479 98.0046 78.5918 98.3079C77.5323 98.587 76.5664 99.1678 76.1545 100.342C75.946 100.935 75.8674 101.571 75.7357 102.189C75.6156 102.759 75.4403 103.313 75.1937 103.831C74.7199 104.82 74.0074 105.673 73.0951 106.172C72.2008 106.66 71.1233 106.749 70.1789 106.396C69.2714 106.056 68.5556 105.284 68.2587 104.269C68.0502 103.556 68.0519 102.775 68.2971 102.087C68.6591 99.9018 71.008 99.1048 72.4461 97.8768C72.8697 97.5125 73.2603 97.0779 73.5104 96.5474C73.7972 95.937 73.8775 95.2475 73.8724 94.5669C73.8657 93.376 73.6455 92.189 73.844 91.0016C74.0192 89.9679 74.5131 89.038 75.4337 88.6514C75.9609 88.4295 76.5314 88.3888 77.0769 88.2353C77.6092 88.0856 78.0795 87.7953 78.4983 87.4031C80.0866 85.9146 80.9456 83.0317 83.3212 82.8597C84.2906 82.7894 85.1981 83.3219 85.5299 84.3668C85.8887 85.4874 85.5549 86.669 85.0429 87.6564C84.4475 88.8036 83.5848 89.8482 83.3347 91.1777Z" fill="#57D3D3"/>
<path d="M84.5128 84.4053C82.9551 84.7336 81.5932 85.9475 80.999 87.5856C80.9498 87.7215 80.9092 87.8593 80.8722 87.998C80.7892 87.6893 80.706 87.3803 80.6231 87.0716C80.5886 86.9436 80.4437 86.8817 80.3362 86.9262C80.2171 86.9753 80.1703 87.1158 80.2051 87.2441L80.685 89.0296C80.6363 89.4571 80.612 89.89 80.5839 90.3216C80.5235 91.2493 80.4388 92.2552 79.8808 92.999C79.5257 93.472 79.0392 93.7618 78.5304 93.9893C78.4946 93.9308 78.4954 93.8288 78.4915 93.7647C78.4839 93.6419 78.479 93.5184 78.4729 93.3956L78.4315 92.5723C78.4051 92.0463 78.3789 91.5203 78.3524 90.9946C78.3365 90.6767 77.8921 90.7201 77.908 91.0377C77.9379 91.6323 77.9675 92.2267 77.9973 92.8213C78.0123 93.1186 78.0267 93.4159 78.0421 93.7132C78.05 93.864 78.0615 94.0246 78.1131 94.1646C78.0389 94.1939 77.9645 94.2226 77.8909 94.2511C77.1489 94.5359 76.3755 94.8069 75.7505 95.3546C75.2801 95.7669 74.9291 96.2728 74.6533 96.8306C74.6291 96.696 74.6098 96.5598 74.586 96.428C74.5398 96.1719 74.4938 95.9159 74.4475 95.6598L74.1641 94.0886C74.1404 93.9565 74.052 93.8529 73.9226 93.8638C73.8124 93.8733 73.6962 94.0007 73.7197 94.1315L74.0346 95.8771C74.0892 96.1798 74.1438 96.4823 74.1984 96.7847C74.24 97.0158 74.2684 97.2616 74.3763 97.4688C74.0116 98.4294 73.8087 99.4898 73.5963 100.481C73.3712 101.531 73.102 102.626 72.5239 103.51C72.3017 102.569 72.0795 101.629 71.8575 100.689C71.7848 100.381 71.3671 100.555 71.4393 100.861C71.6845 101.899 71.9297 102.938 72.1749 103.976C71.5455 104.695 70.6684 105.182 69.7501 104.981C69.4679 104.919 69.3879 105.406 69.6694 105.467C70.7809 105.71 71.7621 105.158 72.4916 104.3C72.4955 104.299 72.4999 104.3 72.5038 104.299C73.3452 104.069 74.1869 103.839 75.0283 103.61C75.1462 103.578 75.1969 103.407 75.1594 103.292C75.1149 103.155 74.9889 103.115 74.8726 103.146L72.948 103.672C73.1793 103.302 73.3714 102.905 73.5148 102.506C74.0576 100.996 74.1744 99.289 74.7316 97.7841C75.004 97.8793 75.3418 97.8139 75.6163 97.7914C76.156 97.7472 76.6956 97.7029 77.2352 97.6587C77.5216 97.6351 77.4829 97.1425 77.1963 97.1661C76.7309 97.2044 76.2651 97.2423 75.7996 97.2806C75.5718 97.2993 75.344 97.3224 75.1161 97.3365C75.0417 97.3411 74.9751 97.3411 74.9169 97.327C75.0238 97.0896 75.1443 96.8585 75.283 96.6358C75.7715 95.8516 76.4379 95.3706 77.2308 95.0348C77.6586 94.8536 78.0987 94.7028 78.5267 94.5213C78.6363 94.5441 78.7518 94.5433 78.8642 94.5416C79.138 94.5378 79.4116 94.533 79.6855 94.5286L81.3279 94.5028C81.615 94.4982 81.5748 94.0056 81.289 94.0102C80.8047 94.0178 80.3203 94.0254 79.836 94.033C79.7063 94.0352 79.5766 94.0371 79.4469 94.0393C80.1035 93.5998 80.5609 92.9377 80.7846 92.1225C81.0391 91.1953 81.0117 90.2115 81.1049 89.2566C81.1064 89.2425 81.1089 89.2287 81.1103 89.2143C81.6754 88.9246 82.2407 88.6349 82.8058 88.3454C82.9152 88.2893 82.9813 88.1594 82.937 88.0275C82.8976 87.9095 82.7601 87.8257 82.6502 87.8821C82.1661 88.1303 81.682 88.3783 81.1979 88.6265C81.3529 87.817 81.6546 87.0757 82.1644 86.433C82.7838 85.6521 83.6284 85.0935 84.5525 84.8988C84.831 84.8391 84.795 84.3459 84.5128 84.4053Z" fill="#544FC9"/>
<path d="M74.448 91.7188C74.2644 92.2993 74.2727 92.8912 74.3846 93.4866C74.5831 94.55 75.062 95.5781 74.99 96.6875C74.9284 97.6212 74.3961 98.3184 73.7238 98.827C73.0716 99.3207 72.319 99.6646 71.7253 100.253C71.3866 100.589 71.148 101.002 71.0347 101.492C70.9013 102.08 70.9013 102.697 70.7479 103.28C70.486 104.276 69.732 105.042 68.8093 105.234C68.0536 105.391 67.2663 105.101 66.7091 104.532C66.0669 104.13 65.5297 103.529 65.1893 102.797C64.7238 101.795 64.6271 100.587 64.9374 99.513C65.2578 98.3997 66.0936 97.4587 66.1435 96.2549C66.1885 95.175 65.643 94.1838 65.331 93.1983C65.0341 92.2627 64.959 91.2899 65.4727 90.43C65.9482 89.633 66.714 89.1355 67.2595 88.4069C67.5549 88.0131 67.7433 87.5639 67.7817 87.0479C67.8285 86.4487 67.6882 85.8424 67.5732 85.2616C67.3564 84.1779 67.2196 83.0853 67.7952 82.1033C68.289 81.2638 69.1581 80.6944 70.0741 80.7259C70.9701 80.7573 71.8457 81.3139 72.3129 82.1644C72.5882 82.6673 72.6617 83.2331 72.7902 83.7952C72.9086 84.3185 73.1122 84.7511 73.4874 85.1043C74.1296 85.709 75.0038 86.0364 75.4859 86.8369C76.1065 87.8688 75.6861 89.1299 75.1922 90.1061C74.925 90.6313 74.6281 91.1472 74.448 91.7188Z" fill="#544FC9"/>
<path d="M72.6563 85.7238L70.9474 86.5648C71.0636 86.3648 71.1708 86.1617 71.2589 85.9509C71.5612 85.2272 71.6338 84.4204 71.3602 83.6709C71.0903 82.9312 70.5458 82.3249 69.8608 82.0669C69.8365 82.0577 69.8138 82.0577 69.791 82.0566C69.7702 82.0499 69.7499 82.042 69.7252 82.042C69.5566 82.042 69.5037 82.2113 69.5443 82.3515C69.5522 82.4188 69.5874 82.4795 69.6655 82.511C69.6669 82.5118 69.6682 82.5129 69.6696 82.5137L69.6701 82.514C70.3138 82.7565 70.8071 83.3243 71.0073 84.0455C71.2075 84.7666 71.009 85.4786 70.6806 86.1099C70.5727 86.3174 70.4533 86.5186 70.3302 86.7175C70.1131 86.2249 69.896 85.7323 69.6792 85.2394C69.5546 84.9564 69.1346 85.1252 69.2609 85.4119L70.0392 87.1786C69.536 87.9702 69.0534 88.7647 69.0392 89.7923C69.0301 90.4457 69.1926 91.0539 69.3992 91.651C69.2829 91.5403 69.1669 91.4299 69.0507 91.3192C68.6711 90.9581 68.2918 90.5968 67.9122 90.2358C67.6939 90.028 67.4073 90.4069 67.6254 90.6145C68.0561 91.0243 68.4868 91.4345 68.9178 91.8444C69.1253 92.0418 69.3265 92.2616 69.5487 92.4382C69.6035 92.4818 69.6623 92.5128 69.7222 92.5323C69.9391 93.1174 70.1395 93.7077 70.2024 94.3354C70.3089 95.396 69.9704 96.3623 69.5142 97.2761C68.9743 96.349 68.4345 95.4218 67.8943 94.4946C67.7387 94.2271 67.3745 94.513 67.5302 94.7805C68.1077 95.7723 68.6853 96.7643 69.2631 97.7563C68.9873 98.2633 68.6924 98.7559 68.4364 99.2414C68.2091 99.6728 68.0008 100.146 67.8417 100.638C67.6078 100.122 67.3738 99.6055 67.1398 99.0893C67.0126 98.8082 66.5926 98.977 66.7216 99.2618C67.0336 99.9502 67.3456 100.639 67.6577 101.327C67.4472 102.338 67.5025 103.381 68.0987 104.274C68.2693 104.529 68.6342 104.245 68.4628 103.988C67.9631 103.24 67.9036 102.386 68.0637 101.546C68.8109 101.058 69.558 100.57 70.3052 100.082C70.5524 99.9201 70.2937 99.517 70.0472 99.6779C69.4457 100.071 68.8441 100.464 68.2426 100.857C68.4301 100.274 68.6958 99.7134 68.9653 99.2192C69.1966 98.7952 69.4459 98.365 69.6811 97.9247C70.6295 97.1299 71.5778 96.3354 72.5261 95.5406C72.7547 95.3491 72.4982 94.9444 72.2682 95.137C71.5736 95.7191 70.8791 96.3009 70.1845 96.8831C70.5184 96.0866 70.7318 95.2476 70.6508 94.3394C70.5918 93.6776 70.374 93.0539 70.1424 92.4344C70.3096 92.2884 70.4263 92.0554 70.548 91.8685C70.7149 91.6116 70.882 91.3547 71.0492 91.0978C71.3911 90.5719 71.7332 90.0456 72.0753 89.5196C72.2425 89.2627 71.9018 88.9429 71.7337 89.2017C71.161 90.0825 70.5903 90.9649 70.0157 91.8444C70.0039 91.8625 69.9829 91.9019 69.9589 91.942C69.6968 91.2332 69.466 90.519 69.4836 89.7494C69.5049 88.8249 69.9726 88.0819 70.453 87.3479C71.2393 86.9611 72.0257 86.5743 72.812 86.1872C73.0729 86.0591 72.9197 85.5942 72.6563 85.7238Z" fill="#7979E2"/>
</g>
<path d="M21.1191 112.639H120.83C120.83 112.639 119.394 118.407 70.9732 118.407C22.5528 118.407 21.1191 112.639 21.1191 112.639Z" fill="#E3E3FF"/>
<path d="M79.4106 25.5049C79.1497 25.5049 78.951 25.8141 78.9723 26.084C78.9967 26.393 79.2332 26.5699 79.4948 26.5699C79.7557 26.5699 79.9544 26.2606 79.9331 25.9907C79.9086 25.6817 79.6722 25.5049 79.4106 25.5049Z" fill="#FFD05A"/>
<path d="M70.3286 30.75C70.0677 30.75 69.8689 31.0592 69.8902 31.3291C69.9147 31.6381 70.1511 31.815 70.4127 31.815C70.6736 31.815 70.8723 31.5057 70.8511 31.2358C70.8266 30.9271 70.5902 30.75 70.3286 30.75Z" fill="#FFD05A"/>
<path d="M103.743 38.6201C103.482 38.6201 103.283 38.9294 103.304 39.1993C103.329 39.5082 103.565 39.6851 103.827 39.6851C104.088 39.6851 104.286 39.3759 104.265 39.1059C104.241 38.797 104.004 38.6201 103.743 38.6201Z" fill="#FFD05A"/>
<path d="M109.073 41.9463C108.812 41.9463 108.613 42.2555 108.634 42.5254C108.659 42.8344 108.895 43.0113 109.157 43.0113C109.418 43.0113 109.616 42.702 109.595 42.4321C109.571 42.1234 109.334 41.9463 109.073 41.9463Z" fill="#FFD05A"/>
<path d="M113.039 47.1787C112.779 47.1787 112.58 47.4879 112.601 47.7579C112.626 48.0668 112.862 48.2437 113.124 48.2437C113.385 48.2437 113.583 47.9345 113.562 47.6645C113.538 47.3556 113.301 47.1787 113.039 47.1787Z" fill="#FFD05A"/>
<path d="M108.536 52.6455C108.275 52.6455 108.076 52.9548 108.097 53.2247C108.122 53.5336 108.358 53.7105 108.62 53.7105C108.881 53.7105 109.079 53.4012 109.058 53.1313C109.034 52.8224 108.797 52.6455 108.536 52.6455Z" fill="#FFD05A"/>
<path d="M12.4418 79.9219C12.1809 79.9219 11.9822 80.2311 12.0035 80.501C12.028 80.81 12.2644 80.9869 12.526 80.9869C12.7869 80.9869 12.9856 80.6776 12.9643 80.4077C12.9399 80.099 12.7034 79.9219 12.4418 79.9219Z" fill="#FFD05A"/>
<path d="M14.7465 76.9053C14.4856 76.9053 14.2869 77.2145 14.3082 77.4844C14.3327 77.7934 14.5691 77.9703 14.8307 77.9703C15.0916 77.9703 15.2903 77.661 15.269 77.3911C15.2445 77.0824 15.0081 76.9053 14.7465 76.9053Z" fill="#FFD05A"/>
<path d="M41.2231 27.2236C40.9622 27.2236 40.7635 27.5329 40.7848 27.8028C40.8092 28.1117 41.0456 28.2886 41.3073 28.2886C41.5682 28.2886 41.7669 27.9794 41.7456 27.7095C41.7211 27.4008 41.4847 27.2236 41.2231 27.2236Z" fill="#FFD05A"/>
<path d="M21.391 77.1084C21.1302 77.1084 20.9314 77.4176 20.9527 77.6875C20.9772 77.9965 21.2136 78.1734 21.4752 78.1734C21.7361 78.1734 21.9348 77.8641 21.9136 77.5942C21.8891 77.2853 21.6527 77.1084 21.391 77.1084Z" fill="#FFD05A"/>
<path d="M32.352 34.418C32.0911 34.418 31.8924 34.7272 31.9137 34.9971C31.9381 35.3061 32.1746 35.483 32.4362 35.483C32.6971 35.483 32.8958 35.1737 32.8745 34.9038C32.85 34.5951 32.6136 34.418 32.352 34.418Z" fill="#FFD05A"/>
<path d="M74.3784 27.591C74.3777 27.591 74.377 27.591 74.3762 27.591C74.2842 27.5902 74.1978 27.5408 74.144 27.4581L72.8303 25.4431C72.7571 25.3311 72.7571 25.1797 72.8303 25.0677L74.144 23.0508C74.1995 22.9654 74.2835 22.909 74.3848 22.9179C74.4798 22.9201 74.5679 22.9741 74.6202 23.062L75.8938 25.2017C75.9609 25.3145 75.9572 25.4618 75.8843 25.5701L74.6107 27.4624C74.5559 27.543 74.4697 27.591 74.3784 27.591ZM73.4218 25.2549L74.3824 26.7281L75.2989 25.3663L74.3679 23.8022L73.4218 25.2549Z" fill="#FFD05A"/>
<path d="M32.4116 30.0801C32.4109 30.0801 32.4102 30.0801 32.4094 30.0801C32.3174 30.0793 32.231 30.0299 32.1772 29.9472L30.8635 27.9322C30.7903 27.8202 30.7903 27.6688 30.8635 27.5568L32.1772 25.54C32.2328 25.4545 32.3221 25.3989 32.4178 25.407C32.513 25.4092 32.6008 25.4632 32.6532 25.5511L33.9268 27.6908C33.9938 27.8036 33.9902 27.9509 33.9172 28.0592L32.6437 29.9515C32.5891 30.0323 32.5032 30.0801 32.4116 30.0801ZM31.455 27.7442L32.4156 29.2175L33.3321 27.8557L32.4011 26.2916L31.455 27.7442Z" fill="#FFD05A"/>
<path d="M103.126 55.0361C103.126 55.0361 103.125 55.0361 103.124 55.0361C103.032 55.0353 102.946 54.9859 102.892 54.9032L101.578 52.8882C101.505 52.7762 101.505 52.6248 101.578 52.5125L102.892 50.4954C102.948 50.41 103.031 50.3587 103.133 50.3625C103.228 50.3647 103.316 50.4187 103.368 50.5065L104.642 52.6463C104.709 52.7591 104.705 52.9064 104.632 53.0146L103.359 54.907C103.304 54.9884 103.218 55.0361 103.126 55.0361ZM102.17 52.7003L103.13 54.1735L104.047 52.8117L103.116 51.2476L102.17 52.7003Z" fill="#FFD05A"/>
<path d="M38.0467 35.1353C38.0459 35.1353 38.0452 35.1353 38.0445 35.1353C37.9524 35.1345 37.8663 35.0851 37.8122 35.0024L36.4982 32.9874C36.4251 32.8754 36.4251 32.724 36.4982 32.612L37.8122 30.5951C37.8678 30.5097 37.9627 30.4573 38.0528 30.4622C38.148 30.4644 38.2358 30.5184 38.2882 30.6063L39.5615 32.746C39.6286 32.8588 39.6249 33.0061 39.552 33.1144L38.2787 35.0067C38.2241 35.0875 38.1382 35.1353 38.0467 35.1353ZM37.0898 32.7994L38.0506 34.2727L38.9668 32.9109L38.0361 31.3468L37.0898 32.7994Z" fill="#FFD05A"/>
<path d="M14.0434 84.1562C13.7825 84.1562 13.5838 84.4655 13.6051 84.7354C13.6296 85.0444 13.866 85.2212 14.1276 85.2212C14.3885 85.2212 14.5872 84.912 14.5659 84.6421C14.5414 84.3331 14.3048 84.1562 14.0434 84.1562Z" fill="#FFD05A"/>
<path d="M19.6538 87.4443C19.6531 87.4443 19.6524 87.4443 19.6516 87.4443C19.5596 87.4435 19.4732 87.3942 19.4194 87.3114L18.1057 85.2965C18.0325 85.1845 18.0325 85.0331 18.1057 84.9211L19.4194 82.9042C19.4749 82.8188 19.5643 82.7632 19.66 82.7713C19.7552 82.7735 19.843 82.8274 19.8954 82.9153L21.169 85.0551C21.236 85.1679 21.2324 85.3152 21.1594 85.4234L19.8858 87.3158C19.8313 87.3963 19.7454 87.4443 19.6538 87.4443ZM18.6972 85.1085L19.6578 86.5817L20.5743 85.22L19.6433 83.6559L18.6972 85.1085Z" fill="#FFD05A"/>
<path d="M38.5703 24.167C37.7732 24.167 37.886 25.5347 38.6782 25.5347C39.4753 25.535 39.3625 24.167 38.5703 24.167Z" fill="#FFD05A"/>
<path d="M105.592 47.0264C104.795 47.0264 104.907 48.3941 105.7 48.3941C106.497 48.3941 106.384 47.0264 105.592 47.0264Z" fill="#FFD05A"/>
<path d="M49.4941 77.0742C48.697 77.0742 48.8098 78.4419 49.602 78.4419C50.3989 78.4419 50.2863 77.0742 49.4941 77.0742Z" fill="#FFD05A"/>
<path d="M109.234 38.2441C108.437 38.2441 108.55 39.6119 109.342 39.6119C110.139 39.6119 110.027 38.2441 109.234 38.2441Z" fill="#FFD05A"/>
<path d="M69.9833 21.5067C69.9449 21.3936 69.884 21.2981 69.8007 21.2203C69.7562 21.1885 69.7119 21.1571 69.6674 21.1253C69.5663 21.0727 69.4601 21.0518 69.3485 21.0621H69.2193C69.1341 21.0667 69.0563 21.0941 68.9863 21.144C68.9119 21.179 68.8495 21.2325 68.7988 21.3046C68.7435 21.3724 68.7068 21.45 68.6887 21.5371C68.6564 21.6223 68.6456 21.7118 68.6564 21.8057C68.6686 21.8656 68.6806 21.9256 68.6928 21.9852C68.7313 22.0983 68.7922 22.1938 68.8754 22.2717L69.0088 22.3666C69.1099 22.4193 69.2161 22.4401 69.3277 22.4298H69.4569C69.5421 22.4252 69.6199 22.3978 69.6899 22.3479C69.7643 22.3129 69.8267 22.2595 69.8773 22.1873C69.9327 22.1195 69.9694 22.0422 69.9875 21.9548C70.0198 21.8697 70.0305 21.7802 70.0198 21.6863C70.0075 21.6263 69.9953 21.5664 69.9833 21.5067Z" fill="#FFD05A"/>
<path d="M69.0043 56.2803C68.7435 56.2803 68.5447 56.5895 68.566 56.8594C68.5905 57.1684 68.8269 57.3453 69.0885 57.3453C69.3494 57.3453 69.5481 57.036 69.5268 56.7661C69.5024 56.4574 69.2657 56.2803 69.0043 56.2803Z" fill="#FFD05A"/>
<path d="M70.1391 64.0205C69.8782 64.0205 69.6795 64.3298 69.7008 64.5997C69.7253 64.9086 69.9617 65.0855 70.2233 65.0855C70.4842 65.0855 70.6829 64.7762 70.6616 64.5063C70.6371 64.1974 70.4007 64.0205 70.1391 64.0205Z" fill="#FFD05A"/>
<path d="M69.0327 72.554C69.032 72.554 69.0313 72.554 69.0305 72.554C68.9385 72.5532 68.8521 72.5039 68.7983 72.4211L67.4846 70.4062C67.4114 70.2941 67.4114 70.1428 67.4846 70.0308L68.7983 68.0136C68.8541 67.9279 68.9419 67.8723 69.0389 67.8807C69.1341 67.8829 69.2219 67.9369 69.2743 68.0248L70.5479 70.1645C70.6149 70.2773 70.6113 70.4246 70.5383 70.5329L69.2647 72.4252C69.2099 72.5063 69.124 72.554 69.0327 72.554ZM68.0761 70.2182L69.0367 71.6914L69.9532 70.3297L69.0222 68.7656L68.0761 70.2182Z" fill="#FFD05A"/>
<path d="M100.996 23.54C100.199 23.54 100.312 24.9077 101.104 24.9077C101.901 24.9077 101.789 23.54 100.996 23.54Z" fill="#FFD05A"/>
<path d="M74.9169 62.5409C74.8785 62.4278 74.8175 62.3326 74.7343 62.2544C74.6898 62.223 74.6455 62.1912 74.601 62.1595C74.4999 62.1069 74.3937 62.086 74.2821 62.0963H74.1529C74.0677 62.1009 73.9899 62.1283 73.9199 62.1782C73.8455 62.2132 73.7831 62.2667 73.7324 62.3388C73.6771 62.4066 73.6404 62.4842 73.6223 62.5713C73.59 62.6565 73.5792 62.746 73.59 62.8398C73.6022 62.8998 73.6142 62.9597 73.6264 63.0194C73.6649 63.1325 73.7258 63.228 73.809 63.3059C73.8535 63.3376 73.8978 63.3691 73.9424 63.4008C74.0435 63.4534 74.1497 63.4743 74.2613 63.464H74.3905C74.4757 63.4594 74.5535 63.432 74.6235 63.3821C74.6979 63.3471 74.7603 63.2937 74.8109 63.2215C74.8663 63.1537 74.903 63.0761 74.9211 62.989C74.9534 62.9039 74.9641 62.8143 74.9534 62.7205C74.9411 62.6605 74.9291 62.6008 74.9169 62.5409Z" fill="#FFD05A"/>
<path d="M101.192 59.8452C101.175 59.8615 101.165 59.8723 101.165 59.8723C100.568 60.0731 99.9901 60.2494 99.4321 60.4013C91.3927 62.5958 87.5161 59.9293 87.5161 59.9293C87.5137 59.9266 87.5137 59.9212 87.5137 59.9185V59.9157C87.2445 59.2077 87.6556 58.7385 87.937 58.516C88.0643 58.4129 88.1647 58.3614 88.1647 58.3614C88.1695 58.2475 88.1769 58.1254 88.1793 58.0033C88.1867 57.8948 88.1916 57.7863 88.1989 57.6751C87.4133 57.8189 86.6204 57.8894 85.825 57.8894C84.7776 57.8894 83.7277 57.7673 82.6973 57.5123L82.7414 57.2872L83.2774 54.6153C83.2994 54.6207 83.3165 54.6234 83.3385 54.6288C85.0199 55.0357 86.799 55.0004 88.495 54.5746C88.5562 54.0646 88.6223 53.5546 88.6908 53.0528C89.0653 50.2642 89.4984 47.7903 89.4984 47.7903C89.4984 47.7903 89.4911 47.7876 89.474 47.7821C89.217 47.717 87.1686 47.1202 87.0609 45.1834C85.0174 46.8761 82.7683 48.246 80.3944 49.2605C77.2619 50.5978 73.909 51.314 70.5244 51.314C70.3262 51.314 70.1279 51.3113 69.9297 51.3058L69.9909 48.3409C77.2643 48.5227 84.4178 45.0261 89.2146 38.9688C89.0848 38.7057 88.9527 38.2445 89.3467 37.8837C89.939 37.3439 94.0456 37.5555 94.0456 37.5555C93.9868 38.0926 93.8938 38.6243 93.7592 39.1424C94.7969 39.3431 95.9202 38.8332 96.5345 37.8837H96.5418C96.5541 37.7617 96.5638 37.6369 96.5687 37.5148H96.581C96.581 37.5148 99.2779 37.5772 99.902 38.1062C100.526 38.6351 100.068 39.373 100.068 39.373C100.068 39.373 100.533 40.7808 100.565 41.7872C100.59 42.5033 100.445 43.5993 100.213 44.8389C100.193 44.9556 100.169 45.0722 100.147 45.1889C99.459 48.7478 98.1619 53.2454 98.1619 53.2454L100.927 58.4482C101.713 59.205 101.307 59.7286 101.192 59.8452Z" fill="#BD9151"/>
<path d="M90.2504 39.4296C90.1187 39.4095 89.9905 39.4982 89.9653 39.6474C89.9188 39.9235 89.8725 40.2 89.826 40.4761C89.8025 40.6155 89.8919 40.7721 90.0225 40.7921C90.1542 40.8122 90.2824 40.7235 90.3077 40.5743C90.3542 40.2982 90.4004 40.0217 90.4469 39.7456C90.4702 39.6062 90.3811 39.4496 90.2504 39.4296Z" fill="#5A0000"/>
<path d="M92.2416 39.5774C92.2076 39.5242 92.1454 39.4765 92.0862 39.4672C92.0226 39.4575 91.9528 39.4678 91.9004 39.5128C91.8525 39.554 91.8074 39.6156 91.8011 39.6851C91.7783 39.9365 91.7556 40.1877 91.7326 40.4392C91.726 40.5127 91.7338 40.5829 91.7737 40.6451C91.8077 40.6982 91.8699 40.746 91.9291 40.7552C91.9927 40.765 92.0625 40.7547 92.1148 40.7096C92.1628 40.6684 92.2078 40.6068 92.2142 40.5374C92.237 40.2859 92.2597 40.0347 92.2827 39.7833C92.2893 39.7098 92.2813 39.6395 92.2416 39.5774Z" fill="#5A0000"/>
<path d="M94.2482 39.7649C94.2142 39.7117 94.152 39.664 94.0928 39.6547C94.0292 39.645 93.9594 39.6553 93.9071 39.7003C93.8601 39.7407 93.8121 39.8037 93.8077 39.8726C93.7928 40.111 93.7781 40.3497 93.7632 40.5882C93.7585 40.6633 93.7634 40.73 93.8043 40.7941C93.8383 40.8472 93.9004 40.895 93.9597 40.9042C94.0233 40.9139 94.093 40.9036 94.1454 40.8586C94.1924 40.8182 94.2404 40.7553 94.2448 40.6864C94.2597 40.4479 94.2744 40.2092 94.2893 39.9708C94.2937 39.8956 94.2891 39.8289 94.2482 39.7649Z" fill="#5A0000"/>
<path d="M96.146 39.7649C96.112 39.7117 96.0498 39.664 95.9906 39.6547C95.927 39.645 95.8572 39.6553 95.8048 39.7003C95.7583 39.7402 95.7086 39.8042 95.7055 39.8726C95.6947 40.1113 95.6837 40.3503 95.6729 40.589C95.6695 40.6652 95.6724 40.7298 95.714 40.7949C95.7481 40.848 95.8102 40.8958 95.8694 40.905C95.9331 40.9148 96.0028 40.9045 96.0552 40.8594C96.1017 40.8193 96.1514 40.7555 96.1545 40.6872C96.1653 40.4485 96.1763 40.2095 96.1871 39.9708C96.1903 39.8945 96.1873 39.83 96.146 39.7649Z" fill="#5A0000"/>
<path d="M98.2024 39.9006C98.198 39.8648 98.1857 39.8323 98.1654 39.803C98.1314 39.7498 98.0692 39.7021 98.01 39.6928C97.9464 39.6831 97.8766 39.6934 97.8243 39.7384C97.7773 39.7788 97.7293 39.842 97.7249 39.9107C97.7134 40.0992 97.7017 40.2877 97.6902 40.4762C97.6828 40.5131 97.6843 40.5492 97.6943 40.5845C97.6987 40.6203 97.711 40.6528 97.7313 40.6821C97.7653 40.7353 97.8274 40.783 97.8867 40.7923C97.9503 40.802 98.0201 40.7917 98.0724 40.7467C98.1194 40.7063 98.1674 40.6431 98.1718 40.5744C98.1833 40.3859 98.195 40.1974 98.2065 40.0088C98.2136 39.9717 98.2124 39.9356 98.2024 39.9006Z" fill="#5A0000"/>
<path d="M99.8633 39.9029C99.8173 39.86 99.7451 39.8316 99.6846 39.8405C99.6218 39.8497 99.5584 39.879 99.5185 39.9363C99.4766 39.9965 99.4632 40.0586 99.4622 40.1343C99.4592 40.3855 99.4561 40.6369 99.4531 40.8881C99.4524 40.9535 99.4962 41.0319 99.5395 41.0723C99.5855 41.1152 99.6577 41.1437 99.7182 41.1347C99.7811 41.1255 99.8445 41.0962 99.8843 41.039C99.9262 40.9787 99.9397 40.9166 99.9406 40.8409C99.9436 40.5897 99.9468 40.3383 99.9497 40.0871C99.9507 40.0217 99.9069 39.9433 99.8633 39.9029Z" fill="#5A0000"/>
<path d="M90.9589 41.281C90.8307 41.2615 90.6948 41.3488 90.6738 41.4989L90.5536 42.3628C90.5341 42.5028 90.6168 42.6585 90.7502 42.6789C90.8784 42.6984 91.0142 42.611 91.0353 42.461L91.1554 41.5971C91.175 41.4571 91.0925 41.3014 90.9589 41.281Z" fill="#5A0000"/>
<path d="M93.2309 41.7854C93.2265 41.7496 93.2143 41.717 93.194 41.6877C93.16 41.6346 93.0978 41.5868 93.0386 41.5776C92.975 41.5678 92.9052 41.5781 92.8528 41.6232C92.8061 41.6633 92.7571 41.7268 92.7535 41.7954C92.7422 42.0092 92.7307 42.2227 92.7195 42.4364C92.7121 42.4733 92.7136 42.5094 92.7236 42.5446C92.728 42.5805 92.7403 42.613 92.7606 42.6423C92.7946 42.6955 92.8567 42.7432 92.916 42.7524C92.9796 42.7622 93.0494 42.7519 93.1017 42.7069C93.1485 42.6667 93.1974 42.6032 93.2011 42.5346C93.2123 42.3209 93.2238 42.1074 93.2351 41.8936C93.2424 41.8565 93.241 41.8204 93.2309 41.7854Z" fill="#5A0000"/>
<path d="M95.4678 42.0871C95.4634 42.0513 95.4511 42.0188 95.4308 41.9895C95.3968 41.9363 95.3346 41.8886 95.2754 41.8794C95.2118 41.8696 95.142 41.8799 95.0896 41.9249C95.0427 41.9653 94.9942 42.0286 94.9903 42.0972C94.9788 42.2982 94.9673 42.4995 94.9558 42.7005C94.9484 42.7374 94.9499 42.7734 94.9599 42.8087C94.9643 42.8445 94.9766 42.8771 94.9969 42.9064C95.0309 42.9595 95.0931 43.0073 95.1523 43.0165C95.2159 43.0263 95.2857 43.0159 95.3381 42.9709C95.385 42.9305 95.4335 42.8673 95.4374 42.7987C95.4489 42.5977 95.4604 42.3964 95.4719 42.1954C95.4793 42.1585 95.4778 42.1224 95.4678 42.0871Z" fill="#5A0000"/>
<path d="M97.2391 41.802C97.2051 41.7488 97.1429 41.7011 97.0837 41.6919C97.0201 41.6821 96.9503 41.6924 96.8979 41.7374C96.8514 41.7776 96.802 41.8413 96.7986 41.9097L96.7609 42.7012C96.7572 42.7772 96.7604 42.8423 96.802 42.9071C96.836 42.9603 96.8982 43.008 96.9574 43.0172C97.0211 43.027 97.0908 43.0167 97.1432 42.9717C97.1897 42.9315 97.2391 42.8678 97.2425 42.7994L97.2802 42.0079C97.2836 41.9319 97.2805 41.8668 97.2391 41.802Z" fill="#5A0000"/>
<path d="M99.3913 41.8996C99.3869 41.8638 99.3747 41.8313 99.3544 41.802C99.3204 41.7488 99.2582 41.7011 99.199 41.6919C99.1354 41.6821 99.0656 41.6924 99.0132 41.7374C98.9665 41.7776 98.9175 41.8411 98.9139 41.9097C98.9024 42.1234 98.8911 42.3369 98.8796 42.5507C98.8723 42.5876 98.8737 42.6236 98.8838 42.6589C98.8882 42.6947 98.9004 42.7273 98.9207 42.7566C98.9547 42.8097 99.0169 42.8575 99.0761 42.8667C99.1398 42.8765 99.2095 42.8662 99.2619 42.8211C99.3086 42.781 99.3576 42.7175 99.3612 42.6489C99.3727 42.4351 99.384 42.2216 99.3955 42.0079C99.4028 41.9707 99.4016 41.9349 99.3913 41.8996Z" fill="#5A0000"/>
<path d="M89.0872 43.0098C88.9508 42.9889 88.8329 43.0795 88.802 43.2276C88.7448 43.5041 88.6875 43.7802 88.63 44.0566C88.6014 44.195 88.6995 44.3531 88.8265 44.3726C88.9628 44.3935 89.0808 44.3029 89.1116 44.1548C89.1689 43.8784 89.2262 43.6023 89.2837 43.3258C89.3126 43.1872 89.2142 43.0291 89.0872 43.0098Z" fill="#5A0000"/>
<path d="M91.831 43.7248C91.797 43.6717 91.7348 43.6239 91.6756 43.6147C91.6119 43.6049 91.5422 43.6152 91.4898 43.6603C91.4433 43.7002 91.3934 43.7642 91.3905 43.8325C91.3792 44.0965 91.3677 44.3604 91.3564 44.6243C91.3533 44.7006 91.3557 44.7651 91.3976 44.8302C91.4316 44.8834 91.4937 44.9311 91.553 44.9404C91.6166 44.9501 91.6863 44.9398 91.7387 44.8948C91.7852 44.8549 91.8351 44.7909 91.8381 44.7225C91.8493 44.4586 91.8608 44.1947 91.8721 43.9307C91.8753 43.8542 91.8726 43.7899 91.831 43.7248Z" fill="#5A0000"/>
<path d="M94.3844 43.8752C94.3504 43.8221 94.2883 43.7743 94.229 43.7651C94.1654 43.7553 94.0956 43.7656 94.0433 43.8107C93.9965 43.8508 93.9473 43.9146 93.9439 43.9829C93.9324 44.2092 93.9209 44.4354 93.9094 44.6616C93.9055 44.7376 93.9092 44.803 93.9505 44.8675C93.9845 44.9207 94.0467 44.9684 94.1059 44.9776C94.1696 44.9874 94.2393 44.9771 94.2917 44.9321C94.3384 44.8919 94.3874 44.8282 94.391 44.7598C94.4025 44.5336 94.414 44.3074 94.4255 44.0811C94.4292 44.0052 94.4258 43.9398 94.3844 43.8752Z" fill="#5A0000"/>
<path d="M96.5976 43.9123C96.5636 43.8592 96.5014 43.8114 96.4422 43.8022C96.3785 43.7924 96.3088 43.8027 96.2564 43.8478C96.2099 43.8877 96.16 43.9519 96.1571 44.02C96.146 44.284 96.135 44.5479 96.124 44.8118C96.1208 44.8883 96.1233 44.9524 96.1651 45.0177C96.1992 45.0709 96.2613 45.1186 96.3205 45.1279C96.3842 45.1376 96.4539 45.1273 96.5063 45.0823C96.5528 45.0424 96.6027 44.9781 96.6057 44.91C96.6167 44.6461 96.6277 44.3822 96.6387 44.1182C96.6419 44.042 96.6392 43.9777 96.5976 43.9123Z" fill="#5A0000"/>
<path d="M89.8369 45.2354C89.6974 45.2143 89.5866 45.306 89.5518 45.4533C89.4838 45.7424 89.4158 46.0313 89.3477 46.3205C89.3154 46.458 89.4199 46.6175 89.5442 46.6365C89.6837 46.6577 89.7946 46.566 89.8294 46.4187C89.8974 46.1295 89.9654 45.8406 90.0335 45.5515C90.066 45.4137 89.9613 45.2542 89.8369 45.2354Z" fill="#5A0000"/>
<path d="M93.0986 45.106C93.0526 45.0632 92.9804 45.0347 92.92 45.0436C92.8571 45.0529 92.7937 45.0822 92.7538 45.1394C92.7122 45.1996 92.698 45.2617 92.6975 45.3374C92.6956 45.5761 92.6934 45.8148 92.6914 46.0538C92.6909 46.1195 92.7342 46.1973 92.7778 46.238C92.8238 46.2809 92.896 46.3094 92.9564 46.3004C93.0193 46.2912 93.0827 46.2619 93.1226 46.2046C93.1642 46.1444 93.1782 46.0823 93.1789 46.0066C93.1809 45.7679 93.1831 45.5292 93.185 45.2902C93.1858 45.2246 93.1422 45.1464 93.0986 45.106Z" fill="#5A0000"/>
<path d="M95.8193 45.5354C95.7853 45.4822 95.7231 45.4345 95.6639 45.4253C95.6003 45.4155 95.5305 45.4258 95.4782 45.4708C95.4292 45.5129 95.3869 45.5731 95.3788 45.6431C95.3556 45.8441 95.3323 46.0451 95.3093 46.2461C95.301 46.3183 95.3115 46.3915 95.3504 46.452C95.3844 46.5051 95.4466 46.5529 95.5058 46.5621C95.5694 46.5719 95.6392 46.5616 95.6916 46.5165C95.7405 46.4745 95.7829 46.4143 95.7909 46.3443L95.8607 45.7413C95.8685 45.6691 95.858 45.5959 95.8193 45.5354Z" fill="#5A0000"/>
<path d="M98.4956 44.3642C98.4616 44.3111 98.3994 44.2633 98.3402 44.2541C98.1985 44.2324 98.0923 44.3255 98.0551 44.4719C97.9753 44.7861 97.8955 45.1002 97.8157 45.414C97.7996 45.478 97.8233 45.5676 97.8569 45.6199C97.8909 45.6731 97.953 45.7208 98.0123 45.7301C98.1539 45.7518 98.2599 45.6587 98.2974 45.5122C98.3771 45.1981 98.4569 44.884 98.5367 44.5701C98.5529 44.5061 98.5291 44.4166 98.4956 44.3642Z" fill="#5A0000"/>
<path d="M99.3657 45.2733C99.2335 45.2533 99.1063 45.342 99.0806 45.4911C99.0355 45.7551 98.9902 46.019 98.9452 46.283C98.9215 46.4224 99.0113 46.5789 99.1417 46.599C99.2739 46.6191 99.4012 46.5304 99.4269 46.3812C99.4719 46.1172 99.5172 45.8533 99.5622 45.5893C99.5862 45.4499 99.4961 45.2934 99.3657 45.2733Z" fill="#5A0000"/>
<path d="M98.3895 47.2158C98.3689 47.1545 98.32 47.0911 98.2647 47.0653C98.1428 47.0083 97.9969 47.0574 97.9387 47.1947C97.8481 47.4084 97.7576 47.6222 97.6673 47.836C97.6403 47.8997 97.6369 47.9803 97.6592 48.0465C97.6798 48.1075 97.7287 48.1712 97.784 48.197C97.9059 48.254 98.0517 48.2049 98.11 48.0676C98.2005 47.8539 98.2911 47.6401 98.3814 47.4263C98.4086 47.3626 98.4117 47.282 98.3895 47.2158Z" fill="#5A0000"/>
<path d="M96.8469 48.2777C96.7202 48.2185 96.5848 48.2728 96.521 48.4071C96.3957 48.6707 96.2701 48.9341 96.1448 49.1978C96.0851 49.3237 96.1433 49.5038 96.2615 49.5591C96.3883 49.6182 96.5237 49.564 96.5875 49.4297C96.7128 49.1661 96.8381 48.9027 96.9637 48.639C97.0234 48.5131 96.9652 48.3327 96.8469 48.2777Z" fill="#5A0000"/>
<path d="M97.8543 49.6013C97.8042 49.5584 97.7403 49.5294 97.6757 49.5389C97.6143 49.5479 97.5467 49.5766 97.5095 49.6347C97.3823 49.8338 97.2547 50.0326 97.1275 50.2317C97.0893 50.2914 97.0653 50.3546 97.0712 50.4297C97.0763 50.4959 97.1091 50.5727 97.1576 50.6139C97.2078 50.6568 97.2716 50.6858 97.3362 50.6763C97.3977 50.6674 97.4652 50.6386 97.5024 50.5806C97.6297 50.3815 97.7572 50.1826 97.8844 49.9835C97.9226 49.9238 97.9466 49.8606 97.9407 49.7855C97.9356 49.719 97.9028 49.6425 97.8543 49.6013Z" fill="#5A0000"/>
<path d="M96.2043 51.0222C96.1542 50.9793 96.0903 50.9503 96.0257 50.9598C95.962 50.9693 95.9009 50.9989 95.8595 51.0556C95.7124 51.2571 95.5656 51.4584 95.4185 51.6599C95.3786 51.7147 95.3566 51.7874 95.3622 51.858C95.3673 51.9242 95.4001 52.0009 95.4486 52.0422C95.4988 52.085 95.5626 52.114 95.6272 52.1045C95.6909 52.095 95.7521 52.0655 95.7934 52.0088C95.9405 51.8072 96.0873 51.606 96.2344 51.4044C96.2743 51.3496 96.2963 51.2769 96.2907 51.2064C96.2856 51.1399 96.2528 51.0634 96.2043 51.0222Z" fill="#5A0000"/>
<path d="M94.4736 51.8597C94.4355 51.8052 94.3816 51.7593 94.3182 51.7496C94.2573 51.7404 94.1807 51.7474 94.1325 51.7952C93.935 51.9905 93.7377 52.1858 93.5405 52.3814C93.4911 52.4302 93.4536 52.4787 93.4411 52.5536C93.4301 52.6198 93.4443 52.7052 93.4822 52.7595C93.5204 52.814 93.5743 52.8599 93.6376 52.8696C93.6986 52.8789 93.7752 52.8718 93.8234 52.8241C94.0209 52.6287 94.2181 52.4334 94.4154 52.2379C94.4648 52.189 94.5023 52.1405 94.5148 52.0656C94.5258 51.9994 94.5116 51.914 94.4736 51.8597Z" fill="#5A0000"/>
<path d="M94.6011 53.7169C94.5967 53.6811 94.5845 53.6485 94.5642 53.6192C94.526 53.5647 94.4722 53.5189 94.4088 53.5091C94.387 53.508 94.365 53.5069 94.3432 53.5059C94.2992 53.5102 94.2593 53.5265 94.223 53.5547C94.0982 53.68 93.9732 53.8056 93.8481 53.9309C93.8209 53.9507 93.8001 53.976 93.7852 54.0072C93.7656 54.0354 93.7536 54.0674 93.7487 54.1032C93.7414 54.1401 93.7429 54.1762 93.7529 54.2114C93.7573 54.2472 93.7696 54.2798 93.7899 54.3091C93.828 54.3636 93.8819 54.4094 93.9453 54.4192C93.967 54.4203 93.9891 54.4214 94.0109 54.4225C94.0549 54.4181 94.0948 54.4018 94.131 54.3736C94.2558 54.2483 94.3809 54.1227 94.506 53.9974C94.5331 53.9776 94.5539 53.9524 94.5688 53.9212C94.5884 53.8929 94.6004 53.8609 94.6053 53.8251C94.6124 53.7882 94.6112 53.7522 94.6011 53.7169Z" fill="#5A0000"/>
<path d="M93.0268 53.9513C92.9887 53.8968 92.9348 53.8509 92.8714 53.8412C92.8061 53.8311 92.7405 53.8436 92.6857 53.8867C92.5266 54.0118 92.3675 54.1368 92.2084 54.2622C92.1583 54.3018 92.1204 54.3674 92.1091 54.4344C92.0981 54.5006 92.1123 54.586 92.1502 54.6403C92.1884 54.6948 92.2422 54.7407 92.3056 54.7504C92.371 54.7605 92.4365 54.748 92.4914 54.7049C92.6504 54.5798 92.8095 54.4548 92.9686 54.3294C93.0188 54.2898 93.0567 54.2242 93.068 54.1572C93.0787 54.0907 93.0645 54.0053 93.0268 53.9513Z" fill="#5A0000"/>
<path d="M91.4835 54.2251C91.4593 54.1616 91.4177 54.1019 91.3587 54.0745C91.3024 54.0482 91.2255 54.0325 91.1688 54.0656L90.5887 54.4014C90.5577 54.4128 90.5312 54.4315 90.5097 54.4578C90.4847 54.4795 90.4656 54.5067 90.4529 54.5398C90.427 54.6005 90.4206 54.6873 90.4448 54.7503C90.4691 54.8137 90.5107 54.8734 90.5697 54.9008C90.6259 54.9271 90.7028 54.9429 90.7596 54.9098L91.3396 54.5739C91.3707 54.5626 91.3971 54.5438 91.4186 54.5175C91.4436 54.4958 91.4627 54.4687 91.4754 54.4356C91.5014 54.3748 91.5077 54.2883 91.4835 54.2251Z" fill="#5A0000"/>
<path d="M91.493 55.6028C91.4688 55.5393 91.4272 55.4796 91.3682 55.4522C91.3117 55.4259 91.2355 55.4107 91.1783 55.4433C90.8848 55.6096 90.5914 55.7759 90.2977 55.9421C90.2388 55.9755 90.1913 56.0113 90.1619 56.0805C90.136 56.1413 90.1296 56.2281 90.1538 56.291C90.1781 56.3545 90.2197 56.4141 90.2786 56.4415C90.3352 56.4679 90.4113 56.483 90.4686 56.4505C90.762 56.2842 91.0554 56.1179 91.3491 55.9516C91.4081 55.9183 91.4556 55.8825 91.4849 55.8133C91.5109 55.7525 91.517 55.6657 91.493 55.6028Z" fill="#5A0000"/>
<path d="M89.8875 55.5876C89.8633 55.5242 89.8217 55.4645 89.7627 55.4371C89.7015 55.4086 89.6362 55.4029 89.5728 55.4281C89.414 55.4911 89.2554 55.5537 89.0966 55.6167C89.0391 55.6395 88.9867 55.6943 88.9607 55.755C88.9348 55.8158 88.9284 55.9026 88.9527 55.9655C88.9769 56.029 89.0185 56.0887 89.0775 56.1161C89.1387 56.1446 89.204 56.1502 89.2674 56.125C89.4262 56.0621 89.5848 55.9994 89.7436 55.9365C89.8011 55.9137 89.8535 55.8589 89.8795 55.7981C89.9054 55.7374 89.9115 55.6509 89.8875 55.5876Z" fill="#5A0000"/>
<path d="M87.9384 55.3112C87.723 55.3266 87.5079 55.3418 87.2926 55.357C87.1648 55.3662 87.053 55.5078 87.0701 55.6508C87.088 55.7994 87.1983 55.9071 87.3351 55.8974C87.5505 55.8819 87.7656 55.8667 87.981 55.8515C88.1087 55.8423 88.2206 55.7007 88.2035 55.5577C88.1856 55.4091 88.0752 55.3014 87.9384 55.3112Z" fill="#5A0000"/>
<path d="M88.0197 56.7762C87.9832 56.7241 87.9262 56.6707 87.8643 56.6661C87.7054 56.6544 87.5466 56.6427 87.3878 56.6311C87.3545 56.6229 87.3219 56.6246 87.2901 56.6357C87.2578 56.6406 87.2284 56.6541 87.202 56.6767C87.1541 56.7144 87.111 56.7833 87.1027 56.8489C87.0938 56.9194 87.1031 56.9967 87.1438 57.0548C87.1802 57.1069 87.2373 57.1603 87.2992 57.1649C87.458 57.1766 87.6168 57.1883 87.7757 57.1999C87.809 57.2081 87.8415 57.2064 87.8733 57.1953C87.9056 57.1904 87.935 57.1769 87.9614 57.1543C88.0094 57.1166 88.0525 57.0477 88.0608 56.9821C88.0696 56.9116 88.0603 56.8343 88.0197 56.7762Z" fill="#5A0000"/>
<path d="M86.7871 56.2294C86.7694 56.2169 86.7521 56.2045 86.7344 56.192C86.6945 56.1711 86.6524 56.163 86.6084 56.167H86.1321C86.0727 56.167 86.0029 56.214 85.966 56.2628C85.9273 56.3138 85.9016 56.3938 85.9097 56.4608C85.918 56.5305 85.9444 56.6008 85.9961 56.645C86.0137 56.6575 86.0311 56.67 86.0487 56.6824C86.0886 56.7033 86.1307 56.7115 86.1747 56.7074H86.651C86.7104 56.7074 86.7802 56.6605 86.8171 56.6116C86.8558 56.5606 86.8815 56.4806 86.8734 56.4136C86.8651 56.3439 86.8387 56.2736 86.7871 56.2294Z" fill="#5A0000"/>
<path d="M85.6399 55.5583C85.602 55.504 85.5477 55.4571 85.4845 55.4482C85.3032 55.4224 85.1219 55.3966 84.9405 55.3711C84.8754 55.3619 84.8093 55.3736 84.7548 55.4167C84.7068 55.4544 84.6637 55.5233 84.6554 55.5889C84.6466 55.6595 84.6559 55.7368 84.6965 55.7948C84.7344 55.8491 84.7888 55.896 84.8519 55.905C85.0333 55.9307 85.2146 55.9565 85.3959 55.982C85.461 55.9912 85.5271 55.9796 85.5817 55.9364C85.6297 55.8987 85.6727 55.8298 85.6811 55.7642C85.6899 55.6936 85.6806 55.6163 85.6399 55.5583Z" fill="#5A0000"/>
<path d="M84.9921 56.846C84.9522 56.7893 84.9008 56.7514 84.8367 56.7359C84.6778 56.6982 84.5193 56.6605 84.3604 56.6228C84.2995 56.6084 84.2251 56.6287 84.1747 56.6683C84.1267 56.7061 84.0836 56.775 84.0753 56.8406C84.0665 56.9111 84.0758 56.9884 84.1164 57.0465C84.1563 57.1032 84.2077 57.1412 84.2718 57.1566C84.4307 57.1943 84.5893 57.232 84.7481 57.2697C84.809 57.2841 84.8834 57.2638 84.9338 57.2242C84.9818 57.1865 85.0249 57.1176 85.0332 57.0519C85.042 56.9814 85.0327 56.9041 84.9921 56.846Z" fill="#5A0000"/>
<path d="M84.1745 55.9156C84.1366 55.8613 84.0823 55.8149 84.0191 55.8054C83.849 55.7805 83.679 55.7555 83.5089 55.7306C83.444 55.7211 83.3774 55.7333 83.3231 55.7761C83.2751 55.8138 83.2321 55.8827 83.2237 55.9484C83.2149 56.0189 83.2242 56.0962 83.2649 56.1543C83.3028 56.2085 83.3571 56.2549 83.4203 56.2644C83.5904 56.2894 83.7604 56.3143 83.9305 56.3393C83.9954 56.3488 84.062 56.3366 84.1163 56.2937C84.1643 56.256 84.2073 56.1871 84.2156 56.1215C84.2245 56.0509 84.2152 55.9733 84.1745 55.9156Z" fill="#5A0000"/>
<path d="M90.4861 48.6668C90.3589 48.6472 90.2206 48.7343 90.201 48.8846L90.0982 49.6764C90.0801 49.8167 90.1604 49.9718 90.2948 49.9924C90.422 50.0117 90.5603 49.9249 90.5799 49.7746L90.6827 48.9828C90.701 48.8423 90.6207 48.6871 90.4861 48.6668Z" fill="#5A0000"/>
<path d="M92.374 48.8528C92.34 48.7996 92.2778 48.7519 92.2186 48.7426C92.155 48.7329 92.0852 48.7432 92.0329 48.7882C91.9864 48.8281 91.9367 48.8921 91.9335 48.9605C91.9222 49.2119 91.9107 49.4631 91.8995 49.7146C91.8961 49.7908 91.899 49.8554 91.9406 49.9205C91.9746 49.9736 92.0368 50.0214 92.096 50.0306C92.1596 50.0404 92.2294 50.0301 92.2818 49.985C92.3283 49.9451 92.3779 49.8811 92.3811 49.8128L92.4151 49.0587C92.4186 48.9824 92.4156 48.9179 92.374 48.8528Z" fill="#5A0000"/>
<path d="M94.2078 48.6262C94.1738 48.573 94.1117 48.5253 94.0524 48.5161C93.9888 48.5063 93.9191 48.5166 93.8667 48.5616C93.8202 48.6018 93.7705 48.6655 93.7673 48.7339L93.7336 49.4503C93.7299 49.5263 93.7331 49.5914 93.7747 49.6562C93.8087 49.7094 93.8708 49.7571 93.9301 49.7663C93.9937 49.7761 94.0634 49.7658 94.1158 49.7208C94.1623 49.6806 94.212 49.6169 94.2152 49.5485C94.2264 49.3098 94.2377 49.0708 94.249 48.8321C94.2526 48.7559 94.2494 48.691 94.2078 48.6262Z" fill="#5A0000"/>
<path d="M91.5528 50.5481C91.5188 50.4949 91.4566 50.4472 91.3974 50.4379C91.3338 50.4282 91.264 50.4385 91.2117 50.4835C91.1634 50.525 91.1192 50.5861 91.1123 50.6558C91.0881 50.907 91.0636 51.1581 91.0394 51.4093C91.0323 51.4826 91.0408 51.5534 91.0805 51.6152C91.1145 51.6684 91.1767 51.7161 91.2359 51.7254C91.2995 51.7351 91.3693 51.7248 91.4216 51.6798C91.4699 51.6383 91.5141 51.5773 91.521 51.5075C91.5452 51.2563 91.5697 51.0052 91.5939 50.754C91.6008 50.6805 91.5922 50.6097 91.5528 50.5481Z" fill="#5A0000"/>
<path d="M93.2507 50.3472C93.2047 50.3044 93.1325 50.2759 93.0721 50.2849C93.0092 50.2941 92.9458 50.3234 92.9059 50.3806C92.8643 50.4406 92.8496 50.5032 92.8496 50.5786V51.1819C92.8496 51.2478 92.8919 51.3251 92.936 51.3661C92.982 51.409 93.0542 51.4374 93.1147 51.4285C93.1776 51.4193 93.2409 51.39 93.2808 51.3327C93.3224 51.2728 93.3371 51.2101 93.3371 51.1347V50.5314C93.3371 50.4655 93.2948 50.3882 93.2507 50.3472Z" fill="#5A0000"/>
<path d="M89.8235 51.6885C89.6867 51.6676 89.5697 51.7582 89.5384 51.9064C89.4909 52.132 89.4432 52.3577 89.3957 52.5834C89.3666 52.7218 89.4657 52.8799 89.5923 52.8994C89.7291 52.9203 89.8461 52.8297 89.8774 52.6816L90.0201 52.0045C90.0492 51.8662 89.9501 51.7078 89.8235 51.6885Z" fill="#5A0000"/>
<path d="M97.6159 53.9045C97.5819 53.8514 97.5197 53.8036 97.4605 53.7944C97.3969 53.7846 97.3271 53.7949 97.2747 53.84C97.2282 53.8798 97.1783 53.9439 97.1754 54.0122C97.1641 54.2762 97.1529 54.5401 97.1416 54.804C97.1384 54.8803 97.1409 54.9448 97.1827 55.0099C97.2167 55.0631 97.2789 55.1108 97.3381 55.1201C97.4018 55.1298 97.4715 55.1195 97.5239 55.0745C97.5704 55.0346 97.6203 54.9706 97.6232 54.9022C97.6345 54.6383 97.6458 54.3744 97.657 54.1104C97.6602 54.0339 97.6575 53.9696 97.6159 53.9045Z" fill="#5A0000"/>
<path d="M96.6621 55.5246C96.6281 55.4715 96.5659 55.4237 96.5067 55.4145C96.443 55.4047 96.3733 55.4151 96.3209 55.4601C96.2712 55.5027 96.2314 55.5618 96.2216 55.6323C96.1988 55.7956 96.1763 55.9592 96.1535 56.1225C96.1437 56.1933 96.1567 56.2693 96.1946 56.3284C96.2287 56.3816 96.2908 56.4293 96.35 56.4385C96.4137 56.4483 96.4834 56.438 96.5358 56.393C96.5855 56.3504 96.6254 56.2912 96.6352 56.2207C96.6579 56.0574 96.6804 55.8938 96.7032 55.7305C96.713 55.6597 96.6998 55.5838 96.6621 55.5246Z" fill="#5A0000"/>
<path d="M98.7855 55.5183C98.773 55.4858 98.7539 55.4584 98.7282 55.4361C98.6822 55.3932 98.61 55.3648 98.5495 55.3737C98.4867 55.3829 98.4233 55.4122 98.3834 55.4695C98.3721 55.489 98.3609 55.5085 98.3496 55.5278C98.3308 55.572 98.3234 55.6187 98.3271 55.6675V56.0823C98.3288 56.1197 98.3386 56.1536 98.3562 56.1843C98.3687 56.2168 98.3878 56.2442 98.4135 56.2664C98.4595 56.3093 98.5317 56.3378 98.5921 56.3288C98.655 56.3196 98.7184 56.2903 98.7583 56.2331C98.7696 56.2135 98.7808 56.1943 98.7921 56.1748C98.8109 56.1305 98.8183 56.0839 98.8146 56.0351V55.6203C98.8131 55.5831 98.8033 55.549 98.7855 55.5183Z" fill="#5A0000"/>
<path d="M97.4787 56.9963C97.4447 56.9432 97.3825 56.8954 97.3233 56.8862C97.2597 56.8764 97.1899 56.8867 97.1376 56.9318C97.0876 56.9746 97.049 57.0335 97.0382 57.104C97.0154 57.2548 96.9929 57.4057 96.9702 57.5565C96.9596 57.6267 96.9738 57.704 97.0113 57.7624C97.0453 57.8155 97.1075 57.8633 97.1667 57.8725C97.2303 57.8823 97.3001 57.872 97.3524 57.8269C97.4024 57.7841 97.441 57.7252 97.4518 57.6547C97.4746 57.5039 97.4971 57.353 97.5198 57.2022C97.5301 57.132 97.5159 57.0546 97.4787 56.9963Z" fill="#5A0000"/>
<path d="M95.3784 57.261C95.3444 57.2078 95.2822 57.1601 95.223 57.1508C95.1593 57.1411 95.0896 57.1514 95.0372 57.1964C94.9883 57.2385 94.9462 57.2987 94.9379 57.3687C94.9146 57.5697 94.8911 57.7707 94.8679 57.9717C94.8595 58.0438 94.8703 58.1171 94.909 58.1776C94.943 58.2307 95.0052 58.2785 95.0644 58.2877C95.128 58.2975 95.1978 58.2872 95.2501 58.2421C95.2991 58.2001 95.3412 58.1399 95.3495 58.0699C95.3727 57.8689 95.3962 57.6679 95.4195 57.4669C95.4278 57.3947 95.417 57.3215 95.3784 57.261Z" fill="#5A0000"/>
<path d="M93.4883 57.1343C93.4423 57.0915 93.3701 57.063 93.3097 57.072C93.2468 57.0812 93.1834 57.1105 93.1435 57.1677C93.1016 57.2279 93.0882 57.2898 93.0872 57.3657C93.0828 57.6546 93.0786 57.9438 93.0742 58.2327C93.0733 58.2978 93.1173 58.3765 93.1606 58.4169C93.2066 58.4597 93.2788 58.4882 93.3393 58.4793C93.4022 58.4701 93.4656 58.4408 93.5055 58.3835C93.5473 58.3233 93.5608 58.2614 93.5617 58.1855C93.5661 57.8966 93.5703 57.6074 93.5747 57.3185C93.5757 57.2532 93.5316 57.1745 93.4883 57.1343Z" fill="#5A0000"/>
<path d="M99.833 57.8841C99.7873 57.6077 99.7415 57.3313 99.6957 57.0549C99.6837 56.9822 99.6619 56.9198 99.6093 56.8707C99.5633 56.8278 99.4911 56.7993 99.4307 56.8083C99.3093 56.8262 99.1835 56.9526 99.2082 57.1021L99.3455 57.9313C99.3575 58.004 99.3793 58.0664 99.4319 58.1155C99.4779 58.1584 99.5501 58.1868 99.6105 58.1779C99.7319 58.1603 99.8577 58.0336 99.833 57.8841Z" fill="#5A0000"/>
<path d="M92.2611 59.1644C92.2572 59.0223 92.1218 58.8994 91.996 58.9179C91.8583 58.9382 91.7694 59.0595 91.7736 59.2116C91.7824 59.5385 91.7914 59.8654 91.8003 60.1923C91.8042 60.3344 91.9395 60.4573 92.0653 60.4388C92.2031 60.4185 92.2919 60.2972 92.2878 60.1451C92.2787 59.8182 92.2699 59.4913 92.2611 59.1644Z" fill="#5A0000"/>
<path d="M94.5 59.2779C94.4902 59.1363 94.3649 59.012 94.2349 59.0313C94.1023 59.0508 94.002 59.1734 94.0125 59.3251C94.0325 59.6142 94.0524 59.9037 94.0724 60.1928C94.0822 60.3344 94.2075 60.4587 94.3375 60.4394C94.4701 60.4199 94.5705 60.2973 94.5599 60.1456C94.5399 59.8565 94.5198 59.567 94.5 59.2779Z" fill="#5A0000"/>
<path d="M96.6111 59.1642C96.6072 59.0959 96.5717 59.0237 96.5247 58.9801C96.4787 58.9372 96.4065 58.9087 96.3461 58.9177C96.2119 58.9375 96.1148 59.0598 96.1236 59.2114C96.1344 59.4 96.1451 59.5885 96.1561 59.777C96.1601 59.8454 96.1956 59.9175 96.2425 59.9612C96.2885 60.0041 96.3607 60.0326 96.4212 60.0236C96.5553 60.0038 96.6525 59.8815 96.6437 59.7298C96.6326 59.5413 96.6219 59.3528 96.6111 59.1642Z" fill="#5A0000"/>
<path d="M98.7318 59.3958C98.675 59.1948 98.6185 58.9935 98.5617 58.7925C98.5439 58.7296 98.4895 58.6696 98.4369 58.642C98.3821 58.6132 98.3038 58.6062 98.247 58.633C98.1195 58.6927 98.062 58.8367 98.1028 58.9819C98.1596 59.1829 98.2161 59.3841 98.2729 59.5851C98.2908 59.6481 98.3451 59.708 98.3977 59.7357C98.4526 59.7645 98.5309 59.7715 98.5877 59.7447C98.7152 59.685 98.7727 59.5412 98.7318 59.3958Z" fill="#5A0000"/>
<path d="M100.912 59.1679C100.844 58.9794 100.776 58.7906 100.708 58.6021C100.685 58.5378 100.64 58.4814 100.583 58.4515C100.529 58.4228 100.45 58.4157 100.393 58.4426C100.336 58.4694 100.282 58.5156 100.258 58.5809C100.232 58.6474 100.225 58.7228 100.25 58.7914L100.453 59.3573C100.476 59.4216 100.521 59.478 100.578 59.5078C100.633 59.5366 100.711 59.5436 100.768 59.5168C100.825 59.4899 100.879 59.4438 100.903 59.3784C100.929 59.312 100.936 59.2366 100.912 59.1679Z" fill="#5A0000"/>
<path d="M97.3893 27.9136C98.1534 27.9136 98.7728 27.227 98.7728 26.3801C98.7728 25.5332 98.1534 24.8467 97.3893 24.8467C96.6253 24.8467 96.0059 25.5332 96.0059 26.3801C96.0059 27.227 96.6253 27.9136 97.3893 27.9136Z" fill="#F973B7"/>
<path d="M93.9125 34.2393C93.981 34.5947 94.0299 34.9527 94.0642 35.3135C90.6257 35.9808 86.9719 35.1345 84.0645 33.0051C84.6567 32.5521 85.1168 31.8956 85.3713 31.1523C86.9841 33.1543 89.4094 34.4265 92.1235 34.4265C92.7377 34.4265 93.3373 34.3641 93.9125 34.2393Z" fill="#211E5E"/>
<path d="M107.546 28.1433C106.663 29.5484 105.574 30.7935 104.345 31.8352C102.054 33.7774 99.2693 35.0144 96.3937 35.2884C96.2762 34.7187 96.1 34.1626 95.8675 33.6364C95.8626 33.6147 95.8528 33.593 95.843 33.574C97.1793 32.9284 98.3319 31.941 99.2007 30.7257C99.6902 30.0421 100.089 29.288 100.38 28.477C100.405 28.4688 100.427 28.4607 100.451 28.4471C101.166 28.1433 101.81 27.6279 102.289 26.9687C102.877 26.1604 103.222 25.1431 103.261 24.1069C103.285 23.4152 103.126 22.6367 102.598 22.2705C102.081 21.9151 101.369 22.0914 100.902 22.5227C100.437 22.9432 100.158 23.5617 99.9154 24.172C98.7529 22.5607 98.0603 20.5398 97.9648 18.4836L97.9012 18.4321C97.4729 19.1157 96.8538 19.6283 96.215 20.0624C94.4309 21.2722 92.3752 21.9829 90.2876 22.1077C88.6895 22.2053 87.0767 21.9612 85.5618 21.397C85.1678 21.2532 84.7787 21.085 84.4018 20.8924L84.3822 20.9386C83.7141 22.2135 83.3299 23.6729 83.3201 25.2245C82.8771 23.0924 83.0729 20.8409 83.7777 18.7956C84.414 16.9374 85.4664 15.2474 86.8418 13.9752C86.9201 13.9047 86.9984 13.8342 87.0767 13.7663C90.1897 11.0564 94.6243 10.4569 98.3197 12.0303C98.3589 12.0465 98.398 12.0655 98.4347 12.0818C98.7235 12.2093 99.0098 12.3504 99.2913 12.505C100.696 13.2862 101.952 14.4174 102.744 15.912C103.797 17.895 103.946 20.2794 104.377 22.5309C104.803 24.7688 105.691 27.1451 107.546 28.1433Z" fill="#211E5E"/>
<path d="M98.3178 12.0311C98.3569 12.0471 98.3961 12.0653 98.433 12.0813C96.7735 13.7151 94.6468 14.7627 92.4398 15.0161C90.5353 15.2352 88.5794 14.8631 86.8418 13.9755C86.9201 13.9047 86.9982 13.8339 87.0765 13.7655C90.1895 11.0567 94.6243 10.4564 98.3178 12.0311Z" fill="#433C85"/>
<path d="M83.32 25.2235C82.8773 23.0922 83.0728 20.8396 83.7772 18.7951C85.204 19.7627 86.9582 20.0388 88.6361 19.9271C90.9667 19.7697 93.2542 18.9093 95.1873 17.4602C96.8777 16.1937 98.2942 14.4777 99.2905 12.5059C100.697 13.2863 101.95 14.4183 102.745 15.9129C103.797 17.8937 103.946 20.2808 104.376 22.5309C104.802 24.7697 105.691 27.1451 107.546 28.1426C106.663 29.5482 105.574 30.7942 104.345 31.835C102.836 31.0592 101.487 29.893 100.451 28.4485C101.166 28.1428 101.808 27.6293 102.29 26.9699C102.877 26.1621 103.223 25.1443 103.26 24.1083C103.284 23.4169 103.126 22.6386 102.597 22.2713C102.08 21.9154 101.369 22.0934 100.9 22.5223C100.437 22.9443 100.157 23.5628 99.9138 24.1721C98.7526 22.561 98.0587 20.5412 97.964 18.4829L97.9002 18.4327C97.4719 19.1149 96.8542 19.6284 96.2139 20.0622C94.4311 21.2739 92.3741 21.9835 90.2865 22.1091C88.6889 22.2073 87.0769 21.9607 85.5615 21.3971C85.1663 21.2533 84.7791 21.0843 84.4003 20.8928L84.3817 20.9383C83.7155 22.2133 83.3303 23.6716 83.32 25.2235Z" fill="#433C85"/>
<path d="M103.259 24.1055C103.22 25.1417 102.875 26.159 102.288 26.9673C101.808 27.6265 101.164 28.1419 100.45 28.4457C100.425 28.4593 100.403 28.4674 100.379 28.4755C100.087 29.2866 99.6885 30.0407 99.199 30.7243C98.3302 31.9396 97.1775 32.927 95.8413 33.5726C95.8511 33.5916 95.8609 33.6133 95.8658 33.635C96.0983 34.1612 96.2745 34.7173 96.3919 35.287C96.5437 36.0167 96.6049 36.7681 96.5681 37.514C96.5632 37.6361 96.5535 37.7609 96.5412 37.883H96.5339C95.9196 38.8324 94.7963 39.3423 93.7586 39.1416C93.8932 38.6235 93.9862 38.0918 94.045 37.5547C94.089 37.1451 94.1086 36.7355 94.1086 36.3232C94.1086 35.9868 94.0915 35.6477 94.0645 35.3114C94.0303 34.9506 93.9813 34.5925 93.9128 34.2372C93.3377 34.362 92.7381 34.4243 92.1238 34.4243C89.4097 34.4243 86.9844 33.1521 85.3717 31.1502C84.0893 29.566 83.3184 27.5207 83.3184 25.2909V25.2231C83.3281 23.6715 83.7124 22.2121 84.3805 20.9371L84.4001 20.891C84.777 21.0836 85.1661 21.2518 85.5601 21.3956C87.075 21.9598 88.6878 22.2039 90.2859 22.1063C92.3734 21.9815 94.4292 21.2708 96.2133 20.061C96.852 19.6269 97.4712 19.1142 97.8995 18.4307L97.9631 18.4822C98.0586 20.5384 98.7511 22.5593 99.9136 24.1706C100.156 23.5603 100.435 22.9418 100.9 22.5213C101.367 22.09 102.079 21.9137 102.596 22.269C103.125 22.6352 103.284 23.4138 103.259 24.1055Z" fill="#FFBE5F"/>
<path d="M101.974 25.7487C102.186 25.8149 102.248 26.1345 102.176 26.3694C102.052 26.7641 101.655 27.0128 101.278 26.9718C100.903 26.9309 100.572 26.6295 100.42 26.2462C100.269 25.8651 100.288 25.4132 100.426 25.0253C100.566 24.6374 100.817 24.3064 101.111 24.0441C101.336 23.8434 101.605 23.6722 101.889 23.6494C101.412 23.9871 101.066 24.5394 100.947 25.1533C100.918 25.3063 100.901 25.4682 100.942 25.6188C100.983 25.7693 101.091 25.9063 101.231 25.9337C101.486 25.9817 101.725 25.669 101.974 25.7487Z" fill="#F7991E"/>
<path d="M95.8401 33.5739C95.2326 33.8706 94.5863 34.0941 93.913 34.2379C93.3365 34.3635 92.7374 34.4273 92.1238 34.4273C89.4102 34.4273 86.9849 33.1539 85.3709 31.1526C84.0902 29.5665 83.3184 27.5217 83.3184 25.2922C83.3184 25.2694 83.3184 25.2466 83.3184 25.2238C83.3286 23.6719 83.7136 22.2139 84.3807 20.9382L84.3993 20.8926C84.7782 21.0844 85.1651 21.2531 85.5606 21.3969C84.6568 23.9573 84.8915 26.9786 86.1803 29.3291C87.4876 31.7138 89.8471 33.3522 92.3546 33.6102C94.8602 33.8704 97.4543 32.7454 99.1364 30.6686L99.2002 30.7256C98.3312 31.9422 97.1763 32.9283 95.8401 33.5739Z" fill="#F7991E"/>
<path d="M97.3893 27.9146C98.1534 27.9146 98.7728 27.228 98.7728 26.3811C98.7728 25.5342 98.1534 24.8477 97.3893 24.8477C96.6253 24.8477 96.0059 25.5342 96.0059 26.3811C96.0059 27.228 96.6253 27.9146 97.3893 27.9146Z" fill="#F973B7"/>
<path d="M95.04 54.3168C97.3706 52.2378 99.0588 49.3852 99.8989 46.2383C99.8392 46.608 97.8442 58.4495 87.515 59.9281C87.5131 59.926 87.5131 59.9213 87.5109 59.9189V59.9167C87.2431 59.2071 87.6528 58.7392 87.935 58.5157C88.0627 58.4128 88.1636 58.3627 88.1636 58.3627C88.1677 58.2463 88.1738 58.1253 88.178 58.0022C88.1841 57.895 88.1902 57.7854 88.1966 57.6758C90.6794 57.231 93.0575 56.0854 95.04 54.3168Z" fill="#BD9151"/>
<path d="M97.7381 43.2207C97.3593 46.6096 95.7575 49.8729 93.3653 52.0066C91.9613 53.2572 90.2728 54.1336 88.4961 54.5763C88.5578 54.0674 88.6238 53.5564 88.6916 53.0543C88.8091 53.0337 92.8876 52.3514 95.7411 47.906C96.5419 46.662 97.244 45.1214 97.7381 43.2207Z" fill="#BD9151"/>
<path d="M94.0624 35.313C94.0293 34.9525 93.9799 34.5942 93.9121 34.2383C94.5854 34.0945 95.2317 33.871 95.8391 33.5742C95.8494 33.5948 95.8597 33.6152 95.8658 33.6358L95.8452 33.6472C95.6167 34.7493 94.9742 35.7329 94.1076 36.3262C94.1076 35.9885 94.0912 35.6507 94.0624 35.313Z" fill="#D37B11"/>
<path d="M95.5627 28.5551C95.7933 28.9454 95.8449 29.4359 95.7994 29.8992C95.7294 30.6248 95.4308 31.323 94.9656 31.8411C94.7598 32.0717 94.5187 32.2657 94.2593 32.4184C93.9813 31.7543 93.9177 30.9807 94.0885 30.2732C94.2759 29.4974 94.7431 28.8103 95.365 28.395L95.3897 28.3242C95.4555 28.3931 95.5133 28.4707 95.5627 28.5551Z" fill="#8E2965"/>
<path d="M92.8242 29.5001C93.1167 29.1897 93.4089 28.8816 93.7014 28.5734C93.9319 28.3293 94.1791 28.0738 94.4899 28.0005C94.8132 27.9251 95.1507 28.0689 95.3917 28.3247L95.367 28.3955C94.7451 28.8108 94.278 29.4976 94.0905 30.2737C93.9197 30.9812 93.9835 31.7548 94.2613 32.4188C93.938 32.6082 93.5819 32.7338 93.2175 32.7794C92.709 32.8434 92.1635 32.7452 91.7557 32.3982C91.3502 32.0513 91.1194 31.4239 91.2925 30.8876C91.4427 30.4153 91.8505 30.1118 92.2457 29.8698C92.4393 29.751 92.6412 29.6346 92.8242 29.5001Z" fill="#541638"/>
<path d="M95.367 47.7269H90.082C90.082 47.7269 90.6545 46.3326 92.2851 46.4899C93.9177 46.6497 95.367 47.7269 95.367 47.7269Z" fill="#BD9151"/>
<path d="M93.6796 25.1809C94.0561 25.1809 94.3612 24.7333 94.3612 24.1812C94.3612 23.6292 94.0561 23.1816 93.6796 23.1816C93.3032 23.1816 92.998 23.6292 92.998 24.1812C92.998 24.7333 93.3032 25.1809 93.6796 25.1809Z" fill="black"/>
<path d="M90.0219 25.7031C90.2546 26.5817 90.4893 27.4604 90.724 28.3412C89.9685 28.6151 89.1469 28.6675 88.3667 28.4917C88.1651 28.4483 87.9632 28.3846 87.7882 28.2658C87.6132 28.1448 87.4671 27.9576 87.4238 27.7341C87.3557 27.3871 87.5515 27.0334 87.8109 26.8281C88.0704 26.6203 88.3853 26.5245 88.6859 26.4103C89.1531 26.2305 89.6019 25.9931 90.0219 25.7031Z" fill="#D37B11"/>
<path d="M123.649 99.4711L122.886 101.158C122.466 100.439 122.313 99.5305 122.457 98.6885L123.649 99.4711Z" fill="#FFE9CC"/>
<path d="M122.884 101.158L121.13 105.026C120.426 104.599 119.596 104.425 118.801 104.54C118.647 103.056 119.444 101.815 119.444 101.815L120.42 99.8455L121.352 97.9629L122.456 98.6885C122.312 99.5308 122.464 100.439 122.884 101.158Z" fill="#1ED1C8"/>
<path d="M121.625 97.4146L121.354 97.9623L120.421 99.8448L119.445 101.814L115.723 101.205L116.744 100.032L118.029 98.5534L119.956 96.3398C120.505 96.7117 121.061 97.0723 121.625 97.4146Z" fill="#544FC9"/>
<path d="M121.133 105.025L120.217 107.043C119.262 106.246 118.889 105.356 118.805 104.539C119.599 104.425 120.429 104.598 121.133 105.025Z" fill="#FFE9CC"/>
<path d="M119.957 96.3404L118.03 98.5539C101.355 88.684 97.4375 67.2032 97.4375 67.2032C99.6692 65.0626 99.4326 60.4004 99.4326 60.4004C99.9905 60.2499 100.569 60.0719 101.166 59.8709C101.166 59.8709 101.176 59.8617 101.193 59.8457C101.281 60.2884 101.328 60.7493 101.328 61.2194C101.328 62.7574 100.826 64.1816 99.9778 65.3339C102.521 77.9791 109.992 89.5696 119.957 96.3404Z" fill="#211E5E"/>
<path d="M118.028 98.5542L116.743 100.033C111.66 96.4136 107.13 91.635 103.526 86.0576C99.974 80.5716 97.3718 74.3919 95.8975 68.0045C95.4034 68.1163 94.8887 68.1757 94.3596 68.1757C93.6183 68.1757 92.9061 68.0615 92.2371 67.8472C91.8418 67.7194 91.4608 67.5596 91.1005 67.3678C91.0469 67.3404 90.9936 67.3109 90.9419 67.281C90.94 67.281 90.94 67.281 90.94 67.281C90.8536 67.233 90.7669 67.1807 90.6825 67.128C90.5858 67.0686 90.4911 67.0049 90.3964 66.9409C90.3059 66.8768 90.2153 66.8107 90.1267 66.7423C90.0795 66.7057 90.0301 66.6693 89.9826 66.6305C89.8673 66.537 89.754 66.4412 89.6471 66.3408C89.6223 66.3202 89.5976 66.2953 89.5729 66.2725C89.5257 66.2269 89.4782 66.1811 89.431 66.1355C89.3279 66.0327 89.2271 65.9255 89.1304 65.8159C89.0749 65.7544 89.0213 65.6903 88.9699 65.6266C88.9121 65.5582 88.8588 65.4896 88.8052 65.4188C88.7371 65.3298 88.6713 65.2409 88.6074 65.1473C88.558 65.0765 88.5108 65.0035 88.4633 64.9281C88.4119 64.8483 88.3625 64.7662 88.315 64.6815C88.2883 64.6381 88.2636 64.5947 88.2408 64.5491C88.2161 64.5057 88.1914 64.4602 88.1689 64.4168C87.6728 63.4606 87.3906 62.372 87.3906 61.2197C87.3906 60.7748 87.4317 60.341 87.512 59.9189C87.514 59.9211 87.514 59.9257 87.5162 59.9282C87.5162 59.9282 91.393 62.5958 99.4307 60.4004C99.4307 60.4004 99.6674 65.0626 97.4356 67.2032C97.4356 67.2032 101.353 88.6845 118.028 98.5542Z" fill="#433C85"/>
<path d="M95.7473 111.347L96.367 113.252L95.1049 113.837C95.0471 113.346 95.0904 112.839 95.2326 112.369C95.3459 111.997 95.5209 111.65 95.7473 111.347Z" fill="#FFE9CC"/>
<path d="M96.0167 109.726L95.3146 110.014L94.1103 110.507L91.7672 111.468L89.4941 109.549L91.024 109.133L93.4101 108.487L95.4421 107.938C95.6276 108.538 95.819 109.133 96.0167 109.726Z" fill="#544FC9"/>
<path d="M95.3127 110.014L95.7471 111.346C95.5207 111.65 95.3458 111.997 95.2325 112.369C95.0905 112.839 95.0472 113.346 95.1047 113.836L92.5147 115.034H90.145C89.9803 114.055 89.4223 113.156 88.6523 112.638C89.9453 111.666 91.7653 111.467 91.7653 111.467L94.1084 110.507L95.3127 110.014Z" fill="#1ED1C8"/>
<path d="M95.4425 107.937L93.4105 108.487C86.989 88.9347 90.3984 66.9404 90.3984 66.9404C90.4931 67.0044 90.5878 67.0682 90.6845 67.1276C90.7689 67.18 90.8553 67.2326 90.9419 67.2806C90.9419 67.2806 90.9419 67.2806 90.9439 67.2806C90.9953 67.3102 91.0489 67.34 91.1025 67.3674C91.4627 67.5592 91.8438 67.719 92.239 67.8467C90.3881 81.1758 91.5019 95.199 95.4425 107.937Z" fill="#211E5E"/>
<path d="M93.4099 108.488L91.0238 109.134C88.8888 102.13 87.5547 94.8161 87.0481 87.3515C86.5251 79.6359 86.904 71.9294 88.1702 64.417C88.193 64.4604 88.2175 64.506 88.2422 64.5494C88.2649 64.5928 88.2894 64.6383 88.3163 64.6817C88.3636 64.7661 88.413 64.8483 88.4646 64.9283C88.5119 65.0037 88.5594 65.0767 88.6088 65.1475C88.6727 65.2411 88.7385 65.3301 88.8065 65.419C88.8579 65.4898 88.9135 65.5582 88.9712 65.6268C89.0226 65.6908 89.0762 65.7546 89.1318 65.8162C89.2284 65.9258 89.3295 66.0329 89.4323 66.1357C89.5023 66.2065 89.5743 66.2749 89.6484 66.3411C89.7554 66.4414 89.8687 66.5372 89.9839 66.6308C90.1178 66.7404 90.2556 66.8429 90.3978 66.9411C90.3978 66.9411 86.9884 88.9354 93.4099 108.488Z" fill="#433C85"/>
<path d="M90.1453 115.035H87.3906C87.3906 113.939 87.9425 113.173 88.6527 112.639C89.4226 113.157 89.9806 114.056 90.1453 115.035Z" fill="#FFE9CC"/>
<path d="M89.215 38.9707C89.2809 39.1031 89.3467 39.1874 89.3467 39.1874C89.3467 39.1874 87.0778 42.7792 87.0572 44.9998C87.0572 45.0638 87.0572 45.1254 87.0614 45.1845C85.0169 46.8756 82.7688 48.2471 80.3927 49.2603C77.2611 50.5998 73.9095 51.314 70.5227 51.314C70.3249 51.314 70.1274 51.3118 69.9297 51.3072L69.9894 48.3407C77.2636 48.5235 84.4181 45.0272 89.215 38.9707Z" fill="#BD9151"/>
<path d="M87.2441 23.1816C87.621 23.1816 87.9257 23.629 87.9257 24.1812C87.9257 24.7335 87.621 25.1809 87.2441 25.1809C86.8672 25.1809 86.5605 24.7335 86.5605 24.1812C86.5605 23.629 86.8674 23.1816 87.2441 23.1816Z" fill="black"/>
<path d="M83.1026 45.1058C82.8865 44.7567 82.6352 44.4236 82.3552 44.113C81.1837 42.8145 79.6788 42.107 78.147 41.9953C76.8952 41.9017 75.6251 42.203 74.5008 42.8988L71.1161 39.1494L70.657 38.6405L71.1161 38.1316L72.9301 36.121L70.3937 33.3097L68.1206 35.8292L66.9882 34.574L69.2613 32.0545L66.7249 29.2432L65.5637 30.5303L64.4518 31.7627L63.1692 30.341L60.6348 33.1523L65.5637 38.6156L71.1164 44.7703L71.9646 45.7105C71.4108 46.8126 71.1328 48.0382 71.1328 49.2635C71.1328 51.1279 71.773 52.9923 73.0578 54.4164C74.4538 55.9637 76.3211 56.6687 78.1473 56.532C79.5513 56.4292 80.9309 55.8291 82.053 54.7292C82.156 54.6288 82.2568 54.5238 82.3535 54.4142C82.6357 54.1015 82.8868 53.7684 83.1029 53.4192C84.6694 50.9296 84.6694 47.5955 83.1026 45.1058ZM80.1255 51.9474C80.0266 52.057 79.9257 52.1551 79.8146 52.2485C79.3205 52.6819 78.74 52.9399 78.147 53.0267C77.1341 53.1683 76.0737 52.81 75.2976 51.9474C74.0603 50.578 73.9697 48.4193 75.0238 46.9382C75.1082 46.8172 75.1988 46.7033 75.2976 46.5937C76.0759 45.7311 77.1341 45.3706 78.147 45.5165C78.8717 45.6193 79.5719 45.9774 80.1277 46.5937C81.4617 48.0724 81.4595 50.4684 80.1255 51.9474Z" fill="#FFD05A"/>
<path d="M83.1043 45.1057V53.4191C82.8882 53.7682 82.6368 54.1013 82.3549 54.4141C82.2582 54.5237 82.1571 54.6287 82.0544 54.729C80.9323 55.829 79.553 56.429 78.1487 56.5318V53.0266C78.7417 52.9398 79.3222 52.6821 79.8163 52.2483C79.9274 52.1547 80.0285 52.0565 80.1271 51.9472C81.4611 50.4686 81.4633 48.0722 80.1291 46.5936C79.5733 45.9775 78.8731 45.6192 78.1484 45.5164V41.9951C79.6802 42.1069 81.1853 42.8143 82.3566 44.1129C82.6368 44.4232 82.8879 44.7566 83.1043 45.1057Z" fill="#FFE888"/>
<path d="M71.1172 39.1497V44.7703L65.5645 38.6156V30.5303L66.7257 29.2432L69.2621 32.0548L66.9893 34.574L68.1217 35.8292L70.3945 33.3099L71.1172 34.111V38.1319L70.6581 38.6408L71.1172 39.1497Z" fill="#FFE888"/>
<path d="M75.0215 46.9386C75.1059 46.8176 75.1965 46.7037 75.2953 46.5941C76.0736 45.7315 77.1318 45.371 78.1447 45.5169C78.8694 45.6197 79.5696 45.9778 80.1254 46.5941C81.4594 48.0727 81.4574 50.4691 80.1234 51.9477C80.0245 52.0573 79.9237 52.1555 79.8126 52.2488C80.8689 50.7656 80.7783 48.609 79.5429 47.2397C79.1374 46.7902 78.6555 46.4775 78.145 46.3017C77.0968 45.939 75.9214 46.1514 75.0215 46.9386Z" fill="#F7991E"/>
<path d="M82.0517 54.7289C81.9611 54.8407 81.8664 54.9524 81.7695 55.0598C80.7463 56.194 79.4717 56.8762 78.146 57.1046C76.1407 57.4562 74.0181 56.7737 72.4739 55.0623C71.885 54.4096 71.4301 53.6634 71.1151 52.8669C70.3596 50.9865 70.3616 48.8278 71.1151 46.9474C71.1954 46.7467 71.284 46.5503 71.3806 46.3564L60.0508 33.7982L60.6335 33.1523L65.5624 38.6156L71.1151 44.7703L71.9633 45.7105C71.4095 46.8126 71.1315 48.0382 71.1315 49.2635C71.1315 51.1279 71.7717 52.9923 73.0566 54.4164C74.4525 55.9637 76.3198 56.6687 78.146 56.532C79.5503 56.4289 80.9296 55.8289 82.0517 54.7289Z" fill="#F7991E"/>
<path d="M81.8596 52.4308C82.3518 53.1632 82.8437 53.898 83.3359 54.6307C83.3153 54.6261 83.2967 54.6215 83.2761 54.6172L82.7409 57.2894L82.6482 57.2666C81.4911 57.0018 80.367 56.5684 79.313 55.9794C78.9361 55.7673 78.5306 55.4866 78.4317 55.03C78.3822 54.7927 78.4275 54.5325 78.5553 54.334C78.685 54.1378 78.8908 54.0055 79.1111 53.9824C78.8744 53.7792 78.7817 53.3981 78.895 53.0924C79.0061 52.7867 79.3149 52.5835 79.6115 52.6223C79.4263 52.4603 79.3438 52.1704 79.4118 51.9194C79.4799 51.6707 79.694 51.4789 79.9265 51.454C80.1592 51.4312 80.3981 51.5771 80.507 51.8077L80.544 51.7825C80.4926 51.301 80.4409 50.817 80.3876 50.3334C80.3648 50.1256 80.3587 49.8725 80.5131 49.7515C80.5254 49.7423 80.5398 49.7333 80.5542 49.7241C80.647 49.6761 80.7623 49.6853 80.857 49.7333C80.9681 49.7903 81.0547 49.8885 81.1328 49.9889C81.6519 50.6532 81.9194 51.5522 81.8596 52.4308Z" fill="#FFBE5F"/>
<path d="M70.0185 48.1639C69.9696 47.8273 69.9218 47.4936 69.8753 47.1554C69.8367 46.8933 69.8019 46.6256 69.8487 46.3649L69.8935 46.194C69.9715 45.9862 70.1164 45.8096 70.31 45.7578C70.5173 45.7033 70.741 45.8064 70.8917 45.9759C71.043 46.1433 71.1323 46.3671 71.1996 46.593C71.3327 47.0423 71.3924 47.5178 71.3694 47.9903C71.6137 47.9168 71.8653 47.8409 72.1176 47.8677C72.3702 47.8943 72.6281 48.0462 72.7228 48.3072C72.8165 48.563 72.7314 48.8635 72.5747 49.077C72.4186 49.288 72.1988 49.4313 71.9842 49.5712C72.2128 49.4928 72.4524 49.4131 72.6895 49.4489C72.9262 49.4872 73.1628 49.6797 73.1858 49.9437C73.1973 50.0877 73.1464 50.2329 73.0725 50.3517C72.8696 50.6761 72.5189 50.8364 72.1871 50.9815C72.3978 50.971 72.6112 50.9588 72.8104 51.0325C73.0099 51.1063 73.1912 51.281 73.2208 51.5116C73.2593 51.8067 73.0451 52.068 72.8271 52.2451C72.2813 52.6919 71.6032 52.9395 70.923 52.9417C70.6507 52.942 70.3717 52.9021 70.1279 52.7689C69.8834 52.6379 69.6747 52.4043 69.603 52.1127C69.5315 51.8211 69.6196 51.4763 69.8477 51.3098C69.4994 51.3212 69.1737 50.9859 69.1588 50.601C69.1434 50.2182 69.4432 49.8512 69.7897 49.8298C69.4823 49.6285 69.2701 49.2349 69.3191 48.8443C69.3641 48.4688 69.6815 48.1409 70.0185 48.1639Z" fill="#FFBE5F"/>
<path d="M92.1458 61.2416C92.1419 61.0951 92.0071 60.9828 91.8808 60.995C91.7425 61.0083 91.6544 61.1418 91.6583 61.2888C91.6794 62.0554 91.7004 62.8223 91.7212 63.5889C91.7251 63.7354 91.86 63.8477 91.9863 63.8354C92.1245 63.8222 92.2129 63.6887 92.2087 63.5417C92.1877 62.7748 92.1666 62.0082 92.1458 61.2416Z" fill="#211E5E"/>
<path d="M93.4037 61.7927C93.3985 61.764 93.3944 61.7263 93.3814 61.6975C93.3699 61.6723 93.3562 61.6365 93.3376 61.6129C93.3217 61.5928 93.3055 61.5719 93.2879 61.5537C93.2845 61.5502 93.2808 61.547 93.2772 61.5437C93.2671 61.5356 93.2556 61.5282 93.2453 61.5209C93.2353 61.5139 93.2243 61.5052 93.2133 61.4984C93.2094 61.496 93.205 61.4935 93.2008 61.4916C93.1986 61.4905 93.1962 61.4897 93.1939 61.4889C93.1783 61.4829 93.1619 61.4772 93.1457 61.4718C93.1323 61.4596 93.1208 61.4444 93.1041 61.4363C93.0841 61.429 93.064 61.4219 93.0437 61.4146C92.9994 61.4059 92.9563 61.41 92.914 61.4271C92.8954 61.4379 92.8765 61.449 92.8579 61.4599C92.8232 61.4875 92.7965 61.5225 92.7781 61.5654C92.7762 61.57 92.7745 61.5749 92.773 61.5798C92.7659 61.6031 92.7583 61.627 92.7525 61.6508C92.7517 61.6536 92.7512 61.6563 92.7507 61.6593C92.75 61.6641 92.7495 61.669 92.7493 61.6739C92.7478 61.6997 92.7461 61.726 92.7461 61.7518C92.7461 61.7542 92.7461 61.7566 92.7463 61.7591C92.7483 61.7927 92.7566 61.8261 92.7654 61.8581C92.7737 61.8882 92.7928 61.9218 92.8048 61.946C92.8092 61.9549 92.8144 61.9636 92.8202 61.9715C92.8357 61.9926 92.853 62.0122 92.8699 62.0317C92.8733 62.0358 92.877 62.0396 92.8807 62.0431C92.9027 62.0645 92.9296 62.0811 92.9541 62.0973C92.9622 62.1028 92.9708 62.1071 92.9796 62.1104C93.0026 62.1193 93.0263 62.1288 93.0501 62.1351C93.0547 62.1361 93.0593 62.1372 93.064 62.1378C93.0929 62.141 93.1247 62.1456 93.1543 62.1405C93.167 62.1383 93.1802 62.1342 93.192 62.1313C93.2035 62.1285 93.2167 62.1256 93.2287 62.122C93.2309 62.1215 93.2331 62.1207 93.2353 62.1199C93.2365 62.1193 93.2378 62.1188 93.239 62.1182C93.2397 62.118 93.2402 62.1177 93.2409 62.1174C93.2595 62.1066 93.2784 62.0954 93.297 62.0846C93.3046 62.0767 93.3124 62.0689 93.32 62.061C93.3374 62.0472 93.3506 62.0295 93.3599 62.0084C93.3667 61.9964 93.3738 61.988 93.378 61.9764C93.3861 61.9533 93.3951 61.9197 93.399 61.9045C93.4003 61.8999 93.4012 61.8953 93.4017 61.8906C93.4032 61.8771 93.4032 61.86 93.4037 61.8483C93.4042 61.8364 93.4056 61.8198 93.4052 61.806C93.4052 61.8019 93.4044 61.7973 93.4037 61.7927Z" fill="#211E5E"/>
<path d="M119.311 65.8172L127.23 52.3438L131.449 55.5415L123.027 68.1761L119.311 65.8172Z" fill="#5A0000"/>
<path d="M27.7227 41.8566L40.0876 31.1719L43.0993 35.7884L31.7643 45.7271L27.7227 41.8566Z" fill="#5A0000"/>
<path d="M20.7058 109.668L11.6752 114.724L9.4082 109.674L18.6183 103.713L20.7058 109.668Z" fill="#BD9151"/>
<path d="M106.561 65.0844L113.041 72.967L115.586 69.7131L109.466 62.248L106.561 65.0844Z" fill="#BD9151"/>
</svg>
