<svg width="137" height="120" viewBox="0 0 137 120" fill="none" xmlns="http://www.w3.org/2000/svg">
<path d="M14.1582 51.9598C13.0137 27.0648 48.0452 -4.17625 78.2012 1.00103C110.065 6.47133 138.001 75.6597 107.806 98.9641C77.6129 122.27 15.3192 77.2095 14.1582 51.9598Z" fill="#BD9151" fill-opacity="0.25"/>
<path d="M89.9277 102.387C89.9277 102.387 107.723 79.1272 136.48 92.5165C136.48 92.5165 122.909 117.244 92.9151 104.722L89.9277 102.387Z" fill="#5A0000"/>
<path d="M136.48 92.5166L89.9277 102.388L94.3769 104.312C94.3769 104.312 119.724 115.06 136.48 92.5166Z" fill="#F4F4F4"/>
<path d="M41.2035 103.375C41.2035 103.375 10.479 95.7161 0 58.0376C0 58.0376 27.6478 50.9249 48.1653 93.5207L41.2035 103.375Z" fill="#5A0000"/>
<path d="M2.36133 59.8838L43.5725 98.6947L35.822 99.7202C35.822 99.7202 8.8131 90.3989 2.36133 59.8838Z" fill="#F4F4F4"/>
<path d="M97.3633 93.4988C97.3633 93.4988 104.359 69.7031 125.381 72.2025C125.381 72.2025 122.831 96.4553 97.3633 93.4988Z" fill="#5A0000"/>
<path d="M125.381 72.2021L98.3105 91.9309C98.3105 91.9309 118.294 97.8 125.381 72.2021Z" fill="#F0F0F0"/>
<path d="M96.8485 1.46388C94.1894 4.26402 111.444 28.9464 117.789 29.8167C124.134 30.6869 123.595 15.3247 119.384 8.28467C115.173 1.24467 100.286 -2.15582 96.8485 1.46388Z" fill="#BD9151" fill-opacity="0.25"/>
<path d="M68.5271 47.0107C48.3742 47.0107 32.0371 63.3478 32.0371 83.5018C32.0371 103.655 48.3742 119.992 68.5271 119.992C88.6799 119.992 105.018 103.655 105.018 83.5018C105.018 63.3478 88.6799 47.0107 68.5271 47.0107ZM68.5271 106.684C55.7237 106.684 45.3439 96.3051 45.3439 83.5007C45.3439 70.6974 55.7237 60.3175 68.5271 60.3175C81.3304 60.3175 91.7103 70.6974 91.7103 83.5007C91.7103 96.304 81.3304 106.684 68.5271 106.684Z" fill="url(#paint0_linear_2940_23044)"/>
<path d="M32.8784 62.4566C32.8784 62.4566 26.1832 78.6472 34.0538 95.47C34.0538 95.47 46.9716 119.411 68.5268 119.991C90.083 120.57 103.004 95.47 103.004 95.47C103.004 95.47 110.565 76.7261 103.321 60.3174L92.6099 60.5035C92.6099 60.5035 98.5396 109.118 68.5268 106.684C38.515 104.249 41.2248 70.4373 41.2248 70.4373L32.8784 62.4566Z" fill="url(#paint1_linear_2940_23044)"/>
<path d="M68.5254 37.457C47.596 37.457 30.6211 54.4319 30.6211 75.3614C30.6211 96.304 47.596 113.279 68.5254 113.279C89.4681 113.279 106.43 96.304 106.43 75.3614C106.43 54.4319 89.4681 37.457 68.5254 37.457ZM68.5254 100.733C54.5468 100.733 43.1667 89.3532 43.1667 75.3614C43.1667 61.3827 54.5468 50.0026 68.5254 50.0026C82.5173 50.0026 93.8842 61.3827 93.8842 75.3614C93.8842 89.3532 82.5173 100.733 68.5254 100.733Z" fill="url(#paint2_radial_2940_23044)"/>
<path d="M105.356 66.4003C102.898 56.2616 96.3305 47.6981 87.5368 42.5903C81.942 39.3264 75.4396 37.457 68.5274 37.457C47.6233 37.457 30.623 54.4694 30.623 75.3614C30.623 79.4701 31.2763 83.439 32.5045 87.138C35.7563 97.085 43.0144 105.239 52.372 109.643C57.275 111.986 62.7542 113.278 68.5274 113.278C89.4315 113.278 106.432 96.2655 106.432 75.3603C106.431 72.2759 106.059 69.2687 105.356 66.4003ZM68.5263 100.733C66.9257 100.733 65.3516 100.58 63.8282 100.298C53.0495 98.2626 44.6392 89.3786 43.3459 78.3565C43.2314 77.3706 43.1664 76.3726 43.1664 75.3614C43.1664 61.3827 54.5465 50.0026 68.5252 50.0026C71.3804 50.0026 74.1321 50.4763 76.7053 51.3597C86.6897 54.7646 93.884 64.2379 93.884 75.3614C93.884 75.5024 93.8839 75.6301 93.8707 75.7711C93.668 89.5714 82.3772 100.733 68.5263 100.733Z" fill="url(#paint3_radial_2940_23044)"/>
<path d="M68.5248 50.002C54.5461 50.002 43.166 61.3821 43.166 75.3607C43.166 89.3526 54.5461 100.733 68.5248 100.733C82.5167 100.733 93.8836 89.3526 93.8836 75.3607C93.8836 61.3821 82.5167 50.002 68.5248 50.002ZM68.5248 99.4527C55.2247 99.4527 44.446 88.6608 44.446 75.3607C44.446 62.0606 55.2247 51.282 68.5248 51.282C81.8249 51.282 92.6036 62.0606 92.6036 75.3607C92.6036 88.6608 81.8249 99.4527 68.5248 99.4527Z" fill="#5A0000"/>
<path opacity="0.5" d="M63.8267 100.298L52.3695 109.643C43.0119 105.239 35.7537 97.085 32.502 87.138L43.3445 78.3564C44.6377 89.3786 53.0481 98.2626 63.8267 100.298Z" fill="white"/>
<path opacity="0.5" d="M93.8725 75.7716C93.8857 75.6306 93.8857 75.5028 93.8857 75.3618C93.8857 64.2373 86.6915 54.765 76.707 51.3601L87.5375 42.5918C96.3322 47.6997 102.899 56.2631 105.356 66.4018L93.8725 75.7716Z" fill="white"/>
<path d="M56.1543 111.2C56.1543 111.2 74.0049 116.489 93.8857 103.542C93.8857 103.542 80.7905 118.364 56.1543 111.2Z" fill="#BD9151"/>
<path opacity="0.5" d="M52.3695 109.642L54.3743 117.144C54.3743 117.144 39.5177 112.409 33.0208 93.0431L32.502 87.1377C32.502 87.1377 36.7429 102.141 52.3695 109.642Z" fill="white"/>
<path d="M119.312 59.3792L127.232 47.2236L131.45 50.1086L123.029 61.5074L119.312 59.3792Z" fill="#5A0000"/>
<path d="M27.7246 37.7627L40.0895 28.123L43.1011 32.288L31.7662 41.2546L27.7246 37.7627Z" fill="#5A0000"/>
<path d="M20.7057 98.9406L11.6752 103.502L9.4082 98.9461L18.6183 93.5684L20.7057 98.9406Z" fill="#BD9151"/>
<path d="M81.0078 28.5267L87.4882 35.6383L90.0328 32.7027L83.9137 25.9678L81.0078 28.5267Z" fill="#BD9151"/>
<path d="M41.5039 69.59L49.7413 55.3569L67.6084 69.5757C67.6084 69.5757 87.8704 48.9272 103.933 43.708L108.415 62.0301C108.415 62.0301 88.1545 66.9551 69.1649 90.2011L41.5039 69.59Z" fill="url(#paint4_linear_2940_23044)"/>
<path d="M41.5039 76.1553L49.7413 61.9222L67.6084 76.1421C67.6084 76.1421 87.8704 55.4936 103.933 50.2744L108.415 68.5965C108.415 68.5965 88.1545 73.5215 69.1649 96.7675L41.5039 76.1553Z" fill="url(#paint5_linear_2940_23044)"/>
<path d="M103.932 43.708V50.2732L108.414 68.5953V60.3194L103.932 43.708Z" fill="#5A0000"/>
<path d="M49.7413 55.3574V61.9227L41.5039 76.1558V69.5905L49.7413 55.3574Z" fill="#5A0000"/>
<path d="M103.933 43.7051V50.2725C99.1928 51.9535 94.2611 54.7217 89.6214 57.8258C77.6641 65.8385 67.6113 76.138 67.6113 76.138V69.5816C73.5509 63.62 78.9859 58.9682 83.749 55.3606C88.3326 51.8973 92.2772 49.399 95.4376 47.6277C100.84 44.6128 103.933 43.7051 103.933 43.7051Z" fill="white"/>
<path d="M97.3537 53.0917L89.6209 57.8251L87.084 52.943C92.2767 49.3982 92.2767 49.3982 95.437 47.627L97.3537 53.0917Z" fill="white"/>
<defs>
<linearGradient id="paint0_linear_2940_23044" x1="32.0368" y1="83.5008" x2="105.018" y2="83.5008" gradientUnits="userSpaceOnUse">
<stop stop-color="#BD9151"/>
<stop offset="1" stop-color="white"/>
</linearGradient>
<linearGradient id="paint1_linear_2940_23044" x1="30.2227" y1="90.1594" x2="106.46" y2="90.1594" gradientUnits="userSpaceOnUse">
<stop stop-color="#EFBC73"/>
<stop offset="1" stop-color="#9F978B"/>
</linearGradient>
<radialGradient id="paint2_radial_2940_23044" cx="0" cy="0" r="1" gradientUnits="userSpaceOnUse" gradientTransform="translate(84.5268 41.4446) scale(37.9076 37.9076)">
<stop stop-color="#39AEF7"/>
<stop offset="1" stop-color="#6840D5"/>
</radialGradient>
<radialGradient id="paint3_radial_2940_23044" cx="0" cy="0" r="1" gradientUnits="userSpaceOnUse" gradientTransform="translate(71.3089 44.1332) scale(54.0957 54.0957)">
<stop stop-color="#BD9151"/>
<stop offset="1" stop-color="#5A0000"/>
</radialGradient>
<linearGradient id="paint4_linear_2940_23044" x1="74.9596" y1="90.202" x2="74.9596" y2="43.7082" gradientUnits="userSpaceOnUse">
<stop stop-color="#5A0000"/>
<stop offset="1" stop-color="#F7BEBE"/>
</linearGradient>
<linearGradient id="paint5_linear_2940_23044" x1="74.9596" y1="96.7674" x2="74.9596" y2="50.2735" gradientUnits="userSpaceOnUse">
<stop stop-color="#5A0000"/>
<stop offset="1" stop-color="#DE8F8F"/>
</linearGradient>
</defs>
</svg>
