<svg width="137" height="120" viewBox="0 0 137 120" fill="none" xmlns="http://www.w3.org/2000/svg">
<path d="M14.1582 55.946C13.0137 29.1411 48.0455 -4.49662 78.2018 1.07784C110.066 6.9678 138.002 81.464 107.807 106.556C77.6135 131.65 15.3192 83.1328 14.1582 55.946Z" fill="#BD9151" fill-opacity="0.25"/>
<path d="M89.9258 110.245C89.9258 110.245 107.722 85.1999 136.479 99.6165C136.479 99.6165 122.908 126.241 92.9132 112.758L89.9258 110.245Z" fill="#5A0000"/>
<path d="M136.479 99.6172L89.9258 110.245L94.375 112.317C94.375 112.317 119.722 123.89 136.479 99.6172Z" fill="#F4F4F4"/>
<path d="M41.2039 111.306C41.2039 111.306 10.4791 103.059 0 62.4898C0 62.4898 27.6481 54.8314 48.1657 100.695L41.2039 111.306Z" fill="#5A0000"/>
<path d="M2.36133 64.4766L43.5729 106.265L35.8223 107.369C35.8223 107.369 8.81317 97.3327 2.36133 64.4766Z" fill="#F4F4F4"/>
<path d="M97.3633 100.671C97.3633 100.671 104.359 75.0499 125.381 77.741C125.381 77.741 122.831 103.854 97.3633 100.671Z" fill="#5A0000"/>
<path d="M125.381 77.7412L98.3105 98.9835C98.3105 98.9835 118.294 105.303 125.381 77.7412Z" fill="#F0F0F0"/>
<path d="M96.8485 1.57618C94.1894 4.59114 111.444 31.1671 117.789 32.1041C124.134 33.0411 123.596 16.5003 119.384 8.92025C115.173 1.34016 100.287 -2.3212 96.8485 1.57618Z" fill="#BD9151" fill-opacity="0.25"/>
<path d="M44.0284 33.6852C43.7075 47.4151 42.6665 94.7746 43.1635 111.557C43.2161 113.335 44.5601 114.762 46.2366 114.821C54.5285 115.108 78.382 115.838 91.9447 115.234C94.7696 115.109 97.0161 112.682 97.0747 109.684C97.3566 95.2729 97.9784 54.7395 96.5004 36.1711C96.3233 33.9464 94.6767 32.1747 92.5819 31.9524C83.5516 30.9944 59.5674 28.6526 47.85 29.459C45.7368 29.6045 44.0809 31.4401 44.0284 33.6852Z" fill="url(#paint0_linear_2940_23081)"/>
<path d="M47.3966 37.9516C46.9437 49.1963 45.5152 86.6047 45.9686 100.437C46.0349 102.459 47.5375 104.094 49.4419 104.212C57.2829 104.699 77.3944 105.772 88.8953 104.795C90.9662 104.619 92.5913 102.843 92.703 100.643C93.2859 89.1713 94.9593 54.3389 94.5247 40.6611C94.4553 38.4791 92.8615 36.6971 90.8111 36.5019C82.3284 35.6942 60.5419 33.7724 50.7688 34.3378C48.9342 34.444 47.475 36.0049 47.3966 37.9516Z" fill="#FFEAEA"/>
<path opacity="0.5" d="M64.5215 31.8576C64.5215 32.2789 64.8311 32.6263 65.2278 32.6484C67.1863 32.7571 72.7034 33.0649 75.169 33.2166C75.6552 33.2465 76.0368 32.7831 75.9446 32.276L75.9288 32.1895C75.8659 31.8435 75.5953 31.583 75.2644 31.5509C73.5978 31.3889 68.5687 30.9399 65.2366 31.066C64.8363 31.0811 64.5215 31.4329 64.5215 31.8576Z" fill="#5A0000"/>
<path opacity="0.47" d="M71.4754 68.5432C77.6685 68.5432 82.6891 63.1375 82.6891 56.4693C82.6891 49.8011 77.6685 44.3955 71.4754 44.3955C65.2823 44.3955 60.2617 49.8011 60.2617 56.4693C60.2617 63.1375 65.2823 68.5432 71.4754 68.5432Z" fill="#5A0000"/>
<path opacity="0.47" d="M88.0436 77.3208H55.8168C55.5912 77.3208 55.4082 77.1238 55.4082 76.8809V72.7124C55.4082 72.4695 55.5912 72.2725 55.8168 72.2725H88.0436C88.2692 72.2725 88.4522 72.4695 88.4522 72.7124V76.8809C88.4522 77.1238 88.2692 77.3208 88.0436 77.3208Z" fill="#5A0000"/>
<path opacity="0.47" d="M88.0436 83.1294H55.8168C55.5912 83.1294 55.4082 82.9324 55.4082 82.6894V78.521C55.4082 78.278 55.5912 78.0811 55.8168 78.0811H88.0436C88.2692 78.0811 88.4522 78.278 88.4522 78.521V82.6894C88.4522 82.9324 88.2692 83.1294 88.0436 83.1294Z" fill="#5A0000"/>
<path opacity="0.47" d="M88.0436 88.938H55.8168C55.5912 88.938 55.4082 88.741 55.4082 88.498V84.3296C55.4082 84.0866 55.5912 83.8896 55.8168 83.8896H88.0436C88.2692 83.8896 88.4522 84.0866 88.4522 84.3296V88.498C88.4522 88.741 88.2692 88.938 88.0436 88.938Z" fill="#5A0000"/>
<path opacity="0.47" d="M88.0436 94.7456H55.8168C55.5912 94.7456 55.4082 94.5486 55.4082 94.3057V90.1373C55.4082 89.8943 55.5912 89.6973 55.8168 89.6973H88.0436C88.2692 89.6973 88.4522 89.8943 88.4522 90.1373V94.3057C88.4522 94.5486 88.2692 94.7456 88.0436 94.7456Z" fill="#5A0000"/>
<path d="M54.0962 52.8327C59.1296 52.8327 63.21 48.4394 63.21 43.0199C63.21 37.6004 59.1296 33.207 54.0962 33.207C49.0628 33.207 44.9824 37.6004 44.9824 43.0199C44.9824 48.4394 49.0628 52.8327 54.0962 52.8327Z" fill="white"/>
<path d="M47.4896 48.5508L45.5098 54.06L50.3998 51.6142L47.4896 48.5508Z" fill="white"/>
<path d="M52.3984 47.9223C52.3984 47.7139 52.4348 47.5201 52.5073 47.3406C52.5799 47.1612 52.6793 47.005 52.8057 46.8717C52.932 46.7386 53.0811 46.633 53.2533 46.5548C53.4253 46.4765 53.6134 46.4375 53.8178 46.4375C54.0166 46.4375 54.2021 46.4765 54.3741 46.5548C54.5462 46.633 54.6967 46.7385 54.8257 46.8717C54.9548 47.005 55.0556 47.1612 55.1282 47.3406C55.2007 47.5201 55.237 47.7139 55.237 47.9223C55.237 48.1306 55.2007 48.3261 55.1282 48.5084C55.0556 48.6907 54.9548 48.8486 54.8257 48.9815C54.6967 49.1149 54.5462 49.219 54.3741 49.2942C54.2021 49.3695 54.0166 49.407 53.8178 49.407C53.6134 49.407 53.4253 49.3695 53.2533 49.2942C53.0811 49.219 52.932 49.1149 52.8057 48.9815C52.6793 48.8486 52.5799 48.6907 52.5073 48.5084C52.4348 48.3261 52.3984 48.1306 52.3984 47.9223ZM55.0112 36.6348V41.6012C55.0112 42.1339 54.9816 42.6622 54.9225 43.186C54.8632 43.7098 54.7854 44.2438 54.6886 44.7879H52.9952C52.8984 44.2437 52.8205 43.7098 52.7613 43.186C52.7021 42.6622 52.6726 42.1339 52.6726 41.6012V36.6348H55.0112Z" fill="#E81313"/>
<path d="M81.6924 34.5252C81.8727 34.3434 82.1165 34.253 82.3627 34.2768C84.9952 34.5317 89.907 33.1664 93.1171 29.6299C93.34 29.3843 93.7463 29.5231 94.0018 29.7287C97.5719 32.6016 103.49 33.1966 105.544 33.3182C105.969 33.3434 106.314 33.6983 106.358 34.1542C108.226 53.5824 96.4775 60.6225 94.0409 61.8652C93.7745 62.001 93.461 61.9813 93.2107 61.8135C81.0667 53.6689 81.5862 43.0771 81.4182 35.2291C81.4126 34.9632 81.5121 34.7071 81.6924 34.5252Z" fill="#BD9151"/>
<path d="M93.7129 60.4542C93.6587 60.4542 93.6044 60.4379 93.5572 60.4054C88.9015 57.2009 85.867 53.3699 84.2805 48.6935C82.8635 44.5169 82.7942 40.264 82.733 36.5118L82.7247 36.0115C82.7232 35.928 82.7524 35.8493 82.8066 35.7897C82.8613 35.7298 82.9348 35.6967 83.0133 35.6967H83.0134C85.8966 35.6967 90.2243 34.3259 93.3984 31.2636C93.4958 31.1695 93.6401 31.1582 93.7494 31.2363C97.237 33.7279 102.212 34.4534 104.867 34.6641C105.008 34.6753 105.12 34.7939 105.132 34.9461C105.749 42.5267 104.285 48.9369 100.779 53.9988C98.1614 57.7792 95.0571 59.7489 93.8439 60.4203C93.8029 60.443 93.7579 60.4542 93.7129 60.4542ZM93.79 60.3071C94.9958 59.6397 98.0816 57.6818 100.685 53.9227C104.172 48.8866 105.629 42.5057 105.014 34.9572C105.007 34.8675 104.941 34.7976 104.858 34.7909C102.192 34.5793 97.1941 33.85 93.6841 31.3423C93.6197 31.2963 93.5347 31.3029 93.4773 31.3584C90.2799 34.4432 85.9192 35.8239 83.0158 35.8239H83.0158C82.9667 35.8239 82.9233 35.8435 82.891 35.879C82.8591 35.9138 82.842 35.9601 82.8429 36.0091L82.8512 36.5094C82.9122 40.2517 82.9814 44.4933 84.3915 48.6499C85.9688 53.299 88.9877 57.1092 93.6209 60.2981C93.6717 60.3331 93.7365 60.3366 93.79 60.3071Z" fill="white"/>
<path d="M85.2812 44.5215C85.2812 44.5215 89.0617 49.2803 93.725 49.2803C98.3883 49.2803 102.169 44.5215 102.169 44.5215C102.169 44.5215 98.3883 39.7627 93.725 39.7627C89.0617 39.7627 85.2812 44.5215 85.2812 44.5215Z" fill="white"/>
<path d="M93.563 48.4872C95.5837 48.4872 97.2218 46.7234 97.2218 44.5478C97.2218 42.3721 95.5837 40.6084 93.563 40.6084C91.5424 40.6084 89.9043 42.3721 89.9043 44.5478C89.9043 46.7234 91.5424 48.4872 93.563 48.4872Z" fill="url(#paint1_linear_2940_23081)"/>
<path d="M95.8101 43.8306C96.1595 43.4544 96.1595 42.8444 95.8101 42.4682C95.4607 42.092 94.8942 42.092 94.5448 42.4682C94.1954 42.8444 94.1954 43.4544 94.5448 43.8306C94.8942 44.2068 95.4607 44.2068 95.8101 43.8306Z" fill="white"/>
<path d="M96.3049 47.9897L91.4071 40.5967C91.1935 40.7186 90.2406 41.4554 90.0371 41.5791L94.9036 48.9248C95.1257 48.8244 96.09 48.1041 96.3049 47.9897Z" fill="white"/>
<path d="M97.3834 51.4791C97.3038 51.4791 97.2253 51.4391 97.1756 51.364L88.7584 38.6586C88.6766 38.5352 88.7032 38.3637 88.8178 38.2757C88.9323 38.1876 89.0918 38.2163 89.1735 38.3397L97.5907 51.0451C97.6725 51.1686 97.6459 51.34 97.5312 51.428C97.4863 51.4626 97.4347 51.4791 97.3834 51.4791Z" fill="url(#paint2_linear_2940_23081)"/>
<path d="M32.1266 78.8105C31.4742 79.5602 30.5138 80.2081 29.8379 80.612C30.8473 81.9554 32.2131 83.3006 34.0211 84.6174L34.5386 85.8677L36.1966 83.7281C36.1966 83.7281 33.2216 82.134 32.1266 78.8105Z" fill="url(#paint3_linear_2940_23081)"/>
<path d="M40.9985 119.39C40.999 119.352 40.9966 119.313 40.9875 119.274C40.4505 116.982 37.7851 115.554 37.7851 115.554L36.7289 115.643C36.1216 117.663 36.1996 118.902 36.2972 119.454C36.2999 119.47 36.3042 119.485 36.3081 119.5C37.1793 119.583 38.9726 119.638 40.9985 119.39Z" fill="url(#paint4_linear_2940_23081)"/>
<path d="M36.3066 119.5C36.3537 119.685 36.4801 119.828 36.6418 119.865C37.8812 120.145 39.8511 119.92 40.6782 119.803C40.8606 119.777 40.994 119.596 40.9971 119.391C38.9712 119.639 37.1779 119.584 36.3066 119.5Z" fill="url(#paint5_linear_2940_23081)"/>
<path d="M36.3047 113.949L36.752 116.268C36.7848 116.438 36.9061 116.565 37.0529 116.58C37.2327 116.598 37.4886 116.609 37.7459 116.568C37.9767 116.531 38.1374 116.279 38.0965 116.008L37.7856 113.949L36.3047 113.949Z" fill="url(#paint6_linear_2940_23081)"/>
<path d="M45.5742 119.478C44.4077 119.442 43.8043 119.294 43.4925 119.157C43.4917 119.282 43.4924 119.409 43.4961 119.541C43.5002 119.682 43.5969 119.794 43.7159 119.793L50.1207 119.749C50.3251 119.747 50.4446 119.492 50.356 119.29C49.5162 119.365 47.3774 119.532 45.5742 119.478Z" fill="url(#paint7_linear_2940_23081)"/>
<path d="M50.3557 119.289C50.348 119.271 50.3413 119.254 50.3303 119.237C49.7647 118.386 48.3241 116.691 45.4774 115.957L44.1117 115.91C44.1117 115.91 43.5037 117.048 43.4922 119.156C43.8041 119.293 44.4074 119.441 45.5739 119.477C47.3771 119.531 49.5159 119.364 50.3557 119.289Z" fill="url(#paint8_linear_2940_23081)"/>
<path d="M43.8574 113.682C43.8726 113.791 44.0598 115.457 44.1322 116.103C44.1494 116.257 44.2527 116.375 44.3829 116.392C44.6154 116.422 44.9917 116.449 45.3209 116.377C45.4985 116.337 45.6271 116.154 45.6271 115.94V113.325L43.8574 113.682Z" fill="url(#paint9_linear_2940_23081)"/>
<path d="M42.7614 83.2812C42.7614 83.2812 46.0553 96.7592 45.9957 113.72C45.9946 114.029 45.793 114.296 45.512 114.36C45.0978 114.454 44.489 114.565 43.9851 114.55C43.716 114.542 43.4911 114.327 43.4459 114.041C42.984 111.125 40.3336 94.6968 38.8235 92.0297C38.8235 92.0297 37.83 106.662 38.1475 114.253C38.1554 114.441 38.027 114.605 37.8527 114.627C37.5883 114.66 37.1653 114.685 36.6269 114.623C36.4225 114.6 36.2577 114.433 36.2284 114.214C35.8995 111.746 34.006 97.0556 34.0865 86.4729C34.091 85.8761 35.5523 83.2813 35.5523 83.2813L42.7614 83.2812Z" fill="url(#paint10_linear_2940_23081)"/>
<path d="M47.343 66.9701C46.8084 66.2486 46.3401 65.4752 45.9484 64.6784C45.4012 63.5654 45.9043 65.3988 45.7548 64.142C41.6576 60.9586 35.4881 62.5699 33.1016 62.8936C32.3191 62.9997 31.6035 63.4151 31.0878 64.0576C29.0428 66.6057 24.5554 73.5819 29.8372 80.6114C30.5131 80.2075 31.4736 79.5596 32.1259 78.81C31.5415 77.0364 31.4937 74.7698 32.7183 71.9905C32.7602 72.2108 32.8119 72.4289 32.8748 72.6435C34.5627 78.4011 34.6527 83.1922 34.649 84.2965C34.6484 84.4464 34.7321 84.5814 34.8613 84.6372C37.0828 85.5957 41.359 85.0252 42.7945 84.7949C43.0577 84.7527 43.2347 84.4888 43.1984 84.205C42.4938 78.7095 46.1095 69.6692 47.0644 67.4049C47.1331 67.242 47.2281 67.0954 47.343 66.9701Z" fill="#F0F0F0"/>
<path d="M36.9418 58.2652L36.5137 62.9749C36.5137 62.9749 38.9744 63.7729 40.7642 62.4132L39.506 58.1328L36.9418 58.2652Z" fill="url(#paint11_linear_2940_23081)"/>
<path d="M39.797 52.8975C39.8562 52.9575 42.2965 58.1172 42.2965 58.1172L39.5306 59.5548L36.543 55.0345C36.543 55.0345 38.8055 51.8926 39.797 52.8975Z" fill="url(#paint12_linear_2940_23081)"/>
<path d="M37.7666 55.1595C37.7172 55.2969 37.7294 55.4503 37.7998 55.5767L39.1792 58.0526C39.2001 58.0901 39.2251 58.1241 39.2548 58.154C39.4191 58.3185 39.9809 58.7972 40.4153 58.1455C40.7855 57.5901 41.1328 57.0851 41.505 56.8768C41.7223 56.7552 41.9898 56.8523 42.1001 57.0878C42.3274 57.5728 42.7677 58.5615 43.0442 59.499C43.1135 59.734 43.0009 59.9863 42.7887 60.0788C42.2286 60.3232 41.1217 60.765 40.1395 60.9109C39.9782 60.9349 39.8184 60.8616 39.7224 60.72C39.2998 60.0967 38.1088 58.3548 37.7023 57.9187C37.3246 57.5136 36.6276 57.6664 36.3135 57.7636C36.1943 57.8005 36.0674 57.7827 35.9611 57.7138C35.6424 57.5071 35.0863 56.9925 35.5951 56.1212C35.7215 55.9046 35.6571 55.616 35.4585 55.4754C35.1027 55.2234 34.7167 54.7504 35.0845 53.9844C35.4568 53.209 36.1218 53.1394 36.5746 53.199C36.775 53.2254 36.9784 53.1122 37.0553 52.9113C37.0895 52.8219 37.1571 52.7457 37.2829 52.7182C37.5203 52.6663 37.6761 52.4326 37.6295 52.1767C37.5496 51.738 37.6098 51.1679 38.2604 50.7828C39.4538 50.0763 40.4991 51.2274 40.7649 52.1991C41.0307 53.1709 39.6965 53.8576 38.8572 53.9722C38.2406 54.0564 37.9026 54.7808 37.7666 55.1595Z" fill="url(#paint13_linear_2940_23081)"/>
<path d="M38.2206 58.8279C38.2206 58.8279 37.6899 57.1561 37.0107 57.2175C36.3314 57.2789 35.7968 58.0074 36.6386 58.8264C37.6857 59.8453 38.2206 58.8279 38.2206 58.8279Z" fill="url(#paint14_linear_2940_23081)"/>
<path d="M32.4945 71.559C31.5992 68.9208 31.9239 65.735 31.9273 65.7031L32.1741 65.7335C32.1708 65.7648 31.8529 68.8894 32.7279 71.4672L32.4945 71.559Z" fill="url(#paint15_linear_2940_23081)"/>
<path d="M38.7023 91.6863C38.6472 91.6863 38.5967 91.6464 38.5823 91.5861C38.3091 90.4518 36.2638 89.2052 36.2431 89.1928C36.1834 89.1567 36.162 89.0752 36.1956 89.0108C36.2292 88.9464 36.3045 88.9233 36.3647 88.9595C36.4526 89.0126 38.5231 90.2746 38.8227 91.519C38.8399 91.5905 38.8 91.6635 38.7337 91.682C38.7232 91.6849 38.7127 91.6863 38.7023 91.6863Z" fill="url(#paint16_linear_2940_23081)"/>
<path d="M55.6593 68.4511C51.0253 69.1998 48.005 66.0516 45.7544 64.1418C42.783 61.6205 40.4707 62.8472 40.4707 62.8472L43.6396 69.3589C48.3718 74.163 53.2238 73.0961 56.2827 71.5393C56.3298 70.2816 56.0176 69.229 55.6593 68.4511Z" fill="#F4F4F4"/>
<path d="M62.1731 65.4746L60.6364 66.365C58.7934 67.5732 57.1442 68.2116 55.6602 68.4513C56.0185 69.2292 56.3306 70.2818 56.2836 71.5395C58.2308 70.5485 59.4515 69.3591 59.4515 69.3591C62.9327 67.124 62.1731 65.4746 62.1731 65.4746Z" fill="#F4F4F4"/>
<path d="M66.6993 67.8051C66.6001 67.45 66.3563 67.1627 66.0367 67.0244L62.918 65.674C62.918 65.674 62.8709 65.2433 63.5769 64.9507C64.283 64.658 64.1179 63.8066 64.1179 63.8066C64.1179 63.8066 63.1534 64.2804 61.7412 65.0318C60.9336 65.4615 60.4805 66.2202 60.2402 66.7913L61.0431 67.9281C62.9652 68.5499 64.9102 68.6688 66.8718 68.4221L66.6993 67.8051Z" fill="url(#paint17_linear_2940_23081)"/>
<path fill-rule="evenodd" clip-rule="evenodd" d="M101.723 86.7953C101.723 86.7953 102.326 93.4026 100.883 97.8269H99.9699C99.9699 97.8269 100.189 89.5079 99.3854 87.372C98.5818 85.2361 101.723 86.7953 101.723 86.7953Z" fill="url(#paint18_linear_2940_23081)"/>
<path fill-rule="evenodd" clip-rule="evenodd" d="M100.549 97.0479L100.882 97.8275C100.882 97.8275 101.265 99.0359 101.21 99.8545C101.155 100.673 100.078 100.849 99.7125 100.829C99.3472 100.81 99.3289 100.42 99.7125 99.7765C99.7125 99.7765 99.4394 98.5681 100.124 97.3987L100.549 97.0479Z" fill="url(#paint19_linear_2940_23081)"/>
<path d="M92.931 81.1039C94.5606 81.1039 95.8816 79.0981 95.8816 76.6237C95.8816 74.1494 94.5606 72.1436 92.931 72.1436C91.3015 72.1436 89.9805 74.1494 89.9805 76.6237C89.9805 79.0981 91.3015 81.1039 92.931 81.1039Z" fill="url(#paint20_linear_2940_23081)"/>
<path d="M83.082 76.0594C83.0033 76.2037 83.4843 76.57 83.9311 76.0101C84.0063 75.708 84.4555 74.4444 84.3371 74.1544C83.7068 72.6101 82.2936 70.5225 82.2936 70.5225C81.9295 70.7635 82.1099 71.1314 82.1099 71.1314L82.7647 72.2904C82.513 72.5917 82.2335 72.8296 82.0432 73.2219C81.8992 73.5189 81.8753 73.8681 81.9643 74.192C82.0535 74.5172 82.1792 74.9422 82.3109 75.2829C82.5603 75.9278 83.082 76.0594 83.082 76.0594Z" fill="url(#paint21_linear_2940_23081)"/>
<path d="M83.8119 75.1943C83.8119 75.1943 86.2746 81.1587 91.1812 82.3562C91.1812 82.3562 90.7909 84.8731 89.9359 85.2585C89.9359 85.2585 85.3532 86.2212 82.4805 75.5988L83.8119 75.1943Z" fill="url(#paint22_linear_2940_23081)"/>
<path fill-rule="evenodd" clip-rule="evenodd" d="M95.2287 117.441C95.2287 117.441 95.4359 118.451 95.421 119.197C95.4186 119.314 95.3521 119.412 95.2633 119.428C94.7417 119.523 92.9613 119.803 91.9837 119.432C91.9049 119.402 91.8511 119.306 91.8536 119.199C91.8628 118.798 92.0797 117.856 93.8663 117.613L95.2287 117.441Z" fill="url(#paint23_linear_2940_23081)"/>
<path fill-rule="evenodd" clip-rule="evenodd" d="M99.9045 117.441C99.9045 117.441 100.112 118.451 100.097 119.197C100.094 119.314 100.028 119.412 99.9391 119.428C99.4175 119.523 97.6371 119.803 96.6594 119.432C96.5807 119.402 96.5269 119.306 96.5294 119.199C96.5386 118.798 96.7555 117.856 98.542 117.613L99.9045 117.441Z" fill="url(#paint24_linear_2940_23081)"/>
<path fill-rule="evenodd" clip-rule="evenodd" d="M98.9186 92.7539C98.9186 92.7539 92.0572 93.0586 90.4824 93.7032C90.4824 93.7032 92.2491 112.508 93.3281 117.819C93.3794 118.072 95.2609 118.038 95.2827 117.746C94.9766 112.025 94.8202 106.465 94.8815 101.139C94.8705 100.968 94.9784 100.82 95.1224 100.81L95.2998 100.779C95.4499 100.768 95.5787 100.91 95.5812 101.088C96.0641 106.57 96.9048 112.174 98.0411 117.881C98.0091 118.323 100.035 118.302 99.979 117.875C99.5741 114.79 99.203 96.7984 98.9186 92.7539Z" fill="url(#paint25_linear_2940_23081)"/>
<path fill-rule="evenodd" clip-rule="evenodd" d="M95.1601 81.6392C91.4787 81.8049 88.8919 80.8823 88.0489 79.8633C87.8501 79.965 86.6324 81.2761 85.375 82.9169C87.1378 84.6798 87.6333 85.0172 88.7048 85.7381C89.0428 86.1695 89.9916 86.45 89.9784 87.0323L90.8639 97.6082C90.8588 97.8333 94.7213 100.052 99.4312 97.6152L99.2246 87.2512C99.2246 86.6003 99.5355 86.0083 100.027 85.6923C100.686 85.2689 100.254 81.4101 95.1601 81.6392Z" fill="#F4F4F4"/>
<path fill-rule="evenodd" clip-rule="evenodd" d="M90.682 76.7207C90.682 76.7207 90.937 75.953 90.2871 75.8162C89.6371 75.6793 90.2572 77.7178 90.2572 77.7178L90.682 76.7207Z" fill="url(#paint26_linear_2940_23081)"/>
<path fill-rule="evenodd" clip-rule="evenodd" d="M95.8788 78.8037L96.1356 81.8122C96.1356 81.8122 94.6474 82.74 93.3672 81.9289L93.5946 79.3012L95.8788 78.8037Z" fill="url(#paint27_linear_2940_23081)"/>
<path fill-rule="evenodd" clip-rule="evenodd" d="M89.6144 77.1727C89.2649 76.3499 89.0601 75.2949 89.3873 74.5172C89.5198 74.2025 89.8362 73.9626 89.8372 73.6177C89.8379 73.3638 89.6619 73.15 89.6032 72.904C89.5105 72.516 89.7336 72.1029 90.0474 71.8831C90.3611 71.6633 90.7462 71.598 91.1198 71.5594C91.2936 71.5414 91.4745 71.5259 91.6252 71.4319C91.8007 71.3225 91.9075 71.1247 92.0425 70.9626C92.5727 70.326 93.6362 70.3342 94.1576 70.9789C94.4265 71.3113 94.5724 71.7811 94.9391 71.9803C95.1406 72.0897 95.3753 72.0959 95.597 72.1438C96.1072 72.2541 96.5516 72.5894 96.9251 72.9764C97.4839 73.5554 97.9304 74.159 98.0751 74.9908C98.1519 75.4319 98.1521 75.8837 98.152 76.3324C98.1518 77.3611 97.9018 78.5183 97.3254 79.3718C96.4008 80.741 94.5062 81.4868 92.9969 80.9047C91.92 80.4893 91.1529 79.4871 90.442 78.5292C90.2446 78.2633 90.0468 77.9967 89.88 77.708C89.7868 77.5468 89.6966 77.3662 89.6144 77.1727Z" fill="url(#paint28_linear_2940_23081)"/>
<path fill-rule="evenodd" clip-rule="evenodd" d="M102.148 88.3781C101.986 89.2575 100.685 89.6469 99.303 88.798L98.5833 86.417C97.5972 85.3551 97.4856 83.5128 97.0332 81.7529C100.82 81.9195 101.865 84.7604 102.148 88.3781Z" fill="#F0F0F0"/>
<path d="M119.312 63.9348L127.232 50.8467L131.451 53.953L123.029 66.2263L119.312 63.9348Z" fill="#5A0000"/>
<path d="M27.7246 40.6595L40.0896 30.2803L43.1013 34.7648L31.7662 44.4193L27.7246 40.6595Z" fill="#5A0000"/>
<path d="M20.7058 106.531L11.6752 111.443L9.4082 106.537L18.6183 100.747L20.7058 106.531Z" fill="#BD9151"/>
<path d="M85.4395 18.7767L91.9199 26.4339L94.4645 23.273L88.3454 16.0215L85.4395 18.7767Z" fill="#BD9151"/>
<defs>
<linearGradient id="paint0_linear_2940_23081" x1="74.127" y1="-4.74864" x2="67.5092" y2="117.298" gradientUnits="userSpaceOnUse">
<stop stop-color="#09005D"/>
<stop offset="1" stop-color="#1A0F91"/>
</linearGradient>
<linearGradient id="paint1_linear_2940_23081" x1="98.9796" y1="22.8859" x2="106.091" y2="-1.64738" gradientUnits="userSpaceOnUse">
<stop stop-color="#09005D"/>
<stop offset="1" stop-color="#1A0F91"/>
</linearGradient>
<linearGradient id="paint2_linear_2940_23081" x1="88.711" y1="44.8519" x2="97.6381" y2="44.8519" gradientUnits="userSpaceOnUse">
<stop stop-color="#2B3582"/>
<stop offset="1" stop-color="#150E42"/>
</linearGradient>
<linearGradient id="paint3_linear_2940_23081" x1="29.8379" y1="82.3391" x2="36.1966" y2="82.3391" gradientUnits="userSpaceOnUse">
<stop stop-color="#FEBBBA"/>
<stop offset="1" stop-color="#FF928E"/>
</linearGradient>
<linearGradient id="paint4_linear_2940_23081" x1="36.2305" y1="117.562" x2="40.9985" y2="117.562" gradientUnits="userSpaceOnUse">
<stop stop-color="#09005D"/>
<stop offset="1" stop-color="#1A0F91"/>
</linearGradient>
<linearGradient id="paint5_linear_2940_23081" x1="48.1656" y1="111.506" x2="29.86" y2="124.856" gradientUnits="userSpaceOnUse">
<stop stop-color="#4F52FF"/>
<stop offset="1" stop-color="#4042E2"/>
</linearGradient>
<linearGradient id="paint6_linear_2940_23081" x1="37.5569" y1="111.718" x2="36.5032" y2="120.258" gradientUnits="userSpaceOnUse">
<stop stop-color="#FEBBBA"/>
<stop offset="1" stop-color="#FF928E"/>
</linearGradient>
<linearGradient id="paint7_linear_2940_23081" x1="51.25" y1="115.732" x2="32.9444" y2="129.082" gradientUnits="userSpaceOnUse">
<stop stop-color="#4F52FF"/>
<stop offset="1" stop-color="#4042E2"/>
</linearGradient>
<linearGradient id="paint8_linear_2940_23081" x1="43.4921" y1="117.699" x2="50.3557" y2="117.699" gradientUnits="userSpaceOnUse">
<stop stop-color="#09005D"/>
<stop offset="1" stop-color="#1A0F91"/>
</linearGradient>
<linearGradient id="paint9_linear_2940_23081" x1="44.9755" y1="112.633" x2="43.9219" y2="121.174" gradientUnits="userSpaceOnUse">
<stop stop-color="#FEBBBA"/>
<stop offset="1" stop-color="#FF928E"/>
</linearGradient>
<linearGradient id="paint10_linear_2940_23081" x1="55.7968" y1="73.4965" x2="23.5344" y2="119.992" gradientUnits="userSpaceOnUse">
<stop stop-color="#4F52FF"/>
<stop offset="1" stop-color="#4042E2"/>
</linearGradient>
<linearGradient id="paint11_linear_2940_23081" x1="39.5695" y1="57.0052" x2="35.5704" y2="73.0559" gradientUnits="userSpaceOnUse">
<stop stop-color="#FEBBBA"/>
<stop offset="1" stop-color="#FF928E"/>
</linearGradient>
<linearGradient id="paint12_linear_2940_23081" x1="38.9931" y1="53.873" x2="40.9714" y2="64.6846" gradientUnits="userSpaceOnUse">
<stop stop-color="#FEBBBA"/>
<stop offset="1" stop-color="#FF928E"/>
</linearGradient>
<linearGradient id="paint13_linear_2940_23081" x1="44.3853" y1="61.4102" x2="34.0309" y2="51.5932" gradientUnits="userSpaceOnUse">
<stop stop-color="#4F52FF"/>
<stop offset="1" stop-color="#4042E2"/>
</linearGradient>
<linearGradient id="paint14_linear_2940_23081" x1="37.506" y1="65.7266" x2="37.1526" y2="58.1027" gradientUnits="userSpaceOnUse">
<stop stop-color="#FEBBBA"/>
<stop offset="1" stop-color="#FF928E"/>
</linearGradient>
<linearGradient id="paint15_linear_2940_23081" x1="58.6657" y1="0.643037" x2="47.5786" y2="25.3136" gradientUnits="userSpaceOnUse">
<stop stop-color="#FF928E"/>
<stop offset="1" stop-color="#FE7062"/>
</linearGradient>
<linearGradient id="paint16_linear_2940_23081" x1="39.4599" y1="86.5649" x2="36.7325" y2="91.073" gradientUnits="userSpaceOnUse">
<stop stop-color="#09005D"/>
<stop offset="1" stop-color="#1A0F91"/>
</linearGradient>
<linearGradient id="paint17_linear_2940_23081" x1="69.7284" y1="59.0064" x2="46.4632" y2="86.6516" gradientUnits="userSpaceOnUse">
<stop stop-color="#FEBBBA"/>
<stop offset="1" stop-color="#FF928E"/>
</linearGradient>
<linearGradient id="paint18_linear_2940_23081" x1="99.359" y1="101.113" x2="101.035" y2="86.9112" gradientUnits="userSpaceOnUse">
<stop stop-color="#FEBBBA"/>
<stop offset="1" stop-color="#FF928E"/>
</linearGradient>
<linearGradient id="paint19_linear_2940_23081" x1="100.216" y1="101.215" x2="101.892" y2="87.0102" gradientUnits="userSpaceOnUse">
<stop stop-color="#FEBBBA"/>
<stop offset="1" stop-color="#FF928E"/>
</linearGradient>
<linearGradient id="paint20_linear_2940_23081" x1="91.8185" y1="78.9126" x2="95.6474" y2="72.1173" gradientUnits="userSpaceOnUse">
<stop stop-color="#FEBBBA"/>
<stop offset="1" stop-color="#FF928E"/>
</linearGradient>
<linearGradient id="paint21_linear_2940_23081" x1="84.1729" y1="79.8641" x2="87.379" y2="95.2501" gradientUnits="userSpaceOnUse">
<stop stop-color="#FEBBBA"/>
<stop offset="1" stop-color="#FF928E"/>
</linearGradient>
<linearGradient id="paint22_linear_2940_23081" x1="85.5431" y1="78.3066" x2="92.8509" y2="87.6884" gradientUnits="userSpaceOnUse">
<stop stop-color="#FEBBBA"/>
<stop offset="1" stop-color="#FF928E"/>
</linearGradient>
<linearGradient id="paint23_linear_2940_23081" x1="93.0985" y1="113.078" x2="93.9111" y2="120.842" gradientUnits="userSpaceOnUse">
<stop stop-color="#09005D"/>
<stop offset="1" stop-color="#1A0F91"/>
</linearGradient>
<linearGradient id="paint24_linear_2940_23081" x1="98.8233" y1="111.118" x2="98.1553" y2="120.237" gradientUnits="userSpaceOnUse">
<stop stop-color="#09005D"/>
<stop offset="1" stop-color="#1A0F91"/>
</linearGradient>
<linearGradient id="paint25_linear_2940_23081" x1="94.7743" y1="117.61" x2="96.6921" y2="74.8603" gradientUnits="userSpaceOnUse">
<stop stop-color="#4F52FF"/>
<stop offset="1" stop-color="#4042E2"/>
</linearGradient>
<linearGradient id="paint26_linear_2940_23081" x1="88.6789" y1="79.9336" x2="93.9351" y2="70.3664" gradientUnits="userSpaceOnUse">
<stop stop-color="#FEBBBA"/>
<stop offset="1" stop-color="#FF928E"/>
</linearGradient>
<linearGradient id="paint27_linear_2940_23081" x1="99.1356" y1="79.8898" x2="88.2581" y2="81.4721" gradientUnits="userSpaceOnUse">
<stop stop-color="#FEBBBA"/>
<stop offset="1" stop-color="#FF928E"/>
</linearGradient>
<linearGradient id="paint28_linear_2940_23081" x1="91.6566" y1="77.3615" x2="98.2726" y2="72.7848" gradientUnits="userSpaceOnUse">
<stop stop-color="#09005D"/>
<stop offset="1" stop-color="#1A0F91"/>
</linearGradient>
</defs>
</svg>
