<svg width="25" height="24" viewBox="0 0 25 24" fill="none" xmlns="http://www.w3.org/2000/svg">
<path d="M21.6499 10.4635C21.7763 9.61556 21.7349 8.74751 21.5256 7.91286C21.2491 6.81026 20.6797 5.76606 19.8175 4.90381C18.9552 4.04156 17.911 3.4722 16.8085 3.19573C15.9738 2.98644 15.1057 2.94499 14.2578 3.07138" stroke="#2F88FF" stroke-width="2" stroke-linecap="round" stroke-linejoin="round"/>
<path d="M17.8551 10.0619C17.9905 9.15358 17.7086 8.19508 17.0094 7.49588C16.3101 6.79668 15.3517 6.51473 14.4434 6.65013" stroke="#2F88FF" stroke-width="2" stroke-linecap="round" stroke-linejoin="round"/>
<path d="M7.94716 4.55762C8.31041 4.55762 8.64511 4.75465 8.82146 5.07225L10.0447 7.27565C10.2048 7.56415 10.2124 7.9131 10.0648 8.20825L8.88636 10.565C8.88636 10.565 9.22786 12.3208 10.6571 13.75C12.0863 15.1792 13.8361 15.5148 13.8361 15.5148L16.1926 14.3366C16.4879 14.1889 16.8371 14.1965 17.1257 14.357L19.3354 15.5855C19.6527 15.7619 19.8495 16.0964 19.8495 16.4595V18.9962C19.8495 20.2881 18.6495 21.2211 17.4255 20.8081C14.9115 19.9598 11.0092 18.3447 8.53576 15.8713C6.06231 13.3979 4.4472 9.49555 3.59895 6.9816C3.18593 5.75755 4.11898 4.55762 5.4108 4.55762H7.94716Z" fill="#2F88FF" stroke="#2F88FF" stroke-width="2" stroke-linejoin="round"/>
</svg>
