<svg width="24" height="25" viewBox="0 0 24 25" fill="none" xmlns="http://www.w3.org/2000/svg">
<path d="M17.1527 15.6295H16.0686L15.6844 15.259C17.0756 13.6453 17.8403 11.5852 17.8388 9.45454C17.8388 7.69045 17.3157 5.96598 16.3356 4.4992C15.3555 3.03241 13.9625 1.88919 12.3327 1.21411C10.7029 0.539021 8.90949 0.362387 7.1793 0.706544C5.44911 1.0507 3.85983 1.90019 2.61243 3.14759C1.36503 4.39498 0.515544 5.98427 0.171387 7.71446C-0.172769 9.44465 0.00386465 11.238 0.678951 12.8678C1.35404 14.4976 2.49726 15.8907 3.96404 16.8707C5.43083 17.8508 7.1553 18.3739 8.91938 18.3739C11.1286 18.3739 13.1595 17.5643 14.7238 16.2195L15.0943 16.6038V17.6878L21.9554 24.5352L24 22.4906L17.1527 15.6295ZM8.91938 15.6295C5.50258 15.6295 2.74443 12.8714 2.74443 9.45454C2.74443 6.03773 5.50258 3.27959 8.91938 3.27959C12.3362 3.27959 15.0943 6.03773 15.0943 9.45454C15.0943 12.8714 12.3362 15.6295 8.91938 15.6295Z" fill="#006CD0"/>
</svg>
