<svg width="84" height="84" viewBox="0 0 84 84" fill="none" xmlns="http://www.w3.org/2000/svg">
<path d="M65.7615 27.6594C65.9605 27.6757 66.1351 27.6851 66.2816 27.6904V36.3014C61.7628 36.2082 57.3738 34.7477 53.6963 32.1067L52.9039 31.5377V32.5132V52.0821C52.9039 61.6063 45.1941 69.315 35.7022 69.315C26.8411 69.315 18.5005 62.1443 18.5005 52.0821C18.5005 41.8878 27.378 33.8662 37.6284 34.979V43.7134C32.2142 42.4662 27.144 46.6206 27.144 52.0821C27.144 56.841 31.0416 60.6714 35.7333 60.6714H35.7334C37.9519 60.6711 40.0838 59.8099 41.6801 58.2691C43.2764 56.7283 44.2124 54.6282 44.2912 52.411L44.2915 52.4021V52.3932V14.3159H52.9128C53.0268 17.4851 54.229 20.5245 56.3251 22.9178C58.5214 25.4526 61.1374 26.6463 63.1977 27.2056C64.2279 27.4853 65.1222 27.6073 65.7615 27.6594Z" fill="#3E3E3E" stroke="#191919" stroke-width="1.00092"/>
</svg>
