<svg width="84" height="84" viewBox="0 0 84 84" fill="none" xmlns="http://www.w3.org/2000/svg">
<path d="M33.2842 53.6104V54.7255L34.2497 54.1674L55.0096 42.1674L55.9733 41.6104L55.0096 41.0533L34.2497 29.0533L33.2842 28.4952V29.6104V53.6104ZM80.6458 29.9385L80.6465 29.9464C80.9251 33.1305 81.0441 35.8716 81.0441 38.2504V38.2733L81.0457 38.2962L81.2841 41.6332C81.2829 50.3626 80.6432 56.7262 79.5471 60.7595C78.6073 64.1413 76.4574 66.2909 73.0753 67.2304C71.2751 67.7282 67.9055 68.0872 62.6183 68.3275L62.613 68.3278C57.4242 68.6072 52.6758 68.7269 48.2876 68.7269H48.2755L48.2633 68.7274L41.9154 68.9669C33.5477 68.9668 26.7652 68.8069 21.5646 68.508C16.347 68.2081 12.7677 67.7704 10.7785 67.23C7.39679 66.2902 5.24717 64.1402 4.3077 60.7581C3.80433 58.938 3.44821 56.4667 3.20943 53.2822L3.20873 53.2743C2.93012 50.0902 2.81118 47.3491 2.81118 44.9704V44.9474L2.80954 44.9245L2.57118 41.5874C2.5723 32.8579 3.21207 26.4941 4.30817 22.4609C5.24798 19.0794 7.39777 16.9299 10.7795 15.9904C12.5796 15.4926 15.9493 15.1335 21.2369 14.8931L21.2369 14.8932L21.2423 14.8929C26.431 14.6135 31.1794 14.4938 35.5676 14.4938H35.5798L35.5919 14.4933L41.9398 14.2538C50.3074 14.254 57.09 14.4138 62.2906 14.7127C67.5084 15.0126 71.0878 15.4504 73.0769 15.9908C76.4583 16.9305 78.6078 19.0803 79.5473 22.4619C80.0508 24.2821 80.407 26.7537 80.6458 29.9385Z" fill="#FF3F3F" stroke="#191919" stroke-width="1.28689"/>
</svg>
