<svg width="84" height="84" viewBox="0 0 84 84" fill="none" xmlns="http://www.w3.org/2000/svg">
<mask id="mask0_3188_4539" style="mask-type:alpha" maskUnits="userSpaceOnUse" x="14" y="13" width="56" height="57">
<path d="M69.9987 44.7794V41.1115L69.9959 39.0228C70.0028 36.9805 69.9813 34.9382 69.9315 32.8966L69.9987 44.7794ZM69.9987 44.7794C70.0056 46.8226 69.9842 48.8658 69.9343 50.9084L69.9987 44.7794ZM39.1247 69.9001H42.7897L44.8784 69.8973C46.9216 69.9042 48.9647 69.8827 51.0073 69.8329L39.1247 69.9001ZM39.1247 69.9001C37.0816 69.907 35.0384 69.8855 32.9958 69.8357L39.1247 69.9001ZM44.8783 14.1863L44.8795 14.1863C46.9195 14.1785 48.9595 14.199 50.9989 14.2478C50.9994 14.2478 51 14.2478 51.0006 14.2478L51.5403 14.2673L51.5404 14.2673C52.147 14.289 52.7458 14.3159 53.4633 14.3482L53.5308 14.3512C53.5309 14.3512 53.5309 14.3512 53.531 14.3512C56.4836 14.49 58.4859 14.9552 60.2375 15.6344L60.2381 15.6347C62.051 16.3324 63.5739 17.2744 65.1015 18.8021L65.1033 18.8038C66.4975 20.174 67.5765 21.8314 68.2654 23.6609L68.2664 23.6635C68.9456 25.4151 69.4108 27.4202 69.5496 30.3731C69.5832 31.1175 69.6111 31.7374 69.6334 32.3626C69.6334 32.3629 69.6334 32.3631 69.6334 32.3634L69.6501 32.9034C69.6501 32.9038 69.6502 32.9042 69.6502 32.9046C69.6998 34.9433 69.7213 36.9825 69.7145 39.0218V39.0231L69.7173 41.1115V41.1119V44.7794L69.7173 44.7803C69.7241 46.8205 69.7027 48.8608 69.653 50.9004C69.653 50.9008 69.6529 50.9011 69.6529 50.9015L69.6362 51.4415C69.6362 51.4418 69.6362 51.442 69.6362 51.4423C69.6146 52.0486 69.5876 52.6471 69.5554 53.3642L69.5524 53.4319C69.4136 56.3841 68.9429 58.3867 68.2662 60.139L68.2652 60.1416C67.5787 61.9728 66.4995 63.6314 65.1035 65.0009L65.1034 65.0009L65.0999 65.0045C63.7285 66.3986 62.0702 67.4776 60.24 68.1667L60.2375 68.1677C58.4858 68.8469 56.4835 69.3122 53.5308 69.4509L53.4644 69.4539C52.7467 69.4862 52.1479 69.5131 51.5413 69.5348C51.541 69.5348 51.5407 69.5348 51.5404 69.5348L51.0005 69.5515C51.0001 69.5515 50.9997 69.5515 50.9993 69.5515C48.9597 69.6012 46.9196 69.6227 44.8794 69.6158H44.8781L42.7897 69.6186H42.7894H39.1247L39.1238 69.6186C37.0836 69.6255 35.0434 69.6041 33.0038 69.5543C33.0034 69.5543 33.0031 69.5543 33.0027 69.5543L32.4629 69.5376C32.4624 69.5376 32.462 69.5376 32.4615 69.5376C31.7984 69.5135 31.1355 69.4856 30.4727 69.4537L30.4724 69.4537C27.5202 69.315 25.5176 68.8443 23.7624 68.1675L23.7601 68.1666C21.9301 67.4793 20.2726 66.4001 18.9035 65.0047L18.9035 65.0047L18.8998 65.001C17.504 63.6305 16.424 61.9721 15.735 60.1413L15.734 60.1387C15.0548 58.387 14.5895 56.3847 14.4508 53.4319C14.4197 52.7689 14.3917 52.1059 14.367 51.4427C14.3669 51.4421 14.3669 51.4416 14.3669 51.441L14.353 50.9012C14.353 50.9012 14.353 50.9012 14.353 50.9012C14.353 50.9012 14.353 50.9011 14.353 50.9011C14.3015 48.8612 14.2782 46.8206 14.2831 44.78V44.7794L14.2831 39.0228L14.2831 39.0217C14.2753 36.9826 14.2958 34.9435 14.3446 32.905C14.3446 32.9044 14.3446 32.9039 14.3446 32.9033L14.3641 32.3635L14.3641 32.3634C14.3865 31.7379 14.4144 31.1177 14.448 30.3728C14.5868 27.4174 15.052 25.4179 15.7312 23.6633L15.7313 23.6633L15.7322 23.6609C16.4215 21.8308 17.5035 20.174 18.9021 18.8072L18.9022 18.8072L18.9065 18.8028C20.2746 17.4063 21.9312 16.3253 23.7605 15.6353L23.7605 15.6354L23.7627 15.6345C25.5172 14.9552 27.5166 14.49 30.4717 14.3512C30.4719 14.3512 30.4721 14.3512 30.4724 14.3512L32.4622 14.2674L33.003 14.2534C33.003 14.2534 33.003 14.2534 33.003 14.2534C33.003 14.2534 33.0031 14.2534 33.0031 14.2534C35.0421 14.2019 37.0816 14.1786 39.1212 14.1835L39.1218 14.1835L44.8783 14.1863ZM36.2626 36.1606C37.6881 34.7351 39.5892 33.8945 41.5929 33.7932L42.0054 33.7856C43.0837 33.7657 44.1553 33.9609 45.1573 34.3598C46.1594 34.7587 47.0719 35.3533 47.8417 36.1089C48.6114 36.8644 49.2228 37.7658 49.6403 38.7603C50.0577 39.7548 50.2728 40.8225 50.273 41.9011C50.2732 42.9797 50.0584 44.0475 49.6413 45.0421C49.2242 46.0367 48.613 46.9383 47.8436 47.6941C47.0741 48.4499 46.1618 49.0448 45.1598 49.444C44.1579 49.8433 43.0864 50.0388 42.0081 50.0193V50.0193H42.003C39.8499 50.0193 37.7851 49.164 36.2626 47.6415C34.7402 46.1191 33.8849 44.0541 33.8849 41.9011C33.8849 39.748 34.7402 37.6831 36.2626 36.1606ZM56.6882 30.9799L56.6882 30.9801H56.6994C57.7023 30.9801 58.6641 30.5817 59.3732 29.8726C60.0824 29.1634 60.4807 28.2016 60.4807 27.1988C60.4807 26.1959 60.0824 25.2341 59.3732 24.5249C58.6641 23.8158 57.7023 23.4174 56.6994 23.4174H56.4179V23.4437C55.543 23.5418 54.7265 23.9428 54.1127 24.5817C53.436 25.286 53.0581 26.2249 53.0581 27.2016C53.0581 28.1783 53.436 29.1171 54.1127 29.8214C54.7893 30.5257 55.7123 30.9408 56.6882 30.9799ZM42.0022 27.6228C40.1107 27.5963 38.2327 27.9459 36.4774 28.6513C34.7215 29.3569 33.1234 30.4045 31.7758 31.7331C30.4283 33.0617 29.3582 34.645 28.6279 36.3907C27.8975 38.1365 27.5214 40.0101 27.5214 41.9025C27.5214 43.7949 27.8975 45.6684 28.6279 47.4142C29.3582 49.16 30.4283 50.7432 31.7758 52.0718C33.1234 53.4005 34.7215 54.448 36.4774 55.1536C38.2327 55.859 40.1105 56.2085 42.002 56.1821C45.7888 56.1816 49.4205 54.677 52.0982 51.9993C54.7764 49.321 56.281 45.6886 56.281 41.9011C56.281 38.1135 54.7764 34.4811 52.0982 31.8029C49.4204 29.125 45.7888 27.6234 42.0022 27.6228Z" fill="#7E7E7E" stroke="#191919" stroke-width="0.562987"/>
</mask>
<g mask="url(#mask0_3188_4539)">
<path d="M42.0091 14C30.3194 14 26.9006 14.0121 26.236 14.0672C23.8371 14.2667 22.3443 14.6445 20.7181 15.4544C19.4648 16.0769 18.4763 16.7985 17.5008 17.81C15.7242 19.6548 14.6475 21.9242 14.2577 24.6219C14.0682 25.9316 14.0131 26.1987 14.0019 32.8882C13.9976 35.1181 14.0019 38.0527 14.0019 41.989C14.0019 53.6725 14.0148 57.0888 14.0708 57.7522C14.2646 60.0872 14.6307 61.5562 15.406 63.1631C16.8875 66.2391 19.7171 68.5482 23.0507 69.4098C24.2049 69.7071 25.4798 69.8708 27.1164 69.9483C27.8098 69.9785 34.8774 70 41.9493 70C49.0212 70 56.0931 69.9914 56.7693 69.9569C58.6643 69.8677 59.7647 69.72 60.9814 69.4055C62.6343 68.9815 64.1747 68.2017 65.4951 67.1205C66.8155 66.0394 67.8841 64.6829 68.6261 63.1459C69.3863 61.5777 69.7717 60.0527 69.9462 57.8396C69.9841 57.3571 70 49.6642 70 41.9817C70 34.2978 69.9828 26.6192 69.9449 26.1367C69.7683 23.8879 69.3828 22.3757 68.5981 20.7774C67.9542 19.4691 67.2393 18.492 66.2013 17.493C64.3494 15.7232 62.084 14.6462 59.384 14.2568C58.076 14.0676 57.8154 14.0116 51.1225 14H42.0091Z" fill="url(#paint0_radial_3188_4539)"/>
<path d="M42.0091 14C30.3194 14 26.9006 14.0121 26.236 14.0672C23.8371 14.2667 22.3443 14.6445 20.7181 15.4544C19.4648 16.0769 18.4763 16.7985 17.5008 17.81C15.7242 19.6548 14.6475 21.9242 14.2577 24.6219C14.0682 25.9316 14.0131 26.1987 14.0019 32.8882C13.9976 35.1181 14.0019 38.0527 14.0019 41.989C14.0019 53.6725 14.0148 57.0888 14.0708 57.7522C14.2646 60.0872 14.6307 61.5562 15.406 63.1631C16.8875 66.2391 19.7171 68.5482 23.0507 69.4098C24.2049 69.7071 25.4798 69.8708 27.1164 69.9483C27.8098 69.9785 34.8774 70 41.9493 70C49.0212 70 56.0931 69.9914 56.7693 69.9569C58.6643 69.8677 59.7647 69.72 60.9814 69.4055C62.6343 68.9815 64.1747 68.2017 65.4951 67.1205C66.8155 66.0394 67.8841 64.6829 68.6261 63.1459C69.3863 61.5777 69.7717 60.0527 69.9462 57.8396C69.9841 57.3571 70 49.6642 70 41.9817C70 34.2978 69.9828 26.6192 69.9449 26.1367C69.7683 23.8879 69.3828 22.3757 68.5981 20.7774C67.9542 19.4691 67.2393 18.492 66.2013 17.493C64.3494 15.7232 62.084 14.6462 59.384 14.2568C58.076 14.0676 57.8154 14.0116 51.1225 14H42.0091Z" fill="url(#paint1_radial_3188_4539)"/>
</g>
<defs>
<radialGradient id="paint0_radial_3188_4539" cx="0" cy="0" r="1" gradientUnits="userSpaceOnUse" gradientTransform="translate(28.8751 74.3132) rotate(-90) scale(55.5001 51.6195)">
<stop stop-color="#FFDD55"/>
<stop offset="0.1" stop-color="#FFDD55"/>
<stop offset="0.5" stop-color="#FF543E"/>
<stop offset="1" stop-color="#C837AB"/>
</radialGradient>
<radialGradient id="paint1_radial_3188_4539" cx="0" cy="0" r="1" gradientUnits="userSpaceOnUse" gradientTransform="translate(4.6197 18.0341) rotate(78.6806) scale(24.8088 102.263)">
<stop stop-color="#3771C8"/>
<stop offset="0.128" stop-color="#3771C8"/>
<stop offset="1" stop-color="#6600FF" stop-opacity="0"/>
</radialGradient>
</defs>
</svg>
