<svg width="84" height="84" viewBox="0 0 84 84" fill="none" xmlns="http://www.w3.org/2000/svg">
<mask id="path-1-inside-1_3200_3142" fill="white">
<path d="M70.0039 42.1715C70.0039 26.6124 57.4685 14 42.0074 14C26.5393 14.0035 14.0039 26.6124 14.0039 42.175C14.0039 56.2327 24.2436 67.8863 37.626 70V50.315H30.5218V42.175H37.633V35.9633C37.633 28.9046 41.8149 25.0061 48.2086 25.0061C51.2742 25.0061 54.4763 25.5556 54.4763 25.5556V32.4847H50.9453C47.4702 32.4847 46.3854 34.6579 46.3854 36.8871V42.1715H54.1474L52.9085 50.3115H46.3819V69.9965C59.7642 67.8828 70.0039 56.2292 70.0039 42.1715Z"/>
</mask>
<path d="M70.0039 42.1715C70.0039 26.6124 57.4685 14 42.0074 14C26.5393 14.0035 14.0039 26.6124 14.0039 42.175C14.0039 56.2327 24.2436 67.8863 37.626 70V50.315H30.5218V42.175H37.633V35.9633C37.633 28.9046 41.8149 25.0061 48.2086 25.0061C51.2742 25.0061 54.4763 25.5556 54.4763 25.5556V32.4847H50.9453C47.4702 32.4847 46.3854 34.6579 46.3854 36.8871V42.1715H54.1474L52.9085 50.3115H46.3819V69.9965C59.7642 67.8828 70.0039 56.2292 70.0039 42.1715Z" fill="#2B6EF0" stroke="#191919" stroke-width="1.50138" mask="url(#path-1-inside-1_3200_3142)"/>
</svg>
