<svg width="84" height="84" viewBox="0 0 84 84" fill="none" xmlns="http://www.w3.org/2000/svg">
<path d="M55.9642 21.4923H62.597L45.5124 39.7712L45.1616 40.1465L45.4845 40.5461L65.8991 65.8105H50.8208L38.0016 50.1212L37.574 49.5977L37.1124 50.0915L22.4167 65.8105H15.7838L34.1222 46.1899L34.4748 45.8125L34.1481 45.4125L14.609 21.4923H30.0931L41.6633 35.8117L42.0906 36.3405L42.5547 35.8438L55.9642 21.4923ZM52.3612 62.1553L52.5385 62.3723H52.8187H57.3877H58.6248L57.8473 61.41L28.3548 24.9073L28.1774 24.6878H27.8952H22.9922H21.7463L22.5346 25.6526L52.3612 62.1553Z" fill="#191919" stroke="#191919" stroke-width="1.18182"/>
</svg>
