<svg width="16" height="17" viewBox="0 0 16 17" fill="none" xmlns="http://www.w3.org/2000/svg">
<path d="M14.6717 12.4158C14.7476 12.4749 14.8102 12.5494 14.8551 12.6344C14.9 12.7195 14.9263 12.8131 14.9323 12.9091C14.9382 13.0051 14.9237 13.1013 14.8896 13.1912C14.8556 13.2812 14.8028 13.3629 14.7347 13.4308L13.6997 14.4648C13.2157 14.9478 12.5307 15.1258 11.9297 14.9148C9.4426 14.0381 7.1843 12.6137 5.3217 10.7468C3.45486 8.88425 2.03044 6.62595 1.15371 4.13884C0.942705 3.53784 1.12071 2.85284 1.60371 2.36884L2.6377 1.33484C2.70568 1.26679 2.78735 1.21397 2.8773 1.17991C2.96725 1.14584 3.06342 1.1313 3.15942 1.13726C3.25542 1.14322 3.34906 1.16954 3.43411 1.21447C3.51916 1.25939 3.59367 1.3219 3.65271 1.39784L5.4467 3.70484C5.5095 3.78604 5.55309 3.8804 5.57422 3.98085C5.59535 4.0813 5.59346 4.18523 5.56871 4.28484L5.02171 6.47484C4.94914 6.76719 4.95326 7.07331 5.03367 7.3636C5.11408 7.65388 5.26806 7.9185 5.48071 8.13184L7.93771 10.5878C8.15094 10.8007 8.41551 10.9548 8.7058 11.0354C8.9961 11.116 9.30227 11.1203 9.5947 11.0478L11.7847 10.4998C11.8843 10.4751 11.9882 10.4732 12.0887 10.4943C12.1891 10.5155 12.2835 10.559 12.3647 10.6218L14.6717 12.4158ZM15.4887 14.1858C15.6638 14.0108 15.7996 13.8006 15.8871 13.5691C15.9747 13.3376 16.012 13.0901 15.9966 12.8431C15.9812 12.596 15.9134 12.3551 15.7977 12.1363C15.6821 11.9174 15.5212 11.7257 15.3257 11.5738L13.0197 9.77984C12.5967 9.45084 12.0457 9.33484 11.5257 9.46484L9.3357 10.0118C9.22227 10.0399 9.1035 10.0383 8.99087 10.0071C8.87825 9.97594 8.77555 9.91626 8.6927 9.83384L6.23571 7.37684C6.15312 7.29389 6.09334 7.19103 6.06215 7.07821C6.03097 6.96539 6.02944 6.84643 6.0577 6.73284L6.6047 4.54384C6.66849 4.2872 6.67329 4.01944 6.61873 3.76068C6.56417 3.50191 6.45168 3.25888 6.28971 3.04984L4.49571 0.743841C3.85071 -0.0851593 2.62571 -0.16116 1.88471 0.580841L0.850705 1.61484C0.110705 2.35484 -0.214294 3.46084 0.148705 4.49184C1.07612 7.13117 2.58695 9.5273 4.56871 11.5018C6.54296 13.4835 8.93874 14.9943 11.5777 15.9218C12.6077 16.2838 13.7147 15.9588 14.4547 15.2188L15.4887 14.1858Z" fill="black"/>
</svg>
