<svg width="15" height="17" viewBox="0 0 15 17" fill="none" xmlns="http://www.w3.org/2000/svg">
<path d="M11.2003 2.52425C10.5927 1.83058 10.2579 0.93974 10.2581 0.0175781H7.51145V11.0398C7.49026 11.6363 7.23845 12.2012 6.80902 12.6157C6.37959 13.0302 5.80607 13.2619 5.20923 13.262C3.94701 13.262 2.89813 12.2309 2.89813 10.9509C2.89813 9.42202 4.37368 8.27536 5.89368 8.74647V5.93758C2.82702 5.52869 0.142578 7.91091 0.142578 10.9509C0.142578 13.9109 2.59591 16.0176 5.20034 16.0176C7.99145 16.0176 10.2581 13.7509 10.2581 10.9509V5.3598C11.3719 6.15967 12.7091 6.58882 14.0803 6.58647V3.8398C14.0803 3.8398 12.4092 3.9198 11.2003 2.52425Z" fill="#FEFEFE"/>
</svg>
