<svg width="20" height="21" viewBox="0 0 20 21" fill="none" xmlns="http://www.w3.org/2000/svg">
<path d="M17.0899 3.07031C18.0158 3.98725 18.75 5.07929 19.2496 6.2828C19.7492 7.48632 20.0043 8.77723 19.9999 10.0803C19.9999 15.5403 15.5499 19.9903 10.0899 19.9903C8.33995 19.9903 6.63995 19.5303 5.13995 18.6703L-5.34058e-05 20.0703L1.37995 14.8203C0.589945 13.3703 0.169947 11.7403 0.169947 10.0803C0.169947 4.62031 4.61995 0.170311 10.0799 0.170311C12.7299 0.170311 15.2199 1.20031 17.0899 3.07031ZM1.84995 10.0803C1.84995 11.5603 2.24995 13.0103 2.99995 14.2803L3.17995 14.5803L2.35995 17.7003L5.39995 16.8703L5.70994 17.0703C7.02289 17.8928 8.54067 18.3294 10.0899 18.3303C14.6299 18.3303 18.3299 14.6303 18.3299 10.0903C18.3299 7.89031 17.4699 5.82031 15.9099 4.27031C15.1461 3.5027 14.2374 2.89439 13.2366 2.48069C12.2358 2.06698 11.1629 1.85611 10.0799 1.86031C5.53995 1.84031 1.84995 5.54031 1.84995 10.0803ZM8.00995 5.56031C8.12995 5.81031 8.72995 7.03031 8.81995 7.25031C8.89995 7.48031 8.93995 7.64031 8.69995 7.81031C8.44995 7.98031 7.88995 8.45031 7.72995 8.59031C7.55995 8.73031 7.53995 8.88031 7.66995 9.13031C7.78995 9.38031 8.05995 10.1803 8.89995 11.1203C9.55995 11.8603 10.3699 12.3503 10.6199 12.5003C10.8699 12.6403 10.9999 12.5203 11.1299 12.3903C11.2399 12.2803 11.4199 12.1403 11.5599 12.0203C11.6999 11.9003 11.8099 11.8503 11.9699 11.7703C12.1399 11.6903 12.2799 11.7303 12.3999 11.7903C12.5199 11.8503 13.7399 12.3503 14.2399 12.5503C14.7199 12.7503 14.6599 12.9603 14.6699 13.1103V13.5903C14.6699 13.7603 14.6099 14.0203 14.3599 14.2503C14.1099 14.4703 13.5099 15.1103 12.2899 15.1103C11.0699 15.1103 9.88995 14.2203 9.72995 14.1003C9.55995 13.9803 7.05995 12.3503 5.98995 9.87031C5.72995 9.28031 5.57994 8.82031 5.46994 8.46031C5.27995 7.87031 5.30995 7.33031 5.36995 6.90031C5.43995 6.42031 5.96995 5.43031 6.54995 5.23031C7.12995 5.02031 7.61995 5.02031 7.72995 5.09031C7.83994 5.16031 7.88995 5.31031 8.00995 5.56031Z" fill="black"/>
</svg>
