<svg width="23" height="23" viewBox="0 0 23 23" fill="none" xmlns="http://www.w3.org/2000/svg">
<g clip-path="url(#clip0_3068_4427)">
<path d="M0.490977 11.362C0.490437 13.2944 0.999312 15.1813 1.96693 16.8444L0.398438 22.5269L6.25913 21.0021C7.88012 21.8777 9.69632 22.3365 11.5419 22.3366H11.5468C17.6395 22.3366 22.5992 17.4172 22.6018 11.3706C22.603 8.4406 21.454 5.68541 19.3666 3.61256C17.2795 1.53989 14.5038 0.397822 11.5463 0.396484C5.45287 0.396484 0.493582 5.31563 0.491066 11.362" fill="url(#paint0_linear_3068_4427)"/>
<path d="M0.0961328 11.3588C0.0955039 13.3608 0.622617 15.3151 1.62473 17.0378L0 22.924L6.07083 21.3445C7.74354 22.2495 9.62685 22.7266 11.5432 22.7273H11.5482C17.8595 22.7273 22.9973 17.6309 23 11.3679C23.0011 8.3326 21.8108 5.47837 19.6488 3.33126C17.4866 1.18441 14.6116 0.00124806 11.5482 0C5.23573 0 0.0986484 5.09566 0.0961328 11.3588ZM3.71154 16.7411L3.48486 16.3841C2.53198 14.8807 2.02903 13.1434 2.02975 11.3595C2.03173 6.15375 6.30146 1.91845 11.5518 1.91845C14.0943 1.91952 16.4838 2.90299 18.281 4.68736C20.0782 6.47191 21.0671 8.84412 21.0665 11.3672C21.0641 16.5729 16.7943 20.8088 11.5482 20.8088H11.5444C9.83618 20.8079 8.16087 20.3527 6.69983 19.4925L6.35213 19.2879L2.74958 20.2251L3.71154 16.7411Z" fill="url(#paint1_linear_3068_4427)"/>
<path d="M8.68527 6.61047C8.47091 6.13772 8.24531 6.12818 8.04145 6.11989C7.87452 6.11276 7.68369 6.11329 7.49305 6.11329C7.30222 6.11329 6.99217 6.18452 6.73009 6.46845C6.46775 6.75265 5.72852 7.43945 5.72852 8.83629C5.72852 10.2331 6.7539 11.5832 6.89684 11.7728C7.03997 11.9621 8.87637 14.9203 11.7848 16.0584C14.2019 17.0041 14.6938 16.816 15.2184 16.7686C15.7431 16.7214 16.9115 16.082 17.1498 15.419C17.3883 14.7561 17.3883 14.1879 17.3168 14.0692C17.2453 13.9509 17.0545 13.8798 16.7683 13.7379C16.4822 13.596 15.0753 12.909 14.8131 12.8142C14.5507 12.7196 14.36 12.6723 14.1692 12.9566C13.9783 13.2404 13.4304 13.8798 13.2634 14.0692C13.0965 14.2589 12.9295 14.2826 12.6434 14.1406C12.3571 13.9981 11.4356 13.6987 10.3423 12.7315C9.49162 11.9789 8.91734 11.0496 8.75041 10.7653C8.58348 10.4814 8.73253 10.3276 8.87601 10.1861C9.00458 10.0589 9.16225 9.85453 9.30546 9.68881C9.44814 9.523 9.49575 9.4047 9.59117 9.21535C9.68667 9.02582 9.63888 8.86001 9.56745 8.718C9.49575 8.57598 8.93971 7.17183 8.68527 6.61047Z" fill="white"/>
</g>
<defs>
<linearGradient id="paint0_linear_3068_4427" x1="1110.57" y1="2213.43" x2="1110.57" y2="0.396484" gradientUnits="userSpaceOnUse">
<stop stop-color="#1FAF38"/>
<stop offset="1" stop-color="#60D669"/>
</linearGradient>
<linearGradient id="paint1_linear_3068_4427" x1="1150" y1="2292.4" x2="1150" y2="0" gradientUnits="userSpaceOnUse">
<stop stop-color="#F9F9F9"/>
<stop offset="1" stop-color="white"/>
</linearGradient>
<clipPath id="clip0_3068_4427">
<rect width="23" height="23" fill="white"/>
</clipPath>
</defs>
</svg>
