<svg width="24" height="17" viewBox="0 0 24 17" fill="none" xmlns="http://www.w3.org/2000/svg">
<path d="M9.69361 12.3876L15.625 8.95898L9.69361 5.53041V12.3876ZM22.905 3.43898C23.0536 3.97613 23.1564 4.69613 23.225 5.61041C23.305 6.5247 23.3393 7.31327 23.3393 7.99898L23.4079 8.95898C23.4079 11.4618 23.225 13.3018 22.905 14.479C22.6193 15.5076 21.9564 16.1704 20.9279 16.4561C20.3907 16.6047 19.4079 16.7076 17.8993 16.7761C16.4136 16.8561 15.0536 16.8904 13.7965 16.8904L11.9793 16.959C7.19076 16.959 4.20791 16.7761 3.03077 16.4561C2.00221 16.1704 1.33935 15.5076 1.05364 14.479C0.905066 13.9418 0.802209 13.2218 0.733638 12.3076C0.653638 11.3933 0.619352 10.6047 0.619352 9.91898L0.550781 8.95898C0.550781 6.45613 0.733638 4.61613 1.05364 3.43898C1.33935 2.41041 2.00221 1.74756 3.03077 1.46184C3.56792 1.31327 4.55077 1.21041 6.05934 1.14184C7.54505 1.06184 8.90504 1.02756 10.1622 1.02756L11.9793 0.958984C16.7679 0.958984 19.7507 1.14184 20.9279 1.46184C21.9564 1.74756 22.6193 2.41041 22.905 3.43898Z" fill="#FEFEFE"/>
</svg>
